%TF.GenerationSoftware,KiCad,Pcbnew,8.0.5*%
%TF.CreationDate,2025-03-05T13:38:36-05:00*%
%TF.ProjectId,minimax,6d696e69-6d61-4782-9e6b-696361645f70,rev?*%
%TF.SameCoordinates,Original*%
%TF.FileFunction,Copper,L3,Inr*%
%TF.FilePolarity,Positive*%
%FSLAX46Y46*%
G04 Gerber Fmt 4.6, Leading zero omitted, Abs format (unit mm)*
G04 Created by KiCad (PCBNEW 8.0.5) date 2025-03-05 13:38:36*
%MOMM*%
%LPD*%
G01*
G04 APERTURE LIST*
G04 Aperture macros list*
%AMFreePoly0*
4,1,25,1.707678,1.177678,1.715000,1.160000,1.715000,-0.940000,1.707678,-0.957678,0.957678,-1.707678,0.940000,-1.715000,-1.160000,-1.715000,-1.177678,-1.707678,-1.185000,-1.690000,-1.185000,0.000000,-1.177678,0.017678,-1.156389,0.038966,-1.140249,0.213149,-1.081668,0.419040,-0.986252,0.610661,-0.857250,0.781487,-0.699056,0.925700,-0.517056,1.038389,-0.317449,1.115718,-0.107031,1.155052,
-0.040304,1.155052,-0.017678,1.177678,0.000000,1.185000,1.690000,1.185000,1.707678,1.177678,1.707678,1.177678,$1*%
%AMFreePoly1*
4,1,25,0.017678,1.177678,0.040304,1.155052,0.107031,1.155052,0.317449,1.115718,0.517056,1.038389,0.699056,0.925700,0.857250,0.781487,0.986252,0.610661,1.081668,0.419040,1.140249,0.213149,1.156389,0.038966,1.177678,0.017678,1.185000,0.000000,1.185000,-1.690000,1.177678,-1.707678,1.160000,-1.715000,-0.940000,-1.715000,-0.957678,-1.707678,-1.707678,-0.957678,-1.715000,-0.940000,
-1.715000,1.160000,-1.707678,1.177678,-1.690000,1.185000,0.000000,1.185000,0.017678,1.177678,0.017678,1.177678,$1*%
%AMFreePoly2*
4,1,25,1.177678,1.707678,1.185000,1.690000,1.185000,0.000000,1.177678,-0.017678,1.156389,-0.038966,1.140249,-0.213149,1.081668,-0.419040,0.986252,-0.610661,0.857250,-0.781487,0.699056,-0.925700,0.517056,-1.038389,0.317449,-1.115718,0.107031,-1.155052,0.040304,-1.155052,0.017678,-1.177678,0.000000,-1.185000,-1.690000,-1.185000,-1.707678,-1.177678,-1.715000,-1.160000,-1.715000,0.940000,
-1.707678,0.957678,-0.957678,1.707678,-0.940000,1.715000,1.160000,1.715000,1.177678,1.707678,1.177678,1.707678,$1*%
G04 Aperture macros list end*
%TA.AperFunction,ComponentPad*%
%ADD10C,1.000000*%
%TD*%
%TA.AperFunction,ComponentPad*%
%ADD11FreePoly0,180.000000*%
%TD*%
%TA.AperFunction,ComponentPad*%
%ADD12FreePoly1,180.000000*%
%TD*%
%TA.AperFunction,ComponentPad*%
%ADD13FreePoly2,90.000000*%
%TD*%
%TA.AperFunction,ComponentPad*%
%ADD14FreePoly2,180.000000*%
%TD*%
%TA.AperFunction,ViaPad*%
%ADD15C,0.600000*%
%TD*%
%TA.AperFunction,Conductor*%
%ADD16C,0.254000*%
%TD*%
G04 APERTURE END LIST*
D10*
%TO.N,Net-(U1-MFP8)*%
%TO.C,TP1*%
X132000000Y-126000000D03*
%TD*%
%TO.N,Net-(U1-MFP7)*%
%TO.C,TP2*%
X132000000Y-123500000D03*
%TD*%
D11*
%TO.N,GND*%
%TO.C,J2*%
X152540000Y-96540000D03*
D12*
X147460000Y-96540000D03*
D13*
X152550000Y-91450000D03*
D14*
X147460000Y-91460000D03*
%TD*%
D10*
%TO.N,Net-(U1-MFP6)*%
%TO.C,TP3*%
X132000000Y-121000000D03*
%TD*%
D15*
%TO.N,VDDIO*%
X156300000Y-116900000D03*
X165300000Y-124200000D03*
X165300000Y-121000000D03*
X141300000Y-109225000D03*
X168300000Y-101300000D03*
%TO.N,+3V3*%
X168400000Y-99500000D03*
X133412500Y-104525000D03*
X166146447Y-106400000D03*
X162546447Y-117350000D03*
X155200000Y-123750000D03*
X133550000Y-114600000D03*
X161546447Y-117350000D03*
X135200000Y-98600000D03*
X162500000Y-98600000D03*
X141600000Y-98500000D03*
X165171447Y-106400000D03*
%TO.N,MFP1_CFG0*%
X163500000Y-124000000D03*
X155250000Y-113100000D03*
%TO.N,MFP2_CFG1*%
X155225000Y-112050000D03*
X163500000Y-120800000D03*
%TO.N,/camera/MIPI.CSI_D2_N*%
X149635240Y-124520000D03*
X147485230Y-116940000D03*
%TO.N,GND*%
X149738900Y-111550000D03*
X137925000Y-118550000D03*
X144475000Y-97250000D03*
X136025000Y-99975000D03*
X147050000Y-124400000D03*
X162521447Y-110650000D03*
X148900000Y-104250000D03*
X162046447Y-114650000D03*
X137300000Y-124600000D03*
X157875000Y-126725000D03*
X162521447Y-107150000D03*
X148751286Y-113537614D03*
X154100000Y-124700000D03*
X142175000Y-100250000D03*
X150738900Y-111550000D03*
X144425000Y-91575000D03*
X139500000Y-125125000D03*
X158400000Y-99725000D03*
X162046447Y-107875000D03*
X150738900Y-112550000D03*
X140397879Y-116337024D03*
X148690000Y-119760000D03*
X162850000Y-114650000D03*
X167000000Y-123900000D03*
X131825000Y-103925000D03*
X148500000Y-124100000D03*
X162050000Y-113850000D03*
X155300000Y-96100000D03*
X148738900Y-112550000D03*
X149738900Y-112550000D03*
X161571447Y-109200000D03*
X162521447Y-109200000D03*
X162021447Y-111400000D03*
X149738900Y-113550000D03*
X131850000Y-105775000D03*
X131675000Y-113900000D03*
X144425000Y-94200000D03*
X167125000Y-126850000D03*
X151020000Y-123720000D03*
X155300000Y-92200000D03*
X142500000Y-121300000D03*
X161571447Y-107150000D03*
X162850000Y-100000000D03*
X137700000Y-122000000D03*
X155300000Y-94000000D03*
X161571447Y-110650000D03*
X161250000Y-114650000D03*
X150270000Y-121110000D03*
X162046447Y-109925000D03*
X150738900Y-113550000D03*
X147000000Y-118020000D03*
X145500000Y-124350000D03*
X162050000Y-115425000D03*
X159675000Y-122225000D03*
X148738900Y-111550000D03*
X164873224Y-116050000D03*
X131850000Y-116000000D03*
%TO.N,/camera/MIPI.CSI_D2_P*%
X148214770Y-116940000D03*
X150364780Y-124520000D03*
%TO.N,/camera/MFP9_SDA*%
X155850000Y-120050000D03*
X136850000Y-105500000D03*
X139150000Y-113500000D03*
X154650000Y-111050000D03*
%TO.N,/camera/MFP10_SCL*%
X154800000Y-119200000D03*
X136850000Y-106500000D03*
X153700000Y-111000000D03*
X138900000Y-114550000D03*
%TO.N,/connector/V_POC*%
X158421447Y-113375000D03*
X158421447Y-112400000D03*
X156100000Y-103700000D03*
X165671447Y-112400000D03*
X156100000Y-101900000D03*
X165671447Y-113375000D03*
X157000000Y-102800000D03*
X156100000Y-102800000D03*
X157000000Y-103700000D03*
X157000000Y-101900000D03*
%TO.N,/camera/LED_EN*%
X153500000Y-120300000D03*
X145325000Y-112950000D03*
%TO.N,/camera/POWER_EN*%
X153650000Y-114350000D03*
X153050000Y-123800000D03*
%TO.N,+1V2*%
X160696447Y-118000000D03*
X144575000Y-108300000D03*
%TO.N,+1V8*%
X164700000Y-99600000D03*
X159796447Y-116100000D03*
X157946447Y-106400000D03*
X158946447Y-106400000D03*
%TO.N,Net-(U1-MFP8)*%
X157900000Y-121600000D03*
%TO.N,/gmsl/LOCK*%
X144100000Y-110300000D03*
X132900000Y-99700000D03*
%TO.N,/gmsl/ERRB*%
X144300000Y-111500000D03*
X139400000Y-99600000D03*
%TO.N,Net-(Q3-G)*%
X160200000Y-99000000D03*
X159146447Y-115300000D03*
X167623224Y-117200000D03*
%TO.N,Net-(U1-MFP7)*%
X156900000Y-121600000D03*
%TO.N,Net-(U1-MFP6)*%
X145200000Y-114075000D03*
%TD*%
D16*
%TO.N,VDDIO*%
X156300000Y-116900000D02*
X159300000Y-119900000D01*
X155100000Y-116900000D02*
X156300000Y-116900000D01*
X152500000Y-111600000D02*
X152500000Y-114300000D01*
X168300000Y-118000000D02*
X165300000Y-121000000D01*
X159300000Y-119900000D02*
X164200000Y-119900000D01*
X150125000Y-109225000D02*
X152500000Y-111600000D01*
X152500000Y-114300000D02*
X155100000Y-116900000D01*
X168300000Y-101300000D02*
X168300000Y-118000000D01*
X165300000Y-124200000D02*
X165300000Y-121000000D01*
X164200000Y-119900000D02*
X165300000Y-121000000D01*
X141300000Y-109225000D02*
X150125000Y-109225000D01*
%TO.N,+3V3*%
X166646447Y-106900000D02*
X166146447Y-106400000D01*
X166021447Y-114150000D02*
X166646447Y-113525000D01*
X164921447Y-114150000D02*
X166021447Y-114150000D01*
X166646447Y-113525000D02*
X166646447Y-106900000D01*
X162546447Y-117350000D02*
X162546447Y-116525000D01*
X162546447Y-116525000D02*
X164921447Y-114150000D01*
X165171447Y-106400000D02*
X166146447Y-106400000D01*
X166146447Y-106400000D02*
X166371447Y-106400000D01*
%TO.N,+1V2*%
X159200000Y-118000000D02*
X156300000Y-115100000D01*
X156300000Y-115100000D02*
X156300000Y-111700000D01*
X160696447Y-118000000D02*
X159200000Y-118000000D01*
X156300000Y-111700000D02*
X152900000Y-108300000D01*
X152900000Y-108300000D02*
X144575000Y-108300000D01*
%TO.N,+1V8*%
X158946447Y-106400000D02*
X159900000Y-106400000D01*
X157596447Y-114696447D02*
X157596447Y-106750000D01*
X164700000Y-101600000D02*
X164700000Y-99600000D01*
X158946447Y-106400000D02*
X158971447Y-106400000D01*
X159000000Y-116100000D02*
X157596447Y-114696447D01*
X157946447Y-106400000D02*
X158946447Y-106400000D01*
X159900000Y-106400000D02*
X164700000Y-101600000D01*
X159796447Y-116100000D02*
X159000000Y-116100000D01*
X157596447Y-106750000D02*
X157946447Y-106400000D01*
%TD*%
%TA.AperFunction,Conductor*%
%TO.N,+3V3*%
G36*
X168004418Y-88500816D02*
G01*
X168204561Y-88515130D01*
X168222063Y-88517647D01*
X168413797Y-88559355D01*
X168430755Y-88564334D01*
X168614609Y-88632909D01*
X168630701Y-88640259D01*
X168802904Y-88734288D01*
X168817784Y-88743849D01*
X168896432Y-88802725D01*
X168974867Y-88861441D01*
X168988237Y-88873027D01*
X169126972Y-89011762D01*
X169138558Y-89025132D01*
X169256146Y-89182210D01*
X169265711Y-89197095D01*
X169359740Y-89369298D01*
X169367090Y-89385390D01*
X169435662Y-89569236D01*
X169440646Y-89586212D01*
X169482351Y-89777931D01*
X169484869Y-89795442D01*
X169499184Y-89995580D01*
X169499500Y-90004427D01*
X169499500Y-125995572D01*
X169499184Y-126004419D01*
X169484869Y-126204557D01*
X169482351Y-126222068D01*
X169440646Y-126413787D01*
X169435662Y-126430763D01*
X169367090Y-126614609D01*
X169359740Y-126630701D01*
X169265711Y-126802904D01*
X169256146Y-126817789D01*
X169138558Y-126974867D01*
X169126972Y-126988237D01*
X168988237Y-127126972D01*
X168974867Y-127138558D01*
X168817789Y-127256146D01*
X168802904Y-127265711D01*
X168630701Y-127359740D01*
X168614609Y-127367090D01*
X168430763Y-127435662D01*
X168413787Y-127440646D01*
X168222068Y-127482351D01*
X168204557Y-127484869D01*
X168035359Y-127496971D01*
X168004417Y-127499184D01*
X167995572Y-127499500D01*
X167548142Y-127499500D01*
X167481103Y-127479815D01*
X167435348Y-127427011D01*
X167425404Y-127357853D01*
X167454429Y-127294297D01*
X167472655Y-127277125D01*
X167478448Y-127272679D01*
X167517621Y-127242621D01*
X167605861Y-127127625D01*
X167661330Y-126993709D01*
X167680250Y-126850000D01*
X167661330Y-126706291D01*
X167609554Y-126581291D01*
X167605862Y-126572377D01*
X167605861Y-126572376D01*
X167605861Y-126572375D01*
X167517621Y-126457379D01*
X167402625Y-126369139D01*
X167402624Y-126369138D01*
X167402622Y-126369137D01*
X167268712Y-126313671D01*
X167268710Y-126313670D01*
X167268709Y-126313670D01*
X167196854Y-126304210D01*
X167125001Y-126294750D01*
X167124999Y-126294750D01*
X166981291Y-126313670D01*
X166981287Y-126313671D01*
X166847377Y-126369137D01*
X166732379Y-126457379D01*
X166644137Y-126572377D01*
X166588671Y-126706287D01*
X166588670Y-126706291D01*
X166569750Y-126849999D01*
X166569750Y-126850000D01*
X166588670Y-126993708D01*
X166588671Y-126993712D01*
X166644137Y-127127622D01*
X166644138Y-127127624D01*
X166644139Y-127127625D01*
X166732379Y-127242621D01*
X166762470Y-127265711D01*
X166777345Y-127277125D01*
X166818547Y-127333553D01*
X166822702Y-127403299D01*
X166788489Y-127464219D01*
X166726772Y-127496971D01*
X166701858Y-127499500D01*
X158067105Y-127499500D01*
X158000066Y-127479815D01*
X157954311Y-127427011D01*
X157944367Y-127357853D01*
X157973392Y-127294297D01*
X158019653Y-127260939D01*
X158063877Y-127242621D01*
X158152625Y-127205861D01*
X158267621Y-127117621D01*
X158355861Y-127002625D01*
X158411330Y-126868709D01*
X158430250Y-126725000D01*
X158411330Y-126581291D01*
X158355861Y-126447375D01*
X158267621Y-126332379D01*
X158152625Y-126244139D01*
X158152624Y-126244138D01*
X158152622Y-126244137D01*
X158018712Y-126188671D01*
X158018710Y-126188670D01*
X158018709Y-126188670D01*
X157946854Y-126179210D01*
X157875001Y-126169750D01*
X157874999Y-126169750D01*
X157731291Y-126188670D01*
X157731287Y-126188671D01*
X157597377Y-126244137D01*
X157482379Y-126332379D01*
X157394137Y-126447377D01*
X157338671Y-126581287D01*
X157338670Y-126581291D01*
X157334284Y-126614609D01*
X157319750Y-126725000D01*
X157330006Y-126802904D01*
X157338670Y-126868708D01*
X157338671Y-126868712D01*
X157394137Y-127002622D01*
X157394138Y-127002624D01*
X157394139Y-127002625D01*
X157482379Y-127117621D01*
X157597375Y-127205861D01*
X157597376Y-127205861D01*
X157597377Y-127205862D01*
X157730347Y-127260939D01*
X157784751Y-127304779D01*
X157806816Y-127371073D01*
X157789537Y-127438773D01*
X157738400Y-127486384D01*
X157682895Y-127499500D01*
X132004428Y-127499500D01*
X131995582Y-127499184D01*
X131964641Y-127496971D01*
X131795442Y-127484869D01*
X131777931Y-127482351D01*
X131586212Y-127440646D01*
X131569236Y-127435662D01*
X131385390Y-127367090D01*
X131369298Y-127359740D01*
X131197095Y-127265711D01*
X131182210Y-127256146D01*
X131164144Y-127242622D01*
X131025132Y-127138558D01*
X131011762Y-127126972D01*
X130873027Y-126988237D01*
X130861441Y-126974867D01*
X130767966Y-126850000D01*
X130743849Y-126817784D01*
X130734288Y-126802904D01*
X130640259Y-126630701D01*
X130632909Y-126614609D01*
X130579302Y-126470884D01*
X130564334Y-126430755D01*
X130559355Y-126413797D01*
X130517647Y-126222063D01*
X130515130Y-126204556D01*
X130512519Y-126168056D01*
X130500816Y-126004418D01*
X130500658Y-125999997D01*
X131244751Y-125999997D01*
X131244751Y-126000002D01*
X131263685Y-126168056D01*
X131319545Y-126327694D01*
X131319547Y-126327697D01*
X131409518Y-126470884D01*
X131409523Y-126470890D01*
X131529109Y-126590476D01*
X131529115Y-126590481D01*
X131672302Y-126680452D01*
X131672305Y-126680454D01*
X131672309Y-126680455D01*
X131672310Y-126680456D01*
X131744913Y-126705860D01*
X131831943Y-126736314D01*
X131999997Y-126755249D01*
X132000000Y-126755249D01*
X132000003Y-126755249D01*
X132168056Y-126736314D01*
X132168059Y-126736313D01*
X132327690Y-126680456D01*
X132327692Y-126680454D01*
X132327694Y-126680454D01*
X132327697Y-126680452D01*
X132470884Y-126590481D01*
X132470885Y-126590480D01*
X132470890Y-126590477D01*
X132590477Y-126470890D01*
X132602629Y-126451551D01*
X132680452Y-126327697D01*
X132680454Y-126327694D01*
X132680454Y-126327692D01*
X132680456Y-126327690D01*
X132736313Y-126168059D01*
X132736313Y-126168058D01*
X132736314Y-126168056D01*
X132755249Y-126000002D01*
X132755249Y-125999997D01*
X132736314Y-125831943D01*
X132680454Y-125672305D01*
X132680452Y-125672302D01*
X132590481Y-125529115D01*
X132590476Y-125529109D01*
X132470890Y-125409523D01*
X132470884Y-125409518D01*
X132327697Y-125319547D01*
X132327694Y-125319545D01*
X132168056Y-125263685D01*
X132000003Y-125244751D01*
X131999997Y-125244751D01*
X131831943Y-125263685D01*
X131672305Y-125319545D01*
X131672302Y-125319547D01*
X131529115Y-125409518D01*
X131529109Y-125409523D01*
X131409523Y-125529109D01*
X131409518Y-125529115D01*
X131319547Y-125672302D01*
X131319545Y-125672305D01*
X131263685Y-125831943D01*
X131244751Y-125999997D01*
X130500658Y-125999997D01*
X130500500Y-125995572D01*
X130500500Y-124600000D01*
X136744750Y-124600000D01*
X136762698Y-124736329D01*
X136763670Y-124743708D01*
X136763671Y-124743712D01*
X136819137Y-124877622D01*
X136819138Y-124877624D01*
X136819139Y-124877625D01*
X136907379Y-124992621D01*
X137022375Y-125080861D01*
X137022376Y-125080861D01*
X137022377Y-125080862D01*
X137067013Y-125099350D01*
X137156291Y-125136330D01*
X137283280Y-125153048D01*
X137299999Y-125155250D01*
X137300000Y-125155250D01*
X137300001Y-125155250D01*
X137314977Y-125153278D01*
X137443709Y-125136330D01*
X137471065Y-125124999D01*
X138944750Y-125124999D01*
X138944750Y-125125000D01*
X138963670Y-125268708D01*
X138963671Y-125268712D01*
X139019137Y-125402622D01*
X139019138Y-125402624D01*
X139019139Y-125402625D01*
X139107379Y-125517621D01*
X139222375Y-125605861D01*
X139356291Y-125661330D01*
X139483280Y-125678048D01*
X139499999Y-125680250D01*
X139500000Y-125680250D01*
X139500001Y-125680250D01*
X139514977Y-125678278D01*
X139643709Y-125661330D01*
X139777625Y-125605861D01*
X139892621Y-125517621D01*
X139980861Y-125402625D01*
X140036330Y-125268709D01*
X140055250Y-125125000D01*
X140036330Y-124981291D01*
X139980861Y-124847375D01*
X139892621Y-124732379D01*
X139777625Y-124644139D01*
X139777624Y-124644138D01*
X139777622Y-124644137D01*
X139643712Y-124588671D01*
X139643710Y-124588670D01*
X139643709Y-124588670D01*
X139558760Y-124577486D01*
X139500001Y-124569750D01*
X139499999Y-124569750D01*
X139356291Y-124588670D01*
X139356287Y-124588671D01*
X139222377Y-124644137D01*
X139107379Y-124732379D01*
X139019137Y-124847377D01*
X138963671Y-124981287D01*
X138963670Y-124981291D01*
X138944750Y-125124999D01*
X137471065Y-125124999D01*
X137577625Y-125080861D01*
X137692621Y-124992621D01*
X137780861Y-124877625D01*
X137836330Y-124743709D01*
X137855250Y-124600000D01*
X137853758Y-124588671D01*
X137847839Y-124543708D01*
X137836330Y-124456291D01*
X137794478Y-124355250D01*
X137792303Y-124350000D01*
X144944750Y-124350000D01*
X144961978Y-124480861D01*
X144963670Y-124493708D01*
X144963671Y-124493712D01*
X145019137Y-124627622D01*
X145019138Y-124627624D01*
X145019139Y-124627625D01*
X145107379Y-124742621D01*
X145222375Y-124830861D01*
X145222376Y-124830861D01*
X145222377Y-124830862D01*
X145262244Y-124847375D01*
X145356291Y-124886330D01*
X145483280Y-124903048D01*
X145499999Y-124905250D01*
X145500000Y-124905250D01*
X145500001Y-124905250D01*
X145514977Y-124903278D01*
X145643709Y-124886330D01*
X145777625Y-124830861D01*
X145892621Y-124742621D01*
X145980861Y-124627625D01*
X146036330Y-124493709D01*
X146048667Y-124400000D01*
X146494750Y-124400000D01*
X146512698Y-124536329D01*
X146513670Y-124543708D01*
X146513671Y-124543712D01*
X146569137Y-124677622D01*
X146569138Y-124677624D01*
X146569139Y-124677625D01*
X146657379Y-124792621D01*
X146772375Y-124880861D01*
X146772376Y-124880861D01*
X146772377Y-124880862D01*
X146817013Y-124899350D01*
X146906291Y-124936330D01*
X147033280Y-124953048D01*
X147049999Y-124955250D01*
X147050000Y-124955250D01*
X147050001Y-124955250D01*
X147064977Y-124953278D01*
X147193709Y-124936330D01*
X147327625Y-124880861D01*
X147442621Y-124792621D01*
X147530861Y-124677625D01*
X147586330Y-124543709D01*
X147605250Y-124400000D01*
X147586330Y-124256291D01*
X147530861Y-124122375D01*
X147513692Y-124100000D01*
X147944750Y-124100000D01*
X147963494Y-124242375D01*
X147963670Y-124243708D01*
X147963671Y-124243712D01*
X148019137Y-124377622D01*
X148019138Y-124377624D01*
X148019139Y-124377625D01*
X148107379Y-124492621D01*
X148222375Y-124580861D01*
X148222376Y-124580861D01*
X148222377Y-124580862D01*
X148267013Y-124599350D01*
X148356291Y-124636330D01*
X148483280Y-124653048D01*
X148499999Y-124655250D01*
X148500000Y-124655250D01*
X148500001Y-124655250D01*
X148514977Y-124653278D01*
X148643709Y-124636330D01*
X148777625Y-124580861D01*
X148889135Y-124495295D01*
X148954300Y-124470102D01*
X149022745Y-124484140D01*
X149072736Y-124532953D01*
X149087558Y-124577486D01*
X149089031Y-124588670D01*
X149097796Y-124655250D01*
X149098910Y-124663707D01*
X149098911Y-124663712D01*
X149154377Y-124797622D01*
X149154378Y-124797624D01*
X149154379Y-124797625D01*
X149242619Y-124912621D01*
X149357615Y-125000861D01*
X149491531Y-125056330D01*
X149618520Y-125073048D01*
X149635239Y-125075250D01*
X149635240Y-125075250D01*
X149635241Y-125075250D01*
X149650217Y-125073278D01*
X149778949Y-125056330D01*
X149912865Y-125000861D01*
X149924523Y-124991915D01*
X149989689Y-124966720D01*
X150058135Y-124980757D01*
X150075492Y-124991911D01*
X150087155Y-125000861D01*
X150221071Y-125056330D01*
X150348060Y-125073048D01*
X150364779Y-125075250D01*
X150364780Y-125075250D01*
X150364781Y-125075250D01*
X150379757Y-125073278D01*
X150508489Y-125056330D01*
X150642405Y-125000861D01*
X150757401Y-124912621D01*
X150845641Y-124797625D01*
X150886078Y-124700000D01*
X153544750Y-124700000D01*
X153561978Y-124830861D01*
X153563670Y-124843708D01*
X153563671Y-124843712D01*
X153619137Y-124977622D01*
X153619138Y-124977624D01*
X153619139Y-124977625D01*
X153707379Y-125092621D01*
X153822375Y-125180861D01*
X153956291Y-125236330D01*
X154083280Y-125253048D01*
X154099999Y-125255250D01*
X154100000Y-125255250D01*
X154100001Y-125255250D01*
X154114977Y-125253278D01*
X154243709Y-125236330D01*
X154377625Y-125180861D01*
X154492621Y-125092621D01*
X154580861Y-124977625D01*
X154636330Y-124843709D01*
X154655250Y-124700000D01*
X154636330Y-124556291D01*
X154586641Y-124436329D01*
X154580862Y-124422377D01*
X154580861Y-124422376D01*
X154580861Y-124422375D01*
X154492621Y-124307379D01*
X154377625Y-124219139D01*
X154377624Y-124219138D01*
X154377622Y-124219137D01*
X154243712Y-124163671D01*
X154243710Y-124163670D01*
X154243709Y-124163670D01*
X154139095Y-124149897D01*
X154100001Y-124144750D01*
X154099999Y-124144750D01*
X153956291Y-124163670D01*
X153956287Y-124163671D01*
X153822377Y-124219137D01*
X153707379Y-124307379D01*
X153619137Y-124422377D01*
X153563671Y-124556287D01*
X153563670Y-124556291D01*
X153547270Y-124680862D01*
X153544750Y-124700000D01*
X150886078Y-124700000D01*
X150901110Y-124663709D01*
X150920030Y-124520000D01*
X150906245Y-124415295D01*
X150917010Y-124346261D01*
X150963390Y-124294005D01*
X151012999Y-124276171D01*
X151019997Y-124275249D01*
X151020000Y-124275250D01*
X151163709Y-124256330D01*
X151297625Y-124200861D01*
X151412621Y-124112621D01*
X151500861Y-123997625D01*
X151556330Y-123863709D01*
X151564718Y-123800000D01*
X152494750Y-123800000D01*
X152510861Y-123922376D01*
X152513670Y-123943708D01*
X152513671Y-123943712D01*
X152569137Y-124077622D01*
X152569138Y-124077624D01*
X152569139Y-124077625D01*
X152657379Y-124192621D01*
X152772375Y-124280861D01*
X152772376Y-124280861D01*
X152772377Y-124280862D01*
X152804108Y-124294005D01*
X152906291Y-124336330D01*
X153033280Y-124353048D01*
X153049999Y-124355250D01*
X153050000Y-124355250D01*
X153050001Y-124355250D01*
X153064977Y-124353278D01*
X153193709Y-124336330D01*
X153327625Y-124280861D01*
X153442621Y-124192621D01*
X153530861Y-124077625D01*
X153563014Y-124000000D01*
X162944750Y-124000000D01*
X162958706Y-124106008D01*
X162963670Y-124143708D01*
X162963671Y-124143712D01*
X163019137Y-124277622D01*
X163019138Y-124277624D01*
X163019139Y-124277625D01*
X163107379Y-124392621D01*
X163222375Y-124480861D01*
X163222376Y-124480861D01*
X163222377Y-124480862D01*
X163257227Y-124495297D01*
X163356291Y-124536330D01*
X163483280Y-124553048D01*
X163499999Y-124555250D01*
X163500000Y-124555250D01*
X163500001Y-124555250D01*
X163514977Y-124553278D01*
X163643709Y-124536330D01*
X163777625Y-124480861D01*
X163892621Y-124392621D01*
X163980861Y-124277625D01*
X164036330Y-124143709D01*
X164055250Y-124000000D01*
X164036330Y-123856291D01*
X163980861Y-123722375D01*
X163892621Y-123607379D01*
X163777625Y-123519139D01*
X163777624Y-123519138D01*
X163777622Y-123519137D01*
X163643712Y-123463671D01*
X163643710Y-123463670D01*
X163643709Y-123463670D01*
X163571854Y-123454210D01*
X163500001Y-123444750D01*
X163499999Y-123444750D01*
X163356291Y-123463670D01*
X163356287Y-123463671D01*
X163222377Y-123519137D01*
X163107379Y-123607379D01*
X163019137Y-123722377D01*
X162963671Y-123856287D01*
X162963670Y-123856291D01*
X162950505Y-123956291D01*
X162944750Y-124000000D01*
X153563014Y-124000000D01*
X153586330Y-123943709D01*
X153605250Y-123800000D01*
X153586330Y-123656291D01*
X153530861Y-123522375D01*
X153442621Y-123407379D01*
X153327625Y-123319139D01*
X153327624Y-123319138D01*
X153327622Y-123319137D01*
X153193712Y-123263671D01*
X153193710Y-123263670D01*
X153193709Y-123263670D01*
X153121854Y-123254210D01*
X153050001Y-123244750D01*
X153049999Y-123244750D01*
X152906291Y-123263670D01*
X152906287Y-123263671D01*
X152772377Y-123319137D01*
X152657379Y-123407379D01*
X152569137Y-123522377D01*
X152513671Y-123656287D01*
X152513670Y-123656291D01*
X152500505Y-123756291D01*
X152494750Y-123800000D01*
X151564718Y-123800000D01*
X151575250Y-123720000D01*
X151556330Y-123576291D01*
X151500861Y-123442375D01*
X151412621Y-123327379D01*
X151297625Y-123239139D01*
X151297624Y-123239138D01*
X151297622Y-123239137D01*
X151163712Y-123183671D01*
X151163710Y-123183670D01*
X151163709Y-123183670D01*
X151077362Y-123172302D01*
X151020001Y-123164750D01*
X151019999Y-123164750D01*
X150876291Y-123183670D01*
X150876287Y-123183671D01*
X150742377Y-123239137D01*
X150627379Y-123327379D01*
X150539137Y-123442377D01*
X150483671Y-123576287D01*
X150483670Y-123576291D01*
X150464750Y-123719999D01*
X150464750Y-123720002D01*
X150478534Y-123824704D01*
X150467768Y-123893739D01*
X150421388Y-123945995D01*
X150371781Y-123963828D01*
X150268835Y-123977381D01*
X150221071Y-123983670D01*
X150221070Y-123983670D01*
X150221067Y-123983671D01*
X150087156Y-124039138D01*
X150087154Y-124039139D01*
X150075496Y-124048085D01*
X150010326Y-124073279D01*
X149941882Y-124059240D01*
X149924524Y-124048085D01*
X149912865Y-124039139D01*
X149912863Y-124039138D01*
X149778952Y-123983671D01*
X149778950Y-123983670D01*
X149778949Y-123983670D01*
X149681877Y-123970890D01*
X149635241Y-123964750D01*
X149635239Y-123964750D01*
X149491531Y-123983670D01*
X149491527Y-123983671D01*
X149357617Y-124039137D01*
X149313123Y-124073279D01*
X149246105Y-124124703D01*
X149180937Y-124149897D01*
X149112493Y-124135859D01*
X149062503Y-124087045D01*
X149047681Y-124042512D01*
X149042084Y-124000000D01*
X149036330Y-123956291D01*
X148990129Y-123844750D01*
X148980862Y-123822377D01*
X148980861Y-123822376D01*
X148980861Y-123822375D01*
X148892621Y-123707379D01*
X148777625Y-123619139D01*
X148777624Y-123619138D01*
X148777622Y-123619137D01*
X148643712Y-123563671D01*
X148643710Y-123563670D01*
X148643709Y-123563670D01*
X148571854Y-123554210D01*
X148500001Y-123544750D01*
X148499999Y-123544750D01*
X148356291Y-123563670D01*
X148356287Y-123563671D01*
X148222377Y-123619137D01*
X148107379Y-123707379D01*
X148019137Y-123822377D01*
X147963671Y-123956287D01*
X147963670Y-123956291D01*
X147946456Y-124087045D01*
X147944750Y-124100000D01*
X147513692Y-124100000D01*
X147442621Y-124007379D01*
X147327625Y-123919139D01*
X147327624Y-123919138D01*
X147327622Y-123919137D01*
X147193712Y-123863671D01*
X147193710Y-123863670D01*
X147193709Y-123863670D01*
X147121854Y-123854210D01*
X147050001Y-123844750D01*
X147049999Y-123844750D01*
X146906291Y-123863670D01*
X146906287Y-123863671D01*
X146772377Y-123919137D01*
X146657379Y-124007379D01*
X146569137Y-124122377D01*
X146513671Y-124256287D01*
X146513670Y-124256291D01*
X146495722Y-124392620D01*
X146494750Y-124400000D01*
X146048667Y-124400000D01*
X146055250Y-124350000D01*
X146036330Y-124206291D01*
X145994792Y-124106008D01*
X145980862Y-124072377D01*
X145980861Y-124072376D01*
X145980861Y-124072375D01*
X145892621Y-123957379D01*
X145777625Y-123869139D01*
X145777624Y-123869138D01*
X145777622Y-123869137D01*
X145643712Y-123813671D01*
X145643710Y-123813670D01*
X145643709Y-123813670D01*
X145539877Y-123800000D01*
X145500001Y-123794750D01*
X145499999Y-123794750D01*
X145356291Y-123813670D01*
X145356287Y-123813671D01*
X145222377Y-123869137D01*
X145107379Y-123957379D01*
X145019137Y-124072377D01*
X144963671Y-124206287D01*
X144963670Y-124206291D01*
X144954279Y-124277625D01*
X144944750Y-124350000D01*
X137792303Y-124350000D01*
X137780862Y-124322377D01*
X137780861Y-124322376D01*
X137780861Y-124322375D01*
X137692621Y-124207379D01*
X137577625Y-124119139D01*
X137577624Y-124119138D01*
X137577622Y-124119137D01*
X137443712Y-124063671D01*
X137443710Y-124063670D01*
X137443709Y-124063670D01*
X137371854Y-124054210D01*
X137300001Y-124044750D01*
X137299999Y-124044750D01*
X137156291Y-124063670D01*
X137156287Y-124063671D01*
X137022377Y-124119137D01*
X136907379Y-124207379D01*
X136819137Y-124322377D01*
X136763671Y-124456287D01*
X136763670Y-124456291D01*
X136745722Y-124592620D01*
X136744750Y-124600000D01*
X130500500Y-124600000D01*
X130500500Y-123499997D01*
X131244751Y-123499997D01*
X131244751Y-123500002D01*
X131263685Y-123668056D01*
X131319545Y-123827694D01*
X131319547Y-123827697D01*
X131409518Y-123970884D01*
X131409523Y-123970890D01*
X131529109Y-124090476D01*
X131529115Y-124090481D01*
X131672302Y-124180452D01*
X131672305Y-124180454D01*
X131672309Y-124180455D01*
X131672310Y-124180456D01*
X131730627Y-124200862D01*
X131831943Y-124236314D01*
X131999997Y-124255249D01*
X132000000Y-124255249D01*
X132000003Y-124255249D01*
X132168056Y-124236314D01*
X132168059Y-124236313D01*
X132327690Y-124180456D01*
X132327692Y-124180454D01*
X132327694Y-124180454D01*
X132327697Y-124180452D01*
X132470884Y-124090481D01*
X132470885Y-124090480D01*
X132470890Y-124090477D01*
X132590477Y-123970890D01*
X132594335Y-123964750D01*
X132680452Y-123827697D01*
X132680454Y-123827694D01*
X132680454Y-123827692D01*
X132680456Y-123827690D01*
X132736313Y-123668059D01*
X132736313Y-123668058D01*
X132736314Y-123668056D01*
X132755249Y-123500002D01*
X132755249Y-123499997D01*
X132736314Y-123331943D01*
X132680454Y-123172305D01*
X132680452Y-123172302D01*
X132590481Y-123029115D01*
X132590476Y-123029109D01*
X132470890Y-122909523D01*
X132470884Y-122909518D01*
X132327697Y-122819547D01*
X132327694Y-122819545D01*
X132168056Y-122763685D01*
X132000003Y-122744751D01*
X131999997Y-122744751D01*
X131831943Y-122763685D01*
X131672305Y-122819545D01*
X131672302Y-122819547D01*
X131529115Y-122909518D01*
X131529109Y-122909523D01*
X131409523Y-123029109D01*
X131409518Y-123029115D01*
X131319547Y-123172302D01*
X131319545Y-123172305D01*
X131263685Y-123331943D01*
X131244751Y-123499997D01*
X130500500Y-123499997D01*
X130500500Y-122000000D01*
X137144750Y-122000000D01*
X137162698Y-122136329D01*
X137163670Y-122143708D01*
X137163671Y-122143712D01*
X137219137Y-122277622D01*
X137219138Y-122277624D01*
X137219139Y-122277625D01*
X137307379Y-122392621D01*
X137422375Y-122480861D01*
X137556291Y-122536330D01*
X137683280Y-122553048D01*
X137699999Y-122555250D01*
X137700000Y-122555250D01*
X137700001Y-122555250D01*
X137714977Y-122553278D01*
X137843709Y-122536330D01*
X137977625Y-122480861D01*
X138092621Y-122392621D01*
X138180861Y-122277625D01*
X138202659Y-122224999D01*
X159119750Y-122224999D01*
X159119750Y-122225000D01*
X159138670Y-122368708D01*
X159138671Y-122368712D01*
X159194137Y-122502622D01*
X159194138Y-122502624D01*
X159194139Y-122502625D01*
X159282379Y-122617621D01*
X159397375Y-122705861D01*
X159531291Y-122761330D01*
X159658280Y-122778048D01*
X159674999Y-122780250D01*
X159675000Y-122780250D01*
X159675001Y-122780250D01*
X159689977Y-122778278D01*
X159818709Y-122761330D01*
X159952625Y-122705861D01*
X160067621Y-122617621D01*
X160155861Y-122502625D01*
X160211330Y-122368709D01*
X160230250Y-122225000D01*
X160211330Y-122081291D01*
X160155861Y-121947375D01*
X160067621Y-121832379D01*
X159952625Y-121744139D01*
X159952624Y-121744138D01*
X159952622Y-121744137D01*
X159818712Y-121688671D01*
X159818710Y-121688670D01*
X159818709Y-121688670D01*
X159746854Y-121679210D01*
X159675001Y-121669750D01*
X159674999Y-121669750D01*
X159531291Y-121688670D01*
X159531287Y-121688671D01*
X159397377Y-121744137D01*
X159282379Y-121832379D01*
X159194137Y-121947377D01*
X159138671Y-122081287D01*
X159138670Y-122081291D01*
X159119750Y-122224999D01*
X138202659Y-122224999D01*
X138236330Y-122143709D01*
X138255250Y-122000000D01*
X138236330Y-121856291D01*
X138180861Y-121722375D01*
X138092621Y-121607379D01*
X137977625Y-121519139D01*
X137977624Y-121519138D01*
X137977622Y-121519137D01*
X137843712Y-121463671D01*
X137843710Y-121463670D01*
X137843709Y-121463670D01*
X137771854Y-121454210D01*
X137700001Y-121444750D01*
X137699999Y-121444750D01*
X137556291Y-121463670D01*
X137556287Y-121463671D01*
X137422377Y-121519137D01*
X137307379Y-121607379D01*
X137219137Y-121722377D01*
X137163671Y-121856287D01*
X137163670Y-121856291D01*
X137145722Y-121992620D01*
X137144750Y-122000000D01*
X130500500Y-122000000D01*
X130500500Y-120999997D01*
X131244751Y-120999997D01*
X131244751Y-121000002D01*
X131263685Y-121168056D01*
X131319545Y-121327694D01*
X131319547Y-121327697D01*
X131409518Y-121470884D01*
X131409523Y-121470890D01*
X131529109Y-121590476D01*
X131529115Y-121590481D01*
X131672302Y-121680452D01*
X131672305Y-121680454D01*
X131672309Y-121680455D01*
X131672310Y-121680456D01*
X131707073Y-121692620D01*
X131831943Y-121736314D01*
X131999997Y-121755249D01*
X132000000Y-121755249D01*
X132000003Y-121755249D01*
X132168056Y-121736314D01*
X132168059Y-121736313D01*
X132327690Y-121680456D01*
X132327692Y-121680454D01*
X132327694Y-121680454D01*
X132327697Y-121680452D01*
X132470884Y-121590481D01*
X132470885Y-121590480D01*
X132470890Y-121590477D01*
X132590477Y-121470890D01*
X132606902Y-121444750D01*
X132680452Y-121327697D01*
X132680454Y-121327694D01*
X132680454Y-121327692D01*
X132680456Y-121327690D01*
X132690145Y-121300000D01*
X141944750Y-121300000D01*
X141958471Y-121404223D01*
X141963670Y-121443708D01*
X141963671Y-121443712D01*
X142019137Y-121577622D01*
X142019138Y-121577624D01*
X142019139Y-121577625D01*
X142107379Y-121692621D01*
X142222375Y-121780861D01*
X142356291Y-121836330D01*
X142483280Y-121853048D01*
X142499999Y-121855250D01*
X142500000Y-121855250D01*
X142500001Y-121855250D01*
X142514977Y-121853278D01*
X142643709Y-121836330D01*
X142777625Y-121780861D01*
X142892621Y-121692621D01*
X142980861Y-121577625D01*
X143036330Y-121443709D01*
X143055250Y-121300000D01*
X143036330Y-121156291D01*
X143017156Y-121110000D01*
X149714750Y-121110000D01*
X149730582Y-121230257D01*
X149733670Y-121253708D01*
X149733671Y-121253712D01*
X149789137Y-121387622D01*
X149789138Y-121387624D01*
X149789139Y-121387625D01*
X149877379Y-121502621D01*
X149992375Y-121590861D01*
X150126291Y-121646330D01*
X150253280Y-121663048D01*
X150269999Y-121665250D01*
X150270000Y-121665250D01*
X150270001Y-121665250D01*
X150284977Y-121663278D01*
X150413709Y-121646330D01*
X150525561Y-121600000D01*
X156344750Y-121600000D01*
X156362696Y-121736314D01*
X156363670Y-121743708D01*
X156363671Y-121743712D01*
X156419137Y-121877622D01*
X156419138Y-121877624D01*
X156419139Y-121877625D01*
X156507379Y-121992621D01*
X156622375Y-122080861D01*
X156756291Y-122136330D01*
X156883280Y-122153048D01*
X156899999Y-122155250D01*
X156900000Y-122155250D01*
X156900001Y-122155250D01*
X156914977Y-122153278D01*
X157043709Y-122136330D01*
X157177625Y-122080861D01*
X157292621Y-121992621D01*
X157301625Y-121980886D01*
X157358050Y-121939685D01*
X157427796Y-121935529D01*
X157488717Y-121969740D01*
X157498367Y-121980876D01*
X157507379Y-121992621D01*
X157622375Y-122080861D01*
X157756291Y-122136330D01*
X157883280Y-122153048D01*
X157899999Y-122155250D01*
X157900000Y-122155250D01*
X157900001Y-122155250D01*
X157914977Y-122153278D01*
X158043709Y-122136330D01*
X158177625Y-122080861D01*
X158292621Y-121992621D01*
X158380861Y-121877625D01*
X158436330Y-121743709D01*
X158455250Y-121600000D01*
X158436330Y-121456291D01*
X158386641Y-121336329D01*
X158380862Y-121322377D01*
X158380861Y-121322376D01*
X158380861Y-121322375D01*
X158292621Y-121207379D01*
X158177625Y-121119139D01*
X158177624Y-121119138D01*
X158177622Y-121119137D01*
X158043712Y-121063671D01*
X158043710Y-121063670D01*
X158043709Y-121063670D01*
X157971854Y-121054210D01*
X157900001Y-121044750D01*
X157899999Y-121044750D01*
X157756291Y-121063670D01*
X157756287Y-121063671D01*
X157622377Y-121119137D01*
X157590355Y-121143709D01*
X157507379Y-121207379D01*
X157507378Y-121207380D01*
X157507377Y-121207381D01*
X157498375Y-121219113D01*
X157441947Y-121260316D01*
X157372201Y-121264470D01*
X157311281Y-121230257D01*
X157301625Y-121219113D01*
X157299782Y-121216711D01*
X157292621Y-121207379D01*
X157177625Y-121119139D01*
X157177624Y-121119138D01*
X157177622Y-121119137D01*
X157043712Y-121063671D01*
X157043710Y-121063670D01*
X157043709Y-121063670D01*
X156971854Y-121054210D01*
X156900001Y-121044750D01*
X156899999Y-121044750D01*
X156756291Y-121063670D01*
X156756287Y-121063671D01*
X156622377Y-121119137D01*
X156507379Y-121207379D01*
X156419137Y-121322377D01*
X156363671Y-121456287D01*
X156363670Y-121456291D01*
X156344750Y-121600000D01*
X150525561Y-121600000D01*
X150547625Y-121590861D01*
X150662621Y-121502621D01*
X150750861Y-121387625D01*
X150806330Y-121253709D01*
X150825250Y-121110000D01*
X150806330Y-120966291D01*
X150752499Y-120836329D01*
X150750862Y-120832377D01*
X150750861Y-120832376D01*
X150750861Y-120832375D01*
X150662621Y-120717379D01*
X150547625Y-120629139D01*
X150547624Y-120629138D01*
X150547622Y-120629137D01*
X150413712Y-120573671D01*
X150413710Y-120573670D01*
X150413709Y-120573670D01*
X150341854Y-120564210D01*
X150270001Y-120554750D01*
X150269999Y-120554750D01*
X150126291Y-120573670D01*
X150126287Y-120573671D01*
X149992377Y-120629137D01*
X149877379Y-120717379D01*
X149789137Y-120832377D01*
X149733671Y-120966287D01*
X149733670Y-120966291D01*
X149720850Y-121063670D01*
X149714750Y-121110000D01*
X143017156Y-121110000D01*
X142980861Y-121022375D01*
X142892621Y-120907379D01*
X142777625Y-120819139D01*
X142777624Y-120819138D01*
X142777622Y-120819137D01*
X142643712Y-120763671D01*
X142643710Y-120763670D01*
X142643709Y-120763670D01*
X142571854Y-120754210D01*
X142500001Y-120744750D01*
X142499999Y-120744750D01*
X142356291Y-120763670D01*
X142356287Y-120763671D01*
X142222377Y-120819137D01*
X142107379Y-120907379D01*
X142019137Y-121022377D01*
X141963671Y-121156287D01*
X141963670Y-121156291D01*
X141947270Y-121280862D01*
X141944750Y-121300000D01*
X132690145Y-121300000D01*
X132736313Y-121168059D01*
X132736313Y-121168058D01*
X132736314Y-121168056D01*
X132755249Y-121000002D01*
X132755249Y-120999997D01*
X132736314Y-120831943D01*
X132680454Y-120672305D01*
X132680452Y-120672302D01*
X132590481Y-120529115D01*
X132590476Y-120529109D01*
X132470890Y-120409523D01*
X132470884Y-120409518D01*
X132327697Y-120319547D01*
X132327694Y-120319545D01*
X132168056Y-120263685D01*
X132000003Y-120244751D01*
X131999997Y-120244751D01*
X131831943Y-120263685D01*
X131672305Y-120319545D01*
X131672302Y-120319547D01*
X131529115Y-120409518D01*
X131529109Y-120409523D01*
X131409523Y-120529109D01*
X131409518Y-120529115D01*
X131319547Y-120672302D01*
X131319545Y-120672305D01*
X131263685Y-120831943D01*
X131244751Y-120999997D01*
X130500500Y-120999997D01*
X130500500Y-119760000D01*
X148134750Y-119760000D01*
X148136379Y-119772377D01*
X148153670Y-119903708D01*
X148153671Y-119903712D01*
X148209137Y-120037622D01*
X148209138Y-120037624D01*
X148209139Y-120037625D01*
X148297379Y-120152621D01*
X148412375Y-120240861D01*
X148546291Y-120296330D01*
X148673280Y-120313048D01*
X148689999Y-120315250D01*
X148690000Y-120315250D01*
X148690001Y-120315250D01*
X148704977Y-120313278D01*
X148805840Y-120299999D01*
X152944750Y-120299999D01*
X152944750Y-120300000D01*
X152963670Y-120443708D01*
X152963671Y-120443712D01*
X153019137Y-120577622D01*
X153019138Y-120577624D01*
X153019139Y-120577625D01*
X153107379Y-120692621D01*
X153222375Y-120780861D01*
X153356291Y-120836330D01*
X153483280Y-120853048D01*
X153499999Y-120855250D01*
X153500000Y-120855250D01*
X153500001Y-120855250D01*
X153514977Y-120853278D01*
X153643709Y-120836330D01*
X153777625Y-120780861D01*
X153892621Y-120692621D01*
X153980861Y-120577625D01*
X154036330Y-120443709D01*
X154055250Y-120300000D01*
X154054879Y-120297185D01*
X154048901Y-120251774D01*
X154036330Y-120156291D01*
X153999350Y-120067013D01*
X153992303Y-120050000D01*
X155294750Y-120050000D01*
X155308260Y-120152620D01*
X155313670Y-120193708D01*
X155313671Y-120193712D01*
X155369137Y-120327622D01*
X155369138Y-120327624D01*
X155369139Y-120327625D01*
X155457379Y-120442621D01*
X155572375Y-120530861D01*
X155706291Y-120586330D01*
X155833280Y-120603048D01*
X155849999Y-120605250D01*
X155850000Y-120605250D01*
X155850001Y-120605250D01*
X155864977Y-120603278D01*
X155993709Y-120586330D01*
X156127625Y-120530861D01*
X156242621Y-120442621D01*
X156330861Y-120327625D01*
X156386330Y-120193709D01*
X156405250Y-120050000D01*
X156386330Y-119906291D01*
X156330861Y-119772375D01*
X156242621Y-119657379D01*
X156127625Y-119569139D01*
X156127624Y-119569138D01*
X156127622Y-119569137D01*
X155993712Y-119513671D01*
X155993710Y-119513670D01*
X155993709Y-119513670D01*
X155911259Y-119502815D01*
X155850001Y-119494750D01*
X155849999Y-119494750D01*
X155706291Y-119513670D01*
X155706287Y-119513671D01*
X155572377Y-119569137D01*
X155457379Y-119657379D01*
X155369137Y-119772377D01*
X155313671Y-119906287D01*
X155313670Y-119906291D01*
X155294750Y-120050000D01*
X153992303Y-120050000D01*
X153980862Y-120022377D01*
X153980861Y-120022376D01*
X153980861Y-120022375D01*
X153892621Y-119907379D01*
X153777625Y-119819139D01*
X153777624Y-119819138D01*
X153777622Y-119819137D01*
X153643712Y-119763671D01*
X153643710Y-119763670D01*
X153643709Y-119763670D01*
X153571854Y-119754210D01*
X153500001Y-119744750D01*
X153499999Y-119744750D01*
X153356291Y-119763670D01*
X153356287Y-119763671D01*
X153222377Y-119819137D01*
X153107379Y-119907379D01*
X153019137Y-120022377D01*
X152963671Y-120156287D01*
X152963670Y-120156291D01*
X152944750Y-120299999D01*
X148805840Y-120299999D01*
X148833709Y-120296330D01*
X148967625Y-120240861D01*
X149082621Y-120152621D01*
X149170861Y-120037625D01*
X149226330Y-119903709D01*
X149245250Y-119760000D01*
X149226330Y-119616291D01*
X149175987Y-119494750D01*
X149170862Y-119482377D01*
X149170861Y-119482376D01*
X149170861Y-119482375D01*
X149082621Y-119367379D01*
X148967625Y-119279139D01*
X148967624Y-119279138D01*
X148967622Y-119279137D01*
X148833712Y-119223671D01*
X148833710Y-119223670D01*
X148833709Y-119223670D01*
X148761854Y-119214210D01*
X148690001Y-119204750D01*
X148689999Y-119204750D01*
X148546291Y-119223670D01*
X148546287Y-119223671D01*
X148412377Y-119279137D01*
X148297379Y-119367379D01*
X148209137Y-119482377D01*
X148153671Y-119616287D01*
X148153670Y-119616291D01*
X148137867Y-119736328D01*
X148134750Y-119760000D01*
X130500500Y-119760000D01*
X130500500Y-119199999D01*
X154244750Y-119199999D01*
X154244750Y-119200000D01*
X154263670Y-119343708D01*
X154263671Y-119343712D01*
X154319137Y-119477622D01*
X154319138Y-119477624D01*
X154319139Y-119477625D01*
X154407379Y-119592621D01*
X154522375Y-119680861D01*
X154656291Y-119736330D01*
X154783280Y-119753048D01*
X154799999Y-119755250D01*
X154800000Y-119755250D01*
X154800001Y-119755250D01*
X154814977Y-119753278D01*
X154943709Y-119736330D01*
X155077625Y-119680861D01*
X155192621Y-119592621D01*
X155280861Y-119477625D01*
X155336330Y-119343709D01*
X155355250Y-119200000D01*
X155336330Y-119056291D01*
X155280861Y-118922375D01*
X155192621Y-118807379D01*
X155077625Y-118719139D01*
X155077624Y-118719138D01*
X155077622Y-118719137D01*
X154943712Y-118663671D01*
X154943710Y-118663670D01*
X154943709Y-118663670D01*
X154871854Y-118654210D01*
X154800001Y-118644750D01*
X154799999Y-118644750D01*
X154656291Y-118663670D01*
X154656287Y-118663671D01*
X154522377Y-118719137D01*
X154407379Y-118807379D01*
X154319137Y-118922377D01*
X154263671Y-119056287D01*
X154263670Y-119056291D01*
X154244750Y-119199999D01*
X130500500Y-119199999D01*
X130500500Y-118549999D01*
X137369750Y-118549999D01*
X137369750Y-118550000D01*
X137388670Y-118693708D01*
X137388671Y-118693712D01*
X137444137Y-118827622D01*
X137444138Y-118827624D01*
X137444139Y-118827625D01*
X137532379Y-118942621D01*
X137647375Y-119030861D01*
X137781291Y-119086330D01*
X137908280Y-119103048D01*
X137924999Y-119105250D01*
X137925000Y-119105250D01*
X137925001Y-119105250D01*
X137939977Y-119103278D01*
X138068709Y-119086330D01*
X138202625Y-119030861D01*
X138317621Y-118942621D01*
X138405861Y-118827625D01*
X138461330Y-118693709D01*
X138480250Y-118550000D01*
X138461330Y-118406291D01*
X138416320Y-118297625D01*
X138405862Y-118272377D01*
X138405861Y-118272376D01*
X138405861Y-118272375D01*
X138317621Y-118157379D01*
X138202625Y-118069139D01*
X138202624Y-118069138D01*
X138202622Y-118069137D01*
X138083990Y-118019999D01*
X146444750Y-118019999D01*
X146444750Y-118020000D01*
X146463670Y-118163708D01*
X146463671Y-118163712D01*
X146519137Y-118297622D01*
X146519138Y-118297624D01*
X146519139Y-118297625D01*
X146607379Y-118412621D01*
X146722375Y-118500861D01*
X146856291Y-118556330D01*
X146983280Y-118573048D01*
X146999999Y-118575250D01*
X147000000Y-118575250D01*
X147000001Y-118575250D01*
X147014977Y-118573278D01*
X147143709Y-118556330D01*
X147277625Y-118500861D01*
X147392621Y-118412621D01*
X147480861Y-118297625D01*
X147536330Y-118163709D01*
X147555250Y-118020000D01*
X147536330Y-117876291D01*
X147480861Y-117742375D01*
X147439780Y-117688837D01*
X147414586Y-117623668D01*
X147428624Y-117555223D01*
X147477438Y-117505234D01*
X147521966Y-117490413D01*
X147628939Y-117476330D01*
X147762855Y-117420861D01*
X147774513Y-117411915D01*
X147839679Y-117386720D01*
X147908125Y-117400757D01*
X147925482Y-117411911D01*
X147937145Y-117420861D01*
X148071061Y-117476330D01*
X148198050Y-117493048D01*
X148214769Y-117495250D01*
X148214770Y-117495250D01*
X148214771Y-117495250D01*
X148229747Y-117493278D01*
X148358479Y-117476330D01*
X148492395Y-117420861D01*
X148607391Y-117332621D01*
X148695631Y-117217625D01*
X148751100Y-117083709D01*
X148770020Y-116940000D01*
X148751100Y-116796291D01*
X148697336Y-116666492D01*
X148695632Y-116662377D01*
X148695631Y-116662376D01*
X148695631Y-116662375D01*
X148607391Y-116547379D01*
X148492395Y-116459139D01*
X148492394Y-116459138D01*
X148492392Y-116459137D01*
X148358482Y-116403671D01*
X148358480Y-116403670D01*
X148358479Y-116403670D01*
X148274555Y-116392621D01*
X148214771Y-116384750D01*
X148214769Y-116384750D01*
X148071061Y-116403670D01*
X148071057Y-116403671D01*
X147937146Y-116459138D01*
X147937144Y-116459139D01*
X147925486Y-116468085D01*
X147860316Y-116493279D01*
X147791872Y-116479240D01*
X147774514Y-116468085D01*
X147762855Y-116459139D01*
X147762853Y-116459138D01*
X147628942Y-116403671D01*
X147628940Y-116403670D01*
X147628939Y-116403670D01*
X147545015Y-116392621D01*
X147485231Y-116384750D01*
X147485229Y-116384750D01*
X147341521Y-116403670D01*
X147341517Y-116403671D01*
X147207607Y-116459137D01*
X147092609Y-116547379D01*
X147004367Y-116662377D01*
X146948901Y-116796287D01*
X146948900Y-116796291D01*
X146929980Y-116939999D01*
X146929980Y-116940000D01*
X146948900Y-117083708D01*
X146948901Y-117083712D01*
X147004368Y-117217623D01*
X147004369Y-117217625D01*
X147045449Y-117271162D01*
X147070643Y-117336331D01*
X147056604Y-117404776D01*
X147007790Y-117454766D01*
X146963259Y-117469587D01*
X146912058Y-117476328D01*
X146856291Y-117483670D01*
X146856290Y-117483670D01*
X146856287Y-117483671D01*
X146722377Y-117539137D01*
X146607379Y-117627379D01*
X146519137Y-117742377D01*
X146463671Y-117876287D01*
X146463670Y-117876291D01*
X146444750Y-118019999D01*
X138083990Y-118019999D01*
X138068712Y-118013671D01*
X138068710Y-118013670D01*
X138068709Y-118013670D01*
X137964877Y-118000000D01*
X137925001Y-117994750D01*
X137924999Y-117994750D01*
X137781291Y-118013670D01*
X137781287Y-118013671D01*
X137647377Y-118069137D01*
X137532379Y-118157379D01*
X137444137Y-118272377D01*
X137388671Y-118406287D01*
X137388670Y-118406291D01*
X137369750Y-118549999D01*
X130500500Y-118549999D01*
X130500500Y-116000000D01*
X131294750Y-116000000D01*
X131307915Y-116100000D01*
X131313670Y-116143708D01*
X131313671Y-116143712D01*
X131369137Y-116277622D01*
X131369138Y-116277624D01*
X131369139Y-116277625D01*
X131457379Y-116392621D01*
X131572375Y-116480861D01*
X131572376Y-116480861D01*
X131572377Y-116480862D01*
X131602355Y-116493279D01*
X131706291Y-116536330D01*
X131833280Y-116553048D01*
X131849999Y-116555250D01*
X131850000Y-116555250D01*
X131850001Y-116555250D01*
X131864977Y-116553278D01*
X131993709Y-116536330D01*
X132127625Y-116480861D01*
X132242621Y-116392621D01*
X132285282Y-116337024D01*
X139842629Y-116337024D01*
X139861352Y-116479240D01*
X139861549Y-116480732D01*
X139861550Y-116480736D01*
X139917016Y-116614646D01*
X139917017Y-116614648D01*
X139917018Y-116614649D01*
X140005258Y-116729645D01*
X140120254Y-116817885D01*
X140254170Y-116873354D01*
X140381159Y-116890072D01*
X140397878Y-116892274D01*
X140397879Y-116892274D01*
X140397880Y-116892274D01*
X140412856Y-116890302D01*
X140541588Y-116873354D01*
X140675504Y-116817885D01*
X140790500Y-116729645D01*
X140878740Y-116614649D01*
X140934209Y-116480733D01*
X140953129Y-116337024D01*
X140934209Y-116193315D01*
X140878740Y-116059399D01*
X140790500Y-115944403D01*
X140675504Y-115856163D01*
X140675503Y-115856162D01*
X140675501Y-115856161D01*
X140541591Y-115800695D01*
X140541589Y-115800694D01*
X140541588Y-115800694D01*
X140469733Y-115791234D01*
X140397880Y-115781774D01*
X140397878Y-115781774D01*
X140254170Y-115800694D01*
X140254166Y-115800695D01*
X140120256Y-115856161D01*
X140005258Y-115944403D01*
X139917016Y-116059401D01*
X139861550Y-116193311D01*
X139861549Y-116193315D01*
X139850450Y-116277622D01*
X139842629Y-116337024D01*
X132285282Y-116337024D01*
X132330861Y-116277625D01*
X132386330Y-116143709D01*
X132405250Y-116000000D01*
X132386330Y-115856291D01*
X132330861Y-115722375D01*
X132242621Y-115607379D01*
X132127625Y-115519139D01*
X132127624Y-115519138D01*
X132127622Y-115519137D01*
X131993712Y-115463671D01*
X131993710Y-115463670D01*
X131993709Y-115463670D01*
X131921854Y-115454210D01*
X131850001Y-115444750D01*
X131849999Y-115444750D01*
X131706291Y-115463670D01*
X131706287Y-115463671D01*
X131572377Y-115519137D01*
X131457379Y-115607379D01*
X131369137Y-115722377D01*
X131313671Y-115856287D01*
X131313670Y-115856291D01*
X131300505Y-115956291D01*
X131294750Y-116000000D01*
X130500500Y-116000000D01*
X130500500Y-114550000D01*
X138344750Y-114550000D01*
X138357915Y-114650000D01*
X138363670Y-114693708D01*
X138363671Y-114693712D01*
X138419137Y-114827622D01*
X138419138Y-114827624D01*
X138419139Y-114827625D01*
X138507379Y-114942621D01*
X138622375Y-115030861D01*
X138622376Y-115030861D01*
X138622377Y-115030862D01*
X138667013Y-115049350D01*
X138756291Y-115086330D01*
X138883280Y-115103048D01*
X138899999Y-115105250D01*
X138900000Y-115105250D01*
X138900001Y-115105250D01*
X138914977Y-115103278D01*
X139043709Y-115086330D01*
X139177625Y-115030861D01*
X139292621Y-114942621D01*
X139380861Y-114827625D01*
X139436330Y-114693709D01*
X139455250Y-114550000D01*
X139436330Y-114406291D01*
X139380861Y-114272375D01*
X139380860Y-114272374D01*
X139380860Y-114272373D01*
X139334483Y-114211934D01*
X139320776Y-114194071D01*
X139295582Y-114128904D01*
X139306638Y-114074999D01*
X144644750Y-114074999D01*
X144644750Y-114075000D01*
X144663670Y-114218708D01*
X144663671Y-114218712D01*
X144719137Y-114352622D01*
X144719138Y-114352624D01*
X144719139Y-114352625D01*
X144807379Y-114467621D01*
X144922375Y-114555861D01*
X145056291Y-114611330D01*
X145180039Y-114627622D01*
X145199999Y-114630250D01*
X145200000Y-114630250D01*
X145200001Y-114630250D01*
X145219961Y-114627622D01*
X145343709Y-114611330D01*
X145477625Y-114555861D01*
X145592621Y-114467621D01*
X145680861Y-114352625D01*
X145736330Y-114218709D01*
X145755250Y-114075000D01*
X145754904Y-114072375D01*
X145752435Y-114053618D01*
X145736330Y-113931291D01*
X145693390Y-113827622D01*
X145680862Y-113797377D01*
X145680861Y-113797376D01*
X145680861Y-113797375D01*
X145592621Y-113682379D01*
X145553646Y-113652472D01*
X145512444Y-113596044D01*
X145508289Y-113526298D01*
X145542502Y-113465378D01*
X145581678Y-113439537D01*
X145602625Y-113430861D01*
X145717621Y-113342621D01*
X145805861Y-113227625D01*
X145861330Y-113093709D01*
X145880250Y-112950000D01*
X145861330Y-112806291D01*
X145814697Y-112693708D01*
X145805862Y-112672377D01*
X145805861Y-112672376D01*
X145805861Y-112672375D01*
X145717621Y-112557379D01*
X145602625Y-112469139D01*
X145602624Y-112469138D01*
X145602622Y-112469137D01*
X145468712Y-112413671D01*
X145468710Y-112413670D01*
X145468709Y-112413670D01*
X145396854Y-112404210D01*
X145325001Y-112394750D01*
X145324999Y-112394750D01*
X145181291Y-112413670D01*
X145181287Y-112413671D01*
X145047377Y-112469137D01*
X144932379Y-112557379D01*
X144844137Y-112672377D01*
X144788671Y-112806287D01*
X144788670Y-112806291D01*
X144769750Y-112950000D01*
X144788438Y-113091950D01*
X144788670Y-113093708D01*
X144788671Y-113093712D01*
X144844137Y-113227622D01*
X144844138Y-113227624D01*
X144844139Y-113227625D01*
X144932379Y-113342621D01*
X144971354Y-113372528D01*
X145012555Y-113428954D01*
X145016710Y-113498700D01*
X144982497Y-113559621D01*
X144943321Y-113585462D01*
X144922378Y-113594137D01*
X144922375Y-113594138D01*
X144922375Y-113594139D01*
X144857771Y-113643712D01*
X144807379Y-113682379D01*
X144719137Y-113797377D01*
X144663671Y-113931287D01*
X144663670Y-113931291D01*
X144644750Y-114074999D01*
X139306638Y-114074999D01*
X139309620Y-114060459D01*
X139358433Y-114010469D01*
X139371685Y-114004031D01*
X139427625Y-113980861D01*
X139542621Y-113892621D01*
X139630861Y-113777625D01*
X139686330Y-113643709D01*
X139705250Y-113500000D01*
X139686330Y-113356291D01*
X139630861Y-113222375D01*
X139542621Y-113107379D01*
X139427625Y-113019139D01*
X139427624Y-113019138D01*
X139427622Y-113019137D01*
X139293712Y-112963671D01*
X139293710Y-112963670D01*
X139293709Y-112963670D01*
X139189877Y-112950000D01*
X139150001Y-112944750D01*
X139149999Y-112944750D01*
X139006291Y-112963670D01*
X139006287Y-112963671D01*
X138872377Y-113019137D01*
X138757379Y-113107379D01*
X138669137Y-113222377D01*
X138613671Y-113356287D01*
X138613670Y-113356291D01*
X138595650Y-113493167D01*
X138594750Y-113500000D01*
X138612698Y-113636329D01*
X138613670Y-113643708D01*
X138613671Y-113643712D01*
X138669138Y-113777623D01*
X138669139Y-113777626D01*
X138729222Y-113855926D01*
X138754417Y-113921095D01*
X138740379Y-113989540D01*
X138691565Y-114039530D01*
X138678300Y-114045974D01*
X138622376Y-114069138D01*
X138507379Y-114157379D01*
X138419137Y-114272377D01*
X138363671Y-114406287D01*
X138363670Y-114406291D01*
X138347148Y-114531789D01*
X138344750Y-114550000D01*
X130500500Y-114550000D01*
X130500500Y-113900000D01*
X131119750Y-113900000D01*
X131136978Y-114030861D01*
X131138670Y-114043708D01*
X131138671Y-114043712D01*
X131194137Y-114177622D01*
X131194138Y-114177624D01*
X131194139Y-114177625D01*
X131282379Y-114292621D01*
X131397375Y-114380861D01*
X131531291Y-114436330D01*
X131658280Y-114453048D01*
X131674999Y-114455250D01*
X131675000Y-114455250D01*
X131675001Y-114455250D01*
X131689977Y-114453278D01*
X131818709Y-114436330D01*
X131952625Y-114380861D01*
X132067621Y-114292621D01*
X132155861Y-114177625D01*
X132211330Y-114043709D01*
X132230250Y-113900000D01*
X132211330Y-113756291D01*
X132161641Y-113636329D01*
X132155862Y-113622377D01*
X132155861Y-113622376D01*
X132155861Y-113622375D01*
X132067621Y-113507379D01*
X131952625Y-113419139D01*
X131952624Y-113419138D01*
X131952622Y-113419137D01*
X131818712Y-113363671D01*
X131818710Y-113363670D01*
X131818709Y-113363670D01*
X131746854Y-113354210D01*
X131675001Y-113344750D01*
X131674999Y-113344750D01*
X131531291Y-113363670D01*
X131531287Y-113363671D01*
X131397377Y-113419137D01*
X131282379Y-113507379D01*
X131194137Y-113622377D01*
X131138671Y-113756287D01*
X131138670Y-113756291D01*
X131120722Y-113892620D01*
X131119750Y-113900000D01*
X130500500Y-113900000D01*
X130500500Y-109225000D01*
X140744750Y-109225000D01*
X140760378Y-109343708D01*
X140763670Y-109368708D01*
X140763671Y-109368712D01*
X140819137Y-109502622D01*
X140819138Y-109502624D01*
X140819139Y-109502625D01*
X140907379Y-109617621D01*
X141022375Y-109705861D01*
X141156291Y-109761330D01*
X141283280Y-109778048D01*
X141299999Y-109780250D01*
X141300000Y-109780250D01*
X141300001Y-109780250D01*
X141314977Y-109778278D01*
X141443709Y-109761330D01*
X141577625Y-109705861D01*
X141678934Y-109628122D01*
X141744101Y-109602930D01*
X141754419Y-109602500D01*
X143739412Y-109602500D01*
X143806451Y-109622185D01*
X143852206Y-109674989D01*
X143862150Y-109744147D01*
X143833125Y-109807703D01*
X143814899Y-109824875D01*
X143707381Y-109907377D01*
X143707380Y-109907378D01*
X143707379Y-109907379D01*
X143663259Y-109964877D01*
X143619137Y-110022377D01*
X143563671Y-110156287D01*
X143563670Y-110156291D01*
X143544750Y-110300000D01*
X143552769Y-110360913D01*
X143563670Y-110443708D01*
X143563671Y-110443712D01*
X143619137Y-110577622D01*
X143619138Y-110577624D01*
X143619139Y-110577625D01*
X143707379Y-110692621D01*
X143822375Y-110780861D01*
X143822376Y-110780861D01*
X143822377Y-110780862D01*
X143955502Y-110836003D01*
X144009906Y-110879843D01*
X144031971Y-110946137D01*
X144014692Y-111013837D01*
X143983538Y-111048939D01*
X143907380Y-111107378D01*
X143819137Y-111222377D01*
X143763671Y-111356287D01*
X143763670Y-111356291D01*
X143747270Y-111480862D01*
X143744750Y-111500000D01*
X143761582Y-111627853D01*
X143763670Y-111643708D01*
X143763671Y-111643712D01*
X143819137Y-111777622D01*
X143819138Y-111777624D01*
X143819139Y-111777625D01*
X143907379Y-111892621D01*
X144022375Y-111980861D01*
X144156291Y-112036330D01*
X144283280Y-112053048D01*
X144299999Y-112055250D01*
X144300000Y-112055250D01*
X144300001Y-112055250D01*
X144314977Y-112053278D01*
X144443709Y-112036330D01*
X144577625Y-111980861D01*
X144692621Y-111892621D01*
X144780861Y-111777625D01*
X144836330Y-111643709D01*
X144848667Y-111550000D01*
X148183650Y-111550000D01*
X148200452Y-111677625D01*
X148202570Y-111693708D01*
X148202571Y-111693712D01*
X148258037Y-111827622D01*
X148258038Y-111827624D01*
X148258039Y-111827625D01*
X148346279Y-111942621D01*
X148355611Y-111949782D01*
X148358013Y-111951625D01*
X148399216Y-112008053D01*
X148403370Y-112077799D01*
X148369157Y-112138719D01*
X148358013Y-112148375D01*
X148346281Y-112157377D01*
X148258037Y-112272377D01*
X148202571Y-112406287D01*
X148202570Y-112406291D01*
X148184619Y-112542643D01*
X148183650Y-112550000D01*
X148201155Y-112682965D01*
X148202570Y-112693708D01*
X148202571Y-112693712D01*
X148258037Y-112827622D01*
X148258038Y-112827624D01*
X148258039Y-112827625D01*
X148259531Y-112829570D01*
X148346281Y-112942623D01*
X148356135Y-112950184D01*
X148397338Y-113006612D01*
X148401492Y-113076358D01*
X148367279Y-113137278D01*
X148360544Y-113143113D01*
X148358669Y-113144988D01*
X148270423Y-113259991D01*
X148214957Y-113393901D01*
X148214956Y-113393905D01*
X148198355Y-113520003D01*
X148196036Y-113537614D01*
X148209032Y-113636330D01*
X148214956Y-113681322D01*
X148214957Y-113681326D01*
X148270423Y-113815236D01*
X148270424Y-113815238D01*
X148270425Y-113815239D01*
X148358665Y-113930235D01*
X148473661Y-114018475D01*
X148607577Y-114073944D01*
X148734566Y-114090662D01*
X148751285Y-114092864D01*
X148751286Y-114092864D01*
X148751287Y-114092864D01*
X148766263Y-114090892D01*
X148894995Y-114073944D01*
X149028911Y-114018475D01*
X149143907Y-113930235D01*
X149143911Y-113930230D01*
X149149654Y-113924488D01*
X149151196Y-113926030D01*
X149198366Y-113891571D01*
X149268111Y-113887401D01*
X149329039Y-113921600D01*
X149338714Y-113932763D01*
X149345547Y-113941668D01*
X149346279Y-113942621D01*
X149461275Y-114030861D01*
X149461276Y-114030861D01*
X149461277Y-114030862D01*
X149505913Y-114049350D01*
X149595191Y-114086330D01*
X149722180Y-114103048D01*
X149738899Y-114105250D01*
X149738900Y-114105250D01*
X149738901Y-114105250D01*
X149753877Y-114103278D01*
X149882609Y-114086330D01*
X150016525Y-114030861D01*
X150131521Y-113942621D01*
X150140525Y-113930886D01*
X150196950Y-113889685D01*
X150266696Y-113885529D01*
X150327617Y-113919740D01*
X150337267Y-113930876D01*
X150346279Y-113942621D01*
X150461275Y-114030861D01*
X150461276Y-114030861D01*
X150461277Y-114030862D01*
X150505913Y-114049350D01*
X150595191Y-114086330D01*
X150722180Y-114103048D01*
X150738899Y-114105250D01*
X150738900Y-114105250D01*
X150738901Y-114105250D01*
X150753877Y-114103278D01*
X150882609Y-114086330D01*
X151016525Y-114030861D01*
X151131521Y-113942621D01*
X151219761Y-113827625D01*
X151275230Y-113693709D01*
X151294150Y-113550000D01*
X151275230Y-113406291D01*
X151238250Y-113317013D01*
X151219762Y-113272377D01*
X151219761Y-113272376D01*
X151219761Y-113272375D01*
X151131521Y-113157379D01*
X151119786Y-113148374D01*
X151078585Y-113091950D01*
X151074429Y-113022204D01*
X151108640Y-112961283D01*
X151119776Y-112951632D01*
X151131521Y-112942621D01*
X151219761Y-112827625D01*
X151275230Y-112693709D01*
X151294150Y-112550000D01*
X151275230Y-112406291D01*
X151219761Y-112272375D01*
X151131521Y-112157379D01*
X151119786Y-112148374D01*
X151078585Y-112091950D01*
X151074429Y-112022204D01*
X151108640Y-111961283D01*
X151119776Y-111951632D01*
X151131521Y-111942621D01*
X151219761Y-111827625D01*
X151275230Y-111693709D01*
X151294150Y-111550000D01*
X151275230Y-111406291D01*
X151219761Y-111272375D01*
X151131521Y-111157379D01*
X151016525Y-111069139D01*
X151016524Y-111069138D01*
X151016522Y-111069137D01*
X150882612Y-111013671D01*
X150882610Y-111013670D01*
X150882609Y-111013670D01*
X150778777Y-111000000D01*
X150738901Y-110994750D01*
X150738899Y-110994750D01*
X150595191Y-111013670D01*
X150595187Y-111013671D01*
X150461277Y-111069137D01*
X150411441Y-111107378D01*
X150346279Y-111157379D01*
X150346278Y-111157380D01*
X150346277Y-111157381D01*
X150337275Y-111169113D01*
X150280847Y-111210316D01*
X150211101Y-111214470D01*
X150150181Y-111180257D01*
X150140525Y-111169113D01*
X150138682Y-111166711D01*
X150131521Y-111157379D01*
X150016525Y-111069139D01*
X150016524Y-111069138D01*
X150016522Y-111069137D01*
X149882612Y-111013671D01*
X149882610Y-111013670D01*
X149882609Y-111013670D01*
X149778777Y-111000000D01*
X149738901Y-110994750D01*
X149738899Y-110994750D01*
X149595191Y-111013670D01*
X149595187Y-111013671D01*
X149461277Y-111069137D01*
X149411441Y-111107378D01*
X149346279Y-111157379D01*
X149346278Y-111157380D01*
X149346277Y-111157381D01*
X149337275Y-111169113D01*
X149280847Y-111210316D01*
X149211101Y-111214470D01*
X149150181Y-111180257D01*
X149140525Y-111169113D01*
X149138682Y-111166711D01*
X149131521Y-111157379D01*
X149016525Y-111069139D01*
X149016524Y-111069138D01*
X149016522Y-111069137D01*
X148882612Y-111013671D01*
X148882610Y-111013670D01*
X148882609Y-111013670D01*
X148778777Y-111000000D01*
X148738901Y-110994750D01*
X148738899Y-110994750D01*
X148595191Y-111013670D01*
X148595187Y-111013671D01*
X148461277Y-111069137D01*
X148346279Y-111157379D01*
X148258037Y-111272377D01*
X148202571Y-111406287D01*
X148202570Y-111406291D01*
X148186170Y-111530862D01*
X148183650Y-111550000D01*
X144848667Y-111550000D01*
X144855250Y-111500000D01*
X144836330Y-111356291D01*
X144780861Y-111222375D01*
X144692621Y-111107379D01*
X144577625Y-111019139D01*
X144577624Y-111019138D01*
X144577622Y-111019137D01*
X144444497Y-110963996D01*
X144390093Y-110920155D01*
X144368028Y-110853861D01*
X144385307Y-110786162D01*
X144416458Y-110751062D01*
X144492621Y-110692621D01*
X144580861Y-110577625D01*
X144636330Y-110443709D01*
X144655250Y-110300000D01*
X144636330Y-110156291D01*
X144580861Y-110022375D01*
X144492621Y-109907379D01*
X144410981Y-109844734D01*
X144385101Y-109824875D01*
X144343899Y-109768447D01*
X144339744Y-109698701D01*
X144373957Y-109637781D01*
X144435674Y-109605029D01*
X144460588Y-109602500D01*
X149917273Y-109602500D01*
X149984312Y-109622185D01*
X150004954Y-109638819D01*
X152086181Y-111720046D01*
X152119666Y-111781369D01*
X152122500Y-111807727D01*
X152122500Y-114250301D01*
X152122500Y-114349699D01*
X152148226Y-114445710D01*
X152197925Y-114531790D01*
X154797925Y-117131790D01*
X154868210Y-117202075D01*
X154954291Y-117251774D01*
X155050301Y-117277500D01*
X155845581Y-117277500D01*
X155912620Y-117297185D01*
X155921052Y-117303113D01*
X156022375Y-117380861D01*
X156156291Y-117436330D01*
X156282896Y-117452998D01*
X156346792Y-117481265D01*
X156354390Y-117488255D01*
X159068210Y-120202076D01*
X159068212Y-120202077D01*
X159068216Y-120202080D01*
X159142126Y-120244751D01*
X159154290Y-120251774D01*
X159250301Y-120277500D01*
X162955591Y-120277500D01*
X163022630Y-120297185D01*
X163068385Y-120349989D01*
X163078329Y-120419147D01*
X163053967Y-120476986D01*
X163019139Y-120522374D01*
X163019138Y-120522376D01*
X162963671Y-120656287D01*
X162963670Y-120656291D01*
X162944750Y-120799999D01*
X162944750Y-120800000D01*
X162963670Y-120943708D01*
X162963671Y-120943712D01*
X163019137Y-121077622D01*
X163019138Y-121077624D01*
X163019139Y-121077625D01*
X163107379Y-121192621D01*
X163222375Y-121280861D01*
X163356291Y-121336330D01*
X163483280Y-121353048D01*
X163499999Y-121355250D01*
X163500000Y-121355250D01*
X163500001Y-121355250D01*
X163514977Y-121353278D01*
X163643709Y-121336330D01*
X163777625Y-121280861D01*
X163892621Y-121192621D01*
X163980861Y-121077625D01*
X164036330Y-120943709D01*
X164055250Y-120800000D01*
X164036330Y-120656291D01*
X164001880Y-120573120D01*
X163994411Y-120503651D01*
X164025686Y-120441172D01*
X164085776Y-120405520D01*
X164155601Y-120408014D01*
X164204122Y-120437987D01*
X164711743Y-120945608D01*
X164745228Y-121006931D01*
X164747001Y-121017103D01*
X164763670Y-121143707D01*
X164763671Y-121143712D01*
X164790043Y-121207381D01*
X164819139Y-121277625D01*
X164896875Y-121378933D01*
X164922070Y-121444100D01*
X164922500Y-121454418D01*
X164922500Y-123745580D01*
X164902815Y-123812619D01*
X164896876Y-123821066D01*
X164819139Y-123922374D01*
X164819138Y-123922376D01*
X164763671Y-124056287D01*
X164763670Y-124056291D01*
X164745722Y-124192620D01*
X164744750Y-124200000D01*
X164762698Y-124336329D01*
X164763670Y-124343708D01*
X164763671Y-124343712D01*
X164819137Y-124477622D01*
X164819138Y-124477624D01*
X164819139Y-124477625D01*
X164907379Y-124592621D01*
X165022375Y-124680861D01*
X165156291Y-124736330D01*
X165283280Y-124753048D01*
X165299999Y-124755250D01*
X165300000Y-124755250D01*
X165300001Y-124755250D01*
X165314977Y-124753278D01*
X165443709Y-124736330D01*
X165577625Y-124680861D01*
X165692621Y-124592621D01*
X165780861Y-124477625D01*
X165836330Y-124343709D01*
X165855250Y-124200000D01*
X165836330Y-124056291D01*
X165780861Y-123922375D01*
X165763692Y-123900000D01*
X166444750Y-123900000D01*
X166463512Y-124042512D01*
X166463670Y-124043708D01*
X166463671Y-124043712D01*
X166519137Y-124177622D01*
X166519138Y-124177624D01*
X166519139Y-124177625D01*
X166607379Y-124292621D01*
X166722375Y-124380861D01*
X166722376Y-124380861D01*
X166722377Y-124380862D01*
X166767013Y-124399350D01*
X166856291Y-124436330D01*
X166983280Y-124453048D01*
X166999999Y-124455250D01*
X167000000Y-124455250D01*
X167000001Y-124455250D01*
X167014977Y-124453278D01*
X167143709Y-124436330D01*
X167277625Y-124380861D01*
X167392621Y-124292621D01*
X167480861Y-124177625D01*
X167536330Y-124043709D01*
X167555250Y-123900000D01*
X167536330Y-123756291D01*
X167480861Y-123622375D01*
X167392621Y-123507379D01*
X167277625Y-123419139D01*
X167277624Y-123419138D01*
X167277622Y-123419137D01*
X167143712Y-123363671D01*
X167143710Y-123363670D01*
X167143709Y-123363670D01*
X167071854Y-123354210D01*
X167000001Y-123344750D01*
X166999999Y-123344750D01*
X166856291Y-123363670D01*
X166856287Y-123363671D01*
X166722377Y-123419137D01*
X166607379Y-123507379D01*
X166519137Y-123622377D01*
X166463671Y-123756287D01*
X166463670Y-123756291D01*
X166450505Y-123856291D01*
X166444750Y-123900000D01*
X165763692Y-123900000D01*
X165757454Y-123891871D01*
X165703124Y-123821066D01*
X165677930Y-123755897D01*
X165677500Y-123745580D01*
X165677500Y-121454418D01*
X165697185Y-121387379D01*
X165703116Y-121378942D01*
X165780861Y-121277625D01*
X165836330Y-121143709D01*
X165852998Y-121017102D01*
X165881264Y-120953206D01*
X165888244Y-120945619D01*
X168602076Y-118231790D01*
X168651774Y-118145710D01*
X168677500Y-118049699D01*
X168677500Y-117950301D01*
X168677500Y-101754418D01*
X168697185Y-101687379D01*
X168703116Y-101678942D01*
X168780861Y-101577625D01*
X168836330Y-101443709D01*
X168855250Y-101300000D01*
X168836330Y-101156291D01*
X168780861Y-101022375D01*
X168692621Y-100907379D01*
X168577625Y-100819139D01*
X168577624Y-100819138D01*
X168577622Y-100819137D01*
X168443712Y-100763671D01*
X168443710Y-100763670D01*
X168443709Y-100763670D01*
X168371854Y-100754210D01*
X168300001Y-100744750D01*
X168299999Y-100744750D01*
X168156291Y-100763670D01*
X168156287Y-100763671D01*
X168022377Y-100819137D01*
X167907379Y-100907379D01*
X167819137Y-101022377D01*
X167763671Y-101156287D01*
X167763670Y-101156291D01*
X167748371Y-101272500D01*
X167744750Y-101300000D01*
X167753132Y-101363670D01*
X167763670Y-101443708D01*
X167763671Y-101443712D01*
X167794723Y-101518679D01*
X167819139Y-101577625D01*
X167896875Y-101678933D01*
X167922070Y-101744100D01*
X167922500Y-101754418D01*
X167922500Y-116543754D01*
X167902815Y-116610793D01*
X167850011Y-116656548D01*
X167780853Y-116666492D01*
X167767377Y-116663728D01*
X167623225Y-116644750D01*
X167623223Y-116644750D01*
X167479515Y-116663670D01*
X167479511Y-116663671D01*
X167345601Y-116719137D01*
X167230603Y-116807379D01*
X167142361Y-116922377D01*
X167086895Y-117056287D01*
X167086894Y-117056291D01*
X167067974Y-117199999D01*
X167067974Y-117200000D01*
X167086894Y-117343708D01*
X167086895Y-117343712D01*
X167142361Y-117477622D01*
X167142362Y-117477624D01*
X167142363Y-117477625D01*
X167230603Y-117592621D01*
X167345599Y-117680861D01*
X167479515Y-117736330D01*
X167606504Y-117753048D01*
X167623223Y-117755250D01*
X167623223Y-117755249D01*
X167623224Y-117755250D01*
X167707493Y-117744155D01*
X167776526Y-117754920D01*
X167828782Y-117801299D01*
X167847668Y-117868568D01*
X167827188Y-117935369D01*
X167811358Y-117954775D01*
X165387680Y-120378453D01*
X165326357Y-120411938D01*
X165256665Y-120406954D01*
X165212318Y-120378453D01*
X164431792Y-119597927D01*
X164431790Y-119597925D01*
X164345710Y-119548226D01*
X164249699Y-119522500D01*
X164249698Y-119522500D01*
X159507728Y-119522500D01*
X159440689Y-119502815D01*
X159420047Y-119486181D01*
X156888256Y-116954391D01*
X156854771Y-116893068D01*
X156852998Y-116882896D01*
X156851742Y-116873353D01*
X156836330Y-116756291D01*
X156786641Y-116636329D01*
X156780862Y-116622377D01*
X156780861Y-116622376D01*
X156780861Y-116622375D01*
X156692621Y-116507379D01*
X156577625Y-116419139D01*
X156577624Y-116419138D01*
X156577622Y-116419137D01*
X156443712Y-116363671D01*
X156443710Y-116363670D01*
X156443709Y-116363670D01*
X156371854Y-116354210D01*
X156300001Y-116344750D01*
X156299999Y-116344750D01*
X156156291Y-116363670D01*
X156156287Y-116363671D01*
X156022377Y-116419137D01*
X155991774Y-116442620D01*
X155921065Y-116496877D01*
X155855899Y-116522070D01*
X155845581Y-116522500D01*
X155307727Y-116522500D01*
X155240688Y-116502815D01*
X155220046Y-116486181D01*
X153802240Y-115068375D01*
X153768755Y-115007052D01*
X153773739Y-114937360D01*
X153815611Y-114881427D01*
X153842460Y-114866136D01*
X153927625Y-114830861D01*
X154042621Y-114742621D01*
X154130861Y-114627625D01*
X154186330Y-114493709D01*
X154205250Y-114350000D01*
X154205210Y-114349699D01*
X154203048Y-114333280D01*
X154186330Y-114206291D01*
X154140129Y-114094750D01*
X154130862Y-114072377D01*
X154130861Y-114072376D01*
X154130861Y-114072375D01*
X154042621Y-113957379D01*
X153927625Y-113869139D01*
X153927624Y-113869138D01*
X153927622Y-113869137D01*
X153793712Y-113813671D01*
X153793710Y-113813670D01*
X153793709Y-113813670D01*
X153669954Y-113797377D01*
X153650001Y-113794750D01*
X153649999Y-113794750D01*
X153506291Y-113813670D01*
X153506287Y-113813671D01*
X153372377Y-113869137D01*
X153257379Y-113957379D01*
X153169138Y-114072376D01*
X153133866Y-114157531D01*
X153090025Y-114211934D01*
X153023730Y-114233999D01*
X152956031Y-114216720D01*
X152931624Y-114197759D01*
X152913819Y-114179954D01*
X152880334Y-114118631D01*
X152877500Y-114092273D01*
X152877500Y-111550303D01*
X152877500Y-111550301D01*
X152851774Y-111454291D01*
X152802075Y-111368210D01*
X152731790Y-111297925D01*
X150356790Y-108922925D01*
X150332474Y-108908885D01*
X150284260Y-108858319D01*
X150271038Y-108789712D01*
X150297006Y-108724847D01*
X150353921Y-108684320D01*
X150394476Y-108677500D01*
X152692273Y-108677500D01*
X152759312Y-108697185D01*
X152779954Y-108713819D01*
X154427048Y-110360913D01*
X154460533Y-110422236D01*
X154455549Y-110491928D01*
X154413677Y-110547861D01*
X154386823Y-110563154D01*
X154372374Y-110569139D01*
X154276202Y-110642935D01*
X154211033Y-110668129D01*
X154142588Y-110654091D01*
X154102341Y-110620046D01*
X154092623Y-110607381D01*
X154092621Y-110607380D01*
X154092621Y-110607379D01*
X153977625Y-110519139D01*
X153977624Y-110519138D01*
X153977622Y-110519137D01*
X153843712Y-110463671D01*
X153843710Y-110463670D01*
X153843709Y-110463670D01*
X153771854Y-110454210D01*
X153700001Y-110444750D01*
X153699999Y-110444750D01*
X153556291Y-110463670D01*
X153556287Y-110463671D01*
X153422377Y-110519137D01*
X153307379Y-110607379D01*
X153219137Y-110722377D01*
X153163671Y-110856287D01*
X153163670Y-110856291D01*
X153154279Y-110927625D01*
X153144750Y-111000000D01*
X153161978Y-111130861D01*
X153163670Y-111143708D01*
X153163671Y-111143712D01*
X153219137Y-111277622D01*
X153219138Y-111277624D01*
X153219139Y-111277625D01*
X153307379Y-111392621D01*
X153422375Y-111480861D01*
X153422376Y-111480861D01*
X153422377Y-111480862D01*
X153467013Y-111499350D01*
X153556291Y-111536330D01*
X153683280Y-111553048D01*
X153699999Y-111555250D01*
X153700000Y-111555250D01*
X153700001Y-111555250D01*
X153714977Y-111553278D01*
X153843709Y-111536330D01*
X153977625Y-111480861D01*
X154073797Y-111407064D01*
X154138966Y-111381870D01*
X154207411Y-111395908D01*
X154247658Y-111429952D01*
X154257379Y-111442621D01*
X154372375Y-111530861D01*
X154372376Y-111530861D01*
X154372377Y-111530862D01*
X154403391Y-111543708D01*
X154506291Y-111586330D01*
X154644699Y-111604552D01*
X154708595Y-111632819D01*
X154747066Y-111691143D01*
X154747897Y-111761008D01*
X154743075Y-111774942D01*
X154688670Y-111906291D01*
X154675273Y-112008053D01*
X154669750Y-112050000D01*
X154682783Y-112148997D01*
X154688670Y-112193708D01*
X154688671Y-112193712D01*
X154744137Y-112327622D01*
X154744138Y-112327624D01*
X154744139Y-112327625D01*
X154832379Y-112442621D01*
X154889194Y-112486217D01*
X154930395Y-112542643D01*
X154934550Y-112612389D01*
X154900338Y-112673310D01*
X154889195Y-112682965D01*
X154857380Y-112707377D01*
X154769137Y-112822377D01*
X154713671Y-112956287D01*
X154713670Y-112956291D01*
X154697863Y-113076358D01*
X154694750Y-113100000D01*
X154711552Y-113227625D01*
X154713670Y-113243708D01*
X154713671Y-113243712D01*
X154769137Y-113377622D01*
X154769138Y-113377624D01*
X154769139Y-113377625D01*
X154857379Y-113492621D01*
X154972375Y-113580861D01*
X154972376Y-113580861D01*
X154972377Y-113580862D01*
X155017013Y-113599350D01*
X155106291Y-113636330D01*
X155233280Y-113653048D01*
X155249999Y-113655250D01*
X155250000Y-113655250D01*
X155250001Y-113655250D01*
X155264977Y-113653278D01*
X155393709Y-113636330D01*
X155527625Y-113580861D01*
X155642621Y-113492621D01*
X155700125Y-113417679D01*
X155756552Y-113376478D01*
X155826298Y-113372323D01*
X155887218Y-113406535D01*
X155919971Y-113468252D01*
X155922500Y-113493167D01*
X155922500Y-115050301D01*
X155922500Y-115149699D01*
X155948226Y-115245710D01*
X155997925Y-115331790D01*
X155997927Y-115331792D01*
X158968206Y-118302073D01*
X158968208Y-118302074D01*
X158968209Y-118302075D01*
X158984803Y-118311655D01*
X158984807Y-118311659D01*
X158984808Y-118311658D01*
X159054291Y-118351774D01*
X159150301Y-118377500D01*
X160242028Y-118377500D01*
X160309067Y-118397185D01*
X160317499Y-118403113D01*
X160418822Y-118480861D01*
X160552738Y-118536330D01*
X160679727Y-118553048D01*
X160696446Y-118555250D01*
X160696447Y-118555250D01*
X160696448Y-118555250D01*
X160711424Y-118553278D01*
X160840156Y-118536330D01*
X160974072Y-118480861D01*
X161089068Y-118392621D01*
X161177308Y-118277625D01*
X161232777Y-118143709D01*
X161251697Y-118000000D01*
X161232777Y-117856291D01*
X161190788Y-117754920D01*
X161177309Y-117722377D01*
X161177308Y-117722376D01*
X161177308Y-117722375D01*
X161089068Y-117607379D01*
X160974072Y-117519139D01*
X160974071Y-117519138D01*
X160974069Y-117519137D01*
X160840159Y-117463671D01*
X160840157Y-117463670D01*
X160840156Y-117463670D01*
X160757303Y-117452762D01*
X160696448Y-117444750D01*
X160696446Y-117444750D01*
X160552738Y-117463670D01*
X160552734Y-117463671D01*
X160418824Y-117519137D01*
X160392760Y-117539137D01*
X160317512Y-117596877D01*
X160252346Y-117622070D01*
X160242028Y-117622500D01*
X159407728Y-117622500D01*
X159340689Y-117602815D01*
X159320047Y-117586181D01*
X156713819Y-114979953D01*
X156680334Y-114918630D01*
X156677500Y-114892272D01*
X156677500Y-111650303D01*
X156677500Y-111650301D01*
X156651774Y-111554291D01*
X156651774Y-111554290D01*
X156602075Y-111468210D01*
X153131790Y-107997925D01*
X153045710Y-107948226D01*
X152949699Y-107922500D01*
X152949698Y-107922500D01*
X145029419Y-107922500D01*
X144962380Y-107902815D01*
X144953947Y-107896886D01*
X144852625Y-107819139D01*
X144852624Y-107819138D01*
X144852622Y-107819137D01*
X144718712Y-107763671D01*
X144718710Y-107763670D01*
X144718709Y-107763670D01*
X144646854Y-107754210D01*
X144575001Y-107744750D01*
X144574999Y-107744750D01*
X144431291Y-107763670D01*
X144431287Y-107763671D01*
X144297377Y-107819137D01*
X144182379Y-107907379D01*
X144094137Y-108022377D01*
X144038671Y-108156287D01*
X144038670Y-108156291D01*
X144019750Y-108299999D01*
X144019750Y-108300000D01*
X144038670Y-108443708D01*
X144038671Y-108443712D01*
X144094138Y-108577623D01*
X144094139Y-108577626D01*
X144148150Y-108648013D01*
X144173345Y-108713182D01*
X144159307Y-108781627D01*
X144110493Y-108831617D01*
X144049775Y-108847500D01*
X141754419Y-108847500D01*
X141687380Y-108827815D01*
X141678947Y-108821886D01*
X141577625Y-108744139D01*
X141577624Y-108744138D01*
X141577622Y-108744137D01*
X141443712Y-108688671D01*
X141443710Y-108688670D01*
X141443709Y-108688670D01*
X141358866Y-108677500D01*
X141300001Y-108669750D01*
X141299999Y-108669750D01*
X141156291Y-108688670D01*
X141156287Y-108688671D01*
X141022377Y-108744137D01*
X140907379Y-108832379D01*
X140819137Y-108947377D01*
X140763671Y-109081287D01*
X140763670Y-109081291D01*
X140748042Y-109199999D01*
X140744750Y-109225000D01*
X130500500Y-109225000D01*
X130500500Y-105774999D01*
X131294750Y-105774999D01*
X131294750Y-105775000D01*
X131313670Y-105918708D01*
X131313671Y-105918712D01*
X131369137Y-106052622D01*
X131369138Y-106052624D01*
X131369139Y-106052625D01*
X131457379Y-106167621D01*
X131572375Y-106255861D01*
X131706291Y-106311330D01*
X131833280Y-106328048D01*
X131849999Y-106330250D01*
X131850000Y-106330250D01*
X131850001Y-106330250D01*
X131864977Y-106328278D01*
X131993709Y-106311330D01*
X132127625Y-106255861D01*
X132242621Y-106167621D01*
X132330861Y-106052625D01*
X132386330Y-105918709D01*
X132405250Y-105775000D01*
X132386330Y-105631291D01*
X132331948Y-105499999D01*
X136294750Y-105499999D01*
X136294750Y-105500000D01*
X136313670Y-105643708D01*
X136313671Y-105643712D01*
X136369137Y-105777622D01*
X136369138Y-105777624D01*
X136369139Y-105777625D01*
X136457379Y-105892621D01*
X136466711Y-105899782D01*
X136469113Y-105901625D01*
X136510316Y-105958053D01*
X136514470Y-106027799D01*
X136480257Y-106088719D01*
X136469113Y-106098375D01*
X136457381Y-106107377D01*
X136369137Y-106222377D01*
X136313671Y-106356287D01*
X136313670Y-106356291D01*
X136294750Y-106500000D01*
X136312963Y-106638342D01*
X136313670Y-106643708D01*
X136313671Y-106643712D01*
X136369137Y-106777622D01*
X136369138Y-106777624D01*
X136369139Y-106777625D01*
X136457379Y-106892621D01*
X136572375Y-106980861D01*
X136706291Y-107036330D01*
X136833280Y-107053048D01*
X136849999Y-107055250D01*
X136850000Y-107055250D01*
X136850001Y-107055250D01*
X136864977Y-107053278D01*
X136993709Y-107036330D01*
X137127625Y-106980861D01*
X137242621Y-106892621D01*
X137330861Y-106777625D01*
X137362889Y-106700301D01*
X157218947Y-106700301D01*
X157218947Y-114646748D01*
X157218947Y-114746146D01*
X157244673Y-114842157D01*
X157294372Y-114928237D01*
X158768210Y-116402076D01*
X158768212Y-116402077D01*
X158768216Y-116402080D01*
X158838436Y-116442621D01*
X158854290Y-116451774D01*
X158950301Y-116477500D01*
X159342028Y-116477500D01*
X159409067Y-116497185D01*
X159417499Y-116503113D01*
X159518822Y-116580861D01*
X159518823Y-116580861D01*
X159518824Y-116580862D01*
X159563460Y-116599350D01*
X159652738Y-116636330D01*
X159779727Y-116653048D01*
X159796446Y-116655250D01*
X159796447Y-116655250D01*
X159796448Y-116655250D01*
X159811424Y-116653278D01*
X159940156Y-116636330D01*
X160074072Y-116580861D01*
X160189068Y-116492621D01*
X160277308Y-116377625D01*
X160332777Y-116243709D01*
X160351697Y-116100000D01*
X160345114Y-116049999D01*
X164317974Y-116049999D01*
X164317974Y-116050000D01*
X164336894Y-116193708D01*
X164336895Y-116193712D01*
X164392361Y-116327622D01*
X164392362Y-116327624D01*
X164392363Y-116327625D01*
X164480603Y-116442621D01*
X164595599Y-116530861D01*
X164595600Y-116530861D01*
X164595601Y-116530862D01*
X164626726Y-116543754D01*
X164729515Y-116586330D01*
X164856504Y-116603048D01*
X164873223Y-116605250D01*
X164873224Y-116605250D01*
X164873225Y-116605250D01*
X164888201Y-116603278D01*
X165016933Y-116586330D01*
X165150849Y-116530861D01*
X165265845Y-116442621D01*
X165354085Y-116327625D01*
X165409554Y-116193709D01*
X165428474Y-116050000D01*
X165409554Y-115906291D01*
X165354085Y-115772375D01*
X165265845Y-115657379D01*
X165150849Y-115569139D01*
X165150848Y-115569138D01*
X165150846Y-115569137D01*
X165016936Y-115513671D01*
X165016934Y-115513670D01*
X165016933Y-115513670D01*
X164945078Y-115504210D01*
X164873225Y-115494750D01*
X164873223Y-115494750D01*
X164729515Y-115513670D01*
X164729511Y-115513671D01*
X164595601Y-115569137D01*
X164480603Y-115657379D01*
X164392361Y-115772377D01*
X164336895Y-115906287D01*
X164336894Y-115906291D01*
X164317974Y-116049999D01*
X160345114Y-116049999D01*
X160332777Y-115956291D01*
X160277308Y-115822375D01*
X160189068Y-115707379D01*
X160074072Y-115619139D01*
X160074071Y-115619138D01*
X160074069Y-115619137D01*
X159940159Y-115563671D01*
X159940157Y-115563670D01*
X159940156Y-115563670D01*
X159899240Y-115558283D01*
X159794576Y-115544503D01*
X159730679Y-115516236D01*
X159692209Y-115457911D01*
X159687823Y-115405378D01*
X159701697Y-115300000D01*
X159701697Y-115299999D01*
X159696400Y-115259766D01*
X159682777Y-115156291D01*
X159632614Y-115035184D01*
X159627309Y-115022377D01*
X159627308Y-115022376D01*
X159627308Y-115022375D01*
X159539068Y-114907379D01*
X159424072Y-114819139D01*
X159424071Y-114819138D01*
X159424069Y-114819137D01*
X159290159Y-114763671D01*
X159290157Y-114763670D01*
X159290156Y-114763670D01*
X159218301Y-114754210D01*
X159146448Y-114744750D01*
X159146446Y-114744750D01*
X159002738Y-114763670D01*
X159002734Y-114763671D01*
X158868824Y-114819137D01*
X158811324Y-114863259D01*
X158753826Y-114907379D01*
X158753825Y-114907380D01*
X158753824Y-114907381D01*
X158660768Y-115028653D01*
X158604340Y-115069855D01*
X158534594Y-115074010D01*
X158474712Y-115040847D01*
X158276022Y-114842157D01*
X158010266Y-114576400D01*
X157976781Y-114515077D01*
X157973947Y-114488719D01*
X157973947Y-114070351D01*
X157993632Y-114003312D01*
X158046436Y-113957557D01*
X158115593Y-113947613D01*
X158170447Y-113955500D01*
X158170448Y-113955500D01*
X158780974Y-113955500D01*
X158780984Y-113955500D01*
X158812598Y-113953537D01*
X158843049Y-113949740D01*
X158874180Y-113943879D01*
X159491675Y-113787447D01*
X159861682Y-113693712D01*
X160688320Y-113484297D01*
X160718771Y-113480500D01*
X161421616Y-113480500D01*
X161488655Y-113500185D01*
X161534410Y-113552989D01*
X161544354Y-113622147D01*
X161536178Y-113651951D01*
X161513670Y-113706291D01*
X161494750Y-113849999D01*
X161494750Y-113850002D01*
X161510764Y-113971640D01*
X161499998Y-114040675D01*
X161453618Y-114092931D01*
X161386350Y-114111816D01*
X161371640Y-114110764D01*
X161250002Y-114094750D01*
X161249999Y-114094750D01*
X161106291Y-114113670D01*
X161106287Y-114113671D01*
X160972377Y-114169137D01*
X160857379Y-114257379D01*
X160769137Y-114372377D01*
X160713671Y-114506287D01*
X160713670Y-114506291D01*
X160694750Y-114649999D01*
X160694750Y-114650000D01*
X160713670Y-114793708D01*
X160713671Y-114793712D01*
X160769137Y-114927622D01*
X160769138Y-114927624D01*
X160769139Y-114927625D01*
X160857379Y-115042621D01*
X160972375Y-115130861D01*
X161106291Y-115186330D01*
X161233280Y-115203048D01*
X161249999Y-115205250D01*
X161250000Y-115205250D01*
X161250001Y-115205250D01*
X161286527Y-115200441D01*
X161368291Y-115189676D01*
X161437325Y-115200441D01*
X161489581Y-115246821D01*
X161508467Y-115314090D01*
X161507415Y-115328801D01*
X161494750Y-115424999D01*
X161494750Y-115425000D01*
X161513670Y-115568708D01*
X161513671Y-115568712D01*
X161569137Y-115702622D01*
X161569138Y-115702624D01*
X161569139Y-115702625D01*
X161657379Y-115817621D01*
X161772375Y-115905861D01*
X161906291Y-115961330D01*
X162033280Y-115978048D01*
X162049999Y-115980250D01*
X162050000Y-115980250D01*
X162050001Y-115980250D01*
X162064977Y-115978278D01*
X162193709Y-115961330D01*
X162327625Y-115905861D01*
X162442621Y-115817621D01*
X162530861Y-115702625D01*
X162586330Y-115568709D01*
X162605250Y-115425000D01*
X162592584Y-115328798D01*
X162603349Y-115259766D01*
X162649728Y-115207510D01*
X162716997Y-115188624D01*
X162731702Y-115189675D01*
X162813473Y-115200441D01*
X162849999Y-115205250D01*
X162850000Y-115205250D01*
X162850001Y-115205250D01*
X162864977Y-115203278D01*
X162993709Y-115186330D01*
X163127625Y-115130861D01*
X163242621Y-115042621D01*
X163330861Y-114927625D01*
X163386330Y-114793709D01*
X163405250Y-114650000D01*
X163386330Y-114506291D01*
X163344908Y-114406287D01*
X163330862Y-114372377D01*
X163330861Y-114372376D01*
X163330861Y-114372375D01*
X163242621Y-114257379D01*
X163127625Y-114169139D01*
X163127624Y-114169138D01*
X163127622Y-114169137D01*
X162993712Y-114113671D01*
X162993710Y-114113670D01*
X162993709Y-114113670D01*
X162889862Y-114099998D01*
X162850001Y-114094750D01*
X162849998Y-114094750D01*
X162728359Y-114110764D01*
X162659324Y-114099998D01*
X162607068Y-114053618D01*
X162588183Y-113986349D01*
X162589235Y-113971640D01*
X162605250Y-113850000D01*
X162586330Y-113706291D01*
X162563822Y-113651951D01*
X162556354Y-113582482D01*
X162587630Y-113520003D01*
X162647719Y-113484351D01*
X162678384Y-113480500D01*
X163374123Y-113480500D01*
X163404574Y-113484297D01*
X164231212Y-113693712D01*
X164601219Y-113787447D01*
X165218714Y-113943879D01*
X165249845Y-113949740D01*
X165280296Y-113953537D01*
X165311910Y-113955500D01*
X165311920Y-113955500D01*
X165886220Y-113955500D01*
X165888783Y-113955362D01*
X165913531Y-113954036D01*
X165913540Y-113954035D01*
X165913541Y-113954035D01*
X165918172Y-113953537D01*
X165939891Y-113951202D01*
X165939896Y-113951201D01*
X166035032Y-113921410D01*
X166096354Y-113887924D01*
X166154569Y-113844343D01*
X166190797Y-113808114D01*
X166209075Y-113787766D01*
X166225708Y-113767125D01*
X166271912Y-113678795D01*
X166291597Y-113611756D01*
X166301947Y-113539771D01*
X166301947Y-112149000D01*
X166296108Y-112094687D01*
X166284902Y-112043176D01*
X166277666Y-112016802D01*
X166272684Y-112008053D01*
X166228341Y-111930181D01*
X166228337Y-111930176D01*
X166228335Y-111930172D01*
X166182580Y-111877368D01*
X166149806Y-111845743D01*
X166061471Y-111799535D01*
X166061470Y-111799534D01*
X166061469Y-111799534D01*
X166061469Y-111799533D01*
X165994437Y-111779851D01*
X165994425Y-111779848D01*
X165922448Y-111769500D01*
X165922447Y-111769500D01*
X162649831Y-111769500D01*
X162582792Y-111749815D01*
X162537037Y-111697011D01*
X162527093Y-111627853D01*
X162535269Y-111598049D01*
X162540124Y-111586328D01*
X162557777Y-111543709D01*
X162576697Y-111400000D01*
X162566733Y-111324318D01*
X162577498Y-111255285D01*
X162623878Y-111203029D01*
X162657583Y-111188358D01*
X162665149Y-111186330D01*
X162665156Y-111186330D01*
X162799072Y-111130861D01*
X162914068Y-111042621D01*
X163002308Y-110927625D01*
X163057777Y-110793709D01*
X163076697Y-110650000D01*
X163057777Y-110506291D01*
X163002308Y-110372375D01*
X162914068Y-110257379D01*
X162799072Y-110169139D01*
X162768054Y-110156291D01*
X162669329Y-110115398D01*
X162614926Y-110071557D01*
X162592861Y-110005263D01*
X162593842Y-109984659D01*
X162601697Y-109925000D01*
X162593843Y-109865346D01*
X162604608Y-109796313D01*
X162650987Y-109744057D01*
X162669330Y-109734601D01*
X162738713Y-109705862D01*
X162799072Y-109680861D01*
X162914068Y-109592621D01*
X163002308Y-109477625D01*
X163057777Y-109343709D01*
X163076697Y-109200000D01*
X163057777Y-109056291D01*
X163002308Y-108922375D01*
X162914068Y-108807379D01*
X162799072Y-108719139D01*
X162799071Y-108719138D01*
X162799069Y-108719137D01*
X162665159Y-108663671D01*
X162665157Y-108663670D01*
X162665156Y-108663670D01*
X162593301Y-108654210D01*
X162521448Y-108644750D01*
X162521446Y-108644750D01*
X162377738Y-108663670D01*
X162377734Y-108663671D01*
X162243824Y-108719137D01*
X162205694Y-108748395D01*
X162128826Y-108807379D01*
X162128824Y-108807381D01*
X162122379Y-108812327D01*
X162120318Y-108809641D01*
X162072669Y-108835591D01*
X162002983Y-108830528D01*
X161971884Y-108810542D01*
X161970515Y-108812327D01*
X161964069Y-108807381D01*
X161964068Y-108807379D01*
X161849072Y-108719139D01*
X161849071Y-108719138D01*
X161849069Y-108719137D01*
X161715159Y-108663671D01*
X161715157Y-108663670D01*
X161715156Y-108663670D01*
X161643301Y-108654210D01*
X161571448Y-108644750D01*
X161571446Y-108644750D01*
X161427738Y-108663670D01*
X161427734Y-108663671D01*
X161293824Y-108719137D01*
X161178826Y-108807379D01*
X161090584Y-108922377D01*
X161035118Y-109056287D01*
X161035117Y-109056291D01*
X161016197Y-109199999D01*
X161016197Y-109200000D01*
X161035117Y-109343708D01*
X161035118Y-109343712D01*
X161090584Y-109477622D01*
X161090585Y-109477624D01*
X161090586Y-109477625D01*
X161178826Y-109592621D01*
X161293822Y-109680861D01*
X161423565Y-109734601D01*
X161477966Y-109778440D01*
X161500032Y-109844734D01*
X161499050Y-109865346D01*
X161491197Y-109924997D01*
X161491197Y-109925002D01*
X161499050Y-109984652D01*
X161488284Y-110053687D01*
X161441904Y-110105943D01*
X161423564Y-110115398D01*
X161293823Y-110169138D01*
X161178826Y-110257379D01*
X161090584Y-110372377D01*
X161035118Y-110506287D01*
X161035117Y-110506291D01*
X161020141Y-110620046D01*
X161016197Y-110650000D01*
X161034123Y-110786162D01*
X161035117Y-110793708D01*
X161035118Y-110793712D01*
X161090584Y-110927622D01*
X161090585Y-110927624D01*
X161090586Y-110927625D01*
X161178826Y-111042621D01*
X161293822Y-111130861D01*
X161402979Y-111176074D01*
X161457380Y-111219913D01*
X161479446Y-111286207D01*
X161478464Y-111306819D01*
X161466197Y-111399997D01*
X161466197Y-111400000D01*
X161485117Y-111543709D01*
X161502770Y-111586328D01*
X161507625Y-111598049D01*
X161515093Y-111667518D01*
X161483817Y-111729997D01*
X161423728Y-111765649D01*
X161393063Y-111769500D01*
X158170444Y-111769500D01*
X158112831Y-111775694D01*
X158112695Y-111774434D01*
X158048448Y-111766360D01*
X157994839Y-111721550D01*
X157973967Y-111654871D01*
X157973947Y-111652668D01*
X157973947Y-107149999D01*
X161016197Y-107149999D01*
X161016197Y-107150000D01*
X161035117Y-107293708D01*
X161035118Y-107293712D01*
X161090584Y-107427622D01*
X161090585Y-107427624D01*
X161090586Y-107427625D01*
X161178826Y-107542621D01*
X161293822Y-107630861D01*
X161423565Y-107684601D01*
X161477966Y-107728440D01*
X161500032Y-107794734D01*
X161499050Y-107815346D01*
X161491197Y-107874997D01*
X161491197Y-107875000D01*
X161510117Y-108018708D01*
X161510118Y-108018712D01*
X161565584Y-108152622D01*
X161565585Y-108152624D01*
X161565586Y-108152625D01*
X161653826Y-108267621D01*
X161768822Y-108355861D01*
X161902738Y-108411330D01*
X162029727Y-108428048D01*
X162046446Y-108430250D01*
X162046447Y-108430250D01*
X162046448Y-108430250D01*
X162061424Y-108428278D01*
X162190156Y-108411330D01*
X162324072Y-108355861D01*
X162439068Y-108267621D01*
X162527308Y-108152625D01*
X162582777Y-108018709D01*
X162601697Y-107875000D01*
X162593843Y-107815346D01*
X162604608Y-107746313D01*
X162650987Y-107694057D01*
X162669330Y-107684601D01*
X162669335Y-107684599D01*
X162799072Y-107630861D01*
X162914068Y-107542621D01*
X163002308Y-107427625D01*
X163057777Y-107293709D01*
X163076697Y-107150000D01*
X163057777Y-107006291D01*
X163010694Y-106892620D01*
X163002309Y-106872377D01*
X163002308Y-106872376D01*
X163002308Y-106872375D01*
X162914068Y-106757379D01*
X162799072Y-106669139D01*
X162799071Y-106669138D01*
X162799069Y-106669137D01*
X162665159Y-106613671D01*
X162665157Y-106613670D01*
X162665156Y-106613670D01*
X162593301Y-106604210D01*
X162521448Y-106594750D01*
X162521446Y-106594750D01*
X162377738Y-106613670D01*
X162377734Y-106613671D01*
X162243824Y-106669137D01*
X162205694Y-106698395D01*
X162128826Y-106757379D01*
X162128824Y-106757381D01*
X162122379Y-106762327D01*
X162120318Y-106759641D01*
X162072669Y-106785591D01*
X162002983Y-106780528D01*
X161971884Y-106760542D01*
X161970515Y-106762327D01*
X161964069Y-106757381D01*
X161964068Y-106757379D01*
X161849072Y-106669139D01*
X161849071Y-106669138D01*
X161849069Y-106669137D01*
X161715159Y-106613671D01*
X161715157Y-106613670D01*
X161715156Y-106613670D01*
X161643301Y-106604210D01*
X161571448Y-106594750D01*
X161571446Y-106594750D01*
X161427738Y-106613670D01*
X161427734Y-106613671D01*
X161293824Y-106669137D01*
X161178826Y-106757379D01*
X161090584Y-106872377D01*
X161035118Y-107006287D01*
X161035117Y-107006291D01*
X161016197Y-107149999D01*
X157973947Y-107149999D01*
X157973947Y-107060373D01*
X157993632Y-106993334D01*
X158046436Y-106947579D01*
X158081761Y-106937435D01*
X158090156Y-106936330D01*
X158224072Y-106880861D01*
X158325381Y-106803122D01*
X158390548Y-106777930D01*
X158400866Y-106777500D01*
X158492028Y-106777500D01*
X158559067Y-106797185D01*
X158567499Y-106803113D01*
X158668822Y-106880861D01*
X158668823Y-106880861D01*
X158668824Y-106880862D01*
X158713460Y-106899350D01*
X158802738Y-106936330D01*
X158929727Y-106953048D01*
X158946446Y-106955250D01*
X158946447Y-106955250D01*
X158946448Y-106955250D01*
X158961424Y-106953278D01*
X159090156Y-106936330D01*
X159224072Y-106880861D01*
X159325381Y-106803122D01*
X159390548Y-106777930D01*
X159400866Y-106777500D01*
X159949697Y-106777500D01*
X159949699Y-106777500D01*
X160045710Y-106751774D01*
X160131790Y-106702075D01*
X165002075Y-101831790D01*
X165051774Y-101745710D01*
X165065999Y-101692621D01*
X165077500Y-101649699D01*
X165077500Y-100054418D01*
X165097185Y-99987379D01*
X165103116Y-99978942D01*
X165180861Y-99877625D01*
X165236330Y-99743709D01*
X165255250Y-99600000D01*
X165236330Y-99456291D01*
X165180861Y-99322375D01*
X165092621Y-99207379D01*
X164977625Y-99119139D01*
X164977624Y-99119138D01*
X164977622Y-99119137D01*
X164843712Y-99063671D01*
X164843710Y-99063670D01*
X164843709Y-99063670D01*
X164771854Y-99054210D01*
X164700001Y-99044750D01*
X164699999Y-99044750D01*
X164556291Y-99063670D01*
X164556287Y-99063671D01*
X164422377Y-99119137D01*
X164307379Y-99207379D01*
X164219137Y-99322377D01*
X164163671Y-99456287D01*
X164163670Y-99456291D01*
X164150505Y-99556291D01*
X164144750Y-99600000D01*
X164157915Y-99700000D01*
X164163670Y-99743708D01*
X164163671Y-99743712D01*
X164215446Y-99868709D01*
X164219139Y-99877625D01*
X164296875Y-99978933D01*
X164322070Y-100044100D01*
X164322500Y-100054418D01*
X164322500Y-101392273D01*
X164302815Y-101459312D01*
X164286181Y-101479954D01*
X159779954Y-105986181D01*
X159718631Y-106019666D01*
X159692273Y-106022500D01*
X159400866Y-106022500D01*
X159333827Y-106002815D01*
X159325394Y-105996886D01*
X159224072Y-105919139D01*
X159224071Y-105919138D01*
X159224069Y-105919137D01*
X159090159Y-105863671D01*
X159090157Y-105863670D01*
X159090156Y-105863670D01*
X159018301Y-105854210D01*
X158946448Y-105844750D01*
X158946446Y-105844750D01*
X158802738Y-105863670D01*
X158802734Y-105863671D01*
X158668824Y-105919137D01*
X158636532Y-105943915D01*
X158567512Y-105996877D01*
X158502346Y-106022070D01*
X158492028Y-106022500D01*
X158400866Y-106022500D01*
X158333827Y-106002815D01*
X158325394Y-105996886D01*
X158224072Y-105919139D01*
X158224071Y-105919138D01*
X158224069Y-105919137D01*
X158090159Y-105863671D01*
X158090157Y-105863670D01*
X158090156Y-105863670D01*
X158018301Y-105854210D01*
X157946448Y-105844750D01*
X157946446Y-105844750D01*
X157802738Y-105863670D01*
X157802734Y-105863671D01*
X157668824Y-105919137D01*
X157553826Y-106007379D01*
X157465584Y-106122377D01*
X157410118Y-106256287D01*
X157410117Y-106256291D01*
X157393448Y-106382895D01*
X157365181Y-106446791D01*
X157358192Y-106454387D01*
X157294375Y-106518206D01*
X157294372Y-106518210D01*
X157244674Y-106604287D01*
X157244673Y-106604289D01*
X157244673Y-106604290D01*
X157235549Y-106638342D01*
X157235549Y-106638343D01*
X157235548Y-106638342D01*
X157218947Y-106700301D01*
X137362889Y-106700301D01*
X137386330Y-106643709D01*
X137405250Y-106500000D01*
X137386330Y-106356291D01*
X137330861Y-106222375D01*
X137242621Y-106107379D01*
X137230886Y-106098374D01*
X137189685Y-106041950D01*
X137185529Y-105972204D01*
X137219740Y-105911283D01*
X137230876Y-105901632D01*
X137242621Y-105892621D01*
X137330861Y-105777625D01*
X137386330Y-105643709D01*
X137405250Y-105500000D01*
X137404904Y-105497375D01*
X137403048Y-105483280D01*
X137386330Y-105356291D01*
X137330861Y-105222375D01*
X137242621Y-105107379D01*
X137127625Y-105019139D01*
X137127624Y-105019138D01*
X137127622Y-105019137D01*
X136993712Y-104963671D01*
X136993710Y-104963670D01*
X136993709Y-104963670D01*
X136921854Y-104954210D01*
X136850001Y-104944750D01*
X136849999Y-104944750D01*
X136706291Y-104963670D01*
X136706287Y-104963671D01*
X136572377Y-105019137D01*
X136457379Y-105107379D01*
X136369137Y-105222377D01*
X136313671Y-105356287D01*
X136313670Y-105356291D01*
X136294750Y-105499999D01*
X132331948Y-105499999D01*
X132330861Y-105497375D01*
X132242621Y-105382379D01*
X132127625Y-105294139D01*
X132127624Y-105294138D01*
X132127622Y-105294137D01*
X131993712Y-105238671D01*
X131993710Y-105238670D01*
X131993709Y-105238670D01*
X131869954Y-105222377D01*
X131850001Y-105219750D01*
X131849999Y-105219750D01*
X131706291Y-105238670D01*
X131706287Y-105238671D01*
X131572377Y-105294137D01*
X131457379Y-105382379D01*
X131369137Y-105497377D01*
X131313671Y-105631287D01*
X131313670Y-105631291D01*
X131294750Y-105774999D01*
X130500500Y-105774999D01*
X130500500Y-103924999D01*
X131269750Y-103924999D01*
X131269750Y-103925000D01*
X131288670Y-104068708D01*
X131288671Y-104068712D01*
X131344137Y-104202622D01*
X131344138Y-104202624D01*
X131344139Y-104202625D01*
X131432379Y-104317621D01*
X131547375Y-104405861D01*
X131681291Y-104461330D01*
X131808280Y-104478048D01*
X131824999Y-104480250D01*
X131825000Y-104480250D01*
X131825001Y-104480250D01*
X131839977Y-104478278D01*
X131968709Y-104461330D01*
X132102625Y-104405861D01*
X132217621Y-104317621D01*
X132269509Y-104249999D01*
X148344750Y-104249999D01*
X148344750Y-104250000D01*
X148363670Y-104393708D01*
X148363671Y-104393712D01*
X148419137Y-104527622D01*
X148419138Y-104527624D01*
X148419139Y-104527625D01*
X148507379Y-104642621D01*
X148622375Y-104730861D01*
X148756291Y-104786330D01*
X148883280Y-104803048D01*
X148899999Y-104805250D01*
X148900000Y-104805250D01*
X148900001Y-104805250D01*
X148914977Y-104803278D01*
X149043709Y-104786330D01*
X149177625Y-104730861D01*
X149292621Y-104642621D01*
X149380861Y-104527625D01*
X149436330Y-104393709D01*
X149455250Y-104250000D01*
X149436330Y-104106291D01*
X149380861Y-103972375D01*
X149292621Y-103857379D01*
X149177625Y-103769139D01*
X149177624Y-103769138D01*
X149177622Y-103769137D01*
X149043712Y-103713671D01*
X149043710Y-103713670D01*
X149043709Y-103713670D01*
X148939877Y-103700000D01*
X148900001Y-103694750D01*
X148899999Y-103694750D01*
X148756291Y-103713670D01*
X148756287Y-103713671D01*
X148622377Y-103769137D01*
X148507379Y-103857379D01*
X148419137Y-103972377D01*
X148363671Y-104106287D01*
X148363670Y-104106291D01*
X148344750Y-104249999D01*
X132269509Y-104249999D01*
X132305861Y-104202625D01*
X132361330Y-104068709D01*
X132380250Y-103925000D01*
X132361330Y-103781291D01*
X132305861Y-103647375D01*
X132217621Y-103532379D01*
X132102625Y-103444139D01*
X132102624Y-103444138D01*
X132102622Y-103444137D01*
X131968712Y-103388671D01*
X131968710Y-103388670D01*
X131968709Y-103388670D01*
X131896854Y-103379210D01*
X131825001Y-103369750D01*
X131824999Y-103369750D01*
X131681291Y-103388670D01*
X131681287Y-103388671D01*
X131547377Y-103444137D01*
X131432379Y-103532379D01*
X131344137Y-103647377D01*
X131288671Y-103781287D01*
X131288670Y-103781291D01*
X131269750Y-103924999D01*
X130500500Y-103924999D01*
X130500500Y-102403388D01*
X138522500Y-102403388D01*
X138522500Y-102596611D01*
X138552725Y-102787441D01*
X138612429Y-102971194D01*
X138666657Y-103077622D01*
X138700148Y-103143350D01*
X138813715Y-103299663D01*
X138950337Y-103436285D01*
X139082600Y-103532379D01*
X139106650Y-103549852D01*
X139278805Y-103637570D01*
X139370681Y-103667422D01*
X139462560Y-103697275D01*
X139550943Y-103711273D01*
X139653389Y-103727500D01*
X139653394Y-103727500D01*
X139846611Y-103727500D01*
X139939123Y-103712846D01*
X140037440Y-103697275D01*
X140221197Y-103637569D01*
X140393350Y-103549852D01*
X140549663Y-103436285D01*
X140686285Y-103299663D01*
X140799852Y-103143350D01*
X140887569Y-102971197D01*
X140947275Y-102787440D01*
X140968048Y-102656287D01*
X140977500Y-102596611D01*
X140977500Y-102403388D01*
X140957087Y-102274513D01*
X140947275Y-102212560D01*
X140892413Y-102043712D01*
X140887570Y-102028805D01*
X140821940Y-101899999D01*
X155544750Y-101899999D01*
X155544750Y-101900000D01*
X155563670Y-102043708D01*
X155563671Y-102043712D01*
X155619137Y-102177622D01*
X155619138Y-102177624D01*
X155619139Y-102177625D01*
X155693485Y-102274515D01*
X155718679Y-102339682D01*
X155704641Y-102408127D01*
X155693489Y-102425480D01*
X155650000Y-102482156D01*
X155619137Y-102522377D01*
X155563671Y-102656287D01*
X155563670Y-102656291D01*
X155544750Y-102799999D01*
X155544750Y-102800000D01*
X155563670Y-102943708D01*
X155563671Y-102943712D01*
X155619137Y-103077622D01*
X155619138Y-103077624D01*
X155619139Y-103077625D01*
X155693485Y-103174515D01*
X155718679Y-103239682D01*
X155704641Y-103308127D01*
X155693489Y-103325480D01*
X155659520Y-103369750D01*
X155619137Y-103422377D01*
X155563671Y-103556287D01*
X155563670Y-103556291D01*
X155544750Y-103700000D01*
X155553852Y-103769139D01*
X155563670Y-103843708D01*
X155563671Y-103843712D01*
X155619137Y-103977622D01*
X155619138Y-103977624D01*
X155619139Y-103977625D01*
X155707379Y-104092621D01*
X155822375Y-104180861D01*
X155956291Y-104236330D01*
X156083280Y-104253048D01*
X156099999Y-104255250D01*
X156100000Y-104255250D01*
X156100001Y-104255250D01*
X156114977Y-104253278D01*
X156243709Y-104236330D01*
X156377625Y-104180861D01*
X156474515Y-104106514D01*
X156539682Y-104081321D01*
X156608127Y-104095359D01*
X156625480Y-104106510D01*
X156722375Y-104180861D01*
X156856291Y-104236330D01*
X156983280Y-104253048D01*
X156999999Y-104255250D01*
X157000000Y-104255250D01*
X157000001Y-104255250D01*
X157014977Y-104253278D01*
X157143709Y-104236330D01*
X157277625Y-104180861D01*
X157392621Y-104092621D01*
X157480861Y-103977625D01*
X157536330Y-103843709D01*
X157555250Y-103700000D01*
X157536330Y-103556291D01*
X157480861Y-103422375D01*
X157406514Y-103325484D01*
X157381321Y-103260318D01*
X157395359Y-103191873D01*
X157406510Y-103174519D01*
X157480861Y-103077625D01*
X157536330Y-102943709D01*
X157555250Y-102800000D01*
X157536330Y-102656291D01*
X157480861Y-102522375D01*
X157406514Y-102425484D01*
X157397972Y-102403388D01*
X159522500Y-102403388D01*
X159522500Y-102596611D01*
X159552725Y-102787441D01*
X159612429Y-102971194D01*
X159666657Y-103077622D01*
X159700148Y-103143350D01*
X159813715Y-103299663D01*
X159950337Y-103436285D01*
X160082600Y-103532379D01*
X160106650Y-103549852D01*
X160278805Y-103637570D01*
X160370681Y-103667422D01*
X160462560Y-103697275D01*
X160550943Y-103711273D01*
X160653389Y-103727500D01*
X160653394Y-103727500D01*
X160846611Y-103727500D01*
X160939123Y-103712846D01*
X161037440Y-103697275D01*
X161221197Y-103637569D01*
X161393350Y-103549852D01*
X161549663Y-103436285D01*
X161686285Y-103299663D01*
X161799852Y-103143350D01*
X161887569Y-102971197D01*
X161947275Y-102787440D01*
X161968048Y-102656287D01*
X161977500Y-102596611D01*
X161977500Y-102403388D01*
X161957087Y-102274513D01*
X161947275Y-102212560D01*
X161892413Y-102043712D01*
X161887570Y-102028805D01*
X161799852Y-101856650D01*
X161781790Y-101831789D01*
X161686285Y-101700337D01*
X161549663Y-101563715D01*
X161487676Y-101518679D01*
X161393349Y-101450147D01*
X161221194Y-101362429D01*
X161037441Y-101302725D01*
X160846611Y-101272500D01*
X160846606Y-101272500D01*
X160653394Y-101272500D01*
X160653389Y-101272500D01*
X160462558Y-101302725D01*
X160278805Y-101362429D01*
X160106650Y-101450147D01*
X159950336Y-101563715D01*
X159813715Y-101700336D01*
X159700147Y-101856650D01*
X159612429Y-102028805D01*
X159552725Y-102212558D01*
X159522500Y-102403388D01*
X157397972Y-102403388D01*
X157381321Y-102360318D01*
X157395359Y-102291873D01*
X157406510Y-102274519D01*
X157480861Y-102177625D01*
X157536330Y-102043709D01*
X157555250Y-101900000D01*
X157536330Y-101756291D01*
X157480861Y-101622375D01*
X157392621Y-101507379D01*
X157277625Y-101419139D01*
X157277624Y-101419138D01*
X157277622Y-101419137D01*
X157143712Y-101363671D01*
X157143710Y-101363670D01*
X157143709Y-101363670D01*
X157071854Y-101354210D01*
X157000001Y-101344750D01*
X156999999Y-101344750D01*
X156856291Y-101363670D01*
X156856287Y-101363671D01*
X156722377Y-101419137D01*
X156690451Y-101443635D01*
X156625484Y-101493485D01*
X156560318Y-101518679D01*
X156491873Y-101504641D01*
X156474519Y-101493489D01*
X156377625Y-101419139D01*
X156377624Y-101419138D01*
X156377622Y-101419137D01*
X156243712Y-101363671D01*
X156243710Y-101363670D01*
X156243709Y-101363670D01*
X156171854Y-101354210D01*
X156100001Y-101344750D01*
X156099999Y-101344750D01*
X155956291Y-101363670D01*
X155956287Y-101363671D01*
X155822377Y-101419137D01*
X155707379Y-101507379D01*
X155619137Y-101622377D01*
X155563671Y-101756287D01*
X155563670Y-101756291D01*
X155544750Y-101899999D01*
X140821940Y-101899999D01*
X140799852Y-101856650D01*
X140781790Y-101831789D01*
X140686285Y-101700337D01*
X140549663Y-101563715D01*
X140487676Y-101518679D01*
X140393349Y-101450147D01*
X140221194Y-101362429D01*
X140037441Y-101302725D01*
X139846611Y-101272500D01*
X139846606Y-101272500D01*
X139653394Y-101272500D01*
X139653389Y-101272500D01*
X139462558Y-101302725D01*
X139278805Y-101362429D01*
X139106650Y-101450147D01*
X138950336Y-101563715D01*
X138813715Y-101700336D01*
X138700147Y-101856650D01*
X138612429Y-102028805D01*
X138552725Y-102212558D01*
X138522500Y-102403388D01*
X130500500Y-102403388D01*
X130500500Y-99700000D01*
X132344750Y-99700000D01*
X132353852Y-99769139D01*
X132363670Y-99843708D01*
X132363671Y-99843712D01*
X132419137Y-99977622D01*
X132419138Y-99977624D01*
X132419139Y-99977625D01*
X132507379Y-100092621D01*
X132622375Y-100180861D01*
X132756291Y-100236330D01*
X132880039Y-100252622D01*
X132899999Y-100255250D01*
X132900000Y-100255250D01*
X132900001Y-100255250D01*
X132919961Y-100252622D01*
X133043709Y-100236330D01*
X133177625Y-100180861D01*
X133292621Y-100092621D01*
X133380861Y-99977625D01*
X133381949Y-99974999D01*
X135469750Y-99974999D01*
X135469750Y-99975000D01*
X135488670Y-100118708D01*
X135488671Y-100118712D01*
X135544137Y-100252622D01*
X135544138Y-100252624D01*
X135544139Y-100252625D01*
X135632379Y-100367621D01*
X135747375Y-100455861D01*
X135881291Y-100511330D01*
X136005039Y-100527622D01*
X136024999Y-100530250D01*
X136025000Y-100530250D01*
X136025001Y-100530250D01*
X136044961Y-100527622D01*
X136168709Y-100511330D01*
X136302625Y-100455861D01*
X136417621Y-100367621D01*
X136505861Y-100252625D01*
X136506949Y-100249999D01*
X141619750Y-100249999D01*
X141619750Y-100250000D01*
X141638670Y-100393708D01*
X141638671Y-100393712D01*
X141694137Y-100527622D01*
X141694138Y-100527624D01*
X141694139Y-100527625D01*
X141782379Y-100642621D01*
X141897375Y-100730861D01*
X141897376Y-100730861D01*
X141897377Y-100730862D01*
X141942013Y-100749350D01*
X142031291Y-100786330D01*
X142158280Y-100803048D01*
X142174999Y-100805250D01*
X142175000Y-100805250D01*
X142175001Y-100805250D01*
X142189977Y-100803278D01*
X142318709Y-100786330D01*
X142452625Y-100730861D01*
X142567621Y-100642621D01*
X142655861Y-100527625D01*
X142711330Y-100393709D01*
X142730250Y-100250000D01*
X142711330Y-100106291D01*
X142668390Y-100002622D01*
X142655862Y-99972377D01*
X142655861Y-99972376D01*
X142655861Y-99972375D01*
X142567621Y-99857379D01*
X142452625Y-99769139D01*
X142452624Y-99769138D01*
X142452622Y-99769137D01*
X142346063Y-99725000D01*
X157844750Y-99725000D01*
X157860378Y-99843708D01*
X157863670Y-99868708D01*
X157863671Y-99868712D01*
X157919137Y-100002622D01*
X157919138Y-100002624D01*
X157919139Y-100002625D01*
X158007379Y-100117621D01*
X158122375Y-100205861D01*
X158256291Y-100261330D01*
X158380039Y-100277622D01*
X158399999Y-100280250D01*
X158400000Y-100280250D01*
X158400001Y-100280250D01*
X158419961Y-100277622D01*
X158543709Y-100261330D01*
X158677625Y-100205861D01*
X158792621Y-100117621D01*
X158880861Y-100002625D01*
X158881948Y-100000000D01*
X162294750Y-100000000D01*
X162312698Y-100136329D01*
X162313670Y-100143708D01*
X162313671Y-100143712D01*
X162369137Y-100277622D01*
X162369138Y-100277624D01*
X162369139Y-100277625D01*
X162457379Y-100392621D01*
X162572375Y-100480861D01*
X162706291Y-100536330D01*
X162833280Y-100553048D01*
X162849999Y-100555250D01*
X162850000Y-100555250D01*
X162850001Y-100555250D01*
X162864977Y-100553278D01*
X162993709Y-100536330D01*
X163127625Y-100480861D01*
X163242621Y-100392621D01*
X163330861Y-100277625D01*
X163386330Y-100143709D01*
X163405250Y-100000000D01*
X163386330Y-99856291D01*
X163330861Y-99722375D01*
X163242621Y-99607379D01*
X163127625Y-99519139D01*
X163127624Y-99519138D01*
X163127622Y-99519137D01*
X162993712Y-99463671D01*
X162993710Y-99463670D01*
X162993709Y-99463670D01*
X162869954Y-99447377D01*
X162850001Y-99444750D01*
X162849999Y-99444750D01*
X162706291Y-99463670D01*
X162706287Y-99463671D01*
X162572377Y-99519137D01*
X162457379Y-99607379D01*
X162369137Y-99722377D01*
X162313671Y-99856287D01*
X162313670Y-99856291D01*
X162295722Y-99992620D01*
X162294750Y-100000000D01*
X158881948Y-100000000D01*
X158936330Y-99868709D01*
X158955250Y-99725000D01*
X158954904Y-99722375D01*
X158951267Y-99694750D01*
X158936330Y-99581291D01*
X158884554Y-99456291D01*
X158880862Y-99447377D01*
X158880861Y-99447376D01*
X158880861Y-99447375D01*
X158792621Y-99332379D01*
X158677625Y-99244139D01*
X158677624Y-99244138D01*
X158677622Y-99244137D01*
X158543712Y-99188671D01*
X158543710Y-99188670D01*
X158543709Y-99188670D01*
X158471854Y-99179210D01*
X158400001Y-99169750D01*
X158399999Y-99169750D01*
X158256291Y-99188670D01*
X158256287Y-99188671D01*
X158122377Y-99244137D01*
X158007379Y-99332379D01*
X157919137Y-99447377D01*
X157863671Y-99581287D01*
X157863670Y-99581291D01*
X157845096Y-99722375D01*
X157844750Y-99725000D01*
X142346063Y-99725000D01*
X142318712Y-99713671D01*
X142318710Y-99713670D01*
X142318709Y-99713670D01*
X142214877Y-99700000D01*
X142175001Y-99694750D01*
X142174999Y-99694750D01*
X142031291Y-99713670D01*
X142031287Y-99713671D01*
X141897377Y-99769137D01*
X141782379Y-99857379D01*
X141694137Y-99972377D01*
X141638671Y-100106287D01*
X141638670Y-100106291D01*
X141619750Y-100249999D01*
X136506949Y-100249999D01*
X136561330Y-100118709D01*
X136580250Y-99975000D01*
X136579904Y-99972375D01*
X136578048Y-99958280D01*
X136561330Y-99831291D01*
X136524350Y-99742013D01*
X136505862Y-99697377D01*
X136505861Y-99697376D01*
X136505861Y-99697375D01*
X136431142Y-99600000D01*
X138844750Y-99600000D01*
X138857915Y-99700000D01*
X138863670Y-99743708D01*
X138863671Y-99743712D01*
X138919137Y-99877622D01*
X138919138Y-99877623D01*
X138919139Y-99877625D01*
X139007379Y-99992621D01*
X139122375Y-100080861D01*
X139122376Y-100080861D01*
X139122377Y-100080862D01*
X139167013Y-100099350D01*
X139256291Y-100136330D01*
X139383280Y-100153048D01*
X139399999Y-100155250D01*
X139400000Y-100155250D01*
X139400001Y-100155250D01*
X139414977Y-100153278D01*
X139543709Y-100136330D01*
X139677625Y-100080861D01*
X139792621Y-99992621D01*
X139880861Y-99877625D01*
X139936330Y-99743709D01*
X139955250Y-99600000D01*
X139936330Y-99456291D01*
X139880861Y-99322375D01*
X139792621Y-99207379D01*
X139677625Y-99119139D01*
X139677624Y-99119138D01*
X139677622Y-99119137D01*
X139543712Y-99063671D01*
X139543710Y-99063670D01*
X139543709Y-99063670D01*
X139471854Y-99054210D01*
X139400001Y-99044750D01*
X139399999Y-99044750D01*
X139256291Y-99063670D01*
X139256287Y-99063671D01*
X139122377Y-99119137D01*
X139007379Y-99207379D01*
X138919137Y-99322377D01*
X138863671Y-99456287D01*
X138863670Y-99456291D01*
X138850505Y-99556291D01*
X138844750Y-99600000D01*
X136431142Y-99600000D01*
X136417621Y-99582379D01*
X136302625Y-99494139D01*
X136302624Y-99494138D01*
X136302622Y-99494137D01*
X136168712Y-99438671D01*
X136168710Y-99438670D01*
X136168709Y-99438670D01*
X136044954Y-99422377D01*
X136025001Y-99419750D01*
X136024999Y-99419750D01*
X135881291Y-99438670D01*
X135881287Y-99438671D01*
X135747377Y-99494137D01*
X135632379Y-99582379D01*
X135544137Y-99697377D01*
X135488671Y-99831287D01*
X135488670Y-99831291D01*
X135469750Y-99974999D01*
X133381949Y-99974999D01*
X133436330Y-99843709D01*
X133455250Y-99700000D01*
X133454904Y-99697375D01*
X133453048Y-99683280D01*
X133436330Y-99556291D01*
X133380861Y-99422375D01*
X133292621Y-99307379D01*
X133177625Y-99219139D01*
X133177624Y-99219138D01*
X133177622Y-99219137D01*
X133043712Y-99163671D01*
X133043710Y-99163670D01*
X133043709Y-99163670D01*
X132971854Y-99154210D01*
X132900001Y-99144750D01*
X132899999Y-99144750D01*
X132756291Y-99163670D01*
X132756287Y-99163671D01*
X132622377Y-99219137D01*
X132507379Y-99307379D01*
X132419137Y-99422377D01*
X132363671Y-99556287D01*
X132363670Y-99556291D01*
X132345096Y-99697375D01*
X132344750Y-99700000D01*
X130500500Y-99700000D01*
X130500500Y-99000000D01*
X159644750Y-99000000D01*
X159653132Y-99063670D01*
X159663670Y-99143708D01*
X159663671Y-99143712D01*
X159719137Y-99277622D01*
X159719138Y-99277624D01*
X159719139Y-99277625D01*
X159807379Y-99392621D01*
X159922375Y-99480861D01*
X159922376Y-99480861D01*
X159922377Y-99480862D01*
X159954431Y-99494139D01*
X160056291Y-99536330D01*
X160183280Y-99553048D01*
X160199999Y-99555250D01*
X160200000Y-99555250D01*
X160200001Y-99555250D01*
X160214977Y-99553278D01*
X160343709Y-99536330D01*
X160477625Y-99480861D01*
X160592621Y-99392621D01*
X160680861Y-99277625D01*
X160736330Y-99143709D01*
X160755250Y-99000000D01*
X160736330Y-98856291D01*
X160680861Y-98722375D01*
X160592621Y-98607379D01*
X160477625Y-98519139D01*
X160477624Y-98519138D01*
X160477622Y-98519137D01*
X160343712Y-98463671D01*
X160343710Y-98463670D01*
X160343709Y-98463670D01*
X160271854Y-98454210D01*
X160200001Y-98444750D01*
X160199999Y-98444750D01*
X160056291Y-98463670D01*
X160056287Y-98463671D01*
X159922377Y-98519137D01*
X159807379Y-98607379D01*
X159719137Y-98722377D01*
X159663671Y-98856287D01*
X159663670Y-98856291D01*
X159644750Y-99000000D01*
X130500500Y-99000000D01*
X130500500Y-97249999D01*
X143919750Y-97249999D01*
X143919750Y-97250000D01*
X143938670Y-97393708D01*
X143938671Y-97393712D01*
X143994137Y-97527622D01*
X143994138Y-97527624D01*
X143994139Y-97527625D01*
X144082379Y-97642621D01*
X144197375Y-97730861D01*
X144331291Y-97786330D01*
X144458280Y-97803048D01*
X144474999Y-97805250D01*
X144475000Y-97805250D01*
X144475001Y-97805250D01*
X144489977Y-97803278D01*
X144618709Y-97786330D01*
X144752625Y-97730861D01*
X144867621Y-97642621D01*
X144955861Y-97527625D01*
X145011330Y-97393709D01*
X145030250Y-97250000D01*
X145011330Y-97106291D01*
X144955861Y-96972375D01*
X144867621Y-96857379D01*
X144752625Y-96769139D01*
X144752624Y-96769138D01*
X144752622Y-96769137D01*
X144618712Y-96713671D01*
X144618710Y-96713670D01*
X144618709Y-96713670D01*
X144546854Y-96704210D01*
X144475001Y-96694750D01*
X144474999Y-96694750D01*
X144331291Y-96713670D01*
X144331287Y-96713671D01*
X144197377Y-96769137D01*
X144082379Y-96857379D01*
X143994137Y-96972377D01*
X143938671Y-97106287D01*
X143938670Y-97106291D01*
X143919750Y-97249999D01*
X130500500Y-97249999D01*
X130500500Y-94199999D01*
X143869750Y-94199999D01*
X143869750Y-94200000D01*
X143888670Y-94343708D01*
X143888671Y-94343712D01*
X143944137Y-94477622D01*
X143944138Y-94477624D01*
X143944139Y-94477625D01*
X144032379Y-94592621D01*
X144147375Y-94680861D01*
X144281291Y-94736330D01*
X144408280Y-94753048D01*
X144424999Y-94755250D01*
X144425000Y-94755250D01*
X144425001Y-94755250D01*
X144439977Y-94753278D01*
X144568709Y-94736330D01*
X144702625Y-94680861D01*
X144817621Y-94592621D01*
X144905861Y-94477625D01*
X144961330Y-94343709D01*
X144980250Y-94200000D01*
X144961330Y-94056291D01*
X144905861Y-93922375D01*
X144817621Y-93807379D01*
X144702625Y-93719139D01*
X144702624Y-93719138D01*
X144702622Y-93719137D01*
X144568712Y-93663671D01*
X144568710Y-93663670D01*
X144568709Y-93663670D01*
X144496854Y-93654210D01*
X144425001Y-93644750D01*
X144424999Y-93644750D01*
X144281291Y-93663670D01*
X144281287Y-93663671D01*
X144147377Y-93719137D01*
X144032379Y-93807379D01*
X143944137Y-93922377D01*
X143888671Y-94056287D01*
X143888670Y-94056291D01*
X143869750Y-94199999D01*
X130500500Y-94199999D01*
X130500500Y-91574999D01*
X143869750Y-91574999D01*
X143869750Y-91575000D01*
X143888670Y-91718708D01*
X143888671Y-91718712D01*
X143944137Y-91852622D01*
X143944138Y-91852624D01*
X143944139Y-91852625D01*
X144032379Y-91967621D01*
X144147375Y-92055861D01*
X144281291Y-92111330D01*
X144408280Y-92128048D01*
X144424999Y-92130250D01*
X144425000Y-92130250D01*
X144425001Y-92130250D01*
X144439977Y-92128278D01*
X144568709Y-92111330D01*
X144702625Y-92055861D01*
X144817621Y-91967621D01*
X144905861Y-91852625D01*
X144961330Y-91718709D01*
X144980250Y-91575000D01*
X144965109Y-91459997D01*
X146014500Y-91459997D01*
X146014500Y-93150005D01*
X146033948Y-93247774D01*
X146033950Y-93247779D01*
X146042736Y-93268990D01*
X146042737Y-93268991D01*
X146098119Y-93351877D01*
X146181009Y-93407263D01*
X146181010Y-93407263D01*
X146181011Y-93407264D01*
X146198163Y-93414369D01*
X146200716Y-93415534D01*
X146202219Y-93416049D01*
X146202222Y-93416050D01*
X146202224Y-93416051D01*
X146202227Y-93416051D01*
X146210073Y-93418739D01*
X146209469Y-93420501D01*
X146262094Y-93448023D01*
X146296674Y-93508736D01*
X146300000Y-93537263D01*
X146300000Y-94462736D01*
X146280315Y-94529775D01*
X146227511Y-94575530D01*
X146207951Y-94581847D01*
X146208053Y-94582181D01*
X146202220Y-94583950D01*
X146181009Y-94592736D01*
X146098122Y-94648119D01*
X146042737Y-94731008D01*
X146035629Y-94748168D01*
X146034465Y-94750716D01*
X146033949Y-94752224D01*
X146014500Y-94849997D01*
X146014500Y-96540005D01*
X146033948Y-96637774D01*
X146033950Y-96637778D01*
X146041055Y-96654932D01*
X146044123Y-96663152D01*
X146045356Y-96666849D01*
X146044311Y-96667197D01*
X146053131Y-96698588D01*
X146060454Y-96777626D01*
X146069121Y-96823990D01*
X146069122Y-96823992D01*
X146127951Y-97030754D01*
X146144984Y-97074722D01*
X146240809Y-97267165D01*
X146240814Y-97267172D01*
X146265628Y-97307249D01*
X146395187Y-97478813D01*
X146426947Y-97513651D01*
X146585815Y-97658479D01*
X146585818Y-97658481D01*
X146585820Y-97658483D01*
X146623446Y-97686896D01*
X146644610Y-97700000D01*
X146806225Y-97800068D01*
X146848424Y-97821082D01*
X146848429Y-97821084D01*
X146848431Y-97821085D01*
X147048894Y-97898745D01*
X147094243Y-97911648D01*
X147305562Y-97951150D01*
X147313519Y-97951887D01*
X147349542Y-97960798D01*
X147358174Y-97964373D01*
X147360721Y-97965536D01*
X147362212Y-97966046D01*
X147362222Y-97966050D01*
X147362224Y-97966051D01*
X147423456Y-97978231D01*
X147459997Y-97985500D01*
X147460000Y-97985500D01*
X149150005Y-97985500D01*
X149247774Y-97966051D01*
X149247775Y-97966050D01*
X149247778Y-97966050D01*
X149268991Y-97957263D01*
X149351877Y-97901881D01*
X149407263Y-97818991D01*
X149414375Y-97801821D01*
X149415535Y-97799279D01*
X149416044Y-97797792D01*
X149416050Y-97797778D01*
X149416051Y-97797776D01*
X149435499Y-97700005D01*
X149435500Y-97700002D01*
X149435500Y-95794000D01*
X149455185Y-95726961D01*
X149507989Y-95681206D01*
X149559500Y-95670000D01*
X150440500Y-95670000D01*
X150507539Y-95689685D01*
X150553294Y-95742489D01*
X150564500Y-95794000D01*
X150564500Y-97700005D01*
X150583948Y-97797774D01*
X150583950Y-97797779D01*
X150592736Y-97818990D01*
X150592737Y-97818991D01*
X150648119Y-97901877D01*
X150731009Y-97957263D01*
X150731010Y-97957263D01*
X150731011Y-97957264D01*
X150748163Y-97964369D01*
X150750716Y-97965534D01*
X150752212Y-97966046D01*
X150752222Y-97966050D01*
X150752224Y-97966051D01*
X150813456Y-97978231D01*
X150849997Y-97985500D01*
X150850000Y-97985500D01*
X152540005Y-97985500D01*
X152637774Y-97966051D01*
X152637775Y-97966050D01*
X152637778Y-97966050D01*
X152650452Y-97960799D01*
X152686469Y-97951888D01*
X152694438Y-97951150D01*
X152905757Y-97911648D01*
X152951106Y-97898745D01*
X153151569Y-97821085D01*
X153193775Y-97800068D01*
X153376554Y-97686896D01*
X153414180Y-97658483D01*
X153573052Y-97513652D01*
X153592752Y-97492041D01*
X153604812Y-97478813D01*
X153604816Y-97478808D01*
X153734370Y-97307251D01*
X153759191Y-97267164D01*
X153855016Y-97074722D01*
X153872048Y-97030757D01*
X153930880Y-96823984D01*
X153939544Y-96777637D01*
X153941245Y-96759270D01*
X153946868Y-96698588D01*
X153955779Y-96662572D01*
X153957261Y-96658993D01*
X153957263Y-96658991D01*
X153964374Y-96641823D01*
X153965535Y-96639279D01*
X153966044Y-96637792D01*
X153966050Y-96637778D01*
X153966051Y-96637776D01*
X153985499Y-96540005D01*
X153985500Y-96540002D01*
X153985500Y-96099999D01*
X154744750Y-96099999D01*
X154744750Y-96100000D01*
X154763670Y-96243708D01*
X154763671Y-96243712D01*
X154819137Y-96377622D01*
X154819138Y-96377624D01*
X154819139Y-96377625D01*
X154907379Y-96492621D01*
X155022375Y-96580861D01*
X155156291Y-96636330D01*
X155283280Y-96653048D01*
X155299999Y-96655250D01*
X155300000Y-96655250D01*
X155300001Y-96655250D01*
X155314977Y-96653278D01*
X155443709Y-96636330D01*
X155577625Y-96580861D01*
X155692621Y-96492621D01*
X155780861Y-96377625D01*
X155836330Y-96243709D01*
X155855250Y-96100000D01*
X155836330Y-95956291D01*
X155780861Y-95822375D01*
X155692621Y-95707379D01*
X155577625Y-95619139D01*
X155577624Y-95619138D01*
X155577622Y-95619137D01*
X155443712Y-95563671D01*
X155443710Y-95563670D01*
X155443709Y-95563670D01*
X155371854Y-95554210D01*
X155300001Y-95544750D01*
X155299999Y-95544750D01*
X155156291Y-95563670D01*
X155156287Y-95563671D01*
X155022377Y-95619137D01*
X154907379Y-95707379D01*
X154819137Y-95822377D01*
X154763671Y-95956287D01*
X154763670Y-95956291D01*
X154744750Y-96099999D01*
X153985500Y-96099999D01*
X153985500Y-94849994D01*
X153966051Y-94752225D01*
X153966049Y-94752220D01*
X153957263Y-94731009D01*
X153923756Y-94680862D01*
X153901881Y-94648123D01*
X153901875Y-94648119D01*
X153815109Y-94590143D01*
X153770304Y-94536531D01*
X153760000Y-94487041D01*
X153760000Y-94000000D01*
X154744750Y-94000000D01*
X154752160Y-94056287D01*
X154763670Y-94143708D01*
X154763671Y-94143712D01*
X154819137Y-94277622D01*
X154819138Y-94277624D01*
X154819139Y-94277625D01*
X154907379Y-94392621D01*
X155022375Y-94480861D01*
X155156291Y-94536330D01*
X155283280Y-94553048D01*
X155299999Y-94555250D01*
X155300000Y-94555250D01*
X155300001Y-94555250D01*
X155314977Y-94553278D01*
X155443709Y-94536330D01*
X155577625Y-94480861D01*
X155692621Y-94392621D01*
X155780861Y-94277625D01*
X155836330Y-94143709D01*
X155855250Y-94000000D01*
X155836330Y-93856291D01*
X155780861Y-93722375D01*
X155692621Y-93607379D01*
X155577625Y-93519139D01*
X155577624Y-93519138D01*
X155577622Y-93519137D01*
X155443712Y-93463671D01*
X155443710Y-93463670D01*
X155443709Y-93463670D01*
X155371854Y-93454210D01*
X155300001Y-93444750D01*
X155299999Y-93444750D01*
X155156291Y-93463670D01*
X155156287Y-93463671D01*
X155022377Y-93519137D01*
X154907379Y-93607379D01*
X154819137Y-93722377D01*
X154763671Y-93856287D01*
X154763670Y-93856291D01*
X154744750Y-94000000D01*
X153760000Y-94000000D01*
X153760000Y-93508462D01*
X153779685Y-93441423D01*
X153825549Y-93399102D01*
X153828979Y-93397267D01*
X153828991Y-93397263D01*
X153911877Y-93341881D01*
X153967263Y-93258991D01*
X153974375Y-93241821D01*
X153975535Y-93239279D01*
X153976044Y-93237792D01*
X153976050Y-93237778D01*
X153976051Y-93237776D01*
X153995500Y-93140000D01*
X153995500Y-92199999D01*
X154744750Y-92199999D01*
X154744750Y-92200000D01*
X154763670Y-92343708D01*
X154763671Y-92343712D01*
X154819137Y-92477622D01*
X154819138Y-92477624D01*
X154819139Y-92477625D01*
X154907379Y-92592621D01*
X155022375Y-92680861D01*
X155156291Y-92736330D01*
X155283280Y-92753048D01*
X155299999Y-92755250D01*
X155300000Y-92755250D01*
X155300001Y-92755250D01*
X155314977Y-92753278D01*
X155443709Y-92736330D01*
X155577625Y-92680861D01*
X155692621Y-92592621D01*
X155780861Y-92477625D01*
X155836330Y-92343709D01*
X155855250Y-92200000D01*
X155836330Y-92056291D01*
X155780861Y-91922375D01*
X155692621Y-91807379D01*
X155577625Y-91719139D01*
X155577624Y-91719138D01*
X155577622Y-91719137D01*
X155443712Y-91663671D01*
X155443710Y-91663670D01*
X155443709Y-91663670D01*
X155371854Y-91654210D01*
X155300001Y-91644750D01*
X155299999Y-91644750D01*
X155156291Y-91663670D01*
X155156287Y-91663671D01*
X155022377Y-91719137D01*
X154907379Y-91807379D01*
X154819137Y-91922377D01*
X154763671Y-92056287D01*
X154763670Y-92056291D01*
X154744750Y-92199999D01*
X153995500Y-92199999D01*
X153995500Y-91449997D01*
X153995500Y-91449994D01*
X153976051Y-91352225D01*
X153976050Y-91352223D01*
X153971405Y-91341009D01*
X153970798Y-91339542D01*
X153961887Y-91303519D01*
X153961150Y-91295562D01*
X153921648Y-91084243D01*
X153908745Y-91038894D01*
X153831085Y-90838431D01*
X153810068Y-90796225D01*
X153696896Y-90613446D01*
X153668483Y-90575820D01*
X153668481Y-90575818D01*
X153668479Y-90575815D01*
X153523651Y-90416947D01*
X153488813Y-90385187D01*
X153317249Y-90255628D01*
X153277172Y-90230814D01*
X153277165Y-90230809D01*
X153084722Y-90134984D01*
X153040754Y-90117951D01*
X152833992Y-90059122D01*
X152833990Y-90059121D01*
X152787627Y-90050454D01*
X152708583Y-90043130D01*
X152672571Y-90034220D01*
X152668988Y-90032736D01*
X152651834Y-90025630D01*
X152649282Y-90024465D01*
X152647778Y-90023950D01*
X152647776Y-90023949D01*
X152600273Y-90014500D01*
X152550002Y-90004500D01*
X152550000Y-90004500D01*
X150859997Y-90004500D01*
X150859995Y-90004500D01*
X150762225Y-90023948D01*
X150762220Y-90023950D01*
X150741009Y-90032736D01*
X150658122Y-90088119D01*
X150602737Y-90171008D01*
X150595629Y-90188168D01*
X150594465Y-90190716D01*
X150593949Y-90192222D01*
X150592364Y-90200194D01*
X150559978Y-90262104D01*
X150499261Y-90296677D01*
X150470747Y-90300000D01*
X149537264Y-90300000D01*
X149470225Y-90280315D01*
X149424470Y-90227511D01*
X149418152Y-90207951D01*
X149417819Y-90208053D01*
X149416049Y-90202220D01*
X149411908Y-90192224D01*
X149407263Y-90181009D01*
X149351881Y-90098123D01*
X149349618Y-90096611D01*
X149268988Y-90042735D01*
X149251833Y-90035629D01*
X149249286Y-90034466D01*
X149247778Y-90033950D01*
X149247776Y-90033949D01*
X149205959Y-90025631D01*
X149150002Y-90014500D01*
X149150000Y-90014500D01*
X147459997Y-90014500D01*
X147459995Y-90014500D01*
X147362225Y-90033948D01*
X147362216Y-90033951D01*
X147349540Y-90039202D01*
X147313535Y-90048111D01*
X147305567Y-90048849D01*
X147281335Y-90053378D01*
X147094243Y-90088352D01*
X147094237Y-90088353D01*
X147094235Y-90088354D01*
X147048910Y-90101250D01*
X147048898Y-90101253D01*
X147048894Y-90101255D01*
X147048891Y-90101256D01*
X147048876Y-90101261D01*
X146848436Y-90178912D01*
X146848424Y-90178917D01*
X146806225Y-90199931D01*
X146623445Y-90313104D01*
X146585823Y-90341514D01*
X146585815Y-90341520D01*
X146426947Y-90486348D01*
X146395187Y-90521186D01*
X146265628Y-90692750D01*
X146240814Y-90732827D01*
X146240809Y-90732834D01*
X146144984Y-90925277D01*
X146127951Y-90969245D01*
X146069122Y-91176007D01*
X146069121Y-91176009D01*
X146060454Y-91222373D01*
X146053131Y-91301413D01*
X146044219Y-91337430D01*
X146035628Y-91358168D01*
X146034467Y-91360712D01*
X146033949Y-91362224D01*
X146014500Y-91459997D01*
X144965109Y-91459997D01*
X144961330Y-91431291D01*
X144905861Y-91297375D01*
X144817621Y-91182379D01*
X144702625Y-91094139D01*
X144702624Y-91094138D01*
X144702622Y-91094137D01*
X144568712Y-91038671D01*
X144568710Y-91038670D01*
X144568709Y-91038670D01*
X144496854Y-91029210D01*
X144425001Y-91019750D01*
X144424999Y-91019750D01*
X144281291Y-91038670D01*
X144281287Y-91038671D01*
X144147377Y-91094137D01*
X144032379Y-91182379D01*
X143944137Y-91297377D01*
X143888671Y-91431287D01*
X143888670Y-91431291D01*
X143869750Y-91574999D01*
X130500500Y-91574999D01*
X130500500Y-90004427D01*
X130500816Y-89995581D01*
X130505213Y-89934108D01*
X130507410Y-89903388D01*
X138522500Y-89903388D01*
X138522500Y-90096611D01*
X138552725Y-90287441D01*
X138612429Y-90471194D01*
X138684910Y-90613445D01*
X138700148Y-90643350D01*
X138813715Y-90799663D01*
X138950337Y-90936285D01*
X139106650Y-91049852D01*
X139278805Y-91137570D01*
X139370681Y-91167422D01*
X139462560Y-91197275D01*
X139550943Y-91211273D01*
X139653389Y-91227500D01*
X139653394Y-91227500D01*
X139846611Y-91227500D01*
X139939123Y-91212846D01*
X140037440Y-91197275D01*
X140221197Y-91137569D01*
X140393350Y-91049852D01*
X140549663Y-90936285D01*
X140686285Y-90799663D01*
X140799852Y-90643350D01*
X140887569Y-90471197D01*
X140947275Y-90287440D01*
X140971422Y-90134984D01*
X140977500Y-90096611D01*
X140977500Y-89903388D01*
X159522500Y-89903388D01*
X159522500Y-90096611D01*
X159552725Y-90287441D01*
X159612429Y-90471194D01*
X159684910Y-90613445D01*
X159700148Y-90643350D01*
X159813715Y-90799663D01*
X159950337Y-90936285D01*
X160106650Y-91049852D01*
X160278805Y-91137570D01*
X160370681Y-91167422D01*
X160462560Y-91197275D01*
X160550943Y-91211273D01*
X160653389Y-91227500D01*
X160653394Y-91227500D01*
X160846611Y-91227500D01*
X160939123Y-91212846D01*
X161037440Y-91197275D01*
X161221197Y-91137569D01*
X161393350Y-91049852D01*
X161549663Y-90936285D01*
X161686285Y-90799663D01*
X161799852Y-90643350D01*
X161887569Y-90471197D01*
X161947275Y-90287440D01*
X161971422Y-90134984D01*
X161977500Y-90096611D01*
X161977500Y-89903388D01*
X161957629Y-89777931D01*
X161947275Y-89712560D01*
X161903405Y-89577542D01*
X161887570Y-89528805D01*
X161799852Y-89356650D01*
X161686284Y-89200336D01*
X161549663Y-89063715D01*
X161393349Y-88950147D01*
X161221194Y-88862429D01*
X161037441Y-88802725D01*
X160846611Y-88772500D01*
X160846606Y-88772500D01*
X160653394Y-88772500D01*
X160653389Y-88772500D01*
X160462558Y-88802725D01*
X160278805Y-88862429D01*
X160106650Y-88950147D01*
X159950336Y-89063715D01*
X159813715Y-89200336D01*
X159700147Y-89356650D01*
X159612429Y-89528805D01*
X159552725Y-89712558D01*
X159522500Y-89903388D01*
X140977500Y-89903388D01*
X140957629Y-89777931D01*
X140947275Y-89712560D01*
X140903405Y-89577542D01*
X140887570Y-89528805D01*
X140799852Y-89356650D01*
X140686284Y-89200336D01*
X140549663Y-89063715D01*
X140393349Y-88950147D01*
X140221194Y-88862429D01*
X140037441Y-88802725D01*
X139846611Y-88772500D01*
X139846606Y-88772500D01*
X139653394Y-88772500D01*
X139653389Y-88772500D01*
X139462558Y-88802725D01*
X139278805Y-88862429D01*
X139106650Y-88950147D01*
X138950336Y-89063715D01*
X138813715Y-89200336D01*
X138700147Y-89356650D01*
X138612429Y-89528805D01*
X138552725Y-89712558D01*
X138522500Y-89903388D01*
X130507410Y-89903388D01*
X130515130Y-89795436D01*
X130517646Y-89777938D01*
X130559356Y-89586199D01*
X130564333Y-89569248D01*
X130632911Y-89385385D01*
X130640259Y-89369298D01*
X130732518Y-89200337D01*
X130734291Y-89197089D01*
X130743845Y-89182221D01*
X130861448Y-89025123D01*
X130873020Y-89011769D01*
X131011769Y-88873020D01*
X131025123Y-88861448D01*
X131182221Y-88743845D01*
X131197089Y-88734291D01*
X131369298Y-88640258D01*
X131385385Y-88632911D01*
X131569248Y-88564333D01*
X131586199Y-88559356D01*
X131777938Y-88517646D01*
X131795436Y-88515130D01*
X131995582Y-88500816D01*
X132004428Y-88500500D01*
X132065892Y-88500500D01*
X167934108Y-88500500D01*
X167995572Y-88500500D01*
X168004418Y-88500816D01*
G37*
%TD.AperFunction*%
%TD*%
%TA.AperFunction,Conductor*%
%TO.N,/connector/V_POC*%
G36*
X165989486Y-112044685D02*
G01*
X166035241Y-112097489D01*
X166046447Y-112149000D01*
X166046447Y-113539771D01*
X166026762Y-113606810D01*
X166010129Y-113627451D01*
X165973901Y-113663680D01*
X165912579Y-113697166D01*
X165886219Y-113700000D01*
X165311910Y-113700000D01*
X165281459Y-113696203D01*
X164663964Y-113539771D01*
X163421447Y-113225000D01*
X163421446Y-113225000D01*
X160671448Y-113225000D01*
X160671447Y-113225000D01*
X159428930Y-113539771D01*
X158811435Y-113696203D01*
X158780984Y-113700000D01*
X158170447Y-113700000D01*
X158103408Y-113680315D01*
X158057653Y-113627511D01*
X158046447Y-113576000D01*
X158046447Y-112149000D01*
X158066132Y-112081961D01*
X158118936Y-112036206D01*
X158170447Y-112025000D01*
X165922447Y-112025000D01*
X165989486Y-112044685D01*
G37*
%TD.AperFunction*%
%TD*%
M02*
