%TF.GenerationSoftware,KiCad,Pcbnew,8.0.5*%
%TF.CreationDate,2025-03-05T13:38:36-05:00*%
%TF.ProjectId,minimax,6d696e69-6d61-4782-9e6b-696361645f70,rev?*%
%TF.SameCoordinates,Original*%
%TF.FileFunction,Copper,L2,Inr*%
%TF.FilePolarity,Positive*%
%FSLAX46Y46*%
G04 Gerber Fmt 4.6, Leading zero omitted, Abs format (unit mm)*
G04 Created by KiCad (PCBNEW 8.0.5) date 2025-03-05 13:38:36*
%MOMM*%
%LPD*%
G01*
G04 APERTURE LIST*
G04 Aperture macros list*
%AMFreePoly0*
4,1,25,1.707678,1.177678,1.715000,1.160000,1.715000,-0.940000,1.707678,-0.957678,0.957678,-1.707678,0.940000,-1.715000,-1.160000,-1.715000,-1.177678,-1.707678,-1.185000,-1.690000,-1.185000,0.000000,-1.177678,0.017678,-1.156389,0.038966,-1.140249,0.213149,-1.081668,0.419040,-0.986252,0.610661,-0.857250,0.781487,-0.699056,0.925700,-0.517056,1.038389,-0.317449,1.115718,-0.107031,1.155052,
-0.040304,1.155052,-0.017678,1.177678,0.000000,1.185000,1.690000,1.185000,1.707678,1.177678,1.707678,1.177678,$1*%
%AMFreePoly1*
4,1,25,0.017678,1.177678,0.040304,1.155052,0.107031,1.155052,0.317449,1.115718,0.517056,1.038389,0.699056,0.925700,0.857250,0.781487,0.986252,0.610661,1.081668,0.419040,1.140249,0.213149,1.156389,0.038966,1.177678,0.017678,1.185000,0.000000,1.185000,-1.690000,1.177678,-1.707678,1.160000,-1.715000,-0.940000,-1.715000,-0.957678,-1.707678,-1.707678,-0.957678,-1.715000,-0.940000,
-1.715000,1.160000,-1.707678,1.177678,-1.690000,1.185000,0.000000,1.185000,0.017678,1.177678,0.017678,1.177678,$1*%
%AMFreePoly2*
4,1,25,1.177678,1.707678,1.185000,1.690000,1.185000,0.000000,1.177678,-0.017678,1.156389,-0.038966,1.140249,-0.213149,1.081668,-0.419040,0.986252,-0.610661,0.857250,-0.781487,0.699056,-0.925700,0.517056,-1.038389,0.317449,-1.115718,0.107031,-1.155052,0.040304,-1.155052,0.017678,-1.177678,0.000000,-1.185000,-1.690000,-1.185000,-1.707678,-1.177678,-1.715000,-1.160000,-1.715000,0.940000,
-1.707678,0.957678,-0.957678,1.707678,-0.940000,1.715000,1.160000,1.715000,1.177678,1.707678,1.177678,1.707678,$1*%
G04 Aperture macros list end*
%TA.AperFunction,ComponentPad*%
%ADD10C,1.000000*%
%TD*%
%TA.AperFunction,ComponentPad*%
%ADD11FreePoly0,180.000000*%
%TD*%
%TA.AperFunction,ComponentPad*%
%ADD12FreePoly1,180.000000*%
%TD*%
%TA.AperFunction,ComponentPad*%
%ADD13FreePoly2,90.000000*%
%TD*%
%TA.AperFunction,ComponentPad*%
%ADD14FreePoly2,180.000000*%
%TD*%
%TA.AperFunction,ViaPad*%
%ADD15C,0.600000*%
%TD*%
%TA.AperFunction,Conductor*%
%ADD16C,0.155200*%
%TD*%
G04 APERTURE END LIST*
D10*
%TO.N,Net-(U1-MFP8)*%
%TO.C,TP1*%
X132000000Y-126000000D03*
%TD*%
%TO.N,Net-(U1-MFP7)*%
%TO.C,TP2*%
X132000000Y-123500000D03*
%TD*%
D11*
%TO.N,GND*%
%TO.C,J2*%
X152540000Y-96540000D03*
D12*
X147460000Y-96540000D03*
D13*
X152550000Y-91450000D03*
D14*
X147460000Y-91460000D03*
%TD*%
D10*
%TO.N,Net-(U1-MFP6)*%
%TO.C,TP3*%
X132000000Y-121000000D03*
%TD*%
D15*
%TO.N,VDDIO*%
X156300000Y-116900000D03*
X165300000Y-124200000D03*
X165300000Y-121000000D03*
X141300000Y-109225000D03*
X168300000Y-101300000D03*
%TO.N,+3V3*%
X168400000Y-99500000D03*
X133412500Y-104525000D03*
X166146447Y-106400000D03*
X162546447Y-117350000D03*
X155200000Y-123750000D03*
X133550000Y-114600000D03*
X161546447Y-117350000D03*
X135200000Y-98600000D03*
X162500000Y-98600000D03*
X141600000Y-98500000D03*
X165171447Y-106400000D03*
%TO.N,MFP1_CFG0*%
X163500000Y-124000000D03*
X155250000Y-113100000D03*
%TO.N,MFP2_CFG1*%
X155225000Y-112050000D03*
X163500000Y-120800000D03*
%TO.N,/camera/MIPI.CSI_D2_N*%
X149635240Y-124520000D03*
X147485230Y-116940000D03*
%TO.N,GND*%
X149738900Y-111550000D03*
X137925000Y-118550000D03*
X144475000Y-97250000D03*
X136025000Y-99975000D03*
X147050000Y-124400000D03*
X162521447Y-110650000D03*
X148900000Y-104250000D03*
X162046447Y-114650000D03*
X137300000Y-124600000D03*
X157875000Y-126725000D03*
X162521447Y-107150000D03*
X148751286Y-113537614D03*
X154100000Y-124700000D03*
X142175000Y-100250000D03*
X150738900Y-111550000D03*
X144425000Y-91575000D03*
X139500000Y-125125000D03*
X158400000Y-99725000D03*
X162046447Y-107875000D03*
X150738900Y-112550000D03*
X140397879Y-116337024D03*
X148690000Y-119760000D03*
X162850000Y-114650000D03*
X167000000Y-123900000D03*
X131825000Y-103925000D03*
X148500000Y-124100000D03*
X162050000Y-113850000D03*
X155300000Y-96100000D03*
X148738900Y-112550000D03*
X149738900Y-112550000D03*
X161571447Y-109200000D03*
X162521447Y-109200000D03*
X162021447Y-111400000D03*
X149738900Y-113550000D03*
X131850000Y-105775000D03*
X131675000Y-113900000D03*
X144425000Y-94200000D03*
X167125000Y-126850000D03*
X151020000Y-123720000D03*
X155300000Y-92200000D03*
X142500000Y-121300000D03*
X161571447Y-107150000D03*
X162850000Y-100000000D03*
X137700000Y-122000000D03*
X155300000Y-94000000D03*
X161571447Y-110650000D03*
X161250000Y-114650000D03*
X150270000Y-121110000D03*
X162046447Y-109925000D03*
X150738900Y-113550000D03*
X147000000Y-118020000D03*
X145500000Y-124350000D03*
X162050000Y-115425000D03*
X159675000Y-122225000D03*
X148738900Y-111550000D03*
X164873224Y-116050000D03*
X131850000Y-116000000D03*
%TO.N,/camera/MIPI.CSI_D2_P*%
X148214770Y-116940000D03*
X150364780Y-124520000D03*
%TO.N,/camera/MFP9_SDA*%
X155850000Y-120050000D03*
X136850000Y-105500000D03*
X139150000Y-113500000D03*
X154650000Y-111050000D03*
%TO.N,/camera/MFP10_SCL*%
X154800000Y-119200000D03*
X136850000Y-106500000D03*
X153700000Y-111000000D03*
X138900000Y-114550000D03*
%TO.N,/connector/V_POC*%
X158421447Y-113375000D03*
X158421447Y-112400000D03*
X156100000Y-103700000D03*
X165671447Y-112400000D03*
X156100000Y-101900000D03*
X165671447Y-113375000D03*
X157000000Y-102800000D03*
X156100000Y-102800000D03*
X157000000Y-103700000D03*
X157000000Y-101900000D03*
%TO.N,/camera/LED_EN*%
X153500000Y-120300000D03*
X145325000Y-112950000D03*
%TO.N,/camera/POWER_EN*%
X153650000Y-114350000D03*
X153050000Y-123800000D03*
%TO.N,+1V2*%
X160696447Y-118000000D03*
X144575000Y-108300000D03*
%TO.N,+1V8*%
X164700000Y-99600000D03*
X159796447Y-116100000D03*
X157946447Y-106400000D03*
X158946447Y-106400000D03*
%TO.N,Net-(U1-MFP8)*%
X157900000Y-121600000D03*
%TO.N,/gmsl/LOCK*%
X144100000Y-110300000D03*
X132900000Y-99700000D03*
%TO.N,/gmsl/ERRB*%
X144300000Y-111500000D03*
X139400000Y-99600000D03*
%TO.N,Net-(Q3-G)*%
X160200000Y-99000000D03*
X159146447Y-115300000D03*
X167623224Y-117200000D03*
%TO.N,Net-(U1-MFP7)*%
X156900000Y-121600000D03*
%TO.N,Net-(U1-MFP6)*%
X145200000Y-114075000D03*
%TD*%
D16*
%TO.N,/camera/MIPI.CSI_D2_N*%
X149847609Y-124053137D02*
X147697599Y-121903127D01*
X147697599Y-117152369D02*
X147485230Y-116940000D01*
X149847609Y-124307631D02*
X149847609Y-124053137D01*
X149635240Y-124520000D02*
X149847609Y-124307631D01*
X147697599Y-121903127D02*
X147697599Y-117152369D01*
%TO.N,/camera/MIPI.CSI_D2_P*%
X148002401Y-121776873D02*
X148002401Y-117152369D01*
X150152411Y-123926883D02*
X148002401Y-121776873D01*
X150364780Y-124520000D02*
X150152411Y-124307631D01*
X150152411Y-124307631D02*
X150152411Y-123926883D01*
X148002401Y-117152369D02*
X148214770Y-116940000D01*
%TD*%
%TA.AperFunction,Conductor*%
%TO.N,GND*%
G36*
X168004418Y-88500816D02*
G01*
X168204561Y-88515130D01*
X168222063Y-88517647D01*
X168413797Y-88559355D01*
X168430755Y-88564334D01*
X168614609Y-88632909D01*
X168630701Y-88640259D01*
X168802904Y-88734288D01*
X168817784Y-88743849D01*
X168896432Y-88802725D01*
X168974867Y-88861441D01*
X168988237Y-88873027D01*
X169126972Y-89011762D01*
X169138558Y-89025132D01*
X169256146Y-89182210D01*
X169265711Y-89197095D01*
X169359740Y-89369298D01*
X169367090Y-89385390D01*
X169435662Y-89569236D01*
X169440646Y-89586212D01*
X169482351Y-89777931D01*
X169484869Y-89795442D01*
X169499184Y-89995580D01*
X169499500Y-90004427D01*
X169499500Y-125995572D01*
X169499184Y-126004419D01*
X169484869Y-126204557D01*
X169482351Y-126222068D01*
X169440646Y-126413787D01*
X169435662Y-126430763D01*
X169367090Y-126614609D01*
X169359740Y-126630701D01*
X169265711Y-126802904D01*
X169256146Y-126817789D01*
X169138558Y-126974867D01*
X169126972Y-126988237D01*
X168988237Y-127126972D01*
X168974867Y-127138558D01*
X168817789Y-127256146D01*
X168802904Y-127265711D01*
X168630701Y-127359740D01*
X168614609Y-127367090D01*
X168430763Y-127435662D01*
X168413787Y-127440646D01*
X168222068Y-127482351D01*
X168204557Y-127484869D01*
X168023779Y-127497799D01*
X168004417Y-127499184D01*
X167995572Y-127499500D01*
X132004428Y-127499500D01*
X131995582Y-127499184D01*
X131973622Y-127497613D01*
X131795442Y-127484869D01*
X131777931Y-127482351D01*
X131586212Y-127440646D01*
X131569236Y-127435662D01*
X131385390Y-127367090D01*
X131369298Y-127359740D01*
X131197095Y-127265711D01*
X131182210Y-127256146D01*
X131025132Y-127138558D01*
X131011762Y-127126972D01*
X130873027Y-126988237D01*
X130861441Y-126974867D01*
X130743849Y-126817784D01*
X130734288Y-126802904D01*
X130640259Y-126630701D01*
X130632909Y-126614609D01*
X130572091Y-126451551D01*
X130564334Y-126430755D01*
X130559355Y-126413797D01*
X130517647Y-126222063D01*
X130515130Y-126204556D01*
X130512519Y-126168056D01*
X130500816Y-126004418D01*
X130500658Y-125999997D01*
X131244751Y-125999997D01*
X131244751Y-126000002D01*
X131263685Y-126168056D01*
X131319545Y-126327694D01*
X131319547Y-126327697D01*
X131409518Y-126470884D01*
X131409523Y-126470890D01*
X131529109Y-126590476D01*
X131529115Y-126590481D01*
X131672302Y-126680452D01*
X131672305Y-126680454D01*
X131672309Y-126680455D01*
X131672310Y-126680456D01*
X131744913Y-126705860D01*
X131831943Y-126736314D01*
X131999997Y-126755249D01*
X132000000Y-126755249D01*
X132000003Y-126755249D01*
X132168056Y-126736314D01*
X132168059Y-126736313D01*
X132327690Y-126680456D01*
X132327692Y-126680454D01*
X132327694Y-126680454D01*
X132327697Y-126680452D01*
X132470884Y-126590481D01*
X132470885Y-126590480D01*
X132470890Y-126590477D01*
X132590477Y-126470890D01*
X132620909Y-126422458D01*
X132680452Y-126327697D01*
X132680454Y-126327694D01*
X132680454Y-126327692D01*
X132680456Y-126327690D01*
X132736313Y-126168059D01*
X132736313Y-126168058D01*
X132736314Y-126168056D01*
X132755249Y-126000002D01*
X132755249Y-125999997D01*
X132736314Y-125831943D01*
X132680454Y-125672305D01*
X132680452Y-125672302D01*
X132590481Y-125529115D01*
X132590476Y-125529109D01*
X132470890Y-125409523D01*
X132470884Y-125409518D01*
X132327697Y-125319547D01*
X132327694Y-125319545D01*
X132168056Y-125263685D01*
X132000003Y-125244751D01*
X131999997Y-125244751D01*
X131831943Y-125263685D01*
X131672305Y-125319545D01*
X131672302Y-125319547D01*
X131529115Y-125409518D01*
X131529109Y-125409523D01*
X131409523Y-125529109D01*
X131409518Y-125529115D01*
X131319547Y-125672302D01*
X131319545Y-125672305D01*
X131263685Y-125831943D01*
X131244751Y-125999997D01*
X130500658Y-125999997D01*
X130500500Y-125995572D01*
X130500500Y-123499997D01*
X131244751Y-123499997D01*
X131244751Y-123500002D01*
X131263685Y-123668056D01*
X131319545Y-123827694D01*
X131319547Y-123827697D01*
X131409518Y-123970884D01*
X131409523Y-123970890D01*
X131529109Y-124090476D01*
X131529115Y-124090481D01*
X131672302Y-124180452D01*
X131672305Y-124180454D01*
X131672309Y-124180455D01*
X131672310Y-124180456D01*
X131707073Y-124192620D01*
X131831943Y-124236314D01*
X131999997Y-124255249D01*
X132000000Y-124255249D01*
X132000003Y-124255249D01*
X132168056Y-124236314D01*
X132183640Y-124230861D01*
X132327690Y-124180456D01*
X132327692Y-124180454D01*
X132327694Y-124180454D01*
X132327697Y-124180452D01*
X132470884Y-124090481D01*
X132470885Y-124090480D01*
X132470890Y-124090477D01*
X132590477Y-123970890D01*
X132607557Y-123943708D01*
X132680452Y-123827697D01*
X132680454Y-123827694D01*
X132680454Y-123827692D01*
X132680456Y-123827690D01*
X132736313Y-123668059D01*
X132736313Y-123668058D01*
X132736314Y-123668056D01*
X132755249Y-123500002D01*
X132755249Y-123499997D01*
X132736314Y-123331943D01*
X132680454Y-123172305D01*
X132680452Y-123172302D01*
X132590481Y-123029115D01*
X132590476Y-123029109D01*
X132470890Y-122909523D01*
X132470884Y-122909518D01*
X132327697Y-122819547D01*
X132327694Y-122819545D01*
X132168056Y-122763685D01*
X132000003Y-122744751D01*
X131999997Y-122744751D01*
X131831943Y-122763685D01*
X131672305Y-122819545D01*
X131672302Y-122819547D01*
X131529115Y-122909518D01*
X131529109Y-122909523D01*
X131409523Y-123029109D01*
X131409518Y-123029115D01*
X131319547Y-123172302D01*
X131319545Y-123172305D01*
X131263685Y-123331943D01*
X131244751Y-123499997D01*
X130500500Y-123499997D01*
X130500500Y-120999997D01*
X131244751Y-120999997D01*
X131244751Y-121000002D01*
X131263685Y-121168056D01*
X131319545Y-121327694D01*
X131319547Y-121327697D01*
X131409518Y-121470884D01*
X131409523Y-121470890D01*
X131529109Y-121590476D01*
X131529115Y-121590481D01*
X131672302Y-121680452D01*
X131672305Y-121680454D01*
X131672309Y-121680455D01*
X131672310Y-121680456D01*
X131744913Y-121705860D01*
X131831943Y-121736314D01*
X131999997Y-121755249D01*
X132000000Y-121755249D01*
X132000003Y-121755249D01*
X132168056Y-121736314D01*
X132168059Y-121736313D01*
X132327690Y-121680456D01*
X132327692Y-121680454D01*
X132327694Y-121680454D01*
X132327697Y-121680452D01*
X132470884Y-121590481D01*
X132470885Y-121590480D01*
X132470890Y-121590477D01*
X132590477Y-121470890D01*
X132639658Y-121392620D01*
X132680452Y-121327697D01*
X132680454Y-121327694D01*
X132680454Y-121327692D01*
X132680456Y-121327690D01*
X132736313Y-121168059D01*
X132736313Y-121168058D01*
X132736314Y-121168056D01*
X132755249Y-121000002D01*
X132755249Y-120999997D01*
X132736314Y-120831943D01*
X132680454Y-120672305D01*
X132680452Y-120672302D01*
X132590481Y-120529115D01*
X132590476Y-120529109D01*
X132470890Y-120409523D01*
X132470884Y-120409518D01*
X132327697Y-120319547D01*
X132327694Y-120319545D01*
X132168056Y-120263685D01*
X132000003Y-120244751D01*
X131999997Y-120244751D01*
X131831943Y-120263685D01*
X131672305Y-120319545D01*
X131672302Y-120319547D01*
X131529115Y-120409518D01*
X131529109Y-120409523D01*
X131409523Y-120529109D01*
X131409518Y-120529115D01*
X131319547Y-120672302D01*
X131319545Y-120672305D01*
X131263685Y-120831943D01*
X131244751Y-120999997D01*
X130500500Y-120999997D01*
X130500500Y-116940000D01*
X146929980Y-116940000D01*
X146939237Y-117010316D01*
X146948900Y-117083708D01*
X146948901Y-117083712D01*
X147004367Y-117217622D01*
X147004368Y-117217624D01*
X147004369Y-117217625D01*
X147092609Y-117332621D01*
X147207605Y-117420861D01*
X147207606Y-117420861D01*
X147207607Y-117420862D01*
X147292951Y-117456212D01*
X147347355Y-117500052D01*
X147369420Y-117566346D01*
X147369499Y-117570773D01*
X147369499Y-121946322D01*
X147381905Y-121992620D01*
X147391859Y-122029770D01*
X147409389Y-122060132D01*
X147435054Y-122104585D01*
X147435056Y-122104587D01*
X149264420Y-123933951D01*
X149297905Y-123995274D01*
X149292921Y-124064966D01*
X149252227Y-124120005D01*
X149242619Y-124127379D01*
X149230086Y-124143712D01*
X149154377Y-124242377D01*
X149098911Y-124376287D01*
X149098910Y-124376291D01*
X149079990Y-124519999D01*
X149079990Y-124520000D01*
X149098910Y-124663708D01*
X149098911Y-124663712D01*
X149154377Y-124797622D01*
X149154378Y-124797624D01*
X149154379Y-124797625D01*
X149242619Y-124912621D01*
X149357615Y-125000861D01*
X149491531Y-125056330D01*
X149618520Y-125073048D01*
X149635239Y-125075250D01*
X149635240Y-125075250D01*
X149635241Y-125075250D01*
X149650217Y-125073278D01*
X149778949Y-125056330D01*
X149912865Y-125000861D01*
X149924523Y-124991915D01*
X149989689Y-124966720D01*
X150058135Y-124980757D01*
X150075492Y-124991911D01*
X150087155Y-125000861D01*
X150221071Y-125056330D01*
X150348060Y-125073048D01*
X150364779Y-125075250D01*
X150364780Y-125075250D01*
X150364781Y-125075250D01*
X150379757Y-125073278D01*
X150508489Y-125056330D01*
X150642405Y-125000861D01*
X150757401Y-124912621D01*
X150845641Y-124797625D01*
X150901110Y-124663709D01*
X150920030Y-124520000D01*
X150901110Y-124376291D01*
X150845641Y-124242375D01*
X150757401Y-124127379D01*
X150642405Y-124039139D01*
X150633924Y-124035626D01*
X150557058Y-124003787D01*
X150502655Y-123959946D01*
X150480590Y-123893652D01*
X150480511Y-123889226D01*
X150480511Y-123883689D01*
X150473170Y-123856291D01*
X150458151Y-123800241D01*
X150458012Y-123800000D01*
X152494750Y-123800000D01*
X152502160Y-123856287D01*
X152513670Y-123943708D01*
X152513671Y-123943712D01*
X152569137Y-124077622D01*
X152569138Y-124077624D01*
X152569139Y-124077625D01*
X152657379Y-124192621D01*
X152772375Y-124280861D01*
X152772376Y-124280861D01*
X152772377Y-124280862D01*
X152817013Y-124299350D01*
X152906291Y-124336330D01*
X153033280Y-124353048D01*
X153049999Y-124355250D01*
X153050000Y-124355250D01*
X153050001Y-124355250D01*
X153064977Y-124353278D01*
X153193709Y-124336330D01*
X153327625Y-124280861D01*
X153442621Y-124192621D01*
X153530861Y-124077625D01*
X153586330Y-123943709D01*
X153605250Y-123800000D01*
X153598667Y-123750000D01*
X154644750Y-123750000D01*
X154663662Y-123893652D01*
X154663670Y-123893708D01*
X154663671Y-123893712D01*
X154719137Y-124027622D01*
X154719138Y-124027624D01*
X154719139Y-124027625D01*
X154807379Y-124142621D01*
X154922375Y-124230861D01*
X155056291Y-124286330D01*
X155183280Y-124303048D01*
X155199999Y-124305250D01*
X155200000Y-124305250D01*
X155200001Y-124305250D01*
X155214977Y-124303278D01*
X155343709Y-124286330D01*
X155477625Y-124230861D01*
X155592621Y-124142621D01*
X155680861Y-124027625D01*
X155692303Y-124000000D01*
X162944750Y-124000000D01*
X162952160Y-124056287D01*
X162963670Y-124143708D01*
X162963671Y-124143712D01*
X163019137Y-124277622D01*
X163019138Y-124277624D01*
X163019139Y-124277625D01*
X163107379Y-124392621D01*
X163222375Y-124480861D01*
X163356291Y-124536330D01*
X163483280Y-124553048D01*
X163499999Y-124555250D01*
X163500000Y-124555250D01*
X163500001Y-124555250D01*
X163514977Y-124553278D01*
X163643709Y-124536330D01*
X163777625Y-124480861D01*
X163892621Y-124392621D01*
X163980861Y-124277625D01*
X164013014Y-124200000D01*
X164744750Y-124200000D01*
X164762698Y-124336329D01*
X164763670Y-124343708D01*
X164763671Y-124343712D01*
X164819137Y-124477622D01*
X164819138Y-124477624D01*
X164819139Y-124477625D01*
X164907379Y-124592621D01*
X165022375Y-124680861D01*
X165156291Y-124736330D01*
X165283280Y-124753048D01*
X165299999Y-124755250D01*
X165300000Y-124755250D01*
X165300001Y-124755250D01*
X165314977Y-124753278D01*
X165443709Y-124736330D01*
X165577625Y-124680861D01*
X165692621Y-124592621D01*
X165780861Y-124477625D01*
X165836330Y-124343709D01*
X165855250Y-124200000D01*
X165836330Y-124056291D01*
X165780861Y-123922375D01*
X165692621Y-123807379D01*
X165577625Y-123719139D01*
X165577624Y-123719138D01*
X165577622Y-123719137D01*
X165443712Y-123663671D01*
X165443710Y-123663670D01*
X165443709Y-123663670D01*
X165371854Y-123654210D01*
X165300001Y-123644750D01*
X165299999Y-123644750D01*
X165156291Y-123663670D01*
X165156287Y-123663671D01*
X165022377Y-123719137D01*
X164907379Y-123807379D01*
X164819137Y-123922377D01*
X164763671Y-124056287D01*
X164763670Y-124056291D01*
X164745722Y-124192620D01*
X164744750Y-124200000D01*
X164013014Y-124200000D01*
X164036330Y-124143709D01*
X164055250Y-124000000D01*
X164036330Y-123856291D01*
X163999350Y-123767013D01*
X163980862Y-123722377D01*
X163980861Y-123722376D01*
X163980861Y-123722375D01*
X163892621Y-123607379D01*
X163777625Y-123519139D01*
X163777624Y-123519138D01*
X163777622Y-123519137D01*
X163643712Y-123463671D01*
X163643710Y-123463670D01*
X163643709Y-123463670D01*
X163571854Y-123454210D01*
X163500001Y-123444750D01*
X163499999Y-123444750D01*
X163356291Y-123463670D01*
X163356287Y-123463671D01*
X163222377Y-123519137D01*
X163107379Y-123607379D01*
X163019137Y-123722377D01*
X162963671Y-123856287D01*
X162963670Y-123856291D01*
X162944750Y-124000000D01*
X155692303Y-124000000D01*
X155736330Y-123893709D01*
X155755250Y-123750000D01*
X155736330Y-123606291D01*
X155692304Y-123500002D01*
X155680862Y-123472377D01*
X155680861Y-123472376D01*
X155680861Y-123472375D01*
X155592621Y-123357379D01*
X155477625Y-123269139D01*
X155477624Y-123269138D01*
X155477622Y-123269137D01*
X155343712Y-123213671D01*
X155343710Y-123213670D01*
X155343709Y-123213670D01*
X155271854Y-123204210D01*
X155200001Y-123194750D01*
X155199999Y-123194750D01*
X155056291Y-123213670D01*
X155056287Y-123213671D01*
X154922377Y-123269137D01*
X154807379Y-123357379D01*
X154719137Y-123472377D01*
X154663671Y-123606287D01*
X154663670Y-123606291D01*
X154644750Y-123750000D01*
X153598667Y-123750000D01*
X153586330Y-123656291D01*
X153530861Y-123522375D01*
X153442621Y-123407379D01*
X153327625Y-123319139D01*
X153327624Y-123319138D01*
X153327622Y-123319137D01*
X153193712Y-123263671D01*
X153193710Y-123263670D01*
X153193709Y-123263670D01*
X153121854Y-123254210D01*
X153050001Y-123244750D01*
X153049999Y-123244750D01*
X152906291Y-123263670D01*
X152906287Y-123263671D01*
X152772377Y-123319137D01*
X152657379Y-123407379D01*
X152569137Y-123522377D01*
X152513671Y-123656287D01*
X152513670Y-123656291D01*
X152504569Y-123725422D01*
X152494750Y-123800000D01*
X150458012Y-123800000D01*
X150414956Y-123725425D01*
X150353869Y-123664338D01*
X148366820Y-121677289D01*
X148333335Y-121615966D01*
X148331618Y-121600000D01*
X156344750Y-121600000D01*
X156362696Y-121736314D01*
X156363670Y-121743708D01*
X156363671Y-121743712D01*
X156419137Y-121877622D01*
X156419138Y-121877624D01*
X156419139Y-121877625D01*
X156507379Y-121992621D01*
X156622375Y-122080861D01*
X156756291Y-122136330D01*
X156883280Y-122153048D01*
X156899999Y-122155250D01*
X156900000Y-122155250D01*
X156900001Y-122155250D01*
X156914977Y-122153278D01*
X157043709Y-122136330D01*
X157177625Y-122080861D01*
X157292621Y-121992621D01*
X157301625Y-121980886D01*
X157358050Y-121939685D01*
X157427796Y-121935529D01*
X157488717Y-121969740D01*
X157498367Y-121980876D01*
X157507379Y-121992621D01*
X157622375Y-122080861D01*
X157756291Y-122136330D01*
X157883280Y-122153048D01*
X157899999Y-122155250D01*
X157900000Y-122155250D01*
X157900001Y-122155250D01*
X157914977Y-122153278D01*
X158043709Y-122136330D01*
X158177625Y-122080861D01*
X158292621Y-121992621D01*
X158380861Y-121877625D01*
X158436330Y-121743709D01*
X158455250Y-121600000D01*
X158436330Y-121456291D01*
X158386641Y-121336329D01*
X158380862Y-121322377D01*
X158380861Y-121322376D01*
X158380861Y-121322375D01*
X158292621Y-121207379D01*
X158177625Y-121119139D01*
X158177624Y-121119138D01*
X158177622Y-121119137D01*
X158043712Y-121063671D01*
X158043710Y-121063670D01*
X158043709Y-121063670D01*
X157971854Y-121054210D01*
X157900001Y-121044750D01*
X157899999Y-121044750D01*
X157756291Y-121063670D01*
X157756287Y-121063671D01*
X157622377Y-121119137D01*
X157590356Y-121143708D01*
X157507379Y-121207379D01*
X157507378Y-121207380D01*
X157507377Y-121207381D01*
X157498375Y-121219113D01*
X157441947Y-121260316D01*
X157372201Y-121264470D01*
X157311281Y-121230257D01*
X157301625Y-121219113D01*
X157299782Y-121216711D01*
X157292621Y-121207379D01*
X157177625Y-121119139D01*
X157177624Y-121119138D01*
X157177622Y-121119137D01*
X157043712Y-121063671D01*
X157043710Y-121063670D01*
X157043709Y-121063670D01*
X156971854Y-121054210D01*
X156900001Y-121044750D01*
X156899999Y-121044750D01*
X156756291Y-121063670D01*
X156756287Y-121063671D01*
X156622377Y-121119137D01*
X156507379Y-121207379D01*
X156419137Y-121322377D01*
X156363671Y-121456287D01*
X156363670Y-121456291D01*
X156350642Y-121555250D01*
X156344750Y-121600000D01*
X148331618Y-121600000D01*
X148330501Y-121589608D01*
X148330501Y-120299999D01*
X152944750Y-120299999D01*
X152944750Y-120300000D01*
X152963670Y-120443708D01*
X152963671Y-120443712D01*
X153019137Y-120577622D01*
X153019138Y-120577624D01*
X153019139Y-120577625D01*
X153107379Y-120692621D01*
X153222375Y-120780861D01*
X153356291Y-120836330D01*
X153483280Y-120853048D01*
X153499999Y-120855250D01*
X153500000Y-120855250D01*
X153500001Y-120855250D01*
X153514977Y-120853278D01*
X153643709Y-120836330D01*
X153731419Y-120800000D01*
X162944750Y-120800000D01*
X162952160Y-120856287D01*
X162963670Y-120943708D01*
X162963671Y-120943712D01*
X163019137Y-121077622D01*
X163019138Y-121077624D01*
X163019139Y-121077625D01*
X163107379Y-121192621D01*
X163222375Y-121280861D01*
X163356291Y-121336330D01*
X163483280Y-121353048D01*
X163499999Y-121355250D01*
X163500000Y-121355250D01*
X163500001Y-121355250D01*
X163514977Y-121353278D01*
X163643709Y-121336330D01*
X163777625Y-121280861D01*
X163892621Y-121192621D01*
X163980861Y-121077625D01*
X164013014Y-121000000D01*
X164744750Y-121000000D01*
X164753132Y-121063670D01*
X164763670Y-121143708D01*
X164763671Y-121143712D01*
X164819137Y-121277622D01*
X164819138Y-121277624D01*
X164819139Y-121277625D01*
X164907379Y-121392621D01*
X165022375Y-121480861D01*
X165156291Y-121536330D01*
X165283280Y-121553048D01*
X165299999Y-121555250D01*
X165300000Y-121555250D01*
X165300001Y-121555250D01*
X165314977Y-121553278D01*
X165443709Y-121536330D01*
X165577625Y-121480861D01*
X165692621Y-121392621D01*
X165780861Y-121277625D01*
X165836330Y-121143709D01*
X165855250Y-121000000D01*
X165836330Y-120856291D01*
X165780861Y-120722375D01*
X165692621Y-120607379D01*
X165577625Y-120519139D01*
X165577624Y-120519138D01*
X165577622Y-120519137D01*
X165443712Y-120463671D01*
X165443710Y-120463670D01*
X165443709Y-120463670D01*
X165371854Y-120454210D01*
X165300001Y-120444750D01*
X165299999Y-120444750D01*
X165156291Y-120463670D01*
X165156287Y-120463671D01*
X165022377Y-120519137D01*
X164907379Y-120607379D01*
X164819137Y-120722377D01*
X164763671Y-120856287D01*
X164763670Y-120856291D01*
X164744750Y-121000000D01*
X164013014Y-121000000D01*
X164036330Y-120943709D01*
X164055250Y-120800000D01*
X164036330Y-120656291D01*
X163999350Y-120567013D01*
X163980862Y-120522377D01*
X163980861Y-120522376D01*
X163980861Y-120522375D01*
X163892621Y-120407379D01*
X163777625Y-120319139D01*
X163777624Y-120319138D01*
X163777622Y-120319137D01*
X163643712Y-120263671D01*
X163643710Y-120263670D01*
X163643709Y-120263670D01*
X163571854Y-120254210D01*
X163500001Y-120244750D01*
X163499999Y-120244750D01*
X163356291Y-120263670D01*
X163356287Y-120263671D01*
X163222377Y-120319137D01*
X163107379Y-120407379D01*
X163019137Y-120522377D01*
X162963671Y-120656287D01*
X162963670Y-120656291D01*
X162947270Y-120780862D01*
X162944750Y-120800000D01*
X153731419Y-120800000D01*
X153777625Y-120780861D01*
X153892621Y-120692621D01*
X153980861Y-120577625D01*
X154036330Y-120443709D01*
X154055250Y-120300000D01*
X154036330Y-120156291D01*
X153999350Y-120067013D01*
X153992303Y-120049999D01*
X155294750Y-120049999D01*
X155294750Y-120050000D01*
X155313670Y-120193708D01*
X155313671Y-120193712D01*
X155369137Y-120327622D01*
X155369138Y-120327624D01*
X155369139Y-120327625D01*
X155457379Y-120442621D01*
X155572375Y-120530861D01*
X155706291Y-120586330D01*
X155833280Y-120603048D01*
X155849999Y-120605250D01*
X155850000Y-120605250D01*
X155850001Y-120605250D01*
X155864977Y-120603278D01*
X155993709Y-120586330D01*
X156127625Y-120530861D01*
X156242621Y-120442621D01*
X156330861Y-120327625D01*
X156386330Y-120193709D01*
X156405250Y-120050000D01*
X156386330Y-119906291D01*
X156330861Y-119772375D01*
X156242621Y-119657379D01*
X156127625Y-119569139D01*
X156127624Y-119569138D01*
X156127622Y-119569137D01*
X155993712Y-119513671D01*
X155993710Y-119513670D01*
X155993709Y-119513670D01*
X155921854Y-119504210D01*
X155850001Y-119494750D01*
X155849999Y-119494750D01*
X155706291Y-119513670D01*
X155706287Y-119513671D01*
X155572377Y-119569137D01*
X155457379Y-119657379D01*
X155369137Y-119772377D01*
X155313671Y-119906287D01*
X155313670Y-119906291D01*
X155294750Y-120049999D01*
X153992303Y-120049999D01*
X153980862Y-120022377D01*
X153980861Y-120022376D01*
X153980861Y-120022375D01*
X153892621Y-119907379D01*
X153777625Y-119819139D01*
X153777624Y-119819138D01*
X153777622Y-119819137D01*
X153643712Y-119763671D01*
X153643710Y-119763670D01*
X153643709Y-119763670D01*
X153571854Y-119754210D01*
X153500001Y-119744750D01*
X153499999Y-119744750D01*
X153356291Y-119763670D01*
X153356287Y-119763671D01*
X153222377Y-119819137D01*
X153107379Y-119907379D01*
X153019137Y-120022377D01*
X152963671Y-120156287D01*
X152963670Y-120156291D01*
X152944750Y-120299999D01*
X148330501Y-120299999D01*
X148330501Y-119199999D01*
X154244750Y-119199999D01*
X154244750Y-119200000D01*
X154263670Y-119343708D01*
X154263671Y-119343712D01*
X154319137Y-119477622D01*
X154319138Y-119477624D01*
X154319139Y-119477625D01*
X154407379Y-119592621D01*
X154522375Y-119680861D01*
X154656291Y-119736330D01*
X154783280Y-119753048D01*
X154799999Y-119755250D01*
X154800000Y-119755250D01*
X154800001Y-119755250D01*
X154814977Y-119753278D01*
X154943709Y-119736330D01*
X155077625Y-119680861D01*
X155192621Y-119592621D01*
X155280861Y-119477625D01*
X155336330Y-119343709D01*
X155355250Y-119200000D01*
X155336330Y-119056291D01*
X155280861Y-118922375D01*
X155192621Y-118807379D01*
X155077625Y-118719139D01*
X155077624Y-118719138D01*
X155077622Y-118719137D01*
X154943712Y-118663671D01*
X154943710Y-118663670D01*
X154943709Y-118663670D01*
X154871854Y-118654210D01*
X154800001Y-118644750D01*
X154799999Y-118644750D01*
X154656291Y-118663670D01*
X154656287Y-118663671D01*
X154522377Y-118719137D01*
X154407379Y-118807379D01*
X154319137Y-118922377D01*
X154263671Y-119056287D01*
X154263670Y-119056291D01*
X154244750Y-119199999D01*
X148330501Y-119199999D01*
X148330501Y-117999999D01*
X160141197Y-117999999D01*
X160141197Y-118000000D01*
X160160117Y-118143708D01*
X160160118Y-118143712D01*
X160215584Y-118277622D01*
X160215585Y-118277624D01*
X160215586Y-118277625D01*
X160303826Y-118392621D01*
X160418822Y-118480861D01*
X160552738Y-118536330D01*
X160679727Y-118553048D01*
X160696446Y-118555250D01*
X160696447Y-118555250D01*
X160696448Y-118555250D01*
X160711424Y-118553278D01*
X160840156Y-118536330D01*
X160974072Y-118480861D01*
X161089068Y-118392621D01*
X161177308Y-118277625D01*
X161232777Y-118143709D01*
X161251697Y-118000000D01*
X161251697Y-117999999D01*
X161252758Y-117991942D01*
X161256122Y-117992385D01*
X161271382Y-117940419D01*
X161324186Y-117894664D01*
X161393344Y-117884720D01*
X161398419Y-117885761D01*
X161402736Y-117886329D01*
X161402738Y-117886330D01*
X161508527Y-117900257D01*
X161546446Y-117905250D01*
X161546447Y-117905250D01*
X161546448Y-117905250D01*
X161561424Y-117903278D01*
X161690156Y-117886330D01*
X161824072Y-117830861D01*
X161939068Y-117742621D01*
X161948072Y-117730886D01*
X162004497Y-117689685D01*
X162074243Y-117685529D01*
X162135164Y-117719740D01*
X162144814Y-117730876D01*
X162153826Y-117742621D01*
X162268822Y-117830861D01*
X162402738Y-117886330D01*
X162529727Y-117903048D01*
X162546446Y-117905250D01*
X162546447Y-117905250D01*
X162546448Y-117905250D01*
X162561424Y-117903278D01*
X162690156Y-117886330D01*
X162824072Y-117830861D01*
X162939068Y-117742621D01*
X163027308Y-117627625D01*
X163082777Y-117493709D01*
X163101697Y-117350000D01*
X163082777Y-117206291D01*
X163080171Y-117199999D01*
X167067974Y-117199999D01*
X167067974Y-117200000D01*
X167086894Y-117343708D01*
X167086895Y-117343712D01*
X167142361Y-117477622D01*
X167142362Y-117477624D01*
X167142363Y-117477625D01*
X167230603Y-117592621D01*
X167345599Y-117680861D01*
X167345600Y-117680861D01*
X167345601Y-117680862D01*
X167366902Y-117689685D01*
X167479515Y-117736330D01*
X167606504Y-117753048D01*
X167623223Y-117755250D01*
X167623224Y-117755250D01*
X167623225Y-117755250D01*
X167638201Y-117753278D01*
X167766933Y-117736330D01*
X167900849Y-117680861D01*
X168015845Y-117592621D01*
X168104085Y-117477625D01*
X168159554Y-117343709D01*
X168178474Y-117200000D01*
X168159554Y-117056291D01*
X168118584Y-116957379D01*
X168104086Y-116922377D01*
X168104085Y-116922376D01*
X168104085Y-116922375D01*
X168015845Y-116807379D01*
X167900849Y-116719139D01*
X167900848Y-116719138D01*
X167900846Y-116719137D01*
X167766936Y-116663671D01*
X167766934Y-116663670D01*
X167766933Y-116663670D01*
X167695078Y-116654210D01*
X167623225Y-116644750D01*
X167623223Y-116644750D01*
X167479515Y-116663670D01*
X167479511Y-116663671D01*
X167345601Y-116719137D01*
X167230603Y-116807379D01*
X167142361Y-116922377D01*
X167086895Y-117056287D01*
X167086894Y-117056291D01*
X167067974Y-117199999D01*
X163080171Y-117199999D01*
X163027308Y-117072375D01*
X162939068Y-116957379D01*
X162824072Y-116869139D01*
X162824071Y-116869138D01*
X162824069Y-116869137D01*
X162690159Y-116813671D01*
X162690157Y-116813670D01*
X162690156Y-116813670D01*
X162618301Y-116804210D01*
X162546448Y-116794750D01*
X162546446Y-116794750D01*
X162402738Y-116813670D01*
X162402734Y-116813671D01*
X162268824Y-116869137D01*
X162228603Y-116900000D01*
X162153826Y-116957379D01*
X162153825Y-116957380D01*
X162153824Y-116957381D01*
X162144822Y-116969113D01*
X162088394Y-117010316D01*
X162018648Y-117014470D01*
X161957728Y-116980257D01*
X161948072Y-116969113D01*
X161946229Y-116966711D01*
X161939068Y-116957379D01*
X161824072Y-116869139D01*
X161824071Y-116869138D01*
X161824069Y-116869137D01*
X161690159Y-116813671D01*
X161690157Y-116813670D01*
X161690156Y-116813670D01*
X161618301Y-116804210D01*
X161546448Y-116794750D01*
X161546446Y-116794750D01*
X161402738Y-116813670D01*
X161402734Y-116813671D01*
X161268824Y-116869137D01*
X161153826Y-116957379D01*
X161065584Y-117072377D01*
X161010118Y-117206287D01*
X161010117Y-117206291D01*
X160990136Y-117358058D01*
X160986770Y-117357614D01*
X160971512Y-117409580D01*
X160918708Y-117455335D01*
X160849550Y-117465279D01*
X160844474Y-117464238D01*
X160696448Y-117444750D01*
X160696446Y-117444750D01*
X160552738Y-117463670D01*
X160552734Y-117463671D01*
X160418824Y-117519137D01*
X160303826Y-117607379D01*
X160215584Y-117722377D01*
X160160118Y-117856287D01*
X160160117Y-117856291D01*
X160141197Y-117999999D01*
X148330501Y-117999999D01*
X148330501Y-117570773D01*
X148350186Y-117503734D01*
X148402990Y-117457979D01*
X148407049Y-117456212D01*
X148455054Y-117436328D01*
X148492395Y-117420861D01*
X148607391Y-117332621D01*
X148695631Y-117217625D01*
X148751100Y-117083709D01*
X148770020Y-116940000D01*
X148764754Y-116900000D01*
X155744750Y-116900000D01*
X155752304Y-116957381D01*
X155763670Y-117043708D01*
X155763671Y-117043712D01*
X155819137Y-117177622D01*
X155819138Y-117177624D01*
X155819139Y-117177625D01*
X155907379Y-117292621D01*
X156022375Y-117380861D01*
X156156291Y-117436330D01*
X156283280Y-117453048D01*
X156299999Y-117455250D01*
X156300000Y-117455250D01*
X156300001Y-117455250D01*
X156314977Y-117453278D01*
X156443709Y-117436330D01*
X156577625Y-117380861D01*
X156692621Y-117292621D01*
X156780861Y-117177625D01*
X156836330Y-117043709D01*
X156855250Y-116900000D01*
X156836330Y-116756291D01*
X156786641Y-116636329D01*
X156780862Y-116622377D01*
X156780861Y-116622376D01*
X156780861Y-116622375D01*
X156692621Y-116507379D01*
X156577625Y-116419139D01*
X156577624Y-116419138D01*
X156577622Y-116419137D01*
X156443712Y-116363671D01*
X156443710Y-116363670D01*
X156443709Y-116363670D01*
X156371854Y-116354210D01*
X156300001Y-116344750D01*
X156299999Y-116344750D01*
X156156291Y-116363670D01*
X156156287Y-116363671D01*
X156022377Y-116419137D01*
X155907379Y-116507379D01*
X155819137Y-116622377D01*
X155763671Y-116756287D01*
X155763670Y-116756291D01*
X155744750Y-116900000D01*
X148764754Y-116900000D01*
X148751100Y-116796291D01*
X148696168Y-116663671D01*
X148695632Y-116662377D01*
X148695631Y-116662376D01*
X148695631Y-116662375D01*
X148607391Y-116547379D01*
X148492395Y-116459139D01*
X148492394Y-116459138D01*
X148492392Y-116459137D01*
X148358482Y-116403671D01*
X148358480Y-116403670D01*
X148358479Y-116403670D01*
X148286624Y-116394210D01*
X148214771Y-116384750D01*
X148214769Y-116384750D01*
X148071061Y-116403670D01*
X148071057Y-116403671D01*
X147937146Y-116459138D01*
X147937144Y-116459139D01*
X147925486Y-116468085D01*
X147860316Y-116493279D01*
X147791872Y-116479240D01*
X147774514Y-116468085D01*
X147762855Y-116459139D01*
X147762853Y-116459138D01*
X147628942Y-116403671D01*
X147628940Y-116403670D01*
X147628939Y-116403670D01*
X147557084Y-116394210D01*
X147485231Y-116384750D01*
X147485229Y-116384750D01*
X147341521Y-116403670D01*
X147341517Y-116403671D01*
X147207607Y-116459137D01*
X147092609Y-116547379D01*
X147004367Y-116662377D01*
X146948901Y-116796287D01*
X146948900Y-116796291D01*
X146929980Y-116940000D01*
X130500500Y-116940000D01*
X130500500Y-115299999D01*
X158591197Y-115299999D01*
X158591197Y-115300000D01*
X158610117Y-115443708D01*
X158610118Y-115443712D01*
X158665584Y-115577622D01*
X158665585Y-115577624D01*
X158665586Y-115577625D01*
X158753826Y-115692621D01*
X158868822Y-115780861D01*
X159002738Y-115836330D01*
X159146447Y-115855250D01*
X159146447Y-115855249D01*
X159148317Y-115855496D01*
X159212213Y-115883763D01*
X159250684Y-115942087D01*
X159255070Y-115994620D01*
X159241197Y-116099997D01*
X159241197Y-116100000D01*
X159260117Y-116243708D01*
X159260118Y-116243712D01*
X159315584Y-116377622D01*
X159315585Y-116377624D01*
X159315586Y-116377625D01*
X159403826Y-116492621D01*
X159518822Y-116580861D01*
X159652738Y-116636330D01*
X159779727Y-116653048D01*
X159796446Y-116655250D01*
X159796447Y-116655250D01*
X159796448Y-116655250D01*
X159811424Y-116653278D01*
X159940156Y-116636330D01*
X160074072Y-116580861D01*
X160189068Y-116492621D01*
X160277308Y-116377625D01*
X160332777Y-116243709D01*
X160351697Y-116100000D01*
X160332777Y-115956291D01*
X160283088Y-115836329D01*
X160277309Y-115822377D01*
X160277308Y-115822376D01*
X160277308Y-115822375D01*
X160189068Y-115707379D01*
X160074072Y-115619139D01*
X160074071Y-115619138D01*
X160074069Y-115619137D01*
X159940159Y-115563671D01*
X159940157Y-115563670D01*
X159940156Y-115563670D01*
X159899240Y-115558283D01*
X159794576Y-115544503D01*
X159730679Y-115516236D01*
X159692209Y-115457911D01*
X159687823Y-115405378D01*
X159701697Y-115300000D01*
X159701697Y-115299999D01*
X159699495Y-115283280D01*
X159682777Y-115156291D01*
X159645797Y-115067013D01*
X159627309Y-115022377D01*
X159627308Y-115022376D01*
X159627308Y-115022375D01*
X159539068Y-114907379D01*
X159424072Y-114819139D01*
X159424071Y-114819138D01*
X159424069Y-114819137D01*
X159290159Y-114763671D01*
X159290157Y-114763670D01*
X159290156Y-114763670D01*
X159218301Y-114754210D01*
X159146448Y-114744750D01*
X159146446Y-114744750D01*
X159002738Y-114763670D01*
X159002734Y-114763671D01*
X158868824Y-114819137D01*
X158753826Y-114907379D01*
X158665584Y-115022377D01*
X158610118Y-115156287D01*
X158610117Y-115156291D01*
X158591197Y-115299999D01*
X130500500Y-115299999D01*
X130500500Y-114599999D01*
X132994750Y-114599999D01*
X132994750Y-114600000D01*
X133013670Y-114743708D01*
X133013671Y-114743712D01*
X133069137Y-114877622D01*
X133069138Y-114877624D01*
X133069139Y-114877625D01*
X133157379Y-114992621D01*
X133272375Y-115080861D01*
X133272376Y-115080861D01*
X133272377Y-115080862D01*
X133317013Y-115099350D01*
X133406291Y-115136330D01*
X133533280Y-115153048D01*
X133549999Y-115155250D01*
X133550000Y-115155250D01*
X133550001Y-115155250D01*
X133564977Y-115153278D01*
X133693709Y-115136330D01*
X133827625Y-115080861D01*
X133942621Y-114992621D01*
X134030861Y-114877625D01*
X134086330Y-114743709D01*
X134105250Y-114600000D01*
X134098667Y-114549999D01*
X138344750Y-114549999D01*
X138344750Y-114550000D01*
X138363670Y-114693708D01*
X138363671Y-114693712D01*
X138419137Y-114827622D01*
X138419138Y-114827624D01*
X138419139Y-114827625D01*
X138507379Y-114942621D01*
X138622375Y-115030861D01*
X138756291Y-115086330D01*
X138883280Y-115103048D01*
X138899999Y-115105250D01*
X138900000Y-115105250D01*
X138900001Y-115105250D01*
X138914977Y-115103278D01*
X139043709Y-115086330D01*
X139177625Y-115030861D01*
X139292621Y-114942621D01*
X139380861Y-114827625D01*
X139436330Y-114693709D01*
X139455250Y-114550000D01*
X139436330Y-114406291D01*
X139380861Y-114272375D01*
X139380860Y-114272374D01*
X139380860Y-114272373D01*
X139339681Y-114218708D01*
X139320776Y-114194071D01*
X139295582Y-114128904D01*
X139306638Y-114074999D01*
X144644750Y-114074999D01*
X144644750Y-114075000D01*
X144663670Y-114218708D01*
X144663671Y-114218712D01*
X144719137Y-114352622D01*
X144719138Y-114352624D01*
X144719139Y-114352625D01*
X144807379Y-114467621D01*
X144922375Y-114555861D01*
X145056291Y-114611330D01*
X145180039Y-114627622D01*
X145199999Y-114630250D01*
X145200000Y-114630250D01*
X145200001Y-114630250D01*
X145219961Y-114627622D01*
X145343709Y-114611330D01*
X145477625Y-114555861D01*
X145592621Y-114467621D01*
X145680861Y-114352625D01*
X145681948Y-114350000D01*
X153094750Y-114350000D01*
X153102160Y-114406287D01*
X153113670Y-114493708D01*
X153113671Y-114493712D01*
X153169137Y-114627622D01*
X153169138Y-114627624D01*
X153169139Y-114627625D01*
X153257379Y-114742621D01*
X153372375Y-114830861D01*
X153506291Y-114886330D01*
X153633280Y-114903048D01*
X153649999Y-114905250D01*
X153650000Y-114905250D01*
X153650001Y-114905250D01*
X153664977Y-114903278D01*
X153793709Y-114886330D01*
X153927625Y-114830861D01*
X154042621Y-114742621D01*
X154130861Y-114627625D01*
X154186330Y-114493709D01*
X154205250Y-114350000D01*
X154186330Y-114206291D01*
X154130861Y-114072375D01*
X154042621Y-113957379D01*
X153927625Y-113869139D01*
X153927624Y-113869138D01*
X153927622Y-113869137D01*
X153793712Y-113813671D01*
X153793710Y-113813670D01*
X153793709Y-113813670D01*
X153669954Y-113797377D01*
X153650001Y-113794750D01*
X153649999Y-113794750D01*
X153506291Y-113813670D01*
X153506287Y-113813671D01*
X153372377Y-113869137D01*
X153257379Y-113957379D01*
X153169137Y-114072377D01*
X153113671Y-114206287D01*
X153113670Y-114206291D01*
X153094750Y-114350000D01*
X145681948Y-114350000D01*
X145736330Y-114218709D01*
X145755250Y-114075000D01*
X145754904Y-114072375D01*
X145752500Y-114054110D01*
X145736330Y-113931291D01*
X145680861Y-113797375D01*
X145592621Y-113682379D01*
X145553646Y-113652472D01*
X145512444Y-113596044D01*
X145508289Y-113526298D01*
X145542502Y-113465378D01*
X145581678Y-113439537D01*
X145602625Y-113430861D01*
X145717621Y-113342621D01*
X145805861Y-113227625D01*
X145861330Y-113093709D01*
X145880250Y-112950000D01*
X145861330Y-112806291D01*
X145820359Y-112707377D01*
X145805862Y-112672377D01*
X145805861Y-112672376D01*
X145805861Y-112672375D01*
X145717621Y-112557379D01*
X145602625Y-112469139D01*
X145602624Y-112469138D01*
X145602622Y-112469137D01*
X145468712Y-112413671D01*
X145468710Y-112413670D01*
X145468709Y-112413670D01*
X145364877Y-112400000D01*
X145325001Y-112394750D01*
X145324999Y-112394750D01*
X145181291Y-112413670D01*
X145181287Y-112413671D01*
X145047377Y-112469137D01*
X144932379Y-112557379D01*
X144844137Y-112672377D01*
X144788671Y-112806287D01*
X144788670Y-112806291D01*
X144769750Y-112950000D01*
X144778852Y-113019139D01*
X144788670Y-113093708D01*
X144788671Y-113093712D01*
X144844137Y-113227622D01*
X144844138Y-113227624D01*
X144844139Y-113227625D01*
X144932379Y-113342621D01*
X144971354Y-113372528D01*
X145012555Y-113428954D01*
X145016710Y-113498700D01*
X144982497Y-113559621D01*
X144943321Y-113585462D01*
X144922378Y-113594137D01*
X144922375Y-113594138D01*
X144922375Y-113594139D01*
X144857771Y-113643712D01*
X144807379Y-113682379D01*
X144719137Y-113797377D01*
X144663671Y-113931287D01*
X144663670Y-113931291D01*
X144644750Y-114074999D01*
X139306638Y-114074999D01*
X139309620Y-114060459D01*
X139358433Y-114010469D01*
X139371685Y-114004031D01*
X139427625Y-113980861D01*
X139542621Y-113892621D01*
X139630861Y-113777625D01*
X139686330Y-113643709D01*
X139705250Y-113500000D01*
X139686330Y-113356291D01*
X139634554Y-113231291D01*
X139630862Y-113222377D01*
X139630861Y-113222376D01*
X139630861Y-113222375D01*
X139542621Y-113107379D01*
X139427625Y-113019139D01*
X139427624Y-113019138D01*
X139427622Y-113019137D01*
X139293712Y-112963671D01*
X139293710Y-112963670D01*
X139293709Y-112963670D01*
X139189877Y-112950000D01*
X139150001Y-112944750D01*
X139149999Y-112944750D01*
X139006291Y-112963670D01*
X139006287Y-112963671D01*
X138872377Y-113019137D01*
X138757379Y-113107379D01*
X138669137Y-113222377D01*
X138613671Y-113356287D01*
X138613670Y-113356291D01*
X138595722Y-113492620D01*
X138594750Y-113500000D01*
X138612698Y-113636329D01*
X138613670Y-113643708D01*
X138613671Y-113643712D01*
X138669138Y-113777623D01*
X138669139Y-113777626D01*
X138729222Y-113855926D01*
X138754417Y-113921095D01*
X138740379Y-113989540D01*
X138691565Y-114039530D01*
X138678300Y-114045974D01*
X138622376Y-114069138D01*
X138507379Y-114157379D01*
X138419137Y-114272377D01*
X138363671Y-114406287D01*
X138363670Y-114406291D01*
X138344750Y-114549999D01*
X134098667Y-114549999D01*
X134086330Y-114456291D01*
X134043390Y-114352622D01*
X134030862Y-114322377D01*
X134030861Y-114322376D01*
X134030861Y-114322375D01*
X133942621Y-114207379D01*
X133827625Y-114119139D01*
X133827624Y-114119138D01*
X133827622Y-114119137D01*
X133693712Y-114063671D01*
X133693710Y-114063670D01*
X133693709Y-114063670D01*
X133621095Y-114054110D01*
X133550001Y-114044750D01*
X133549999Y-114044750D01*
X133406291Y-114063670D01*
X133406287Y-114063671D01*
X133272377Y-114119137D01*
X133157379Y-114207379D01*
X133069137Y-114322377D01*
X133013671Y-114456287D01*
X133013670Y-114456291D01*
X132994750Y-114599999D01*
X130500500Y-114599999D01*
X130500500Y-110299999D01*
X143544750Y-110299999D01*
X143544750Y-110300000D01*
X143563670Y-110443708D01*
X143563671Y-110443712D01*
X143619137Y-110577622D01*
X143619138Y-110577624D01*
X143619139Y-110577625D01*
X143707379Y-110692621D01*
X143822375Y-110780861D01*
X143822376Y-110780861D01*
X143822377Y-110780862D01*
X143955502Y-110836003D01*
X144009906Y-110879843D01*
X144031971Y-110946137D01*
X144014692Y-111013837D01*
X143983538Y-111048939D01*
X143907380Y-111107378D01*
X143819137Y-111222377D01*
X143763671Y-111356287D01*
X143763670Y-111356291D01*
X143747270Y-111480862D01*
X143744750Y-111500000D01*
X143753852Y-111569139D01*
X143763670Y-111643708D01*
X143763671Y-111643712D01*
X143819137Y-111777622D01*
X143819138Y-111777624D01*
X143819139Y-111777625D01*
X143907379Y-111892621D01*
X144022375Y-111980861D01*
X144156291Y-112036330D01*
X144283280Y-112053048D01*
X144299999Y-112055250D01*
X144300000Y-112055250D01*
X144300001Y-112055250D01*
X144314977Y-112053278D01*
X144443709Y-112036330D01*
X144577625Y-111980861D01*
X144692621Y-111892621D01*
X144780861Y-111777625D01*
X144836330Y-111643709D01*
X144855250Y-111500000D01*
X144836330Y-111356291D01*
X144780861Y-111222375D01*
X144692621Y-111107379D01*
X144577625Y-111019139D01*
X144577624Y-111019138D01*
X144577622Y-111019137D01*
X144531418Y-110999999D01*
X153144750Y-110999999D01*
X153144750Y-111000000D01*
X153163670Y-111143708D01*
X153163671Y-111143712D01*
X153219137Y-111277622D01*
X153219138Y-111277624D01*
X153219139Y-111277625D01*
X153307379Y-111392621D01*
X153422375Y-111480861D01*
X153422376Y-111480861D01*
X153422377Y-111480862D01*
X153457589Y-111495447D01*
X153556291Y-111536330D01*
X153683280Y-111553048D01*
X153699999Y-111555250D01*
X153700000Y-111555250D01*
X153700001Y-111555250D01*
X153714977Y-111553278D01*
X153843709Y-111536330D01*
X153977625Y-111480861D01*
X154073797Y-111407064D01*
X154138966Y-111381870D01*
X154207411Y-111395908D01*
X154247658Y-111429952D01*
X154257379Y-111442621D01*
X154372375Y-111530861D01*
X154372376Y-111530861D01*
X154372377Y-111530862D01*
X154417013Y-111549350D01*
X154506291Y-111586330D01*
X154644699Y-111604552D01*
X154708595Y-111632819D01*
X154747066Y-111691143D01*
X154747897Y-111761008D01*
X154743075Y-111774942D01*
X154688670Y-111906291D01*
X154669750Y-112049999D01*
X154669750Y-112050000D01*
X154688670Y-112193708D01*
X154688671Y-112193712D01*
X154744137Y-112327622D01*
X154744138Y-112327624D01*
X154744139Y-112327625D01*
X154832379Y-112442621D01*
X154889194Y-112486217D01*
X154930395Y-112542643D01*
X154934550Y-112612389D01*
X154900338Y-112673310D01*
X154889195Y-112682965D01*
X154857380Y-112707377D01*
X154769137Y-112822377D01*
X154713671Y-112956287D01*
X154713670Y-112956291D01*
X154695096Y-113097375D01*
X154694750Y-113100000D01*
X154711552Y-113227625D01*
X154713670Y-113243708D01*
X154713671Y-113243712D01*
X154769137Y-113377622D01*
X154769138Y-113377624D01*
X154769139Y-113377625D01*
X154857379Y-113492621D01*
X154972375Y-113580861D01*
X154972376Y-113580861D01*
X154972377Y-113580862D01*
X155017013Y-113599350D01*
X155106291Y-113636330D01*
X155230039Y-113652622D01*
X155249999Y-113655250D01*
X155250000Y-113655250D01*
X155250001Y-113655250D01*
X155269961Y-113652622D01*
X155393709Y-113636330D01*
X155527625Y-113580861D01*
X155642621Y-113492621D01*
X155730861Y-113377625D01*
X155786330Y-113243709D01*
X155805250Y-113100000D01*
X155804904Y-113097375D01*
X155794604Y-113019139D01*
X155786330Y-112956291D01*
X155730861Y-112822375D01*
X155642621Y-112707379D01*
X155585804Y-112663781D01*
X155544604Y-112607356D01*
X155540449Y-112537609D01*
X155574662Y-112476689D01*
X155585798Y-112467039D01*
X155617621Y-112442621D01*
X155650325Y-112400000D01*
X157866197Y-112400000D01*
X157883425Y-112530861D01*
X157885117Y-112543708D01*
X157885118Y-112543712D01*
X157940584Y-112677622D01*
X157940585Y-112677624D01*
X157940586Y-112677625D01*
X158028826Y-112792621D01*
X158028828Y-112792622D01*
X158028830Y-112792625D01*
X158034573Y-112798368D01*
X158032522Y-112800418D01*
X158065482Y-112845581D01*
X158069619Y-112915328D01*
X158035391Y-112976240D01*
X158032198Y-112979006D01*
X158028830Y-112982374D01*
X157940584Y-113097377D01*
X157885118Y-113231287D01*
X157885117Y-113231291D01*
X157866197Y-113374999D01*
X157866197Y-113375000D01*
X157885117Y-113518708D01*
X157885118Y-113518712D01*
X157940584Y-113652622D01*
X157940585Y-113652624D01*
X157940586Y-113652625D01*
X158028826Y-113767621D01*
X158143822Y-113855861D01*
X158143823Y-113855861D01*
X158143824Y-113855862D01*
X158175878Y-113869139D01*
X158277738Y-113911330D01*
X158404727Y-113928048D01*
X158421446Y-113930250D01*
X158421447Y-113930250D01*
X158421448Y-113930250D01*
X158436424Y-113928278D01*
X158565156Y-113911330D01*
X158699072Y-113855861D01*
X158814068Y-113767621D01*
X158902308Y-113652625D01*
X158957777Y-113518709D01*
X158976697Y-113375000D01*
X158957777Y-113231291D01*
X158902308Y-113097375D01*
X158814068Y-112982379D01*
X158814065Y-112982376D01*
X158814063Y-112982374D01*
X158808321Y-112976632D01*
X158810375Y-112974577D01*
X158777422Y-112929449D01*
X158773267Y-112859703D01*
X158807479Y-112798782D01*
X158810684Y-112796004D01*
X158814063Y-112792625D01*
X158814063Y-112792624D01*
X158814068Y-112792621D01*
X158902308Y-112677625D01*
X158957777Y-112543709D01*
X158976697Y-112400000D01*
X165116197Y-112400000D01*
X165133425Y-112530861D01*
X165135117Y-112543708D01*
X165135118Y-112543712D01*
X165190584Y-112677622D01*
X165190585Y-112677624D01*
X165190586Y-112677625D01*
X165278826Y-112792621D01*
X165278828Y-112792622D01*
X165278830Y-112792625D01*
X165284573Y-112798368D01*
X165282522Y-112800418D01*
X165315482Y-112845581D01*
X165319619Y-112915328D01*
X165285391Y-112976240D01*
X165282198Y-112979006D01*
X165278830Y-112982374D01*
X165190584Y-113097377D01*
X165135118Y-113231287D01*
X165135117Y-113231291D01*
X165116197Y-113374999D01*
X165116197Y-113375000D01*
X165135117Y-113518708D01*
X165135118Y-113518712D01*
X165190584Y-113652622D01*
X165190585Y-113652624D01*
X165190586Y-113652625D01*
X165278826Y-113767621D01*
X165393822Y-113855861D01*
X165393823Y-113855861D01*
X165393824Y-113855862D01*
X165425878Y-113869139D01*
X165527738Y-113911330D01*
X165654727Y-113928048D01*
X165671446Y-113930250D01*
X165671447Y-113930250D01*
X165671448Y-113930250D01*
X165686424Y-113928278D01*
X165815156Y-113911330D01*
X165949072Y-113855861D01*
X166064068Y-113767621D01*
X166152308Y-113652625D01*
X166207777Y-113518709D01*
X166226697Y-113375000D01*
X166207777Y-113231291D01*
X166152308Y-113097375D01*
X166064068Y-112982379D01*
X166064065Y-112982376D01*
X166064063Y-112982374D01*
X166058321Y-112976632D01*
X166060375Y-112974577D01*
X166027422Y-112929449D01*
X166023267Y-112859703D01*
X166057479Y-112798782D01*
X166060684Y-112796004D01*
X166064063Y-112792625D01*
X166064063Y-112792624D01*
X166064068Y-112792621D01*
X166152308Y-112677625D01*
X166207777Y-112543709D01*
X166226697Y-112400000D01*
X166207777Y-112256291D01*
X166152308Y-112122375D01*
X166064068Y-112007379D01*
X165949072Y-111919139D01*
X165949071Y-111919138D01*
X165949069Y-111919137D01*
X165815159Y-111863671D01*
X165815157Y-111863670D01*
X165815156Y-111863670D01*
X165743301Y-111854210D01*
X165671448Y-111844750D01*
X165671446Y-111844750D01*
X165527738Y-111863670D01*
X165527734Y-111863671D01*
X165393824Y-111919137D01*
X165278826Y-112007379D01*
X165190584Y-112122377D01*
X165135118Y-112256287D01*
X165135117Y-112256291D01*
X165125726Y-112327625D01*
X165116197Y-112400000D01*
X158976697Y-112400000D01*
X158957777Y-112256291D01*
X158902308Y-112122375D01*
X158814068Y-112007379D01*
X158699072Y-111919139D01*
X158699071Y-111919138D01*
X158699069Y-111919137D01*
X158565159Y-111863671D01*
X158565157Y-111863670D01*
X158565156Y-111863670D01*
X158493301Y-111854210D01*
X158421448Y-111844750D01*
X158421446Y-111844750D01*
X158277738Y-111863670D01*
X158277734Y-111863671D01*
X158143824Y-111919137D01*
X158028826Y-112007379D01*
X157940584Y-112122377D01*
X157885118Y-112256287D01*
X157885117Y-112256291D01*
X157875726Y-112327625D01*
X157866197Y-112400000D01*
X155650325Y-112400000D01*
X155705861Y-112327625D01*
X155761330Y-112193709D01*
X155780250Y-112050000D01*
X155761330Y-111906291D01*
X155705861Y-111772375D01*
X155617621Y-111657379D01*
X155502625Y-111569139D01*
X155502624Y-111569138D01*
X155502622Y-111569137D01*
X155368712Y-111513671D01*
X155368710Y-111513670D01*
X155368709Y-111513670D01*
X155333478Y-111509031D01*
X155230300Y-111495447D01*
X155166403Y-111467180D01*
X155127933Y-111408855D01*
X155127102Y-111338990D01*
X155131925Y-111325056D01*
X155151571Y-111277625D01*
X155186330Y-111193709D01*
X155205250Y-111050000D01*
X155186330Y-110906291D01*
X155136572Y-110786162D01*
X155130862Y-110772377D01*
X155130861Y-110772376D01*
X155130861Y-110772375D01*
X155042621Y-110657379D01*
X154927625Y-110569139D01*
X154927624Y-110569138D01*
X154927622Y-110569137D01*
X154793712Y-110513671D01*
X154793710Y-110513670D01*
X154793709Y-110513670D01*
X154721854Y-110504210D01*
X154650001Y-110494750D01*
X154649999Y-110494750D01*
X154506291Y-110513670D01*
X154506287Y-110513671D01*
X154372376Y-110569138D01*
X154372374Y-110569139D01*
X154276202Y-110642935D01*
X154211033Y-110668129D01*
X154142588Y-110654091D01*
X154102341Y-110620046D01*
X154092623Y-110607381D01*
X154092621Y-110607380D01*
X154092621Y-110607379D01*
X153977625Y-110519139D01*
X153977624Y-110519138D01*
X153977622Y-110519137D01*
X153843712Y-110463671D01*
X153843710Y-110463670D01*
X153843709Y-110463670D01*
X153752638Y-110451680D01*
X153700001Y-110444750D01*
X153699999Y-110444750D01*
X153556291Y-110463670D01*
X153556287Y-110463671D01*
X153422377Y-110519137D01*
X153307379Y-110607379D01*
X153219137Y-110722377D01*
X153163671Y-110856287D01*
X153163670Y-110856291D01*
X153144750Y-110999999D01*
X144531418Y-110999999D01*
X144444497Y-110963996D01*
X144390093Y-110920155D01*
X144368028Y-110853861D01*
X144385307Y-110786162D01*
X144416458Y-110751062D01*
X144492621Y-110692621D01*
X144580861Y-110577625D01*
X144608872Y-110510000D01*
X149365000Y-110510000D01*
X149625000Y-110510000D01*
X149654819Y-110480181D01*
X149716142Y-110446696D01*
X149785834Y-110451680D01*
X149830181Y-110480181D01*
X149860000Y-110510000D01*
X150120000Y-110510000D01*
X150120000Y-109740000D01*
X149860000Y-109740000D01*
X149830181Y-109769819D01*
X149768858Y-109803304D01*
X149699166Y-109798320D01*
X149654819Y-109769819D01*
X149625000Y-109740000D01*
X149365000Y-109740000D01*
X149365000Y-110510000D01*
X144608872Y-110510000D01*
X144636330Y-110443709D01*
X144655250Y-110300000D01*
X144636330Y-110156291D01*
X144580861Y-110022375D01*
X144492621Y-109907379D01*
X144377625Y-109819139D01*
X144377624Y-109819138D01*
X144377622Y-109819137D01*
X144243712Y-109763671D01*
X144243710Y-109763670D01*
X144243709Y-109763670D01*
X144171854Y-109754210D01*
X144100001Y-109744750D01*
X144099999Y-109744750D01*
X143956291Y-109763670D01*
X143956287Y-109763671D01*
X143822377Y-109819137D01*
X143707379Y-109907379D01*
X143619137Y-110022377D01*
X143563671Y-110156287D01*
X143563670Y-110156291D01*
X143544750Y-110299999D01*
X130500500Y-110299999D01*
X130500500Y-109224999D01*
X140744750Y-109224999D01*
X140744750Y-109225000D01*
X140763670Y-109368708D01*
X140763671Y-109368712D01*
X140819137Y-109502622D01*
X140819138Y-109502624D01*
X140819139Y-109502625D01*
X140907379Y-109617621D01*
X141022375Y-109705861D01*
X141156291Y-109761330D01*
X141283280Y-109778048D01*
X141299999Y-109780250D01*
X141300000Y-109780250D01*
X141300001Y-109780250D01*
X141314977Y-109778278D01*
X141443709Y-109761330D01*
X141577625Y-109705861D01*
X141692621Y-109617621D01*
X141780861Y-109502625D01*
X141836330Y-109368709D01*
X141855250Y-109225000D01*
X141836330Y-109081291D01*
X141780861Y-108947375D01*
X141692621Y-108832379D01*
X141577625Y-108744139D01*
X141577624Y-108744138D01*
X141577622Y-108744137D01*
X141443712Y-108688671D01*
X141443710Y-108688670D01*
X141443709Y-108688670D01*
X141371854Y-108679210D01*
X141300001Y-108669750D01*
X141299999Y-108669750D01*
X141156291Y-108688670D01*
X141156287Y-108688671D01*
X141022377Y-108744137D01*
X140907379Y-108832379D01*
X140819137Y-108947377D01*
X140763671Y-109081287D01*
X140763670Y-109081291D01*
X140744750Y-109224999D01*
X130500500Y-109224999D01*
X130500500Y-108299999D01*
X144019750Y-108299999D01*
X144019750Y-108300000D01*
X144038670Y-108443708D01*
X144038671Y-108443712D01*
X144094137Y-108577622D01*
X144094138Y-108577624D01*
X144094139Y-108577625D01*
X144182379Y-108692621D01*
X144297375Y-108780861D01*
X144431291Y-108836330D01*
X144558280Y-108853048D01*
X144574999Y-108855250D01*
X144575000Y-108855250D01*
X144575001Y-108855250D01*
X144589977Y-108853278D01*
X144718709Y-108836330D01*
X144852625Y-108780861D01*
X144944972Y-108710000D01*
X148625000Y-108710000D01*
X149245000Y-108710000D01*
X149680000Y-108710000D01*
X150300000Y-108710000D01*
X150300000Y-107190000D01*
X149680000Y-107190000D01*
X149680000Y-108710000D01*
X149245000Y-108710000D01*
X149245000Y-107190000D01*
X148625000Y-107190000D01*
X148625000Y-108710000D01*
X144944972Y-108710000D01*
X144967621Y-108692621D01*
X145055861Y-108577625D01*
X145111330Y-108443709D01*
X145130250Y-108300000D01*
X145111330Y-108156291D01*
X145055861Y-108022375D01*
X144967621Y-107907379D01*
X144852625Y-107819139D01*
X144852624Y-107819138D01*
X144852622Y-107819137D01*
X144718712Y-107763671D01*
X144718710Y-107763670D01*
X144718709Y-107763670D01*
X144646854Y-107754210D01*
X144575001Y-107744750D01*
X144574999Y-107744750D01*
X144431291Y-107763670D01*
X144431287Y-107763671D01*
X144297377Y-107819137D01*
X144182379Y-107907379D01*
X144094137Y-108022377D01*
X144038671Y-108156287D01*
X144038670Y-108156291D01*
X144019750Y-108299999D01*
X130500500Y-108299999D01*
X130500500Y-105499999D01*
X136294750Y-105499999D01*
X136294750Y-105500000D01*
X136313670Y-105643708D01*
X136313671Y-105643712D01*
X136369137Y-105777622D01*
X136369138Y-105777624D01*
X136369139Y-105777625D01*
X136457379Y-105892621D01*
X136466711Y-105899782D01*
X136469113Y-105901625D01*
X136510316Y-105958053D01*
X136514470Y-106027799D01*
X136480257Y-106088719D01*
X136469113Y-106098375D01*
X136457381Y-106107377D01*
X136457380Y-106107378D01*
X136457379Y-106107379D01*
X136413259Y-106164877D01*
X136369137Y-106222377D01*
X136313671Y-106356287D01*
X136313670Y-106356291D01*
X136294750Y-106499999D01*
X136294750Y-106500000D01*
X136313670Y-106643708D01*
X136313671Y-106643712D01*
X136369137Y-106777622D01*
X136369138Y-106777624D01*
X136369139Y-106777625D01*
X136457379Y-106892621D01*
X136572375Y-106980861D01*
X136706291Y-107036330D01*
X136833280Y-107053048D01*
X136849999Y-107055250D01*
X136850000Y-107055250D01*
X136850001Y-107055250D01*
X136864977Y-107053278D01*
X136993709Y-107036330D01*
X137127625Y-106980861D01*
X137242621Y-106892621D01*
X137330861Y-106777625D01*
X137386330Y-106643709D01*
X137405250Y-106500000D01*
X137392085Y-106400000D01*
X157391197Y-106400000D01*
X157404362Y-106500000D01*
X157410117Y-106543708D01*
X157410118Y-106543712D01*
X157465584Y-106677622D01*
X157465585Y-106677624D01*
X157465586Y-106677625D01*
X157553826Y-106792621D01*
X157668822Y-106880861D01*
X157668823Y-106880861D01*
X157668824Y-106880862D01*
X157713460Y-106899350D01*
X157802738Y-106936330D01*
X157929727Y-106953048D01*
X157946446Y-106955250D01*
X157946447Y-106955250D01*
X157946448Y-106955250D01*
X157961424Y-106953278D01*
X158090156Y-106936330D01*
X158224072Y-106880861D01*
X158339068Y-106792621D01*
X158348072Y-106780886D01*
X158404497Y-106739685D01*
X158474243Y-106735529D01*
X158535164Y-106769740D01*
X158544814Y-106780876D01*
X158553826Y-106792621D01*
X158668822Y-106880861D01*
X158668823Y-106880861D01*
X158668824Y-106880862D01*
X158713460Y-106899350D01*
X158802738Y-106936330D01*
X158929727Y-106953048D01*
X158946446Y-106955250D01*
X158946447Y-106955250D01*
X158946448Y-106955250D01*
X158961424Y-106953278D01*
X159090156Y-106936330D01*
X159224072Y-106880861D01*
X159339068Y-106792621D01*
X159427308Y-106677625D01*
X159482777Y-106543709D01*
X159501697Y-106400000D01*
X164616197Y-106400000D01*
X164629362Y-106500000D01*
X164635117Y-106543708D01*
X164635118Y-106543712D01*
X164690584Y-106677622D01*
X164690585Y-106677624D01*
X164690586Y-106677625D01*
X164778826Y-106792621D01*
X164893822Y-106880861D01*
X164893823Y-106880861D01*
X164893824Y-106880862D01*
X164938460Y-106899350D01*
X165027738Y-106936330D01*
X165154727Y-106953048D01*
X165171446Y-106955250D01*
X165171447Y-106955250D01*
X165171448Y-106955250D01*
X165186424Y-106953278D01*
X165315156Y-106936330D01*
X165449072Y-106880861D01*
X165564068Y-106792621D01*
X165564072Y-106792616D01*
X165569815Y-106786874D01*
X165571869Y-106788928D01*
X165616998Y-106755975D01*
X165686744Y-106751820D01*
X165747665Y-106786032D01*
X165750442Y-106789237D01*
X165753821Y-106792616D01*
X165753823Y-106792618D01*
X165753826Y-106792621D01*
X165868822Y-106880861D01*
X165868823Y-106880861D01*
X165868824Y-106880862D01*
X165913460Y-106899350D01*
X166002738Y-106936330D01*
X166129727Y-106953048D01*
X166146446Y-106955250D01*
X166146447Y-106955250D01*
X166146448Y-106955250D01*
X166161424Y-106953278D01*
X166290156Y-106936330D01*
X166424072Y-106880861D01*
X166539068Y-106792621D01*
X166627308Y-106677625D01*
X166682777Y-106543709D01*
X166701697Y-106400000D01*
X166682777Y-106256291D01*
X166627308Y-106122375D01*
X166539068Y-106007379D01*
X166424072Y-105919139D01*
X166424071Y-105919138D01*
X166424069Y-105919137D01*
X166290159Y-105863671D01*
X166290157Y-105863670D01*
X166290156Y-105863670D01*
X166218301Y-105854210D01*
X166146448Y-105844750D01*
X166146446Y-105844750D01*
X166002738Y-105863670D01*
X166002734Y-105863671D01*
X165868824Y-105919137D01*
X165799667Y-105972204D01*
X165763443Y-106000000D01*
X165753821Y-106007383D01*
X165748079Y-106013126D01*
X165746028Y-106011075D01*
X165700866Y-106044035D01*
X165631119Y-106048172D01*
X165570207Y-106013944D01*
X165567440Y-106010751D01*
X165564072Y-106007383D01*
X165564069Y-106007381D01*
X165564068Y-106007379D01*
X165449072Y-105919139D01*
X165449071Y-105919138D01*
X165449069Y-105919137D01*
X165315159Y-105863671D01*
X165315157Y-105863670D01*
X165315156Y-105863670D01*
X165243301Y-105854210D01*
X165171448Y-105844750D01*
X165171446Y-105844750D01*
X165027738Y-105863670D01*
X165027734Y-105863671D01*
X164893824Y-105919137D01*
X164778826Y-106007379D01*
X164690584Y-106122377D01*
X164635118Y-106256287D01*
X164635117Y-106256291D01*
X164621952Y-106356291D01*
X164616197Y-106400000D01*
X159501697Y-106400000D01*
X159482777Y-106256291D01*
X159427308Y-106122375D01*
X159339068Y-106007379D01*
X159224072Y-105919139D01*
X159224071Y-105919138D01*
X159224069Y-105919137D01*
X159090159Y-105863671D01*
X159090157Y-105863670D01*
X159090156Y-105863670D01*
X159018301Y-105854210D01*
X158946448Y-105844750D01*
X158946446Y-105844750D01*
X158802738Y-105863670D01*
X158802734Y-105863671D01*
X158668824Y-105919137D01*
X158611324Y-105963259D01*
X158553826Y-106007379D01*
X158553825Y-106007380D01*
X158553824Y-106007381D01*
X158544822Y-106019113D01*
X158488394Y-106060316D01*
X158418648Y-106064470D01*
X158357728Y-106030257D01*
X158348072Y-106019113D01*
X158346229Y-106016711D01*
X158339068Y-106007379D01*
X158224072Y-105919139D01*
X158224071Y-105919138D01*
X158224069Y-105919137D01*
X158090159Y-105863671D01*
X158090157Y-105863670D01*
X158090156Y-105863670D01*
X158018301Y-105854210D01*
X157946448Y-105844750D01*
X157946446Y-105844750D01*
X157802738Y-105863670D01*
X157802734Y-105863671D01*
X157668824Y-105919137D01*
X157553826Y-106007379D01*
X157465584Y-106122377D01*
X157410118Y-106256287D01*
X157410117Y-106256291D01*
X157396952Y-106356291D01*
X157391197Y-106400000D01*
X137392085Y-106400000D01*
X137386330Y-106356291D01*
X137330861Y-106222375D01*
X137242621Y-106107379D01*
X137230886Y-106098374D01*
X137189685Y-106041950D01*
X137185529Y-105972204D01*
X137219740Y-105911283D01*
X137230876Y-105901632D01*
X137242621Y-105892621D01*
X137330861Y-105777625D01*
X137386330Y-105643709D01*
X137405250Y-105500000D01*
X137386330Y-105356291D01*
X137330861Y-105222375D01*
X137242621Y-105107379D01*
X137127625Y-105019139D01*
X137127624Y-105019138D01*
X137127622Y-105019137D01*
X136993712Y-104963671D01*
X136993710Y-104963670D01*
X136993709Y-104963670D01*
X136921854Y-104954210D01*
X136850001Y-104944750D01*
X136849999Y-104944750D01*
X136706291Y-104963670D01*
X136706287Y-104963671D01*
X136572377Y-105019137D01*
X136457379Y-105107379D01*
X136369137Y-105222377D01*
X136313671Y-105356287D01*
X136313670Y-105356291D01*
X136294750Y-105499999D01*
X130500500Y-105499999D01*
X130500500Y-104524999D01*
X132857250Y-104524999D01*
X132857250Y-104525000D01*
X132876170Y-104668708D01*
X132876171Y-104668712D01*
X132931637Y-104802622D01*
X132931638Y-104802624D01*
X132931639Y-104802625D01*
X133019879Y-104917621D01*
X133134875Y-105005861D01*
X133134876Y-105005861D01*
X133134877Y-105005862D01*
X133166931Y-105019139D01*
X133268791Y-105061330D01*
X133395780Y-105078048D01*
X133412499Y-105080250D01*
X133412500Y-105080250D01*
X133412501Y-105080250D01*
X133427477Y-105078278D01*
X133556209Y-105061330D01*
X133690125Y-105005861D01*
X133805121Y-104917621D01*
X133893361Y-104802625D01*
X133948830Y-104668709D01*
X133967750Y-104525000D01*
X133948830Y-104381291D01*
X133893361Y-104247375D01*
X133805121Y-104132379D01*
X133690125Y-104044139D01*
X133690124Y-104044138D01*
X133690122Y-104044137D01*
X133556212Y-103988671D01*
X133556210Y-103988670D01*
X133556209Y-103988670D01*
X133484354Y-103979210D01*
X133412501Y-103969750D01*
X133412499Y-103969750D01*
X133268791Y-103988670D01*
X133268787Y-103988671D01*
X133134877Y-104044137D01*
X133019879Y-104132379D01*
X132931637Y-104247377D01*
X132876171Y-104381287D01*
X132876170Y-104381291D01*
X132857250Y-104524999D01*
X130500500Y-104524999D01*
X130500500Y-102403388D01*
X138522500Y-102403388D01*
X138522500Y-102596611D01*
X138552725Y-102787441D01*
X138612429Y-102971194D01*
X138700147Y-103143349D01*
X138813715Y-103299663D01*
X138950336Y-103436284D01*
X139106650Y-103549852D01*
X139278805Y-103637570D01*
X139370681Y-103667422D01*
X139462560Y-103697275D01*
X139550943Y-103711273D01*
X139653389Y-103727500D01*
X139653394Y-103727500D01*
X139846611Y-103727500D01*
X139939123Y-103712846D01*
X140037440Y-103697275D01*
X140221197Y-103637569D01*
X140393350Y-103549852D01*
X140549663Y-103436285D01*
X140686285Y-103299663D01*
X140799852Y-103143350D01*
X140806654Y-103130000D01*
X149790000Y-103130000D01*
X151130000Y-103130000D01*
X151130000Y-102470000D01*
X149790000Y-102470000D01*
X149790000Y-103130000D01*
X140806654Y-103130000D01*
X140887569Y-102971197D01*
X140947275Y-102787440D01*
X140968948Y-102650601D01*
X140977500Y-102596611D01*
X140977500Y-102403388D01*
X140957087Y-102274513D01*
X140947275Y-102212560D01*
X140911938Y-102103802D01*
X140887570Y-102028805D01*
X140799852Y-101856650D01*
X140744789Y-101780862D01*
X140686285Y-101700337D01*
X140549663Y-101563715D01*
X140487676Y-101518679D01*
X140434438Y-101480000D01*
X152170000Y-101480000D01*
X152170000Y-104120000D01*
X155350000Y-104120000D01*
X155350000Y-103951254D01*
X155369685Y-103884215D01*
X155422489Y-103838460D01*
X155491647Y-103828516D01*
X155555203Y-103857541D01*
X155588561Y-103903802D01*
X155619137Y-103977622D01*
X155619138Y-103977624D01*
X155619139Y-103977625D01*
X155707379Y-104092621D01*
X155822375Y-104180861D01*
X155956291Y-104236330D01*
X156083280Y-104253048D01*
X156099999Y-104255250D01*
X156100000Y-104255250D01*
X156100001Y-104255250D01*
X156114977Y-104253278D01*
X156243709Y-104236330D01*
X156377625Y-104180861D01*
X156474515Y-104106514D01*
X156539682Y-104081321D01*
X156608127Y-104095359D01*
X156625480Y-104106510D01*
X156722375Y-104180861D01*
X156856291Y-104236330D01*
X156983280Y-104253048D01*
X156999999Y-104255250D01*
X157000000Y-104255250D01*
X157000001Y-104255250D01*
X157014977Y-104253278D01*
X157143709Y-104236330D01*
X157277625Y-104180861D01*
X157392621Y-104092621D01*
X157480861Y-103977625D01*
X157536330Y-103843709D01*
X157555250Y-103700000D01*
X157536330Y-103556291D01*
X157480861Y-103422375D01*
X157406514Y-103325484D01*
X157381321Y-103260318D01*
X157395359Y-103191873D01*
X157406510Y-103174519D01*
X157480861Y-103077625D01*
X157536330Y-102943709D01*
X157555250Y-102800000D01*
X157536330Y-102656291D01*
X157480861Y-102522375D01*
X157406514Y-102425484D01*
X157397972Y-102403388D01*
X159522500Y-102403388D01*
X159522500Y-102596611D01*
X159552725Y-102787441D01*
X159612429Y-102971194D01*
X159700147Y-103143349D01*
X159813715Y-103299663D01*
X159950336Y-103436284D01*
X160106650Y-103549852D01*
X160278805Y-103637570D01*
X160370681Y-103667422D01*
X160462560Y-103697275D01*
X160550943Y-103711273D01*
X160653389Y-103727500D01*
X160653394Y-103727500D01*
X160846611Y-103727500D01*
X160939123Y-103712846D01*
X161037440Y-103697275D01*
X161221197Y-103637569D01*
X161393350Y-103549852D01*
X161549663Y-103436285D01*
X161686285Y-103299663D01*
X161799852Y-103143350D01*
X161887569Y-102971197D01*
X161947275Y-102787440D01*
X161968948Y-102650601D01*
X161977500Y-102596611D01*
X161977500Y-102403388D01*
X161957087Y-102274513D01*
X161947275Y-102212560D01*
X161911938Y-102103802D01*
X161887570Y-102028805D01*
X161799852Y-101856650D01*
X161744789Y-101780862D01*
X161686285Y-101700337D01*
X161549663Y-101563715D01*
X161487676Y-101518679D01*
X161393349Y-101450147D01*
X161221194Y-101362429D01*
X161037441Y-101302725D01*
X161020236Y-101300000D01*
X167744750Y-101300000D01*
X167753132Y-101363670D01*
X167763670Y-101443708D01*
X167763671Y-101443712D01*
X167819137Y-101577622D01*
X167819138Y-101577624D01*
X167819139Y-101577625D01*
X167907379Y-101692621D01*
X168022375Y-101780861D01*
X168156291Y-101836330D01*
X168283280Y-101853048D01*
X168299999Y-101855250D01*
X168300000Y-101855250D01*
X168300001Y-101855250D01*
X168314977Y-101853278D01*
X168443709Y-101836330D01*
X168577625Y-101780861D01*
X168692621Y-101692621D01*
X168780861Y-101577625D01*
X168836330Y-101443709D01*
X168855250Y-101300000D01*
X168836330Y-101156291D01*
X168780861Y-101022375D01*
X168692621Y-100907379D01*
X168577625Y-100819139D01*
X168577624Y-100819138D01*
X168577622Y-100819137D01*
X168443712Y-100763671D01*
X168443710Y-100763670D01*
X168443709Y-100763670D01*
X168371854Y-100754210D01*
X168300001Y-100744750D01*
X168299999Y-100744750D01*
X168156291Y-100763670D01*
X168156287Y-100763671D01*
X168022377Y-100819137D01*
X167907379Y-100907379D01*
X167819137Y-101022377D01*
X167763671Y-101156287D01*
X167763670Y-101156291D01*
X167748371Y-101272500D01*
X167744750Y-101300000D01*
X161020236Y-101300000D01*
X160846611Y-101272500D01*
X160846606Y-101272500D01*
X160653394Y-101272500D01*
X160653389Y-101272500D01*
X160462558Y-101302725D01*
X160278805Y-101362429D01*
X160106650Y-101450147D01*
X159950336Y-101563715D01*
X159813715Y-101700336D01*
X159700147Y-101856650D01*
X159612429Y-102028805D01*
X159552725Y-102212558D01*
X159522500Y-102403388D01*
X157397972Y-102403388D01*
X157381321Y-102360318D01*
X157395359Y-102291873D01*
X157406510Y-102274519D01*
X157480861Y-102177625D01*
X157536330Y-102043709D01*
X157555250Y-101900000D01*
X157536330Y-101756291D01*
X157480861Y-101622375D01*
X157392621Y-101507379D01*
X157277625Y-101419139D01*
X157277624Y-101419138D01*
X157277622Y-101419137D01*
X157143712Y-101363671D01*
X157143710Y-101363670D01*
X157143709Y-101363670D01*
X157071854Y-101354210D01*
X157000001Y-101344750D01*
X156999999Y-101344750D01*
X156856291Y-101363670D01*
X156856287Y-101363671D01*
X156722377Y-101419137D01*
X156690356Y-101443708D01*
X156625484Y-101493485D01*
X156560318Y-101518679D01*
X156491873Y-101504641D01*
X156474519Y-101493489D01*
X156377625Y-101419139D01*
X156377624Y-101419138D01*
X156377622Y-101419137D01*
X156243712Y-101363671D01*
X156243710Y-101363670D01*
X156243709Y-101363670D01*
X156171854Y-101354210D01*
X156100001Y-101344750D01*
X156099999Y-101344750D01*
X155956291Y-101363670D01*
X155956287Y-101363671D01*
X155822377Y-101419137D01*
X155707379Y-101507379D01*
X155619137Y-101622377D01*
X155588561Y-101696197D01*
X155544720Y-101750601D01*
X155478426Y-101772666D01*
X155410727Y-101755387D01*
X155363116Y-101704250D01*
X155350000Y-101648745D01*
X155350000Y-101480000D01*
X152170000Y-101480000D01*
X140434438Y-101480000D01*
X140393349Y-101450147D01*
X140221194Y-101362429D01*
X140037441Y-101302725D01*
X139846611Y-101272500D01*
X139846606Y-101272500D01*
X139653394Y-101272500D01*
X139653389Y-101272500D01*
X139462558Y-101302725D01*
X139278805Y-101362429D01*
X139106650Y-101450147D01*
X138950336Y-101563715D01*
X138813715Y-101700336D01*
X138700147Y-101856650D01*
X138612429Y-102028805D01*
X138552725Y-102212558D01*
X138522500Y-102403388D01*
X130500500Y-102403388D01*
X130500500Y-99699999D01*
X132344750Y-99699999D01*
X132344750Y-99700000D01*
X132363670Y-99843708D01*
X132363671Y-99843712D01*
X132419137Y-99977622D01*
X132419138Y-99977624D01*
X132419139Y-99977625D01*
X132507379Y-100092621D01*
X132622375Y-100180861D01*
X132756291Y-100236330D01*
X132883280Y-100253048D01*
X132899999Y-100255250D01*
X132900000Y-100255250D01*
X132900001Y-100255250D01*
X132914977Y-100253278D01*
X133043709Y-100236330D01*
X133177625Y-100180861D01*
X133292621Y-100092621D01*
X133380861Y-99977625D01*
X133436330Y-99843709D01*
X133455250Y-99700000D01*
X133442085Y-99600000D01*
X138844750Y-99600000D01*
X138857915Y-99700000D01*
X138863670Y-99743708D01*
X138863671Y-99743712D01*
X138919137Y-99877622D01*
X138919138Y-99877624D01*
X138919139Y-99877625D01*
X139007379Y-99992621D01*
X139122375Y-100080861D01*
X139122376Y-100080861D01*
X139122377Y-100080862D01*
X139167013Y-100099350D01*
X139256291Y-100136330D01*
X139383280Y-100153048D01*
X139399999Y-100155250D01*
X139400000Y-100155250D01*
X139400001Y-100155250D01*
X139414977Y-100153278D01*
X139543709Y-100136330D01*
X139677625Y-100080861D01*
X139792621Y-99992621D01*
X139880861Y-99877625D01*
X139936330Y-99743709D01*
X139955250Y-99600000D01*
X164144750Y-99600000D01*
X164157915Y-99700000D01*
X164163670Y-99743708D01*
X164163671Y-99743712D01*
X164219137Y-99877622D01*
X164219138Y-99877624D01*
X164219139Y-99877625D01*
X164307379Y-99992621D01*
X164422375Y-100080861D01*
X164422376Y-100080861D01*
X164422377Y-100080862D01*
X164467013Y-100099350D01*
X164556291Y-100136330D01*
X164683280Y-100153048D01*
X164699999Y-100155250D01*
X164700000Y-100155250D01*
X164700001Y-100155250D01*
X164714977Y-100153278D01*
X164843709Y-100136330D01*
X164977625Y-100080861D01*
X165092621Y-99992621D01*
X165180861Y-99877625D01*
X165236330Y-99743709D01*
X165255250Y-99600000D01*
X165242085Y-99500000D01*
X167844750Y-99500000D01*
X167857915Y-99600000D01*
X167863670Y-99643708D01*
X167863671Y-99643712D01*
X167919137Y-99777622D01*
X167919138Y-99777624D01*
X167919139Y-99777625D01*
X168007379Y-99892621D01*
X168122375Y-99980861D01*
X168122376Y-99980861D01*
X168122377Y-99980862D01*
X168167013Y-99999350D01*
X168256291Y-100036330D01*
X168383280Y-100053048D01*
X168399999Y-100055250D01*
X168400000Y-100055250D01*
X168400001Y-100055250D01*
X168414977Y-100053278D01*
X168543709Y-100036330D01*
X168677625Y-99980861D01*
X168792621Y-99892621D01*
X168880861Y-99777625D01*
X168936330Y-99643709D01*
X168955250Y-99500000D01*
X168936330Y-99356291D01*
X168880861Y-99222375D01*
X168792621Y-99107379D01*
X168677625Y-99019139D01*
X168677624Y-99019138D01*
X168677622Y-99019137D01*
X168543712Y-98963671D01*
X168543710Y-98963670D01*
X168543709Y-98963670D01*
X168471854Y-98954210D01*
X168400001Y-98944750D01*
X168399999Y-98944750D01*
X168256291Y-98963670D01*
X168256287Y-98963671D01*
X168122377Y-99019137D01*
X168007379Y-99107379D01*
X167919137Y-99222377D01*
X167863671Y-99356287D01*
X167863670Y-99356291D01*
X167847270Y-99480862D01*
X167844750Y-99500000D01*
X165242085Y-99500000D01*
X165236330Y-99456291D01*
X165180861Y-99322375D01*
X165092621Y-99207379D01*
X164977625Y-99119139D01*
X164977624Y-99119138D01*
X164977622Y-99119137D01*
X164843712Y-99063671D01*
X164843710Y-99063670D01*
X164843709Y-99063670D01*
X164771854Y-99054210D01*
X164700001Y-99044750D01*
X164699999Y-99044750D01*
X164556291Y-99063670D01*
X164556287Y-99063671D01*
X164422377Y-99119137D01*
X164307379Y-99207379D01*
X164219137Y-99322377D01*
X164163671Y-99456287D01*
X164163670Y-99456291D01*
X164150505Y-99556291D01*
X164144750Y-99600000D01*
X139955250Y-99600000D01*
X139936330Y-99456291D01*
X139880861Y-99322375D01*
X139792621Y-99207379D01*
X139677625Y-99119139D01*
X139677624Y-99119138D01*
X139677622Y-99119137D01*
X139543712Y-99063671D01*
X139543710Y-99063670D01*
X139543709Y-99063670D01*
X139471854Y-99054210D01*
X139400001Y-99044750D01*
X139399999Y-99044750D01*
X139256291Y-99063670D01*
X139256287Y-99063671D01*
X139122377Y-99119137D01*
X139007379Y-99207379D01*
X138919137Y-99322377D01*
X138863671Y-99456287D01*
X138863670Y-99456291D01*
X138850505Y-99556291D01*
X138844750Y-99600000D01*
X133442085Y-99600000D01*
X133436330Y-99556291D01*
X133380861Y-99422375D01*
X133292621Y-99307379D01*
X133177625Y-99219139D01*
X133177624Y-99219138D01*
X133177622Y-99219137D01*
X133043712Y-99163671D01*
X133043710Y-99163670D01*
X133043709Y-99163670D01*
X132971854Y-99154210D01*
X132900001Y-99144750D01*
X132899999Y-99144750D01*
X132756291Y-99163670D01*
X132756287Y-99163671D01*
X132622377Y-99219137D01*
X132507379Y-99307379D01*
X132419137Y-99422377D01*
X132363671Y-99556287D01*
X132363670Y-99556291D01*
X132344750Y-99699999D01*
X130500500Y-99699999D01*
X130500500Y-98599999D01*
X134644750Y-98599999D01*
X134644750Y-98600000D01*
X134663670Y-98743708D01*
X134663671Y-98743712D01*
X134719137Y-98877622D01*
X134719138Y-98877624D01*
X134719139Y-98877625D01*
X134807379Y-98992621D01*
X134922375Y-99080861D01*
X135056291Y-99136330D01*
X135183280Y-99153048D01*
X135199999Y-99155250D01*
X135200000Y-99155250D01*
X135200001Y-99155250D01*
X135214977Y-99153278D01*
X135343709Y-99136330D01*
X135477625Y-99080861D01*
X135592621Y-98992621D01*
X135680861Y-98877625D01*
X135736330Y-98743709D01*
X135755250Y-98600000D01*
X135742085Y-98500000D01*
X141044750Y-98500000D01*
X141057915Y-98600000D01*
X141063670Y-98643708D01*
X141063671Y-98643712D01*
X141119137Y-98777622D01*
X141119138Y-98777624D01*
X141119139Y-98777625D01*
X141207379Y-98892621D01*
X141322375Y-98980861D01*
X141322376Y-98980861D01*
X141322377Y-98980862D01*
X141367013Y-98999350D01*
X141456291Y-99036330D01*
X141583280Y-99053048D01*
X141599999Y-99055250D01*
X141600000Y-99055250D01*
X141600001Y-99055250D01*
X141614977Y-99053278D01*
X141743709Y-99036330D01*
X141831419Y-99000000D01*
X159644750Y-99000000D01*
X159662698Y-99136329D01*
X159663670Y-99143708D01*
X159663671Y-99143712D01*
X159719137Y-99277622D01*
X159719138Y-99277624D01*
X159719139Y-99277625D01*
X159807379Y-99392621D01*
X159922375Y-99480861D01*
X160056291Y-99536330D01*
X160183280Y-99553048D01*
X160199999Y-99555250D01*
X160200000Y-99555250D01*
X160200001Y-99555250D01*
X160214977Y-99553278D01*
X160343709Y-99536330D01*
X160477625Y-99480861D01*
X160592621Y-99392621D01*
X160680861Y-99277625D01*
X160736330Y-99143709D01*
X160755250Y-99000000D01*
X160736330Y-98856291D01*
X160680861Y-98722375D01*
X160592621Y-98607379D01*
X160583003Y-98599999D01*
X161944750Y-98599999D01*
X161944750Y-98600000D01*
X161963670Y-98743708D01*
X161963671Y-98743712D01*
X162019137Y-98877622D01*
X162019138Y-98877624D01*
X162019139Y-98877625D01*
X162107379Y-98992621D01*
X162222375Y-99080861D01*
X162356291Y-99136330D01*
X162483280Y-99153048D01*
X162499999Y-99155250D01*
X162500000Y-99155250D01*
X162500001Y-99155250D01*
X162514977Y-99153278D01*
X162643709Y-99136330D01*
X162777625Y-99080861D01*
X162892621Y-98992621D01*
X162980861Y-98877625D01*
X163036330Y-98743709D01*
X163055250Y-98600000D01*
X163036330Y-98456291D01*
X162980861Y-98322375D01*
X162892621Y-98207379D01*
X162777625Y-98119139D01*
X162777624Y-98119138D01*
X162777622Y-98119137D01*
X162643712Y-98063671D01*
X162643710Y-98063670D01*
X162643709Y-98063670D01*
X162571854Y-98054210D01*
X162500001Y-98044750D01*
X162499999Y-98044750D01*
X162356291Y-98063670D01*
X162356287Y-98063671D01*
X162222377Y-98119137D01*
X162107379Y-98207379D01*
X162019137Y-98322377D01*
X161963671Y-98456287D01*
X161963670Y-98456291D01*
X161944750Y-98599999D01*
X160583003Y-98599999D01*
X160477625Y-98519139D01*
X160477624Y-98519138D01*
X160477622Y-98519137D01*
X160343712Y-98463671D01*
X160343710Y-98463670D01*
X160343709Y-98463670D01*
X160271854Y-98454210D01*
X160200001Y-98444750D01*
X160199999Y-98444750D01*
X160056291Y-98463670D01*
X160056287Y-98463671D01*
X159922377Y-98519137D01*
X159807379Y-98607379D01*
X159719137Y-98722377D01*
X159663671Y-98856287D01*
X159663670Y-98856291D01*
X159645722Y-98992620D01*
X159644750Y-99000000D01*
X141831419Y-99000000D01*
X141877625Y-98980861D01*
X141992621Y-98892621D01*
X142080861Y-98777625D01*
X142136330Y-98643709D01*
X142155250Y-98500000D01*
X142136330Y-98356291D01*
X142080861Y-98222375D01*
X141992621Y-98107379D01*
X141877625Y-98019139D01*
X141877624Y-98019138D01*
X141877622Y-98019137D01*
X141743712Y-97963671D01*
X141743710Y-97963670D01*
X141743709Y-97963670D01*
X141650496Y-97951398D01*
X141600001Y-97944750D01*
X141599999Y-97944750D01*
X141456291Y-97963670D01*
X141456287Y-97963671D01*
X141322377Y-98019137D01*
X141207379Y-98107379D01*
X141119137Y-98222377D01*
X141063671Y-98356287D01*
X141063670Y-98356291D01*
X141050505Y-98456291D01*
X141044750Y-98500000D01*
X135742085Y-98500000D01*
X135736330Y-98456291D01*
X135680861Y-98322375D01*
X135592621Y-98207379D01*
X135477625Y-98119139D01*
X135477624Y-98119138D01*
X135477622Y-98119137D01*
X135343712Y-98063671D01*
X135343710Y-98063670D01*
X135343709Y-98063670D01*
X135271854Y-98054210D01*
X135200001Y-98044750D01*
X135199999Y-98044750D01*
X135056291Y-98063670D01*
X135056287Y-98063671D01*
X134922377Y-98119137D01*
X134807379Y-98207379D01*
X134719137Y-98322377D01*
X134663671Y-98456287D01*
X134663670Y-98456291D01*
X134644750Y-98599999D01*
X130500500Y-98599999D01*
X130500500Y-91459997D01*
X146015000Y-91459997D01*
X146015000Y-92551447D01*
X146782421Y-91784025D01*
X146795359Y-91815258D01*
X146877437Y-91938097D01*
X146981903Y-92042563D01*
X147104742Y-92124641D01*
X147135974Y-92137578D01*
X146033010Y-93240541D01*
X146033009Y-93240543D01*
X146034410Y-93247584D01*
X146043198Y-93268799D01*
X146098472Y-93351522D01*
X146181196Y-93406798D01*
X146181202Y-93406801D01*
X146193453Y-93411876D01*
X146247856Y-93455717D01*
X146269921Y-93522011D01*
X146270000Y-93526437D01*
X146270000Y-94473562D01*
X146250315Y-94540601D01*
X146197511Y-94586356D01*
X146193458Y-94588121D01*
X146181200Y-94593198D01*
X146098477Y-94648472D01*
X146043201Y-94731196D01*
X146043195Y-94731207D01*
X146034419Y-94752395D01*
X146034411Y-94752415D01*
X146034409Y-94752424D01*
X146033009Y-94759456D01*
X146033010Y-94759458D01*
X147135974Y-95862421D01*
X147104742Y-95875359D01*
X146981903Y-95957437D01*
X146877437Y-96061903D01*
X146795359Y-96184742D01*
X146782422Y-96215974D01*
X146015000Y-95448552D01*
X146015000Y-96540005D01*
X146034410Y-96637583D01*
X146034412Y-96637587D01*
X146041517Y-96654741D01*
X146044585Y-96662961D01*
X146045818Y-96666658D01*
X146044786Y-96667002D01*
X146053620Y-96698453D01*
X146060953Y-96777589D01*
X146069597Y-96823839D01*
X146069599Y-96823847D01*
X146128432Y-97030619D01*
X146145432Y-97074504D01*
X146145433Y-97074505D01*
X146241248Y-97266928D01*
X146241259Y-97266947D01*
X146266020Y-97306937D01*
X146266025Y-97306944D01*
X146297638Y-97348807D01*
X146782421Y-96864024D01*
X146795359Y-96895258D01*
X146877437Y-97018097D01*
X146981903Y-97122563D01*
X147104742Y-97204641D01*
X147135973Y-97217577D01*
X146650495Y-97703055D01*
X146806493Y-97799646D01*
X146848609Y-97820617D01*
X147049075Y-97898277D01*
X147049090Y-97898282D01*
X147094327Y-97911154D01*
X147305661Y-97950658D01*
X147305664Y-97950659D01*
X147313658Y-97951400D01*
X147349670Y-97960309D01*
X147362417Y-97965589D01*
X147362420Y-97965590D01*
X147362425Y-97965591D01*
X147459997Y-97985000D01*
X148551446Y-97985000D01*
X148551446Y-97984999D01*
X147784024Y-97217578D01*
X147815258Y-97204641D01*
X147938097Y-97122563D01*
X148042563Y-97018097D01*
X148124641Y-96895258D01*
X148137578Y-96864025D01*
X149240541Y-97966988D01*
X149240542Y-97966988D01*
X149247581Y-97965588D01*
X149247588Y-97965586D01*
X149268800Y-97956800D01*
X149351522Y-97901527D01*
X149406798Y-97818803D01*
X149406804Y-97818792D01*
X149415580Y-97797604D01*
X149415587Y-97797587D01*
X149415590Y-97797579D01*
X149415591Y-97797574D01*
X149435000Y-97700002D01*
X149435000Y-95764000D01*
X149454685Y-95696961D01*
X149507489Y-95651206D01*
X149559000Y-95640000D01*
X150441000Y-95640000D01*
X150508039Y-95659685D01*
X150553794Y-95712489D01*
X150565000Y-95764000D01*
X150565000Y-97700005D01*
X150584410Y-97797583D01*
X150584412Y-97797588D01*
X150593198Y-97818798D01*
X150648472Y-97901522D01*
X150731196Y-97956798D01*
X150731207Y-97956804D01*
X150752395Y-97965580D01*
X150752414Y-97965588D01*
X150759457Y-97966988D01*
X150759458Y-97966988D01*
X151862421Y-96864024D01*
X151875359Y-96895258D01*
X151957437Y-97018097D01*
X152061903Y-97122563D01*
X152184742Y-97204641D01*
X152215974Y-97217577D01*
X151448553Y-97984999D01*
X151448554Y-97985000D01*
X152540005Y-97985000D01*
X152637583Y-97965589D01*
X152637585Y-97965588D01*
X152650325Y-97960311D01*
X152686353Y-97951398D01*
X152694341Y-97950658D01*
X152905672Y-97911154D01*
X152950909Y-97898282D01*
X152950924Y-97898277D01*
X153151390Y-97820617D01*
X153193507Y-97799646D01*
X153193511Y-97799643D01*
X153349502Y-97703055D01*
X152864025Y-97217578D01*
X152895258Y-97204641D01*
X153018097Y-97122563D01*
X153122563Y-97018097D01*
X153204641Y-96895258D01*
X153217578Y-96864025D01*
X153702360Y-97348808D01*
X153733977Y-97306940D01*
X153758740Y-97266947D01*
X153758751Y-97266928D01*
X153854566Y-97074505D01*
X153854567Y-97074504D01*
X153871567Y-97030619D01*
X153930400Y-96823847D01*
X153930402Y-96823839D01*
X153939044Y-96777599D01*
X153939047Y-96777577D01*
X153946377Y-96698467D01*
X153955288Y-96662450D01*
X153965588Y-96637585D01*
X153965590Y-96637579D01*
X153965591Y-96637574D01*
X153985000Y-96540002D01*
X153985000Y-95448553D01*
X153984999Y-95448552D01*
X153217577Y-96215973D01*
X153204641Y-96184742D01*
X153122563Y-96061903D01*
X153018097Y-95957437D01*
X152895258Y-95875359D01*
X152864024Y-95862421D01*
X153966988Y-94759458D01*
X153965587Y-94752412D01*
X153965585Y-94752405D01*
X153956802Y-94731202D01*
X153901527Y-94648477D01*
X153818803Y-94593201D01*
X153818795Y-94593197D01*
X153806542Y-94588121D01*
X153752140Y-94544277D01*
X153730079Y-94477982D01*
X153730000Y-94473562D01*
X153730000Y-93520579D01*
X153749685Y-93453540D01*
X153802489Y-93407785D01*
X153806548Y-93406018D01*
X153828798Y-93396801D01*
X153911522Y-93341527D01*
X153966798Y-93258803D01*
X153966804Y-93258792D01*
X153975580Y-93237604D01*
X153975587Y-93237587D01*
X153975588Y-93237583D01*
X153976988Y-93230541D01*
X153976988Y-93230540D01*
X152874025Y-92127578D01*
X152905258Y-92114641D01*
X153028097Y-92032563D01*
X153132563Y-91928097D01*
X153214641Y-91805258D01*
X153227577Y-91774025D01*
X153994999Y-92541447D01*
X153995000Y-92541446D01*
X153995000Y-91449994D01*
X153975589Y-91352416D01*
X153975588Y-91352414D01*
X153970311Y-91339675D01*
X153961398Y-91303646D01*
X153960658Y-91295660D01*
X153921153Y-91084327D01*
X153921154Y-91084327D01*
X153908282Y-91039090D01*
X153908277Y-91039075D01*
X153830617Y-90838609D01*
X153809649Y-90796499D01*
X153809646Y-90796493D01*
X153713055Y-90640495D01*
X153227577Y-91125973D01*
X153214641Y-91094742D01*
X153132563Y-90971903D01*
X153028097Y-90867437D01*
X152905258Y-90785359D01*
X152874023Y-90772421D01*
X153358807Y-90287638D01*
X153316944Y-90256025D01*
X153316937Y-90256020D01*
X153276947Y-90231259D01*
X153276928Y-90231248D01*
X153084505Y-90135433D01*
X153084504Y-90135432D01*
X153040619Y-90118432D01*
X152833847Y-90059599D01*
X152833839Y-90059597D01*
X152787589Y-90050953D01*
X152708462Y-90043621D01*
X152672452Y-90034711D01*
X152647601Y-90024417D01*
X152647587Y-90024412D01*
X152647579Y-90024409D01*
X152647574Y-90024408D01*
X152550002Y-90005000D01*
X151458553Y-90005000D01*
X152225974Y-90772421D01*
X152194742Y-90785359D01*
X152071903Y-90867437D01*
X151967437Y-90971903D01*
X151885359Y-91094742D01*
X151872421Y-91125974D01*
X150769457Y-90023010D01*
X150769456Y-90023010D01*
X150762411Y-90024412D01*
X150741199Y-90033199D01*
X150658477Y-90088472D01*
X150603201Y-90171196D01*
X150603198Y-90171201D01*
X150593980Y-90193456D01*
X150550137Y-90247858D01*
X150483842Y-90269921D01*
X150479420Y-90270000D01*
X149526437Y-90270000D01*
X149459398Y-90250315D01*
X149413643Y-90197511D01*
X149411876Y-90193453D01*
X149406800Y-90181199D01*
X149351527Y-90098477D01*
X149268803Y-90043201D01*
X149268792Y-90043195D01*
X149247604Y-90034419D01*
X149247583Y-90034411D01*
X149240541Y-90033010D01*
X148137577Y-91135974D01*
X148124641Y-91104742D01*
X148042563Y-90981903D01*
X147938097Y-90877437D01*
X147815258Y-90795359D01*
X147784023Y-90782421D01*
X148551446Y-90015000D01*
X147459995Y-90015000D01*
X147362416Y-90034410D01*
X147362412Y-90034412D01*
X147349667Y-90039691D01*
X147313677Y-90048597D01*
X147305666Y-90049340D01*
X147305654Y-90049342D01*
X147094327Y-90088845D01*
X147049090Y-90101717D01*
X147049075Y-90101722D01*
X146848614Y-90179380D01*
X146806488Y-90200357D01*
X146650495Y-90296943D01*
X147135974Y-90782421D01*
X147104742Y-90795359D01*
X146981903Y-90877437D01*
X146877437Y-90981903D01*
X146795359Y-91104742D01*
X146782421Y-91135974D01*
X146297638Y-90651191D01*
X146266030Y-90693048D01*
X146266026Y-90693055D01*
X146241253Y-90733062D01*
X146241248Y-90733071D01*
X146145433Y-90925494D01*
X146145432Y-90925495D01*
X146128432Y-90969380D01*
X146069599Y-91176152D01*
X146069597Y-91176160D01*
X146060953Y-91222410D01*
X146053621Y-91301536D01*
X146044713Y-91337543D01*
X146034412Y-91362413D01*
X146034409Y-91362420D01*
X146034408Y-91362425D01*
X146015000Y-91459997D01*
X130500500Y-91459997D01*
X130500500Y-90004427D01*
X130500816Y-89995581D01*
X130505213Y-89934108D01*
X130507410Y-89903388D01*
X138522500Y-89903388D01*
X138522500Y-90096611D01*
X138552725Y-90287441D01*
X138612429Y-90471194D01*
X138700147Y-90643349D01*
X138769512Y-90738822D01*
X138813715Y-90799663D01*
X138950337Y-90936285D01*
X139091817Y-91039075D01*
X139106650Y-91049852D01*
X139278805Y-91137570D01*
X139370681Y-91167422D01*
X139462560Y-91197275D01*
X139550943Y-91211273D01*
X139653389Y-91227500D01*
X139653394Y-91227500D01*
X139846611Y-91227500D01*
X139939123Y-91212846D01*
X140037440Y-91197275D01*
X140221197Y-91137569D01*
X140393350Y-91049852D01*
X140549663Y-90936285D01*
X140686285Y-90799663D01*
X140799852Y-90643350D01*
X140887569Y-90471197D01*
X140947275Y-90287440D01*
X140964390Y-90179380D01*
X140977500Y-90096611D01*
X140977500Y-89903388D01*
X159522500Y-89903388D01*
X159522500Y-90096611D01*
X159552725Y-90287441D01*
X159612429Y-90471194D01*
X159700147Y-90643349D01*
X159769512Y-90738822D01*
X159813715Y-90799663D01*
X159950337Y-90936285D01*
X160091817Y-91039075D01*
X160106650Y-91049852D01*
X160278805Y-91137570D01*
X160370681Y-91167422D01*
X160462560Y-91197275D01*
X160550943Y-91211273D01*
X160653389Y-91227500D01*
X160653394Y-91227500D01*
X160846611Y-91227500D01*
X160939123Y-91212846D01*
X161037440Y-91197275D01*
X161221197Y-91137569D01*
X161393350Y-91049852D01*
X161549663Y-90936285D01*
X161686285Y-90799663D01*
X161799852Y-90643350D01*
X161887569Y-90471197D01*
X161947275Y-90287440D01*
X161964390Y-90179380D01*
X161977500Y-90096611D01*
X161977500Y-89903388D01*
X161957629Y-89777931D01*
X161947275Y-89712560D01*
X161903405Y-89577542D01*
X161887570Y-89528805D01*
X161799852Y-89356650D01*
X161686284Y-89200336D01*
X161549663Y-89063715D01*
X161393349Y-88950147D01*
X161221194Y-88862429D01*
X161037441Y-88802725D01*
X160846611Y-88772500D01*
X160846606Y-88772500D01*
X160653394Y-88772500D01*
X160653389Y-88772500D01*
X160462558Y-88802725D01*
X160278805Y-88862429D01*
X160106650Y-88950147D01*
X159950336Y-89063715D01*
X159813715Y-89200336D01*
X159700147Y-89356650D01*
X159612429Y-89528805D01*
X159552725Y-89712558D01*
X159522500Y-89903388D01*
X140977500Y-89903388D01*
X140957629Y-89777931D01*
X140947275Y-89712560D01*
X140903405Y-89577542D01*
X140887570Y-89528805D01*
X140799852Y-89356650D01*
X140686284Y-89200336D01*
X140549663Y-89063715D01*
X140393349Y-88950147D01*
X140221194Y-88862429D01*
X140037441Y-88802725D01*
X139846611Y-88772500D01*
X139846606Y-88772500D01*
X139653394Y-88772500D01*
X139653389Y-88772500D01*
X139462558Y-88802725D01*
X139278805Y-88862429D01*
X139106650Y-88950147D01*
X138950336Y-89063715D01*
X138813715Y-89200336D01*
X138700147Y-89356650D01*
X138612429Y-89528805D01*
X138552725Y-89712558D01*
X138522500Y-89903388D01*
X130507410Y-89903388D01*
X130515130Y-89795436D01*
X130517646Y-89777938D01*
X130559356Y-89586199D01*
X130564333Y-89569248D01*
X130632911Y-89385385D01*
X130640259Y-89369298D01*
X130732518Y-89200337D01*
X130734291Y-89197089D01*
X130743845Y-89182221D01*
X130861448Y-89025123D01*
X130873020Y-89011769D01*
X131011769Y-88873020D01*
X131025123Y-88861448D01*
X131182221Y-88743845D01*
X131197089Y-88734291D01*
X131369298Y-88640258D01*
X131385385Y-88632911D01*
X131569248Y-88564333D01*
X131586199Y-88559356D01*
X131777938Y-88517646D01*
X131795436Y-88515130D01*
X131995582Y-88500816D01*
X132004428Y-88500500D01*
X132065892Y-88500500D01*
X167934108Y-88500500D01*
X167995572Y-88500500D01*
X168004418Y-88500816D01*
G37*
%TD.AperFunction*%
%TD*%
M02*
