%TF.GenerationSoftware,KiCad,Pcbnew,8.0.5*%
%TF.CreationDate,2025-03-05T13:38:36-05:00*%
%TF.ProjectId,minimax,6d696e69-6d61-4782-9e6b-696361645f70,rev?*%
%TF.SameCoordinates,Original*%
%TF.FileFunction,Soldermask,Bot*%
%TF.FilePolarity,Negative*%
%FSLAX46Y46*%
G04 Gerber Fmt 4.6, Leading zero omitted, Abs format (unit mm)*
G04 Created by KiCad (PCBNEW 8.0.5) date 2025-03-05 13:38:36*
%MOMM*%
%LPD*%
G01*
G04 APERTURE LIST*
G04 Aperture macros list*
%AMFreePoly0*
4,1,49,1.709133,1.231194,1.726811,1.223872,1.753872,1.196813,1.753872,1.196811,1.761194,1.179133,1.765000,1.160000,1.765000,-0.940000,1.761194,-0.959133,1.753872,-0.976811,1.743033,-0.993033,0.993033,-1.743033,0.976811,-1.753872,0.959133,-1.761194,0.940000,-1.765000,-1.160000,-1.765000,-1.179133,-1.761194,-1.196811,-1.753872,-1.223872,-1.726813,-1.223872,-1.726811,-1.231194,-1.709133,
-1.235000,-1.690000,-1.235000,0.000000,-1.231194,0.019133,-1.223872,0.036811,-1.213033,0.053034,-1.204510,0.061556,-1.190036,0.217762,-1.188340,0.226832,-1.129759,0.432723,-1.126426,0.441327,-1.031010,0.632948,-1.026153,0.640793,-0.897151,0.811619,-0.890935,0.818437,-0.732741,0.962650,-0.725378,0.968211,-0.543378,1.080900,-0.535118,1.085013,-0.335511,1.162342,-0.326636,1.164867,
-0.116218,1.204201,-0.107031,1.205052,-0.061014,1.205052,-0.053033,1.213033,-0.036811,1.223872,-0.019133,1.231194,0.000000,1.235000,1.690000,1.235000,1.709133,1.231194,1.709133,1.231194,$1*%
%AMFreePoly1*
4,1,49,0.019133,1.231194,0.036811,1.223872,0.053033,1.213033,0.061014,1.205052,0.107031,1.205052,0.116218,1.204201,0.326636,1.164867,0.335511,1.162342,0.535118,1.085013,0.543378,1.080900,0.725378,0.968211,0.732741,0.962650,0.890935,0.818437,0.897151,0.811619,1.026153,0.640793,1.031010,0.632948,1.126426,0.441327,1.129759,0.432723,1.188340,0.226832,1.190036,0.217762,
1.204510,0.061556,1.213033,0.053034,1.223872,0.036811,1.231194,0.019133,1.235000,0.000000,1.235000,-1.690000,1.231194,-1.709133,1.223872,-1.726811,1.196813,-1.753872,1.196811,-1.753872,1.179133,-1.761194,1.160000,-1.765000,-0.940000,-1.765000,-0.959133,-1.761194,-0.976811,-1.753872,-0.993033,-1.743033,-1.743033,-0.993033,-1.753872,-0.976811,-1.761194,-0.959133,-1.765000,-0.940000,
-1.765000,1.160000,-1.761194,1.179133,-1.753872,1.196811,-1.726813,1.223872,-1.726811,1.223872,-1.709133,1.231194,-1.690000,1.235000,0.000000,1.235000,0.019133,1.231194,0.019133,1.231194,$1*%
%AMFreePoly2*
4,1,49,1.179133,1.761194,1.196811,1.753872,1.223872,1.726813,1.223872,1.726811,1.231194,1.709133,1.235000,1.690000,1.235000,0.000000,1.231194,-0.019133,1.223872,-0.036811,1.213033,-0.053034,1.204510,-0.061556,1.190036,-0.217762,1.188340,-0.226832,1.129759,-0.432723,1.126426,-0.441327,1.031010,-0.632948,1.026153,-0.640793,0.897151,-0.811619,0.890935,-0.818437,0.732741,-0.962650,
0.725378,-0.968211,0.543378,-1.080900,0.535118,-1.085013,0.335511,-1.162342,0.326636,-1.164867,0.116218,-1.204201,0.107031,-1.205052,0.061014,-1.205052,0.053033,-1.213033,0.036811,-1.223872,0.019133,-1.231194,0.000000,-1.235000,-1.690000,-1.235000,-1.709133,-1.231194,-1.726811,-1.223872,-1.753872,-1.196813,-1.753872,-1.196811,-1.761194,-1.179133,-1.765000,-1.160000,-1.765000,0.940000,
-1.761194,0.959133,-1.753872,0.976811,-1.743033,0.993033,-0.993033,1.743033,-0.976811,1.753872,-0.959133,1.761194,-0.940000,1.765000,1.160000,1.765000,1.179133,1.761194,1.179133,1.761194,$1*%
G04 Aperture macros list end*
%ADD10C,1.100000*%
%ADD11C,2.300000*%
%ADD12FreePoly0,180.000000*%
%ADD13FreePoly1,180.000000*%
%ADD14FreePoly2,90.000000*%
%ADD15FreePoly2,180.000000*%
%ADD16C,0.700000*%
G04 APERTURE END LIST*
D10*
%TO.C,TP1*%
X132000000Y-126000000D03*
%TD*%
%TO.C,TP2*%
X132000000Y-123500000D03*
%TD*%
D11*
%TO.C,J5*%
X139750000Y-90000000D03*
X139750000Y-102500000D03*
X160750000Y-90000000D03*
X160750000Y-102500000D03*
%TD*%
D12*
%TO.C,J2*%
X152540000Y-96540000D03*
D13*
X147460000Y-96540000D03*
D14*
X152550000Y-91450000D03*
D15*
X147460000Y-91460000D03*
%TD*%
D10*
%TO.C,TP3*%
X132000000Y-121000000D03*
%TD*%
D16*
X156300000Y-116900000D03*
X165300000Y-124200000D03*
X165300000Y-121000000D03*
X141300000Y-109225000D03*
X168300000Y-101300000D03*
X168400000Y-99500000D03*
X133412500Y-104525000D03*
X166146447Y-106400000D03*
X162546447Y-117350000D03*
X155200000Y-123750000D03*
X133550000Y-114600000D03*
X161546447Y-117350000D03*
X135200000Y-98600000D03*
X162500000Y-98600000D03*
X141600000Y-98500000D03*
X165171447Y-106400000D03*
X163500000Y-124000000D03*
X155250000Y-113100000D03*
X155225000Y-112050000D03*
X163500000Y-120800000D03*
X149635240Y-124520000D03*
X147485230Y-116940000D03*
X149738900Y-111550000D03*
X137925000Y-118550000D03*
X144475000Y-97250000D03*
X136025000Y-99975000D03*
X147050000Y-124400000D03*
X162521447Y-110650000D03*
X148900000Y-104250000D03*
X162046447Y-114650000D03*
X137300000Y-124600000D03*
X157875000Y-126725000D03*
X162521447Y-107150000D03*
X148751286Y-113537614D03*
X154100000Y-124700000D03*
X142175000Y-100250000D03*
X150738900Y-111550000D03*
X144425000Y-91575000D03*
X139500000Y-125125000D03*
X158400000Y-99725000D03*
X162046447Y-107875000D03*
X150738900Y-112550000D03*
X140397879Y-116337024D03*
X148690000Y-119760000D03*
X162850000Y-114650000D03*
X167000000Y-123900000D03*
X131825000Y-103925000D03*
X148500000Y-124100000D03*
X162050000Y-113850000D03*
X155300000Y-96100000D03*
X148738900Y-112550000D03*
X149738900Y-112550000D03*
X161571447Y-109200000D03*
X162521447Y-109200000D03*
X162021447Y-111400000D03*
X149738900Y-113550000D03*
X131850000Y-105775000D03*
X131675000Y-113900000D03*
X144425000Y-94200000D03*
X167125000Y-126850000D03*
X151020000Y-123720000D03*
X155300000Y-92200000D03*
X142500000Y-121300000D03*
X161571447Y-107150000D03*
X162850000Y-100000000D03*
X137700000Y-122000000D03*
X155300000Y-94000000D03*
X161571447Y-110650000D03*
X161250000Y-114650000D03*
X150270000Y-121110000D03*
X162046447Y-109925000D03*
X150738900Y-113550000D03*
X147000000Y-118020000D03*
X145500000Y-124350000D03*
X162050000Y-115425000D03*
X159675000Y-122225000D03*
X148738900Y-111550000D03*
X164873224Y-116050000D03*
X131850000Y-116000000D03*
X148214770Y-116940000D03*
X150364780Y-124520000D03*
X155850000Y-120050000D03*
X136850000Y-105500000D03*
X139150000Y-113500000D03*
X154650000Y-111050000D03*
X154800000Y-119200000D03*
X136850000Y-106500000D03*
X153700000Y-111000000D03*
X138900000Y-114550000D03*
X158421447Y-113375000D03*
X158421447Y-112400000D03*
X156100000Y-103700000D03*
X165671447Y-112400000D03*
X156100000Y-101900000D03*
X165671447Y-113375000D03*
X157000000Y-102800000D03*
X156100000Y-102800000D03*
X157000000Y-103700000D03*
X157000000Y-101900000D03*
X153500000Y-120300000D03*
X145325000Y-112950000D03*
X153650000Y-114350000D03*
X153050000Y-123800000D03*
X160696447Y-118000000D03*
X144575000Y-108300000D03*
X164700000Y-99600000D03*
X159796447Y-116100000D03*
X157946447Y-106400000D03*
X158946447Y-106400000D03*
X157900000Y-121600000D03*
X144100000Y-110300000D03*
X132900000Y-99700000D03*
X144300000Y-111500000D03*
X139400000Y-99600000D03*
X160200000Y-99000000D03*
X159146447Y-115300000D03*
X167623224Y-117200000D03*
X156900000Y-121600000D03*
X145200000Y-114075000D03*
M02*
