M48
; DRILL file {KiCad 8.0.5} date 2025-03-05T13:38:43-0500
; FORMAT={-:-/ absolute / inch / decimal}
; #@! TF.CreationDate,2025-03-05T13:38:43-05:00
; #@! TF.GenerationSoftware,Kicad,Pcbnew,8.0.5
; #@! TF.FileFunction,Plated,1,4,PTH
FMAT,2
INCH
; #@! TA.AperFunction,Plated,PTH,ViaDrill
T1C0.0118
; #@! TA.AperFunction,Plated,PTH,ComponentDrill
T2C0.0197
; #@! TA.AperFunction,Plated,PTH,ComponentDrill
T3C0.0591
%
G90
G05
T1
X5.1841Y-4.4843
X5.19Y-4.0915
X5.1909Y-4.1644
X5.1909Y-4.5669
X5.2323Y-3.9252
X5.2525Y-4.1152
X5.2579Y-4.5118
X5.3228Y-3.8819
X5.3553Y-3.936
X5.3878Y-4.1535
X5.3878Y-4.1929
X5.4055Y-4.9055
X5.4213Y-4.8031
X5.4301Y-4.6673
X5.4685Y-4.5098
X5.4783Y-4.4685
X5.4882Y-3.9213
X5.4921Y-4.9262
X5.5275Y-4.5802
X5.563Y-4.3002
X5.5748Y-3.878
X5.5974Y-3.9469
X5.6102Y-4.7756
X5.6732Y-4.3425
X5.6811Y-4.3898
X5.686Y-3.6053
X5.686Y-3.7087
X5.688Y-3.8287
X5.6919Y-4.2638
X5.7165Y-4.4911
X5.7215Y-4.4469
X5.7283Y-4.8957
X5.7874Y-4.6465
X5.7894Y-4.8976
X5.8065Y-4.6039
X5.8352Y-4.6039
X5.8465Y-4.8858
X5.8539Y-4.715
X5.8559Y-4.3917
X5.8559Y-4.4311
X5.8563Y-4.47
X5.8622Y-4.1043
X5.8912Y-4.9024
X5.8952Y-4.3917
X5.8952Y-4.4311
X5.8952Y-4.4705
X5.9161Y-4.7681
X5.9199Y-4.9024
X5.9346Y-4.3917
X5.9346Y-4.4311
X5.9346Y-4.4705
X5.9457Y-4.8709
X6.0256Y-4.874
X6.0433Y-4.7362
X6.0492Y-4.502
X6.0512Y-4.3701
X6.0669Y-4.9094
X6.0886Y-4.372
X6.0945Y-4.6929
X6.1102Y-4.872
X6.1112Y-4.4114
X6.1122Y-4.4528
X6.1142Y-3.6299
X6.1142Y-3.7008
X6.1142Y-3.7835
X6.1358Y-4.7264
X6.1457Y-4.0118
X6.1457Y-4.0472
X6.1457Y-4.0827
X6.1535Y-4.6024
X6.1772Y-4.7874
X6.1811Y-4.0118
X6.1811Y-4.0472
X6.1811Y-4.0827
X6.2156Y-4.9892
X6.2165Y-4.7874
X6.2184Y-4.189
X6.2362Y-3.9262
X6.2371Y-4.4252
X6.2371Y-4.4636
X6.2577Y-4.189
X6.2656Y-4.5394
X6.2864Y-4.812
X6.2912Y-4.5709
X6.3071Y-3.8976
X6.3266Y-4.6457
X6.3484Y-4.5138
X6.3601Y-4.6201
X6.3611Y-4.2185
X6.3611Y-4.2992
X6.3611Y-4.3563
X6.3788Y-4.3858
X6.3798Y-4.247
X6.3798Y-4.3278
X6.3798Y-4.5138
X6.3799Y-4.4823
X6.3799Y-4.5443
X6.3976Y-3.8819
X6.3985Y-4.2185
X6.3985Y-4.2992
X6.3985Y-4.3563
X6.3995Y-4.6201
X6.4114Y-3.937
X6.4114Y-4.5138
X6.437Y-4.7559
X6.437Y-4.8819
X6.4843Y-3.9213
X6.4911Y-4.5689
X6.5028Y-4.189
X6.5079Y-4.7638
X6.5079Y-4.8898
X6.5225Y-4.4252
X6.5225Y-4.4636
X6.5412Y-4.189
X6.5748Y-4.878
X6.5797Y-4.9941
X6.5993Y-4.6142
X6.626Y-3.9882
X6.6299Y-3.9173
T2
X5.1969Y-4.7638
X5.1969Y-4.8622
X5.1969Y-4.9606
T3
X5.8055Y-3.6008
X5.8055Y-3.8008
X6.0055Y-3.8008
X6.0059Y-3.6004
M30
