%TF.GenerationSoftware,KiCad,Pcbnew,8.0.5*%
%TF.CreationDate,2025-03-05T14:18:00-05:00*%
%TF.ProjectId,minimax,6d696e69-6d61-4782-9e6b-696361645f70,rev?*%
%TF.SameCoordinates,Original*%
%TF.FileFunction,Copper,L2,Inr*%
%TF.FilePolarity,Positive*%
%FSLAX46Y46*%
G04 Gerber Fmt 4.6, Leading zero omitted, Abs format (unit mm)*
G04 Created by KiCad (PCBNEW 8.0.5) date 2025-03-05 14:18:00*
%MOMM*%
%LPD*%
G01*
G04 APERTURE LIST*
G04 Aperture macros list*
%AMFreePoly0*
4,1,25,1.707678,1.177678,1.715000,1.160000,1.715000,-0.940000,1.707678,-0.957678,0.957678,-1.707678,0.940000,-1.715000,-1.160000,-1.715000,-1.177678,-1.707678,-1.185000,-1.690000,-1.185000,0.000000,-1.177678,0.017678,-1.156389,0.038966,-1.140249,0.213149,-1.081668,0.419040,-0.986252,0.610661,-0.857250,0.781487,-0.699056,0.925700,-0.517056,1.038389,-0.317449,1.115718,-0.107031,1.155052,
-0.040304,1.155052,-0.017678,1.177678,0.000000,1.185000,1.690000,1.185000,1.707678,1.177678,1.707678,1.177678,$1*%
%AMFreePoly1*
4,1,25,0.017678,1.177678,0.040304,1.155052,0.107031,1.155052,0.317449,1.115718,0.517056,1.038389,0.699056,0.925700,0.857250,0.781487,0.986252,0.610661,1.081668,0.419040,1.140249,0.213149,1.156389,0.038966,1.177678,0.017678,1.185000,0.000000,1.185000,-1.690000,1.177678,-1.707678,1.160000,-1.715000,-0.940000,-1.715000,-0.957678,-1.707678,-1.707678,-0.957678,-1.715000,-0.940000,
-1.715000,1.160000,-1.707678,1.177678,-1.690000,1.185000,0.000000,1.185000,0.017678,1.177678,0.017678,1.177678,$1*%
%AMFreePoly2*
4,1,25,1.177678,1.707678,1.185000,1.690000,1.185000,0.000000,1.177678,-0.017678,1.156389,-0.038966,1.140249,-0.213149,1.081668,-0.419040,0.986252,-0.610661,0.857250,-0.781487,0.699056,-0.925700,0.517056,-1.038389,0.317449,-1.115718,0.107031,-1.155052,0.040304,-1.155052,0.017678,-1.177678,0.000000,-1.185000,-1.690000,-1.185000,-1.707678,-1.177678,-1.715000,-1.160000,-1.715000,0.940000,
-1.707678,0.957678,-0.957678,1.707678,-0.940000,1.715000,1.160000,1.715000,1.177678,1.707678,1.177678,1.707678,$1*%
G04 Aperture macros list end*
%TA.AperFunction,ComponentPad*%
%ADD10C,1.000000*%
%TD*%
%TA.AperFunction,ComponentPad*%
%ADD11FreePoly0,180.000000*%
%TD*%
%TA.AperFunction,ComponentPad*%
%ADD12FreePoly1,180.000000*%
%TD*%
%TA.AperFunction,ComponentPad*%
%ADD13FreePoly2,90.000000*%
%TD*%
%TA.AperFunction,ComponentPad*%
%ADD14FreePoly2,180.000000*%
%TD*%
%TA.AperFunction,ViaPad*%
%ADD15C,0.600000*%
%TD*%
%TA.AperFunction,Conductor*%
%ADD16C,0.155200*%
%TD*%
G04 APERTURE END LIST*
D10*
%TO.N,Net-(U1-MFP8)*%
%TO.C,TP1*%
X-18000000Y-38000000D03*
%TD*%
%TO.N,Net-(U1-MFP7)*%
%TO.C,TP2*%
X-18000000Y-35500000D03*
%TD*%
D11*
%TO.N,GND*%
%TO.C,J2*%
X2540000Y-8540000D03*
D12*
X-2540000Y-8540000D03*
D13*
X2550000Y-3450000D03*
D14*
X-2540000Y-3460000D03*
%TD*%
D10*
%TO.N,Net-(U1-MFP6)*%
%TO.C,TP3*%
X-18000000Y-33000000D03*
%TD*%
D15*
%TO.N,VDDIO*%
X6300000Y-28900000D03*
X15300000Y-36200000D03*
X15300000Y-33000000D03*
X-8700000Y-21225000D03*
X18300000Y-13300000D03*
%TO.N,+3V3*%
X18400000Y-11500000D03*
X-16587500Y-16525000D03*
X16146447Y-18400000D03*
X12546447Y-29350000D03*
X5200000Y-35750000D03*
X-16450000Y-26600000D03*
X11546447Y-29350000D03*
X-14800000Y-10600000D03*
X12500000Y-10600000D03*
X-8400000Y-10500000D03*
X15171447Y-18400000D03*
%TO.N,MFP1_CFG0*%
X13500000Y-36000000D03*
X5250000Y-25100000D03*
%TO.N,MFP2_CFG1*%
X5225000Y-24050000D03*
X13500000Y-32800000D03*
%TO.N,/camera/MIPI.CSI_D2_N*%
X-364760Y-36520000D03*
X-2514770Y-28940000D03*
%TO.N,GND*%
X-261100Y-23550000D03*
X-12075000Y-30550000D03*
X-13975000Y-11975000D03*
X-2950000Y-36400000D03*
X12521447Y-22650000D03*
X-1100000Y-16250000D03*
X12046447Y-26650000D03*
X-12700000Y-36600000D03*
X7875000Y-38725000D03*
X12521447Y-19150000D03*
X-1248714Y-25537614D03*
X4100000Y-36700000D03*
X-7825000Y-12250000D03*
X738900Y-23550000D03*
X-10500000Y-37125000D03*
X8400000Y-11725000D03*
X12046447Y-19875000D03*
X738900Y-24550000D03*
X-9602121Y-28337024D03*
X-1310000Y-31760000D03*
X12850000Y-26650000D03*
X17000000Y-35900000D03*
X-18175000Y-15925000D03*
X-1500000Y-36100000D03*
X12050000Y-25850000D03*
X-1261100Y-24550000D03*
X-261100Y-24550000D03*
X11571447Y-21200000D03*
X12521447Y-21200000D03*
X12021447Y-23400000D03*
X-261100Y-25550000D03*
X-18150000Y-17775000D03*
X-18325000Y-25900000D03*
X17125000Y-38850000D03*
X1020000Y-35720000D03*
X-7500000Y-33300000D03*
X11571447Y-19150000D03*
X12850000Y-12000000D03*
X-12300000Y-34000000D03*
X11571447Y-22650000D03*
X11250000Y-26650000D03*
X270000Y-33110000D03*
X12046447Y-21925000D03*
X738900Y-25550000D03*
X-3000000Y-30020000D03*
X-4500000Y-36350000D03*
X12050000Y-27425000D03*
X9675000Y-34225000D03*
X-1261100Y-23550000D03*
X14873224Y-28050000D03*
X-18150000Y-28000000D03*
%TO.N,/camera/MIPI.CSI_D2_P*%
X-1785230Y-28940000D03*
X364780Y-36520000D03*
%TO.N,/camera/MFP9_SDA*%
X5850000Y-32050000D03*
X-13150000Y-17500000D03*
X-10850000Y-25500000D03*
X4650000Y-23050000D03*
%TO.N,/camera/MFP10_SCL*%
X4800000Y-31200000D03*
X-13150000Y-18500000D03*
X3700000Y-23000000D03*
X-11100000Y-26550000D03*
%TO.N,/connector/V_POC*%
X8421447Y-25375000D03*
X8421447Y-24400000D03*
X6100000Y-15700000D03*
X15671447Y-24400000D03*
X6100000Y-13900000D03*
X15671447Y-25375000D03*
X7000000Y-14800000D03*
X6100000Y-14800000D03*
X7000000Y-15700000D03*
X7000000Y-13900000D03*
%TO.N,/camera/LED_EN*%
X3500000Y-32300000D03*
X-4675000Y-24950000D03*
%TO.N,/camera/POWER_EN*%
X3650000Y-26350000D03*
X3050000Y-35800000D03*
%TO.N,+1V2*%
X10696447Y-30000000D03*
X-5425000Y-20300000D03*
%TO.N,+1V8*%
X14700000Y-11600000D03*
X9796447Y-28100000D03*
X7946447Y-18400000D03*
X8946447Y-18400000D03*
%TO.N,Net-(U1-MFP8)*%
X7900000Y-33600000D03*
%TO.N,/gmsl/LOCK*%
X-5900000Y-22300000D03*
X-17100000Y-11700000D03*
%TO.N,/gmsl/ERRB*%
X-5700000Y-23500000D03*
X-10600000Y-11600000D03*
%TO.N,Net-(Q3-G)*%
X10200000Y-11000000D03*
X9146447Y-27300000D03*
X17623224Y-29200000D03*
%TO.N,Net-(U1-MFP7)*%
X6900000Y-33600000D03*
%TO.N,Net-(U1-MFP6)*%
X-4800000Y-26075000D03*
%TD*%
D16*
%TO.N,/camera/MIPI.CSI_D2_N*%
X-152391Y-36053137D02*
X-2302401Y-33903127D01*
X-2302401Y-29152369D02*
X-2514770Y-28940000D01*
X-152391Y-36307631D02*
X-152391Y-36053137D01*
X-364760Y-36520000D02*
X-152391Y-36307631D01*
X-2302401Y-33903127D02*
X-2302401Y-29152369D01*
%TO.N,/camera/MIPI.CSI_D2_P*%
X-1997599Y-33776873D02*
X-1997599Y-29152369D01*
X152411Y-35926883D02*
X-1997599Y-33776873D01*
X364780Y-36520000D02*
X152411Y-36307631D01*
X152411Y-36307631D02*
X152411Y-35926883D01*
X-1997599Y-29152369D02*
X-1785230Y-28940000D01*
%TD*%
%TA.AperFunction,Conductor*%
%TO.N,GND*%
G36*
X18004418Y-500816D02*
G01*
X18204561Y-515130D01*
X18222063Y-517647D01*
X18413797Y-559355D01*
X18430755Y-564334D01*
X18614609Y-632909D01*
X18630701Y-640259D01*
X18802904Y-734288D01*
X18817784Y-743849D01*
X18896432Y-802725D01*
X18974867Y-861441D01*
X18988237Y-873027D01*
X19126972Y-1011762D01*
X19138558Y-1025132D01*
X19256146Y-1182210D01*
X19265711Y-1197095D01*
X19359740Y-1369298D01*
X19367090Y-1385390D01*
X19435662Y-1569236D01*
X19440646Y-1586212D01*
X19482351Y-1777931D01*
X19484869Y-1795442D01*
X19499184Y-1995580D01*
X19499500Y-2004427D01*
X19499500Y-37995572D01*
X19499184Y-38004419D01*
X19484869Y-38204557D01*
X19482351Y-38222068D01*
X19440646Y-38413787D01*
X19435662Y-38430763D01*
X19367090Y-38614609D01*
X19359740Y-38630701D01*
X19265711Y-38802904D01*
X19256146Y-38817789D01*
X19138558Y-38974867D01*
X19126972Y-38988237D01*
X18988237Y-39126972D01*
X18974867Y-39138558D01*
X18817789Y-39256146D01*
X18802904Y-39265711D01*
X18630701Y-39359740D01*
X18614609Y-39367090D01*
X18430763Y-39435662D01*
X18413787Y-39440646D01*
X18222068Y-39482351D01*
X18204557Y-39484869D01*
X18023779Y-39497799D01*
X18004417Y-39499184D01*
X17995572Y-39499500D01*
X-17995572Y-39499500D01*
X-18004418Y-39499184D01*
X-18026378Y-39497613D01*
X-18204558Y-39484869D01*
X-18222069Y-39482351D01*
X-18413788Y-39440646D01*
X-18430764Y-39435662D01*
X-18614610Y-39367090D01*
X-18630702Y-39359740D01*
X-18802905Y-39265711D01*
X-18817790Y-39256146D01*
X-18974868Y-39138558D01*
X-18988238Y-39126972D01*
X-19126973Y-38988237D01*
X-19138559Y-38974867D01*
X-19256151Y-38817784D01*
X-19265712Y-38802904D01*
X-19359741Y-38630701D01*
X-19367091Y-38614609D01*
X-19427909Y-38451551D01*
X-19435666Y-38430755D01*
X-19440645Y-38413797D01*
X-19482353Y-38222063D01*
X-19484870Y-38204556D01*
X-19487481Y-38168056D01*
X-19499184Y-38004418D01*
X-19499342Y-37999997D01*
X-18755249Y-37999997D01*
X-18755249Y-38000002D01*
X-18736315Y-38168056D01*
X-18680455Y-38327694D01*
X-18680453Y-38327697D01*
X-18590482Y-38470884D01*
X-18590477Y-38470890D01*
X-18470891Y-38590476D01*
X-18470885Y-38590481D01*
X-18327698Y-38680452D01*
X-18327695Y-38680454D01*
X-18327691Y-38680455D01*
X-18327690Y-38680456D01*
X-18255087Y-38705860D01*
X-18168057Y-38736314D01*
X-18000003Y-38755249D01*
X-18000000Y-38755249D01*
X-17999997Y-38755249D01*
X-17831944Y-38736314D01*
X-17831941Y-38736313D01*
X-17672310Y-38680456D01*
X-17672308Y-38680454D01*
X-17672306Y-38680454D01*
X-17672303Y-38680452D01*
X-17529116Y-38590481D01*
X-17529115Y-38590480D01*
X-17529110Y-38590477D01*
X-17409523Y-38470890D01*
X-17379091Y-38422458D01*
X-17319548Y-38327697D01*
X-17319546Y-38327694D01*
X-17319546Y-38327692D01*
X-17319544Y-38327690D01*
X-17263687Y-38168059D01*
X-17263687Y-38168058D01*
X-17263686Y-38168056D01*
X-17244751Y-38000002D01*
X-17244751Y-37999997D01*
X-17263686Y-37831943D01*
X-17319546Y-37672305D01*
X-17319548Y-37672302D01*
X-17409519Y-37529115D01*
X-17409524Y-37529109D01*
X-17529110Y-37409523D01*
X-17529116Y-37409518D01*
X-17672303Y-37319547D01*
X-17672306Y-37319545D01*
X-17831944Y-37263685D01*
X-17999997Y-37244751D01*
X-18000003Y-37244751D01*
X-18168057Y-37263685D01*
X-18327695Y-37319545D01*
X-18327698Y-37319547D01*
X-18470885Y-37409518D01*
X-18470891Y-37409523D01*
X-18590477Y-37529109D01*
X-18590482Y-37529115D01*
X-18680453Y-37672302D01*
X-18680455Y-37672305D01*
X-18736315Y-37831943D01*
X-18755249Y-37999997D01*
X-19499342Y-37999997D01*
X-19499500Y-37995572D01*
X-19499500Y-35499997D01*
X-18755249Y-35499997D01*
X-18755249Y-35500002D01*
X-18736315Y-35668056D01*
X-18680455Y-35827694D01*
X-18680453Y-35827697D01*
X-18590482Y-35970884D01*
X-18590477Y-35970890D01*
X-18470891Y-36090476D01*
X-18470885Y-36090481D01*
X-18327698Y-36180452D01*
X-18327695Y-36180454D01*
X-18327691Y-36180455D01*
X-18327690Y-36180456D01*
X-18292927Y-36192620D01*
X-18168057Y-36236314D01*
X-18000003Y-36255249D01*
X-18000000Y-36255249D01*
X-17999997Y-36255249D01*
X-17831944Y-36236314D01*
X-17816360Y-36230861D01*
X-17672310Y-36180456D01*
X-17672308Y-36180454D01*
X-17672306Y-36180454D01*
X-17672303Y-36180452D01*
X-17529116Y-36090481D01*
X-17529115Y-36090480D01*
X-17529110Y-36090477D01*
X-17409523Y-35970890D01*
X-17392443Y-35943708D01*
X-17319548Y-35827697D01*
X-17319546Y-35827694D01*
X-17319546Y-35827692D01*
X-17319544Y-35827690D01*
X-17263687Y-35668059D01*
X-17263687Y-35668058D01*
X-17263686Y-35668056D01*
X-17244751Y-35500002D01*
X-17244751Y-35499997D01*
X-17263686Y-35331943D01*
X-17319546Y-35172305D01*
X-17319548Y-35172302D01*
X-17409519Y-35029115D01*
X-17409524Y-35029109D01*
X-17529110Y-34909523D01*
X-17529116Y-34909518D01*
X-17672303Y-34819547D01*
X-17672306Y-34819545D01*
X-17831944Y-34763685D01*
X-17999997Y-34744751D01*
X-18000003Y-34744751D01*
X-18168057Y-34763685D01*
X-18327695Y-34819545D01*
X-18327698Y-34819547D01*
X-18470885Y-34909518D01*
X-18470891Y-34909523D01*
X-18590477Y-35029109D01*
X-18590482Y-35029115D01*
X-18680453Y-35172302D01*
X-18680455Y-35172305D01*
X-18736315Y-35331943D01*
X-18755249Y-35499997D01*
X-19499500Y-35499997D01*
X-19499500Y-32999997D01*
X-18755249Y-32999997D01*
X-18755249Y-33000002D01*
X-18736315Y-33168056D01*
X-18680455Y-33327694D01*
X-18680453Y-33327697D01*
X-18590482Y-33470884D01*
X-18590477Y-33470890D01*
X-18470891Y-33590476D01*
X-18470885Y-33590481D01*
X-18327698Y-33680452D01*
X-18327695Y-33680454D01*
X-18327691Y-33680455D01*
X-18327690Y-33680456D01*
X-18255087Y-33705860D01*
X-18168057Y-33736314D01*
X-18000003Y-33755249D01*
X-18000000Y-33755249D01*
X-17999997Y-33755249D01*
X-17831944Y-33736314D01*
X-17831941Y-33736313D01*
X-17672310Y-33680456D01*
X-17672308Y-33680454D01*
X-17672306Y-33680454D01*
X-17672303Y-33680452D01*
X-17529116Y-33590481D01*
X-17529115Y-33590480D01*
X-17529110Y-33590477D01*
X-17409523Y-33470890D01*
X-17360342Y-33392620D01*
X-17319548Y-33327697D01*
X-17319546Y-33327694D01*
X-17319546Y-33327692D01*
X-17319544Y-33327690D01*
X-17263687Y-33168059D01*
X-17263687Y-33168058D01*
X-17263686Y-33168056D01*
X-17244751Y-33000002D01*
X-17244751Y-32999997D01*
X-17263686Y-32831943D01*
X-17319546Y-32672305D01*
X-17319548Y-32672302D01*
X-17409519Y-32529115D01*
X-17409524Y-32529109D01*
X-17529110Y-32409523D01*
X-17529116Y-32409518D01*
X-17672303Y-32319547D01*
X-17672306Y-32319545D01*
X-17831944Y-32263685D01*
X-17999997Y-32244751D01*
X-18000003Y-32244751D01*
X-18168057Y-32263685D01*
X-18327695Y-32319545D01*
X-18327698Y-32319547D01*
X-18470885Y-32409518D01*
X-18470891Y-32409523D01*
X-18590477Y-32529109D01*
X-18590482Y-32529115D01*
X-18680453Y-32672302D01*
X-18680455Y-32672305D01*
X-18736315Y-32831943D01*
X-18755249Y-32999997D01*
X-19499500Y-32999997D01*
X-19499500Y-28940000D01*
X-3070020Y-28940000D01*
X-3060763Y-29010316D01*
X-3051100Y-29083708D01*
X-3051099Y-29083712D01*
X-2995633Y-29217622D01*
X-2995632Y-29217624D01*
X-2995631Y-29217625D01*
X-2907391Y-29332621D01*
X-2792395Y-29420861D01*
X-2792394Y-29420861D01*
X-2792393Y-29420862D01*
X-2707049Y-29456212D01*
X-2652645Y-29500052D01*
X-2630580Y-29566346D01*
X-2630501Y-29570773D01*
X-2630501Y-33946322D01*
X-2618095Y-33992620D01*
X-2608141Y-34029770D01*
X-2590611Y-34060132D01*
X-2564946Y-34104585D01*
X-2564944Y-34104587D01*
X-735580Y-35933951D01*
X-702095Y-35995274D01*
X-707079Y-36064966D01*
X-747773Y-36120005D01*
X-757381Y-36127379D01*
X-769914Y-36143712D01*
X-845623Y-36242377D01*
X-901089Y-36376287D01*
X-901090Y-36376291D01*
X-920010Y-36519999D01*
X-920010Y-36520000D01*
X-901090Y-36663708D01*
X-901089Y-36663712D01*
X-845623Y-36797622D01*
X-845622Y-36797624D01*
X-845621Y-36797625D01*
X-757381Y-36912621D01*
X-642385Y-37000861D01*
X-508469Y-37056330D01*
X-381480Y-37073048D01*
X-364761Y-37075250D01*
X-364760Y-37075250D01*
X-364759Y-37075250D01*
X-349783Y-37073278D01*
X-221051Y-37056330D01*
X-87135Y-37000861D01*
X-75477Y-36991915D01*
X-10311Y-36966720D01*
X58135Y-36980757D01*
X75492Y-36991911D01*
X87155Y-37000861D01*
X221071Y-37056330D01*
X348060Y-37073048D01*
X364779Y-37075250D01*
X364780Y-37075250D01*
X364781Y-37075250D01*
X379757Y-37073278D01*
X508489Y-37056330D01*
X642405Y-37000861D01*
X757401Y-36912621D01*
X845641Y-36797625D01*
X901110Y-36663709D01*
X920030Y-36520000D01*
X901110Y-36376291D01*
X845641Y-36242375D01*
X757401Y-36127379D01*
X642405Y-36039139D01*
X633924Y-36035626D01*
X557058Y-36003787D01*
X502655Y-35959946D01*
X480590Y-35893652D01*
X480511Y-35889226D01*
X480511Y-35883689D01*
X473170Y-35856291D01*
X458151Y-35800241D01*
X458012Y-35800000D01*
X2494750Y-35800000D01*
X2502160Y-35856287D01*
X2513670Y-35943708D01*
X2513671Y-35943712D01*
X2569137Y-36077622D01*
X2569138Y-36077624D01*
X2569139Y-36077625D01*
X2657379Y-36192621D01*
X2772375Y-36280861D01*
X2772376Y-36280861D01*
X2772377Y-36280862D01*
X2817013Y-36299350D01*
X2906291Y-36336330D01*
X3033280Y-36353048D01*
X3049999Y-36355250D01*
X3050000Y-36355250D01*
X3050001Y-36355250D01*
X3064977Y-36353278D01*
X3193709Y-36336330D01*
X3327625Y-36280861D01*
X3442621Y-36192621D01*
X3530861Y-36077625D01*
X3586330Y-35943709D01*
X3605250Y-35800000D01*
X3598667Y-35750000D01*
X4644750Y-35750000D01*
X4663662Y-35893652D01*
X4663670Y-35893708D01*
X4663671Y-35893712D01*
X4719137Y-36027622D01*
X4719138Y-36027624D01*
X4719139Y-36027625D01*
X4807379Y-36142621D01*
X4922375Y-36230861D01*
X5056291Y-36286330D01*
X5183280Y-36303048D01*
X5199999Y-36305250D01*
X5200000Y-36305250D01*
X5200001Y-36305250D01*
X5214977Y-36303278D01*
X5343709Y-36286330D01*
X5477625Y-36230861D01*
X5592621Y-36142621D01*
X5680861Y-36027625D01*
X5692303Y-36000000D01*
X12944750Y-36000000D01*
X12952160Y-36056287D01*
X12963670Y-36143708D01*
X12963671Y-36143712D01*
X13019137Y-36277622D01*
X13019138Y-36277624D01*
X13019139Y-36277625D01*
X13107379Y-36392621D01*
X13222375Y-36480861D01*
X13356291Y-36536330D01*
X13483280Y-36553048D01*
X13499999Y-36555250D01*
X13500000Y-36555250D01*
X13500001Y-36555250D01*
X13514977Y-36553278D01*
X13643709Y-36536330D01*
X13777625Y-36480861D01*
X13892621Y-36392621D01*
X13980861Y-36277625D01*
X14013014Y-36200000D01*
X14744750Y-36200000D01*
X14762698Y-36336329D01*
X14763670Y-36343708D01*
X14763671Y-36343712D01*
X14819137Y-36477622D01*
X14819138Y-36477624D01*
X14819139Y-36477625D01*
X14907379Y-36592621D01*
X15022375Y-36680861D01*
X15156291Y-36736330D01*
X15283280Y-36753048D01*
X15299999Y-36755250D01*
X15300000Y-36755250D01*
X15300001Y-36755250D01*
X15314977Y-36753278D01*
X15443709Y-36736330D01*
X15577625Y-36680861D01*
X15692621Y-36592621D01*
X15780861Y-36477625D01*
X15836330Y-36343709D01*
X15855250Y-36200000D01*
X15836330Y-36056291D01*
X15780861Y-35922375D01*
X15692621Y-35807379D01*
X15577625Y-35719139D01*
X15577624Y-35719138D01*
X15577622Y-35719137D01*
X15443712Y-35663671D01*
X15443710Y-35663670D01*
X15443709Y-35663670D01*
X15371854Y-35654210D01*
X15300001Y-35644750D01*
X15299999Y-35644750D01*
X15156291Y-35663670D01*
X15156287Y-35663671D01*
X15022377Y-35719137D01*
X14907379Y-35807379D01*
X14819137Y-35922377D01*
X14763671Y-36056287D01*
X14763670Y-36056291D01*
X14745722Y-36192620D01*
X14744750Y-36200000D01*
X14013014Y-36200000D01*
X14036330Y-36143709D01*
X14055250Y-36000000D01*
X14036330Y-35856291D01*
X13999350Y-35767013D01*
X13980862Y-35722377D01*
X13980861Y-35722376D01*
X13980861Y-35722375D01*
X13892621Y-35607379D01*
X13777625Y-35519139D01*
X13777624Y-35519138D01*
X13777622Y-35519137D01*
X13643712Y-35463671D01*
X13643710Y-35463670D01*
X13643709Y-35463670D01*
X13571854Y-35454210D01*
X13500001Y-35444750D01*
X13499999Y-35444750D01*
X13356291Y-35463670D01*
X13356287Y-35463671D01*
X13222377Y-35519137D01*
X13107379Y-35607379D01*
X13019137Y-35722377D01*
X12963671Y-35856287D01*
X12963670Y-35856291D01*
X12944750Y-36000000D01*
X5692303Y-36000000D01*
X5736330Y-35893709D01*
X5755250Y-35750000D01*
X5736330Y-35606291D01*
X5692304Y-35500002D01*
X5680862Y-35472377D01*
X5680861Y-35472376D01*
X5680861Y-35472375D01*
X5592621Y-35357379D01*
X5477625Y-35269139D01*
X5477624Y-35269138D01*
X5477622Y-35269137D01*
X5343712Y-35213671D01*
X5343710Y-35213670D01*
X5343709Y-35213670D01*
X5271854Y-35204210D01*
X5200001Y-35194750D01*
X5199999Y-35194750D01*
X5056291Y-35213670D01*
X5056287Y-35213671D01*
X4922377Y-35269137D01*
X4807379Y-35357379D01*
X4719137Y-35472377D01*
X4663671Y-35606287D01*
X4663670Y-35606291D01*
X4644750Y-35750000D01*
X3598667Y-35750000D01*
X3586330Y-35656291D01*
X3530861Y-35522375D01*
X3442621Y-35407379D01*
X3327625Y-35319139D01*
X3327624Y-35319138D01*
X3327622Y-35319137D01*
X3193712Y-35263671D01*
X3193710Y-35263670D01*
X3193709Y-35263670D01*
X3121854Y-35254210D01*
X3050001Y-35244750D01*
X3049999Y-35244750D01*
X2906291Y-35263670D01*
X2906287Y-35263671D01*
X2772377Y-35319137D01*
X2657379Y-35407379D01*
X2569137Y-35522377D01*
X2513671Y-35656287D01*
X2513670Y-35656291D01*
X2504569Y-35725422D01*
X2494750Y-35800000D01*
X458012Y-35800000D01*
X414956Y-35725425D01*
X353869Y-35664338D01*
X-1633180Y-33677289D01*
X-1666665Y-33615966D01*
X-1668382Y-33600000D01*
X6344750Y-33600000D01*
X6362696Y-33736314D01*
X6363670Y-33743708D01*
X6363671Y-33743712D01*
X6419137Y-33877622D01*
X6419138Y-33877624D01*
X6419139Y-33877625D01*
X6507379Y-33992621D01*
X6622375Y-34080861D01*
X6756291Y-34136330D01*
X6883280Y-34153048D01*
X6899999Y-34155250D01*
X6900000Y-34155250D01*
X6900001Y-34155250D01*
X6914977Y-34153278D01*
X7043709Y-34136330D01*
X7177625Y-34080861D01*
X7292621Y-33992621D01*
X7301625Y-33980886D01*
X7358050Y-33939685D01*
X7427796Y-33935529D01*
X7488717Y-33969740D01*
X7498367Y-33980876D01*
X7507379Y-33992621D01*
X7622375Y-34080861D01*
X7756291Y-34136330D01*
X7883280Y-34153048D01*
X7899999Y-34155250D01*
X7900000Y-34155250D01*
X7900001Y-34155250D01*
X7914977Y-34153278D01*
X8043709Y-34136330D01*
X8177625Y-34080861D01*
X8292621Y-33992621D01*
X8380861Y-33877625D01*
X8436330Y-33743709D01*
X8455250Y-33600000D01*
X8436330Y-33456291D01*
X8386641Y-33336329D01*
X8380862Y-33322377D01*
X8380861Y-33322376D01*
X8380861Y-33322375D01*
X8292621Y-33207379D01*
X8177625Y-33119139D01*
X8177624Y-33119138D01*
X8177622Y-33119137D01*
X8043712Y-33063671D01*
X8043710Y-33063670D01*
X8043709Y-33063670D01*
X7971854Y-33054210D01*
X7900001Y-33044750D01*
X7899999Y-33044750D01*
X7756291Y-33063670D01*
X7756287Y-33063671D01*
X7622377Y-33119137D01*
X7590356Y-33143708D01*
X7507379Y-33207379D01*
X7507378Y-33207380D01*
X7507377Y-33207381D01*
X7498375Y-33219113D01*
X7441947Y-33260316D01*
X7372201Y-33264470D01*
X7311281Y-33230257D01*
X7301625Y-33219113D01*
X7299782Y-33216711D01*
X7292621Y-33207379D01*
X7177625Y-33119139D01*
X7177624Y-33119138D01*
X7177622Y-33119137D01*
X7043712Y-33063671D01*
X7043710Y-33063670D01*
X7043709Y-33063670D01*
X6971854Y-33054210D01*
X6900001Y-33044750D01*
X6899999Y-33044750D01*
X6756291Y-33063670D01*
X6756287Y-33063671D01*
X6622377Y-33119137D01*
X6507379Y-33207379D01*
X6419137Y-33322377D01*
X6363671Y-33456287D01*
X6363670Y-33456291D01*
X6350642Y-33555250D01*
X6344750Y-33600000D01*
X-1668382Y-33600000D01*
X-1669499Y-33589608D01*
X-1669499Y-32299999D01*
X2944750Y-32299999D01*
X2944750Y-32300000D01*
X2963670Y-32443708D01*
X2963671Y-32443712D01*
X3019137Y-32577622D01*
X3019138Y-32577624D01*
X3019139Y-32577625D01*
X3107379Y-32692621D01*
X3222375Y-32780861D01*
X3356291Y-32836330D01*
X3483280Y-32853048D01*
X3499999Y-32855250D01*
X3500000Y-32855250D01*
X3500001Y-32855250D01*
X3514977Y-32853278D01*
X3643709Y-32836330D01*
X3731419Y-32800000D01*
X12944750Y-32800000D01*
X12952160Y-32856287D01*
X12963670Y-32943708D01*
X12963671Y-32943712D01*
X13019137Y-33077622D01*
X13019138Y-33077624D01*
X13019139Y-33077625D01*
X13107379Y-33192621D01*
X13222375Y-33280861D01*
X13356291Y-33336330D01*
X13483280Y-33353048D01*
X13499999Y-33355250D01*
X13500000Y-33355250D01*
X13500001Y-33355250D01*
X13514977Y-33353278D01*
X13643709Y-33336330D01*
X13777625Y-33280861D01*
X13892621Y-33192621D01*
X13980861Y-33077625D01*
X14013014Y-33000000D01*
X14744750Y-33000000D01*
X14753132Y-33063670D01*
X14763670Y-33143708D01*
X14763671Y-33143712D01*
X14819137Y-33277622D01*
X14819138Y-33277624D01*
X14819139Y-33277625D01*
X14907379Y-33392621D01*
X15022375Y-33480861D01*
X15156291Y-33536330D01*
X15283280Y-33553048D01*
X15299999Y-33555250D01*
X15300000Y-33555250D01*
X15300001Y-33555250D01*
X15314977Y-33553278D01*
X15443709Y-33536330D01*
X15577625Y-33480861D01*
X15692621Y-33392621D01*
X15780861Y-33277625D01*
X15836330Y-33143709D01*
X15855250Y-33000000D01*
X15836330Y-32856291D01*
X15780861Y-32722375D01*
X15692621Y-32607379D01*
X15577625Y-32519139D01*
X15577624Y-32519138D01*
X15577622Y-32519137D01*
X15443712Y-32463671D01*
X15443710Y-32463670D01*
X15443709Y-32463670D01*
X15371854Y-32454210D01*
X15300001Y-32444750D01*
X15299999Y-32444750D01*
X15156291Y-32463670D01*
X15156287Y-32463671D01*
X15022377Y-32519137D01*
X14907379Y-32607379D01*
X14819137Y-32722377D01*
X14763671Y-32856287D01*
X14763670Y-32856291D01*
X14744750Y-33000000D01*
X14013014Y-33000000D01*
X14036330Y-32943709D01*
X14055250Y-32800000D01*
X14036330Y-32656291D01*
X13999350Y-32567013D01*
X13980862Y-32522377D01*
X13980861Y-32522376D01*
X13980861Y-32522375D01*
X13892621Y-32407379D01*
X13777625Y-32319139D01*
X13777624Y-32319138D01*
X13777622Y-32319137D01*
X13643712Y-32263671D01*
X13643710Y-32263670D01*
X13643709Y-32263670D01*
X13571854Y-32254210D01*
X13500001Y-32244750D01*
X13499999Y-32244750D01*
X13356291Y-32263670D01*
X13356287Y-32263671D01*
X13222377Y-32319137D01*
X13107379Y-32407379D01*
X13019137Y-32522377D01*
X12963671Y-32656287D01*
X12963670Y-32656291D01*
X12947270Y-32780862D01*
X12944750Y-32800000D01*
X3731419Y-32800000D01*
X3777625Y-32780861D01*
X3892621Y-32692621D01*
X3980861Y-32577625D01*
X4036330Y-32443709D01*
X4055250Y-32300000D01*
X4036330Y-32156291D01*
X3999350Y-32067013D01*
X3992303Y-32049999D01*
X5294750Y-32049999D01*
X5294750Y-32050000D01*
X5313670Y-32193708D01*
X5313671Y-32193712D01*
X5369137Y-32327622D01*
X5369138Y-32327624D01*
X5369139Y-32327625D01*
X5457379Y-32442621D01*
X5572375Y-32530861D01*
X5706291Y-32586330D01*
X5833280Y-32603048D01*
X5849999Y-32605250D01*
X5850000Y-32605250D01*
X5850001Y-32605250D01*
X5864977Y-32603278D01*
X5993709Y-32586330D01*
X6127625Y-32530861D01*
X6242621Y-32442621D01*
X6330861Y-32327625D01*
X6386330Y-32193709D01*
X6405250Y-32050000D01*
X6386330Y-31906291D01*
X6330861Y-31772375D01*
X6242621Y-31657379D01*
X6127625Y-31569139D01*
X6127624Y-31569138D01*
X6127622Y-31569137D01*
X5993712Y-31513671D01*
X5993710Y-31513670D01*
X5993709Y-31513670D01*
X5921854Y-31504210D01*
X5850001Y-31494750D01*
X5849999Y-31494750D01*
X5706291Y-31513670D01*
X5706287Y-31513671D01*
X5572377Y-31569137D01*
X5457379Y-31657379D01*
X5369137Y-31772377D01*
X5313671Y-31906287D01*
X5313670Y-31906291D01*
X5294750Y-32049999D01*
X3992303Y-32049999D01*
X3980862Y-32022377D01*
X3980861Y-32022376D01*
X3980861Y-32022375D01*
X3892621Y-31907379D01*
X3777625Y-31819139D01*
X3777624Y-31819138D01*
X3777622Y-31819137D01*
X3643712Y-31763671D01*
X3643710Y-31763670D01*
X3643709Y-31763670D01*
X3571854Y-31754210D01*
X3500001Y-31744750D01*
X3499999Y-31744750D01*
X3356291Y-31763670D01*
X3356287Y-31763671D01*
X3222377Y-31819137D01*
X3107379Y-31907379D01*
X3019137Y-32022377D01*
X2963671Y-32156287D01*
X2963670Y-32156291D01*
X2944750Y-32299999D01*
X-1669499Y-32299999D01*
X-1669499Y-31199999D01*
X4244750Y-31199999D01*
X4244750Y-31200000D01*
X4263670Y-31343708D01*
X4263671Y-31343712D01*
X4319137Y-31477622D01*
X4319138Y-31477624D01*
X4319139Y-31477625D01*
X4407379Y-31592621D01*
X4522375Y-31680861D01*
X4656291Y-31736330D01*
X4783280Y-31753048D01*
X4799999Y-31755250D01*
X4800000Y-31755250D01*
X4800001Y-31755250D01*
X4814977Y-31753278D01*
X4943709Y-31736330D01*
X5077625Y-31680861D01*
X5192621Y-31592621D01*
X5280861Y-31477625D01*
X5336330Y-31343709D01*
X5355250Y-31200000D01*
X5336330Y-31056291D01*
X5280861Y-30922375D01*
X5192621Y-30807379D01*
X5077625Y-30719139D01*
X5077624Y-30719138D01*
X5077622Y-30719137D01*
X4943712Y-30663671D01*
X4943710Y-30663670D01*
X4943709Y-30663670D01*
X4871854Y-30654210D01*
X4800001Y-30644750D01*
X4799999Y-30644750D01*
X4656291Y-30663670D01*
X4656287Y-30663671D01*
X4522377Y-30719137D01*
X4407379Y-30807379D01*
X4319137Y-30922377D01*
X4263671Y-31056287D01*
X4263670Y-31056291D01*
X4244750Y-31199999D01*
X-1669499Y-31199999D01*
X-1669499Y-29999999D01*
X10141197Y-29999999D01*
X10141197Y-30000000D01*
X10160117Y-30143708D01*
X10160118Y-30143712D01*
X10215584Y-30277622D01*
X10215585Y-30277624D01*
X10215586Y-30277625D01*
X10303826Y-30392621D01*
X10418822Y-30480861D01*
X10552738Y-30536330D01*
X10679727Y-30553048D01*
X10696446Y-30555250D01*
X10696447Y-30555250D01*
X10696448Y-30555250D01*
X10711424Y-30553278D01*
X10840156Y-30536330D01*
X10974072Y-30480861D01*
X11089068Y-30392621D01*
X11177308Y-30277625D01*
X11232777Y-30143709D01*
X11251697Y-30000000D01*
X11251697Y-29999999D01*
X11252758Y-29991942D01*
X11256122Y-29992385D01*
X11271382Y-29940419D01*
X11324186Y-29894664D01*
X11393344Y-29884720D01*
X11398419Y-29885761D01*
X11402736Y-29886329D01*
X11402738Y-29886330D01*
X11508527Y-29900257D01*
X11546446Y-29905250D01*
X11546447Y-29905250D01*
X11546448Y-29905250D01*
X11561424Y-29903278D01*
X11690156Y-29886330D01*
X11824072Y-29830861D01*
X11939068Y-29742621D01*
X11948072Y-29730886D01*
X12004497Y-29689685D01*
X12074243Y-29685529D01*
X12135164Y-29719740D01*
X12144814Y-29730876D01*
X12153826Y-29742621D01*
X12268822Y-29830861D01*
X12402738Y-29886330D01*
X12529727Y-29903048D01*
X12546446Y-29905250D01*
X12546447Y-29905250D01*
X12546448Y-29905250D01*
X12561424Y-29903278D01*
X12690156Y-29886330D01*
X12824072Y-29830861D01*
X12939068Y-29742621D01*
X13027308Y-29627625D01*
X13082777Y-29493709D01*
X13101697Y-29350000D01*
X13082777Y-29206291D01*
X13080171Y-29199999D01*
X17067974Y-29199999D01*
X17067974Y-29200000D01*
X17086894Y-29343708D01*
X17086895Y-29343712D01*
X17142361Y-29477622D01*
X17142362Y-29477624D01*
X17142363Y-29477625D01*
X17230603Y-29592621D01*
X17345599Y-29680861D01*
X17345600Y-29680861D01*
X17345601Y-29680862D01*
X17366902Y-29689685D01*
X17479515Y-29736330D01*
X17606504Y-29753048D01*
X17623223Y-29755250D01*
X17623224Y-29755250D01*
X17623225Y-29755250D01*
X17638201Y-29753278D01*
X17766933Y-29736330D01*
X17900849Y-29680861D01*
X18015845Y-29592621D01*
X18104085Y-29477625D01*
X18159554Y-29343709D01*
X18178474Y-29200000D01*
X18159554Y-29056291D01*
X18118584Y-28957379D01*
X18104086Y-28922377D01*
X18104085Y-28922376D01*
X18104085Y-28922375D01*
X18015845Y-28807379D01*
X17900849Y-28719139D01*
X17900848Y-28719138D01*
X17900846Y-28719137D01*
X17766936Y-28663671D01*
X17766934Y-28663670D01*
X17766933Y-28663670D01*
X17695078Y-28654210D01*
X17623225Y-28644750D01*
X17623223Y-28644750D01*
X17479515Y-28663670D01*
X17479511Y-28663671D01*
X17345601Y-28719137D01*
X17230603Y-28807379D01*
X17142361Y-28922377D01*
X17086895Y-29056287D01*
X17086894Y-29056291D01*
X17067974Y-29199999D01*
X13080171Y-29199999D01*
X13027308Y-29072375D01*
X12939068Y-28957379D01*
X12824072Y-28869139D01*
X12824071Y-28869138D01*
X12824069Y-28869137D01*
X12690159Y-28813671D01*
X12690157Y-28813670D01*
X12690156Y-28813670D01*
X12618301Y-28804210D01*
X12546448Y-28794750D01*
X12546446Y-28794750D01*
X12402738Y-28813670D01*
X12402734Y-28813671D01*
X12268824Y-28869137D01*
X12228603Y-28900000D01*
X12153826Y-28957379D01*
X12153825Y-28957380D01*
X12153824Y-28957381D01*
X12144822Y-28969113D01*
X12088394Y-29010316D01*
X12018648Y-29014470D01*
X11957728Y-28980257D01*
X11948072Y-28969113D01*
X11946229Y-28966711D01*
X11939068Y-28957379D01*
X11824072Y-28869139D01*
X11824071Y-28869138D01*
X11824069Y-28869137D01*
X11690159Y-28813671D01*
X11690157Y-28813670D01*
X11690156Y-28813670D01*
X11618301Y-28804210D01*
X11546448Y-28794750D01*
X11546446Y-28794750D01*
X11402738Y-28813670D01*
X11402734Y-28813671D01*
X11268824Y-28869137D01*
X11153826Y-28957379D01*
X11065584Y-29072377D01*
X11010118Y-29206287D01*
X11010117Y-29206291D01*
X10990136Y-29358058D01*
X10986770Y-29357614D01*
X10971512Y-29409580D01*
X10918708Y-29455335D01*
X10849550Y-29465279D01*
X10844474Y-29464238D01*
X10696448Y-29444750D01*
X10696446Y-29444750D01*
X10552738Y-29463670D01*
X10552734Y-29463671D01*
X10418824Y-29519137D01*
X10303826Y-29607379D01*
X10215584Y-29722377D01*
X10160118Y-29856287D01*
X10160117Y-29856291D01*
X10141197Y-29999999D01*
X-1669499Y-29999999D01*
X-1669499Y-29570773D01*
X-1649814Y-29503734D01*
X-1597010Y-29457979D01*
X-1592951Y-29456212D01*
X-1544946Y-29436328D01*
X-1507605Y-29420861D01*
X-1392609Y-29332621D01*
X-1304369Y-29217625D01*
X-1248900Y-29083709D01*
X-1229980Y-28940000D01*
X-1235246Y-28900000D01*
X5744750Y-28900000D01*
X5752304Y-28957381D01*
X5763670Y-29043708D01*
X5763671Y-29043712D01*
X5819137Y-29177622D01*
X5819138Y-29177624D01*
X5819139Y-29177625D01*
X5907379Y-29292621D01*
X6022375Y-29380861D01*
X6156291Y-29436330D01*
X6283280Y-29453048D01*
X6299999Y-29455250D01*
X6300000Y-29455250D01*
X6300001Y-29455250D01*
X6314977Y-29453278D01*
X6443709Y-29436330D01*
X6577625Y-29380861D01*
X6692621Y-29292621D01*
X6780861Y-29177625D01*
X6836330Y-29043709D01*
X6855250Y-28900000D01*
X6836330Y-28756291D01*
X6786641Y-28636329D01*
X6780862Y-28622377D01*
X6780861Y-28622376D01*
X6780861Y-28622375D01*
X6692621Y-28507379D01*
X6577625Y-28419139D01*
X6577624Y-28419138D01*
X6577622Y-28419137D01*
X6443712Y-28363671D01*
X6443710Y-28363670D01*
X6443709Y-28363670D01*
X6371854Y-28354210D01*
X6300001Y-28344750D01*
X6299999Y-28344750D01*
X6156291Y-28363670D01*
X6156287Y-28363671D01*
X6022377Y-28419137D01*
X5907379Y-28507379D01*
X5819137Y-28622377D01*
X5763671Y-28756287D01*
X5763670Y-28756291D01*
X5744750Y-28900000D01*
X-1235246Y-28900000D01*
X-1248900Y-28796291D01*
X-1303832Y-28663671D01*
X-1304368Y-28662377D01*
X-1304369Y-28662376D01*
X-1304369Y-28662375D01*
X-1392609Y-28547379D01*
X-1507605Y-28459139D01*
X-1507606Y-28459138D01*
X-1507608Y-28459137D01*
X-1641518Y-28403671D01*
X-1641520Y-28403670D01*
X-1641521Y-28403670D01*
X-1713376Y-28394210D01*
X-1785229Y-28384750D01*
X-1785231Y-28384750D01*
X-1928939Y-28403670D01*
X-1928943Y-28403671D01*
X-2062854Y-28459138D01*
X-2062856Y-28459139D01*
X-2074514Y-28468085D01*
X-2139684Y-28493279D01*
X-2208128Y-28479240D01*
X-2225486Y-28468085D01*
X-2237145Y-28459139D01*
X-2237147Y-28459138D01*
X-2371058Y-28403671D01*
X-2371060Y-28403670D01*
X-2371061Y-28403670D01*
X-2442916Y-28394210D01*
X-2514769Y-28384750D01*
X-2514771Y-28384750D01*
X-2658479Y-28403670D01*
X-2658483Y-28403671D01*
X-2792393Y-28459137D01*
X-2907391Y-28547379D01*
X-2995633Y-28662377D01*
X-3051099Y-28796287D01*
X-3051100Y-28796291D01*
X-3070020Y-28940000D01*
X-19499500Y-28940000D01*
X-19499500Y-27299999D01*
X8591197Y-27299999D01*
X8591197Y-27300000D01*
X8610117Y-27443708D01*
X8610118Y-27443712D01*
X8665584Y-27577622D01*
X8665585Y-27577624D01*
X8665586Y-27577625D01*
X8753826Y-27692621D01*
X8868822Y-27780861D01*
X9002738Y-27836330D01*
X9146447Y-27855250D01*
X9146447Y-27855249D01*
X9148317Y-27855496D01*
X9212213Y-27883763D01*
X9250684Y-27942087D01*
X9255070Y-27994620D01*
X9241197Y-28099997D01*
X9241197Y-28100000D01*
X9260117Y-28243708D01*
X9260118Y-28243712D01*
X9315584Y-28377622D01*
X9315585Y-28377624D01*
X9315586Y-28377625D01*
X9403826Y-28492621D01*
X9518822Y-28580861D01*
X9652738Y-28636330D01*
X9779727Y-28653048D01*
X9796446Y-28655250D01*
X9796447Y-28655250D01*
X9796448Y-28655250D01*
X9811424Y-28653278D01*
X9940156Y-28636330D01*
X10074072Y-28580861D01*
X10189068Y-28492621D01*
X10277308Y-28377625D01*
X10332777Y-28243709D01*
X10351697Y-28100000D01*
X10332777Y-27956291D01*
X10283088Y-27836329D01*
X10277309Y-27822377D01*
X10277308Y-27822376D01*
X10277308Y-27822375D01*
X10189068Y-27707379D01*
X10074072Y-27619139D01*
X10074071Y-27619138D01*
X10074069Y-27619137D01*
X9940159Y-27563671D01*
X9940157Y-27563670D01*
X9940156Y-27563670D01*
X9899240Y-27558283D01*
X9794576Y-27544503D01*
X9730679Y-27516236D01*
X9692209Y-27457911D01*
X9687823Y-27405378D01*
X9701697Y-27300000D01*
X9701697Y-27299999D01*
X9699495Y-27283280D01*
X9682777Y-27156291D01*
X9645797Y-27067013D01*
X9627309Y-27022377D01*
X9627308Y-27022376D01*
X9627308Y-27022375D01*
X9539068Y-26907379D01*
X9424072Y-26819139D01*
X9424071Y-26819138D01*
X9424069Y-26819137D01*
X9290159Y-26763671D01*
X9290157Y-26763670D01*
X9290156Y-26763670D01*
X9218301Y-26754210D01*
X9146448Y-26744750D01*
X9146446Y-26744750D01*
X9002738Y-26763670D01*
X9002734Y-26763671D01*
X8868824Y-26819137D01*
X8753826Y-26907379D01*
X8665584Y-27022377D01*
X8610118Y-27156287D01*
X8610117Y-27156291D01*
X8591197Y-27299999D01*
X-19499500Y-27299999D01*
X-19499500Y-26599999D01*
X-17005250Y-26599999D01*
X-17005250Y-26600000D01*
X-16986330Y-26743708D01*
X-16986329Y-26743712D01*
X-16930863Y-26877622D01*
X-16930862Y-26877624D01*
X-16930861Y-26877625D01*
X-16842621Y-26992621D01*
X-16727625Y-27080861D01*
X-16727624Y-27080861D01*
X-16727623Y-27080862D01*
X-16682987Y-27099350D01*
X-16593709Y-27136330D01*
X-16466720Y-27153048D01*
X-16450001Y-27155250D01*
X-16450000Y-27155250D01*
X-16449999Y-27155250D01*
X-16435023Y-27153278D01*
X-16306291Y-27136330D01*
X-16172375Y-27080861D01*
X-16057379Y-26992621D01*
X-15969139Y-26877625D01*
X-15913670Y-26743709D01*
X-15894750Y-26600000D01*
X-15901333Y-26549999D01*
X-11655250Y-26549999D01*
X-11655250Y-26550000D01*
X-11636330Y-26693708D01*
X-11636329Y-26693712D01*
X-11580863Y-26827622D01*
X-11580862Y-26827624D01*
X-11580861Y-26827625D01*
X-11492621Y-26942621D01*
X-11377625Y-27030861D01*
X-11243709Y-27086330D01*
X-11116720Y-27103048D01*
X-11100001Y-27105250D01*
X-11100000Y-27105250D01*
X-11099999Y-27105250D01*
X-11085023Y-27103278D01*
X-10956291Y-27086330D01*
X-10822375Y-27030861D01*
X-10707379Y-26942621D01*
X-10619139Y-26827625D01*
X-10563670Y-26693709D01*
X-10544750Y-26550000D01*
X-10563670Y-26406291D01*
X-10619139Y-26272375D01*
X-10619140Y-26272374D01*
X-10619140Y-26272373D01*
X-10660319Y-26218708D01*
X-10679224Y-26194071D01*
X-10704418Y-26128904D01*
X-10693362Y-26074999D01*
X-5355250Y-26074999D01*
X-5355250Y-26075000D01*
X-5336330Y-26218708D01*
X-5336329Y-26218712D01*
X-5280863Y-26352622D01*
X-5280862Y-26352624D01*
X-5280861Y-26352625D01*
X-5192621Y-26467621D01*
X-5077625Y-26555861D01*
X-4943709Y-26611330D01*
X-4819961Y-26627622D01*
X-4800001Y-26630250D01*
X-4800000Y-26630250D01*
X-4799999Y-26630250D01*
X-4780039Y-26627622D01*
X-4656291Y-26611330D01*
X-4522375Y-26555861D01*
X-4407379Y-26467621D01*
X-4319139Y-26352625D01*
X-4318052Y-26350000D01*
X3094750Y-26350000D01*
X3102160Y-26406287D01*
X3113670Y-26493708D01*
X3113671Y-26493712D01*
X3169137Y-26627622D01*
X3169138Y-26627624D01*
X3169139Y-26627625D01*
X3257379Y-26742621D01*
X3372375Y-26830861D01*
X3506291Y-26886330D01*
X3633280Y-26903048D01*
X3649999Y-26905250D01*
X3650000Y-26905250D01*
X3650001Y-26905250D01*
X3664977Y-26903278D01*
X3793709Y-26886330D01*
X3927625Y-26830861D01*
X4042621Y-26742621D01*
X4130861Y-26627625D01*
X4186330Y-26493709D01*
X4205250Y-26350000D01*
X4186330Y-26206291D01*
X4130861Y-26072375D01*
X4042621Y-25957379D01*
X3927625Y-25869139D01*
X3927624Y-25869138D01*
X3927622Y-25869137D01*
X3793712Y-25813671D01*
X3793710Y-25813670D01*
X3793709Y-25813670D01*
X3669954Y-25797377D01*
X3650001Y-25794750D01*
X3649999Y-25794750D01*
X3506291Y-25813670D01*
X3506287Y-25813671D01*
X3372377Y-25869137D01*
X3257379Y-25957379D01*
X3169137Y-26072377D01*
X3113671Y-26206287D01*
X3113670Y-26206291D01*
X3094750Y-26350000D01*
X-4318052Y-26350000D01*
X-4263670Y-26218709D01*
X-4244750Y-26075000D01*
X-4245096Y-26072375D01*
X-4247500Y-26054110D01*
X-4263670Y-25931291D01*
X-4319139Y-25797375D01*
X-4407379Y-25682379D01*
X-4446354Y-25652472D01*
X-4487556Y-25596044D01*
X-4491711Y-25526298D01*
X-4457498Y-25465378D01*
X-4418322Y-25439537D01*
X-4397375Y-25430861D01*
X-4282379Y-25342621D01*
X-4194139Y-25227625D01*
X-4138670Y-25093709D01*
X-4119750Y-24950000D01*
X-4138670Y-24806291D01*
X-4179641Y-24707377D01*
X-4194138Y-24672377D01*
X-4194139Y-24672376D01*
X-4194139Y-24672375D01*
X-4282379Y-24557379D01*
X-4397375Y-24469139D01*
X-4397376Y-24469138D01*
X-4397378Y-24469137D01*
X-4531288Y-24413671D01*
X-4531290Y-24413670D01*
X-4531291Y-24413670D01*
X-4635123Y-24400000D01*
X-4674999Y-24394750D01*
X-4675001Y-24394750D01*
X-4818709Y-24413670D01*
X-4818713Y-24413671D01*
X-4952623Y-24469137D01*
X-5067621Y-24557379D01*
X-5155863Y-24672377D01*
X-5211329Y-24806287D01*
X-5211330Y-24806291D01*
X-5230250Y-24950000D01*
X-5221148Y-25019139D01*
X-5211330Y-25093708D01*
X-5211329Y-25093712D01*
X-5155863Y-25227622D01*
X-5155862Y-25227624D01*
X-5155861Y-25227625D01*
X-5067621Y-25342621D01*
X-5028646Y-25372528D01*
X-4987445Y-25428954D01*
X-4983290Y-25498700D01*
X-5017503Y-25559621D01*
X-5056679Y-25585462D01*
X-5077622Y-25594137D01*
X-5077625Y-25594138D01*
X-5077625Y-25594139D01*
X-5142229Y-25643712D01*
X-5192621Y-25682379D01*
X-5280863Y-25797377D01*
X-5336329Y-25931287D01*
X-5336330Y-25931291D01*
X-5355250Y-26074999D01*
X-10693362Y-26074999D01*
X-10690380Y-26060459D01*
X-10641567Y-26010469D01*
X-10628315Y-26004031D01*
X-10572375Y-25980861D01*
X-10457379Y-25892621D01*
X-10369139Y-25777625D01*
X-10313670Y-25643709D01*
X-10294750Y-25500000D01*
X-10313670Y-25356291D01*
X-10365446Y-25231291D01*
X-10369138Y-25222377D01*
X-10369139Y-25222376D01*
X-10369139Y-25222375D01*
X-10457379Y-25107379D01*
X-10572375Y-25019139D01*
X-10572376Y-25019138D01*
X-10572378Y-25019137D01*
X-10706288Y-24963671D01*
X-10706290Y-24963670D01*
X-10706291Y-24963670D01*
X-10810123Y-24950000D01*
X-10849999Y-24944750D01*
X-10850001Y-24944750D01*
X-10993709Y-24963670D01*
X-10993713Y-24963671D01*
X-11127623Y-25019137D01*
X-11242621Y-25107379D01*
X-11330863Y-25222377D01*
X-11386329Y-25356287D01*
X-11386330Y-25356291D01*
X-11404278Y-25492620D01*
X-11405250Y-25500000D01*
X-11387302Y-25636329D01*
X-11386330Y-25643708D01*
X-11386329Y-25643712D01*
X-11330862Y-25777623D01*
X-11330861Y-25777626D01*
X-11270778Y-25855926D01*
X-11245583Y-25921095D01*
X-11259621Y-25989540D01*
X-11308435Y-26039530D01*
X-11321700Y-26045974D01*
X-11377624Y-26069138D01*
X-11492621Y-26157379D01*
X-11580863Y-26272377D01*
X-11636329Y-26406287D01*
X-11636330Y-26406291D01*
X-11655250Y-26549999D01*
X-15901333Y-26549999D01*
X-15913670Y-26456291D01*
X-15956610Y-26352622D01*
X-15969138Y-26322377D01*
X-15969139Y-26322376D01*
X-15969139Y-26322375D01*
X-16057379Y-26207379D01*
X-16172375Y-26119139D01*
X-16172376Y-26119138D01*
X-16172378Y-26119137D01*
X-16306288Y-26063671D01*
X-16306290Y-26063670D01*
X-16306291Y-26063670D01*
X-16378905Y-26054110D01*
X-16449999Y-26044750D01*
X-16450001Y-26044750D01*
X-16593709Y-26063670D01*
X-16593713Y-26063671D01*
X-16727623Y-26119137D01*
X-16842621Y-26207379D01*
X-16930863Y-26322377D01*
X-16986329Y-26456287D01*
X-16986330Y-26456291D01*
X-17005250Y-26599999D01*
X-19499500Y-26599999D01*
X-19499500Y-22299999D01*
X-6455250Y-22299999D01*
X-6455250Y-22300000D01*
X-6436330Y-22443708D01*
X-6436329Y-22443712D01*
X-6380863Y-22577622D01*
X-6380862Y-22577624D01*
X-6380861Y-22577625D01*
X-6292621Y-22692621D01*
X-6177625Y-22780861D01*
X-6177624Y-22780861D01*
X-6177623Y-22780862D01*
X-6044498Y-22836003D01*
X-5990094Y-22879843D01*
X-5968029Y-22946137D01*
X-5985308Y-23013837D01*
X-6016462Y-23048939D01*
X-6092620Y-23107378D01*
X-6180863Y-23222377D01*
X-6236329Y-23356287D01*
X-6236330Y-23356291D01*
X-6252730Y-23480862D01*
X-6255250Y-23500000D01*
X-6246148Y-23569139D01*
X-6236330Y-23643708D01*
X-6236329Y-23643712D01*
X-6180863Y-23777622D01*
X-6180862Y-23777624D01*
X-6180861Y-23777625D01*
X-6092621Y-23892621D01*
X-5977625Y-23980861D01*
X-5843709Y-24036330D01*
X-5716720Y-24053048D01*
X-5700001Y-24055250D01*
X-5700000Y-24055250D01*
X-5699999Y-24055250D01*
X-5685023Y-24053278D01*
X-5556291Y-24036330D01*
X-5422375Y-23980861D01*
X-5307379Y-23892621D01*
X-5219139Y-23777625D01*
X-5163670Y-23643709D01*
X-5144750Y-23500000D01*
X-5163670Y-23356291D01*
X-5219139Y-23222375D01*
X-5307379Y-23107379D01*
X-5422375Y-23019139D01*
X-5422376Y-23019138D01*
X-5422378Y-23019137D01*
X-5468582Y-22999999D01*
X3144750Y-22999999D01*
X3144750Y-23000000D01*
X3163670Y-23143708D01*
X3163671Y-23143712D01*
X3219137Y-23277622D01*
X3219138Y-23277624D01*
X3219139Y-23277625D01*
X3307379Y-23392621D01*
X3422375Y-23480861D01*
X3422376Y-23480861D01*
X3422377Y-23480862D01*
X3457589Y-23495447D01*
X3556291Y-23536330D01*
X3683280Y-23553048D01*
X3699999Y-23555250D01*
X3700000Y-23555250D01*
X3700001Y-23555250D01*
X3714977Y-23553278D01*
X3843709Y-23536330D01*
X3977625Y-23480861D01*
X4073797Y-23407064D01*
X4138966Y-23381870D01*
X4207411Y-23395908D01*
X4247658Y-23429952D01*
X4257379Y-23442621D01*
X4372375Y-23530861D01*
X4372376Y-23530861D01*
X4372377Y-23530862D01*
X4417013Y-23549350D01*
X4506291Y-23586330D01*
X4644699Y-23604552D01*
X4708595Y-23632819D01*
X4747066Y-23691143D01*
X4747897Y-23761008D01*
X4743075Y-23774942D01*
X4688670Y-23906291D01*
X4669750Y-24049999D01*
X4669750Y-24050000D01*
X4688670Y-24193708D01*
X4688671Y-24193712D01*
X4744137Y-24327622D01*
X4744138Y-24327624D01*
X4744139Y-24327625D01*
X4832379Y-24442621D01*
X4889194Y-24486217D01*
X4930395Y-24542643D01*
X4934550Y-24612389D01*
X4900338Y-24673310D01*
X4889195Y-24682965D01*
X4857380Y-24707377D01*
X4769137Y-24822377D01*
X4713671Y-24956287D01*
X4713670Y-24956291D01*
X4695096Y-25097375D01*
X4694750Y-25100000D01*
X4711552Y-25227625D01*
X4713670Y-25243708D01*
X4713671Y-25243712D01*
X4769137Y-25377622D01*
X4769138Y-25377624D01*
X4769139Y-25377625D01*
X4857379Y-25492621D01*
X4972375Y-25580861D01*
X4972376Y-25580861D01*
X4972377Y-25580862D01*
X5017013Y-25599350D01*
X5106291Y-25636330D01*
X5230039Y-25652622D01*
X5249999Y-25655250D01*
X5250000Y-25655250D01*
X5250001Y-25655250D01*
X5269961Y-25652622D01*
X5393709Y-25636330D01*
X5527625Y-25580861D01*
X5642621Y-25492621D01*
X5730861Y-25377625D01*
X5786330Y-25243709D01*
X5805250Y-25100000D01*
X5804904Y-25097375D01*
X5794604Y-25019139D01*
X5786330Y-24956291D01*
X5730861Y-24822375D01*
X5642621Y-24707379D01*
X5585804Y-24663781D01*
X5544604Y-24607356D01*
X5540449Y-24537609D01*
X5574662Y-24476689D01*
X5585798Y-24467039D01*
X5617621Y-24442621D01*
X5650325Y-24400000D01*
X7866197Y-24400000D01*
X7883425Y-24530861D01*
X7885117Y-24543708D01*
X7885118Y-24543712D01*
X7940584Y-24677622D01*
X7940585Y-24677624D01*
X7940586Y-24677625D01*
X8028826Y-24792621D01*
X8028828Y-24792622D01*
X8028830Y-24792625D01*
X8034573Y-24798368D01*
X8032522Y-24800418D01*
X8065482Y-24845581D01*
X8069619Y-24915328D01*
X8035391Y-24976240D01*
X8032198Y-24979006D01*
X8028830Y-24982374D01*
X7940584Y-25097377D01*
X7885118Y-25231287D01*
X7885117Y-25231291D01*
X7866197Y-25374999D01*
X7866197Y-25375000D01*
X7885117Y-25518708D01*
X7885118Y-25518712D01*
X7940584Y-25652622D01*
X7940585Y-25652624D01*
X7940586Y-25652625D01*
X8028826Y-25767621D01*
X8143822Y-25855861D01*
X8143823Y-25855861D01*
X8143824Y-25855862D01*
X8175878Y-25869139D01*
X8277738Y-25911330D01*
X8404727Y-25928048D01*
X8421446Y-25930250D01*
X8421447Y-25930250D01*
X8421448Y-25930250D01*
X8436424Y-25928278D01*
X8565156Y-25911330D01*
X8699072Y-25855861D01*
X8814068Y-25767621D01*
X8902308Y-25652625D01*
X8957777Y-25518709D01*
X8976697Y-25375000D01*
X8957777Y-25231291D01*
X8902308Y-25097375D01*
X8814068Y-24982379D01*
X8814065Y-24982376D01*
X8814063Y-24982374D01*
X8808321Y-24976632D01*
X8810375Y-24974577D01*
X8777422Y-24929449D01*
X8773267Y-24859703D01*
X8807479Y-24798782D01*
X8810684Y-24796004D01*
X8814063Y-24792625D01*
X8814063Y-24792624D01*
X8814068Y-24792621D01*
X8902308Y-24677625D01*
X8957777Y-24543709D01*
X8976697Y-24400000D01*
X15116197Y-24400000D01*
X15133425Y-24530861D01*
X15135117Y-24543708D01*
X15135118Y-24543712D01*
X15190584Y-24677622D01*
X15190585Y-24677624D01*
X15190586Y-24677625D01*
X15278826Y-24792621D01*
X15278828Y-24792622D01*
X15278830Y-24792625D01*
X15284573Y-24798368D01*
X15282522Y-24800418D01*
X15315482Y-24845581D01*
X15319619Y-24915328D01*
X15285391Y-24976240D01*
X15282198Y-24979006D01*
X15278830Y-24982374D01*
X15190584Y-25097377D01*
X15135118Y-25231287D01*
X15135117Y-25231291D01*
X15116197Y-25374999D01*
X15116197Y-25375000D01*
X15135117Y-25518708D01*
X15135118Y-25518712D01*
X15190584Y-25652622D01*
X15190585Y-25652624D01*
X15190586Y-25652625D01*
X15278826Y-25767621D01*
X15393822Y-25855861D01*
X15393823Y-25855861D01*
X15393824Y-25855862D01*
X15425878Y-25869139D01*
X15527738Y-25911330D01*
X15654727Y-25928048D01*
X15671446Y-25930250D01*
X15671447Y-25930250D01*
X15671448Y-25930250D01*
X15686424Y-25928278D01*
X15815156Y-25911330D01*
X15949072Y-25855861D01*
X16064068Y-25767621D01*
X16152308Y-25652625D01*
X16207777Y-25518709D01*
X16226697Y-25375000D01*
X16207777Y-25231291D01*
X16152308Y-25097375D01*
X16064068Y-24982379D01*
X16064065Y-24982376D01*
X16064063Y-24982374D01*
X16058321Y-24976632D01*
X16060375Y-24974577D01*
X16027422Y-24929449D01*
X16023267Y-24859703D01*
X16057479Y-24798782D01*
X16060684Y-24796004D01*
X16064063Y-24792625D01*
X16064063Y-24792624D01*
X16064068Y-24792621D01*
X16152308Y-24677625D01*
X16207777Y-24543709D01*
X16226697Y-24400000D01*
X16207777Y-24256291D01*
X16152308Y-24122375D01*
X16064068Y-24007379D01*
X15949072Y-23919139D01*
X15949071Y-23919138D01*
X15949069Y-23919137D01*
X15815159Y-23863671D01*
X15815157Y-23863670D01*
X15815156Y-23863670D01*
X15743301Y-23854210D01*
X15671448Y-23844750D01*
X15671446Y-23844750D01*
X15527738Y-23863670D01*
X15527734Y-23863671D01*
X15393824Y-23919137D01*
X15278826Y-24007379D01*
X15190584Y-24122377D01*
X15135118Y-24256287D01*
X15135117Y-24256291D01*
X15125726Y-24327625D01*
X15116197Y-24400000D01*
X8976697Y-24400000D01*
X8957777Y-24256291D01*
X8902308Y-24122375D01*
X8814068Y-24007379D01*
X8699072Y-23919139D01*
X8699071Y-23919138D01*
X8699069Y-23919137D01*
X8565159Y-23863671D01*
X8565157Y-23863670D01*
X8565156Y-23863670D01*
X8493301Y-23854210D01*
X8421448Y-23844750D01*
X8421446Y-23844750D01*
X8277738Y-23863670D01*
X8277734Y-23863671D01*
X8143824Y-23919137D01*
X8028826Y-24007379D01*
X7940584Y-24122377D01*
X7885118Y-24256287D01*
X7885117Y-24256291D01*
X7875726Y-24327625D01*
X7866197Y-24400000D01*
X5650325Y-24400000D01*
X5705861Y-24327625D01*
X5761330Y-24193709D01*
X5780250Y-24050000D01*
X5761330Y-23906291D01*
X5705861Y-23772375D01*
X5617621Y-23657379D01*
X5502625Y-23569139D01*
X5502624Y-23569138D01*
X5502622Y-23569137D01*
X5368712Y-23513671D01*
X5368710Y-23513670D01*
X5368709Y-23513670D01*
X5333478Y-23509031D01*
X5230300Y-23495447D01*
X5166403Y-23467180D01*
X5127933Y-23408855D01*
X5127102Y-23338990D01*
X5131925Y-23325056D01*
X5151571Y-23277625D01*
X5186330Y-23193709D01*
X5205250Y-23050000D01*
X5186330Y-22906291D01*
X5136572Y-22786162D01*
X5130862Y-22772377D01*
X5130861Y-22772376D01*
X5130861Y-22772375D01*
X5042621Y-22657379D01*
X4927625Y-22569139D01*
X4927624Y-22569138D01*
X4927622Y-22569137D01*
X4793712Y-22513671D01*
X4793710Y-22513670D01*
X4793709Y-22513670D01*
X4721854Y-22504210D01*
X4650001Y-22494750D01*
X4649999Y-22494750D01*
X4506291Y-22513670D01*
X4506287Y-22513671D01*
X4372376Y-22569138D01*
X4372374Y-22569139D01*
X4276202Y-22642935D01*
X4211033Y-22668129D01*
X4142588Y-22654091D01*
X4102341Y-22620046D01*
X4092623Y-22607381D01*
X4092621Y-22607380D01*
X4092621Y-22607379D01*
X3977625Y-22519139D01*
X3977624Y-22519138D01*
X3977622Y-22519137D01*
X3843712Y-22463671D01*
X3843710Y-22463670D01*
X3843709Y-22463670D01*
X3752638Y-22451680D01*
X3700001Y-22444750D01*
X3699999Y-22444750D01*
X3556291Y-22463670D01*
X3556287Y-22463671D01*
X3422377Y-22519137D01*
X3307379Y-22607379D01*
X3219137Y-22722377D01*
X3163671Y-22856287D01*
X3163670Y-22856291D01*
X3144750Y-22999999D01*
X-5468582Y-22999999D01*
X-5555503Y-22963996D01*
X-5609907Y-22920155D01*
X-5631972Y-22853861D01*
X-5614693Y-22786162D01*
X-5583542Y-22751062D01*
X-5507379Y-22692621D01*
X-5419139Y-22577625D01*
X-5391128Y-22510000D01*
X-635000Y-22510000D01*
X-375000Y-22510000D01*
X-345181Y-22480181D01*
X-283858Y-22446696D01*
X-214166Y-22451680D01*
X-169819Y-22480181D01*
X-140000Y-22510000D01*
X120000Y-22510000D01*
X120000Y-21740000D01*
X-140000Y-21740000D01*
X-169819Y-21769819D01*
X-231142Y-21803304D01*
X-300834Y-21798320D01*
X-345181Y-21769819D01*
X-375000Y-21740000D01*
X-635000Y-21740000D01*
X-635000Y-22510000D01*
X-5391128Y-22510000D01*
X-5363670Y-22443709D01*
X-5344750Y-22300000D01*
X-5363670Y-22156291D01*
X-5419139Y-22022375D01*
X-5507379Y-21907379D01*
X-5622375Y-21819139D01*
X-5622376Y-21819138D01*
X-5622378Y-21819137D01*
X-5756288Y-21763671D01*
X-5756290Y-21763670D01*
X-5756291Y-21763670D01*
X-5828146Y-21754210D01*
X-5899999Y-21744750D01*
X-5900001Y-21744750D01*
X-6043709Y-21763670D01*
X-6043713Y-21763671D01*
X-6177623Y-21819137D01*
X-6292621Y-21907379D01*
X-6380863Y-22022377D01*
X-6436329Y-22156287D01*
X-6436330Y-22156291D01*
X-6455250Y-22299999D01*
X-19499500Y-22299999D01*
X-19499500Y-21224999D01*
X-9255250Y-21224999D01*
X-9255250Y-21225000D01*
X-9236330Y-21368708D01*
X-9236329Y-21368712D01*
X-9180863Y-21502622D01*
X-9180862Y-21502624D01*
X-9180861Y-21502625D01*
X-9092621Y-21617621D01*
X-8977625Y-21705861D01*
X-8843709Y-21761330D01*
X-8716720Y-21778048D01*
X-8700001Y-21780250D01*
X-8700000Y-21780250D01*
X-8699999Y-21780250D01*
X-8685023Y-21778278D01*
X-8556291Y-21761330D01*
X-8422375Y-21705861D01*
X-8307379Y-21617621D01*
X-8219139Y-21502625D01*
X-8163670Y-21368709D01*
X-8144750Y-21225000D01*
X-8163670Y-21081291D01*
X-8219139Y-20947375D01*
X-8307379Y-20832379D01*
X-8422375Y-20744139D01*
X-8422376Y-20744138D01*
X-8422378Y-20744137D01*
X-8556288Y-20688671D01*
X-8556290Y-20688670D01*
X-8556291Y-20688670D01*
X-8628146Y-20679210D01*
X-8699999Y-20669750D01*
X-8700001Y-20669750D01*
X-8843709Y-20688670D01*
X-8843713Y-20688671D01*
X-8977623Y-20744137D01*
X-9092621Y-20832379D01*
X-9180863Y-20947377D01*
X-9236329Y-21081287D01*
X-9236330Y-21081291D01*
X-9255250Y-21224999D01*
X-19499500Y-21224999D01*
X-19499500Y-20299999D01*
X-5980250Y-20299999D01*
X-5980250Y-20300000D01*
X-5961330Y-20443708D01*
X-5961329Y-20443712D01*
X-5905863Y-20577622D01*
X-5905862Y-20577624D01*
X-5905861Y-20577625D01*
X-5817621Y-20692621D01*
X-5702625Y-20780861D01*
X-5568709Y-20836330D01*
X-5441720Y-20853048D01*
X-5425001Y-20855250D01*
X-5425000Y-20855250D01*
X-5424999Y-20855250D01*
X-5410023Y-20853278D01*
X-5281291Y-20836330D01*
X-5147375Y-20780861D01*
X-5055028Y-20710000D01*
X-1375000Y-20710000D01*
X-755000Y-20710000D01*
X-320000Y-20710000D01*
X300000Y-20710000D01*
X300000Y-19190000D01*
X-320000Y-19190000D01*
X-320000Y-20710000D01*
X-755000Y-20710000D01*
X-755000Y-19190000D01*
X-1375000Y-19190000D01*
X-1375000Y-20710000D01*
X-5055028Y-20710000D01*
X-5032379Y-20692621D01*
X-4944139Y-20577625D01*
X-4888670Y-20443709D01*
X-4869750Y-20300000D01*
X-4888670Y-20156291D01*
X-4944139Y-20022375D01*
X-5032379Y-19907379D01*
X-5147375Y-19819139D01*
X-5147376Y-19819138D01*
X-5147378Y-19819137D01*
X-5281288Y-19763671D01*
X-5281290Y-19763670D01*
X-5281291Y-19763670D01*
X-5353146Y-19754210D01*
X-5424999Y-19744750D01*
X-5425001Y-19744750D01*
X-5568709Y-19763670D01*
X-5568713Y-19763671D01*
X-5702623Y-19819137D01*
X-5817621Y-19907379D01*
X-5905863Y-20022377D01*
X-5961329Y-20156287D01*
X-5961330Y-20156291D01*
X-5980250Y-20299999D01*
X-19499500Y-20299999D01*
X-19499500Y-17499999D01*
X-13705250Y-17499999D01*
X-13705250Y-17500000D01*
X-13686330Y-17643708D01*
X-13686329Y-17643712D01*
X-13630863Y-17777622D01*
X-13630862Y-17777624D01*
X-13630861Y-17777625D01*
X-13542621Y-17892621D01*
X-13533289Y-17899782D01*
X-13530887Y-17901625D01*
X-13489684Y-17958053D01*
X-13485530Y-18027799D01*
X-13519743Y-18088719D01*
X-13530887Y-18098375D01*
X-13542619Y-18107377D01*
X-13542620Y-18107378D01*
X-13542621Y-18107379D01*
X-13586741Y-18164877D01*
X-13630863Y-18222377D01*
X-13686329Y-18356287D01*
X-13686330Y-18356291D01*
X-13705250Y-18499999D01*
X-13705250Y-18500000D01*
X-13686330Y-18643708D01*
X-13686329Y-18643712D01*
X-13630863Y-18777622D01*
X-13630862Y-18777624D01*
X-13630861Y-18777625D01*
X-13542621Y-18892621D01*
X-13427625Y-18980861D01*
X-13293709Y-19036330D01*
X-13166720Y-19053048D01*
X-13150001Y-19055250D01*
X-13150000Y-19055250D01*
X-13149999Y-19055250D01*
X-13135023Y-19053278D01*
X-13006291Y-19036330D01*
X-12872375Y-18980861D01*
X-12757379Y-18892621D01*
X-12669139Y-18777625D01*
X-12613670Y-18643709D01*
X-12594750Y-18500000D01*
X-12607915Y-18400000D01*
X7391197Y-18400000D01*
X7404362Y-18500000D01*
X7410117Y-18543708D01*
X7410118Y-18543712D01*
X7465584Y-18677622D01*
X7465585Y-18677624D01*
X7465586Y-18677625D01*
X7553826Y-18792621D01*
X7668822Y-18880861D01*
X7668823Y-18880861D01*
X7668824Y-18880862D01*
X7713460Y-18899350D01*
X7802738Y-18936330D01*
X7929727Y-18953048D01*
X7946446Y-18955250D01*
X7946447Y-18955250D01*
X7946448Y-18955250D01*
X7961424Y-18953278D01*
X8090156Y-18936330D01*
X8224072Y-18880861D01*
X8339068Y-18792621D01*
X8348072Y-18780886D01*
X8404497Y-18739685D01*
X8474243Y-18735529D01*
X8535164Y-18769740D01*
X8544814Y-18780876D01*
X8553826Y-18792621D01*
X8668822Y-18880861D01*
X8668823Y-18880861D01*
X8668824Y-18880862D01*
X8713460Y-18899350D01*
X8802738Y-18936330D01*
X8929727Y-18953048D01*
X8946446Y-18955250D01*
X8946447Y-18955250D01*
X8946448Y-18955250D01*
X8961424Y-18953278D01*
X9090156Y-18936330D01*
X9224072Y-18880861D01*
X9339068Y-18792621D01*
X9427308Y-18677625D01*
X9482777Y-18543709D01*
X9501697Y-18400000D01*
X14616197Y-18400000D01*
X14629362Y-18500000D01*
X14635117Y-18543708D01*
X14635118Y-18543712D01*
X14690584Y-18677622D01*
X14690585Y-18677624D01*
X14690586Y-18677625D01*
X14778826Y-18792621D01*
X14893822Y-18880861D01*
X14893823Y-18880861D01*
X14893824Y-18880862D01*
X14938460Y-18899350D01*
X15027738Y-18936330D01*
X15154727Y-18953048D01*
X15171446Y-18955250D01*
X15171447Y-18955250D01*
X15171448Y-18955250D01*
X15186424Y-18953278D01*
X15315156Y-18936330D01*
X15449072Y-18880861D01*
X15564068Y-18792621D01*
X15564072Y-18792616D01*
X15569815Y-18786874D01*
X15571869Y-18788928D01*
X15616998Y-18755975D01*
X15686744Y-18751820D01*
X15747665Y-18786032D01*
X15750442Y-18789237D01*
X15753821Y-18792616D01*
X15753823Y-18792618D01*
X15753826Y-18792621D01*
X15868822Y-18880861D01*
X15868823Y-18880861D01*
X15868824Y-18880862D01*
X15913460Y-18899350D01*
X16002738Y-18936330D01*
X16129727Y-18953048D01*
X16146446Y-18955250D01*
X16146447Y-18955250D01*
X16146448Y-18955250D01*
X16161424Y-18953278D01*
X16290156Y-18936330D01*
X16424072Y-18880861D01*
X16539068Y-18792621D01*
X16627308Y-18677625D01*
X16682777Y-18543709D01*
X16701697Y-18400000D01*
X16682777Y-18256291D01*
X16627308Y-18122375D01*
X16539068Y-18007379D01*
X16424072Y-17919139D01*
X16424071Y-17919138D01*
X16424069Y-17919137D01*
X16290159Y-17863671D01*
X16290157Y-17863670D01*
X16290156Y-17863670D01*
X16218301Y-17854210D01*
X16146448Y-17844750D01*
X16146446Y-17844750D01*
X16002738Y-17863670D01*
X16002734Y-17863671D01*
X15868824Y-17919137D01*
X15799667Y-17972204D01*
X15763443Y-18000000D01*
X15753821Y-18007383D01*
X15748079Y-18013126D01*
X15746028Y-18011075D01*
X15700866Y-18044035D01*
X15631119Y-18048172D01*
X15570207Y-18013944D01*
X15567440Y-18010751D01*
X15564072Y-18007383D01*
X15564069Y-18007381D01*
X15564068Y-18007379D01*
X15449072Y-17919139D01*
X15449071Y-17919138D01*
X15449069Y-17919137D01*
X15315159Y-17863671D01*
X15315157Y-17863670D01*
X15315156Y-17863670D01*
X15243301Y-17854210D01*
X15171448Y-17844750D01*
X15171446Y-17844750D01*
X15027738Y-17863670D01*
X15027734Y-17863671D01*
X14893824Y-17919137D01*
X14778826Y-18007379D01*
X14690584Y-18122377D01*
X14635118Y-18256287D01*
X14635117Y-18256291D01*
X14621952Y-18356291D01*
X14616197Y-18400000D01*
X9501697Y-18400000D01*
X9482777Y-18256291D01*
X9427308Y-18122375D01*
X9339068Y-18007379D01*
X9224072Y-17919139D01*
X9224071Y-17919138D01*
X9224069Y-17919137D01*
X9090159Y-17863671D01*
X9090157Y-17863670D01*
X9090156Y-17863670D01*
X9018301Y-17854210D01*
X8946448Y-17844750D01*
X8946446Y-17844750D01*
X8802738Y-17863670D01*
X8802734Y-17863671D01*
X8668824Y-17919137D01*
X8611324Y-17963259D01*
X8553826Y-18007379D01*
X8553825Y-18007380D01*
X8553824Y-18007381D01*
X8544822Y-18019113D01*
X8488394Y-18060316D01*
X8418648Y-18064470D01*
X8357728Y-18030257D01*
X8348072Y-18019113D01*
X8346229Y-18016711D01*
X8339068Y-18007379D01*
X8224072Y-17919139D01*
X8224071Y-17919138D01*
X8224069Y-17919137D01*
X8090159Y-17863671D01*
X8090157Y-17863670D01*
X8090156Y-17863670D01*
X8018301Y-17854210D01*
X7946448Y-17844750D01*
X7946446Y-17844750D01*
X7802738Y-17863670D01*
X7802734Y-17863671D01*
X7668824Y-17919137D01*
X7553826Y-18007379D01*
X7465584Y-18122377D01*
X7410118Y-18256287D01*
X7410117Y-18256291D01*
X7396952Y-18356291D01*
X7391197Y-18400000D01*
X-12607915Y-18400000D01*
X-12613670Y-18356291D01*
X-12669139Y-18222375D01*
X-12757379Y-18107379D01*
X-12769114Y-18098374D01*
X-12810315Y-18041950D01*
X-12814471Y-17972204D01*
X-12780260Y-17911283D01*
X-12769124Y-17901632D01*
X-12757379Y-17892621D01*
X-12669139Y-17777625D01*
X-12613670Y-17643709D01*
X-12594750Y-17500000D01*
X-12613670Y-17356291D01*
X-12669139Y-17222375D01*
X-12757379Y-17107379D01*
X-12872375Y-17019139D01*
X-12872376Y-17019138D01*
X-12872378Y-17019137D01*
X-13006288Y-16963671D01*
X-13006290Y-16963670D01*
X-13006291Y-16963670D01*
X-13078146Y-16954210D01*
X-13149999Y-16944750D01*
X-13150001Y-16944750D01*
X-13293709Y-16963670D01*
X-13293713Y-16963671D01*
X-13427623Y-17019137D01*
X-13542621Y-17107379D01*
X-13630863Y-17222377D01*
X-13686329Y-17356287D01*
X-13686330Y-17356291D01*
X-13705250Y-17499999D01*
X-19499500Y-17499999D01*
X-19499500Y-16524999D01*
X-17142750Y-16524999D01*
X-17142750Y-16525000D01*
X-17123830Y-16668708D01*
X-17123829Y-16668712D01*
X-17068363Y-16802622D01*
X-17068362Y-16802624D01*
X-17068361Y-16802625D01*
X-16980121Y-16917621D01*
X-16865125Y-17005861D01*
X-16865124Y-17005861D01*
X-16865123Y-17005862D01*
X-16833069Y-17019139D01*
X-16731209Y-17061330D01*
X-16604220Y-17078048D01*
X-16587501Y-17080250D01*
X-16587500Y-17080250D01*
X-16587499Y-17080250D01*
X-16572523Y-17078278D01*
X-16443791Y-17061330D01*
X-16309875Y-17005861D01*
X-16194879Y-16917621D01*
X-16106639Y-16802625D01*
X-16051170Y-16668709D01*
X-16032250Y-16525000D01*
X-16051170Y-16381291D01*
X-16106639Y-16247375D01*
X-16194879Y-16132379D01*
X-16309875Y-16044139D01*
X-16309876Y-16044138D01*
X-16309878Y-16044137D01*
X-16443788Y-15988671D01*
X-16443790Y-15988670D01*
X-16443791Y-15988670D01*
X-16515646Y-15979210D01*
X-16587499Y-15969750D01*
X-16587501Y-15969750D01*
X-16731209Y-15988670D01*
X-16731213Y-15988671D01*
X-16865123Y-16044137D01*
X-16980121Y-16132379D01*
X-17068363Y-16247377D01*
X-17123829Y-16381287D01*
X-17123830Y-16381291D01*
X-17142750Y-16524999D01*
X-19499500Y-16524999D01*
X-19499500Y-14403388D01*
X-11477500Y-14403388D01*
X-11477500Y-14596611D01*
X-11447275Y-14787441D01*
X-11387571Y-14971194D01*
X-11299853Y-15143349D01*
X-11186285Y-15299663D01*
X-11049664Y-15436284D01*
X-10893350Y-15549852D01*
X-10721195Y-15637570D01*
X-10629319Y-15667422D01*
X-10537440Y-15697275D01*
X-10449057Y-15711273D01*
X-10346611Y-15727500D01*
X-10346606Y-15727500D01*
X-10153389Y-15727500D01*
X-10060877Y-15712846D01*
X-9962560Y-15697275D01*
X-9778803Y-15637569D01*
X-9606650Y-15549852D01*
X-9450337Y-15436285D01*
X-9313715Y-15299663D01*
X-9200148Y-15143350D01*
X-9193346Y-15130000D01*
X-210000Y-15130000D01*
X1130000Y-15130000D01*
X1130000Y-14470000D01*
X-210000Y-14470000D01*
X-210000Y-15130000D01*
X-9193346Y-15130000D01*
X-9112431Y-14971197D01*
X-9052725Y-14787440D01*
X-9031052Y-14650601D01*
X-9022500Y-14596611D01*
X-9022500Y-14403388D01*
X-9042913Y-14274513D01*
X-9052725Y-14212560D01*
X-9088062Y-14103802D01*
X-9112430Y-14028805D01*
X-9200148Y-13856650D01*
X-9255211Y-13780862D01*
X-9313715Y-13700337D01*
X-9450337Y-13563715D01*
X-9512324Y-13518679D01*
X-9565562Y-13480000D01*
X2170000Y-13480000D01*
X2170000Y-16120000D01*
X5350000Y-16120000D01*
X5350000Y-15951254D01*
X5369685Y-15884215D01*
X5422489Y-15838460D01*
X5491647Y-15828516D01*
X5555203Y-15857541D01*
X5588561Y-15903802D01*
X5619137Y-15977622D01*
X5619138Y-15977624D01*
X5619139Y-15977625D01*
X5707379Y-16092621D01*
X5822375Y-16180861D01*
X5956291Y-16236330D01*
X6083280Y-16253048D01*
X6099999Y-16255250D01*
X6100000Y-16255250D01*
X6100001Y-16255250D01*
X6114977Y-16253278D01*
X6243709Y-16236330D01*
X6377625Y-16180861D01*
X6474515Y-16106514D01*
X6539682Y-16081321D01*
X6608127Y-16095359D01*
X6625480Y-16106510D01*
X6722375Y-16180861D01*
X6856291Y-16236330D01*
X6983280Y-16253048D01*
X6999999Y-16255250D01*
X7000000Y-16255250D01*
X7000001Y-16255250D01*
X7014977Y-16253278D01*
X7143709Y-16236330D01*
X7277625Y-16180861D01*
X7392621Y-16092621D01*
X7480861Y-15977625D01*
X7536330Y-15843709D01*
X7555250Y-15700000D01*
X7536330Y-15556291D01*
X7480861Y-15422375D01*
X7406514Y-15325484D01*
X7381321Y-15260318D01*
X7395359Y-15191873D01*
X7406510Y-15174519D01*
X7480861Y-15077625D01*
X7536330Y-14943709D01*
X7555250Y-14800000D01*
X7536330Y-14656291D01*
X7480861Y-14522375D01*
X7406514Y-14425484D01*
X7397972Y-14403388D01*
X9522500Y-14403388D01*
X9522500Y-14596611D01*
X9552725Y-14787441D01*
X9612429Y-14971194D01*
X9700147Y-15143349D01*
X9813715Y-15299663D01*
X9950336Y-15436284D01*
X10106650Y-15549852D01*
X10278805Y-15637570D01*
X10370681Y-15667422D01*
X10462560Y-15697275D01*
X10550943Y-15711273D01*
X10653389Y-15727500D01*
X10653394Y-15727500D01*
X10846611Y-15727500D01*
X10939123Y-15712846D01*
X11037440Y-15697275D01*
X11221197Y-15637569D01*
X11393350Y-15549852D01*
X11549663Y-15436285D01*
X11686285Y-15299663D01*
X11799852Y-15143350D01*
X11887569Y-14971197D01*
X11947275Y-14787440D01*
X11968948Y-14650601D01*
X11977500Y-14596611D01*
X11977500Y-14403388D01*
X11957087Y-14274513D01*
X11947275Y-14212560D01*
X11911938Y-14103802D01*
X11887570Y-14028805D01*
X11799852Y-13856650D01*
X11744789Y-13780862D01*
X11686285Y-13700337D01*
X11549663Y-13563715D01*
X11487676Y-13518679D01*
X11393349Y-13450147D01*
X11221194Y-13362429D01*
X11037441Y-13302725D01*
X11020236Y-13300000D01*
X17744750Y-13300000D01*
X17753132Y-13363670D01*
X17763670Y-13443708D01*
X17763671Y-13443712D01*
X17819137Y-13577622D01*
X17819138Y-13577624D01*
X17819139Y-13577625D01*
X17907379Y-13692621D01*
X18022375Y-13780861D01*
X18156291Y-13836330D01*
X18283280Y-13853048D01*
X18299999Y-13855250D01*
X18300000Y-13855250D01*
X18300001Y-13855250D01*
X18314977Y-13853278D01*
X18443709Y-13836330D01*
X18577625Y-13780861D01*
X18692621Y-13692621D01*
X18780861Y-13577625D01*
X18836330Y-13443709D01*
X18855250Y-13300000D01*
X18836330Y-13156291D01*
X18780861Y-13022375D01*
X18692621Y-12907379D01*
X18577625Y-12819139D01*
X18577624Y-12819138D01*
X18577622Y-12819137D01*
X18443712Y-12763671D01*
X18443710Y-12763670D01*
X18443709Y-12763670D01*
X18371854Y-12754210D01*
X18300001Y-12744750D01*
X18299999Y-12744750D01*
X18156291Y-12763670D01*
X18156287Y-12763671D01*
X18022377Y-12819137D01*
X17907379Y-12907379D01*
X17819137Y-13022377D01*
X17763671Y-13156287D01*
X17763670Y-13156291D01*
X17748371Y-13272500D01*
X17744750Y-13300000D01*
X11020236Y-13300000D01*
X10846611Y-13272500D01*
X10846606Y-13272500D01*
X10653394Y-13272500D01*
X10653389Y-13272500D01*
X10462558Y-13302725D01*
X10278805Y-13362429D01*
X10106650Y-13450147D01*
X9950336Y-13563715D01*
X9813715Y-13700336D01*
X9700147Y-13856650D01*
X9612429Y-14028805D01*
X9552725Y-14212558D01*
X9522500Y-14403388D01*
X7397972Y-14403388D01*
X7381321Y-14360318D01*
X7395359Y-14291873D01*
X7406510Y-14274519D01*
X7480861Y-14177625D01*
X7536330Y-14043709D01*
X7555250Y-13900000D01*
X7536330Y-13756291D01*
X7480861Y-13622375D01*
X7392621Y-13507379D01*
X7277625Y-13419139D01*
X7277624Y-13419138D01*
X7277622Y-13419137D01*
X7143712Y-13363671D01*
X7143710Y-13363670D01*
X7143709Y-13363670D01*
X7071854Y-13354210D01*
X7000001Y-13344750D01*
X6999999Y-13344750D01*
X6856291Y-13363670D01*
X6856287Y-13363671D01*
X6722377Y-13419137D01*
X6690356Y-13443708D01*
X6625484Y-13493485D01*
X6560318Y-13518679D01*
X6491873Y-13504641D01*
X6474519Y-13493489D01*
X6377625Y-13419139D01*
X6377624Y-13419138D01*
X6377622Y-13419137D01*
X6243712Y-13363671D01*
X6243710Y-13363670D01*
X6243709Y-13363670D01*
X6171854Y-13354210D01*
X6100001Y-13344750D01*
X6099999Y-13344750D01*
X5956291Y-13363670D01*
X5956287Y-13363671D01*
X5822377Y-13419137D01*
X5707379Y-13507379D01*
X5619137Y-13622377D01*
X5588561Y-13696197D01*
X5544720Y-13750601D01*
X5478426Y-13772666D01*
X5410727Y-13755387D01*
X5363116Y-13704250D01*
X5350000Y-13648745D01*
X5350000Y-13480000D01*
X2170000Y-13480000D01*
X-9565562Y-13480000D01*
X-9606651Y-13450147D01*
X-9778806Y-13362429D01*
X-9962559Y-13302725D01*
X-10153389Y-13272500D01*
X-10153394Y-13272500D01*
X-10346606Y-13272500D01*
X-10346611Y-13272500D01*
X-10537442Y-13302725D01*
X-10721195Y-13362429D01*
X-10893350Y-13450147D01*
X-11049664Y-13563715D01*
X-11186285Y-13700336D01*
X-11299853Y-13856650D01*
X-11387571Y-14028805D01*
X-11447275Y-14212558D01*
X-11477500Y-14403388D01*
X-19499500Y-14403388D01*
X-19499500Y-11699999D01*
X-17655250Y-11699999D01*
X-17655250Y-11700000D01*
X-17636330Y-11843708D01*
X-17636329Y-11843712D01*
X-17580863Y-11977622D01*
X-17580862Y-11977624D01*
X-17580861Y-11977625D01*
X-17492621Y-12092621D01*
X-17377625Y-12180861D01*
X-17243709Y-12236330D01*
X-17116720Y-12253048D01*
X-17100001Y-12255250D01*
X-17100000Y-12255250D01*
X-17099999Y-12255250D01*
X-17085023Y-12253278D01*
X-16956291Y-12236330D01*
X-16822375Y-12180861D01*
X-16707379Y-12092621D01*
X-16619139Y-11977625D01*
X-16563670Y-11843709D01*
X-16544750Y-11700000D01*
X-16557915Y-11600000D01*
X-11155250Y-11600000D01*
X-11142085Y-11700000D01*
X-11136330Y-11743708D01*
X-11136329Y-11743712D01*
X-11080863Y-11877622D01*
X-11080862Y-11877624D01*
X-11080861Y-11877625D01*
X-10992621Y-11992621D01*
X-10877625Y-12080861D01*
X-10877624Y-12080861D01*
X-10877623Y-12080862D01*
X-10832987Y-12099350D01*
X-10743709Y-12136330D01*
X-10616720Y-12153048D01*
X-10600001Y-12155250D01*
X-10600000Y-12155250D01*
X-10599999Y-12155250D01*
X-10585023Y-12153278D01*
X-10456291Y-12136330D01*
X-10322375Y-12080861D01*
X-10207379Y-11992621D01*
X-10119139Y-11877625D01*
X-10063670Y-11743709D01*
X-10044750Y-11600000D01*
X14144750Y-11600000D01*
X14157915Y-11700000D01*
X14163670Y-11743708D01*
X14163671Y-11743712D01*
X14219137Y-11877622D01*
X14219138Y-11877624D01*
X14219139Y-11877625D01*
X14307379Y-11992621D01*
X14422375Y-12080861D01*
X14422376Y-12080861D01*
X14422377Y-12080862D01*
X14467013Y-12099350D01*
X14556291Y-12136330D01*
X14683280Y-12153048D01*
X14699999Y-12155250D01*
X14700000Y-12155250D01*
X14700001Y-12155250D01*
X14714977Y-12153278D01*
X14843709Y-12136330D01*
X14977625Y-12080861D01*
X15092621Y-11992621D01*
X15180861Y-11877625D01*
X15236330Y-11743709D01*
X15255250Y-11600000D01*
X15242085Y-11500000D01*
X17844750Y-11500000D01*
X17857915Y-11600000D01*
X17863670Y-11643708D01*
X17863671Y-11643712D01*
X17919137Y-11777622D01*
X17919138Y-11777624D01*
X17919139Y-11777625D01*
X18007379Y-11892621D01*
X18122375Y-11980861D01*
X18122376Y-11980861D01*
X18122377Y-11980862D01*
X18167013Y-11999350D01*
X18256291Y-12036330D01*
X18383280Y-12053048D01*
X18399999Y-12055250D01*
X18400000Y-12055250D01*
X18400001Y-12055250D01*
X18414977Y-12053278D01*
X18543709Y-12036330D01*
X18677625Y-11980861D01*
X18792621Y-11892621D01*
X18880861Y-11777625D01*
X18936330Y-11643709D01*
X18955250Y-11500000D01*
X18936330Y-11356291D01*
X18880861Y-11222375D01*
X18792621Y-11107379D01*
X18677625Y-11019139D01*
X18677624Y-11019138D01*
X18677622Y-11019137D01*
X18543712Y-10963671D01*
X18543710Y-10963670D01*
X18543709Y-10963670D01*
X18471854Y-10954210D01*
X18400001Y-10944750D01*
X18399999Y-10944750D01*
X18256291Y-10963670D01*
X18256287Y-10963671D01*
X18122377Y-11019137D01*
X18007379Y-11107379D01*
X17919137Y-11222377D01*
X17863671Y-11356287D01*
X17863670Y-11356291D01*
X17847270Y-11480862D01*
X17844750Y-11500000D01*
X15242085Y-11500000D01*
X15236330Y-11456291D01*
X15180861Y-11322375D01*
X15092621Y-11207379D01*
X14977625Y-11119139D01*
X14977624Y-11119138D01*
X14977622Y-11119137D01*
X14843712Y-11063671D01*
X14843710Y-11063670D01*
X14843709Y-11063670D01*
X14771854Y-11054210D01*
X14700001Y-11044750D01*
X14699999Y-11044750D01*
X14556291Y-11063670D01*
X14556287Y-11063671D01*
X14422377Y-11119137D01*
X14307379Y-11207379D01*
X14219137Y-11322377D01*
X14163671Y-11456287D01*
X14163670Y-11456291D01*
X14150505Y-11556291D01*
X14144750Y-11600000D01*
X-10044750Y-11600000D01*
X-10063670Y-11456291D01*
X-10119139Y-11322375D01*
X-10207379Y-11207379D01*
X-10322375Y-11119139D01*
X-10322376Y-11119138D01*
X-10322378Y-11119137D01*
X-10456288Y-11063671D01*
X-10456290Y-11063670D01*
X-10456291Y-11063670D01*
X-10528146Y-11054210D01*
X-10599999Y-11044750D01*
X-10600001Y-11044750D01*
X-10743709Y-11063670D01*
X-10743713Y-11063671D01*
X-10877623Y-11119137D01*
X-10992621Y-11207379D01*
X-11080863Y-11322377D01*
X-11136329Y-11456287D01*
X-11136330Y-11456291D01*
X-11149495Y-11556291D01*
X-11155250Y-11600000D01*
X-16557915Y-11600000D01*
X-16563670Y-11556291D01*
X-16619139Y-11422375D01*
X-16707379Y-11307379D01*
X-16822375Y-11219139D01*
X-16822376Y-11219138D01*
X-16822378Y-11219137D01*
X-16956288Y-11163671D01*
X-16956290Y-11163670D01*
X-16956291Y-11163670D01*
X-17028146Y-11154210D01*
X-17099999Y-11144750D01*
X-17100001Y-11144750D01*
X-17243709Y-11163670D01*
X-17243713Y-11163671D01*
X-17377623Y-11219137D01*
X-17492621Y-11307379D01*
X-17580863Y-11422377D01*
X-17636329Y-11556287D01*
X-17636330Y-11556291D01*
X-17655250Y-11699999D01*
X-19499500Y-11699999D01*
X-19499500Y-10599999D01*
X-15355250Y-10599999D01*
X-15355250Y-10600000D01*
X-15336330Y-10743708D01*
X-15336329Y-10743712D01*
X-15280863Y-10877622D01*
X-15280862Y-10877624D01*
X-15280861Y-10877625D01*
X-15192621Y-10992621D01*
X-15077625Y-11080861D01*
X-14943709Y-11136330D01*
X-14816720Y-11153048D01*
X-14800001Y-11155250D01*
X-14800000Y-11155250D01*
X-14799999Y-11155250D01*
X-14785023Y-11153278D01*
X-14656291Y-11136330D01*
X-14522375Y-11080861D01*
X-14407379Y-10992621D01*
X-14319139Y-10877625D01*
X-14263670Y-10743709D01*
X-14244750Y-10600000D01*
X-14257915Y-10500000D01*
X-8955250Y-10500000D01*
X-8942085Y-10600000D01*
X-8936330Y-10643708D01*
X-8936329Y-10643712D01*
X-8880863Y-10777622D01*
X-8880862Y-10777624D01*
X-8880861Y-10777625D01*
X-8792621Y-10892621D01*
X-8677625Y-10980861D01*
X-8677624Y-10980861D01*
X-8677623Y-10980862D01*
X-8632987Y-10999350D01*
X-8543709Y-11036330D01*
X-8416720Y-11053048D01*
X-8400001Y-11055250D01*
X-8400000Y-11055250D01*
X-8399999Y-11055250D01*
X-8385023Y-11053278D01*
X-8256291Y-11036330D01*
X-8168581Y-11000000D01*
X9644750Y-11000000D01*
X9662698Y-11136329D01*
X9663670Y-11143708D01*
X9663671Y-11143712D01*
X9719137Y-11277622D01*
X9719138Y-11277624D01*
X9719139Y-11277625D01*
X9807379Y-11392621D01*
X9922375Y-11480861D01*
X10056291Y-11536330D01*
X10183280Y-11553048D01*
X10199999Y-11555250D01*
X10200000Y-11555250D01*
X10200001Y-11555250D01*
X10214977Y-11553278D01*
X10343709Y-11536330D01*
X10477625Y-11480861D01*
X10592621Y-11392621D01*
X10680861Y-11277625D01*
X10736330Y-11143709D01*
X10755250Y-11000000D01*
X10736330Y-10856291D01*
X10680861Y-10722375D01*
X10592621Y-10607379D01*
X10583003Y-10599999D01*
X11944750Y-10599999D01*
X11944750Y-10600000D01*
X11963670Y-10743708D01*
X11963671Y-10743712D01*
X12019137Y-10877622D01*
X12019138Y-10877624D01*
X12019139Y-10877625D01*
X12107379Y-10992621D01*
X12222375Y-11080861D01*
X12356291Y-11136330D01*
X12483280Y-11153048D01*
X12499999Y-11155250D01*
X12500000Y-11155250D01*
X12500001Y-11155250D01*
X12514977Y-11153278D01*
X12643709Y-11136330D01*
X12777625Y-11080861D01*
X12892621Y-10992621D01*
X12980861Y-10877625D01*
X13036330Y-10743709D01*
X13055250Y-10600000D01*
X13036330Y-10456291D01*
X12980861Y-10322375D01*
X12892621Y-10207379D01*
X12777625Y-10119139D01*
X12777624Y-10119138D01*
X12777622Y-10119137D01*
X12643712Y-10063671D01*
X12643710Y-10063670D01*
X12643709Y-10063670D01*
X12571854Y-10054210D01*
X12500001Y-10044750D01*
X12499999Y-10044750D01*
X12356291Y-10063670D01*
X12356287Y-10063671D01*
X12222377Y-10119137D01*
X12107379Y-10207379D01*
X12019137Y-10322377D01*
X11963671Y-10456287D01*
X11963670Y-10456291D01*
X11944750Y-10599999D01*
X10583003Y-10599999D01*
X10477625Y-10519139D01*
X10477624Y-10519138D01*
X10477622Y-10519137D01*
X10343712Y-10463671D01*
X10343710Y-10463670D01*
X10343709Y-10463670D01*
X10271854Y-10454210D01*
X10200001Y-10444750D01*
X10199999Y-10444750D01*
X10056291Y-10463670D01*
X10056287Y-10463671D01*
X9922377Y-10519137D01*
X9807379Y-10607379D01*
X9719137Y-10722377D01*
X9663671Y-10856287D01*
X9663670Y-10856291D01*
X9645722Y-10992620D01*
X9644750Y-11000000D01*
X-8168581Y-11000000D01*
X-8122375Y-10980861D01*
X-8007379Y-10892621D01*
X-7919139Y-10777625D01*
X-7863670Y-10643709D01*
X-7844750Y-10500000D01*
X-7863670Y-10356291D01*
X-7919139Y-10222375D01*
X-8007379Y-10107379D01*
X-8122375Y-10019139D01*
X-8122376Y-10019138D01*
X-8122378Y-10019137D01*
X-8256288Y-9963671D01*
X-8256290Y-9963670D01*
X-8256291Y-9963670D01*
X-8349504Y-9951398D01*
X-8399999Y-9944750D01*
X-8400001Y-9944750D01*
X-8543709Y-9963670D01*
X-8543713Y-9963671D01*
X-8677623Y-10019137D01*
X-8792621Y-10107379D01*
X-8880863Y-10222377D01*
X-8936329Y-10356287D01*
X-8936330Y-10356291D01*
X-8949495Y-10456291D01*
X-8955250Y-10500000D01*
X-14257915Y-10500000D01*
X-14263670Y-10456291D01*
X-14319139Y-10322375D01*
X-14407379Y-10207379D01*
X-14522375Y-10119139D01*
X-14522376Y-10119138D01*
X-14522378Y-10119137D01*
X-14656288Y-10063671D01*
X-14656290Y-10063670D01*
X-14656291Y-10063670D01*
X-14728146Y-10054210D01*
X-14799999Y-10044750D01*
X-14800001Y-10044750D01*
X-14943709Y-10063670D01*
X-14943713Y-10063671D01*
X-15077623Y-10119137D01*
X-15192621Y-10207379D01*
X-15280863Y-10322377D01*
X-15336329Y-10456287D01*
X-15336330Y-10456291D01*
X-15355250Y-10599999D01*
X-19499500Y-10599999D01*
X-19499500Y-3459997D01*
X-3985000Y-3459997D01*
X-3985000Y-4551447D01*
X-3217579Y-3784025D01*
X-3204641Y-3815258D01*
X-3122563Y-3938097D01*
X-3018097Y-4042563D01*
X-2895258Y-4124641D01*
X-2864026Y-4137578D01*
X-3966990Y-5240541D01*
X-3966991Y-5240543D01*
X-3965590Y-5247584D01*
X-3956802Y-5268799D01*
X-3901528Y-5351522D01*
X-3818804Y-5406798D01*
X-3818798Y-5406801D01*
X-3806547Y-5411876D01*
X-3752144Y-5455717D01*
X-3730079Y-5522011D01*
X-3730000Y-5526437D01*
X-3730000Y-6473562D01*
X-3749685Y-6540601D01*
X-3802489Y-6586356D01*
X-3806542Y-6588121D01*
X-3818800Y-6593198D01*
X-3901523Y-6648472D01*
X-3956799Y-6731196D01*
X-3956805Y-6731207D01*
X-3965581Y-6752395D01*
X-3965589Y-6752415D01*
X-3965591Y-6752424D01*
X-3966991Y-6759456D01*
X-3966990Y-6759458D01*
X-2864026Y-7862421D01*
X-2895258Y-7875359D01*
X-3018097Y-7957437D01*
X-3122563Y-8061903D01*
X-3204641Y-8184742D01*
X-3217578Y-8215974D01*
X-3985000Y-7448552D01*
X-3985000Y-8540005D01*
X-3965590Y-8637583D01*
X-3965588Y-8637587D01*
X-3958483Y-8654741D01*
X-3955415Y-8662961D01*
X-3954182Y-8666658D01*
X-3955214Y-8667002D01*
X-3946380Y-8698453D01*
X-3939047Y-8777589D01*
X-3930403Y-8823839D01*
X-3930401Y-8823847D01*
X-3871568Y-9030619D01*
X-3854568Y-9074504D01*
X-3854567Y-9074505D01*
X-3758752Y-9266928D01*
X-3758741Y-9266947D01*
X-3733980Y-9306937D01*
X-3733975Y-9306944D01*
X-3702362Y-9348807D01*
X-3217579Y-8864024D01*
X-3204641Y-8895258D01*
X-3122563Y-9018097D01*
X-3018097Y-9122563D01*
X-2895258Y-9204641D01*
X-2864027Y-9217577D01*
X-3349505Y-9703055D01*
X-3193507Y-9799646D01*
X-3151391Y-9820617D01*
X-2950925Y-9898277D01*
X-2950910Y-9898282D01*
X-2905673Y-9911154D01*
X-2694339Y-9950658D01*
X-2694336Y-9950659D01*
X-2686342Y-9951400D01*
X-2650330Y-9960309D01*
X-2637583Y-9965589D01*
X-2637580Y-9965590D01*
X-2637575Y-9965591D01*
X-2540003Y-9985000D01*
X-1448554Y-9985000D01*
X-1448554Y-9984999D01*
X-2215976Y-9217578D01*
X-2184742Y-9204641D01*
X-2061903Y-9122563D01*
X-1957437Y-9018097D01*
X-1875359Y-8895258D01*
X-1862422Y-8864025D01*
X-759459Y-9966988D01*
X-759458Y-9966988D01*
X-752419Y-9965588D01*
X-752412Y-9965586D01*
X-731200Y-9956800D01*
X-648478Y-9901527D01*
X-593202Y-9818803D01*
X-593196Y-9818792D01*
X-584420Y-9797604D01*
X-584413Y-9797587D01*
X-584410Y-9797579D01*
X-584409Y-9797574D01*
X-565000Y-9700002D01*
X-565000Y-7764000D01*
X-545315Y-7696961D01*
X-492511Y-7651206D01*
X-441000Y-7640000D01*
X441000Y-7640000D01*
X508039Y-7659685D01*
X553794Y-7712489D01*
X565000Y-7764000D01*
X565000Y-9700005D01*
X584410Y-9797583D01*
X584412Y-9797588D01*
X593198Y-9818798D01*
X648472Y-9901522D01*
X731196Y-9956798D01*
X731207Y-9956804D01*
X752395Y-9965580D01*
X752414Y-9965588D01*
X759457Y-9966988D01*
X759458Y-9966988D01*
X1862421Y-8864024D01*
X1875359Y-8895258D01*
X1957437Y-9018097D01*
X2061903Y-9122563D01*
X2184742Y-9204641D01*
X2215974Y-9217577D01*
X1448553Y-9984999D01*
X1448554Y-9985000D01*
X2540005Y-9985000D01*
X2637583Y-9965589D01*
X2637585Y-9965588D01*
X2650325Y-9960311D01*
X2686353Y-9951398D01*
X2694341Y-9950658D01*
X2905672Y-9911154D01*
X2950909Y-9898282D01*
X2950924Y-9898277D01*
X3151390Y-9820617D01*
X3193507Y-9799646D01*
X3193511Y-9799643D01*
X3349502Y-9703055D01*
X2864025Y-9217578D01*
X2895258Y-9204641D01*
X3018097Y-9122563D01*
X3122563Y-9018097D01*
X3204641Y-8895258D01*
X3217578Y-8864025D01*
X3702360Y-9348808D01*
X3733977Y-9306940D01*
X3758740Y-9266947D01*
X3758751Y-9266928D01*
X3854566Y-9074505D01*
X3854567Y-9074504D01*
X3871567Y-9030619D01*
X3930400Y-8823847D01*
X3930402Y-8823839D01*
X3939044Y-8777599D01*
X3939047Y-8777577D01*
X3946377Y-8698467D01*
X3955288Y-8662450D01*
X3965588Y-8637585D01*
X3965590Y-8637579D01*
X3965591Y-8637574D01*
X3985000Y-8540002D01*
X3985000Y-7448553D01*
X3984999Y-7448552D01*
X3217577Y-8215973D01*
X3204641Y-8184742D01*
X3122563Y-8061903D01*
X3018097Y-7957437D01*
X2895258Y-7875359D01*
X2864024Y-7862421D01*
X3966988Y-6759458D01*
X3965587Y-6752412D01*
X3965585Y-6752405D01*
X3956802Y-6731202D01*
X3901527Y-6648477D01*
X3818803Y-6593201D01*
X3818795Y-6593197D01*
X3806542Y-6588121D01*
X3752140Y-6544277D01*
X3730079Y-6477982D01*
X3730000Y-6473562D01*
X3730000Y-5520579D01*
X3749685Y-5453540D01*
X3802489Y-5407785D01*
X3806548Y-5406018D01*
X3828798Y-5396801D01*
X3911522Y-5341527D01*
X3966798Y-5258803D01*
X3966804Y-5258792D01*
X3975580Y-5237604D01*
X3975587Y-5237587D01*
X3975588Y-5237583D01*
X3976988Y-5230541D01*
X3976988Y-5230540D01*
X2874025Y-4127578D01*
X2905258Y-4114641D01*
X3028097Y-4032563D01*
X3132563Y-3928097D01*
X3214641Y-3805258D01*
X3227577Y-3774025D01*
X3994999Y-4541447D01*
X3995000Y-4541446D01*
X3995000Y-3449994D01*
X3975589Y-3352416D01*
X3975588Y-3352414D01*
X3970311Y-3339675D01*
X3961398Y-3303646D01*
X3960658Y-3295660D01*
X3921153Y-3084327D01*
X3921154Y-3084327D01*
X3908282Y-3039090D01*
X3908277Y-3039075D01*
X3830617Y-2838609D01*
X3809649Y-2796499D01*
X3809646Y-2796493D01*
X3713055Y-2640495D01*
X3227577Y-3125973D01*
X3214641Y-3094742D01*
X3132563Y-2971903D01*
X3028097Y-2867437D01*
X2905258Y-2785359D01*
X2874023Y-2772421D01*
X3358807Y-2287638D01*
X3316944Y-2256025D01*
X3316937Y-2256020D01*
X3276947Y-2231259D01*
X3276928Y-2231248D01*
X3084505Y-2135433D01*
X3084504Y-2135432D01*
X3040619Y-2118432D01*
X2833847Y-2059599D01*
X2833839Y-2059597D01*
X2787589Y-2050953D01*
X2708462Y-2043621D01*
X2672452Y-2034711D01*
X2647601Y-2024417D01*
X2647587Y-2024412D01*
X2647579Y-2024409D01*
X2647574Y-2024408D01*
X2550002Y-2005000D01*
X1458553Y-2005000D01*
X2225974Y-2772421D01*
X2194742Y-2785359D01*
X2071903Y-2867437D01*
X1967437Y-2971903D01*
X1885359Y-3094742D01*
X1872421Y-3125974D01*
X769457Y-2023010D01*
X769456Y-2023010D01*
X762411Y-2024412D01*
X741199Y-2033199D01*
X658477Y-2088472D01*
X603201Y-2171196D01*
X603198Y-2171201D01*
X593980Y-2193456D01*
X550137Y-2247858D01*
X483842Y-2269921D01*
X479420Y-2270000D01*
X-473563Y-2270000D01*
X-540602Y-2250315D01*
X-586357Y-2197511D01*
X-588124Y-2193453D01*
X-593200Y-2181199D01*
X-648473Y-2098477D01*
X-731197Y-2043201D01*
X-731208Y-2043195D01*
X-752396Y-2034419D01*
X-752417Y-2034411D01*
X-759459Y-2033010D01*
X-1862423Y-3135974D01*
X-1875359Y-3104742D01*
X-1957437Y-2981903D01*
X-2061903Y-2877437D01*
X-2184742Y-2795359D01*
X-2215977Y-2782421D01*
X-1448554Y-2015000D01*
X-2540005Y-2015000D01*
X-2637584Y-2034410D01*
X-2637588Y-2034412D01*
X-2650333Y-2039691D01*
X-2686323Y-2048597D01*
X-2694334Y-2049340D01*
X-2694346Y-2049342D01*
X-2905673Y-2088845D01*
X-2950910Y-2101717D01*
X-2950925Y-2101722D01*
X-3151386Y-2179380D01*
X-3193512Y-2200357D01*
X-3349505Y-2296943D01*
X-2864026Y-2782421D01*
X-2895258Y-2795359D01*
X-3018097Y-2877437D01*
X-3122563Y-2981903D01*
X-3204641Y-3104742D01*
X-3217579Y-3135974D01*
X-3702362Y-2651191D01*
X-3733970Y-2693048D01*
X-3733974Y-2693055D01*
X-3758747Y-2733062D01*
X-3758752Y-2733071D01*
X-3854567Y-2925494D01*
X-3854568Y-2925495D01*
X-3871568Y-2969380D01*
X-3930401Y-3176152D01*
X-3930403Y-3176160D01*
X-3939047Y-3222410D01*
X-3946379Y-3301536D01*
X-3955287Y-3337543D01*
X-3965588Y-3362413D01*
X-3965591Y-3362420D01*
X-3965592Y-3362425D01*
X-3985000Y-3459997D01*
X-19499500Y-3459997D01*
X-19499500Y-2004427D01*
X-19499184Y-1995581D01*
X-19494787Y-1934108D01*
X-19492590Y-1903388D01*
X-11477500Y-1903388D01*
X-11477500Y-2096611D01*
X-11447275Y-2287441D01*
X-11387571Y-2471194D01*
X-11299853Y-2643349D01*
X-11230488Y-2738822D01*
X-11186285Y-2799663D01*
X-11049663Y-2936285D01*
X-10908183Y-3039075D01*
X-10893350Y-3049852D01*
X-10721195Y-3137570D01*
X-10629319Y-3167422D01*
X-10537440Y-3197275D01*
X-10449057Y-3211273D01*
X-10346611Y-3227500D01*
X-10346606Y-3227500D01*
X-10153389Y-3227500D01*
X-10060877Y-3212846D01*
X-9962560Y-3197275D01*
X-9778803Y-3137569D01*
X-9606650Y-3049852D01*
X-9450337Y-2936285D01*
X-9313715Y-2799663D01*
X-9200148Y-2643350D01*
X-9112431Y-2471197D01*
X-9052725Y-2287440D01*
X-9035610Y-2179380D01*
X-9022500Y-2096611D01*
X-9022500Y-1903388D01*
X9522500Y-1903388D01*
X9522500Y-2096611D01*
X9552725Y-2287441D01*
X9612429Y-2471194D01*
X9700147Y-2643349D01*
X9769512Y-2738822D01*
X9813715Y-2799663D01*
X9950337Y-2936285D01*
X10091817Y-3039075D01*
X10106650Y-3049852D01*
X10278805Y-3137570D01*
X10370681Y-3167422D01*
X10462560Y-3197275D01*
X10550943Y-3211273D01*
X10653389Y-3227500D01*
X10653394Y-3227500D01*
X10846611Y-3227500D01*
X10939123Y-3212846D01*
X11037440Y-3197275D01*
X11221197Y-3137569D01*
X11393350Y-3049852D01*
X11549663Y-2936285D01*
X11686285Y-2799663D01*
X11799852Y-2643350D01*
X11887569Y-2471197D01*
X11947275Y-2287440D01*
X11964390Y-2179380D01*
X11977500Y-2096611D01*
X11977500Y-1903388D01*
X11957629Y-1777931D01*
X11947275Y-1712560D01*
X11903405Y-1577542D01*
X11887570Y-1528805D01*
X11799852Y-1356650D01*
X11686284Y-1200336D01*
X11549663Y-1063715D01*
X11393349Y-950147D01*
X11221194Y-862429D01*
X11037441Y-802725D01*
X10846611Y-772500D01*
X10846606Y-772500D01*
X10653394Y-772500D01*
X10653389Y-772500D01*
X10462558Y-802725D01*
X10278805Y-862429D01*
X10106650Y-950147D01*
X9950336Y-1063715D01*
X9813715Y-1200336D01*
X9700147Y-1356650D01*
X9612429Y-1528805D01*
X9552725Y-1712558D01*
X9522500Y-1903388D01*
X-9022500Y-1903388D01*
X-9042371Y-1777931D01*
X-9052725Y-1712560D01*
X-9096595Y-1577542D01*
X-9112430Y-1528805D01*
X-9200148Y-1356650D01*
X-9313716Y-1200336D01*
X-9450337Y-1063715D01*
X-9606651Y-950147D01*
X-9778806Y-862429D01*
X-9962559Y-802725D01*
X-10153389Y-772500D01*
X-10153394Y-772500D01*
X-10346606Y-772500D01*
X-10346611Y-772500D01*
X-10537442Y-802725D01*
X-10721195Y-862429D01*
X-10893350Y-950147D01*
X-11049664Y-1063715D01*
X-11186285Y-1200336D01*
X-11299853Y-1356650D01*
X-11387571Y-1528805D01*
X-11447275Y-1712558D01*
X-11477500Y-1903388D01*
X-19492590Y-1903388D01*
X-19484870Y-1795436D01*
X-19482354Y-1777938D01*
X-19440644Y-1586199D01*
X-19435667Y-1569248D01*
X-19367089Y-1385385D01*
X-19359741Y-1369298D01*
X-19267482Y-1200337D01*
X-19265709Y-1197089D01*
X-19256155Y-1182221D01*
X-19138552Y-1025123D01*
X-19126980Y-1011769D01*
X-18988231Y-873020D01*
X-18974877Y-861448D01*
X-18817779Y-743845D01*
X-18802911Y-734291D01*
X-18630702Y-640258D01*
X-18614615Y-632911D01*
X-18430752Y-564333D01*
X-18413801Y-559356D01*
X-18222062Y-517646D01*
X-18204564Y-515130D01*
X-18004418Y-500816D01*
X-17995572Y-500500D01*
X-17934108Y-500500D01*
X17934108Y-500500D01*
X17995572Y-500500D01*
X18004418Y-500816D01*
G37*
%TD.AperFunction*%
%TD*%
M02*
