%TF.GenerationSoftware,KiCad,Pcbnew,8.0.5*%
%TF.CreationDate,2025-03-05T14:18:00-05:00*%
%TF.ProjectId,minimax,6d696e69-6d61-4782-9e6b-696361645f70,rev?*%
%TF.SameCoordinates,Original*%
%TF.FileFunction,Copper,L1,Top*%
%TF.FilePolarity,Positive*%
%FSLAX46Y46*%
G04 Gerber Fmt 4.6, Leading zero omitted, Abs format (unit mm)*
G04 Created by KiCad (PCBNEW 8.0.5) date 2025-03-05 14:18:00*
%MOMM*%
%LPD*%
G01*
G04 APERTURE LIST*
G04 Aperture macros list*
%AMRoundRect*
0 Rectangle with rounded corners*
0 $1 Rounding radius*
0 $2 $3 $4 $5 $6 $7 $8 $9 X,Y pos of 4 corners*
0 Add a 4 corners polygon primitive as box body*
4,1,4,$2,$3,$4,$5,$6,$7,$8,$9,$2,$3,0*
0 Add four circle primitives for the rounded corners*
1,1,$1+$1,$2,$3*
1,1,$1+$1,$4,$5*
1,1,$1+$1,$6,$7*
1,1,$1+$1,$8,$9*
0 Add four rect primitives between the rounded corners*
20,1,$1+$1,$2,$3,$4,$5,0*
20,1,$1+$1,$4,$5,$6,$7,0*
20,1,$1+$1,$6,$7,$8,$9,0*
20,1,$1+$1,$8,$9,$2,$3,0*%
%AMRotRect*
0 Rectangle, with rotation*
0 The origin of the aperture is its center*
0 $1 length*
0 $2 width*
0 $3 Rotation angle, in degrees counterclockwise*
0 Add horizontal line*
21,1,$1,$2,0,0,$3*%
%AMFreePoly0*
4,1,7,0.650000,-1.525000,-0.650000,-1.525000,-0.650011,-0.675000,-1.750011,-0.675000,-1.750011,1.525000,0.650000,1.525000,0.650000,-1.525000,0.650000,-1.525000,$1*%
%AMFreePoly1*
4,1,7,1.750011,-0.675000,0.650011,-0.675000,0.650000,-1.525000,-0.650000,-1.525000,-0.650000,1.525000,1.750011,1.525000,1.750011,-0.675000,1.750011,-0.675000,$1*%
%AMFreePoly2*
4,1,25,1.707678,1.177678,1.715000,1.160000,1.715000,-0.940000,1.707678,-0.957678,0.957678,-1.707678,0.940000,-1.715000,-1.160000,-1.715000,-1.177678,-1.707678,-1.185000,-1.690000,-1.185000,0.000000,-1.177678,0.017678,-1.156389,0.038966,-1.140249,0.213149,-1.081668,0.419040,-0.986252,0.610661,-0.857250,0.781487,-0.699056,0.925700,-0.517056,1.038389,-0.317449,1.115718,-0.107031,1.155052,
-0.040304,1.155052,-0.017678,1.177678,0.000000,1.185000,1.690000,1.185000,1.707678,1.177678,1.707678,1.177678,$1*%
%AMFreePoly3*
4,1,25,0.017678,1.177678,0.040304,1.155052,0.107031,1.155052,0.317449,1.115718,0.517056,1.038389,0.699056,0.925700,0.857250,0.781487,0.986252,0.610661,1.081668,0.419040,1.140249,0.213149,1.156389,0.038966,1.177678,0.017678,1.185000,0.000000,1.185000,-1.690000,1.177678,-1.707678,1.160000,-1.715000,-0.940000,-1.715000,-0.957678,-1.707678,-1.707678,-0.957678,-1.715000,-0.940000,
-1.715000,1.160000,-1.707678,1.177678,-1.690000,1.185000,0.000000,1.185000,0.017678,1.177678,0.017678,1.177678,$1*%
%AMFreePoly4*
4,1,25,1.177678,1.707678,1.185000,1.690000,1.185000,0.000000,1.177678,-0.017678,1.156389,-0.038966,1.140249,-0.213149,1.081668,-0.419040,0.986252,-0.610661,0.857250,-0.781487,0.699056,-0.925700,0.517056,-1.038389,0.317449,-1.115718,0.107031,-1.155052,0.040304,-1.155052,0.017678,-1.177678,0.000000,-1.185000,-1.690000,-1.185000,-1.707678,-1.177678,-1.715000,-1.160000,-1.715000,0.940000,
-1.707678,0.957678,-0.957678,1.707678,-0.940000,1.715000,1.160000,1.715000,1.177678,1.707678,1.177678,1.707678,$1*%
G04 Aperture macros list end*
%TA.AperFunction,SMDPad,CuDef*%
%ADD10RotRect,1.244600X2.209800X225.000000*%
%TD*%
%TA.AperFunction,SMDPad,CuDef*%
%ADD11RotRect,1.244600X2.209800X315.000000*%
%TD*%
%TA.AperFunction,SMDPad,CuDef*%
%ADD12RoundRect,0.225000X-0.017678X0.335876X-0.335876X0.017678X0.017678X-0.335876X0.335876X-0.017678X0*%
%TD*%
%TA.AperFunction,SMDPad,CuDef*%
%ADD13RoundRect,0.225000X0.225000X0.250000X-0.225000X0.250000X-0.225000X-0.250000X0.225000X-0.250000X0*%
%TD*%
%TA.AperFunction,SMDPad,CuDef*%
%ADD14RoundRect,0.225000X-0.335876X-0.017678X-0.017678X-0.335876X0.335876X0.017678X0.017678X0.335876X0*%
%TD*%
%TA.AperFunction,SMDPad,CuDef*%
%ADD15RoundRect,0.225000X0.017678X-0.335876X0.335876X-0.017678X-0.017678X0.335876X-0.335876X0.017678X0*%
%TD*%
%TA.AperFunction,SMDPad,CuDef*%
%ADD16RoundRect,0.225000X0.335876X0.017678X0.017678X0.335876X-0.335876X-0.017678X-0.017678X-0.335876X0*%
%TD*%
%TA.AperFunction,SMDPad,CuDef*%
%ADD17RoundRect,0.225000X-0.250000X0.225000X-0.250000X-0.225000X0.250000X-0.225000X0.250000X0.225000X0*%
%TD*%
%TA.AperFunction,SMDPad,CuDef*%
%ADD18RoundRect,0.100000X-0.100000X0.155000X-0.100000X-0.155000X0.100000X-0.155000X0.100000X0.155000X0*%
%TD*%
%TA.AperFunction,SMDPad,CuDef*%
%ADD19RoundRect,0.140000X0.170000X-0.140000X0.170000X0.140000X-0.170000X0.140000X-0.170000X-0.140000X0*%
%TD*%
%TA.AperFunction,SMDPad,CuDef*%
%ADD20R,0.300000X0.800000*%
%TD*%
%TA.AperFunction,SMDPad,CuDef*%
%ADD21FreePoly0,0.000000*%
%TD*%
%TA.AperFunction,SMDPad,CuDef*%
%ADD22FreePoly1,0.000000*%
%TD*%
%TA.AperFunction,SMDPad,CuDef*%
%ADD23RoundRect,0.135000X0.135000X0.185000X-0.135000X0.185000X-0.135000X-0.185000X0.135000X-0.185000X0*%
%TD*%
%TA.AperFunction,SMDPad,CuDef*%
%ADD24RotRect,0.254000X0.711200X45.000000*%
%TD*%
%TA.AperFunction,SMDPad,CuDef*%
%ADD25RotRect,0.254000X0.711200X315.000000*%
%TD*%
%TA.AperFunction,SMDPad,CuDef*%
%ADD26RotRect,1.905000X1.905000X315.000000*%
%TD*%
%TA.AperFunction,SMDPad,CuDef*%
%ADD27RoundRect,0.218750X-0.218750X-0.256250X0.218750X-0.256250X0.218750X0.256250X-0.218750X0.256250X0*%
%TD*%
%TA.AperFunction,SMDPad,CuDef*%
%ADD28RoundRect,0.140000X-0.170000X0.140000X-0.170000X-0.140000X0.170000X-0.140000X0.170000X0.140000X0*%
%TD*%
%TA.AperFunction,SMDPad,CuDef*%
%ADD29RoundRect,0.135000X0.185000X-0.135000X0.185000X0.135000X-0.185000X0.135000X-0.185000X-0.135000X0*%
%TD*%
%TA.AperFunction,ComponentPad*%
%ADD30C,1.000000*%
%TD*%
%TA.AperFunction,SMDPad,CuDef*%
%ADD31RoundRect,0.135000X-0.135000X-0.185000X0.135000X-0.185000X0.135000X0.185000X-0.135000X0.185000X0*%
%TD*%
%TA.AperFunction,SMDPad,CuDef*%
%ADD32RoundRect,0.135000X-0.185000X0.135000X-0.185000X-0.135000X0.185000X-0.135000X0.185000X0.135000X0*%
%TD*%
%TA.AperFunction,SMDPad,CuDef*%
%ADD33R,0.762000X0.254000*%
%TD*%
%TA.AperFunction,SMDPad,CuDef*%
%ADD34R,0.254000X0.762000*%
%TD*%
%TA.AperFunction,SMDPad,CuDef*%
%ADD35R,3.200400X3.200400*%
%TD*%
%TA.AperFunction,SMDPad,CuDef*%
%ADD36R,1.550000X0.600000*%
%TD*%
%TA.AperFunction,SMDPad,CuDef*%
%ADD37R,1.800000X1.200000*%
%TD*%
%TA.AperFunction,SMDPad,CuDef*%
%ADD38R,0.650000X2.650000*%
%TD*%
%TA.AperFunction,SMDPad,CuDef*%
%ADD39C,1.650000*%
%TD*%
%TA.AperFunction,ComponentPad*%
%ADD40FreePoly2,180.000000*%
%TD*%
%TA.AperFunction,ComponentPad*%
%ADD41FreePoly3,180.000000*%
%TD*%
%TA.AperFunction,ComponentPad*%
%ADD42FreePoly4,90.000000*%
%TD*%
%TA.AperFunction,ComponentPad*%
%ADD43FreePoly4,180.000000*%
%TD*%
%TA.AperFunction,SMDPad,CuDef*%
%ADD44R,0.380000X0.660000*%
%TD*%
%TA.AperFunction,ViaPad*%
%ADD45C,0.600000*%
%TD*%
%TA.AperFunction,Conductor*%
%ADD46C,0.350000*%
%TD*%
%TA.AperFunction,Conductor*%
%ADD47C,0.254000*%
%TD*%
%TA.AperFunction,Conductor*%
%ADD48C,0.127000*%
%TD*%
%TA.AperFunction,Conductor*%
%ADD49C,0.200000*%
%TD*%
%TA.AperFunction,Conductor*%
%ADD50C,0.155200*%
%TD*%
%TA.AperFunction,Conductor*%
%ADD51C,0.381000*%
%TD*%
G04 APERTURE END LIST*
D10*
%TO.P,L4,1,1*%
%TO.N,+3V3*%
X16059769Y-20886678D03*
%TO.P,L4,2,2*%
%TO.N,Net-(U2-LX1)*%
X14533125Y-22413322D03*
%TD*%
D11*
%TO.P,L3,1,1*%
%TO.N,+1V8*%
X8033125Y-20886678D03*
%TO.P,L3,2,2*%
%TO.N,Net-(U2-LX2)*%
X9559769Y-22413322D03*
%TD*%
D12*
%TO.P,C19,1*%
%TO.N,Net-(U2-OUTS3)*%
X14671232Y-29551992D03*
%TO.P,C19,2*%
%TO.N,GND*%
X13575216Y-30648008D03*
%TD*%
D13*
%TO.P,C3,1*%
%TO.N,Net-(U1-CAP_VDD)*%
X-3625000Y-17700000D03*
%TO.P,C3,2*%
%TO.N,GND*%
X-5175000Y-17700000D03*
%TD*%
D12*
%TO.P,C16,1*%
%TO.N,+3V3*%
X14444455Y-19301992D03*
%TO.P,C16,2*%
%TO.N,GND*%
X13348439Y-20398008D03*
%TD*%
D14*
%TO.P,C14,1*%
%TO.N,+1V8*%
X9648439Y-19301992D03*
%TO.P,C14,2*%
%TO.N,GND*%
X10744455Y-20398008D03*
%TD*%
D15*
%TO.P,C11,1*%
%TO.N,/connector/V_POC*%
X9598439Y-24898008D03*
%TO.P,C11,2*%
%TO.N,GND*%
X10694455Y-23801992D03*
%TD*%
D16*
%TO.P,C18,1*%
%TO.N,+1V2*%
X9494455Y-29548008D03*
%TO.P,C18,2*%
%TO.N,GND*%
X8398439Y-28451992D03*
%TD*%
D17*
%TO.P,C17,1*%
%TO.N,Net-(U2-BIAS)*%
X16173224Y-26925000D03*
%TO.P,C17,2*%
%TO.N,GND*%
X16173224Y-28475000D03*
%TD*%
D16*
%TO.P,C12,1*%
%TO.N,/connector/V_POC*%
X14494455Y-24898008D03*
%TO.P,C12,2*%
%TO.N,GND*%
X13398439Y-23801992D03*
%TD*%
D18*
%TO.P,Q3,1,G*%
%TO.N,Net-(Q3-G)*%
X10200000Y-9845000D03*
%TO.P,Q3,2,S*%
%TO.N,GND*%
X11200000Y-9845000D03*
%TO.P,Q3,3,D*%
%TO.N,Net-(D3-K)*%
X10700000Y-8555000D03*
%TD*%
D19*
%TO.P,C15,1*%
%TO.N,Net-(U2-BST1)*%
X16746447Y-25330000D03*
%TO.P,C15,2*%
%TO.N,Net-(U2-LX1)*%
X16746447Y-24370000D03*
%TD*%
D20*
%TO.P,J1,1,1*%
%TO.N,GND*%
X-5249990Y-34350000D03*
%TO.P,J1,2,2*%
%TO.N,/camera/MIPI.CSI_D0_N*%
X-4749990Y-34350000D03*
%TO.P,J1,3,3*%
%TO.N,/camera/MIPI.CSI_D0_P*%
X-4249989Y-34350000D03*
%TO.P,J1,4,4*%
%TO.N,GND*%
X-3749990Y-34350000D03*
%TO.P,J1,5,5*%
%TO.N,/camera/MIPI.CSI_D1_N*%
X-3249988Y-34350000D03*
%TO.P,J1,6,6*%
%TO.N,/camera/MIPI.CSI_D1_P*%
X-2749989Y-34350000D03*
%TO.P,J1,7,7*%
%TO.N,GND*%
X-2249990Y-34350000D03*
%TO.P,J1,8,8*%
%TO.N,/camera/MIPI.CSI_CLK_N*%
X-1749989Y-34350000D03*
%TO.P,J1,9,9*%
%TO.N,/camera/MIPI.CSI_CLK_P*%
X-1249990Y-34350000D03*
%TO.P,J1,10,10*%
%TO.N,GND*%
X-749988Y-34350000D03*
%TO.P,J1,11,11*%
%TO.N,/camera/MIPI.CSI_D2_N*%
X-249989Y-34350000D03*
%TO.P,J1,12,12*%
%TO.N,/camera/MIPI.CSI_D2_P*%
X250010Y-34350000D03*
%TO.P,J1,13,13*%
%TO.N,GND*%
X750011Y-34350000D03*
%TO.P,J1,14,14*%
%TO.N,/camera/MIPI.CSI_D3_N*%
X1250010Y-34350000D03*
%TO.P,J1,15,15*%
%TO.N,/camera/MIPI.CSI_D3_P*%
X1750009Y-34350000D03*
%TO.P,J1,16,16*%
%TO.N,GND*%
X2250011Y-34350000D03*
%TO.P,J1,17,17*%
%TO.N,/camera/POWER_EN*%
X2750010Y-34350000D03*
%TO.P,J1,18,18*%
%TO.N,/camera/LED_EN*%
X3250011Y-34350000D03*
%TO.P,J1,19,19*%
%TO.N,GND*%
X3750010Y-34350000D03*
%TO.P,J1,20,20*%
%TO.N,/camera/MFP10_SCL*%
X4250009Y-34350000D03*
%TO.P,J1,21,21*%
%TO.N,/camera/MFP9_SDA*%
X4750011Y-34350000D03*
%TO.P,J1,22,22*%
%TO.N,+3V3*%
X5250010Y-34350000D03*
D21*
%TO.P,J1,P1,P1*%
%TO.N,GND*%
X-7149989Y-36275000D03*
D22*
%TO.P,J1,P2,P2*%
X7149989Y-36275000D03*
%TD*%
D19*
%TO.P,C1,1*%
%TO.N,+1V8*%
X3700000Y-19530000D03*
%TO.P,C1,2*%
%TO.N,GND*%
X3700000Y-18570000D03*
%TD*%
D23*
%TO.P,R19,1*%
%TO.N,VDDIO*%
X5710000Y-26600000D03*
%TO.P,R19,2*%
%TO.N,/camera/POWER_EN*%
X4690000Y-26600000D03*
%TD*%
D24*
%TO.P,U2,1,PGND2*%
%TO.N,GND*%
X11553029Y-25095920D03*
%TO.P,U2,2,LX2*%
%TO.N,Net-(U2-LX2)*%
X11199474Y-25449474D03*
%TO.P,U2,3,SUP2*%
%TO.N,/connector/V_POC*%
X10845921Y-25803027D03*
%TO.P,U2,4,BST2*%
%TO.N,Net-(U2-BST2)*%
X10492367Y-26156582D03*
D25*
%TO.P,U2,5,PGOOD*%
%TO.N,Net-(Q3-G)*%
X10492367Y-27143418D03*
%TO.P,U2,6,OUTS2*%
%TO.N,+1V8*%
X10845921Y-27496973D03*
%TO.P,U2,7,OUTS4*%
%TO.N,+1V2*%
X11199474Y-27850526D03*
%TO.P,U2,8,OUTS1*%
%TO.N,+3V3*%
X11553029Y-28204080D03*
D24*
%TO.P,U2,9,LDOIN3*%
X12539865Y-28204080D03*
%TO.P,U2,10,OUTS3*%
%TO.N,Net-(U2-OUTS3)*%
X12893420Y-27850526D03*
%TO.P,U2,11,AGND*%
%TO.N,GND*%
X13246973Y-27496973D03*
%TO.P,U2,12,BIAS*%
%TO.N,Net-(U2-BIAS)*%
X13600527Y-27143418D03*
D25*
%TO.P,U2,13,BST1*%
%TO.N,Net-(U2-BST1)*%
X13600527Y-26156582D03*
%TO.P,U2,14,SUP1*%
%TO.N,/connector/V_POC*%
X13246973Y-25803027D03*
%TO.P,U2,15,LX1*%
%TO.N,Net-(U2-LX1)*%
X12893420Y-25449474D03*
%TO.P,U2,16,PGND1*%
%TO.N,GND*%
X12539865Y-25095920D03*
D26*
%TO.P,U2,17,EPAD*%
X12046447Y-26650000D03*
%TD*%
D27*
%TO.P,D1,1,K*%
%TO.N,Net-(D1-K)*%
X-16587500Y-7000000D03*
%TO.P,D1,2,A*%
%TO.N,Net-(D1-A)*%
X-15012500Y-7000000D03*
%TD*%
D23*
%TO.P,R10,1*%
%TO.N,VDDIO*%
X14510000Y-33800000D03*
%TO.P,R10,2*%
%TO.N,MFP2_CFG1*%
X13490000Y-33800000D03*
%TD*%
D28*
%TO.P,C13,1*%
%TO.N,Net-(U2-LX2)*%
X7346447Y-24370000D03*
%TO.P,C13,2*%
%TO.N,Net-(U2-BST2)*%
X7346447Y-25330000D03*
%TD*%
D29*
%TO.P,R8,1*%
%TO.N,+3V3*%
X-8400000Y-9510000D03*
%TO.P,R8,2*%
%TO.N,Net-(D2-A)*%
X-8400000Y-8490000D03*
%TD*%
D19*
%TO.P,C10,1*%
%TO.N,/connector/SIO_N*%
X-1061100Y-20430000D03*
%TO.P,C10,2*%
%TO.N,Net-(C10-Pad2)*%
X-1061100Y-19470000D03*
%TD*%
D30*
%TO.P,TP1,1,1*%
%TO.N,Net-(U1-MFP8)*%
X-18000000Y-38000000D03*
%TD*%
D19*
%TO.P,C8,1*%
%TO.N,VDDIO*%
X-6525000Y-21230000D03*
%TO.P,C8,2*%
%TO.N,GND*%
X-6525000Y-20270000D03*
%TD*%
%TO.P,C6,1*%
%TO.N,+1V2*%
X-4400000Y-20330000D03*
%TO.P,C6,2*%
%TO.N,GND*%
X-4400000Y-19370000D03*
%TD*%
%TO.P,C2,1*%
%TO.N,+1V8*%
X2450000Y-19530000D03*
%TO.P,C2,2*%
%TO.N,GND*%
X2450000Y-18570000D03*
%TD*%
D31*
%TO.P,R6,1*%
%TO.N,VDDIO*%
X-8710000Y-23600000D03*
%TO.P,R6,2*%
%TO.N,/gmsl/ERRB*%
X-7690000Y-23600000D03*
%TD*%
D19*
%TO.P,C9,1*%
%TO.N,/connector/SIO_P*%
X-11100Y-20430000D03*
%TO.P,C9,2*%
%TO.N,Net-(C9-Pad2)*%
X-11100Y-19470000D03*
%TD*%
D32*
%TO.P,R1,1*%
%TO.N,+3V3*%
X17200000Y-12290000D03*
%TO.P,R1,2*%
%TO.N,VDDIO*%
X17200000Y-13310000D03*
%TD*%
D27*
%TO.P,D3,1,K*%
%TO.N,Net-(D3-K)*%
X10712500Y-7000000D03*
%TO.P,D3,2,A*%
%TO.N,Net-(D3-A)*%
X12287500Y-7000000D03*
%TD*%
D33*
%TO.P,U1,1,PWDNB*%
%TO.N,Net-(U1-PWDNB)*%
X2164600Y-26299999D03*
%TO.P,U1,2,MFP0*%
%TO.N,/camera/POWER_EN*%
X2164600Y-25800000D03*
%TO.P,U1,3,MFP1/CFG0*%
%TO.N,MFP1_CFG0*%
X2164600Y-25300001D03*
%TO.P,U1,4,MFP2/CFG1*%
%TO.N,MFP2_CFG1*%
X2164600Y-24800000D03*
%TO.P,U1,5,MFP9*%
%TO.N,/camera/MFP9_SDA*%
X2164600Y-24300000D03*
%TO.P,U1,6,MFP10*%
%TO.N,/camera/MFP10_SCL*%
X2164600Y-23799999D03*
%TO.P,U1,7,VREF*%
%TO.N,unconnected-(U1-VREF-Pad7)*%
X2164600Y-23300000D03*
%TO.P,U1,8,X1/OSC*%
%TO.N,unconnected-(U1-X1{slash}OSC-Pad8)*%
X2164600Y-22800001D03*
D34*
%TO.P,U1,9,X2*%
%TO.N,unconnected-(U1-X2-Pad9)*%
X1488899Y-22124300D03*
%TO.P,U1,10,XRES*%
%TO.N,Net-(U1-XRES)*%
X988900Y-22124300D03*
%TO.P,U1,11,VDD18*%
%TO.N,+1V8*%
X488901Y-22124300D03*
%TO.P,U1,12,SIOP*%
%TO.N,/connector/SIO_P*%
X-11100Y-22124300D03*
%TO.P,U1,13,SION*%
%TO.N,/connector/SIO_N*%
X-511100Y-22124300D03*
%TO.P,U1,14,CAP_VDD*%
%TO.N,Net-(U1-CAP_VDD)*%
X-1011101Y-22124300D03*
%TO.P,U1,15,VDD*%
%TO.N,+1V2*%
X-1511100Y-22124300D03*
%TO.P,U1,16,VDDIO*%
%TO.N,VDDIO*%
X-2011099Y-22124300D03*
D33*
%TO.P,U1,17,MFP3*%
%TO.N,/gmsl/LOCK*%
X-2686800Y-22800001D03*
%TO.P,U1,18,MFP4*%
%TO.N,/gmsl/ERRB*%
X-2686800Y-23300000D03*
%TO.P,U1,19,D2P*%
%TO.N,/camera/MIPI.CSI_D0_N*%
X-2686800Y-23799999D03*
%TO.P,U1,20,D2N*%
%TO.N,/camera/MIPI.CSI_D0_P*%
X-2686800Y-24300000D03*
%TO.P,U1,21,MFP5*%
%TO.N,/camera/LED_EN*%
X-2686800Y-24800000D03*
%TO.P,U1,22,MFP6*%
%TO.N,Net-(U1-MFP6)*%
X-2686800Y-25300001D03*
%TO.P,U1,23,D3P*%
%TO.N,/camera/MIPI.CSI_D1_N*%
X-2686800Y-25800000D03*
%TO.P,U1,24,D3N*%
%TO.N,/camera/MIPI.CSI_D1_P*%
X-2686800Y-26299999D03*
D34*
%TO.P,U1,25,D0P*%
%TO.N,/camera/MIPI.CSI_D2_N*%
X-2011099Y-26975700D03*
%TO.P,U1,26,D0N*%
%TO.N,/camera/MIPI.CSI_D2_P*%
X-1511100Y-26975700D03*
%TO.P,U1,27,CKP*%
%TO.N,/camera/MIPI.CSI_CLK_N*%
X-1011101Y-26975700D03*
%TO.P,U1,28,CKN*%
%TO.N,/camera/MIPI.CSI_CLK_P*%
X-511100Y-26975700D03*
%TO.P,U1,29,D1P*%
%TO.N,/camera/MIPI.CSI_D3_N*%
X-11100Y-26975700D03*
%TO.P,U1,30,D1N*%
%TO.N,/camera/MIPI.CSI_D3_P*%
X488901Y-26975700D03*
%TO.P,U1,31,MFP7*%
%TO.N,Net-(U1-MFP7)*%
X988900Y-26975700D03*
%TO.P,U1,32,MFP8*%
%TO.N,Net-(U1-MFP8)*%
X1488899Y-26975700D03*
D35*
%TO.P,U1,33,GND*%
%TO.N,GND*%
X-261100Y-24550000D03*
%TD*%
D23*
%TO.P,R3,1*%
%TO.N,VDDIO*%
X-8690000Y-26600000D03*
%TO.P,R3,2*%
%TO.N,/camera/MFP10_SCL*%
X-9710000Y-26600000D03*
%TD*%
%TO.P,R2,1*%
%TO.N,VDDIO*%
X-8690000Y-25400000D03*
%TO.P,R2,2*%
%TO.N,/camera/MFP9_SDA*%
X-9710000Y-25400000D03*
%TD*%
D31*
%TO.P,R11,1*%
%TO.N,MFP1_CFG0*%
X13490000Y-38200000D03*
%TO.P,R11,2*%
%TO.N,GND*%
X14510000Y-38200000D03*
%TD*%
D18*
%TO.P,Q1,1,G*%
%TO.N,/gmsl/LOCK*%
X-17100000Y-9845000D03*
%TO.P,Q1,2,S*%
%TO.N,GND*%
X-16100000Y-9845000D03*
%TO.P,Q1,3,D*%
%TO.N,Net-(D1-K)*%
X-16600000Y-8555000D03*
%TD*%
D29*
%TO.P,R7,1*%
%TO.N,+3V3*%
X-14800000Y-9510000D03*
%TO.P,R7,2*%
%TO.N,Net-(D1-A)*%
X-14800000Y-8490000D03*
%TD*%
%TO.P,R16,1*%
%TO.N,+3V3*%
X12500000Y-9510000D03*
%TO.P,R16,2*%
%TO.N,Net-(D3-A)*%
X12500000Y-8490000D03*
%TD*%
D19*
%TO.P,C5,1*%
%TO.N,+1V2*%
X-3300000Y-20330000D03*
%TO.P,C5,2*%
%TO.N,GND*%
X-3300000Y-19370000D03*
%TD*%
D36*
%TO.P,J4,1,1*%
%TO.N,GND*%
X-14725000Y-25500000D03*
%TO.P,J4,2,2*%
%TO.N,+3V3*%
X-14725000Y-26500000D03*
%TO.P,J4,3,3*%
%TO.N,/camera/MFP9_SDA*%
X-14725000Y-27500000D03*
%TO.P,J4,4,4*%
%TO.N,/camera/MFP10_SCL*%
X-14725000Y-28500000D03*
D37*
%TO.P,J4,S1*%
%TO.N,N/C*%
X-18600000Y-24200000D03*
%TO.P,J4,S2*%
X-18600000Y-29800000D03*
%TD*%
D29*
%TO.P,R14,1*%
%TO.N,Net-(C10-Pad2)*%
X-1100000Y-18410000D03*
%TO.P,R14,2*%
%TO.N,GND*%
X-1100000Y-17390000D03*
%TD*%
D32*
%TO.P,R15,1*%
%TO.N,Net-(U2-BIAS)*%
X17623224Y-26940000D03*
%TO.P,R15,2*%
%TO.N,Net-(Q3-G)*%
X17623224Y-27960000D03*
%TD*%
D27*
%TO.P,D2,1,K*%
%TO.N,GND*%
X-10187500Y-7000000D03*
%TO.P,D2,2,A*%
%TO.N,Net-(D2-A)*%
X-8612500Y-7000000D03*
%TD*%
D31*
%TO.P,R18,1*%
%TO.N,Net-(U1-XRES)*%
X2090000Y-20825000D03*
%TO.P,R18,2*%
%TO.N,GND*%
X3110000Y-20825000D03*
%TD*%
D23*
%TO.P,R13,1*%
%TO.N,/connector/V_POC*%
X4310000Y-12700000D03*
%TO.P,R13,2*%
%TO.N,Net-(L1-Pad2)*%
X3290000Y-12700000D03*
%TD*%
D30*
%TO.P,TP2,1,1*%
%TO.N,Net-(U1-MFP7)*%
X-18000000Y-35500000D03*
%TD*%
D32*
%TO.P,R5,1*%
%TO.N,+1V8*%
X15900000Y-12290000D03*
%TO.P,R5,2*%
%TO.N,VDDIO*%
X15900000Y-13310000D03*
%TD*%
D38*
%TO.P,L1,1,1*%
%TO.N,/connector/V_POC*%
X5070000Y-14800000D03*
%TO.P,L1,2,2*%
%TO.N,Net-(L1-Pad2)*%
X2530000Y-14800000D03*
%TD*%
D31*
%TO.P,R4,1*%
%TO.N,VDDIO*%
X-8710000Y-22400000D03*
%TO.P,R4,2*%
%TO.N,/gmsl/LOCK*%
X-7690000Y-22400000D03*
%TD*%
D18*
%TO.P,Q2,1,G*%
%TO.N,/gmsl/ERRB*%
X-10600000Y-9845000D03*
%TO.P,Q2,2,S*%
%TO.N,GND*%
X-9600000Y-9845000D03*
%TO.P,Q2,3,D*%
%TO.N,Net-(D2-A)*%
X-10100000Y-8555000D03*
%TD*%
D39*
%TO.P,J2,1,1*%
%TO.N,Net-(C9-Pad2)*%
X0Y-6000000D03*
D40*
%TO.P,J2,2,MH1*%
%TO.N,GND*%
X2540000Y-8540000D03*
D41*
%TO.P,J2,3,MH2*%
X-2540000Y-8540000D03*
D42*
%TO.P,J2,4,MH3*%
X2550000Y-3450000D03*
D43*
%TO.P,J2,5,MH4*%
X-2540000Y-3460000D03*
%TD*%
D30*
%TO.P,TP3,1,1*%
%TO.N,Net-(U1-MFP6)*%
X-18000000Y-33000000D03*
%TD*%
D23*
%TO.P,R17,1*%
%TO.N,VDDIO*%
X5710000Y-27800000D03*
%TO.P,R17,2*%
%TO.N,Net-(U1-PWDNB)*%
X4690000Y-27800000D03*
%TD*%
D19*
%TO.P,C7,1*%
%TO.N,VDDIO*%
X-7625000Y-21230000D03*
%TO.P,C7,2*%
%TO.N,GND*%
X-7625000Y-20270000D03*
%TD*%
D23*
%TO.P,R9,1*%
%TO.N,VDDIO*%
X14510000Y-37000000D03*
%TO.P,R9,2*%
%TO.N,MFP1_CFG0*%
X13490000Y-37000000D03*
%TD*%
D31*
%TO.P,R12,1*%
%TO.N,MFP2_CFG1*%
X13490000Y-35000000D03*
%TO.P,R12,2*%
%TO.N,GND*%
X14510000Y-35000000D03*
%TD*%
D44*
%TO.P,L2,1,1*%
%TO.N,Net-(L1-Pad2)*%
X940000Y-14800000D03*
%TO.P,L2,2,2*%
%TO.N,Net-(C9-Pad2)*%
X-20000Y-14800000D03*
%TD*%
D36*
%TO.P,J3,1,1*%
%TO.N,GND*%
X-14725000Y-15500000D03*
%TO.P,J3,2,2*%
%TO.N,+3V3*%
X-14725000Y-16500000D03*
%TO.P,J3,3,3*%
%TO.N,/camera/MFP9_SDA*%
X-14725000Y-17500000D03*
%TO.P,J3,4,4*%
%TO.N,/camera/MFP10_SCL*%
X-14725000Y-18500000D03*
D37*
%TO.P,J3,S1*%
%TO.N,N/C*%
X-18600000Y-14200000D03*
%TO.P,J3,S2*%
X-18600000Y-19800000D03*
%TD*%
D19*
%TO.P,C4,1*%
%TO.N,Net-(U1-CAP_VDD)*%
X-2250000Y-18380000D03*
%TO.P,C4,2*%
%TO.N,GND*%
X-2250000Y-17420000D03*
%TD*%
D45*
%TO.N,VDDIO*%
X6300000Y-28900000D03*
X15300000Y-36200000D03*
X15300000Y-33000000D03*
X-8700000Y-21225000D03*
X18300000Y-13300000D03*
%TO.N,+3V3*%
X18400000Y-11500000D03*
X-16587500Y-16525000D03*
X16146447Y-18400000D03*
X12546447Y-29350000D03*
X5200000Y-35750000D03*
X-16450000Y-26600000D03*
X11546447Y-29350000D03*
X-14800000Y-10600000D03*
X12500000Y-10600000D03*
X-8400000Y-10500000D03*
X15171447Y-18400000D03*
%TO.N,MFP1_CFG0*%
X13500000Y-36000000D03*
X5250000Y-25100000D03*
%TO.N,MFP2_CFG1*%
X5225000Y-24050000D03*
X13500000Y-32800000D03*
%TO.N,/camera/MIPI.CSI_D2_N*%
X-364760Y-36520000D03*
X-2514770Y-28940000D03*
%TO.N,GND*%
X-261100Y-23550000D03*
X-12075000Y-30550000D03*
X-13975000Y-11975000D03*
X-2950000Y-36400000D03*
X12521447Y-22650000D03*
X-1100000Y-16250000D03*
X12046447Y-26650000D03*
X-12700000Y-36600000D03*
X7875000Y-38725000D03*
X12521447Y-19150000D03*
X-1248714Y-25537614D03*
X4100000Y-36700000D03*
X-7825000Y-12250000D03*
X738900Y-23550000D03*
X-10500000Y-37125000D03*
X8400000Y-11725000D03*
X12046447Y-19875000D03*
X738900Y-24550000D03*
X-9602121Y-28337024D03*
X-1310000Y-31760000D03*
X12850000Y-26650000D03*
X17000000Y-35900000D03*
X-18175000Y-15925000D03*
X-1500000Y-36100000D03*
X12050000Y-25850000D03*
X-1261100Y-24550000D03*
X-261100Y-24550000D03*
X11571447Y-21200000D03*
X12521447Y-21200000D03*
X12021447Y-23400000D03*
X-261100Y-25550000D03*
X-18150000Y-17775000D03*
X-18325000Y-25900000D03*
X17125000Y-38850000D03*
X1020000Y-35720000D03*
X-7500000Y-33300000D03*
X11571447Y-19150000D03*
X12850000Y-12000000D03*
X-12300000Y-34000000D03*
X11571447Y-22650000D03*
X11250000Y-26650000D03*
X270000Y-33110000D03*
X12046447Y-21925000D03*
X738900Y-25550000D03*
X-3000000Y-30020000D03*
X-4500000Y-36350000D03*
X12050000Y-27425000D03*
X9675000Y-34225000D03*
X-1261100Y-23550000D03*
X14873224Y-28050000D03*
X-18150000Y-28000000D03*
%TO.N,/camera/MIPI.CSI_D2_P*%
X-1785230Y-28940000D03*
X364780Y-36520000D03*
%TO.N,/camera/MFP9_SDA*%
X5850000Y-32050000D03*
X-13150000Y-17500000D03*
X-10850000Y-25500000D03*
X4650000Y-23050000D03*
%TO.N,/camera/MFP10_SCL*%
X4800000Y-31200000D03*
X-13150000Y-18500000D03*
X3700000Y-23000000D03*
X-11100000Y-26550000D03*
%TO.N,/connector/V_POC*%
X8421447Y-25375000D03*
X8421447Y-24400000D03*
X6100000Y-15700000D03*
X15671447Y-24400000D03*
X6100000Y-13900000D03*
X15671447Y-25375000D03*
X7000000Y-14800000D03*
X6100000Y-14800000D03*
X7000000Y-15700000D03*
X7000000Y-13900000D03*
%TO.N,/camera/LED_EN*%
X3500000Y-32300000D03*
X-4675000Y-24950000D03*
%TO.N,/camera/POWER_EN*%
X3650000Y-26350000D03*
X3050000Y-35800000D03*
%TO.N,+1V2*%
X10696447Y-30000000D03*
X-5425000Y-20300000D03*
%TO.N,+1V8*%
X14700000Y-11600000D03*
X9796447Y-28100000D03*
X7946447Y-18400000D03*
X8946447Y-18400000D03*
%TO.N,Net-(U1-MFP8)*%
X7900000Y-33600000D03*
%TO.N,/gmsl/LOCK*%
X-5900000Y-22300000D03*
X-17100000Y-11700000D03*
%TO.N,/gmsl/ERRB*%
X-5700000Y-23500000D03*
X-10600000Y-11600000D03*
%TO.N,Net-(Q3-G)*%
X10200000Y-11000000D03*
X9146447Y-27300000D03*
X17623224Y-29200000D03*
%TO.N,Net-(U1-MFP7)*%
X6900000Y-33600000D03*
%TO.N,Net-(U1-MFP6)*%
X-4800000Y-26075000D03*
%TD*%
D46*
%TO.N,/connector/SIO_P*%
X-11100Y-20430000D02*
X-11100Y-21675000D01*
D47*
%TO.N,VDDIO*%
X5710000Y-27800000D02*
X5710000Y-28310000D01*
X-8710000Y-22400000D02*
X-8710000Y-23600000D01*
X14510000Y-33800000D02*
X14510000Y-33790000D01*
X-8700000Y-22390000D02*
X-8710000Y-22400000D01*
X-2011099Y-21788901D02*
X-2011099Y-22124300D01*
X15900000Y-13310000D02*
X17200000Y-13310000D01*
X-8695000Y-21230000D02*
X-7625000Y-21230000D01*
X14510000Y-37000000D02*
X14510000Y-36990000D01*
X-8690000Y-25400000D02*
X-8690000Y-26600000D01*
X14510000Y-33790000D02*
X15300000Y-33000000D01*
X17200000Y-13310000D02*
X18290000Y-13310000D01*
X5710000Y-28310000D02*
X6300000Y-28900000D01*
X-8710000Y-25380000D02*
X-8690000Y-25400000D01*
X-8700000Y-21225000D02*
X-2575000Y-21225000D01*
X-8700000Y-21225000D02*
X-8700000Y-22390000D01*
X-8700000Y-21225000D02*
X-8695000Y-21230000D01*
X-8710000Y-23600000D02*
X-8710000Y-25380000D01*
X-2575000Y-21225000D02*
X-2011099Y-21788901D01*
X5710000Y-26600000D02*
X5710000Y-27800000D01*
X14510000Y-36990000D02*
X15300000Y-36200000D01*
X18290000Y-13310000D02*
X18300000Y-13300000D01*
%TO.N,+3V3*%
X12796447Y-28450000D02*
X12796447Y-29100000D01*
X17200000Y-12290000D02*
X17610000Y-12290000D01*
X11296447Y-29100000D02*
X11546447Y-29350000D01*
X5250010Y-35699990D02*
X5250010Y-34350000D01*
X12546447Y-29293992D02*
X12485225Y-29232770D01*
D48*
X-14800000Y-10600000D02*
X-14825000Y-10575000D01*
X-14825000Y-10575000D02*
X-14825000Y-9560000D01*
X-8400000Y-10500000D02*
X-8400000Y-9510000D01*
D47*
X12550527Y-28204080D02*
X12796447Y-28450000D01*
X12546447Y-29350000D02*
X11546447Y-29350000D01*
X11296447Y-28450000D02*
X11296447Y-29100000D01*
X11542367Y-28204080D02*
X11296447Y-28450000D01*
X-14775000Y-26600000D02*
X-16450000Y-26600000D01*
X12539865Y-28204080D02*
X12550527Y-28204080D01*
X-14662500Y-16525000D02*
X-16587500Y-16525000D01*
X11553029Y-28204080D02*
X11542367Y-28204080D01*
X5200000Y-35750000D02*
X5250010Y-35699990D01*
X12796447Y-29100000D02*
X12546447Y-29350000D01*
X12500000Y-10600000D02*
X12500000Y-9510000D01*
X17610000Y-12290000D02*
X18400000Y-11500000D01*
X12546447Y-29350000D02*
X12546447Y-29293992D01*
%TO.N,Net-(U1-CAP_VDD)*%
X-2250000Y-20223998D02*
X-2250000Y-18380000D01*
X-2250000Y-18380000D02*
X-2945000Y-18380000D01*
X-1011101Y-21462897D02*
X-2250000Y-20223998D01*
X-1011101Y-22124300D02*
X-1011101Y-21462897D01*
X-2945000Y-18380000D02*
X-3625000Y-17700000D01*
D46*
%TO.N,Net-(C9-Pad2)*%
X-28900Y-14791100D02*
X-20000Y-14800000D01*
X-20000Y-14800000D02*
X-20000Y-6000000D01*
X0Y-6020000D02*
X0Y-6000000D01*
X-20000Y-19470000D02*
X-20000Y-14800000D01*
D49*
%TO.N,Net-(U1-XRES)*%
X1851199Y-20800000D02*
X2140000Y-20800000D01*
X988900Y-22124300D02*
X988900Y-21662299D01*
X988900Y-21662299D02*
X1851199Y-20800000D01*
D48*
%TO.N,Net-(U1-PWDNB)*%
X4690000Y-27775000D02*
X4075000Y-27775000D01*
X2599999Y-26299999D02*
X2164600Y-26299999D01*
X4075000Y-27775000D02*
X2599999Y-26299999D01*
%TO.N,MFP1_CFG0*%
X2150001Y-25300001D02*
X2100000Y-25250000D01*
X5250000Y-25100000D02*
X5049999Y-25300001D01*
X13490000Y-37000000D02*
X13490000Y-38200000D01*
X13500000Y-36000000D02*
X13490000Y-36010000D01*
X2164600Y-25300001D02*
X2150001Y-25300001D01*
X13490000Y-36010000D02*
X13490000Y-38200000D01*
X5049999Y-25300001D02*
X2164600Y-25300001D01*
%TO.N,MFP2_CFG1*%
X5225000Y-24050000D02*
X4431375Y-24050000D01*
X4431375Y-24050000D02*
X3681375Y-24800000D01*
X3681375Y-24800000D02*
X2164600Y-24800000D01*
X13490000Y-33800000D02*
X13490000Y-35000000D01*
X13490000Y-32810000D02*
X13500000Y-32800000D01*
X13490000Y-33800000D02*
X13490000Y-32810000D01*
D49*
%TO.N,/connector/SIO_N*%
X-511100Y-21288900D02*
X-1061100Y-20738900D01*
X-511100Y-22124300D02*
X-511100Y-21288900D01*
X-1061100Y-20738900D02*
X-1061100Y-20600000D01*
D50*
%TO.N,/camera/MIPI.CSI_D2_N*%
X-249989Y-34950001D02*
X-152389Y-35047601D01*
X-152389Y-35047601D02*
X-152389Y-35556861D01*
X-2011099Y-26975700D02*
X-2011099Y-27547201D01*
X-152391Y-36307631D02*
X-364760Y-36520000D01*
X-1913499Y-27947971D02*
X-2302401Y-28336873D01*
X-2011099Y-27547201D02*
X-1913499Y-27644801D01*
X-2302401Y-28727631D02*
X-2514770Y-28940000D01*
X-2302401Y-28336873D02*
X-2302401Y-28727631D01*
X-152391Y-35556863D02*
X-152391Y-36307631D01*
X-249989Y-34350000D02*
X-249989Y-34950001D01*
X-1913499Y-27644801D02*
X-1913499Y-27947971D01*
X-152389Y-35556861D02*
X-152391Y-35556863D01*
D49*
%TO.N,Net-(C10-Pad2)*%
X-1061100Y-19470000D02*
X-1061100Y-18448900D01*
X-1061100Y-18448900D02*
X-1100000Y-18410000D01*
X-1081100Y-19450000D02*
X-1061100Y-19470000D01*
D48*
%TO.N,Net-(D1-A)*%
X-14825000Y-7262500D02*
X-15037500Y-7050000D01*
X-14825000Y-8540000D02*
X-14825000Y-7262500D01*
%TO.N,Net-(D2-A)*%
X-10035000Y-8490000D02*
X-10100000Y-8555000D01*
X-8400000Y-8490000D02*
X-8400000Y-7212500D01*
X-8400000Y-8490000D02*
X-10035000Y-8490000D01*
X-8400000Y-7212500D02*
X-8612500Y-7000000D01*
%TO.N,Net-(D3-A)*%
X12500000Y-7212500D02*
X12287500Y-7000000D01*
X12500000Y-8490000D02*
X12500000Y-7212500D01*
%TO.N,Net-(D3-K)*%
X10712500Y-7000000D02*
X10712500Y-8567500D01*
D49*
%TO.N,GND*%
X-5250000Y-36250000D02*
X-5249990Y-36249990D01*
X2250011Y-34949989D02*
X2000000Y-35200000D01*
X-2250000Y-33850000D02*
X-2249990Y-33850010D01*
D48*
X13431162Y-24214604D02*
X13431162Y-23825696D01*
D49*
X2250011Y-34800000D02*
X2250011Y-33850011D01*
X-3750000Y-33850000D02*
X-3749990Y-33850010D01*
X3750010Y-33050010D02*
X3700000Y-33000000D01*
X-3750000Y-36200000D02*
X-3749990Y-36199990D01*
X2250000Y-33850000D02*
X2250011Y-33850011D01*
X-3749990Y-34900000D02*
X-3749990Y-33850010D01*
D47*
X12400000Y-26650000D02*
X12046447Y-26650000D01*
D49*
X750011Y-34900000D02*
X750011Y-33850011D01*
X-749988Y-34900000D02*
X-749988Y-33800012D01*
D47*
X13800000Y-28050000D02*
X13246973Y-27496973D01*
X14873224Y-28050000D02*
X13800000Y-28050000D01*
D49*
X-750000Y-33800000D02*
X-749988Y-33800012D01*
X750011Y-33850011D02*
X750000Y-33850000D01*
D48*
X12069981Y-26636446D02*
X12062132Y-26628597D01*
D49*
X-5249990Y-34900000D02*
X-5249990Y-36249990D01*
X-2249990Y-34900000D02*
X-2249990Y-33850010D01*
X-3749990Y-34900000D02*
X-3749990Y-36199990D01*
D47*
X13246973Y-27496973D02*
X12400000Y-26650000D01*
D49*
X3750010Y-35080010D02*
X3820000Y-35150000D01*
X3750010Y-34350000D02*
X3750010Y-35080010D01*
X-5249990Y-34900000D02*
X-5249990Y-33750010D01*
X-5250000Y-33750000D02*
X-5249990Y-33750010D01*
X2250011Y-34900000D02*
X2250011Y-34800000D01*
X3750010Y-34350000D02*
X3750010Y-33050010D01*
X-2249990Y-34900000D02*
X-2249990Y-36299990D01*
X2250011Y-34800000D02*
X2250011Y-34949989D01*
X-2250000Y-36300000D02*
X-2249990Y-36299990D01*
D50*
%TO.N,/camera/MIPI.CSI_D2_P*%
X152410Y-35683118D02*
X152411Y-35683119D01*
X-1997599Y-28727631D02*
X-1785230Y-28940000D01*
X250010Y-34350000D02*
X250010Y-34950001D01*
X-1511100Y-26975700D02*
X-1511100Y-27547201D01*
X-1511100Y-27547201D02*
X-1608700Y-27644801D01*
X152411Y-36307631D02*
X364780Y-36520000D01*
X250010Y-34950001D02*
X152410Y-35047601D01*
X152411Y-35683119D02*
X152411Y-36307631D01*
X152410Y-35047601D02*
X152410Y-35683118D01*
X-1608700Y-28074228D02*
X-1997599Y-28463127D01*
X-1608700Y-27644801D02*
X-1608700Y-28074228D01*
X-1997599Y-28463127D02*
X-1997599Y-28727631D01*
%TO.N,/camera/MIPI.CSI_D0_P*%
X-3355902Y-24202399D02*
X-4946871Y-24202399D01*
X-4293789Y-33706199D02*
X-4249989Y-33749999D01*
X-3901440Y-32796150D02*
X-3901440Y-32950000D01*
X-4946871Y-24202399D02*
X-5450000Y-24705528D01*
X-4347590Y-33652398D02*
X-4293789Y-33706199D01*
X-2686800Y-24300000D02*
X-3258301Y-24300000D01*
X-4249989Y-33749999D02*
X-4249989Y-34350000D01*
X-4347590Y-32026882D02*
X-4347590Y-32350000D01*
X-4347590Y-33396150D02*
X-4347590Y-33550000D01*
X-4347590Y-33550000D02*
X-4347590Y-33652398D01*
X-5450000Y-30924472D02*
X-4347590Y-32026882D01*
X-5450000Y-24705528D02*
X-5450000Y-30924472D01*
X-3258301Y-24300000D02*
X-3355902Y-24202399D01*
X-3901440Y-32950000D02*
G75*
G02*
X-4124515Y-33173060I-223060J0D01*
G01*
X-4124515Y-33173075D02*
G75*
G03*
X-4347525Y-33396150I15J-223025D01*
G01*
X-4347590Y-32350000D02*
G75*
G03*
X-4124515Y-32573090I223090J0D01*
G01*
X-4124515Y-32573075D02*
G75*
G02*
X-3901475Y-32796150I15J-223025D01*
G01*
%TO.N,/camera/MIPI.CSI_CLK_N*%
X-913500Y-32497971D02*
X-913500Y-32497972D01*
X-442400Y-31656480D02*
X-442400Y-31778400D01*
X610000Y-29827680D02*
X610000Y-29949600D01*
X-913676Y-27696213D02*
X-913676Y-27693777D01*
X-1011101Y-26975700D02*
X-1011101Y-27547201D01*
X-913676Y-28561852D02*
X-442400Y-29033128D01*
X-1749989Y-33749999D02*
X-1749989Y-34350000D01*
X-913676Y-27693777D02*
X-913676Y-28561852D01*
X-442400Y-31778400D02*
X-442400Y-32026871D01*
X518560Y-30041040D02*
X-46160Y-30041040D01*
X-1652389Y-33236861D02*
X-1652389Y-33652399D01*
X-442400Y-29033128D02*
X-442400Y-29340000D01*
X-46160Y-29736240D02*
X518560Y-29736240D01*
X-1494800Y-30437280D02*
X-1494800Y-30559200D01*
X610000Y-31046880D02*
X610000Y-31168800D01*
X518560Y-31260240D02*
X-46160Y-31260240D01*
X-1098560Y-30955440D02*
X-442400Y-30955440D01*
X-442400Y-30955440D02*
X518560Y-30955440D01*
X-914164Y-27655052D02*
X-914164Y-27705409D01*
X-442400Y-32026871D02*
X-458965Y-32043436D01*
X-1652389Y-33652399D02*
X-1749989Y-33749999D01*
X-1011101Y-27547201D02*
X-913500Y-27644802D01*
X-46160Y-30041040D02*
X-1098560Y-30041040D01*
X-458965Y-32043436D02*
X-913500Y-32497971D01*
X-913500Y-32497972D02*
X-1652389Y-33236861D01*
X-442400Y-29340000D02*
G75*
G03*
X-46160Y-29736200I396200J0D01*
G01*
X-46160Y-31260240D02*
G75*
G03*
X-442460Y-31656480I-40J-396260D01*
G01*
X518560Y-30955440D02*
G75*
G02*
X610060Y-31046880I40J-91460D01*
G01*
X610000Y-31168800D02*
G75*
G02*
X518560Y-31260200I-91400J0D01*
G01*
X-1494800Y-30559200D02*
G75*
G03*
X-1098560Y-30955400I396200J0D01*
G01*
X610000Y-29949600D02*
G75*
G02*
X518560Y-30041000I-91400J0D01*
G01*
X-1098560Y-30041040D02*
G75*
G03*
X-1494860Y-30437280I-40J-396260D01*
G01*
X518560Y-29736240D02*
G75*
G02*
X610060Y-29827680I40J-91460D01*
G01*
%TO.N,/camera/MIPI.CSI_D3_N*%
X2457600Y-32110000D02*
X2457600Y-32246872D01*
X86501Y-28142029D02*
X536872Y-28592400D01*
X2457600Y-32246872D02*
X2296872Y-32407600D01*
X3610000Y-30176000D02*
X3610000Y-30340000D01*
X86501Y-27644802D02*
X86501Y-28142029D01*
X2296872Y-32407600D02*
X1816872Y-32407600D01*
X-11100Y-27547201D02*
X86501Y-27644802D01*
X1347610Y-32876862D02*
X1347610Y-33652399D01*
X2938000Y-30000400D02*
X3434400Y-30000400D01*
X3434400Y-30515600D02*
X2938000Y-30515600D01*
X536872Y-28592400D02*
X1742400Y-28592400D01*
X2457600Y-31980000D02*
X2457600Y-32110000D01*
X1250010Y-33749999D02*
X1250010Y-34350000D01*
X1305200Y-30996000D02*
X1305200Y-31160000D01*
X1816872Y-32407600D02*
X1347610Y-32876862D01*
X1785600Y-31640400D02*
X2282000Y-31640400D01*
X-11100Y-26975700D02*
X-11100Y-27547201D01*
X2457600Y-29307600D02*
X2457600Y-29520000D01*
X1742400Y-28592400D02*
X2457600Y-29307600D01*
X2457600Y-31816000D02*
X2457600Y-31980000D01*
X2938000Y-30515600D02*
X1785600Y-30515600D01*
X1347610Y-33652399D02*
X1250010Y-33749999D01*
X3610000Y-30340000D02*
G75*
G02*
X3434400Y-30515600I-175600J0D01*
G01*
X1785600Y-30515600D02*
G75*
G03*
X1305200Y-30996000I0J-480400D01*
G01*
X2282000Y-31640400D02*
G75*
G02*
X2457600Y-31816000I0J-175600D01*
G01*
X3434400Y-30000400D02*
G75*
G02*
X3610000Y-30176000I0J-175600D01*
G01*
X2457600Y-29520000D02*
G75*
G03*
X2938000Y-30000400I480400J0D01*
G01*
X1305200Y-31160000D02*
G75*
G03*
X1785600Y-31640400I480400J0D01*
G01*
%TO.N,/camera/MIPI.CSI_D3_P*%
X1652409Y-33003119D02*
X1652409Y-33652399D01*
X391300Y-28015772D02*
X663128Y-28287600D01*
X2762400Y-29172400D02*
X2762400Y-29520000D01*
X2938000Y-30820400D02*
X1785600Y-30820400D01*
X2938000Y-29695600D02*
X3434400Y-29695600D01*
X1877600Y-28287600D02*
X2762400Y-29172400D01*
X3434400Y-30820400D02*
X2938000Y-30820400D01*
X1750009Y-33749999D02*
X1750009Y-34350000D01*
X2762400Y-32373128D02*
X2423128Y-32712400D01*
X663128Y-28287600D02*
X1877600Y-28287600D01*
X2423128Y-32712400D02*
X1943128Y-32712400D01*
X1610000Y-30996000D02*
X1610000Y-31160000D01*
X1943128Y-32712400D02*
X1652409Y-33003119D01*
X1785600Y-31335600D02*
X2282000Y-31335600D01*
X3914800Y-30176000D02*
X3914800Y-30340000D01*
X488901Y-27547201D02*
X391300Y-27644802D01*
X391300Y-27644802D02*
X391300Y-28015772D01*
X2762400Y-31980000D02*
X2762400Y-32110000D01*
X1652409Y-33652399D02*
X1750009Y-33749999D01*
X2762400Y-31816000D02*
X2762400Y-31980000D01*
X488901Y-26975700D02*
X488901Y-27547201D01*
X2762400Y-32110000D02*
X2762400Y-32373128D01*
X2762400Y-29520000D02*
G75*
G03*
X2938000Y-29695600I175600J0D01*
G01*
X3914800Y-30340000D02*
G75*
G02*
X3434400Y-30820400I-480400J0D01*
G01*
X1785600Y-30820400D02*
G75*
G03*
X1610000Y-30996000I0J-175600D01*
G01*
X3434400Y-29695600D02*
G75*
G02*
X3914800Y-30176000I0J-480400D01*
G01*
X2282000Y-31335600D02*
G75*
G02*
X2762400Y-31816000I0J-480400D01*
G01*
X1610000Y-31160000D02*
G75*
G03*
X1785600Y-31335600I175600J0D01*
G01*
%TO.N,/camera/MIPI.CSI_D1_P*%
X-2847589Y-31486883D02*
X-2847589Y-31316883D01*
X-2847589Y-33652399D02*
X-2847589Y-33009611D01*
X-3235200Y-27663520D02*
X-3235200Y-27541600D01*
X-3797600Y-26610000D02*
X-3797600Y-26407600D01*
X-3797600Y-30366872D02*
X-3797600Y-29980000D01*
X-3631440Y-27145360D02*
X-3706160Y-27145360D01*
X-3631440Y-28364560D02*
X-3797600Y-28364560D01*
X-4193840Y-29583760D02*
X-4268560Y-29583760D01*
X-3592399Y-26202399D02*
X-3355901Y-26202399D01*
X-2364729Y-32526751D02*
X-2364729Y-32329611D01*
X-2847589Y-31316883D02*
X-3797600Y-30366872D01*
X-3235200Y-28882720D02*
X-3235200Y-28760800D01*
X-3797600Y-28364560D02*
X-4268560Y-28364560D01*
X-4268560Y-29278960D02*
X-4193840Y-29278960D01*
X-4193840Y-29278960D02*
X-3631440Y-29278960D01*
X-2749989Y-34350000D02*
X-2749989Y-33749999D01*
X-2847589Y-31846751D02*
X-2847589Y-31649611D01*
X-4360000Y-28273120D02*
X-4360000Y-28151200D01*
X-2749989Y-33749999D02*
X-2847589Y-33652399D01*
X-3797600Y-26932000D02*
X-3797600Y-26610000D01*
X-3797600Y-26407600D02*
X-3592399Y-26202399D01*
X-3258301Y-26299999D02*
X-2686800Y-26299999D01*
X-3355901Y-26202399D02*
X-3258301Y-26299999D01*
X-2847589Y-31649611D02*
X-2847589Y-31486883D01*
X-3797600Y-27053920D02*
X-3797600Y-26932000D01*
X-4360000Y-29492320D02*
X-4360000Y-29370400D01*
X-4102400Y-28059760D02*
X-3631440Y-28059760D01*
X-4268560Y-28059760D02*
X-4102400Y-28059760D01*
X-3235200Y-28760800D02*
G75*
G03*
X-3631440Y-28364600I-396200J0D01*
G01*
X-3235200Y-27541600D02*
G75*
G03*
X-3631440Y-27145400I-396200J0D01*
G01*
X-4268560Y-29583760D02*
G75*
G02*
X-4360060Y-29492320I-40J91460D01*
G01*
X-4360000Y-28151200D02*
G75*
G02*
X-4268560Y-28059800I91400J0D01*
G01*
X-3631440Y-28059760D02*
G75*
G03*
X-3235140Y-27663520I40J396260D01*
G01*
X-4360000Y-29370400D02*
G75*
G02*
X-4268560Y-29279000I91400J0D01*
G01*
X-3706160Y-27145360D02*
G75*
G02*
X-3797660Y-27053920I-40J91460D01*
G01*
X-2364729Y-32329611D02*
G75*
G03*
X-2606159Y-32088129I-241471J11D01*
G01*
X-2606159Y-32768181D02*
G75*
G03*
X-2364819Y-32526751I-41J241381D01*
G01*
X-4268560Y-28364560D02*
G75*
G02*
X-4360060Y-28273120I-40J91460D01*
G01*
X-2606159Y-32088181D02*
G75*
G02*
X-2847581Y-31846751I-41J241381D01*
G01*
X-3797600Y-29980000D02*
G75*
G03*
X-4193840Y-29583800I-396200J0D01*
G01*
X-3631440Y-29278960D02*
G75*
G03*
X-3235140Y-28882720I40J396260D01*
G01*
X-2847589Y-33009611D02*
G75*
G02*
X-2606159Y-32768211I241389J11D01*
G01*
%TO.N,/camera/MIPI.CSI_CLK_P*%
X-1249990Y-33749999D02*
X-1249990Y-34350000D01*
X-608701Y-32624229D02*
X-1347590Y-33363118D01*
X-609364Y-27655052D02*
X-609364Y-27705409D01*
X-608876Y-27696213D02*
X-608876Y-27693777D01*
X-46160Y-29431440D02*
X518560Y-29431440D01*
X-46160Y-30345840D02*
X-1098560Y-30345840D01*
X-1347590Y-33652399D02*
X-1249990Y-33749999D01*
X-1190000Y-30437280D02*
X-1190000Y-30559200D01*
X-608701Y-32624228D02*
X-608701Y-32624229D01*
X914800Y-31046880D02*
X914800Y-31168800D01*
X-511100Y-27547201D02*
X-608701Y-27644802D01*
X-442400Y-30650640D02*
X518560Y-30650640D01*
X914800Y-29827680D02*
X914800Y-29949600D01*
X-137600Y-32153127D02*
X-243437Y-32258964D01*
X-137600Y-31656480D02*
X-137600Y-31778400D01*
X518560Y-30345840D02*
X-46160Y-30345840D01*
X-137600Y-31778400D02*
X-137600Y-32153127D01*
X518560Y-31565040D02*
X-46160Y-31565040D01*
X-243437Y-32258964D02*
X-608701Y-32624228D01*
X-608876Y-28435596D02*
X-137600Y-28906872D01*
X-137600Y-28906872D02*
X-137600Y-29340000D01*
X-511100Y-26975700D02*
X-511100Y-27547201D01*
X-1098560Y-30650640D02*
X-442400Y-30650640D01*
X-1347590Y-33363118D02*
X-1347590Y-33652399D01*
X-608876Y-27693777D02*
X-608876Y-28435596D01*
X518560Y-29431440D02*
G75*
G02*
X914860Y-29827680I40J-396260D01*
G01*
X-137600Y-29340000D02*
G75*
G03*
X-46160Y-29431400I91400J0D01*
G01*
X-1098560Y-30345840D02*
G75*
G03*
X-1190060Y-30437280I-40J-91460D01*
G01*
X-46160Y-31565040D02*
G75*
G03*
X-137660Y-31656480I-40J-91460D01*
G01*
X-1190000Y-30559200D02*
G75*
G03*
X-1098560Y-30650600I91400J0D01*
G01*
X914800Y-29949600D02*
G75*
G02*
X518560Y-30345800I-396200J0D01*
G01*
X518560Y-30650640D02*
G75*
G02*
X914860Y-31046880I40J-396260D01*
G01*
X914800Y-31168800D02*
G75*
G02*
X518560Y-31565000I-396200J0D01*
G01*
D48*
%TO.N,/camera/MFP9_SDA*%
X-12850000Y-27500000D02*
X-14725000Y-27500000D01*
X-13150000Y-17500000D02*
X-14725000Y-17500000D01*
X5850000Y-32050000D02*
X5850000Y-32431374D01*
X4750011Y-33531363D02*
X4750011Y-34350000D01*
X3400000Y-24300000D02*
X2164600Y-24300000D01*
X-10850000Y-25500000D02*
X-12850000Y-27500000D01*
X-9810000Y-25500000D02*
X-9710000Y-25400000D01*
X4650000Y-23050000D02*
X3400000Y-24300000D01*
X-10850000Y-25500000D02*
X-9810000Y-25500000D01*
X5850000Y-32431374D02*
X4750011Y-33531363D01*
D50*
%TO.N,/camera/MIPI.CSI_D1_N*%
X-3249988Y-33749999D02*
X-3152389Y-33652400D01*
X-3249988Y-34350000D02*
X-3249988Y-33749999D01*
X-3258301Y-25800000D02*
X-2686800Y-25800000D01*
X-4268560Y-28974160D02*
X-4193840Y-28974160D01*
X-4664800Y-29492320D02*
X-4664800Y-29370400D01*
X-4102400Y-26202400D02*
X-3797600Y-25897600D01*
X-4102400Y-27754960D02*
X-3631440Y-27754960D01*
X-3152389Y-33652400D02*
X-3152389Y-31443139D01*
X-4664800Y-28273120D02*
X-4664800Y-28151200D01*
X-4193840Y-29888560D02*
X-4268560Y-29888560D01*
X-4193840Y-28974160D02*
X-3631440Y-28974160D01*
X-3797600Y-25897600D02*
X-3355901Y-25897600D01*
X-4102400Y-26932000D02*
X-4102400Y-26610000D01*
X-4102400Y-26610000D02*
X-4102400Y-26202400D01*
X-3631440Y-28669360D02*
X-3797600Y-28669360D01*
X-3540000Y-28882720D02*
X-3540000Y-28760800D01*
X-3631440Y-27450160D02*
X-3706160Y-27450160D01*
X-3152389Y-31443139D02*
X-4102400Y-30493128D01*
X-4268560Y-27754960D02*
X-4102400Y-27754960D01*
X-4102400Y-30493128D02*
X-4102400Y-29980000D01*
X-3355901Y-25897600D02*
X-3258301Y-25800000D01*
X-4102400Y-27053920D02*
X-4102400Y-26932000D01*
X-3540000Y-27663520D02*
X-3540000Y-27541600D01*
X-3797600Y-28669360D02*
X-4268560Y-28669360D01*
X-3540000Y-28760800D02*
G75*
G03*
X-3631440Y-28669400I-91400J0D01*
G01*
X-4268560Y-28669360D02*
G75*
G02*
X-4664860Y-28273120I-40J396260D01*
G01*
X-4664800Y-29370400D02*
G75*
G02*
X-4268560Y-28974200I396200J0D01*
G01*
X-4102400Y-29980000D02*
G75*
G03*
X-4193840Y-29888600I-91400J0D01*
G01*
X-3631440Y-28974160D02*
G75*
G03*
X-3539940Y-28882720I40J91460D01*
G01*
X-3706160Y-27450160D02*
G75*
G02*
X-4102460Y-27053920I-40J396260D01*
G01*
X-3540000Y-27541600D02*
G75*
G03*
X-3631440Y-27450200I-91400J0D01*
G01*
X-4664800Y-28151200D02*
G75*
G02*
X-4268560Y-27755000I396200J0D01*
G01*
X-3631440Y-27754960D02*
G75*
G03*
X-3539940Y-27663520I40J91460D01*
G01*
X-4268560Y-29888560D02*
G75*
G02*
X-4664860Y-29492320I-40J396260D01*
G01*
D48*
%TO.N,/camera/MFP10_SCL*%
X2900001Y-23799999D02*
X2164600Y-23799999D01*
X-11050000Y-26600000D02*
X-11100000Y-26550000D01*
X4250009Y-31749991D02*
X4250009Y-34350000D01*
X-9710000Y-26600000D02*
X-11050000Y-26600000D01*
X4800000Y-31200000D02*
X4250009Y-31749991D01*
X3700000Y-23000000D02*
X2900001Y-23799999D01*
X-11100000Y-26550000D02*
X-13050000Y-28500000D01*
X-13150000Y-18500000D02*
X-14725000Y-18500000D01*
X-11150000Y-26500000D02*
X-11100000Y-26550000D01*
X-13050000Y-28500000D02*
X-14725000Y-28500000D01*
D50*
%TO.N,/camera/MIPI.CSI_D0_N*%
X-3258301Y-23799999D02*
X-3355902Y-23897600D01*
X-5760000Y-24584472D02*
X-5760000Y-31045528D01*
X-4652389Y-33652398D02*
X-4749990Y-33749999D01*
X-5760000Y-31045528D02*
X-4652389Y-32153139D01*
X-3355902Y-23897600D02*
X-5073128Y-23897600D01*
X-2686800Y-23799999D02*
X-3258301Y-23799999D01*
X-4749990Y-33749999D02*
X-4749990Y-34350000D01*
X-4652389Y-32153139D02*
X-4652389Y-33652398D01*
X-5073128Y-23897600D02*
X-5760000Y-24584472D01*
D47*
%TO.N,/connector/V_POC*%
X9100431Y-24400000D02*
X9598439Y-24898008D01*
X14971447Y-25375000D02*
X14494455Y-24898008D01*
X10845921Y-25803027D02*
X9940902Y-24898008D01*
X15671447Y-24400000D02*
X14992463Y-24400000D01*
D48*
X5030000Y-15830000D02*
X5030000Y-14800000D01*
D47*
X9940902Y-24898008D02*
X9598439Y-24898008D01*
D48*
X5080000Y-15050000D02*
X5080000Y-16020000D01*
X14138269Y-24921712D02*
X14527177Y-24921712D01*
D47*
X13246973Y-25803027D02*
X14151992Y-24898008D01*
X14992463Y-24400000D02*
X14494455Y-24898008D01*
X14151992Y-24898008D02*
X14494455Y-24898008D01*
D48*
X4310000Y-12700000D02*
X4310000Y-14040000D01*
D47*
X8421447Y-25375000D02*
X9121447Y-25375000D01*
X8421447Y-24400000D02*
X9100431Y-24400000D01*
X15671447Y-25375000D02*
X14971447Y-25375000D01*
D48*
X4310000Y-14040000D02*
X5070000Y-14800000D01*
D47*
X9121447Y-25375000D02*
X9598439Y-24898008D01*
D48*
%TO.N,Net-(L1-Pad2)*%
X3290000Y-14040000D02*
X2530000Y-14800000D01*
D51*
X940000Y-14800000D02*
X2490000Y-14800000D01*
D48*
X2490000Y-15830000D02*
X2490000Y-14800000D01*
X3290000Y-12700000D02*
X3290000Y-14040000D01*
%TO.N,/camera/LED_EN*%
X3500000Y-32300000D02*
X3250011Y-32549989D01*
X-4675000Y-24950000D02*
X-4525000Y-24800000D01*
X-4525000Y-24800000D02*
X-2686800Y-24800000D01*
X3250011Y-32549989D02*
X3250011Y-34350000D01*
%TO.N,/camera/POWER_EN*%
X3650000Y-26350000D02*
X3100000Y-25800000D01*
X3100000Y-25800000D02*
X2164600Y-25800000D01*
X2750010Y-35500010D02*
X2750010Y-34350000D01*
X4690000Y-26600000D02*
X3900000Y-26600000D01*
X3050000Y-35800000D02*
X2750010Y-35500010D01*
X3900000Y-26600000D02*
X3650000Y-26350000D01*
D49*
%TO.N,Net-(U2-LX2)*%
X11199474Y-25424474D02*
X9574507Y-23799507D01*
X11199474Y-25439212D02*
X11199474Y-25424474D01*
D47*
X7351447Y-24370000D02*
X9308125Y-22413322D01*
D49*
X9574507Y-23799507D02*
X9559769Y-23799507D01*
D47*
X7346447Y-24370000D02*
X7351447Y-24370000D01*
D49*
X9559769Y-23799507D02*
X9559769Y-22413322D01*
D47*
X9308125Y-22413322D02*
X9559769Y-22413322D01*
%TO.N,Net-(U2-BST2)*%
X8016447Y-26000000D02*
X7346447Y-25330000D01*
X10492367Y-26156582D02*
X10335785Y-26000000D01*
X10335785Y-26000000D02*
X8016447Y-26000000D01*
%TO.N,+1V2*%
X-5395000Y-20330000D02*
X-2795000Y-20330000D01*
X10696447Y-30000000D02*
X9946447Y-30000000D01*
X-2795000Y-20330000D02*
X-1511100Y-21613900D01*
X9946447Y-30000000D02*
X9494455Y-29548008D01*
X-1511100Y-21613900D02*
X-1511100Y-22124300D01*
X11191937Y-27850526D02*
X9494455Y-29548008D01*
X-5425000Y-20300000D02*
X-5395000Y-20330000D01*
X11199474Y-27850526D02*
X11191937Y-27850526D01*
%TO.N,+1V8*%
X488901Y-22124300D02*
X488901Y-21361099D01*
X15390000Y-12290000D02*
X14700000Y-11600000D01*
X8033125Y-20633125D02*
X8033125Y-20886678D01*
X3730000Y-19500000D02*
X6900000Y-19500000D01*
X10845921Y-27496973D02*
X10242894Y-28100000D01*
X3700000Y-19530000D02*
X2450000Y-19530000D01*
X6900000Y-19500000D02*
X8033125Y-20633125D01*
X10242894Y-28100000D02*
X9796447Y-28100000D01*
X488901Y-21361099D02*
X2320000Y-19530000D01*
X2320000Y-19530000D02*
X2450000Y-19530000D01*
X3700000Y-19530000D02*
X3730000Y-19500000D01*
X15900000Y-12290000D02*
X15390000Y-12290000D01*
%TO.N,Net-(U2-OUTS3)*%
X12893420Y-27850526D02*
X12900957Y-27850526D01*
X12900957Y-27850526D02*
X14598439Y-29548008D01*
%TO.N,Net-(U2-BIAS)*%
X13857109Y-27400000D02*
X14350000Y-27400000D01*
X14350000Y-27400000D02*
X14848008Y-26901992D01*
X13600527Y-27143418D02*
X13857109Y-27400000D01*
X16150216Y-26901992D02*
X16173224Y-26925000D01*
X16188225Y-26940001D02*
X17623224Y-26940001D01*
X14848008Y-26901992D02*
X16150216Y-26901992D01*
X16173224Y-26925000D02*
X16188225Y-26940001D01*
%TO.N,Net-(U2-BST1)*%
X13600527Y-26145920D02*
X13746447Y-26000000D01*
X13746447Y-26000000D02*
X16076447Y-26000000D01*
X13600527Y-26156582D02*
X13600527Y-26145920D01*
X16076447Y-26000000D02*
X16746447Y-25330000D01*
D49*
%TO.N,Net-(U2-LX1)*%
X12893420Y-25428027D02*
X14533125Y-23788322D01*
X12893420Y-25449474D02*
X12893420Y-25428027D01*
D47*
X14784769Y-22413322D02*
X16741447Y-24370000D01*
X14533125Y-22413322D02*
X14784769Y-22413322D01*
X16741447Y-24370000D02*
X16746447Y-24370000D01*
D49*
X14533125Y-23788322D02*
X14533125Y-22413322D01*
D48*
%TO.N,Net-(U1-MFP8)*%
X7900000Y-33600000D02*
X7900000Y-32550000D01*
X1700000Y-27650000D02*
X1488899Y-27438899D01*
X3000000Y-27650000D02*
X1700000Y-27650000D01*
X1488899Y-27438899D02*
X1488899Y-26975700D01*
X7900000Y-32550000D02*
X3000000Y-27650000D01*
%TO.N,/gmsl/LOCK*%
X-5900000Y-22300000D02*
X-6000000Y-22400000D01*
X-5399999Y-22800001D02*
X-2686800Y-22800001D01*
X-6000000Y-22400000D02*
X-7690000Y-22400000D01*
X-17100000Y-11700000D02*
X-17100000Y-9845000D01*
X-5900000Y-22300000D02*
X-5399999Y-22800001D01*
%TO.N,/gmsl/ERRB*%
X-5700000Y-23500000D02*
X-5500000Y-23300000D01*
X-5800000Y-23600000D02*
X-7690000Y-23600000D01*
X-5500000Y-23300000D02*
X-2686800Y-23300000D01*
X-10600000Y-11600000D02*
X-10600000Y-9845000D01*
X-5700000Y-23500000D02*
X-5800000Y-23600000D01*
%TO.N,Net-(Q3-G)*%
X17623224Y-29200000D02*
X17623224Y-27959999D01*
X10200000Y-9845000D02*
X10200000Y-11000000D01*
X10246447Y-27400000D02*
X9246447Y-27400000D01*
X9246447Y-27400000D02*
X9146447Y-27300000D01*
X10492367Y-27154080D02*
X10246447Y-27400000D01*
X10492367Y-27143418D02*
X10492367Y-27154080D01*
%TO.N,Net-(U1-MFP7)*%
X988900Y-27613900D02*
X988900Y-26975700D01*
X1325000Y-27950000D02*
X988900Y-27613900D01*
X2900000Y-27950000D02*
X1325000Y-27950000D01*
X6900000Y-31950000D02*
X2900000Y-27950000D01*
X6900000Y-33600000D02*
X6900000Y-31950000D01*
%TO.N,Net-(U1-MFP6)*%
X-4025001Y-25300001D02*
X-2686800Y-25300001D01*
X-4800000Y-26075000D02*
X-4025001Y-25300001D01*
%TO.N,Net-(D1-K)*%
X-16587500Y-7000000D02*
X-16612500Y-7025000D01*
X-16612500Y-7025000D02*
X-16612500Y-8617500D01*
%TD*%
%TA.AperFunction,Conductor*%
%TO.N,/connector/V_POC*%
G36*
X7428039Y-13519685D02*
G01*
X7473794Y-13572489D01*
X7485000Y-13624000D01*
X7485000Y-15976000D01*
X7465315Y-16043039D01*
X7412511Y-16088794D01*
X7361000Y-16100000D01*
X4859000Y-16100000D01*
X4791961Y-16080315D01*
X4746206Y-16027511D01*
X4735000Y-15976000D01*
X4735000Y-13624000D01*
X4754685Y-13556961D01*
X4807489Y-13511206D01*
X4859000Y-13500000D01*
X7361000Y-13500000D01*
X7428039Y-13519685D01*
G37*
%TD.AperFunction*%
%TD*%
%TA.AperFunction,Conductor*%
%TO.N,+3V3*%
G36*
X16337124Y-18019685D02*
G01*
X16357766Y-18036319D01*
X17260128Y-18938681D01*
X17293613Y-19000004D01*
X17296447Y-19026362D01*
X17296447Y-21173638D01*
X17276762Y-21240677D01*
X17260128Y-21261319D01*
X16484128Y-22037319D01*
X16422805Y-22070804D01*
X16353113Y-22065820D01*
X16308766Y-22037319D01*
X13709128Y-19437681D01*
X13675643Y-19376358D01*
X13680627Y-19306666D01*
X13709128Y-19262319D01*
X14935128Y-18036319D01*
X14996451Y-18002834D01*
X15022809Y-18000000D01*
X16270085Y-18000000D01*
X16337124Y-18019685D01*
G37*
%TD.AperFunction*%
%TD*%
%TA.AperFunction,Conductor*%
%TO.N,GND*%
G36*
X-3514164Y-33295843D02*
G01*
X-3482573Y-33358163D01*
X-3480489Y-33380799D01*
X-3480489Y-33465135D01*
X-3500174Y-33532174D01*
X-3507944Y-33541815D01*
X-3507584Y-33542091D01*
X-3512529Y-33548535D01*
X-3512532Y-33548539D01*
X-3512533Y-33548541D01*
X-3516296Y-33555059D01*
X-3555729Y-33623357D01*
X-3555730Y-33623360D01*
X-3558984Y-33635504D01*
X-3591075Y-33691084D01*
X-3599990Y-33699999D01*
X-3599990Y-33760820D01*
X-3619675Y-33827859D01*
X-3620887Y-33829709D01*
X-3642739Y-33862414D01*
X-3643971Y-33861590D01*
X-3679275Y-33905396D01*
X-3745571Y-33927456D01*
X-3813269Y-33910173D01*
X-3860876Y-33859033D01*
X-3863852Y-33852517D01*
X-3864023Y-33852261D01*
X-3864023Y-33852260D01*
X-3879094Y-33829705D01*
X-3899970Y-33763028D01*
X-3899990Y-33760816D01*
X-3899990Y-33700000D01*
X-3908901Y-33691089D01*
X-3940995Y-33635499D01*
X-3940995Y-33635498D01*
X-3944248Y-33623358D01*
X-3944478Y-33622959D01*
X-3944569Y-33622584D01*
X-3947359Y-33615848D01*
X-3946309Y-33615412D01*
X-3960949Y-33555059D01*
X-3938096Y-33489032D01*
X-3890889Y-33449240D01*
X-3829430Y-33419647D01*
X-3732318Y-33342209D01*
X-3701434Y-33303483D01*
X-3644245Y-33263345D01*
X-3574433Y-33260497D01*
X-3514164Y-33295843D01*
G37*
%TD.AperFunction*%
%TA.AperFunction,Conductor*%
G36*
X1140299Y-31673935D02*
G01*
X1184641Y-31702434D01*
X1270205Y-31787998D01*
X1270212Y-31788004D01*
X1402630Y-31876482D01*
X1402631Y-31876482D01*
X1402632Y-31876483D01*
X1549769Y-31937430D01*
X1549771Y-31937430D01*
X1549773Y-31937431D01*
X1550165Y-31937509D01*
X1550351Y-31937606D01*
X1555601Y-31939199D01*
X1555299Y-31940194D01*
X1612078Y-31969891D01*
X1646654Y-32030606D01*
X1642917Y-32100375D01*
X1613660Y-32146808D01*
X1146152Y-32614317D01*
X1085067Y-32675401D01*
X1041870Y-32750218D01*
X1032209Y-32786273D01*
X1019973Y-32831941D01*
X1019510Y-32833668D01*
X1019510Y-33465134D01*
X999825Y-33532173D01*
X992054Y-33541815D01*
X992414Y-33542091D01*
X987469Y-33548535D01*
X987466Y-33548539D01*
X987465Y-33548541D01*
X983702Y-33555059D01*
X944269Y-33623357D01*
X944268Y-33623360D01*
X941013Y-33635508D01*
X908922Y-33691088D01*
X900011Y-33699999D01*
X900011Y-33760816D01*
X880326Y-33827855D01*
X879114Y-33829706D01*
X857259Y-33862415D01*
X856026Y-33861591D01*
X820729Y-33905391D01*
X754434Y-33927455D01*
X686735Y-33910175D01*
X639125Y-33859037D01*
X636146Y-33852516D01*
X635976Y-33852262D01*
X635976Y-33852260D01*
X620907Y-33829708D01*
X600031Y-33763031D01*
X600011Y-33760819D01*
X600011Y-33700000D01*
X575385Y-33700000D01*
X525484Y-33709926D01*
X477100Y-33709926D01*
X424686Y-33699500D01*
X424684Y-33699500D01*
X75336Y-33699500D01*
X75335Y-33699500D01*
X24198Y-33709671D01*
X-24182Y-33709670D01*
X-75311Y-33699500D01*
X-75315Y-33699500D01*
X-424663Y-33699500D01*
X-477081Y-33709926D01*
X-525461Y-33709926D01*
X-575364Y-33700000D01*
X-599988Y-33700000D01*
X-599988Y-33760816D01*
X-619673Y-33827855D01*
X-620885Y-33829706D01*
X-642740Y-33862415D01*
X-643973Y-33861591D01*
X-679276Y-33905396D01*
X-745572Y-33927456D01*
X-813270Y-33910173D01*
X-860877Y-33859033D01*
X-863854Y-33852513D01*
X-879091Y-33829709D01*
X-899968Y-33763031D01*
X-899988Y-33760820D01*
X-899988Y-33700000D01*
X-908903Y-33691085D01*
X-940997Y-33635498D01*
X-943271Y-33627011D01*
X-944250Y-33623357D01*
X-969727Y-33579230D01*
X-986199Y-33511332D01*
X-963347Y-33445305D01*
X-950026Y-33429556D01*
X-346156Y-32825687D01*
X-346156Y-32825685D01*
X-335952Y-32815482D01*
X-335949Y-32815477D01*
X19108Y-32460422D01*
X124945Y-32354585D01*
X128068Y-32349176D01*
X168140Y-32279769D01*
X190500Y-32196322D01*
X190500Y-32017140D01*
X210185Y-31950101D01*
X262989Y-31904346D01*
X314500Y-31893140D01*
X569715Y-31893140D01*
X570230Y-31893104D01*
X589865Y-31893106D01*
X589868Y-31893107D01*
X589868Y-31893106D01*
X589869Y-31893107D01*
X729814Y-31865283D01*
X861640Y-31810691D01*
X980283Y-31731427D01*
X1009283Y-31702430D01*
X1070607Y-31668948D01*
X1140299Y-31673935D01*
G37*
%TD.AperFunction*%
%TA.AperFunction,Conductor*%
G36*
X2855345Y-32846700D02*
G01*
X2911278Y-32888572D01*
X2935695Y-32954036D01*
X2936011Y-32962882D01*
X2936011Y-33575500D01*
X2916326Y-33642539D01*
X2863522Y-33688294D01*
X2812011Y-33699500D01*
X2575336Y-33699500D01*
X2522918Y-33709926D01*
X2474538Y-33709926D01*
X2424635Y-33700000D01*
X2400011Y-33700000D01*
X2400011Y-33760816D01*
X2380326Y-33827855D01*
X2379114Y-33829706D01*
X2357259Y-33862415D01*
X2356026Y-33861591D01*
X2320723Y-33905396D01*
X2254427Y-33927456D01*
X2186729Y-33910173D01*
X2139122Y-33859033D01*
X2136145Y-33852513D01*
X2120908Y-33829709D01*
X2100031Y-33763031D01*
X2100011Y-33760820D01*
X2100011Y-33700000D01*
X2091096Y-33691085D01*
X2059002Y-33635498D01*
X2056728Y-33627011D01*
X2055749Y-33623357D01*
X2012554Y-33548541D01*
X2012550Y-33548537D01*
X2012549Y-33548535D01*
X2007605Y-33542091D01*
X2009978Y-33540270D01*
X1983343Y-33491492D01*
X1980509Y-33465134D01*
X1980509Y-33190384D01*
X2000194Y-33123345D01*
X2016828Y-33102703D01*
X2042712Y-33076819D01*
X2104035Y-33043334D01*
X2130393Y-33040500D01*
X2466321Y-33040500D01*
X2466323Y-33040500D01*
X2549770Y-33018140D01*
X2624586Y-32974945D01*
X2685673Y-32913858D01*
X2724330Y-32875201D01*
X2785653Y-32841716D01*
X2855345Y-32846700D01*
G37*
%TD.AperFunction*%
%TA.AperFunction,Conductor*%
G36*
X-1025371Y-28914160D02*
G01*
X-806819Y-29132712D01*
X-773334Y-29194035D01*
X-770500Y-29220393D01*
X-770500Y-29288598D01*
X-770540Y-29288734D01*
X-770540Y-29340000D01*
X-770540Y-29411346D01*
X-746871Y-29530330D01*
X-742699Y-29551298D01*
X-742199Y-29552946D01*
X-742191Y-29553851D01*
X-741511Y-29557269D01*
X-742160Y-29557397D01*
X-741576Y-29622813D01*
X-778826Y-29681926D01*
X-842120Y-29711516D01*
X-860860Y-29712940D01*
X-1149322Y-29712940D01*
X-1150170Y-29712994D01*
X-1169866Y-29712993D01*
X-1169867Y-29712993D01*
X-1309803Y-29740814D01*
X-1309815Y-29740817D01*
X-1441626Y-29795401D01*
X-1441629Y-29795402D01*
X-1560270Y-29874662D01*
X-1560273Y-29874664D01*
X-1661162Y-29975537D01*
X-1661166Y-29975543D01*
X-1740443Y-30094170D01*
X-1740444Y-30094171D01*
X-1795052Y-30225983D01*
X-1795053Y-30225986D01*
X-1822898Y-30365925D01*
X-1822899Y-30389674D01*
X-1822900Y-30389709D01*
X-1822900Y-30437264D01*
X-1822904Y-30499194D01*
X-1822900Y-30499243D01*
X-1822900Y-30507798D01*
X-1822940Y-30507934D01*
X-1822940Y-30559200D01*
X-1822940Y-30630546D01*
X-1795100Y-30770495D01*
X-1740491Y-30902324D01*
X-1661211Y-31020965D01*
X-1560308Y-31121858D01*
X-1520430Y-31148500D01*
X-1441661Y-31201125D01*
X-1441660Y-31201125D01*
X-1441659Y-31201126D01*
X-1309825Y-31255722D01*
X-1169873Y-31283547D01*
X-1169873Y-31283546D01*
X-1169872Y-31283547D01*
X-1134200Y-31283543D01*
X-1098527Y-31283540D01*
X-860812Y-31283540D01*
X-793773Y-31303225D01*
X-748018Y-31356029D01*
X-738074Y-31425187D01*
X-742154Y-31443542D01*
X-742652Y-31445181D01*
X-770498Y-31585125D01*
X-770499Y-31608874D01*
X-770500Y-31608909D01*
X-770500Y-31656471D01*
X-770504Y-31718394D01*
X-770500Y-31718443D01*
X-770500Y-31839605D01*
X-790185Y-31906644D01*
X-806819Y-31927286D01*
X-1114958Y-32235426D01*
X-1176047Y-32296515D01*
X-1853847Y-32974316D01*
X-1914932Y-33035400D01*
X-1958129Y-33110217D01*
X-1962853Y-33127847D01*
X-1979609Y-33190384D01*
X-1980489Y-33193667D01*
X-1980489Y-33465134D01*
X-2000174Y-33532173D01*
X-2007945Y-33541815D01*
X-2007585Y-33542091D01*
X-2012530Y-33548535D01*
X-2012533Y-33548539D01*
X-2012534Y-33548541D01*
X-2016297Y-33555059D01*
X-2055730Y-33623357D01*
X-2055731Y-33623361D01*
X-2058985Y-33635504D01*
X-2091076Y-33691085D01*
X-2099990Y-33699999D01*
X-2099990Y-33760819D01*
X-2119675Y-33827858D01*
X-2120887Y-33829709D01*
X-2142740Y-33862415D01*
X-2143973Y-33861591D01*
X-2179270Y-33905391D01*
X-2245565Y-33927455D01*
X-2313264Y-33910175D01*
X-2360874Y-33859037D01*
X-2363853Y-33852516D01*
X-2364023Y-33852262D01*
X-2364023Y-33852260D01*
X-2379094Y-33829705D01*
X-2399970Y-33763028D01*
X-2399990Y-33760816D01*
X-2399990Y-33700000D01*
X-2408901Y-33691089D01*
X-2440995Y-33635502D01*
X-2444249Y-33623357D01*
X-2487444Y-33548541D01*
X-2487448Y-33548537D01*
X-2487449Y-33548535D01*
X-2492393Y-33542091D01*
X-2490020Y-33540270D01*
X-2516655Y-33491492D01*
X-2519489Y-33465134D01*
X-2519489Y-33190103D01*
X-2499804Y-33123064D01*
X-2447000Y-33077309D01*
X-2423098Y-33069216D01*
X-2416797Y-33067777D01*
X-2301164Y-33012066D01*
X-2200829Y-32932020D01*
X-2120821Y-32831655D01*
X-2065153Y-32716002D01*
X-2036616Y-32590861D01*
X-2036629Y-32526684D01*
X-2036629Y-32524321D01*
X-2036629Y-32286416D01*
X-2036629Y-32278532D01*
X-2036679Y-32277804D01*
X-2036677Y-32265462D01*
X-2065225Y-32140349D01*
X-2120895Y-32024724D01*
X-2126942Y-32017140D01*
X-2200894Y-31924388D01*
X-2200898Y-31924383D01*
X-2226018Y-31904346D01*
X-2301219Y-31844361D01*
X-2301221Y-31844360D01*
X-2301222Y-31844359D01*
X-2416830Y-31788667D01*
X-2416840Y-31788663D01*
X-2423106Y-31787232D01*
X-2484078Y-31753111D01*
X-2516923Y-31691443D01*
X-2519489Y-31666347D01*
X-2519489Y-31273689D01*
X-2519489Y-31273688D01*
X-2541849Y-31190241D01*
X-2554228Y-31168800D01*
X-2585044Y-31115424D01*
X-3433181Y-30267287D01*
X-3466666Y-30205964D01*
X-3469500Y-30179606D01*
X-3469500Y-30031402D01*
X-3469460Y-30031265D01*
X-3469460Y-29908653D01*
X-3476406Y-29873736D01*
X-3497300Y-29768705D01*
X-3506136Y-29747375D01*
X-3513607Y-29677911D01*
X-3482335Y-29615430D01*
X-3425754Y-29581855D01*
X-3426027Y-29580954D01*
X-3422362Y-29579842D01*
X-3422248Y-29579775D01*
X-3421820Y-29579677D01*
X-3420202Y-29579186D01*
X-3420193Y-29579185D01*
X-3288370Y-29524596D01*
X-3169730Y-29445337D01*
X-3068931Y-29344553D01*
X-3007605Y-29311072D01*
X-2937914Y-29316061D01*
X-2905772Y-29333863D01*
X-2864012Y-29365907D01*
X-2792397Y-29420860D01*
X-2792396Y-29420860D01*
X-2792395Y-29420861D01*
X-2658479Y-29476330D01*
X-2536896Y-29492337D01*
X-2514771Y-29495250D01*
X-2514770Y-29495250D01*
X-2514769Y-29495250D01*
X-2492644Y-29492337D01*
X-2371061Y-29476330D01*
X-2237145Y-29420861D01*
X-2225487Y-29411915D01*
X-2160321Y-29386720D01*
X-2091875Y-29400757D01*
X-2074518Y-29411911D01*
X-2062855Y-29420861D01*
X-1928939Y-29476330D01*
X-1807356Y-29492337D01*
X-1785231Y-29495250D01*
X-1785230Y-29495250D01*
X-1785229Y-29495250D01*
X-1763104Y-29492337D01*
X-1641521Y-29476330D01*
X-1507605Y-29420861D01*
X-1392609Y-29332621D01*
X-1304369Y-29217625D01*
X-1248900Y-29083709D01*
X-1235991Y-28985654D01*
X-1207724Y-28921759D01*
X-1149400Y-28883288D01*
X-1079535Y-28882457D01*
X-1025371Y-28914160D01*
G37*
%TD.AperFunction*%
%TA.AperFunction,Conductor*%
G36*
X3896506Y-32810081D02*
G01*
X3932158Y-32870170D01*
X3936009Y-32900835D01*
X3936009Y-33612639D01*
X3916324Y-33679678D01*
X3900010Y-33699922D01*
X3900010Y-33760816D01*
X3880325Y-33827855D01*
X3879113Y-33829706D01*
X3857258Y-33862415D01*
X3856023Y-33861590D01*
X3820730Y-33905388D01*
X3754436Y-33927453D01*
X3686737Y-33910174D01*
X3639126Y-33859037D01*
X3636149Y-33852519D01*
X3635977Y-33852262D01*
X3635977Y-33852260D01*
X3620906Y-33829705D01*
X3600030Y-33763028D01*
X3600010Y-33760816D01*
X3600010Y-33699733D01*
X3566845Y-33638997D01*
X3564011Y-33612639D01*
X3564011Y-32952195D01*
X3583696Y-32885156D01*
X3636500Y-32839401D01*
X3640560Y-32837633D01*
X3643704Y-32836330D01*
X3643709Y-32836330D01*
X3764559Y-32786272D01*
X3834027Y-32778805D01*
X3896506Y-32810081D01*
G37*
%TD.AperFunction*%
%TA.AperFunction,Conductor*%
G36*
X18004418Y-500816D02*
G01*
X18204561Y-515130D01*
X18222063Y-517647D01*
X18413797Y-559355D01*
X18430755Y-564334D01*
X18614609Y-632909D01*
X18630701Y-640259D01*
X18802904Y-734288D01*
X18817784Y-743849D01*
X18896432Y-802725D01*
X18974867Y-861441D01*
X18988237Y-873027D01*
X19126972Y-1011762D01*
X19138558Y-1025132D01*
X19256146Y-1182210D01*
X19265711Y-1197095D01*
X19359740Y-1369298D01*
X19367090Y-1385390D01*
X19435662Y-1569236D01*
X19440646Y-1586212D01*
X19482351Y-1777931D01*
X19484869Y-1795442D01*
X19499184Y-1995580D01*
X19499500Y-2004427D01*
X19499500Y-37995572D01*
X19499184Y-38004419D01*
X19484869Y-38204557D01*
X19482351Y-38222068D01*
X19440646Y-38413787D01*
X19435662Y-38430763D01*
X19367090Y-38614609D01*
X19359740Y-38630701D01*
X19265711Y-38802904D01*
X19256146Y-38817789D01*
X19138558Y-38974867D01*
X19126972Y-38988237D01*
X18988237Y-39126972D01*
X18974867Y-39138558D01*
X18817789Y-39256146D01*
X18802904Y-39265711D01*
X18630701Y-39359740D01*
X18614609Y-39367090D01*
X18430763Y-39435662D01*
X18413787Y-39440646D01*
X18222068Y-39482351D01*
X18204557Y-39484869D01*
X18023779Y-39497799D01*
X18004417Y-39499184D01*
X17995572Y-39499500D01*
X-17995572Y-39499500D01*
X-18004418Y-39499184D01*
X-18026378Y-39497613D01*
X-18204558Y-39484869D01*
X-18222069Y-39482351D01*
X-18413788Y-39440646D01*
X-18430764Y-39435662D01*
X-18614610Y-39367090D01*
X-18630702Y-39359740D01*
X-18802905Y-39265711D01*
X-18817790Y-39256146D01*
X-18974868Y-39138558D01*
X-18988238Y-39126972D01*
X-19126973Y-38988237D01*
X-19138559Y-38974867D01*
X-19256151Y-38817784D01*
X-19265712Y-38802904D01*
X-19359741Y-38630701D01*
X-19367091Y-38614609D01*
X-19411191Y-38496373D01*
X-19435666Y-38430755D01*
X-19440645Y-38413797D01*
X-19482353Y-38222063D01*
X-19484870Y-38204556D01*
X-19487481Y-38168056D01*
X-19499184Y-38004418D01*
X-19499342Y-37999997D01*
X-18755249Y-37999997D01*
X-18755249Y-38000002D01*
X-18736315Y-38168056D01*
X-18680455Y-38327694D01*
X-18680453Y-38327697D01*
X-18590482Y-38470884D01*
X-18590477Y-38470890D01*
X-18470891Y-38590476D01*
X-18470885Y-38590481D01*
X-18327698Y-38680452D01*
X-18327695Y-38680454D01*
X-18327691Y-38680455D01*
X-18327690Y-38680456D01*
X-18264226Y-38702663D01*
X-18168057Y-38736314D01*
X-18000003Y-38755249D01*
X-18000000Y-38755249D01*
X-17999997Y-38755249D01*
X-17831944Y-38736314D01*
X-17831941Y-38736313D01*
X-17672310Y-38680456D01*
X-17672308Y-38680454D01*
X-17672306Y-38680454D01*
X-17672303Y-38680452D01*
X-17529116Y-38590481D01*
X-17529115Y-38590480D01*
X-17529110Y-38590477D01*
X-17409523Y-38470890D01*
X-17379091Y-38422458D01*
X-17319548Y-38327697D01*
X-17319546Y-38327694D01*
X-17319546Y-38327692D01*
X-17319544Y-38327690D01*
X-17263687Y-38168059D01*
X-17263687Y-38168058D01*
X-17263686Y-38168056D01*
X-17244751Y-38000002D01*
X-17244751Y-37999997D01*
X-17263686Y-37831943D01*
X-17313330Y-37690069D01*
X-17319544Y-37672310D01*
X-17319545Y-37672309D01*
X-17319546Y-37672305D01*
X-17319548Y-37672302D01*
X-17409519Y-37529115D01*
X-17409524Y-37529109D01*
X-17529110Y-37409523D01*
X-17529116Y-37409518D01*
X-17672303Y-37319547D01*
X-17672306Y-37319545D01*
X-17831944Y-37263685D01*
X-17999997Y-37244751D01*
X-18000003Y-37244751D01*
X-18168057Y-37263685D01*
X-18327695Y-37319545D01*
X-18327698Y-37319547D01*
X-18470885Y-37409518D01*
X-18470891Y-37409523D01*
X-18590477Y-37529109D01*
X-18590482Y-37529115D01*
X-18680453Y-37672302D01*
X-18680455Y-37672305D01*
X-18736315Y-37831943D01*
X-18755249Y-37999997D01*
X-19499342Y-37999997D01*
X-19499500Y-37995572D01*
X-19499500Y-36950004D01*
X-9155000Y-36950004D01*
X-9135591Y-37047579D01*
X-9135589Y-37047583D01*
X-9080312Y-37130311D01*
X-8997584Y-37185588D01*
X-8997580Y-37185590D01*
X-8900005Y-37204999D01*
X-8900002Y-37205000D01*
X-8178995Y-37205000D01*
X-8111956Y-37224685D01*
X-8066201Y-37277489D01*
X-8054995Y-37328998D01*
X-8054990Y-37800004D01*
X-8035578Y-37897584D01*
X-7980301Y-37980311D01*
X-7897573Y-38035588D01*
X-7897569Y-38035590D01*
X-7799994Y-38054999D01*
X-7799991Y-38055000D01*
X-7399989Y-38055000D01*
X-6899989Y-38055000D01*
X-6499987Y-38055000D01*
X-6499985Y-38054999D01*
X-6402410Y-38035590D01*
X-6402406Y-38035588D01*
X-6319678Y-37980311D01*
X-6264401Y-37897583D01*
X-6264399Y-37897579D01*
X-6244990Y-37800004D01*
X6244989Y-37800004D01*
X6264398Y-37897579D01*
X6264400Y-37897583D01*
X6319677Y-37980311D01*
X6402405Y-38035588D01*
X6402409Y-38035590D01*
X6499984Y-38054999D01*
X6499987Y-38055000D01*
X6899989Y-38055000D01*
X7399989Y-38055000D01*
X7799988Y-38055000D01*
X7897572Y-38035590D01*
X7980298Y-37980315D01*
X8035576Y-37897588D01*
X8054989Y-37800004D01*
X8054995Y-37328998D01*
X8074680Y-37261959D01*
X8127485Y-37216205D01*
X8178995Y-37205000D01*
X8900002Y-37205000D01*
X8900004Y-37204999D01*
X8997579Y-37185590D01*
X8997583Y-37185588D01*
X9080311Y-37130311D01*
X9135588Y-37047583D01*
X9135590Y-37047579D01*
X9154999Y-36950004D01*
X9155000Y-36950002D01*
X9155000Y-36525000D01*
X7399989Y-36525000D01*
X7399989Y-38055000D01*
X6899989Y-38055000D01*
X6899989Y-36525000D01*
X6244989Y-36525000D01*
X6244989Y-37800004D01*
X-6244990Y-37800004D01*
X-6244989Y-37800002D01*
X-6244989Y-36525000D01*
X-6899989Y-36525000D01*
X-6899989Y-38055000D01*
X-7399989Y-38055000D01*
X-7399989Y-36525000D01*
X-9155000Y-36525000D01*
X-9155000Y-36950004D01*
X-19499500Y-36950004D01*
X-19499500Y-35499997D01*
X-18755249Y-35499997D01*
X-18755249Y-35500002D01*
X-18736315Y-35668056D01*
X-18680455Y-35827694D01*
X-18680453Y-35827697D01*
X-18590482Y-35970884D01*
X-18590477Y-35970890D01*
X-18470891Y-36090476D01*
X-18470885Y-36090481D01*
X-18327698Y-36180452D01*
X-18327695Y-36180454D01*
X-18327691Y-36180455D01*
X-18327690Y-36180456D01*
X-18320725Y-36182893D01*
X-18168057Y-36236314D01*
X-18000003Y-36255249D01*
X-18000000Y-36255249D01*
X-17999997Y-36255249D01*
X-17831944Y-36236314D01*
X-17782166Y-36218896D01*
X-17672310Y-36180456D01*
X-17672308Y-36180454D01*
X-17672306Y-36180454D01*
X-17672303Y-36180452D01*
X-17529116Y-36090481D01*
X-17529115Y-36090480D01*
X-17529110Y-36090477D01*
X-17409523Y-35970890D01*
X-17379039Y-35922375D01*
X-17319548Y-35827697D01*
X-17319546Y-35827694D01*
X-17319546Y-35827692D01*
X-17319544Y-35827690D01*
X-17263687Y-35668059D01*
X-17263687Y-35668058D01*
X-17263686Y-35668056D01*
X-17244751Y-35500002D01*
X-17244751Y-35499997D01*
X-17263686Y-35331943D01*
X-17319546Y-35172305D01*
X-17319548Y-35172302D01*
X-17409519Y-35029115D01*
X-17409524Y-35029109D01*
X-17529110Y-34909523D01*
X-17529116Y-34909518D01*
X-17672303Y-34819547D01*
X-17672306Y-34819545D01*
X-17831944Y-34763685D01*
X-17953453Y-34749995D01*
X-9155000Y-34749995D01*
X-9155000Y-36025000D01*
X-7399989Y-36025000D01*
X-6899989Y-36025000D01*
X-6244989Y-36025000D01*
X-6244989Y-34774628D01*
X-5649990Y-34774628D01*
X-5635487Y-34847540D01*
X-5635485Y-34847544D01*
X-5580230Y-34930239D01*
X-5497535Y-34985494D01*
X-5497531Y-34985496D01*
X-5424619Y-34999999D01*
X-5424616Y-35000000D01*
X-5399990Y-35000000D01*
X-5399990Y-34500000D01*
X-5649990Y-34500000D01*
X-5649990Y-34774628D01*
X-6244989Y-34774628D01*
X-6244989Y-34749997D01*
X-6244990Y-34749995D01*
X-6264399Y-34652420D01*
X-6264401Y-34652416D01*
X-6319678Y-34569688D01*
X-6402406Y-34514411D01*
X-6402410Y-34514409D01*
X-6499986Y-34495000D01*
X-6899989Y-34495000D01*
X-6899989Y-36025000D01*
X-7399989Y-36025000D01*
X-7399989Y-34495000D01*
X-8900003Y-34495000D01*
X-8997580Y-34514409D01*
X-8997584Y-34514411D01*
X-9080312Y-34569688D01*
X-9135589Y-34652416D01*
X-9135591Y-34652420D01*
X-9155000Y-34749995D01*
X-17953453Y-34749995D01*
X-17999997Y-34744751D01*
X-18000003Y-34744751D01*
X-18168057Y-34763685D01*
X-18327695Y-34819545D01*
X-18327698Y-34819547D01*
X-18470885Y-34909518D01*
X-18470891Y-34909523D01*
X-18590477Y-35029109D01*
X-18590482Y-35029115D01*
X-18680453Y-35172302D01*
X-18680455Y-35172305D01*
X-18736315Y-35331943D01*
X-18755249Y-35499997D01*
X-19499500Y-35499997D01*
X-19499500Y-33925371D01*
X-5649990Y-33925371D01*
X-5649990Y-34200000D01*
X-5399990Y-34200000D01*
X-5399990Y-33700000D01*
X-5424617Y-33700000D01*
X-5497531Y-33714503D01*
X-5497535Y-33714505D01*
X-5580230Y-33769760D01*
X-5635485Y-33852455D01*
X-5635487Y-33852459D01*
X-5649990Y-33925371D01*
X-19499500Y-33925371D01*
X-19499500Y-32999997D01*
X-18755249Y-32999997D01*
X-18755249Y-33000002D01*
X-18736315Y-33168056D01*
X-18680455Y-33327694D01*
X-18680453Y-33327697D01*
X-18590482Y-33470884D01*
X-18590477Y-33470890D01*
X-18470891Y-33590476D01*
X-18470885Y-33590481D01*
X-18327698Y-33680452D01*
X-18327695Y-33680454D01*
X-18327691Y-33680455D01*
X-18327690Y-33680456D01*
X-18297311Y-33691086D01*
X-18168057Y-33736314D01*
X-18000003Y-33755249D01*
X-18000000Y-33755249D01*
X-17999997Y-33755249D01*
X-17831944Y-33736314D01*
X-17831941Y-33736313D01*
X-17672310Y-33680456D01*
X-17672308Y-33680454D01*
X-17672306Y-33680454D01*
X-17672303Y-33680452D01*
X-17529116Y-33590481D01*
X-17529115Y-33590480D01*
X-17529110Y-33590477D01*
X-17409523Y-33470890D01*
X-17405906Y-33465134D01*
X-17319548Y-33327697D01*
X-17319546Y-33327694D01*
X-17319546Y-33327692D01*
X-17319544Y-33327690D01*
X-17263687Y-33168059D01*
X-17263687Y-33168058D01*
X-17263686Y-33168056D01*
X-17244751Y-33000002D01*
X-17244751Y-32999997D01*
X-17263686Y-32831943D01*
X-17316831Y-32680063D01*
X-17319544Y-32672310D01*
X-17319545Y-32672309D01*
X-17319546Y-32672305D01*
X-17319548Y-32672302D01*
X-17409519Y-32529115D01*
X-17409524Y-32529109D01*
X-17529110Y-32409523D01*
X-17529116Y-32409518D01*
X-17672303Y-32319547D01*
X-17672306Y-32319545D01*
X-17831944Y-32263685D01*
X-17999997Y-32244751D01*
X-18000003Y-32244751D01*
X-18168057Y-32263685D01*
X-18327695Y-32319545D01*
X-18327698Y-32319547D01*
X-18470885Y-32409518D01*
X-18470891Y-32409523D01*
X-18590477Y-32529109D01*
X-18590482Y-32529115D01*
X-18680453Y-32672302D01*
X-18680455Y-32672305D01*
X-18736315Y-32831943D01*
X-18755249Y-32999997D01*
X-19499500Y-32999997D01*
X-19499500Y-30774500D01*
X-19479815Y-30707461D01*
X-19427011Y-30661706D01*
X-19375500Y-30650500D01*
X-17675324Y-30650500D01*
X-17675323Y-30650499D01*
X-17602260Y-30635966D01*
X-17519399Y-30580601D01*
X-17464034Y-30497740D01*
X-17449500Y-30424674D01*
X-17449500Y-29175326D01*
X-17449500Y-29175323D01*
X-17449501Y-29175321D01*
X-17464033Y-29102264D01*
X-17464034Y-29102260D01*
X-17476430Y-29083708D01*
X-17519399Y-29019399D01*
X-17577467Y-28980600D01*
X-17602261Y-28964033D01*
X-17602265Y-28964032D01*
X-17675323Y-28949500D01*
X-17675326Y-28949500D01*
X-19375500Y-28949500D01*
X-19442539Y-28929815D01*
X-19488294Y-28877011D01*
X-19499500Y-28825500D01*
X-19499500Y-26600000D01*
X-17005250Y-26600000D01*
X-16993572Y-26688705D01*
X-16986330Y-26743708D01*
X-16986329Y-26743712D01*
X-16930863Y-26877622D01*
X-16930862Y-26877624D01*
X-16930861Y-26877625D01*
X-16842621Y-26992621D01*
X-16727625Y-27080861D01*
X-16727624Y-27080861D01*
X-16727623Y-27080862D01*
X-16711167Y-27087678D01*
X-16593709Y-27136330D01*
X-16466720Y-27153048D01*
X-16450001Y-27155250D01*
X-16450000Y-27155250D01*
X-16449999Y-27155250D01*
X-16435023Y-27153278D01*
X-16306291Y-27136330D01*
X-16172375Y-27080861D01*
X-16071066Y-27003122D01*
X-16005899Y-26977930D01*
X-15995581Y-26977500D01*
X-15862245Y-26977500D01*
X-15795206Y-26997185D01*
X-15749451Y-27049989D01*
X-15739507Y-27119147D01*
X-15740625Y-27125681D01*
X-15748707Y-27166315D01*
X-15750500Y-27175327D01*
X-15750500Y-27824678D01*
X-15735968Y-27897735D01*
X-15735967Y-27897739D01*
X-15735966Y-27897740D01*
X-15713671Y-27931108D01*
X-15713669Y-27931110D01*
X-15692792Y-27997788D01*
X-15711277Y-28065168D01*
X-15713663Y-28068879D01*
X-15717303Y-28074328D01*
X-15735967Y-28102260D01*
X-15735968Y-28102264D01*
X-15750500Y-28175321D01*
X-15750500Y-28824678D01*
X-15735968Y-28897735D01*
X-15735967Y-28897739D01*
X-15735966Y-28897740D01*
X-15680601Y-28980601D01*
X-15610717Y-29027295D01*
X-15597740Y-29035966D01*
X-15597736Y-29035967D01*
X-15524679Y-29050499D01*
X-15524676Y-29050500D01*
X-15524674Y-29050500D01*
X-13925324Y-29050500D01*
X-13925323Y-29050499D01*
X-13852260Y-29035966D01*
X-13769399Y-28980601D01*
X-13714034Y-28897740D01*
X-13714033Y-28897735D01*
X-13711053Y-28890545D01*
X-13667211Y-28836143D01*
X-13600917Y-28814079D01*
X-13596493Y-28814000D01*
X-13008663Y-28814000D01*
X-13008661Y-28814000D01*
X-12941493Y-28796002D01*
X-12928800Y-28792601D01*
X-12928796Y-28792598D01*
X-12928794Y-28792598D01*
X-12857207Y-28751267D01*
X-12857208Y-28751267D01*
X-12857200Y-28751263D01*
X-11241491Y-27135552D01*
X-11180170Y-27102069D01*
X-11137627Y-27100296D01*
X-11100000Y-27105250D01*
X-10956291Y-27086330D01*
X-10822375Y-27030861D01*
X-10707379Y-26942621D01*
X-10707379Y-26942620D01*
X-10703475Y-26939625D01*
X-10638306Y-26914430D01*
X-10627988Y-26914000D01*
X-10288440Y-26914000D01*
X-10221401Y-26933685D01*
X-10177041Y-26983537D01*
X-10163076Y-27012102D01*
X-10163075Y-27012103D01*
X-10163074Y-27012105D01*
X-10072103Y-27103076D01*
X-10072100Y-27103078D01*
X-9976771Y-27149681D01*
X-9956518Y-27159582D01*
X-9881582Y-27170500D01*
X-9881577Y-27170500D01*
X-9538423Y-27170500D01*
X-9538418Y-27170500D01*
X-9463482Y-27159582D01*
X-9393321Y-27125282D01*
X-9347901Y-27103078D01*
X-9347898Y-27103076D01*
X-9287681Y-27042860D01*
X-9226358Y-27009375D01*
X-9156666Y-27014359D01*
X-9112319Y-27042860D01*
X-9052103Y-27103076D01*
X-9052100Y-27103078D01*
X-8956771Y-27149681D01*
X-8936518Y-27159582D01*
X-8861582Y-27170500D01*
X-8861577Y-27170500D01*
X-8518423Y-27170500D01*
X-8518418Y-27170500D01*
X-8443482Y-27159582D01*
X-8373321Y-27125282D01*
X-8327901Y-27103078D01*
X-8327898Y-27103076D01*
X-8236924Y-27012102D01*
X-8236922Y-27012099D01*
X-8189119Y-26914316D01*
X-8180418Y-26896518D01*
X-8169500Y-26821582D01*
X-8169500Y-26378418D01*
X-8180418Y-26303482D01*
X-8188964Y-26286000D01*
X-8236922Y-26187900D01*
X-8236924Y-26187897D01*
X-8276181Y-26148640D01*
X-8309666Y-26087317D01*
X-8312500Y-26060959D01*
X-8312500Y-25939040D01*
X-8292815Y-25872001D01*
X-8276180Y-25851358D01*
X-8236924Y-25812102D01*
X-8236922Y-25812099D01*
X-8202862Y-25742427D01*
X-8180418Y-25696518D01*
X-8169500Y-25621582D01*
X-8169500Y-25178418D01*
X-8180418Y-25103482D01*
X-8182778Y-25098656D01*
X-8236922Y-24987900D01*
X-8236924Y-24987897D01*
X-8296181Y-24928640D01*
X-8329666Y-24867317D01*
X-8332500Y-24840959D01*
X-8332500Y-24139040D01*
X-8312815Y-24072001D01*
X-8296186Y-24051364D01*
X-8294821Y-24049999D01*
X-8287685Y-24042862D01*
X-8226366Y-24009375D01*
X-8156674Y-24014356D01*
X-8112320Y-24042859D01*
X-8052103Y-24103076D01*
X-8052100Y-24103078D01*
X-7941344Y-24157222D01*
X-7936518Y-24159582D01*
X-7861582Y-24170500D01*
X-7861577Y-24170500D01*
X-7518423Y-24170500D01*
X-7518418Y-24170500D01*
X-7443482Y-24159582D01*
X-7369512Y-24123420D01*
X-7327901Y-24103078D01*
X-7327898Y-24103076D01*
X-7236927Y-24012105D01*
X-7236924Y-24012102D01*
X-7222960Y-23983537D01*
X-7175831Y-23931956D01*
X-7111560Y-23914000D01*
X-6106851Y-23914000D01*
X-6039812Y-23933685D01*
X-6031367Y-23939623D01*
X-5977625Y-23980861D01*
X-5896477Y-24014473D01*
X-5842073Y-24058313D01*
X-5820008Y-24124607D01*
X-5837287Y-24192307D01*
X-5856247Y-24216714D01*
X-5961457Y-24321926D01*
X-5961458Y-24321927D01*
X-6022543Y-24383011D01*
X-6065740Y-24457828D01*
X-6073346Y-24486215D01*
X-6088100Y-24541277D01*
X-6088100Y-31088723D01*
X-6079221Y-31121858D01*
X-6065740Y-31172171D01*
X-6065739Y-31172172D01*
X-6049023Y-31201126D01*
X-6035621Y-31224338D01*
X-6022545Y-31246986D01*
X-6022543Y-31246988D01*
X-5016808Y-32252723D01*
X-4983323Y-32314046D01*
X-4980489Y-32340404D01*
X-4980489Y-33465133D01*
X-5000174Y-33532172D01*
X-5007946Y-33541815D01*
X-5007586Y-33542091D01*
X-5012531Y-33548535D01*
X-5012534Y-33548539D01*
X-5012535Y-33548541D01*
X-5016298Y-33555059D01*
X-5055731Y-33623357D01*
X-5058985Y-33635503D01*
X-5091077Y-33691086D01*
X-5099990Y-33699999D01*
X-5099990Y-33760817D01*
X-5119675Y-33827856D01*
X-5120887Y-33829706D01*
X-5135957Y-33852259D01*
X-5150490Y-33925323D01*
X-5150490Y-34774678D01*
X-5135958Y-34847735D01*
X-5135957Y-34847739D01*
X-5135956Y-34847740D01*
X-5120888Y-34870292D01*
X-5100010Y-34936967D01*
X-5099990Y-34939181D01*
X-5099990Y-35000000D01*
X-5075366Y-35000000D01*
X-5025466Y-34990073D01*
X-4977083Y-34990073D01*
X-4924664Y-35000500D01*
X-4575316Y-35000500D01*
X-4524179Y-34990328D01*
X-4475800Y-34990328D01*
X-4436983Y-34998049D01*
X-4424664Y-35000500D01*
X-4424663Y-35000500D01*
X-4075314Y-35000500D01*
X-4038596Y-34993196D01*
X-4022901Y-34990074D01*
X-3974517Y-34990074D01*
X-3924617Y-35000000D01*
X-3899990Y-35000000D01*
X-3899990Y-34939184D01*
X-3880305Y-34872145D01*
X-3879092Y-34870293D01*
X-3857237Y-34837585D01*
X-3856005Y-34838408D01*
X-3820719Y-34794614D01*
X-3754427Y-34772543D01*
X-3686726Y-34789816D01*
X-3639110Y-34840949D01*
X-3636128Y-34847479D01*
X-3635955Y-34847739D01*
X-3635954Y-34847740D01*
X-3620888Y-34870289D01*
X-3600010Y-34936964D01*
X-3599990Y-34939178D01*
X-3599990Y-35000000D01*
X-3575366Y-35000000D01*
X-3525466Y-34990073D01*
X-3477081Y-34990073D01*
X-3441578Y-34997135D01*
X-3424663Y-35000500D01*
X-3424662Y-35000500D01*
X-3075313Y-35000500D01*
X-3024181Y-34990329D01*
X-2975797Y-34990329D01*
X-2924666Y-35000500D01*
X-2924663Y-35000500D01*
X-2575314Y-35000500D01*
X-2538596Y-34993196D01*
X-2522901Y-34990074D01*
X-2474517Y-34990074D01*
X-2424617Y-35000000D01*
X-2399990Y-35000000D01*
X-2399990Y-34939184D01*
X-2380305Y-34872145D01*
X-2379092Y-34870293D01*
X-2357237Y-34837585D01*
X-2356004Y-34838409D01*
X-2320711Y-34794611D01*
X-2254418Y-34772545D01*
X-2186718Y-34789823D01*
X-2139106Y-34840959D01*
X-2136127Y-34847484D01*
X-2120888Y-34870290D01*
X-2100010Y-34936967D01*
X-2099990Y-34939181D01*
X-2099990Y-35000000D01*
X-2075366Y-35000000D01*
X-2025466Y-34990073D01*
X-1977082Y-34990073D01*
X-1937452Y-34997956D01*
X-1924664Y-35000500D01*
X-1924663Y-35000500D01*
X-1575314Y-35000500D01*
X-1524182Y-34990329D01*
X-1475798Y-34990329D01*
X-1424667Y-35000500D01*
X-1424664Y-35000500D01*
X-1075316Y-35000500D01*
X-1022897Y-34990073D01*
X-974515Y-34990073D01*
X-924613Y-35000000D01*
X-899988Y-35000000D01*
X-899988Y-34939178D01*
X-880303Y-34872139D01*
X-879132Y-34870350D01*
X-864024Y-34847740D01*
X-864024Y-34847739D01*
X-857239Y-34837585D01*
X-856007Y-34838408D01*
X-820711Y-34794608D01*
X-754417Y-34772543D01*
X-686717Y-34789822D01*
X-639107Y-34840958D01*
X-636128Y-34847483D01*
X-620886Y-34870293D01*
X-600008Y-34936970D01*
X-599988Y-34939184D01*
X-599988Y-35000000D01*
X-591078Y-35008910D01*
X-558985Y-35064493D01*
X-555729Y-35076643D01*
X-512534Y-35151459D01*
X-512532Y-35151461D01*
X-512530Y-35151464D01*
X-507585Y-35157909D01*
X-509959Y-35159729D01*
X-483323Y-35208508D01*
X-480489Y-35234866D01*
X-480489Y-35506047D01*
X-480491Y-35506081D01*
X-480491Y-35889226D01*
X-500176Y-35956265D01*
X-552980Y-36002020D01*
X-557038Y-36003787D01*
X-642384Y-36039138D01*
X-757381Y-36127379D01*
X-845623Y-36242377D01*
X-901089Y-36376287D01*
X-901090Y-36376291D01*
X-920010Y-36519999D01*
X-920010Y-36520000D01*
X-901090Y-36663708D01*
X-901089Y-36663712D01*
X-845623Y-36797622D01*
X-845622Y-36797624D01*
X-845621Y-36797625D01*
X-757381Y-36912621D01*
X-642385Y-37000861D01*
X-508469Y-37056330D01*
X-381480Y-37073048D01*
X-364761Y-37075250D01*
X-364760Y-37075250D01*
X-364759Y-37075250D01*
X-349783Y-37073278D01*
X-221051Y-37056330D01*
X-87135Y-37000861D01*
X-75477Y-36991915D01*
X-10311Y-36966720D01*
X58135Y-36980757D01*
X75492Y-36991911D01*
X87155Y-37000861D01*
X221071Y-37056330D01*
X348060Y-37073048D01*
X364779Y-37075250D01*
X364780Y-37075250D01*
X364781Y-37075250D01*
X379757Y-37073278D01*
X508489Y-37056330D01*
X642405Y-37000861D01*
X757401Y-36912621D01*
X845641Y-36797625D01*
X901110Y-36663709D01*
X920030Y-36520000D01*
X901110Y-36376291D01*
X845641Y-36242375D01*
X757401Y-36127379D01*
X642405Y-36039139D01*
X642403Y-36039138D01*
X557058Y-36003787D01*
X502655Y-35959946D01*
X480590Y-35893652D01*
X480511Y-35889226D01*
X480511Y-35632329D01*
X480510Y-35632311D01*
X480510Y-35234866D01*
X500195Y-35167827D01*
X507965Y-35158184D01*
X507606Y-35157909D01*
X512550Y-35151465D01*
X512551Y-35151462D01*
X512555Y-35151459D01*
X555750Y-35076643D01*
X555750Y-35076642D01*
X559003Y-35064500D01*
X591098Y-35008912D01*
X600011Y-34999999D01*
X600011Y-34939181D01*
X619696Y-34872142D01*
X620909Y-34870290D01*
X642762Y-34837585D01*
X643995Y-34838409D01*
X679288Y-34794611D01*
X745581Y-34772545D01*
X813281Y-34789823D01*
X860893Y-34840959D01*
X863872Y-34847484D01*
X879113Y-34870293D01*
X899991Y-34936970D01*
X900011Y-34939184D01*
X900011Y-35000000D01*
X924637Y-35000000D01*
X974537Y-34990074D01*
X1022921Y-34990074D01*
X1075334Y-35000500D01*
X1075336Y-35000500D01*
X1424685Y-35000500D01*
X1475817Y-34990329D01*
X1524201Y-34990329D01*
X1575332Y-35000500D01*
X1575335Y-35000500D01*
X1924683Y-35000500D01*
X1977102Y-34990073D01*
X2025484Y-34990073D01*
X2075386Y-35000000D01*
X2100011Y-35000000D01*
X2100011Y-34939178D01*
X2119696Y-34872139D01*
X2120867Y-34870350D01*
X2135975Y-34847740D01*
X2135975Y-34847739D01*
X2142760Y-34837585D01*
X2143992Y-34838408D01*
X2179288Y-34794608D01*
X2245582Y-34772543D01*
X2313282Y-34789822D01*
X2360892Y-34840958D01*
X2363871Y-34847483D01*
X2379113Y-34870293D01*
X2399991Y-34936970D01*
X2400011Y-34939184D01*
X2400011Y-35000266D01*
X2433176Y-35061003D01*
X2436010Y-35087361D01*
X2436010Y-35541350D01*
X2452873Y-35604287D01*
X2452874Y-35604287D01*
X2457409Y-35621211D01*
X2457410Y-35621213D01*
X2485937Y-35670623D01*
X2502410Y-35738523D01*
X2501489Y-35748807D01*
X2494750Y-35799997D01*
X2494750Y-35800000D01*
X2502160Y-35856287D01*
X2513670Y-35943708D01*
X2513671Y-35943712D01*
X2569137Y-36077622D01*
X2569138Y-36077624D01*
X2569139Y-36077625D01*
X2657379Y-36192621D01*
X2772375Y-36280861D01*
X2772376Y-36280861D01*
X2772377Y-36280862D01*
X2817013Y-36299350D01*
X2906291Y-36336330D01*
X3033280Y-36353048D01*
X3049999Y-36355250D01*
X3050000Y-36355250D01*
X3050001Y-36355250D01*
X3064977Y-36353278D01*
X3193709Y-36336330D01*
X3327625Y-36280861D01*
X3442621Y-36192621D01*
X3530861Y-36077625D01*
X3586330Y-35943709D01*
X3605250Y-35800000D01*
X3586330Y-35656291D01*
X3537142Y-35537539D01*
X3530862Y-35522377D01*
X3530861Y-35522376D01*
X3530861Y-35522375D01*
X3442621Y-35407379D01*
X3327625Y-35319139D01*
X3327624Y-35319138D01*
X3327622Y-35319137D01*
X3193712Y-35263671D01*
X3193710Y-35263670D01*
X3171820Y-35260788D01*
X3107925Y-35232519D01*
X3069456Y-35174193D01*
X3064010Y-35137849D01*
X3064010Y-35124500D01*
X3083695Y-35057461D01*
X3136499Y-35011706D01*
X3188010Y-35000500D01*
X3424686Y-35000500D01*
X3461404Y-34993196D01*
X3477099Y-34990074D01*
X3525483Y-34990074D01*
X3575383Y-35000000D01*
X3600010Y-35000000D01*
X3600010Y-34939184D01*
X3619695Y-34872145D01*
X3620908Y-34870293D01*
X3642763Y-34837585D01*
X3643996Y-34838409D01*
X3679286Y-34794615D01*
X3745579Y-34772547D01*
X3813279Y-34789824D01*
X3860892Y-34840959D01*
X3863872Y-34847485D01*
X3879112Y-34870293D01*
X3899990Y-34936970D01*
X3900010Y-34939184D01*
X3900010Y-35000000D01*
X3924636Y-35000000D01*
X3974536Y-34990074D01*
X4022920Y-34990074D01*
X4075333Y-35000500D01*
X4075335Y-35000500D01*
X4424684Y-35000500D01*
X4437002Y-34998049D01*
X4475820Y-34990328D01*
X4524200Y-34990328D01*
X4563017Y-34998049D01*
X4575336Y-35000500D01*
X4575337Y-35000500D01*
X4748510Y-35000500D01*
X4815549Y-35020185D01*
X4861304Y-35072989D01*
X4872510Y-35124500D01*
X4872510Y-35246252D01*
X4852825Y-35313291D01*
X4823999Y-35344626D01*
X4807380Y-35357378D01*
X4719137Y-35472377D01*
X4663671Y-35606287D01*
X4663670Y-35606291D01*
X4644750Y-35750000D01*
X4663662Y-35893652D01*
X4663670Y-35893708D01*
X4663671Y-35893712D01*
X4719137Y-36027622D01*
X4719138Y-36027624D01*
X4719139Y-36027625D01*
X4807379Y-36142621D01*
X4922375Y-36230861D01*
X5056291Y-36286330D01*
X5183280Y-36303048D01*
X5199999Y-36305250D01*
X5200000Y-36305250D01*
X5200001Y-36305250D01*
X5214977Y-36303278D01*
X5343709Y-36286330D01*
X5477625Y-36230861D01*
X5592621Y-36142621D01*
X5680861Y-36027625D01*
X5736330Y-35893709D01*
X5755250Y-35750000D01*
X5736330Y-35606291D01*
X5680861Y-35472375D01*
X5657943Y-35442507D01*
X5653133Y-35436238D01*
X5627940Y-35371069D01*
X5627510Y-35360753D01*
X5627510Y-34892844D01*
X5634080Y-34859815D01*
X5633594Y-34859719D01*
X5650509Y-34774678D01*
X5650510Y-34774676D01*
X5650510Y-34749995D01*
X6244989Y-34749995D01*
X6244989Y-36025000D01*
X6899989Y-36025000D01*
X7399989Y-36025000D01*
X9155000Y-36025000D01*
X9155000Y-34749997D01*
X9154999Y-34749995D01*
X9135590Y-34652420D01*
X9135588Y-34652416D01*
X9080311Y-34569688D01*
X8997583Y-34514411D01*
X8997579Y-34514409D01*
X8900003Y-34495000D01*
X7399989Y-34495000D01*
X7399989Y-36025000D01*
X6899989Y-36025000D01*
X6899989Y-34495000D01*
X6499986Y-34495000D01*
X6402409Y-34514409D01*
X6402405Y-34514411D01*
X6319677Y-34569688D01*
X6264400Y-34652416D01*
X6264398Y-34652420D01*
X6244989Y-34749995D01*
X5650510Y-34749995D01*
X5650510Y-33925323D01*
X5650509Y-33925321D01*
X5635977Y-33852264D01*
X5635976Y-33852260D01*
X5619669Y-33827855D01*
X5580611Y-33769399D01*
X5525245Y-33732405D01*
X5497749Y-33714033D01*
X5497745Y-33714032D01*
X5424687Y-33699500D01*
X5424684Y-33699500D01*
X5325299Y-33699500D01*
X5258260Y-33679815D01*
X5212505Y-33627011D01*
X5202561Y-33557853D01*
X5231586Y-33494297D01*
X5237618Y-33487819D01*
X5663817Y-33061620D01*
X6101262Y-32624175D01*
X6142601Y-32552574D01*
X6142904Y-32551439D01*
X6143423Y-32550588D01*
X6145712Y-32545064D01*
X6146573Y-32545420D01*
X6179263Y-32491780D01*
X6187186Y-32485156D01*
X6242621Y-32442621D01*
X6330861Y-32327625D01*
X6344524Y-32294637D01*
X6347439Y-32287602D01*
X6391279Y-32233198D01*
X6457573Y-32211133D01*
X6525273Y-32228412D01*
X6572884Y-32279549D01*
X6586000Y-32335054D01*
X6586000Y-33085900D01*
X6566315Y-33152939D01*
X6537487Y-33184275D01*
X6507382Y-33207375D01*
X6419137Y-33322377D01*
X6363671Y-33456287D01*
X6363670Y-33456291D01*
X6347976Y-33575500D01*
X6344750Y-33600000D01*
X6362696Y-33736314D01*
X6363670Y-33743708D01*
X6363671Y-33743712D01*
X6419137Y-33877622D01*
X6419138Y-33877624D01*
X6419139Y-33877625D01*
X6507379Y-33992621D01*
X6622375Y-34080861D01*
X6756291Y-34136330D01*
X6883280Y-34153048D01*
X6899999Y-34155250D01*
X6900000Y-34155250D01*
X6900001Y-34155250D01*
X6914977Y-34153278D01*
X7043709Y-34136330D01*
X7177625Y-34080861D01*
X7292621Y-33992621D01*
X7301625Y-33980886D01*
X7358050Y-33939685D01*
X7427796Y-33935529D01*
X7488717Y-33969740D01*
X7498367Y-33980876D01*
X7507379Y-33992621D01*
X7622375Y-34080861D01*
X7756291Y-34136330D01*
X7883280Y-34153048D01*
X7899999Y-34155250D01*
X7900000Y-34155250D01*
X7900001Y-34155250D01*
X7914977Y-34153278D01*
X8043709Y-34136330D01*
X8177625Y-34080861D01*
X8292621Y-33992621D01*
X8380861Y-33877625D01*
X8436330Y-33743709D01*
X8455250Y-33600000D01*
X8436330Y-33456291D01*
X8388220Y-33340141D01*
X8380862Y-33322377D01*
X8380861Y-33322376D01*
X8380861Y-33322375D01*
X8292621Y-33207379D01*
X8292618Y-33207377D01*
X8292617Y-33207375D01*
X8262513Y-33184275D01*
X8221310Y-33127847D01*
X8214000Y-33085900D01*
X8214000Y-32800000D01*
X12944750Y-32800000D01*
X12958025Y-32900835D01*
X12963670Y-32943708D01*
X12963671Y-32943712D01*
X13019138Y-33077623D01*
X13019139Y-33077625D01*
X13095373Y-33176975D01*
X13120567Y-33242144D01*
X13106529Y-33310589D01*
X13084679Y-33340141D01*
X13036924Y-33387896D01*
X13036921Y-33387900D01*
X12980419Y-33503478D01*
X12980418Y-33503480D01*
X12980418Y-33503482D01*
X12969500Y-33578418D01*
X12969500Y-34021582D01*
X12980418Y-34096518D01*
X12980418Y-34096519D01*
X12980419Y-34096521D01*
X13036921Y-34212099D01*
X13036923Y-34212102D01*
X13135163Y-34310342D01*
X13132903Y-34312601D01*
X13165415Y-34354029D01*
X13171986Y-34423589D01*
X13139908Y-34485659D01*
X13134303Y-34490517D01*
X13036923Y-34587897D01*
X13036921Y-34587900D01*
X12980419Y-34703478D01*
X12980418Y-34703480D01*
X12980418Y-34703482D01*
X12969500Y-34778418D01*
X12969500Y-35221582D01*
X12980418Y-35296518D01*
X12980418Y-35296519D01*
X12980419Y-35296521D01*
X13036921Y-35412099D01*
X13036923Y-35412102D01*
X13084678Y-35459857D01*
X13118163Y-35521180D01*
X13113179Y-35590872D01*
X13095373Y-35623024D01*
X13019139Y-35722374D01*
X13019138Y-35722376D01*
X12963671Y-35856287D01*
X12963670Y-35856291D01*
X12944750Y-36000000D01*
X12952160Y-36056287D01*
X12963670Y-36143708D01*
X12963671Y-36143712D01*
X13019138Y-36277623D01*
X13019139Y-36277625D01*
X13095373Y-36376975D01*
X13120567Y-36442144D01*
X13106529Y-36510589D01*
X13084679Y-36540141D01*
X13036924Y-36587896D01*
X13036921Y-36587900D01*
X12980419Y-36703478D01*
X12980418Y-36703480D01*
X12980418Y-36703482D01*
X12969500Y-36778418D01*
X12969500Y-37221582D01*
X12980418Y-37296518D01*
X12980418Y-37296519D01*
X12980419Y-37296521D01*
X13036921Y-37412099D01*
X13036923Y-37412102D01*
X13135163Y-37510342D01*
X13132903Y-37512601D01*
X13165415Y-37554029D01*
X13171986Y-37623589D01*
X13139908Y-37685659D01*
X13134303Y-37690517D01*
X13036923Y-37787897D01*
X13036921Y-37787900D01*
X12980419Y-37903478D01*
X12980418Y-37903480D01*
X12980418Y-37903482D01*
X12969500Y-37978418D01*
X12969500Y-38421582D01*
X12980418Y-38496518D01*
X12980418Y-38496519D01*
X12980419Y-38496521D01*
X13036921Y-38612099D01*
X13036923Y-38612102D01*
X13127897Y-38703076D01*
X13127900Y-38703078D01*
X13214198Y-38745266D01*
X13243482Y-38759582D01*
X13318418Y-38770500D01*
X13318423Y-38770500D01*
X13661577Y-38770500D01*
X13661582Y-38770500D01*
X13736518Y-38759582D01*
X13794310Y-38731329D01*
X13852099Y-38703078D01*
X13852100Y-38703076D01*
X13852102Y-38703076D01*
X13912672Y-38642505D01*
X13973993Y-38609022D01*
X14043685Y-38614006D01*
X14088033Y-38642507D01*
X14148189Y-38702663D01*
X14260000Y-38757323D01*
X14760000Y-38757323D01*
X14871810Y-38702663D01*
X14962663Y-38611810D01*
X15019096Y-38496373D01*
X15019098Y-38496370D01*
X15025854Y-38450000D01*
X14760000Y-38450000D01*
X14760000Y-38757323D01*
X14260000Y-38757323D01*
X14260000Y-38074000D01*
X14279685Y-38006961D01*
X14332489Y-37961206D01*
X14384000Y-37950000D01*
X15025852Y-37950000D01*
X15019096Y-37903625D01*
X14962663Y-37788189D01*
X14864543Y-37690069D01*
X14866764Y-37687847D01*
X14834136Y-37646244D01*
X14827586Y-37576682D01*
X14859684Y-37514622D01*
X14866215Y-37508963D01*
X14963076Y-37412102D01*
X14963078Y-37412099D01*
X15003703Y-37328998D01*
X15019582Y-37296518D01*
X15030500Y-37221582D01*
X15030500Y-37054727D01*
X15050185Y-36987688D01*
X15066819Y-36967046D01*
X15121245Y-36912620D01*
X15245610Y-36788254D01*
X15306931Y-36754771D01*
X15317099Y-36752998D01*
X15443709Y-36736330D01*
X15577625Y-36680861D01*
X15692621Y-36592621D01*
X15780861Y-36477625D01*
X15836330Y-36343709D01*
X15855250Y-36200000D01*
X15836330Y-36056291D01*
X15796423Y-35959946D01*
X15780862Y-35922377D01*
X15780861Y-35922376D01*
X15780861Y-35922375D01*
X15692621Y-35807379D01*
X15577625Y-35719139D01*
X15577624Y-35719138D01*
X15577622Y-35719137D01*
X15443712Y-35663671D01*
X15443710Y-35663670D01*
X15443709Y-35663670D01*
X15371854Y-35654210D01*
X15300001Y-35644750D01*
X15299999Y-35644750D01*
X15156291Y-35663670D01*
X15156287Y-35663671D01*
X15022377Y-35719137D01*
X14907379Y-35807379D01*
X14819137Y-35922377D01*
X14763671Y-36056287D01*
X14763670Y-36056292D01*
X14747002Y-36182893D01*
X14718735Y-36246789D01*
X14711745Y-36254388D01*
X14660884Y-36305250D01*
X14589844Y-36376291D01*
X14572954Y-36393181D01*
X14511631Y-36426666D01*
X14485272Y-36429500D01*
X14338418Y-36429500D01*
X14263482Y-36440418D01*
X14263480Y-36440418D01*
X14263478Y-36440419D01*
X14147900Y-36496921D01*
X14147897Y-36496923D01*
X14087681Y-36557140D01*
X14026358Y-36590625D01*
X13956666Y-36585641D01*
X13912319Y-36557140D01*
X13906638Y-36551459D01*
X13873153Y-36490136D01*
X13878137Y-36420444D01*
X13895941Y-36388293D01*
X13980861Y-36277625D01*
X14036330Y-36143709D01*
X14055250Y-36000000D01*
X14036330Y-35856291D01*
X13980861Y-35722375D01*
X13980860Y-35722374D01*
X13980860Y-35722373D01*
X13917594Y-35639924D01*
X13895942Y-35611707D01*
X13870748Y-35546540D01*
X13884786Y-35478095D01*
X13906637Y-35448541D01*
X13912671Y-35442507D01*
X13973994Y-35409022D01*
X14043686Y-35414006D01*
X14088033Y-35442507D01*
X14148189Y-35502663D01*
X14260000Y-35557323D01*
X14760000Y-35557323D01*
X14871810Y-35502663D01*
X14962663Y-35411810D01*
X15019096Y-35296373D01*
X15019098Y-35296370D01*
X15025854Y-35250000D01*
X14760000Y-35250000D01*
X14760000Y-35557323D01*
X14260000Y-35557323D01*
X14260000Y-34874000D01*
X14279685Y-34806961D01*
X14332489Y-34761206D01*
X14384000Y-34750000D01*
X15025852Y-34750000D01*
X15019096Y-34703625D01*
X14962663Y-34588189D01*
X14864543Y-34490069D01*
X14866764Y-34487847D01*
X14834136Y-34446244D01*
X14827586Y-34376682D01*
X14859684Y-34314622D01*
X14866215Y-34308963D01*
X14963076Y-34212102D01*
X14963078Y-34212099D01*
X15000120Y-34136328D01*
X15019582Y-34096518D01*
X15030500Y-34021582D01*
X15030500Y-33854727D01*
X15050185Y-33787688D01*
X15066819Y-33767046D01*
X15154187Y-33679678D01*
X15245610Y-33588254D01*
X15306931Y-33554771D01*
X15317099Y-33552998D01*
X15443709Y-33536330D01*
X15577625Y-33480861D01*
X15692621Y-33392621D01*
X15780861Y-33277625D01*
X15836330Y-33143709D01*
X15855250Y-33000000D01*
X15836330Y-32856291D01*
X15799350Y-32767013D01*
X15780862Y-32722377D01*
X15780861Y-32722376D01*
X15780861Y-32722375D01*
X15692621Y-32607379D01*
X15577625Y-32519139D01*
X15577624Y-32519138D01*
X15577622Y-32519137D01*
X15443712Y-32463671D01*
X15443710Y-32463670D01*
X15443709Y-32463670D01*
X15371854Y-32454210D01*
X15300001Y-32444750D01*
X15299999Y-32444750D01*
X15156291Y-32463670D01*
X15156287Y-32463671D01*
X15022377Y-32519137D01*
X14907379Y-32607379D01*
X14819137Y-32722377D01*
X14763671Y-32856287D01*
X14763670Y-32856290D01*
X14763670Y-32856291D01*
X14761843Y-32870170D01*
X14747002Y-32982893D01*
X14718735Y-33046789D01*
X14711745Y-33054388D01*
X14676013Y-33090121D01*
X14598076Y-33168059D01*
X14572954Y-33193181D01*
X14511631Y-33226666D01*
X14485272Y-33229500D01*
X14338418Y-33229500D01*
X14263482Y-33240418D01*
X14263480Y-33240418D01*
X14263478Y-33240419D01*
X14147900Y-33296921D01*
X14147897Y-33296923D01*
X14087681Y-33357140D01*
X14026358Y-33390625D01*
X13956666Y-33385641D01*
X13912319Y-33357140D01*
X13906638Y-33351459D01*
X13873153Y-33290136D01*
X13878137Y-33220444D01*
X13895941Y-33188293D01*
X13980861Y-33077625D01*
X14036330Y-32943709D01*
X14055250Y-32800000D01*
X14036330Y-32656291D01*
X13982646Y-32526684D01*
X13980862Y-32522377D01*
X13980861Y-32522376D01*
X13980861Y-32522375D01*
X13892621Y-32407379D01*
X13777625Y-32319139D01*
X13777624Y-32319138D01*
X13777622Y-32319137D01*
X13643712Y-32263671D01*
X13643710Y-32263670D01*
X13643709Y-32263670D01*
X13560560Y-32252723D01*
X13500001Y-32244750D01*
X13499999Y-32244750D01*
X13356291Y-32263670D01*
X13356287Y-32263671D01*
X13222377Y-32319137D01*
X13107379Y-32407379D01*
X13019137Y-32522377D01*
X12963671Y-32656287D01*
X12963670Y-32656291D01*
X12944750Y-32800000D01*
X8214000Y-32800000D01*
X8214000Y-32508662D01*
X8211970Y-32501085D01*
X8192601Y-32428801D01*
X8165345Y-32381592D01*
X8165344Y-32381590D01*
X8151264Y-32357202D01*
X8151260Y-32357197D01*
X7113820Y-31319757D01*
X13257018Y-31319757D01*
X13289147Y-31351887D01*
X13333447Y-31387588D01*
X13333456Y-31387593D01*
X13457687Y-31444328D01*
X13457694Y-31444330D01*
X13592894Y-31463768D01*
X13728093Y-31444330D01*
X13852335Y-31387590D01*
X13852345Y-31387584D01*
X13896629Y-31351897D01*
X13896632Y-31351895D01*
X13911090Y-31337436D01*
X13575215Y-31001561D01*
X13257018Y-31319757D01*
X7113820Y-31319757D01*
X4368482Y-28574419D01*
X4334997Y-28513096D01*
X4339981Y-28443404D01*
X4381853Y-28387471D01*
X4447317Y-28363054D01*
X4474037Y-28364033D01*
X4518418Y-28370500D01*
X4518419Y-28370500D01*
X4861577Y-28370500D01*
X4861582Y-28370500D01*
X4936518Y-28359582D01*
X5013190Y-28322099D01*
X5052099Y-28303078D01*
X5052100Y-28303076D01*
X5052102Y-28303076D01*
X5112320Y-28242857D01*
X5173641Y-28209374D01*
X5243333Y-28214358D01*
X5287681Y-28242859D01*
X5296181Y-28251359D01*
X5329666Y-28312682D01*
X5332500Y-28339040D01*
X5332500Y-28359699D01*
X5358226Y-28455710D01*
X5407925Y-28541790D01*
X5407927Y-28541792D01*
X5711743Y-28845608D01*
X5745228Y-28906931D01*
X5747001Y-28917103D01*
X5755445Y-28981236D01*
X5763093Y-29039329D01*
X5763670Y-29043707D01*
X5763671Y-29043712D01*
X5819137Y-29177622D01*
X5819138Y-29177624D01*
X5819139Y-29177625D01*
X5907379Y-29292621D01*
X6022375Y-29380861D01*
X6022376Y-29380861D01*
X6022377Y-29380862D01*
X6063552Y-29397917D01*
X6156291Y-29436330D01*
X6283280Y-29453048D01*
X6299999Y-29455250D01*
X6300000Y-29455250D01*
X6300001Y-29455250D01*
X6314977Y-29453278D01*
X6443709Y-29436330D01*
X6577625Y-29380861D01*
X6692621Y-29292621D01*
X6780861Y-29177625D01*
X6836330Y-29043709D01*
X6855250Y-28900000D01*
X6854952Y-28897740D01*
X6849318Y-28854945D01*
X6836330Y-28756291D01*
X6780861Y-28622375D01*
X6692621Y-28507379D01*
X6643478Y-28469670D01*
X7582678Y-28469670D01*
X7602116Y-28604869D01*
X7658856Y-28729111D01*
X7658862Y-28729121D01*
X7694549Y-28773405D01*
X7694551Y-28773408D01*
X7709010Y-28787866D01*
X8044886Y-28451992D01*
X7726688Y-28133794D01*
X7726687Y-28133794D01*
X7694567Y-28165914D01*
X7658859Y-28210223D01*
X7658853Y-28210232D01*
X7602118Y-28334463D01*
X7602116Y-28334470D01*
X7582678Y-28469670D01*
X6643478Y-28469670D01*
X6577625Y-28419139D01*
X6577624Y-28419138D01*
X6577622Y-28419137D01*
X6443712Y-28363671D01*
X6443710Y-28363670D01*
X6443709Y-28363670D01*
X6408901Y-28359087D01*
X6317103Y-28347001D01*
X6253206Y-28318734D01*
X6245608Y-28311743D01*
X6220061Y-28286196D01*
X6186576Y-28224873D01*
X6191560Y-28155181D01*
X6196336Y-28144066D01*
X6219582Y-28096518D01*
X6230500Y-28021582D01*
X6230500Y-27578418D01*
X6219582Y-27503482D01*
X6212838Y-27489687D01*
X6163078Y-27387900D01*
X6163076Y-27387897D01*
X6123819Y-27348640D01*
X6090334Y-27287317D01*
X6087500Y-27260959D01*
X6087500Y-27139040D01*
X6107185Y-27072001D01*
X6123820Y-27051358D01*
X6163076Y-27012102D01*
X6163078Y-27012099D01*
X6210881Y-26914316D01*
X6219582Y-26896518D01*
X6230500Y-26821582D01*
X6230500Y-26378418D01*
X6219582Y-26303482D01*
X6211036Y-26286000D01*
X6163078Y-26187900D01*
X6163076Y-26187897D01*
X6072102Y-26096923D01*
X6072099Y-26096921D01*
X5956521Y-26040419D01*
X5956519Y-26040418D01*
X5956518Y-26040418D01*
X5881582Y-26029500D01*
X5538418Y-26029500D01*
X5463482Y-26040418D01*
X5463480Y-26040418D01*
X5463478Y-26040419D01*
X5347900Y-26096921D01*
X5347897Y-26096923D01*
X5287681Y-26157140D01*
X5226358Y-26190625D01*
X5156666Y-26185641D01*
X5112319Y-26157140D01*
X5052102Y-26096923D01*
X5052099Y-26096921D01*
X4936521Y-26040419D01*
X4936519Y-26040418D01*
X4936518Y-26040418D01*
X4861582Y-26029500D01*
X4518418Y-26029500D01*
X4443482Y-26040418D01*
X4443480Y-26040418D01*
X4443478Y-26040419D01*
X4327900Y-26096921D01*
X4327894Y-26096925D01*
X4326229Y-26098591D01*
X4323395Y-26100138D01*
X4319537Y-26102893D01*
X4319203Y-26102426D01*
X4264904Y-26132073D01*
X4195213Y-26127084D01*
X4139282Y-26085210D01*
X4131160Y-26072895D01*
X4130864Y-26072382D01*
X4130861Y-26072375D01*
X4042621Y-25957379D01*
X3927625Y-25869139D01*
X3927621Y-25869137D01*
X3887605Y-25852562D01*
X3833201Y-25808721D01*
X3811136Y-25742427D01*
X3828415Y-25674728D01*
X3879552Y-25627117D01*
X3935057Y-25614001D01*
X5027719Y-25614001D01*
X5075167Y-25623438D01*
X5106291Y-25636330D01*
X5145477Y-25641489D01*
X5249999Y-25655250D01*
X5250000Y-25655250D01*
X5250001Y-25655250D01*
X5264977Y-25653278D01*
X5393709Y-25636330D01*
X5527625Y-25580861D01*
X5642621Y-25492621D01*
X5730861Y-25377625D01*
X5786330Y-25243709D01*
X5805250Y-25100000D01*
X5786330Y-24956291D01*
X5745600Y-24857959D01*
X5730862Y-24822377D01*
X5730861Y-24822376D01*
X5730861Y-24822375D01*
X5642621Y-24707379D01*
X5585804Y-24663781D01*
X5544604Y-24607356D01*
X5540449Y-24537609D01*
X5574662Y-24476689D01*
X5585798Y-24467039D01*
X5617621Y-24442621D01*
X5705861Y-24327625D01*
X5761330Y-24193709D01*
X5780250Y-24050000D01*
X5761330Y-23906291D01*
X5705861Y-23772375D01*
X5617621Y-23657379D01*
X5502625Y-23569139D01*
X5502624Y-23569138D01*
X5502622Y-23569137D01*
X5368712Y-23513671D01*
X5368710Y-23513670D01*
X5368709Y-23513670D01*
X5333478Y-23509031D01*
X5230300Y-23495447D01*
X5166403Y-23467180D01*
X5127933Y-23408855D01*
X5127102Y-23338990D01*
X5131925Y-23325056D01*
X5149908Y-23281640D01*
X5186330Y-23193709D01*
X5205250Y-23050000D01*
X5203988Y-23040418D01*
X5202065Y-23025808D01*
X5186330Y-22906291D01*
X5130861Y-22772375D01*
X5042621Y-22657379D01*
X4927625Y-22569139D01*
X4927624Y-22569138D01*
X4927622Y-22569137D01*
X4793712Y-22513671D01*
X4793710Y-22513670D01*
X4793709Y-22513670D01*
X4721854Y-22504210D01*
X4650001Y-22494750D01*
X4649999Y-22494750D01*
X4506291Y-22513670D01*
X4506287Y-22513671D01*
X4372376Y-22569138D01*
X4372374Y-22569139D01*
X4276202Y-22642935D01*
X4211033Y-22668129D01*
X4142588Y-22654091D01*
X4102341Y-22620046D01*
X4092623Y-22607381D01*
X4092621Y-22607380D01*
X4092621Y-22607379D01*
X3977625Y-22519139D01*
X3977624Y-22519138D01*
X3977622Y-22519137D01*
X3843712Y-22463671D01*
X3843710Y-22463670D01*
X3843709Y-22463670D01*
X3737462Y-22449682D01*
X3700001Y-22444750D01*
X3699999Y-22444750D01*
X3556291Y-22463670D01*
X3556287Y-22463671D01*
X3422377Y-22519137D01*
X3307379Y-22607379D01*
X3219137Y-22722377D01*
X3163671Y-22856287D01*
X3163670Y-22856291D01*
X3144750Y-22999999D01*
X3144750Y-23000001D01*
X3149703Y-23037624D01*
X3138937Y-23106659D01*
X3114446Y-23141490D01*
X3007779Y-23248156D01*
X2946459Y-23281640D01*
X2876767Y-23276656D01*
X2820833Y-23234785D01*
X2796416Y-23169321D01*
X2796100Y-23160474D01*
X2796100Y-23148323D01*
X2781354Y-23074192D01*
X2781354Y-23025808D01*
X2796100Y-22951677D01*
X2796100Y-22648324D01*
X2796099Y-22648322D01*
X2781567Y-22575265D01*
X2781566Y-22575261D01*
X2759021Y-22541520D01*
X2726201Y-22492400D01*
X2643340Y-22437035D01*
X2643339Y-22437034D01*
X2643335Y-22437033D01*
X2570277Y-22422501D01*
X2570274Y-22422501D01*
X1990399Y-22422501D01*
X1923360Y-22402816D01*
X1877605Y-22350012D01*
X1866399Y-22298501D01*
X1866399Y-21718623D01*
X1866398Y-21718621D01*
X1851866Y-21645564D01*
X1851865Y-21645562D01*
X1851865Y-21645560D01*
X1813665Y-21588389D01*
X1792788Y-21521713D01*
X1811273Y-21454333D01*
X1863252Y-21407643D01*
X1916768Y-21395500D01*
X2261577Y-21395500D01*
X2261582Y-21395500D01*
X2336518Y-21384582D01*
X2394310Y-21356329D01*
X2452099Y-21328078D01*
X2452100Y-21328076D01*
X2452102Y-21328076D01*
X2512672Y-21267505D01*
X2573993Y-21234022D01*
X2643685Y-21239006D01*
X2688033Y-21267507D01*
X2748189Y-21327663D01*
X2860000Y-21382323D01*
X3360000Y-21382323D01*
X3471810Y-21327663D01*
X3562663Y-21236810D01*
X3619096Y-21121373D01*
X3619098Y-21121370D01*
X3625854Y-21075000D01*
X3360000Y-21075000D01*
X3360000Y-21382323D01*
X2860000Y-21382323D01*
X2860000Y-20267674D01*
X3360000Y-20267674D01*
X3360000Y-20575000D01*
X3625852Y-20575000D01*
X3619096Y-20528625D01*
X3562663Y-20413189D01*
X3471809Y-20322335D01*
X3409440Y-20291845D01*
X3373654Y-20259150D01*
X3360000Y-20267674D01*
X2860000Y-20267674D01*
X2748193Y-20322333D01*
X2688033Y-20382493D01*
X2626709Y-20415977D01*
X2557018Y-20410992D01*
X2512671Y-20382492D01*
X2452102Y-20321923D01*
X2398869Y-20295899D01*
X2347287Y-20248771D01*
X2329373Y-20181237D01*
X2350814Y-20114739D01*
X2404803Y-20070389D01*
X2453330Y-20060499D01*
X2650739Y-20060499D01*
X2650739Y-20060498D01*
X2696454Y-20053258D01*
X2742170Y-20046018D01*
X2742171Y-20046018D01*
X2742172Y-20046017D01*
X2742175Y-20046017D01*
X2852391Y-19989859D01*
X2898430Y-19943820D01*
X2959753Y-19910334D01*
X2986112Y-19907500D01*
X3163888Y-19907500D01*
X3230927Y-19927185D01*
X3251570Y-19943820D01*
X3297604Y-19989855D01*
X3297607Y-19989857D01*
X3297609Y-19989859D01*
X3381615Y-20032662D01*
X3417049Y-20066127D01*
X3483297Y-20057971D01*
X3485571Y-20058331D01*
X3499265Y-20060500D01*
X3900734Y-20060499D01*
X3900739Y-20060499D01*
X3900739Y-20060498D01*
X3946454Y-20053258D01*
X3992170Y-20046018D01*
X3992171Y-20046018D01*
X3992172Y-20046017D01*
X3992175Y-20046017D01*
X4102391Y-19989859D01*
X4139750Y-19952500D01*
X4178432Y-19913819D01*
X4239755Y-19880334D01*
X4266113Y-19877500D01*
X6416947Y-19877500D01*
X6483986Y-19897185D01*
X6529741Y-19949989D01*
X6540947Y-20001500D01*
X6540947Y-21173639D01*
X6542410Y-21200934D01*
X6542414Y-21200988D01*
X6545244Y-21227310D01*
X6545245Y-21227312D01*
X6573511Y-21317582D01*
X6575144Y-21323979D01*
X6575842Y-21325664D01*
X6575843Y-21325666D01*
X6575844Y-21325668D01*
X6577973Y-21328855D01*
X6583698Y-21338312D01*
X6608512Y-21383756D01*
X6608520Y-21383769D01*
X6652096Y-21441980D01*
X6652112Y-21441998D01*
X7428097Y-22217982D01*
X7428101Y-22217986D01*
X7445195Y-22231761D01*
X7470629Y-22252257D01*
X7490901Y-22265285D01*
X7511542Y-22281920D01*
X7532189Y-22302568D01*
X7532192Y-22302570D01*
X7594135Y-22343959D01*
X7594137Y-22343959D01*
X7594139Y-22343960D01*
X7691873Y-22363401D01*
X7691875Y-22363401D01*
X7691877Y-22363401D01*
X7789613Y-22343960D01*
X7789613Y-22343959D01*
X7789616Y-22343959D01*
X7830929Y-22316354D01*
X7897603Y-22295476D01*
X7964984Y-22313959D01*
X7987500Y-22331775D01*
X8114671Y-22458946D01*
X8148156Y-22520269D01*
X8143172Y-22589961D01*
X8130092Y-22615518D01*
X8102487Y-22656831D01*
X8102486Y-22656832D01*
X8083046Y-22754569D01*
X8083046Y-22754574D01*
X8102486Y-22852307D01*
X8102487Y-22852310D01*
X8102487Y-22852311D01*
X8102488Y-22852312D01*
X8138553Y-22906287D01*
X8139190Y-22907240D01*
X8160067Y-22973917D01*
X8141582Y-23041297D01*
X8123768Y-23063811D01*
X7384399Y-23803181D01*
X7323076Y-23836666D01*
X7296719Y-23839500D01*
X7145707Y-23839500D01*
X7145707Y-23839501D01*
X7054276Y-23853981D01*
X7054275Y-23853981D01*
X6944054Y-23910142D01*
X6944050Y-23910145D01*
X6856592Y-23997603D01*
X6856590Y-23997607D01*
X6856588Y-23997609D01*
X6842765Y-24024739D01*
X6800428Y-24107827D01*
X6800428Y-24107828D01*
X6785947Y-24199264D01*
X6785947Y-24540739D01*
X6800428Y-24632170D01*
X6800428Y-24632171D01*
X6800429Y-24632174D01*
X6800430Y-24632175D01*
X6855134Y-24739538D01*
X6856589Y-24742392D01*
X6856592Y-24742396D01*
X6876515Y-24762319D01*
X6910000Y-24823642D01*
X6905016Y-24893334D01*
X6876515Y-24937681D01*
X6856592Y-24957603D01*
X6856590Y-24957607D01*
X6856588Y-24957609D01*
X6841155Y-24987898D01*
X6800428Y-25067827D01*
X6800428Y-25067828D01*
X6785947Y-25159264D01*
X6785947Y-25500739D01*
X6800428Y-25592170D01*
X6800428Y-25592171D01*
X6800429Y-25592174D01*
X6800430Y-25592175D01*
X6853597Y-25696521D01*
X6856589Y-25702392D01*
X6856592Y-25702396D01*
X6944050Y-25789854D01*
X6944052Y-25789855D01*
X6944056Y-25789859D01*
X7054272Y-25846017D01*
X7054273Y-25846017D01*
X7054275Y-25846018D01*
X7087993Y-25851358D01*
X7145712Y-25860500D01*
X7291718Y-25860499D01*
X7358758Y-25880183D01*
X7379399Y-25896817D01*
X7784657Y-26302075D01*
X7870737Y-26351774D01*
X7966748Y-26377500D01*
X10128057Y-26377500D01*
X10195096Y-26397185D01*
X10215738Y-26413819D01*
X10267641Y-26465722D01*
X10267647Y-26465727D01*
X10364238Y-26562318D01*
X10397723Y-26623641D01*
X10392739Y-26693333D01*
X10364239Y-26737680D01*
X10282783Y-26819137D01*
X10052237Y-27049682D01*
X9990916Y-27083166D01*
X9964558Y-27086000D01*
X9735633Y-27086000D01*
X9668594Y-27066315D01*
X9632596Y-27028561D01*
X9632255Y-27028823D01*
X9629820Y-27025650D01*
X9628245Y-27023998D01*
X9627310Y-27022378D01*
X9621157Y-27014359D01*
X9539068Y-26907379D01*
X9424072Y-26819139D01*
X9424071Y-26819138D01*
X9424069Y-26819137D01*
X9290159Y-26763671D01*
X9290157Y-26763670D01*
X9290156Y-26763670D01*
X9186233Y-26749988D01*
X9146448Y-26744750D01*
X9146446Y-26744750D01*
X9002738Y-26763670D01*
X9002734Y-26763671D01*
X8868824Y-26819137D01*
X8753826Y-26907379D01*
X8665584Y-27022377D01*
X8610118Y-27156287D01*
X8610117Y-27156291D01*
X8597271Y-27253868D01*
X8591197Y-27300000D01*
X8602769Y-27387900D01*
X8610117Y-27443708D01*
X8610117Y-27443709D01*
X8623866Y-27476903D01*
X8631333Y-27546373D01*
X8600057Y-27608852D01*
X8539968Y-27644503D01*
X8491657Y-27647092D01*
X8416117Y-27636231D01*
X8280917Y-27655669D01*
X8280910Y-27655671D01*
X8156677Y-27712407D01*
X8156672Y-27712410D01*
X8112373Y-27748108D01*
X8112366Y-27748115D01*
X8080241Y-27780241D01*
X8664310Y-28364310D01*
X8697795Y-28425633D01*
X8692811Y-28495325D01*
X8664310Y-28539672D01*
X8062563Y-29141419D01*
X8062563Y-29141420D01*
X8077017Y-29155874D01*
X8121317Y-29191573D01*
X8121322Y-29191576D01*
X8245559Y-29248313D01*
X8380761Y-29267752D01*
X8515960Y-29248314D01*
X8548148Y-29233614D01*
X8617306Y-29223670D01*
X8680862Y-29252694D01*
X8718638Y-29311471D01*
X8718639Y-29381341D01*
X8712457Y-29397917D01*
X8697648Y-29430344D01*
X8678189Y-29565685D01*
X8697648Y-29701026D01*
X8703114Y-29712994D01*
X8754449Y-29825405D01*
X8762549Y-29835456D01*
X8790183Y-29869748D01*
X8790190Y-29869755D01*
X9172699Y-30252263D01*
X9172707Y-30252270D01*
X9172711Y-30252274D01*
X9217058Y-30288014D01*
X9341436Y-30344814D01*
X9476777Y-30364274D01*
X9612119Y-30344814D01*
X9652554Y-30326347D01*
X9721709Y-30316404D01*
X9766062Y-30331754D01*
X9800738Y-30351774D01*
X9896748Y-30377500D01*
X10242028Y-30377500D01*
X10309067Y-30397185D01*
X10317499Y-30403113D01*
X10418822Y-30480861D01*
X10418823Y-30480861D01*
X10418824Y-30480862D01*
X10459560Y-30497735D01*
X10552738Y-30536330D01*
X10679727Y-30553048D01*
X10696446Y-30555250D01*
X10696447Y-30555250D01*
X10696448Y-30555250D01*
X10711424Y-30553278D01*
X10840156Y-30536330D01*
X10974072Y-30480861D01*
X11089068Y-30392621D01*
X11177308Y-30277625D01*
X11232777Y-30143709D01*
X11251697Y-30000000D01*
X11252758Y-29991942D01*
X11256122Y-29992385D01*
X11271382Y-29940419D01*
X11324186Y-29894664D01*
X11393344Y-29884720D01*
X11398419Y-29885761D01*
X11402736Y-29886329D01*
X11402738Y-29886330D01*
X11488599Y-29897634D01*
X11546446Y-29905250D01*
X11546447Y-29905250D01*
X11546448Y-29905250D01*
X11563795Y-29902966D01*
X11690156Y-29886330D01*
X11824072Y-29830861D01*
X11925381Y-29753122D01*
X11990548Y-29727930D01*
X12000866Y-29727500D01*
X12092028Y-29727500D01*
X12159067Y-29747185D01*
X12167499Y-29753113D01*
X12268822Y-29830861D01*
X12268823Y-29830861D01*
X12268824Y-29830862D01*
X12279915Y-29835456D01*
X12402738Y-29886330D01*
X12529099Y-29902966D01*
X12546446Y-29905250D01*
X12546447Y-29905250D01*
X12546448Y-29905250D01*
X12563795Y-29902966D01*
X12690156Y-29886330D01*
X12824072Y-29830861D01*
X12939068Y-29742621D01*
X13027308Y-29627625D01*
X13082777Y-29493709D01*
X13101697Y-29350000D01*
X13101696Y-29349999D01*
X13102521Y-29343740D01*
X13118071Y-29297929D01*
X13134152Y-29270077D01*
X13148221Y-29245709D01*
X13173947Y-29149699D01*
X13173947Y-28956742D01*
X13193632Y-28889704D01*
X13246436Y-28843949D01*
X13315594Y-28834005D01*
X13379150Y-28863030D01*
X13385628Y-28869062D01*
X13835703Y-29319137D01*
X13869188Y-29380460D01*
X13870760Y-29424465D01*
X13854966Y-29534313D01*
X13874425Y-29669656D01*
X13889233Y-29702081D01*
X13899176Y-29771240D01*
X13870150Y-29834795D01*
X13811371Y-29872569D01*
X13741502Y-29872568D01*
X13724927Y-29866386D01*
X13692738Y-29851686D01*
X13692737Y-29851685D01*
X13557538Y-29832247D01*
X13422338Y-29851685D01*
X13298096Y-29908425D01*
X13298091Y-29908428D01*
X13253792Y-29944126D01*
X13253788Y-29944130D01*
X12871340Y-30326579D01*
X12871333Y-30326586D01*
X12835634Y-30370886D01*
X12835631Y-30370891D01*
X12778894Y-30495128D01*
X12778894Y-30495129D01*
X12759455Y-30630330D01*
X12778893Y-30765529D01*
X12778895Y-30765536D01*
X12835631Y-30889769D01*
X12835634Y-30889774D01*
X12871333Y-30934073D01*
X12871338Y-30934079D01*
X12903465Y-30966205D01*
X12903466Y-30966205D01*
X13487535Y-30382136D01*
X13548858Y-30348651D01*
X13618550Y-30353635D01*
X13662897Y-30382136D01*
X14264643Y-30983882D01*
X14279094Y-30969433D01*
X14314797Y-30925129D01*
X14314800Y-30925124D01*
X14371537Y-30800887D01*
X14371537Y-30800886D01*
X14390976Y-30665686D01*
X14371538Y-30530486D01*
X14371537Y-30530483D01*
X14356838Y-30498297D01*
X14346894Y-30429139D01*
X14375919Y-30365583D01*
X14434697Y-30327808D01*
X14504566Y-30327808D01*
X14521143Y-30333991D01*
X14553565Y-30348797D01*
X14553566Y-30348798D01*
X14587209Y-30353635D01*
X14688910Y-30368258D01*
X14824251Y-30348798D01*
X14948629Y-30291998D01*
X14992976Y-30256260D01*
X15375498Y-29873736D01*
X15411238Y-29829389D01*
X15468038Y-29705011D01*
X15487498Y-29569670D01*
X15468038Y-29434328D01*
X15411238Y-29309951D01*
X15386080Y-29278732D01*
X15375501Y-29265604D01*
X15375497Y-29265600D01*
X14957626Y-28847731D01*
X14957621Y-28847726D01*
X14913273Y-28811986D01*
X14860457Y-28787866D01*
X14788895Y-28755185D01*
X14721110Y-28745439D01*
X15448225Y-28745439D01*
X15454305Y-28802007D01*
X15502037Y-28929981D01*
X15502039Y-28929984D01*
X15583894Y-29039329D01*
X15693239Y-29121184D01*
X15693240Y-29121185D01*
X15821215Y-29168917D01*
X15821218Y-29168918D01*
X15877779Y-29174999D01*
X15923223Y-29174999D01*
X16423224Y-29174999D01*
X16468657Y-29174999D01*
X16468663Y-29174998D01*
X16525231Y-29168918D01*
X16653205Y-29121186D01*
X16653208Y-29121184D01*
X16762553Y-29039329D01*
X16844408Y-28929984D01*
X16844409Y-28929983D01*
X16892140Y-28802010D01*
X16898223Y-28745428D01*
X16898224Y-28745427D01*
X16898224Y-28725000D01*
X16423224Y-28725000D01*
X16423224Y-29174999D01*
X15923223Y-29174999D01*
X15923224Y-29174998D01*
X15923224Y-28725000D01*
X15448225Y-28725000D01*
X15448225Y-28745439D01*
X14721110Y-28745439D01*
X14653554Y-28735726D01*
X14518212Y-28755186D01*
X14473828Y-28775455D01*
X14404669Y-28785398D01*
X14341114Y-28756372D01*
X14334637Y-28750341D01*
X13631370Y-28047074D01*
X13597885Y-27985751D01*
X13602869Y-27916059D01*
X13644741Y-27860126D01*
X13710205Y-27835709D01*
X13719054Y-27835393D01*
X13764998Y-27835393D01*
X13786578Y-27813816D01*
X13847902Y-27780333D01*
X13874257Y-27777500D01*
X14399697Y-27777500D01*
X14399699Y-27777500D01*
X14495710Y-27751774D01*
X14581790Y-27702075D01*
X14968055Y-27315811D01*
X15029378Y-27282326D01*
X15055736Y-27279492D01*
X15377930Y-27279492D01*
X15444969Y-27299177D01*
X15490724Y-27351981D01*
X15494105Y-27360143D01*
X15501596Y-27380226D01*
X15583537Y-27489687D01*
X15692998Y-27571628D01*
X15726398Y-27584085D01*
X15782329Y-27625956D01*
X15806746Y-27691420D01*
X15791894Y-27759693D01*
X15742489Y-27809098D01*
X15726396Y-27816447D01*
X15693247Y-27828811D01*
X15693239Y-27828815D01*
X15583894Y-27910670D01*
X15502039Y-28020015D01*
X15502038Y-28020016D01*
X15454307Y-28147989D01*
X15448224Y-28204571D01*
X15448224Y-28225000D01*
X16902904Y-28225000D01*
X16953911Y-28197147D01*
X17023603Y-28202131D01*
X17079537Y-28244001D01*
X17091669Y-28263849D01*
X17103319Y-28287678D01*
X17120148Y-28322103D01*
X17211121Y-28413076D01*
X17239682Y-28427038D01*
X17291265Y-28474164D01*
X17309224Y-28538439D01*
X17309224Y-28685900D01*
X17289539Y-28752939D01*
X17260711Y-28784275D01*
X17230606Y-28807375D01*
X17142361Y-28922377D01*
X17086895Y-29056287D01*
X17086894Y-29056291D01*
X17071266Y-29174999D01*
X17067974Y-29200000D01*
X17082449Y-29309950D01*
X17086894Y-29343708D01*
X17086895Y-29343712D01*
X17142361Y-29477622D01*
X17142362Y-29477624D01*
X17142363Y-29477625D01*
X17230603Y-29592621D01*
X17345599Y-29680861D01*
X17479515Y-29736330D01*
X17606504Y-29753048D01*
X17623223Y-29755250D01*
X17623224Y-29755250D01*
X17623225Y-29755250D01*
X17639372Y-29753124D01*
X17766933Y-29736330D01*
X17900849Y-29680861D01*
X18015845Y-29592621D01*
X18104085Y-29477625D01*
X18159554Y-29343709D01*
X18178474Y-29200000D01*
X18159554Y-29056291D01*
X18118352Y-28956819D01*
X18104086Y-28922377D01*
X18104085Y-28922376D01*
X18104085Y-28922375D01*
X18015845Y-28807379D01*
X18015842Y-28807377D01*
X18015841Y-28807375D01*
X17985737Y-28784275D01*
X17944534Y-28727847D01*
X17937224Y-28685900D01*
X17937224Y-28538439D01*
X17956909Y-28471400D01*
X18006766Y-28427038D01*
X18025917Y-28417676D01*
X18035326Y-28413076D01*
X18126300Y-28322102D01*
X18126302Y-28322099D01*
X18164224Y-28244527D01*
X18182806Y-28206518D01*
X18193724Y-28131582D01*
X18193724Y-27788418D01*
X18182806Y-27713482D01*
X18172608Y-27692621D01*
X18126302Y-27597900D01*
X18126300Y-27597897D01*
X18066084Y-27537681D01*
X18032599Y-27476358D01*
X18037583Y-27406666D01*
X18066084Y-27362319D01*
X18126300Y-27302102D01*
X18126302Y-27302099D01*
X18164658Y-27223640D01*
X18182806Y-27186518D01*
X18193724Y-27111582D01*
X18193724Y-26768418D01*
X18182806Y-26693482D01*
X18167887Y-26662965D01*
X18126302Y-26577900D01*
X18126300Y-26577897D01*
X18035326Y-26486923D01*
X18035323Y-26486921D01*
X17919745Y-26430419D01*
X17919743Y-26430418D01*
X17919742Y-26430418D01*
X17844806Y-26419500D01*
X17401642Y-26419500D01*
X17326706Y-26430418D01*
X17326704Y-26430418D01*
X17326702Y-26430419D01*
X17211124Y-26486921D01*
X17211121Y-26486923D01*
X17171865Y-26526181D01*
X17110542Y-26559667D01*
X17084183Y-26562501D01*
X16965532Y-26562501D01*
X16898493Y-26542816D01*
X16852738Y-26490012D01*
X16849351Y-26481836D01*
X16849169Y-26481349D01*
X16844852Y-26469774D01*
X16762911Y-26360313D01*
X16653450Y-26278372D01*
X16625760Y-26268044D01*
X16600060Y-26258458D01*
X16544127Y-26216586D01*
X16519711Y-26151122D01*
X16534564Y-26082849D01*
X16555708Y-26054602D01*
X16713495Y-25896815D01*
X16774816Y-25863333D01*
X16801174Y-25860499D01*
X16947186Y-25860499D01*
X16947186Y-25860498D01*
X16997296Y-25852562D01*
X17038617Y-25846018D01*
X17038618Y-25846018D01*
X17038619Y-25846017D01*
X17038622Y-25846017D01*
X17148838Y-25789859D01*
X17236306Y-25702391D01*
X17292464Y-25592175D01*
X17292464Y-25592173D01*
X17292465Y-25592172D01*
X17292465Y-25592171D01*
X17299144Y-25550000D01*
X17306947Y-25500735D01*
X17306946Y-25159266D01*
X17306946Y-25159264D01*
X17306946Y-25159260D01*
X17292465Y-25067829D01*
X17292465Y-25067828D01*
X17292464Y-25067826D01*
X17292464Y-25067825D01*
X17236306Y-24957609D01*
X17236304Y-24957607D01*
X17236301Y-24957603D01*
X17216379Y-24937681D01*
X17182894Y-24876358D01*
X17187878Y-24806666D01*
X17216379Y-24762319D01*
X17236301Y-24742396D01*
X17236306Y-24742391D01*
X17292464Y-24632175D01*
X17292464Y-24632173D01*
X17292465Y-24632172D01*
X17292465Y-24632171D01*
X17296395Y-24607356D01*
X17306947Y-24540735D01*
X17306946Y-24199266D01*
X17306946Y-24199264D01*
X17306946Y-24199260D01*
X17292465Y-24107829D01*
X17292465Y-24107828D01*
X17292464Y-24107826D01*
X17292464Y-24107825D01*
X17236306Y-23997609D01*
X17236304Y-23997607D01*
X17236301Y-23997603D01*
X17148843Y-23910145D01*
X17148840Y-23910143D01*
X17148838Y-23910141D01*
X17038622Y-23853983D01*
X17038621Y-23853982D01*
X17038618Y-23853981D01*
X16947182Y-23839500D01*
X16796175Y-23839500D01*
X16729136Y-23819815D01*
X16708494Y-23803181D01*
X15969125Y-23063812D01*
X15935640Y-23002489D01*
X15940624Y-22932797D01*
X15953704Y-22907240D01*
X15954341Y-22906287D01*
X15990406Y-22852312D01*
X15998404Y-22812105D01*
X16009848Y-22754574D01*
X16009848Y-22754569D01*
X15990407Y-22656833D01*
X15988575Y-22654091D01*
X15962799Y-22615516D01*
X15941922Y-22548843D01*
X15960405Y-22481463D01*
X15978217Y-22458950D01*
X16105395Y-22331772D01*
X16166716Y-22298289D01*
X16236408Y-22303273D01*
X16261957Y-22316349D01*
X16303278Y-22343959D01*
X16303280Y-22343959D01*
X16303281Y-22343960D01*
X16303279Y-22343960D01*
X16401017Y-22363401D01*
X16401019Y-22363401D01*
X16401021Y-22363401D01*
X16498754Y-22343960D01*
X16498754Y-22343959D01*
X16498759Y-22343959D01*
X16560702Y-22302570D01*
X16583517Y-22279753D01*
X16604176Y-22263108D01*
X16606574Y-22261567D01*
X16606573Y-22261567D01*
X16606576Y-22261566D01*
X16664794Y-22217985D01*
X17440794Y-21441985D01*
X17459073Y-21421635D01*
X17475707Y-21400993D01*
X17478581Y-21395500D01*
X17492594Y-21368709D01*
X17505030Y-21344933D01*
X17511794Y-21333532D01*
X17517050Y-21325668D01*
X17517050Y-21325664D01*
X17517053Y-21325661D01*
X17520447Y-21317466D01*
X17521796Y-21312948D01*
X17521904Y-21312676D01*
X17521912Y-21312662D01*
X17541597Y-21245623D01*
X17551947Y-21173638D01*
X17551947Y-19026362D01*
X17550483Y-18999048D01*
X17548528Y-18980861D01*
X17547649Y-18972689D01*
X17547648Y-18972687D01*
X17547050Y-18970776D01*
X17517860Y-18877556D01*
X17517562Y-18877011D01*
X17484378Y-18816238D01*
X17484373Y-18816230D01*
X17440797Y-18758019D01*
X17440796Y-18758018D01*
X17440794Y-18758015D01*
X17440789Y-18758010D01*
X17440781Y-18758001D01*
X16538445Y-17855666D01*
X16538444Y-17855665D01*
X16538432Y-17855653D01*
X16518082Y-17837374D01*
X16518076Y-17837369D01*
X16518067Y-17837361D01*
X16497446Y-17820744D01*
X16497443Y-17820742D01*
X16497440Y-17820740D01*
X16409109Y-17774535D01*
X16409106Y-17774534D01*
X16342071Y-17754850D01*
X16342063Y-17754848D01*
X16270086Y-17744500D01*
X16270085Y-17744500D01*
X15022809Y-17744500D01*
X15022808Y-17744500D01*
X14995512Y-17745963D01*
X14995507Y-17745963D01*
X14995495Y-17745964D01*
X14995487Y-17745964D01*
X14995458Y-17745967D01*
X14969136Y-17748797D01*
X14969134Y-17748798D01*
X14874005Y-17778586D01*
X14873995Y-17778590D01*
X14812685Y-17812068D01*
X14812677Y-17812073D01*
X14754466Y-17855649D01*
X14754448Y-17855665D01*
X13528464Y-19081650D01*
X13528460Y-19081654D01*
X13494194Y-19124176D01*
X13494184Y-19124189D01*
X13465706Y-19168500D01*
X13465693Y-19168521D01*
X13465689Y-19168529D01*
X13456735Y-19184251D01*
X13452150Y-19192304D01*
X13425778Y-19288438D01*
X13425777Y-19288445D01*
X13420794Y-19358121D01*
X13420793Y-19358144D01*
X13421606Y-19403666D01*
X13421607Y-19403672D01*
X13427659Y-19422998D01*
X13428907Y-19492857D01*
X13392189Y-19552300D01*
X13329162Y-19582456D01*
X13326973Y-19582791D01*
X13195561Y-19601686D01*
X13071319Y-19658425D01*
X13071314Y-19658428D01*
X13027009Y-19694131D01*
X13012562Y-19708578D01*
X13614310Y-20310326D01*
X13647795Y-20371649D01*
X13642811Y-20441341D01*
X13614310Y-20485688D01*
X13030241Y-21069757D01*
X13062370Y-21101887D01*
X13106670Y-21137588D01*
X13106679Y-21137593D01*
X13230910Y-21194328D01*
X13230917Y-21194330D01*
X13366117Y-21213768D01*
X13501312Y-21194330D01*
X13507965Y-21192377D01*
X13577834Y-21192374D01*
X13636614Y-21230146D01*
X13665642Y-21293700D01*
X13655702Y-21362859D01*
X13630586Y-21399034D01*
X13117234Y-21912386D01*
X13075843Y-21974333D01*
X13075842Y-21974336D01*
X13056402Y-22072069D01*
X13056402Y-22072074D01*
X13075842Y-22169811D01*
X13075843Y-22169813D01*
X13100654Y-22206943D01*
X13117233Y-22231755D01*
X13117235Y-22231757D01*
X13117238Y-22231761D01*
X13690809Y-22805331D01*
X13724294Y-22866654D01*
X13723281Y-22880809D01*
X13721447Y-22875000D01*
X10371447Y-22875000D01*
X10370789Y-22877083D01*
X10370791Y-22858065D01*
X10402082Y-22805333D01*
X10975661Y-22231755D01*
X11017050Y-22169813D01*
X11017051Y-22169811D01*
X11036492Y-22072074D01*
X11036492Y-22072069D01*
X11017051Y-21974336D01*
X11017050Y-21974333D01*
X11017050Y-21974332D01*
X10975661Y-21912389D01*
X10975659Y-21912386D01*
X10462307Y-21399034D01*
X10428822Y-21337711D01*
X10433806Y-21268019D01*
X10475678Y-21212086D01*
X10541142Y-21187669D01*
X10584926Y-21192377D01*
X10591576Y-21194330D01*
X10726777Y-21213768D01*
X10861976Y-21194330D01*
X10861983Y-21194328D01*
X10986216Y-21137592D01*
X10986221Y-21137589D01*
X11030519Y-21101891D01*
X11062651Y-21069757D01*
X10478583Y-20485689D01*
X10445098Y-20424366D01*
X10446983Y-20398007D01*
X11098008Y-20398007D01*
X11098008Y-20398008D01*
X11416204Y-20716205D01*
X11416206Y-20716205D01*
X11448326Y-20684085D01*
X11448333Y-20684077D01*
X11484035Y-20639776D01*
X11484040Y-20639767D01*
X11540775Y-20515536D01*
X11540777Y-20515529D01*
X11560215Y-20380330D01*
X12532678Y-20380330D01*
X12552116Y-20515529D01*
X12552118Y-20515536D01*
X12608854Y-20639769D01*
X12608857Y-20639774D01*
X12644556Y-20684073D01*
X12644561Y-20684079D01*
X12676688Y-20716205D01*
X12676689Y-20716205D01*
X12994886Y-20398008D01*
X12994886Y-20398007D01*
X12659010Y-20062131D01*
X12644561Y-20076582D01*
X12644558Y-20076585D01*
X12608857Y-20120885D01*
X12608854Y-20120891D01*
X12552117Y-20245128D01*
X12552117Y-20245129D01*
X12532678Y-20380330D01*
X11560215Y-20380330D01*
X11540777Y-20245130D01*
X11484037Y-20120888D01*
X11484031Y-20120878D01*
X11448344Y-20076594D01*
X11448342Y-20076591D01*
X11433882Y-20062132D01*
X11098008Y-20398007D01*
X10446983Y-20398007D01*
X10450082Y-20354674D01*
X10478583Y-20310327D01*
X10744455Y-20044455D01*
X11080330Y-19708579D01*
X11080330Y-19708578D01*
X11065884Y-19694133D01*
X11065876Y-19694125D01*
X11021576Y-19658426D01*
X11021571Y-19658423D01*
X10897334Y-19601686D01*
X10897333Y-19601685D01*
X10764791Y-19582629D01*
X10701235Y-19553604D01*
X10663461Y-19494826D01*
X10662857Y-19427084D01*
X10667116Y-19411559D01*
X10672100Y-19341867D01*
X10671287Y-19296330D01*
X10671286Y-19296328D01*
X10671286Y-19296324D01*
X10656888Y-19250346D01*
X10641498Y-19201194D01*
X10617698Y-19157608D01*
X10608016Y-19139876D01*
X10608011Y-19139868D01*
X10564435Y-19081657D01*
X10564434Y-19081656D01*
X10564432Y-19081653D01*
X10564427Y-19081648D01*
X10564419Y-19081639D01*
X9338445Y-17855666D01*
X9338444Y-17855665D01*
X9338432Y-17855653D01*
X9318082Y-17837374D01*
X9318076Y-17837369D01*
X9318067Y-17837361D01*
X9297446Y-17820744D01*
X9297443Y-17820742D01*
X9297440Y-17820740D01*
X9209109Y-17774535D01*
X9209106Y-17774534D01*
X9142071Y-17754850D01*
X9142063Y-17754848D01*
X9070086Y-17744500D01*
X9070085Y-17744500D01*
X7822809Y-17744500D01*
X7822808Y-17744500D01*
X7795512Y-17745963D01*
X7795507Y-17745963D01*
X7795495Y-17745964D01*
X7795487Y-17745964D01*
X7795458Y-17745967D01*
X7769136Y-17748797D01*
X7769134Y-17748798D01*
X7674005Y-17778586D01*
X7673995Y-17778590D01*
X7612685Y-17812068D01*
X7612677Y-17812073D01*
X7554466Y-17855649D01*
X7554448Y-17855665D01*
X6652113Y-18758001D01*
X6652085Y-18758031D01*
X6633808Y-18778379D01*
X6617191Y-18799000D01*
X6617187Y-18799005D01*
X6617187Y-18799007D01*
X6578770Y-18872450D01*
X6570981Y-18887340D01*
X6551297Y-18954375D01*
X6551295Y-18954383D01*
X6542416Y-19016146D01*
X6513392Y-19079702D01*
X6454614Y-19117477D01*
X6419678Y-19122500D01*
X4299876Y-19122500D01*
X4232837Y-19102815D01*
X4187082Y-19050011D01*
X4177138Y-18980853D01*
X4189392Y-18942204D01*
X4245533Y-18832022D01*
X4245534Y-18832019D01*
X4247438Y-18820000D01*
X3574000Y-18820000D01*
X3506961Y-18800315D01*
X3461206Y-18747511D01*
X3450000Y-18696000D01*
X3450000Y-18320000D01*
X3950000Y-18320000D01*
X4247438Y-18320000D01*
X4245535Y-18307983D01*
X4189447Y-18197906D01*
X4189444Y-18197901D01*
X4102098Y-18110555D01*
X4102093Y-18110551D01*
X3992018Y-18054465D01*
X3950000Y-18047809D01*
X3950000Y-18320000D01*
X3450000Y-18320000D01*
X3450000Y-18047809D01*
X3407984Y-18054463D01*
X3297906Y-18110551D01*
X3297901Y-18110555D01*
X3210555Y-18197901D01*
X3210551Y-18197906D01*
X3185483Y-18247104D01*
X3137507Y-18297899D01*
X3069686Y-18314693D01*
X3003551Y-18292154D01*
X2964514Y-18247101D01*
X2939449Y-18197908D01*
X2939444Y-18197901D01*
X2852098Y-18110555D01*
X2852093Y-18110551D01*
X2742018Y-18054465D01*
X2700000Y-18047809D01*
X2700000Y-18696000D01*
X2680315Y-18763039D01*
X2627511Y-18808794D01*
X2576000Y-18820000D01*
X1902562Y-18820000D01*
X1904464Y-18832016D01*
X1960552Y-18942093D01*
X1960555Y-18942098D01*
X1980422Y-18961965D01*
X2013907Y-19023288D01*
X2008923Y-19092980D01*
X1980422Y-19137327D01*
X1960145Y-19157603D01*
X1960142Y-19157608D01*
X1960141Y-19157609D01*
X1942463Y-19192304D01*
X1903981Y-19267827D01*
X1903981Y-19267828D01*
X1889500Y-19359264D01*
X1889500Y-19375272D01*
X1869815Y-19442311D01*
X1853181Y-19462953D01*
X761080Y-20555054D01*
X699757Y-20588539D01*
X630065Y-20583555D01*
X574132Y-20541683D01*
X549715Y-20476219D01*
X549399Y-20467390D01*
X549399Y-20259266D01*
X549399Y-20259265D01*
X549399Y-20259260D01*
X534918Y-20167829D01*
X534918Y-20167828D01*
X534917Y-20167826D01*
X534917Y-20167825D01*
X478759Y-20057609D01*
X478757Y-20057607D01*
X478754Y-20057603D01*
X458832Y-20037681D01*
X425347Y-19976358D01*
X430331Y-19906666D01*
X458832Y-19862319D01*
X478754Y-19842396D01*
X478759Y-19842391D01*
X534917Y-19732175D01*
X534917Y-19732173D01*
X534918Y-19732172D01*
X534918Y-19732171D01*
X540943Y-19694131D01*
X549400Y-19640735D01*
X549399Y-19299266D01*
X549399Y-19299264D01*
X549399Y-19299260D01*
X534918Y-19207829D01*
X534918Y-19207828D01*
X534917Y-19207826D01*
X534917Y-19207825D01*
X478759Y-19097609D01*
X478757Y-19097607D01*
X478754Y-19097603D01*
X441819Y-19060668D01*
X408334Y-18999345D01*
X405500Y-18972987D01*
X405500Y-18319999D01*
X1902561Y-18319999D01*
X1902561Y-18320000D01*
X2200000Y-18320000D01*
X2200000Y-18047809D01*
X2157984Y-18054463D01*
X2047906Y-18110551D01*
X2047901Y-18110555D01*
X1960555Y-18197901D01*
X1960550Y-18197908D01*
X1904466Y-18307977D01*
X1904465Y-18307980D01*
X1902561Y-18319999D01*
X405500Y-18319999D01*
X405500Y-15433074D01*
X425185Y-15366035D01*
X477989Y-15320280D01*
X547147Y-15310336D01*
X598389Y-15329971D01*
X652260Y-15365966D01*
X652262Y-15365966D01*
X652264Y-15365967D01*
X725321Y-15380499D01*
X725324Y-15380500D01*
X725326Y-15380500D01*
X1154676Y-15380500D01*
X1154677Y-15380499D01*
X1227740Y-15365966D01*
X1310601Y-15310601D01*
X1310778Y-15310336D01*
X1320285Y-15296109D01*
X1373897Y-15251304D01*
X1423387Y-15241000D01*
X1953500Y-15241000D01*
X2020539Y-15260685D01*
X2066294Y-15313489D01*
X2077500Y-15365000D01*
X2077500Y-16137558D01*
X2084898Y-16174749D01*
X2113077Y-16216922D01*
X2155250Y-16245101D01*
X2155252Y-16245102D01*
X2183205Y-16250662D01*
X2192441Y-16252500D01*
X2192442Y-16252500D01*
X2867559Y-16252500D01*
X2874957Y-16251028D01*
X2904748Y-16245102D01*
X2912781Y-16239734D01*
X2918523Y-16235898D01*
X2985200Y-16215020D01*
X2987414Y-16215000D01*
X3020000Y-16215000D01*
X4514978Y-16215000D01*
X4582017Y-16234685D01*
X4601081Y-16249769D01*
X4631638Y-16279255D01*
X4631640Y-16279256D01*
X4631641Y-16279257D01*
X4719976Y-16325465D01*
X4719977Y-16325465D01*
X4719977Y-16325466D01*
X4764218Y-16338456D01*
X4787015Y-16345150D01*
X4787019Y-16345150D01*
X4787021Y-16345151D01*
X4798652Y-16346823D01*
X4859000Y-16355500D01*
X4859001Y-16355500D01*
X7361000Y-16355500D01*
X7415313Y-16349661D01*
X7466824Y-16338455D01*
X7493198Y-16331219D01*
X7522074Y-16314775D01*
X7579818Y-16281894D01*
X7579819Y-16281892D01*
X7579828Y-16281888D01*
X7632632Y-16236133D01*
X7664257Y-16203359D01*
X7710465Y-16115024D01*
X7730150Y-16047985D01*
X7740500Y-15976000D01*
X7740500Y-14403388D01*
X9522500Y-14403388D01*
X9522500Y-14596611D01*
X9552725Y-14787441D01*
X9612429Y-14971194D01*
X9700147Y-15143349D01*
X9813715Y-15299663D01*
X9950336Y-15436284D01*
X10106650Y-15549852D01*
X10278805Y-15637570D01*
X10370681Y-15667422D01*
X10462560Y-15697275D01*
X10550943Y-15711273D01*
X10653389Y-15727500D01*
X10653394Y-15727500D01*
X10846611Y-15727500D01*
X10939123Y-15712846D01*
X11037440Y-15697275D01*
X11221197Y-15637569D01*
X11393350Y-15549852D01*
X11549663Y-15436285D01*
X11686285Y-15299663D01*
X11799852Y-15143350D01*
X11887569Y-14971197D01*
X11947275Y-14787440D01*
X11968479Y-14653563D01*
X11977500Y-14596611D01*
X11977500Y-14403388D01*
X11959684Y-14290905D01*
X11947275Y-14212560D01*
X11887569Y-14028803D01*
X11799852Y-13856650D01*
X11686285Y-13700337D01*
X11549663Y-13563715D01*
X11486990Y-13518181D01*
X11393349Y-13450147D01*
X11221194Y-13362429D01*
X11037441Y-13302725D01*
X10846611Y-13272500D01*
X10846606Y-13272500D01*
X10653394Y-13272500D01*
X10653389Y-13272500D01*
X10462558Y-13302725D01*
X10278805Y-13362429D01*
X10106650Y-13450147D01*
X9950336Y-13563715D01*
X9813715Y-13700336D01*
X9700147Y-13856650D01*
X9612429Y-14028805D01*
X9552725Y-14212558D01*
X9522500Y-14403388D01*
X7740500Y-14403388D01*
X7740500Y-13624000D01*
X7734661Y-13569687D01*
X7723455Y-13518176D01*
X7716219Y-13491802D01*
X7716216Y-13491796D01*
X7666894Y-13405181D01*
X7666890Y-13405176D01*
X7666888Y-13405172D01*
X7629851Y-13362429D01*
X7621136Y-13352371D01*
X7600154Y-13332125D01*
X7588359Y-13320743D01*
X7500024Y-13274535D01*
X7500023Y-13274534D01*
X7500022Y-13274534D01*
X7500022Y-13274533D01*
X7432990Y-13254851D01*
X7432978Y-13254848D01*
X7361001Y-13244500D01*
X7361000Y-13244500D01*
X4896996Y-13244500D01*
X4829957Y-13224815D01*
X4784202Y-13172011D01*
X4774258Y-13102853D01*
X4785595Y-13066040D01*
X4806941Y-13022375D01*
X4819582Y-12996518D01*
X4830500Y-12921582D01*
X4830500Y-12478418D01*
X4819582Y-12403482D01*
X4817222Y-12398656D01*
X4763078Y-12287900D01*
X4763076Y-12287897D01*
X4672102Y-12196923D01*
X4672099Y-12196921D01*
X4556521Y-12140419D01*
X4556519Y-12140418D01*
X4556518Y-12140418D01*
X4481582Y-12129500D01*
X4138418Y-12129500D01*
X4063482Y-12140418D01*
X4063480Y-12140418D01*
X4063478Y-12140419D01*
X3947900Y-12196921D01*
X3947897Y-12196923D01*
X3887681Y-12257140D01*
X3826358Y-12290625D01*
X3756666Y-12285641D01*
X3712319Y-12257140D01*
X3652102Y-12196923D01*
X3652099Y-12196921D01*
X3536521Y-12140419D01*
X3536519Y-12140418D01*
X3536518Y-12140418D01*
X3461582Y-12129500D01*
X3118418Y-12129500D01*
X3043482Y-12140418D01*
X3043480Y-12140418D01*
X3043478Y-12140419D01*
X2927900Y-12196921D01*
X2927897Y-12196923D01*
X2836923Y-12287897D01*
X2836921Y-12287900D01*
X2780419Y-12403478D01*
X2780418Y-12403480D01*
X2780418Y-12403482D01*
X2769500Y-12478418D01*
X2769500Y-12921582D01*
X2780418Y-12996518D01*
X2780418Y-12996519D01*
X2780419Y-12996521D01*
X2836921Y-13112099D01*
X2836923Y-13112102D01*
X2860640Y-13135819D01*
X2894125Y-13197142D01*
X2889141Y-13266834D01*
X2847269Y-13322767D01*
X2781805Y-13347184D01*
X2772959Y-13347500D01*
X2192441Y-13347500D01*
X2155250Y-13354898D01*
X2113077Y-13383077D01*
X2084898Y-13425250D01*
X2077500Y-13462441D01*
X2077500Y-14235000D01*
X2057815Y-14302039D01*
X2005011Y-14347794D01*
X1953500Y-14359000D01*
X1423387Y-14359000D01*
X1356348Y-14339315D01*
X1320285Y-14303891D01*
X1310604Y-14289402D01*
X1310602Y-14289400D01*
X1310601Y-14289399D01*
X1229186Y-14235000D01*
X1227739Y-14234033D01*
X1227735Y-14234032D01*
X1154677Y-14219500D01*
X1154674Y-14219500D01*
X725326Y-14219500D01*
X725323Y-14219500D01*
X652264Y-14234032D01*
X652257Y-14234035D01*
X598389Y-14270028D01*
X531712Y-14290905D01*
X464332Y-14272420D01*
X417642Y-14220440D01*
X405500Y-14166925D01*
X405500Y-11600000D01*
X14144750Y-11600000D01*
X14157915Y-11700000D01*
X14163670Y-11743708D01*
X14163671Y-11743712D01*
X14219137Y-11877622D01*
X14219138Y-11877624D01*
X14219139Y-11877625D01*
X14307379Y-11992621D01*
X14422375Y-12080861D01*
X14422376Y-12080861D01*
X14422377Y-12080862D01*
X14467013Y-12099350D01*
X14556291Y-12136330D01*
X14682895Y-12152998D01*
X14746790Y-12181263D01*
X14754389Y-12188255D01*
X15158209Y-12592075D01*
X15158210Y-12592076D01*
X15158212Y-12592077D01*
X15207905Y-12620766D01*
X15207907Y-12620768D01*
X15207908Y-12620768D01*
X15244291Y-12641774D01*
X15340301Y-12667500D01*
X15360960Y-12667500D01*
X15427999Y-12687185D01*
X15448641Y-12703819D01*
X15457140Y-12712318D01*
X15490625Y-12773641D01*
X15485641Y-12843333D01*
X15457141Y-12887680D01*
X15396921Y-12947900D01*
X15340419Y-13063478D01*
X15340418Y-13063480D01*
X15340418Y-13063482D01*
X15329500Y-13138418D01*
X15329500Y-13481582D01*
X15340418Y-13556518D01*
X15340418Y-13556519D01*
X15340419Y-13556521D01*
X15396921Y-13672099D01*
X15396923Y-13672102D01*
X15487897Y-13763076D01*
X15487900Y-13763078D01*
X15598656Y-13817222D01*
X15603482Y-13819582D01*
X15678418Y-13830500D01*
X15678423Y-13830500D01*
X16121577Y-13830500D01*
X16121582Y-13830500D01*
X16196518Y-13819582D01*
X16254310Y-13791329D01*
X16312099Y-13763078D01*
X16312102Y-13763076D01*
X16351358Y-13723820D01*
X16412681Y-13690334D01*
X16439040Y-13687500D01*
X16660960Y-13687500D01*
X16727999Y-13707185D01*
X16748642Y-13723820D01*
X16787897Y-13763076D01*
X16787900Y-13763078D01*
X16898656Y-13817222D01*
X16903482Y-13819582D01*
X16978418Y-13830500D01*
X16978423Y-13830500D01*
X17421577Y-13830500D01*
X17421582Y-13830500D01*
X17496518Y-13819582D01*
X17554310Y-13791329D01*
X17612099Y-13763078D01*
X17612102Y-13763076D01*
X17651358Y-13723820D01*
X17712681Y-13690334D01*
X17739040Y-13687500D01*
X17858613Y-13687500D01*
X17925652Y-13707185D01*
X17934086Y-13713114D01*
X18022375Y-13780861D01*
X18156291Y-13836330D01*
X18283280Y-13853048D01*
X18299999Y-13855250D01*
X18300000Y-13855250D01*
X18300001Y-13855250D01*
X18314977Y-13853278D01*
X18443709Y-13836330D01*
X18577625Y-13780861D01*
X18692621Y-13692621D01*
X18780861Y-13577625D01*
X18836330Y-13443709D01*
X18855250Y-13300000D01*
X18836330Y-13156291D01*
X18780861Y-13022375D01*
X18692621Y-12907379D01*
X18577625Y-12819139D01*
X18577624Y-12819138D01*
X18577622Y-12819137D01*
X18443712Y-12763671D01*
X18443710Y-12763670D01*
X18443709Y-12763670D01*
X18371854Y-12754210D01*
X18300001Y-12744750D01*
X18299999Y-12744750D01*
X18156291Y-12763670D01*
X18156287Y-12763671D01*
X18022376Y-12819138D01*
X18022373Y-12819139D01*
X17908036Y-12906875D01*
X17842867Y-12932070D01*
X17832549Y-12932500D01*
X17739040Y-12932500D01*
X17672001Y-12912815D01*
X17651354Y-12896176D01*
X17642854Y-12887675D01*
X17609372Y-12826350D01*
X17614361Y-12756659D01*
X17642857Y-12712319D01*
X17674424Y-12680752D01*
X17730011Y-12648659D01*
X17755710Y-12641774D01*
X17841790Y-12592075D01*
X18345610Y-12088254D01*
X18406931Y-12054771D01*
X18417099Y-12052998D01*
X18543709Y-12036330D01*
X18677625Y-11980861D01*
X18792621Y-11892621D01*
X18880861Y-11777625D01*
X18936330Y-11643709D01*
X18955250Y-11500000D01*
X18936330Y-11356291D01*
X18880861Y-11222375D01*
X18792621Y-11107379D01*
X18677625Y-11019139D01*
X18677624Y-11019138D01*
X18677622Y-11019137D01*
X18543712Y-10963671D01*
X18543710Y-10963670D01*
X18543709Y-10963670D01*
X18471854Y-10954210D01*
X18400001Y-10944750D01*
X18399999Y-10944750D01*
X18256291Y-10963670D01*
X18256287Y-10963671D01*
X18122377Y-11019137D01*
X18007379Y-11107379D01*
X17919137Y-11222377D01*
X17863671Y-11356287D01*
X17863670Y-11356291D01*
X17847001Y-11482895D01*
X17818734Y-11546791D01*
X17811743Y-11554389D01*
X17617522Y-11748611D01*
X17556199Y-11782096D01*
X17506316Y-11779962D01*
X17506048Y-11781807D01*
X17496519Y-11780418D01*
X17496518Y-11780418D01*
X17421582Y-11769500D01*
X16978418Y-11769500D01*
X16903482Y-11780418D01*
X16903480Y-11780418D01*
X16903478Y-11780419D01*
X16787900Y-11836921D01*
X16787897Y-11836923D01*
X16696923Y-11927897D01*
X16696923Y-11927898D01*
X16661400Y-12000561D01*
X16614272Y-12052143D01*
X16546738Y-12070057D01*
X16480240Y-12048616D01*
X16438600Y-12000561D01*
X16403076Y-11927898D01*
X16403076Y-11927897D01*
X16312102Y-11836923D01*
X16312099Y-11836921D01*
X16196521Y-11780419D01*
X16196519Y-11780418D01*
X16196518Y-11780418D01*
X16121582Y-11769500D01*
X15678418Y-11769500D01*
X15622652Y-11777625D01*
X15603481Y-11780418D01*
X15555944Y-11803658D01*
X15487071Y-11815417D01*
X15422774Y-11788073D01*
X15413815Y-11779950D01*
X15288253Y-11654388D01*
X15254771Y-11593067D01*
X15252998Y-11582895D01*
X15249245Y-11554389D01*
X15236330Y-11456291D01*
X15180861Y-11322375D01*
X15092621Y-11207379D01*
X14977625Y-11119139D01*
X14977624Y-11119138D01*
X14977622Y-11119137D01*
X14843712Y-11063671D01*
X14843710Y-11063670D01*
X14843709Y-11063670D01*
X14771854Y-11054210D01*
X14700001Y-11044750D01*
X14699999Y-11044750D01*
X14556291Y-11063670D01*
X14556287Y-11063671D01*
X14422377Y-11119137D01*
X14307379Y-11207379D01*
X14219137Y-11322377D01*
X14163671Y-11456287D01*
X14163670Y-11456291D01*
X14150505Y-11556291D01*
X14144750Y-11600000D01*
X405500Y-11600000D01*
X405500Y-11000000D01*
X9644750Y-11000000D01*
X9662698Y-11136329D01*
X9663670Y-11143708D01*
X9663671Y-11143712D01*
X9719137Y-11277622D01*
X9719138Y-11277624D01*
X9719139Y-11277625D01*
X9807379Y-11392621D01*
X9922375Y-11480861D01*
X9922376Y-11480861D01*
X9922377Y-11480862D01*
X9967013Y-11499350D01*
X10056291Y-11536330D01*
X10183280Y-11553048D01*
X10199999Y-11555250D01*
X10200000Y-11555250D01*
X10200001Y-11555250D01*
X10214977Y-11553278D01*
X10343709Y-11536330D01*
X10477625Y-11480861D01*
X10592621Y-11392621D01*
X10680861Y-11277625D01*
X10736330Y-11143709D01*
X10755250Y-11000000D01*
X10736330Y-10856291D01*
X10680861Y-10722375D01*
X10592621Y-10607379D01*
X10592618Y-10607377D01*
X10592617Y-10607375D01*
X10562513Y-10584275D01*
X10521310Y-10527847D01*
X10514000Y-10485900D01*
X10514000Y-10333043D01*
X10533685Y-10266004D01*
X10550320Y-10245361D01*
X10589198Y-10206483D01*
X10589200Y-10206478D01*
X10595168Y-10198122D01*
X10596348Y-10198964D01*
X10635994Y-10155563D01*
X10703526Y-10137642D01*
X10770027Y-10159076D01*
X10804235Y-10198548D01*
X10805244Y-10197828D01*
X10811214Y-10206190D01*
X10893808Y-10288784D01*
X10998755Y-10340089D01*
X11000000Y-10340269D01*
X11400000Y-10340269D01*
X11401244Y-10340089D01*
X11506191Y-10288784D01*
X11588787Y-10206188D01*
X11640086Y-10101254D01*
X11640089Y-10101245D01*
X11648284Y-10045000D01*
X11400000Y-10045000D01*
X11400000Y-10340269D01*
X11000000Y-10340269D01*
X11000000Y-9645000D01*
X11400000Y-9645000D01*
X11648282Y-9645000D01*
X11640086Y-9588747D01*
X11588787Y-9483811D01*
X11506188Y-9401212D01*
X11401249Y-9349911D01*
X11401250Y-9349911D01*
X11400000Y-9349729D01*
X11400000Y-9645000D01*
X11000000Y-9645000D01*
X11000000Y-9349730D01*
X10999999Y-9349729D01*
X10998750Y-9349911D01*
X10893811Y-9401212D01*
X10811214Y-9483809D01*
X10805244Y-9492172D01*
X10803990Y-9491277D01*
X10764538Y-9534450D01*
X10697002Y-9552357D01*
X10630505Y-9530908D01*
X10596109Y-9491205D01*
X10595168Y-9491878D01*
X10589197Y-9483515D01*
X10506485Y-9400803D01*
X10401391Y-9349426D01*
X10333261Y-9339500D01*
X10333260Y-9339500D01*
X10066740Y-9339500D01*
X10066739Y-9339500D01*
X9998608Y-9349426D01*
X9893514Y-9400803D01*
X9810803Y-9483514D01*
X9759426Y-9588608D01*
X9749500Y-9656739D01*
X9749500Y-10033260D01*
X9759426Y-10101391D01*
X9810803Y-10206485D01*
X9849680Y-10245361D01*
X9883166Y-10306684D01*
X9886000Y-10333043D01*
X9886000Y-10485900D01*
X9866315Y-10552939D01*
X9837487Y-10584275D01*
X9807382Y-10607375D01*
X9719137Y-10722377D01*
X9663671Y-10856287D01*
X9663670Y-10856291D01*
X9645722Y-10992620D01*
X9644750Y-11000000D01*
X405500Y-11000000D01*
X405500Y-10624000D01*
X425185Y-10556961D01*
X477989Y-10511206D01*
X529500Y-10500000D01*
X4500000Y-10500000D01*
X4500000Y-6698855D01*
X10024500Y-6698855D01*
X10024500Y-7301144D01*
X10030509Y-7357024D01*
X10077662Y-7483447D01*
X10077664Y-7483450D01*
X10158528Y-7591472D01*
X10266550Y-7672336D01*
X10266551Y-7672336D01*
X10266554Y-7672338D01*
X10317832Y-7691463D01*
X10373766Y-7733333D01*
X10398184Y-7798797D01*
X10398500Y-7807645D01*
X10398500Y-8054456D01*
X10378815Y-8121495D01*
X10362181Y-8142137D01*
X10310803Y-8193514D01*
X10259426Y-8298608D01*
X10249500Y-8366739D01*
X10249500Y-8743260D01*
X10259426Y-8811391D01*
X10310803Y-8916485D01*
X10393514Y-8999196D01*
X10393515Y-8999196D01*
X10393517Y-8999198D01*
X10498607Y-9050573D01*
X10532673Y-9055536D01*
X10566739Y-9060500D01*
X10566740Y-9060500D01*
X10833261Y-9060500D01*
X10855971Y-9057191D01*
X10901393Y-9050573D01*
X11006483Y-8999198D01*
X11089198Y-8916483D01*
X11140573Y-8811393D01*
X11150500Y-8743260D01*
X11150500Y-8366740D01*
X11140573Y-8298607D01*
X11089198Y-8193517D01*
X11089196Y-8193515D01*
X11089196Y-8193514D01*
X11062819Y-8167137D01*
X11029334Y-8105814D01*
X11026500Y-8079456D01*
X11026500Y-7807645D01*
X11046185Y-7740606D01*
X11098989Y-7694851D01*
X11107168Y-7691463D01*
X11158445Y-7672338D01*
X11158445Y-7672337D01*
X11158450Y-7672336D01*
X11266472Y-7591472D01*
X11347336Y-7483450D01*
X11383818Y-7385638D01*
X11425689Y-7329704D01*
X11491153Y-7305287D01*
X11559426Y-7320139D01*
X11608832Y-7369544D01*
X11616182Y-7385638D01*
X11652662Y-7483447D01*
X11652664Y-7483450D01*
X11733528Y-7591472D01*
X11841549Y-7672335D01*
X11841552Y-7672337D01*
X11967975Y-7719490D01*
X11967978Y-7719491D01*
X11997318Y-7722645D01*
X12023855Y-7725499D01*
X12023870Y-7725500D01*
X12062000Y-7725500D01*
X12129039Y-7745185D01*
X12174794Y-7797989D01*
X12186000Y-7849500D01*
X12186000Y-7911560D01*
X12166315Y-7978599D01*
X12116462Y-8022959D01*
X12100157Y-8030931D01*
X12087894Y-8036926D01*
X11996923Y-8127897D01*
X11996921Y-8127900D01*
X11940419Y-8243478D01*
X11940418Y-8243480D01*
X11940418Y-8243482D01*
X11929500Y-8318418D01*
X11929500Y-8661582D01*
X11940418Y-8736518D01*
X11940418Y-8736519D01*
X11940419Y-8736521D01*
X11996921Y-8852099D01*
X11996923Y-8852102D01*
X12057140Y-8912319D01*
X12090625Y-8973642D01*
X12085641Y-9043334D01*
X12057140Y-9087681D01*
X11996923Y-9147897D01*
X11996921Y-9147900D01*
X11940419Y-9263478D01*
X11940418Y-9263480D01*
X11940418Y-9263482D01*
X11929500Y-9338418D01*
X11929500Y-9681582D01*
X11940418Y-9756518D01*
X11940418Y-9756519D01*
X11940419Y-9756521D01*
X11996921Y-9872099D01*
X11996923Y-9872102D01*
X12086181Y-9961360D01*
X12119666Y-10022683D01*
X12122500Y-10049041D01*
X12122500Y-10145580D01*
X12102815Y-10212619D01*
X12096876Y-10221066D01*
X12019139Y-10322374D01*
X12019138Y-10322376D01*
X11963671Y-10456287D01*
X11963670Y-10456291D01*
X11944750Y-10599999D01*
X11944750Y-10600000D01*
X11963670Y-10743708D01*
X11963671Y-10743712D01*
X12019137Y-10877622D01*
X12019138Y-10877624D01*
X12019139Y-10877625D01*
X12107379Y-10992621D01*
X12222375Y-11080861D01*
X12356291Y-11136330D01*
X12482447Y-11152939D01*
X12499999Y-11155250D01*
X12500000Y-11155250D01*
X12500001Y-11155250D01*
X12517553Y-11152939D01*
X12643709Y-11136330D01*
X12777625Y-11080861D01*
X12892621Y-10992621D01*
X12980861Y-10877625D01*
X13036330Y-10743709D01*
X13055250Y-10600000D01*
X13036330Y-10456291D01*
X12980861Y-10322375D01*
X12921766Y-10245361D01*
X12903124Y-10221066D01*
X12877930Y-10155897D01*
X12877500Y-10145580D01*
X12877500Y-10049041D01*
X12897185Y-9982002D01*
X12913819Y-9961360D01*
X13003076Y-9872102D01*
X13003078Y-9872099D01*
X13031329Y-9814310D01*
X13059582Y-9756518D01*
X13070500Y-9681582D01*
X13070500Y-9338418D01*
X13059582Y-9263482D01*
X13057222Y-9258656D01*
X13003078Y-9147900D01*
X13003076Y-9147897D01*
X12942860Y-9087681D01*
X12909375Y-9026358D01*
X12914359Y-8956666D01*
X12942860Y-8912319D01*
X13003076Y-8852102D01*
X13003078Y-8852099D01*
X13056286Y-8743260D01*
X13059582Y-8736518D01*
X13070500Y-8661582D01*
X13070500Y-8318418D01*
X13059582Y-8243482D01*
X13057222Y-8238656D01*
X13003078Y-8127900D01*
X13003076Y-8127897D01*
X12912105Y-8036926D01*
X12912103Y-8036925D01*
X12912102Y-8036924D01*
X12883537Y-8022959D01*
X12831956Y-7975831D01*
X12814000Y-7911560D01*
X12814000Y-7669440D01*
X12833685Y-7602401D01*
X12838733Y-7595129D01*
X12841468Y-7591474D01*
X12841472Y-7591472D01*
X12922336Y-7483450D01*
X12969491Y-7357022D01*
X12975209Y-7303838D01*
X12975499Y-7301144D01*
X12975500Y-7301129D01*
X12975500Y-6698870D01*
X12975499Y-6698855D01*
X12970850Y-6655620D01*
X12969491Y-6642978D01*
X12959435Y-6616017D01*
X12922337Y-6516552D01*
X12922335Y-6516549D01*
X12841472Y-6408528D01*
X12733450Y-6327664D01*
X12733447Y-6327662D01*
X12607024Y-6280509D01*
X12551144Y-6274500D01*
X12551130Y-6274500D01*
X12023870Y-6274500D01*
X12023855Y-6274500D01*
X11967975Y-6280509D01*
X11841552Y-6327662D01*
X11841549Y-6327664D01*
X11733528Y-6408528D01*
X11652664Y-6516549D01*
X11652662Y-6516552D01*
X11616182Y-6614361D01*
X11574311Y-6670295D01*
X11508846Y-6694712D01*
X11440573Y-6679860D01*
X11391168Y-6630455D01*
X11383818Y-6614361D01*
X11347337Y-6516552D01*
X11347335Y-6516549D01*
X11266472Y-6408528D01*
X11158450Y-6327664D01*
X11158447Y-6327662D01*
X11032024Y-6280509D01*
X10976144Y-6274500D01*
X10976130Y-6274500D01*
X10448870Y-6274500D01*
X10448855Y-6274500D01*
X10392975Y-6280509D01*
X10266552Y-6327662D01*
X10266549Y-6327664D01*
X10158528Y-6408528D01*
X10077664Y-6516549D01*
X10077662Y-6516552D01*
X10030509Y-6642975D01*
X10024500Y-6698855D01*
X4500000Y-6698855D01*
X4500000Y-1903388D01*
X9522500Y-1903388D01*
X9522500Y-2096611D01*
X9552725Y-2287441D01*
X9612429Y-2471194D01*
X9700147Y-2643349D01*
X9762246Y-2728822D01*
X9813715Y-2799663D01*
X9950337Y-2936285D01*
X10106650Y-3049852D01*
X10278805Y-3137570D01*
X10370681Y-3167422D01*
X10462560Y-3197275D01*
X10550943Y-3211273D01*
X10653389Y-3227500D01*
X10653394Y-3227500D01*
X10846611Y-3227500D01*
X10939123Y-3212846D01*
X11037440Y-3197275D01*
X11221197Y-3137569D01*
X11393350Y-3049852D01*
X11549663Y-2936285D01*
X11686285Y-2799663D01*
X11799852Y-2643350D01*
X11887569Y-2471197D01*
X11947275Y-2287440D01*
X11962846Y-2189123D01*
X11977500Y-2096611D01*
X11977500Y-1903388D01*
X11957629Y-1777931D01*
X11947275Y-1712560D01*
X11903405Y-1577542D01*
X11887570Y-1528805D01*
X11799852Y-1356650D01*
X11686284Y-1200336D01*
X11549663Y-1063715D01*
X11393349Y-950147D01*
X11221194Y-862429D01*
X11037441Y-802725D01*
X10846611Y-772500D01*
X10846606Y-772500D01*
X10653394Y-772500D01*
X10653389Y-772500D01*
X10462558Y-802725D01*
X10278805Y-862429D01*
X10106650Y-950147D01*
X9950336Y-1063715D01*
X9813715Y-1200336D01*
X9700147Y-1356650D01*
X9612429Y-1528805D01*
X9552725Y-1712558D01*
X9522500Y-1903388D01*
X4500000Y-1903388D01*
X4500000Y-1500000D01*
X850000Y-1500000D01*
X-850000Y-1500000D01*
X-4500000Y-1500000D01*
X-4500000Y-5150000D01*
X-4500000Y-6850000D01*
X-4500000Y-10500000D01*
X-850000Y-10500000D01*
X-569500Y-10500000D01*
X-502461Y-10519685D01*
X-456706Y-10572489D01*
X-445500Y-10624000D01*
X-445500Y-14357703D01*
X-447883Y-14381895D01*
X-460500Y-14445323D01*
X-460500Y-14445326D01*
X-460500Y-15154674D01*
X-460500Y-15154676D01*
X-460501Y-15154676D01*
X-447883Y-15218104D01*
X-445500Y-15242296D01*
X-445500Y-16880664D01*
X-465185Y-16947703D01*
X-517989Y-16993458D01*
X-587147Y-17003402D01*
X-650703Y-16974377D01*
X-657181Y-16968345D01*
X-688190Y-16937336D01*
X-803627Y-16880903D01*
X-803630Y-16880901D01*
X-850000Y-16874145D01*
X-850000Y-17516000D01*
X-869685Y-17583039D01*
X-922489Y-17628794D01*
X-974000Y-17640000D01*
X-1652253Y-17640000D01*
X-1702004Y-17667166D01*
X-1728362Y-17670000D01*
X-2376000Y-17670000D01*
X-2443039Y-17650315D01*
X-2488794Y-17597511D01*
X-2500000Y-17546000D01*
X-2500000Y-16897809D01*
X-2000000Y-16897809D01*
X-2000000Y-17170000D01*
X-1707747Y-17170000D01*
X-1657996Y-17142834D01*
X-1631638Y-17140000D01*
X-1350000Y-17140000D01*
X-1350000Y-16874147D01*
X-1396375Y-16880903D01*
X-1511809Y-16937335D01*
X-1603785Y-17029311D01*
X-1665109Y-17062795D01*
X-1734800Y-17057811D01*
X-1779147Y-17029310D01*
X-1847902Y-16960555D01*
X-1847907Y-16960551D01*
X-1957982Y-16904465D01*
X-2000000Y-16897809D01*
X-2500000Y-16897809D01*
X-2542016Y-16904463D01*
X-2652094Y-16960551D01*
X-2652099Y-16960555D01*
X-2739445Y-17047901D01*
X-2739450Y-17047908D01*
X-2797908Y-17162636D01*
X-2845883Y-17213432D01*
X-2913704Y-17230226D01*
X-2979839Y-17207688D01*
X-3007659Y-17180651D01*
X-3021145Y-17162636D01*
X-3060313Y-17110313D01*
X-3148701Y-17044147D01*
X-3169772Y-17028373D01*
X-3169774Y-17028372D01*
X-3297886Y-16980588D01*
X-3297888Y-16980587D01*
X-3297890Y-16980587D01*
X-3354507Y-16974500D01*
X-3895482Y-16974500D01*
X-3895491Y-16974501D01*
X-3952115Y-16980587D01*
X-4080227Y-17028372D01*
X-4189687Y-17110313D01*
X-4271628Y-17219772D01*
X-4284086Y-17253174D01*
X-4325959Y-17309107D01*
X-4391424Y-17333522D01*
X-4459696Y-17318669D01*
X-4509101Y-17269262D01*
X-4516449Y-17253170D01*
X-4528813Y-17220020D01*
X-4528816Y-17220015D01*
X-4610671Y-17110670D01*
X-4720016Y-17028815D01*
X-4720017Y-17028814D01*
X-4847990Y-16981083D01*
X-4904572Y-16975000D01*
X-4925000Y-16975000D01*
X-4925000Y-18424999D01*
X-4904567Y-18424999D01*
X-4904561Y-18424998D01*
X-4847993Y-18418918D01*
X-4720019Y-18371186D01*
X-4720016Y-18371184D01*
X-4610671Y-18289329D01*
X-4528816Y-18179984D01*
X-4528815Y-18179983D01*
X-4516450Y-18146830D01*
X-4474580Y-18090895D01*
X-4409116Y-18066477D01*
X-4340842Y-18081328D01*
X-4291436Y-18130732D01*
X-4284086Y-18146826D01*
X-4273456Y-18175326D01*
X-4271628Y-18180226D01*
X-4189687Y-18289687D01*
X-4149193Y-18320000D01*
X-4080817Y-18371186D01*
X-4080226Y-18371628D01*
X-3952114Y-18419412D01*
X-3895485Y-18425500D01*
X-3484728Y-18425499D01*
X-3417689Y-18445183D01*
X-3397047Y-18461818D01*
X-3247075Y-18611790D01*
X-3176790Y-18682075D01*
X-3111999Y-18719482D01*
X-3063784Y-18770049D01*
X-3050000Y-18826869D01*
X-3050000Y-19496000D01*
X-3069685Y-19563039D01*
X-3122489Y-19608794D01*
X-3174000Y-19620000D01*
X-4947438Y-19620000D01*
X-4945536Y-19632016D01*
X-4945536Y-19632017D01*
X-4908199Y-19705294D01*
X-4895303Y-19773963D01*
X-4921579Y-19838704D01*
X-4978686Y-19878961D01*
X-5048491Y-19881953D01*
X-5094171Y-19859964D01*
X-5147374Y-19819139D01*
X-5147377Y-19819138D01*
X-5281288Y-19763671D01*
X-5281290Y-19763670D01*
X-5281291Y-19763670D01*
X-5353146Y-19754210D01*
X-5424999Y-19744750D01*
X-5425001Y-19744750D01*
X-5568709Y-19763670D01*
X-5568713Y-19763671D01*
X-5702623Y-19819137D01*
X-5732929Y-19842392D01*
X-5817621Y-19907379D01*
X-5817623Y-19907380D01*
X-5817624Y-19907382D01*
X-5826052Y-19918365D01*
X-5882481Y-19959565D01*
X-5952228Y-19963717D01*
X-6013146Y-19929502D01*
X-6034910Y-19899166D01*
X-6035552Y-19897907D01*
X-6035556Y-19897901D01*
X-6122902Y-19810555D01*
X-6122907Y-19810551D01*
X-6232982Y-19754465D01*
X-6275000Y-19747809D01*
X-6275000Y-20396000D01*
X-6294685Y-20463039D01*
X-6347489Y-20508794D01*
X-6399000Y-20520000D01*
X-8172438Y-20520000D01*
X-8170536Y-20532016D01*
X-8114448Y-20642093D01*
X-8108710Y-20649992D01*
X-8111771Y-20652215D01*
X-8087239Y-20697142D01*
X-8092223Y-20766834D01*
X-8134095Y-20822767D01*
X-8199559Y-20847184D01*
X-8208405Y-20847500D01*
X-8245581Y-20847500D01*
X-8312620Y-20827815D01*
X-8321053Y-20821886D01*
X-8422375Y-20744139D01*
X-8422376Y-20744138D01*
X-8422378Y-20744137D01*
X-8556288Y-20688671D01*
X-8556290Y-20688670D01*
X-8556291Y-20688670D01*
X-8659181Y-20675124D01*
X-8699999Y-20669750D01*
X-8700001Y-20669750D01*
X-8843709Y-20688670D01*
X-8843713Y-20688671D01*
X-8977623Y-20744137D01*
X-9092621Y-20832379D01*
X-9180863Y-20947377D01*
X-9236329Y-21081287D01*
X-9236330Y-21081291D01*
X-9255250Y-21225000D01*
X-9241680Y-21328076D01*
X-9236330Y-21368708D01*
X-9236329Y-21368712D01*
X-9180862Y-21502623D01*
X-9180861Y-21502625D01*
X-9103125Y-21603933D01*
X-9077930Y-21669100D01*
X-9077500Y-21679418D01*
X-9077500Y-21850959D01*
X-9097185Y-21917998D01*
X-9113819Y-21938640D01*
X-9163077Y-21987897D01*
X-9163079Y-21987900D01*
X-9219581Y-22103478D01*
X-9219582Y-22103480D01*
X-9219582Y-22103482D01*
X-9230500Y-22178418D01*
X-9230500Y-22621582D01*
X-9219582Y-22696518D01*
X-9219582Y-22696519D01*
X-9219581Y-22696521D01*
X-9163079Y-22812099D01*
X-9163077Y-22812102D01*
X-9123820Y-22851358D01*
X-9090334Y-22912681D01*
X-9087500Y-22939040D01*
X-9087500Y-23060959D01*
X-9107185Y-23127998D01*
X-9123819Y-23148640D01*
X-9163077Y-23187897D01*
X-9163079Y-23187900D01*
X-9219581Y-23303478D01*
X-9219582Y-23303480D01*
X-9219582Y-23303482D01*
X-9230500Y-23378418D01*
X-9230500Y-23821582D01*
X-9219582Y-23896518D01*
X-9219582Y-23896519D01*
X-9219581Y-23896521D01*
X-9163079Y-24012099D01*
X-9163077Y-24012102D01*
X-9123820Y-24051358D01*
X-9090334Y-24112681D01*
X-9087500Y-24139040D01*
X-9087500Y-24857959D01*
X-9107185Y-24924998D01*
X-9159989Y-24970753D01*
X-9229147Y-24980697D01*
X-9292703Y-24951672D01*
X-9299181Y-24945640D01*
X-9347898Y-24896923D01*
X-9347901Y-24896921D01*
X-9463479Y-24840419D01*
X-9463481Y-24840418D01*
X-9463482Y-24840418D01*
X-9538418Y-24829500D01*
X-9881582Y-24829500D01*
X-9956518Y-24840418D01*
X-9956520Y-24840418D01*
X-9956522Y-24840419D01*
X-10072100Y-24896921D01*
X-10072103Y-24896923D01*
X-10163077Y-24987897D01*
X-10163079Y-24987900D01*
X-10223812Y-25112133D01*
X-10226408Y-25110864D01*
X-10256513Y-25156265D01*
X-10320478Y-25184376D01*
X-10389487Y-25173443D01*
X-10434738Y-25136885D01*
X-10457379Y-25107379D01*
X-10572375Y-25019139D01*
X-10572376Y-25019138D01*
X-10572378Y-25019137D01*
X-10706288Y-24963671D01*
X-10706290Y-24963670D01*
X-10706291Y-24963670D01*
X-10810123Y-24950000D01*
X-10849999Y-24944750D01*
X-10850001Y-24944750D01*
X-10993709Y-24963670D01*
X-10993713Y-24963671D01*
X-11127623Y-25019137D01*
X-11242621Y-25107379D01*
X-11330863Y-25222377D01*
X-11386329Y-25356287D01*
X-11386330Y-25356291D01*
X-11405250Y-25499999D01*
X-11405250Y-25500000D01*
X-11400297Y-25537622D01*
X-11411062Y-25606658D01*
X-11435555Y-25641489D01*
X-12943744Y-27149681D01*
X-13005067Y-27183166D01*
X-13031425Y-27186000D01*
X-13596493Y-27186000D01*
X-13663532Y-27166315D01*
X-13709287Y-27113511D01*
X-13711053Y-27109455D01*
X-13714032Y-27102265D01*
X-13714034Y-27102262D01*
X-13714034Y-27102260D01*
X-13736333Y-27068887D01*
X-13757209Y-27002214D01*
X-13738725Y-26934834D01*
X-13736372Y-26931170D01*
X-13714034Y-26897740D01*
X-13699500Y-26824674D01*
X-13699500Y-26175326D01*
X-13699500Y-26175323D01*
X-13699501Y-26175321D01*
X-13714033Y-26102264D01*
X-13714034Y-26102263D01*
X-13714034Y-26102260D01*
X-13715452Y-26100138D01*
X-13736632Y-26068438D01*
X-13757509Y-26001761D01*
X-13739024Y-25934381D01*
X-13736631Y-25930658D01*
X-13714505Y-25897544D01*
X-13714504Y-25897540D01*
X-13700001Y-25824628D01*
X-13700000Y-25824626D01*
X-13700000Y-25750000D01*
X-15750000Y-25750000D01*
X-15750000Y-25824628D01*
X-15735497Y-25897540D01*
X-15735495Y-25897546D01*
X-15713369Y-25930660D01*
X-15692492Y-25997337D01*
X-15710977Y-26064717D01*
X-15713368Y-26068437D01*
X-15735966Y-26102257D01*
X-15735968Y-26102263D01*
X-15740031Y-26122692D01*
X-15772416Y-26184603D01*
X-15833132Y-26219177D01*
X-15861648Y-26222500D01*
X-15995581Y-26222500D01*
X-16062620Y-26202815D01*
X-16071053Y-26196886D01*
X-16172375Y-26119139D01*
X-16172376Y-26119138D01*
X-16172378Y-26119137D01*
X-16306288Y-26063671D01*
X-16306290Y-26063670D01*
X-16306291Y-26063670D01*
X-16378905Y-26054110D01*
X-16449999Y-26044750D01*
X-16450001Y-26044750D01*
X-16593709Y-26063670D01*
X-16593713Y-26063671D01*
X-16727623Y-26119137D01*
X-16842621Y-26207379D01*
X-16930863Y-26322377D01*
X-16986329Y-26456287D01*
X-16986330Y-26456291D01*
X-17002340Y-26577900D01*
X-17005250Y-26600000D01*
X-19499500Y-26600000D01*
X-19499500Y-25175371D01*
X-15750000Y-25175371D01*
X-15750000Y-25250000D01*
X-14975000Y-25250000D01*
X-14475000Y-25250000D01*
X-13700000Y-25250000D01*
X-13700000Y-25175373D01*
X-13700001Y-25175371D01*
X-13714504Y-25102459D01*
X-13714506Y-25102455D01*
X-13769761Y-25019760D01*
X-13852456Y-24964505D01*
X-13852460Y-24964503D01*
X-13925373Y-24950000D01*
X-14475000Y-24950000D01*
X-14475000Y-25250000D01*
X-14975000Y-25250000D01*
X-14975000Y-24950000D01*
X-15524627Y-24950000D01*
X-15597541Y-24964503D01*
X-15597545Y-24964505D01*
X-15680240Y-25019760D01*
X-15735495Y-25102455D01*
X-15735497Y-25102459D01*
X-15750000Y-25175371D01*
X-19499500Y-25175371D01*
X-19499500Y-25174500D01*
X-19479815Y-25107461D01*
X-19427011Y-25061706D01*
X-19375500Y-25050500D01*
X-17675324Y-25050500D01*
X-17675323Y-25050499D01*
X-17602260Y-25035966D01*
X-17519399Y-24980601D01*
X-17464034Y-24897740D01*
X-17449500Y-24824674D01*
X-17449500Y-23575326D01*
X-17449500Y-23575323D01*
X-17449501Y-23575321D01*
X-17464033Y-23502264D01*
X-17464034Y-23502260D01*
X-17469052Y-23494750D01*
X-17519399Y-23419399D01*
X-17602260Y-23364034D01*
X-17602261Y-23364033D01*
X-17602265Y-23364032D01*
X-17675323Y-23349500D01*
X-17675326Y-23349500D01*
X-19375500Y-23349500D01*
X-19442539Y-23329815D01*
X-19488294Y-23277011D01*
X-19499500Y-23225500D01*
X-19499500Y-20774500D01*
X-19479815Y-20707461D01*
X-19427011Y-20661706D01*
X-19375500Y-20650500D01*
X-17675324Y-20650500D01*
X-17675323Y-20650499D01*
X-17602260Y-20635966D01*
X-17519399Y-20580601D01*
X-17464034Y-20497740D01*
X-17449500Y-20424674D01*
X-17449500Y-20019999D01*
X-8172439Y-20019999D01*
X-8172439Y-20020000D01*
X-7875000Y-20020000D01*
X-7875000Y-19747809D01*
X-7375000Y-19747809D01*
X-7375000Y-20020000D01*
X-6775000Y-20020000D01*
X-6775000Y-19747809D01*
X-6817016Y-19754463D01*
X-6927094Y-19810551D01*
X-6927099Y-19810555D01*
X-6987319Y-19870776D01*
X-7048642Y-19904261D01*
X-7118334Y-19899277D01*
X-7162681Y-19870776D01*
X-7222902Y-19810555D01*
X-7222907Y-19810551D01*
X-7332982Y-19754465D01*
X-7375000Y-19747809D01*
X-7875000Y-19747809D01*
X-7917016Y-19754463D01*
X-8027094Y-19810551D01*
X-8027099Y-19810555D01*
X-8114445Y-19897901D01*
X-8114450Y-19897908D01*
X-8170534Y-20007977D01*
X-8170535Y-20007980D01*
X-8172439Y-20019999D01*
X-17449500Y-20019999D01*
X-17449500Y-19175326D01*
X-17449500Y-19175323D01*
X-17449501Y-19175321D01*
X-17460505Y-19119999D01*
X-4947439Y-19119999D01*
X-4947439Y-19120000D01*
X-4650000Y-19120000D01*
X-4650000Y-18847809D01*
X-4150000Y-18847809D01*
X-4150000Y-19120000D01*
X-3550000Y-19120000D01*
X-3550000Y-18847809D01*
X-3592016Y-18854463D01*
X-3702094Y-18910551D01*
X-3702099Y-18910555D01*
X-3762319Y-18970776D01*
X-3823642Y-19004261D01*
X-3893334Y-18999277D01*
X-3937681Y-18970776D01*
X-3997902Y-18910555D01*
X-3997907Y-18910551D01*
X-4107982Y-18854465D01*
X-4150000Y-18847809D01*
X-4650000Y-18847809D01*
X-4692016Y-18854463D01*
X-4802094Y-18910551D01*
X-4802099Y-18910555D01*
X-4889445Y-18997901D01*
X-4889450Y-18997908D01*
X-4945534Y-19107977D01*
X-4945535Y-19107980D01*
X-4947439Y-19119999D01*
X-17460505Y-19119999D01*
X-17464033Y-19102264D01*
X-17464034Y-19102260D01*
X-17477800Y-19081657D01*
X-17519399Y-19019399D01*
X-17577468Y-18980599D01*
X-17602261Y-18964033D01*
X-17602265Y-18964032D01*
X-17675323Y-18949500D01*
X-17675326Y-18949500D01*
X-19375500Y-18949500D01*
X-19442539Y-18929815D01*
X-19488294Y-18877011D01*
X-19499500Y-18825500D01*
X-19499500Y-16524999D01*
X-17142750Y-16524999D01*
X-17142750Y-16525000D01*
X-17123830Y-16668708D01*
X-17123829Y-16668712D01*
X-17068363Y-16802622D01*
X-17068362Y-16802624D01*
X-17068361Y-16802625D01*
X-16980121Y-16917621D01*
X-16865125Y-17005861D01*
X-16865124Y-17005861D01*
X-16865123Y-17005862D01*
X-16833069Y-17019139D01*
X-16731209Y-17061330D01*
X-16604220Y-17078048D01*
X-16587501Y-17080250D01*
X-16587500Y-17080250D01*
X-16587499Y-17080250D01*
X-16572523Y-17078278D01*
X-16443791Y-17061330D01*
X-16309875Y-17005861D01*
X-16208566Y-16928122D01*
X-16143399Y-16902930D01*
X-16133081Y-16902500D01*
X-15834478Y-16902500D01*
X-15767439Y-16922185D01*
X-15721684Y-16974989D01*
X-15711740Y-17044147D01*
X-15731375Y-17095388D01*
X-15734167Y-17099566D01*
X-15735968Y-17102262D01*
X-15735968Y-17102264D01*
X-15750500Y-17175321D01*
X-15750500Y-17824678D01*
X-15735968Y-17897735D01*
X-15735967Y-17897739D01*
X-15713669Y-17931110D01*
X-15692792Y-17997788D01*
X-15711277Y-18065168D01*
X-15713669Y-18068890D01*
X-15735967Y-18102260D01*
X-15735968Y-18102264D01*
X-15750500Y-18175321D01*
X-15750500Y-18824678D01*
X-15735968Y-18897735D01*
X-15735967Y-18897739D01*
X-15722771Y-18917488D01*
X-15680601Y-18980601D01*
X-15597740Y-19035966D01*
X-15597736Y-19035967D01*
X-15524679Y-19050499D01*
X-15524676Y-19050500D01*
X-15524674Y-19050500D01*
X-13925324Y-19050500D01*
X-13925323Y-19050499D01*
X-13852260Y-19035966D01*
X-13769399Y-18980601D01*
X-13727228Y-18917486D01*
X-13673619Y-18872682D01*
X-13604294Y-18863973D01*
X-13548640Y-18888002D01*
X-13542622Y-18892620D01*
X-13542621Y-18892621D01*
X-13519254Y-18910551D01*
X-13427627Y-18980860D01*
X-13427626Y-18980860D01*
X-13427625Y-18980861D01*
X-13293709Y-19036330D01*
X-13166720Y-19053048D01*
X-13150001Y-19055250D01*
X-13150000Y-19055250D01*
X-13149999Y-19055250D01*
X-13135023Y-19053278D01*
X-13006291Y-19036330D01*
X-12872375Y-18980861D01*
X-12757379Y-18892621D01*
X-12669139Y-18777625D01*
X-12613670Y-18643709D01*
X-12594750Y-18500000D01*
X-12613670Y-18356291D01*
X-12669139Y-18222375D01*
X-12757379Y-18107379D01*
X-12769114Y-18098374D01*
X-12810315Y-18041950D01*
X-12813086Y-17995439D01*
X-5874999Y-17995439D01*
X-5868919Y-18052007D01*
X-5821187Y-18179981D01*
X-5821185Y-18179984D01*
X-5739330Y-18289329D01*
X-5629985Y-18371184D01*
X-5629984Y-18371185D01*
X-5502009Y-18418917D01*
X-5502005Y-18418918D01*
X-5445446Y-18424999D01*
X-5425000Y-18424998D01*
X-5425000Y-17950000D01*
X-5874999Y-17950000D01*
X-5874999Y-17995439D01*
X-12813086Y-17995439D01*
X-12814471Y-17972204D01*
X-12780260Y-17911283D01*
X-12769124Y-17901632D01*
X-12757379Y-17892621D01*
X-12669139Y-17777625D01*
X-12613670Y-17643709D01*
X-12594750Y-17500000D01*
X-12607314Y-17404571D01*
X-5875000Y-17404571D01*
X-5875000Y-17450000D01*
X-5425000Y-17450000D01*
X-5425000Y-16974999D01*
X-5445421Y-16975000D01*
X-5445440Y-16975001D01*
X-5502007Y-16981081D01*
X-5629982Y-17028813D01*
X-5629985Y-17028815D01*
X-5739330Y-17110670D01*
X-5821185Y-17220015D01*
X-5821186Y-17220016D01*
X-5868917Y-17347989D01*
X-5875000Y-17404571D01*
X-12607314Y-17404571D01*
X-12613670Y-17356291D01*
X-12669139Y-17222375D01*
X-12757379Y-17107379D01*
X-12872375Y-17019139D01*
X-12872376Y-17019138D01*
X-12872378Y-17019137D01*
X-13006288Y-16963671D01*
X-13006290Y-16963670D01*
X-13006291Y-16963670D01*
X-13078146Y-16954210D01*
X-13149999Y-16944750D01*
X-13150001Y-16944750D01*
X-13293709Y-16963670D01*
X-13293713Y-16963671D01*
X-13427623Y-17019137D01*
X-13482608Y-17061329D01*
X-13542621Y-17107379D01*
X-13542622Y-17107379D01*
X-13548640Y-17111998D01*
X-13613810Y-17137192D01*
X-13682254Y-17123154D01*
X-13727228Y-17082514D01*
X-13736332Y-17068888D01*
X-13757209Y-17002214D01*
X-13738725Y-16934834D01*
X-13736372Y-16931170D01*
X-13714034Y-16897740D01*
X-13699500Y-16824674D01*
X-13699500Y-16175326D01*
X-13699500Y-16175323D01*
X-13699501Y-16175321D01*
X-13714033Y-16102264D01*
X-13714034Y-16102263D01*
X-13714034Y-16102260D01*
X-13720631Y-16092386D01*
X-13736632Y-16068438D01*
X-13757509Y-16001761D01*
X-13739024Y-15934381D01*
X-13736631Y-15930658D01*
X-13714505Y-15897544D01*
X-13714504Y-15897540D01*
X-13700001Y-15824628D01*
X-13700000Y-15824626D01*
X-13700000Y-15750000D01*
X-15750000Y-15750000D01*
X-15750000Y-15824628D01*
X-15735497Y-15897540D01*
X-15735495Y-15897546D01*
X-15713369Y-15930660D01*
X-15692492Y-15997337D01*
X-15710977Y-16064717D01*
X-15713367Y-16068435D01*
X-15729369Y-16092386D01*
X-15782979Y-16137194D01*
X-15832474Y-16147500D01*
X-16133081Y-16147500D01*
X-16200120Y-16127815D01*
X-16208553Y-16121886D01*
X-16309875Y-16044139D01*
X-16309876Y-16044138D01*
X-16309878Y-16044137D01*
X-16443788Y-15988671D01*
X-16443790Y-15988670D01*
X-16443791Y-15988670D01*
X-16515646Y-15979210D01*
X-16587499Y-15969750D01*
X-16587501Y-15969750D01*
X-16731209Y-15988670D01*
X-16731213Y-15988671D01*
X-16865123Y-16044137D01*
X-16980121Y-16132379D01*
X-17068363Y-16247377D01*
X-17123829Y-16381287D01*
X-17123830Y-16381291D01*
X-17142750Y-16524999D01*
X-19499500Y-16524999D01*
X-19499500Y-15175371D01*
X-15750000Y-15175371D01*
X-15750000Y-15250000D01*
X-14975000Y-15250000D01*
X-14475000Y-15250000D01*
X-13700000Y-15250000D01*
X-13700000Y-15175373D01*
X-13700001Y-15175371D01*
X-13714504Y-15102459D01*
X-13714506Y-15102455D01*
X-13769761Y-15019760D01*
X-13852456Y-14964505D01*
X-13852460Y-14964503D01*
X-13925373Y-14950000D01*
X-14475000Y-14950000D01*
X-14475000Y-15250000D01*
X-14975000Y-15250000D01*
X-14975000Y-14950000D01*
X-15524627Y-14950000D01*
X-15597541Y-14964503D01*
X-15597545Y-14964505D01*
X-15680240Y-15019760D01*
X-15735495Y-15102455D01*
X-15735497Y-15102459D01*
X-15750000Y-15175371D01*
X-19499500Y-15175371D01*
X-19499500Y-15174500D01*
X-19479815Y-15107461D01*
X-19427011Y-15061706D01*
X-19375500Y-15050500D01*
X-17675324Y-15050500D01*
X-17675323Y-15050499D01*
X-17602260Y-15035966D01*
X-17519399Y-14980601D01*
X-17464034Y-14897740D01*
X-17449500Y-14824674D01*
X-17449500Y-14403388D01*
X-11477500Y-14403388D01*
X-11477500Y-14596611D01*
X-11447275Y-14787441D01*
X-11387571Y-14971194D01*
X-11299853Y-15143349D01*
X-11186285Y-15299663D01*
X-11049664Y-15436284D01*
X-10893350Y-15549852D01*
X-10721195Y-15637570D01*
X-10629319Y-15667422D01*
X-10537440Y-15697275D01*
X-10449057Y-15711273D01*
X-10346611Y-15727500D01*
X-10346606Y-15727500D01*
X-10153389Y-15727500D01*
X-10060877Y-15712846D01*
X-9962560Y-15697275D01*
X-9778803Y-15637569D01*
X-9606650Y-15549852D01*
X-9450337Y-15436285D01*
X-9313715Y-15299663D01*
X-9200148Y-15143350D01*
X-9112431Y-14971197D01*
X-9052725Y-14787440D01*
X-9031521Y-14653563D01*
X-9022500Y-14596611D01*
X-9022500Y-14403388D01*
X-9040316Y-14290905D01*
X-9052725Y-14212560D01*
X-9112431Y-14028803D01*
X-9200148Y-13856650D01*
X-9313715Y-13700337D01*
X-9450337Y-13563715D01*
X-9513010Y-13518181D01*
X-9606651Y-13450147D01*
X-9778806Y-13362429D01*
X-9962559Y-13302725D01*
X-10153389Y-13272500D01*
X-10153394Y-13272500D01*
X-10346606Y-13272500D01*
X-10346611Y-13272500D01*
X-10537442Y-13302725D01*
X-10721195Y-13362429D01*
X-10893350Y-13450147D01*
X-11049664Y-13563715D01*
X-11186285Y-13700336D01*
X-11299853Y-13856650D01*
X-11387571Y-14028805D01*
X-11447275Y-14212558D01*
X-11477500Y-14403388D01*
X-17449500Y-14403388D01*
X-17449500Y-13575326D01*
X-17449500Y-13575323D01*
X-17449501Y-13575321D01*
X-17464033Y-13502264D01*
X-17464034Y-13502260D01*
X-17471026Y-13491796D01*
X-17519399Y-13419399D01*
X-17602260Y-13364034D01*
X-17602261Y-13364033D01*
X-17602265Y-13364032D01*
X-17675323Y-13349500D01*
X-17675326Y-13349500D01*
X-19375500Y-13349500D01*
X-19442539Y-13329815D01*
X-19488294Y-13277011D01*
X-19499500Y-13225500D01*
X-19499500Y-11700000D01*
X-17655250Y-11700000D01*
X-17644663Y-11780418D01*
X-17636330Y-11843708D01*
X-17636329Y-11843712D01*
X-17580863Y-11977622D01*
X-17580862Y-11977624D01*
X-17580861Y-11977625D01*
X-17492621Y-12092621D01*
X-17377625Y-12180861D01*
X-17377624Y-12180861D01*
X-17377623Y-12180862D01*
X-17359774Y-12188255D01*
X-17243709Y-12236330D01*
X-17116720Y-12253048D01*
X-17100001Y-12255250D01*
X-17100000Y-12255250D01*
X-17099999Y-12255250D01*
X-17085023Y-12253278D01*
X-16956291Y-12236330D01*
X-16822375Y-12180861D01*
X-16707379Y-12092621D01*
X-16619139Y-11977625D01*
X-16563670Y-11843709D01*
X-16544750Y-11700000D01*
X-16557915Y-11600000D01*
X-11155250Y-11600000D01*
X-11142085Y-11700000D01*
X-11136330Y-11743708D01*
X-11136329Y-11743712D01*
X-11080863Y-11877622D01*
X-11080862Y-11877624D01*
X-11080861Y-11877625D01*
X-10992621Y-11992621D01*
X-10877625Y-12080861D01*
X-10877624Y-12080861D01*
X-10877623Y-12080862D01*
X-10832987Y-12099350D01*
X-10743709Y-12136330D01*
X-10618898Y-12152762D01*
X-10600001Y-12155250D01*
X-10600000Y-12155250D01*
X-10599999Y-12155250D01*
X-10581102Y-12152762D01*
X-10456291Y-12136330D01*
X-10322375Y-12080861D01*
X-10207379Y-11992621D01*
X-10119139Y-11877625D01*
X-10063670Y-11743709D01*
X-10044750Y-11600000D01*
X-10063670Y-11456291D01*
X-10119139Y-11322375D01*
X-10207379Y-11207379D01*
X-10207382Y-11207377D01*
X-10207383Y-11207375D01*
X-10237487Y-11184275D01*
X-10278690Y-11127847D01*
X-10286000Y-11085900D01*
X-10286000Y-10333043D01*
X-10266315Y-10266004D01*
X-10249680Y-10245361D01*
X-10210802Y-10206483D01*
X-10210800Y-10206478D01*
X-10204832Y-10198122D01*
X-10203652Y-10198964D01*
X-10164006Y-10155563D01*
X-10096474Y-10137642D01*
X-10029973Y-10159076D01*
X-9995765Y-10198548D01*
X-9994756Y-10197828D01*
X-9988786Y-10206190D01*
X-9906192Y-10288784D01*
X-9801245Y-10340089D01*
X-9800000Y-10340269D01*
X-9400000Y-10340269D01*
X-9398756Y-10340089D01*
X-9293809Y-10288784D01*
X-9211213Y-10206188D01*
X-9159914Y-10101254D01*
X-9159911Y-10101245D01*
X-9151716Y-10045000D01*
X-9400000Y-10045000D01*
X-9400000Y-10340269D01*
X-9800000Y-10340269D01*
X-9800000Y-9349730D01*
X-9800001Y-9349729D01*
X-9801250Y-9349911D01*
X-9906189Y-9401212D01*
X-9988786Y-9483809D01*
X-9994756Y-9492172D01*
X-9996010Y-9491277D01*
X-10035462Y-9534450D01*
X-10102998Y-9552357D01*
X-10169495Y-9530908D01*
X-10203891Y-9491205D01*
X-10204832Y-9491878D01*
X-10210803Y-9483515D01*
X-10293515Y-9400803D01*
X-10398609Y-9349426D01*
X-10466739Y-9339500D01*
X-10466740Y-9339500D01*
X-10733260Y-9339500D01*
X-10733261Y-9339500D01*
X-10801392Y-9349426D01*
X-10906486Y-9400803D01*
X-10989197Y-9483514D01*
X-11040574Y-9588608D01*
X-11050500Y-9656739D01*
X-11050500Y-10033260D01*
X-11040574Y-10101391D01*
X-10989197Y-10206485D01*
X-10950320Y-10245361D01*
X-10916834Y-10306684D01*
X-10914000Y-10333043D01*
X-10914000Y-11085900D01*
X-10933685Y-11152939D01*
X-10962513Y-11184275D01*
X-10992618Y-11207375D01*
X-11080863Y-11322377D01*
X-11136329Y-11456287D01*
X-11136330Y-11456291D01*
X-11149495Y-11556291D01*
X-11155250Y-11600000D01*
X-16557915Y-11600000D01*
X-16563670Y-11556291D01*
X-16619139Y-11422375D01*
X-16707379Y-11307379D01*
X-16707382Y-11307377D01*
X-16707383Y-11307375D01*
X-16737487Y-11284275D01*
X-16778690Y-11227847D01*
X-16786000Y-11185900D01*
X-16786000Y-10333043D01*
X-16766315Y-10266004D01*
X-16749680Y-10245361D01*
X-16710802Y-10206483D01*
X-16710800Y-10206478D01*
X-16704832Y-10198122D01*
X-16703652Y-10198964D01*
X-16664006Y-10155563D01*
X-16596474Y-10137642D01*
X-16529973Y-10159076D01*
X-16495765Y-10198548D01*
X-16494756Y-10197828D01*
X-16488786Y-10206190D01*
X-16406192Y-10288784D01*
X-16301245Y-10340089D01*
X-16300000Y-10340269D01*
X-15900000Y-10340269D01*
X-15898756Y-10340089D01*
X-15793809Y-10288784D01*
X-15711213Y-10206188D01*
X-15659914Y-10101254D01*
X-15659911Y-10101245D01*
X-15651716Y-10045000D01*
X-15900000Y-10045000D01*
X-15900000Y-10340269D01*
X-16300000Y-10340269D01*
X-16300000Y-9645000D01*
X-15900000Y-9645000D01*
X-15651718Y-9645000D01*
X-15659914Y-9588747D01*
X-15711213Y-9483811D01*
X-15793812Y-9401212D01*
X-15898751Y-9349911D01*
X-15898750Y-9349911D01*
X-15900000Y-9349729D01*
X-15900000Y-9645000D01*
X-16300000Y-9645000D01*
X-16300000Y-9349730D01*
X-16300001Y-9349729D01*
X-16301250Y-9349911D01*
X-16406189Y-9401212D01*
X-16488786Y-9483809D01*
X-16494756Y-9492172D01*
X-16496010Y-9491277D01*
X-16535462Y-9534450D01*
X-16602998Y-9552357D01*
X-16669495Y-9530908D01*
X-16703891Y-9491205D01*
X-16704832Y-9491878D01*
X-16710803Y-9483515D01*
X-16793515Y-9400803D01*
X-16898609Y-9349426D01*
X-16966739Y-9339500D01*
X-16966740Y-9339500D01*
X-17233260Y-9339500D01*
X-17233261Y-9339500D01*
X-17301392Y-9349426D01*
X-17406486Y-9400803D01*
X-17489197Y-9483514D01*
X-17540574Y-9588608D01*
X-17550500Y-9656739D01*
X-17550500Y-10033260D01*
X-17540574Y-10101391D01*
X-17489197Y-10206485D01*
X-17450320Y-10245361D01*
X-17416834Y-10306684D01*
X-17414000Y-10333043D01*
X-17414000Y-11185900D01*
X-17433685Y-11252939D01*
X-17462513Y-11284275D01*
X-17492618Y-11307375D01*
X-17580863Y-11422377D01*
X-17636329Y-11556287D01*
X-17636330Y-11556291D01*
X-17655250Y-11700000D01*
X-19499500Y-11700000D01*
X-19499500Y-6698855D01*
X-17275500Y-6698855D01*
X-17275500Y-7301144D01*
X-17269491Y-7357024D01*
X-17222338Y-7483447D01*
X-17222336Y-7483450D01*
X-17141472Y-7591472D01*
X-17033450Y-7672336D01*
X-17033449Y-7672336D01*
X-17033446Y-7672338D01*
X-17007168Y-7682139D01*
X-16951234Y-7724009D01*
X-16926816Y-7789473D01*
X-16926500Y-7798321D01*
X-16926500Y-8079456D01*
X-16946185Y-8146495D01*
X-16962819Y-8167137D01*
X-16989197Y-8193514D01*
X-17040574Y-8298608D01*
X-17050500Y-8366739D01*
X-17050500Y-8743260D01*
X-17040574Y-8811391D01*
X-16989197Y-8916485D01*
X-16906486Y-8999196D01*
X-16906485Y-8999196D01*
X-16906483Y-8999198D01*
X-16801393Y-9050573D01*
X-16767327Y-9055536D01*
X-16733261Y-9060500D01*
X-16733260Y-9060500D01*
X-16466739Y-9060500D01*
X-16444029Y-9057191D01*
X-16398607Y-9050573D01*
X-16293517Y-8999198D01*
X-16210802Y-8916483D01*
X-16159427Y-8811393D01*
X-16149500Y-8743260D01*
X-16149500Y-8366740D01*
X-16159427Y-8298607D01*
X-16210802Y-8193517D01*
X-16210804Y-8193515D01*
X-16210804Y-8193514D01*
X-16262181Y-8142137D01*
X-16295666Y-8080814D01*
X-16298500Y-8054456D01*
X-16298500Y-7816970D01*
X-16278815Y-7749931D01*
X-16226011Y-7704176D01*
X-16217833Y-7700788D01*
X-16149655Y-7675359D01*
X-16141550Y-7672336D01*
X-16033528Y-7591472D01*
X-15952664Y-7483450D01*
X-15916182Y-7385638D01*
X-15874311Y-7329704D01*
X-15808847Y-7305287D01*
X-15740574Y-7320139D01*
X-15691168Y-7369544D01*
X-15683818Y-7385638D01*
X-15647338Y-7483447D01*
X-15647336Y-7483450D01*
X-15566472Y-7591472D01*
X-15458451Y-7672335D01*
X-15458448Y-7672337D01*
X-15332025Y-7719490D01*
X-15332022Y-7719491D01*
X-15302682Y-7722645D01*
X-15276145Y-7725499D01*
X-15276130Y-7725500D01*
X-15263000Y-7725500D01*
X-15195961Y-7745185D01*
X-15150206Y-7797989D01*
X-15139000Y-7849500D01*
X-15139000Y-7923782D01*
X-15158685Y-7990821D01*
X-15203761Y-8030931D01*
X-15203743Y-8030956D01*
X-15203976Y-8031121D01*
X-15208537Y-8035181D01*
X-15212103Y-8036924D01*
X-15212105Y-8036926D01*
X-15303077Y-8127897D01*
X-15303079Y-8127900D01*
X-15359581Y-8243478D01*
X-15359582Y-8243480D01*
X-15359582Y-8243482D01*
X-15370500Y-8318418D01*
X-15370500Y-8661582D01*
X-15359582Y-8736518D01*
X-15359582Y-8736519D01*
X-15359581Y-8736521D01*
X-15303079Y-8852099D01*
X-15303077Y-8852102D01*
X-15242860Y-8912319D01*
X-15209375Y-8973642D01*
X-15214359Y-9043334D01*
X-15242860Y-9087681D01*
X-15303077Y-9147897D01*
X-15303079Y-9147900D01*
X-15359581Y-9263478D01*
X-15359582Y-9263480D01*
X-15359582Y-9263482D01*
X-15370500Y-9338418D01*
X-15370500Y-9681582D01*
X-15359582Y-9756518D01*
X-15359582Y-9756519D01*
X-15359581Y-9756521D01*
X-15303079Y-9872099D01*
X-15303077Y-9872102D01*
X-15212105Y-9963074D01*
X-15212104Y-9963074D01*
X-15212102Y-9963076D01*
X-15208540Y-9964817D01*
X-15204521Y-9968489D01*
X-15203741Y-9969046D01*
X-15203809Y-9969140D01*
X-15156958Y-10011945D01*
X-15139000Y-10076218D01*
X-15139000Y-10105084D01*
X-15158685Y-10172123D01*
X-15187507Y-10203454D01*
X-15191453Y-10206483D01*
X-15192621Y-10207379D01*
X-15280863Y-10322377D01*
X-15336329Y-10456287D01*
X-15336330Y-10456291D01*
X-15355250Y-10599999D01*
X-15355250Y-10600000D01*
X-15336330Y-10743708D01*
X-15336329Y-10743712D01*
X-15280863Y-10877622D01*
X-15280862Y-10877624D01*
X-15280861Y-10877625D01*
X-15192621Y-10992621D01*
X-15077625Y-11080861D01*
X-14943709Y-11136330D01*
X-14817553Y-11152939D01*
X-14800001Y-11155250D01*
X-14800000Y-11155250D01*
X-14799999Y-11155250D01*
X-14782447Y-11152939D01*
X-14656291Y-11136330D01*
X-14522375Y-11080861D01*
X-14407379Y-10992621D01*
X-14319139Y-10877625D01*
X-14263670Y-10743709D01*
X-14244750Y-10600000D01*
X-14263670Y-10456291D01*
X-14319139Y-10322375D01*
X-14407379Y-10207379D01*
X-14407381Y-10207377D01*
X-14407382Y-10207376D01*
X-14422506Y-10195771D01*
X-14435465Y-10185827D01*
X-14476668Y-10129401D01*
X-14480823Y-10059655D01*
X-14446612Y-9998735D01*
X-14414438Y-9976051D01*
X-14387898Y-9963076D01*
X-14296924Y-9872102D01*
X-14296922Y-9872099D01*
X-14268671Y-9814310D01*
X-14240418Y-9756518D01*
X-14229500Y-9681582D01*
X-14229500Y-9338418D01*
X-14240418Y-9263482D01*
X-14242778Y-9258656D01*
X-14296922Y-9147900D01*
X-14296924Y-9147897D01*
X-14357140Y-9087681D01*
X-14390625Y-9026358D01*
X-14385641Y-8956666D01*
X-14357140Y-8912319D01*
X-14296924Y-8852102D01*
X-14296922Y-8852099D01*
X-14243714Y-8743260D01*
X-14240418Y-8736518D01*
X-14229500Y-8661582D01*
X-14229500Y-8366739D01*
X-10550500Y-8366739D01*
X-10550500Y-8743260D01*
X-10540574Y-8811391D01*
X-10489197Y-8916485D01*
X-10406486Y-8999196D01*
X-10406485Y-8999196D01*
X-10406483Y-8999198D01*
X-10301393Y-9050573D01*
X-10267327Y-9055536D01*
X-10233261Y-9060500D01*
X-10233260Y-9060500D01*
X-9966739Y-9060500D01*
X-9944029Y-9057191D01*
X-9898607Y-9050573D01*
X-9793517Y-8999198D01*
X-9710802Y-8916483D01*
X-9689809Y-8873539D01*
X-9642681Y-8821958D01*
X-9578408Y-8804000D01*
X-9001249Y-8804000D01*
X-8934210Y-8823685D01*
X-8911150Y-8845644D01*
X-8910342Y-8844837D01*
X-8842860Y-8912319D01*
X-8809375Y-8973642D01*
X-8814359Y-9043334D01*
X-8842860Y-9087681D01*
X-8903077Y-9147897D01*
X-8903079Y-9147900D01*
X-8959581Y-9263478D01*
X-8959582Y-9263480D01*
X-8959582Y-9263482D01*
X-8970500Y-9338418D01*
X-8970500Y-9338423D01*
X-8970500Y-9440219D01*
X-8990185Y-9507258D01*
X-9042989Y-9553013D01*
X-9112147Y-9562957D01*
X-9175703Y-9533932D01*
X-9205900Y-9494680D01*
X-9211215Y-9483810D01*
X-9211215Y-9483809D01*
X-9293812Y-9401212D01*
X-9398751Y-9349911D01*
X-9398750Y-9349911D01*
X-9400000Y-9349729D01*
X-9400000Y-9645000D01*
X-9130348Y-9645000D01*
X-9119845Y-9638236D01*
X-9049975Y-9638168D01*
X-8991160Y-9675886D01*
X-8962091Y-9739300D01*
X-8959583Y-9756518D01*
X-8959582Y-9756520D01*
X-8903079Y-9872099D01*
X-8903077Y-9872102D01*
X-8815322Y-9959857D01*
X-8781837Y-10021180D01*
X-8786821Y-10090872D01*
X-8804627Y-10123024D01*
X-8880861Y-10222374D01*
X-8880862Y-10222376D01*
X-8936329Y-10356287D01*
X-8936330Y-10356291D01*
X-8949495Y-10456291D01*
X-8955250Y-10500000D01*
X-8941114Y-10607375D01*
X-8936330Y-10643708D01*
X-8936329Y-10643712D01*
X-8880863Y-10777622D01*
X-8880862Y-10777624D01*
X-8880861Y-10777625D01*
X-8792621Y-10892621D01*
X-8677625Y-10980861D01*
X-8677624Y-10980861D01*
X-8677623Y-10980862D01*
X-8632987Y-10999350D01*
X-8543709Y-11036330D01*
X-8416720Y-11053048D01*
X-8400001Y-11055250D01*
X-8400000Y-11055250D01*
X-8399999Y-11055250D01*
X-8385023Y-11053278D01*
X-8256291Y-11036330D01*
X-8122375Y-10980861D01*
X-8007379Y-10892621D01*
X-7919139Y-10777625D01*
X-7863670Y-10643709D01*
X-7844750Y-10500000D01*
X-7863670Y-10356291D01*
X-7919139Y-10222375D01*
X-7995375Y-10123023D01*
X-8020568Y-10057855D01*
X-8006530Y-9989411D01*
X-7984682Y-9959859D01*
X-7896924Y-9872102D01*
X-7896924Y-9872100D01*
X-7896922Y-9872099D01*
X-7868671Y-9814310D01*
X-7840418Y-9756518D01*
X-7829500Y-9681582D01*
X-7829500Y-9338418D01*
X-7840418Y-9263482D01*
X-7842778Y-9258656D01*
X-7896922Y-9147900D01*
X-7896924Y-9147897D01*
X-7957140Y-9087681D01*
X-7990625Y-9026358D01*
X-7985641Y-8956666D01*
X-7957140Y-8912319D01*
X-7896924Y-8852102D01*
X-7896922Y-8852099D01*
X-7843714Y-8743260D01*
X-7840418Y-8736518D01*
X-7829500Y-8661582D01*
X-7829500Y-8318418D01*
X-7840418Y-8243482D01*
X-7842778Y-8238656D01*
X-7896922Y-8127900D01*
X-7896924Y-8127897D01*
X-7987895Y-8036926D01*
X-7987897Y-8036925D01*
X-7987898Y-8036924D01*
X-8016463Y-8022959D01*
X-8068044Y-7975831D01*
X-8086000Y-7911560D01*
X-8086000Y-7669440D01*
X-8066315Y-7602401D01*
X-8061267Y-7595129D01*
X-8058532Y-7591474D01*
X-8058528Y-7591472D01*
X-7977664Y-7483450D01*
X-7930509Y-7357022D01*
X-7924791Y-7303838D01*
X-7924501Y-7301144D01*
X-7924500Y-7301129D01*
X-7924500Y-6698870D01*
X-7924501Y-6698855D01*
X-7929150Y-6655620D01*
X-7930509Y-6642978D01*
X-7940565Y-6616017D01*
X-7977663Y-6516552D01*
X-7977665Y-6516549D01*
X-8058528Y-6408528D01*
X-8166550Y-6327664D01*
X-8166553Y-6327662D01*
X-8292976Y-6280509D01*
X-8348856Y-6274500D01*
X-8348870Y-6274500D01*
X-8876130Y-6274500D01*
X-8876145Y-6274500D01*
X-8932025Y-6280509D01*
X-9058448Y-6327662D01*
X-9058451Y-6327664D01*
X-9166472Y-6408528D01*
X-9247336Y-6516549D01*
X-9247337Y-6516551D01*
X-9284436Y-6616017D01*
X-9326308Y-6671950D01*
X-9391773Y-6696367D01*
X-9460045Y-6681515D01*
X-9509450Y-6632109D01*
X-9517659Y-6613638D01*
X-9549640Y-6522245D01*
X-9633551Y-6408550D01*
X-9747245Y-6324640D01*
X-9880621Y-6277968D01*
X-9880620Y-6277968D01*
X-9912278Y-6275000D01*
X-9937500Y-6275000D01*
X-9937500Y-7725000D01*
X-9912278Y-7725000D01*
X-9880621Y-7722031D01*
X-9747245Y-7675359D01*
X-9633551Y-7591449D01*
X-9549640Y-7477754D01*
X-9517659Y-7386361D01*
X-9476938Y-7329585D01*
X-9411985Y-7303838D01*
X-9343423Y-7317294D01*
X-9293020Y-7365682D01*
X-9284436Y-7383982D01*
X-9247337Y-7483449D01*
X-9247336Y-7483450D01*
X-9166472Y-7591472D01*
X-9058451Y-7672335D01*
X-9058448Y-7672337D01*
X-8932025Y-7719490D01*
X-8932022Y-7719491D01*
X-8902682Y-7722645D01*
X-8876145Y-7725499D01*
X-8876130Y-7725500D01*
X-8838000Y-7725500D01*
X-8770961Y-7745185D01*
X-8725206Y-7797989D01*
X-8714000Y-7849500D01*
X-8714000Y-7911560D01*
X-8733685Y-7978599D01*
X-8783538Y-8022959D01*
X-8799843Y-8030931D01*
X-8812106Y-8036926D01*
X-8910342Y-8135163D01*
X-8912168Y-8133337D01*
X-8955311Y-8167177D01*
X-9001249Y-8176000D01*
X-9676956Y-8176000D01*
X-9743995Y-8156315D01*
X-9764637Y-8139681D01*
X-9793515Y-8110803D01*
X-9898609Y-8059426D01*
X-9966739Y-8049500D01*
X-9966740Y-8049500D01*
X-10233260Y-8049500D01*
X-10233261Y-8049500D01*
X-10301392Y-8059426D01*
X-10406486Y-8110803D01*
X-10489197Y-8193514D01*
X-10540574Y-8298608D01*
X-10550500Y-8366739D01*
X-14229500Y-8366739D01*
X-14229500Y-8318418D01*
X-14240418Y-8243482D01*
X-14242778Y-8238656D01*
X-14296922Y-8127900D01*
X-14296924Y-8127897D01*
X-14387897Y-8036924D01*
X-14441462Y-8010737D01*
X-14493043Y-7963608D01*
X-14511000Y-7899337D01*
X-14511000Y-7692821D01*
X-14491315Y-7625782D01*
X-14461308Y-7593552D01*
X-14458528Y-7591472D01*
X-14377664Y-7483450D01*
X-14330509Y-7357022D01*
X-14325746Y-7312722D01*
X-10875000Y-7312722D01*
X-10872032Y-7344379D01*
X-10825360Y-7477755D01*
X-10741450Y-7591449D01*
X-10627756Y-7675359D01*
X-10494380Y-7722031D01*
X-10494381Y-7722031D01*
X-10462722Y-7725000D01*
X-10437500Y-7725000D01*
X-10437500Y-7250000D01*
X-10875000Y-7250000D01*
X-10875000Y-7312722D01*
X-14325746Y-7312722D01*
X-14324791Y-7303838D01*
X-14324501Y-7301144D01*
X-14324500Y-7301129D01*
X-14324500Y-6698870D01*
X-14324501Y-6698855D01*
X-14325746Y-6687277D01*
X-10875000Y-6687277D01*
X-10875000Y-6750000D01*
X-10437500Y-6750000D01*
X-10437500Y-6275000D01*
X-10462722Y-6275000D01*
X-10494380Y-6277968D01*
X-10627756Y-6324640D01*
X-10741450Y-6408550D01*
X-10825360Y-6522244D01*
X-10872032Y-6655620D01*
X-10875000Y-6687277D01*
X-14325746Y-6687277D01*
X-14329150Y-6655620D01*
X-14330509Y-6642978D01*
X-14340565Y-6616017D01*
X-14377663Y-6516552D01*
X-14377665Y-6516549D01*
X-14458528Y-6408528D01*
X-14566550Y-6327664D01*
X-14566553Y-6327662D01*
X-14692976Y-6280509D01*
X-14748856Y-6274500D01*
X-14748870Y-6274500D01*
X-15276130Y-6274500D01*
X-15276145Y-6274500D01*
X-15332025Y-6280509D01*
X-15458448Y-6327662D01*
X-15458451Y-6327664D01*
X-15566472Y-6408528D01*
X-15647336Y-6516549D01*
X-15647338Y-6516552D01*
X-15683818Y-6614361D01*
X-15725689Y-6670295D01*
X-15791154Y-6694712D01*
X-15859427Y-6679860D01*
X-15908832Y-6630455D01*
X-15916182Y-6614361D01*
X-15952663Y-6516552D01*
X-15952665Y-6516549D01*
X-16033528Y-6408528D01*
X-16141550Y-6327664D01*
X-16141553Y-6327662D01*
X-16267976Y-6280509D01*
X-16323856Y-6274500D01*
X-16323870Y-6274500D01*
X-16851130Y-6274500D01*
X-16851145Y-6274500D01*
X-16907025Y-6280509D01*
X-17033448Y-6327662D01*
X-17033451Y-6327664D01*
X-17141472Y-6408528D01*
X-17222336Y-6516549D01*
X-17222338Y-6516552D01*
X-17269491Y-6642975D01*
X-17275500Y-6698855D01*
X-19499500Y-6698855D01*
X-19499500Y-2004427D01*
X-19499184Y-1995581D01*
X-19494787Y-1934108D01*
X-19492590Y-1903388D01*
X-11477500Y-1903388D01*
X-11477500Y-2096611D01*
X-11447275Y-2287441D01*
X-11387571Y-2471194D01*
X-11299853Y-2643349D01*
X-11237754Y-2728822D01*
X-11186285Y-2799663D01*
X-11049663Y-2936285D01*
X-10893350Y-3049852D01*
X-10721195Y-3137570D01*
X-10629319Y-3167422D01*
X-10537440Y-3197275D01*
X-10449057Y-3211273D01*
X-10346611Y-3227500D01*
X-10346606Y-3227500D01*
X-10153389Y-3227500D01*
X-10060877Y-3212846D01*
X-9962560Y-3197275D01*
X-9778803Y-3137569D01*
X-9606650Y-3049852D01*
X-9450337Y-2936285D01*
X-9313715Y-2799663D01*
X-9200148Y-2643350D01*
X-9112431Y-2471197D01*
X-9052725Y-2287440D01*
X-9037154Y-2189123D01*
X-9022500Y-2096611D01*
X-9022500Y-1903388D01*
X-9042371Y-1777931D01*
X-9052725Y-1712560D01*
X-9096595Y-1577542D01*
X-9112430Y-1528805D01*
X-9200148Y-1356650D01*
X-9313716Y-1200336D01*
X-9450337Y-1063715D01*
X-9606651Y-950147D01*
X-9778806Y-862429D01*
X-9962559Y-802725D01*
X-10153389Y-772500D01*
X-10153394Y-772500D01*
X-10346606Y-772500D01*
X-10346611Y-772500D01*
X-10537442Y-802725D01*
X-10721195Y-862429D01*
X-10893350Y-950147D01*
X-11049664Y-1063715D01*
X-11186285Y-1200336D01*
X-11299853Y-1356650D01*
X-11387571Y-1528805D01*
X-11447275Y-1712558D01*
X-11477500Y-1903388D01*
X-19492590Y-1903388D01*
X-19484870Y-1795436D01*
X-19482354Y-1777938D01*
X-19440644Y-1586199D01*
X-19435667Y-1569248D01*
X-19367089Y-1385385D01*
X-19359741Y-1369298D01*
X-19267482Y-1200337D01*
X-19265709Y-1197089D01*
X-19256155Y-1182221D01*
X-19138552Y-1025123D01*
X-19126980Y-1011769D01*
X-18988231Y-873020D01*
X-18974877Y-861448D01*
X-18817779Y-743845D01*
X-18802911Y-734291D01*
X-18630702Y-640258D01*
X-18614615Y-632911D01*
X-18430752Y-564333D01*
X-18413801Y-559356D01*
X-18222062Y-517646D01*
X-18204564Y-515130D01*
X-18004418Y-500816D01*
X-17995572Y-500500D01*
X-17934108Y-500500D01*
X17934108Y-500500D01*
X17995572Y-500500D01*
X18004418Y-500816D01*
G37*
%TD.AperFunction*%
%TD*%
%TA.AperFunction,Conductor*%
%TO.N,/connector/V_POC*%
G36*
X9362124Y-24044685D02*
G01*
X9382766Y-24061319D01*
X10658766Y-25337319D01*
X10692251Y-25398642D01*
X10687267Y-25468334D01*
X10658766Y-25512681D01*
X10507766Y-25663681D01*
X10446443Y-25697166D01*
X10420085Y-25700000D01*
X10416650Y-25700000D01*
X10392917Y-25695253D01*
X10392448Y-25697613D01*
X10380470Y-25695230D01*
X10330722Y-25685335D01*
X10280975Y-25695230D01*
X10280974Y-25695230D01*
X10268997Y-25697613D01*
X10268527Y-25695253D01*
X10244794Y-25700000D01*
X8170447Y-25700000D01*
X8103408Y-25680315D01*
X8057653Y-25627511D01*
X8046447Y-25576000D01*
X8046447Y-24149000D01*
X8066132Y-24081961D01*
X8118936Y-24036206D01*
X8170447Y-24025000D01*
X9295085Y-24025000D01*
X9362124Y-24044685D01*
G37*
%TD.AperFunction*%
%TD*%
%TA.AperFunction,Conductor*%
%TO.N,GND*%
G36*
X14021447Y-23825000D02*
G01*
X12246447Y-25600000D01*
X11846447Y-25600000D01*
X10071447Y-23825000D01*
X10371447Y-22875000D01*
X13721447Y-22875000D01*
X14021447Y-23825000D01*
G37*
%TD.AperFunction*%
%TD*%
%TA.AperFunction,Conductor*%
%TO.N,/connector/V_POC*%
G36*
X15989486Y-24044685D02*
G01*
X16035241Y-24097489D01*
X16046447Y-24149000D01*
X16046447Y-25576000D01*
X16026762Y-25643039D01*
X15973958Y-25688794D01*
X15922447Y-25700000D01*
X13848100Y-25700000D01*
X13824366Y-25695253D01*
X13823897Y-25697613D01*
X13811919Y-25695230D01*
X13762172Y-25685335D01*
X13762171Y-25685335D01*
X13745694Y-25688612D01*
X13712424Y-25695230D01*
X13712423Y-25695230D01*
X13700446Y-25697613D01*
X13699976Y-25695253D01*
X13676244Y-25700000D01*
X13672809Y-25700000D01*
X13605770Y-25680315D01*
X13585128Y-25663681D01*
X13434128Y-25512681D01*
X13400643Y-25451358D01*
X13405627Y-25381666D01*
X13434128Y-25337319D01*
X14710128Y-24061319D01*
X14771451Y-24027834D01*
X14797809Y-24025000D01*
X15922447Y-24025000D01*
X15989486Y-24044685D01*
G37*
%TD.AperFunction*%
%TD*%
%TA.AperFunction,Conductor*%
%TO.N,+1V8*%
G36*
X9137124Y-18019685D02*
G01*
X9157766Y-18036319D01*
X10383766Y-19262319D01*
X10417251Y-19323642D01*
X10412267Y-19393334D01*
X10383766Y-19437681D01*
X7784128Y-22037319D01*
X7722805Y-22070804D01*
X7653113Y-22065820D01*
X7608766Y-22037319D01*
X6832766Y-21261319D01*
X6799281Y-21199996D01*
X6796447Y-21173638D01*
X6796447Y-19026362D01*
X6816132Y-18959323D01*
X6832766Y-18938681D01*
X7735128Y-18036319D01*
X7796451Y-18002834D01*
X7822809Y-18000000D01*
X9070085Y-18000000D01*
X9137124Y-18019685D01*
G37*
%TD.AperFunction*%
%TD*%
%TA.AperFunction,Conductor*%
%TO.N,Net-(C9-Pad2)*%
G36*
X751018Y-6311067D02*
G01*
X757343Y-6317406D01*
X757333Y-6326360D01*
X757173Y-6326729D01*
X158123Y-7639180D01*
X151570Y-7645283D01*
X147479Y-7646022D01*
X-187269Y-7646022D01*
X-195542Y-7642595D01*
X-198032Y-7638911D01*
X-757570Y-6326575D01*
X-757662Y-6317620D01*
X-751399Y-6311225D01*
X-4489Y-6000864D01*
X4464Y-6000855D01*
X751018Y-6311067D01*
G37*
%TD.AperFunction*%
%TD*%
M02*
