%TF.GenerationSoftware,KiCad,Pcbnew,8.0.5*%
%TF.CreationDate,2025-03-05T14:18:00-05:00*%
%TF.ProjectId,minimax,6d696e69-6d61-4782-9e6b-696361645f70,rev?*%
%TF.SameCoordinates,Original*%
%TF.FileFunction,Soldermask,Top*%
%TF.FilePolarity,Negative*%
%FSLAX46Y46*%
G04 Gerber Fmt 4.6, Leading zero omitted, Abs format (unit mm)*
G04 Created by KiCad (PCBNEW 8.0.5) date 2025-03-05 14:18:00*
%MOMM*%
%LPD*%
G01*
G04 APERTURE LIST*
G04 Aperture macros list*
%AMRoundRect*
0 Rectangle with rounded corners*
0 $1 Rounding radius*
0 $2 $3 $4 $5 $6 $7 $8 $9 X,Y pos of 4 corners*
0 Add a 4 corners polygon primitive as box body*
4,1,4,$2,$3,$4,$5,$6,$7,$8,$9,$2,$3,0*
0 Add four circle primitives for the rounded corners*
1,1,$1+$1,$2,$3*
1,1,$1+$1,$4,$5*
1,1,$1+$1,$6,$7*
1,1,$1+$1,$8,$9*
0 Add four rect primitives between the rounded corners*
20,1,$1+$1,$2,$3,$4,$5,0*
20,1,$1+$1,$4,$5,$6,$7,0*
20,1,$1+$1,$6,$7,$8,$9,0*
20,1,$1+$1,$8,$9,$2,$3,0*%
%AMFreePoly0*
4,1,17,0.685355,1.560355,0.700000,1.525000,0.700000,-1.525000,0.685355,-1.560355,0.650000,-1.575000,-0.650000,-1.575000,-0.685355,-1.560355,-0.700000,-1.525001,-0.700010,-0.725000,-1.750011,-0.725000,-1.785366,-0.710355,-1.800011,-0.675000,-1.800011,1.525000,-1.785366,1.560355,-1.750011,1.575000,0.650000,1.575000,0.685355,1.560355,0.685355,1.560355,$1*%
%AMFreePoly1*
4,1,17,1.785366,1.560355,1.800011,1.525000,1.800011,-0.675000,1.785366,-0.710355,1.750011,-0.725000,0.700010,-0.725000,0.700000,-1.525001,0.685355,-1.560356,0.650000,-1.575000,-0.650000,-1.575000,-0.685355,-1.560355,-0.700000,-1.525000,-0.700000,1.525000,-0.685355,1.560355,-0.650000,1.575000,1.750011,1.575000,1.785366,1.560355,1.785366,1.560355,$1*%
%AMFreePoly2*
4,1,49,1.709133,1.231194,1.726811,1.223872,1.753872,1.196813,1.753872,1.196811,1.761194,1.179133,1.765000,1.160000,1.765000,-0.940000,1.761194,-0.959133,1.753872,-0.976811,1.743033,-0.993033,0.993033,-1.743033,0.976811,-1.753872,0.959133,-1.761194,0.940000,-1.765000,-1.160000,-1.765000,-1.179133,-1.761194,-1.196811,-1.753872,-1.223872,-1.726813,-1.223872,-1.726811,-1.231194,-1.709133,
-1.235000,-1.690000,-1.235000,0.000000,-1.231194,0.019133,-1.223872,0.036811,-1.213033,0.053034,-1.204510,0.061556,-1.190036,0.217762,-1.188340,0.226832,-1.129759,0.432723,-1.126426,0.441327,-1.031010,0.632948,-1.026153,0.640793,-0.897151,0.811619,-0.890935,0.818437,-0.732741,0.962650,-0.725378,0.968211,-0.543378,1.080900,-0.535118,1.085013,-0.335511,1.162342,-0.326636,1.164867,
-0.116218,1.204201,-0.107031,1.205052,-0.061014,1.205052,-0.053033,1.213033,-0.036811,1.223872,-0.019133,1.231194,0.000000,1.235000,1.690000,1.235000,1.709133,1.231194,1.709133,1.231194,$1*%
%AMFreePoly3*
4,1,49,0.019133,1.231194,0.036811,1.223872,0.053033,1.213033,0.061014,1.205052,0.107031,1.205052,0.116218,1.204201,0.326636,1.164867,0.335511,1.162342,0.535118,1.085013,0.543378,1.080900,0.725378,0.968211,0.732741,0.962650,0.890935,0.818437,0.897151,0.811619,1.026153,0.640793,1.031010,0.632948,1.126426,0.441327,1.129759,0.432723,1.188340,0.226832,1.190036,0.217762,
1.204510,0.061556,1.213033,0.053034,1.223872,0.036811,1.231194,0.019133,1.235000,0.000000,1.235000,-1.690000,1.231194,-1.709133,1.223872,-1.726811,1.196813,-1.753872,1.196811,-1.753872,1.179133,-1.761194,1.160000,-1.765000,-0.940000,-1.765000,-0.959133,-1.761194,-0.976811,-1.753872,-0.993033,-1.743033,-1.743033,-0.993033,-1.753872,-0.976811,-1.761194,-0.959133,-1.765000,-0.940000,
-1.765000,1.160000,-1.761194,1.179133,-1.753872,1.196811,-1.726813,1.223872,-1.726811,1.223872,-1.709133,1.231194,-1.690000,1.235000,0.000000,1.235000,0.019133,1.231194,0.019133,1.231194,$1*%
%AMFreePoly4*
4,1,49,1.179133,1.761194,1.196811,1.753872,1.223872,1.726813,1.223872,1.726811,1.231194,1.709133,1.235000,1.690000,1.235000,0.000000,1.231194,-0.019133,1.223872,-0.036811,1.213033,-0.053034,1.204510,-0.061556,1.190036,-0.217762,1.188340,-0.226832,1.129759,-0.432723,1.126426,-0.441327,1.031010,-0.632948,1.026153,-0.640793,0.897151,-0.811619,0.890935,-0.818437,0.732741,-0.962650,
0.725378,-0.968211,0.543378,-1.080900,0.535118,-1.085013,0.335511,-1.162342,0.326636,-1.164867,0.116218,-1.204201,0.107031,-1.205052,0.061014,-1.205052,0.053033,-1.213033,0.036811,-1.223872,0.019133,-1.231194,0.000000,-1.235000,-1.690000,-1.235000,-1.709133,-1.231194,-1.726811,-1.223872,-1.753872,-1.196813,-1.753872,-1.196811,-1.761194,-1.179133,-1.765000,-1.160000,-1.765000,0.940000,
-1.761194,0.959133,-1.753872,0.976811,-1.743033,0.993033,-0.993033,1.743033,-0.976811,1.753872,-0.959133,1.761194,-0.940000,1.765000,1.160000,1.765000,1.179133,1.761194,1.179133,1.761194,$1*%
G04 Aperture macros list end*
%ADD10RoundRect,0.050000X-0.341250X1.221315X-1.221315X0.341250X0.341250X-1.221315X1.221315X-0.341250X0*%
%ADD11RoundRect,0.050000X-1.221315X-0.341250X-0.341250X-1.221315X1.221315X0.341250X0.341250X1.221315X0*%
%ADD12RoundRect,0.250000X-0.017678X0.371231X-0.371231X0.017678X0.017678X-0.371231X0.371231X-0.017678X0*%
%ADD13RoundRect,0.250000X0.250000X0.275000X-0.250000X0.275000X-0.250000X-0.275000X0.250000X-0.275000X0*%
%ADD14RoundRect,0.250000X-0.371231X-0.017678X-0.017678X-0.371231X0.371231X0.017678X0.017678X0.371231X0*%
%ADD15RoundRect,0.250000X0.017678X-0.371231X0.371231X-0.017678X-0.017678X0.371231X-0.371231X0.017678X0*%
%ADD16RoundRect,0.250000X0.371231X0.017678X0.017678X0.371231X-0.371231X-0.017678X-0.017678X-0.371231X0*%
%ADD17RoundRect,0.250000X-0.275000X0.250000X-0.275000X-0.250000X0.275000X-0.250000X0.275000X0.250000X0*%
%ADD18RoundRect,0.125000X-0.125000X0.180000X-0.125000X-0.180000X0.125000X-0.180000X0.125000X0.180000X0*%
%ADD19RoundRect,0.165000X0.195000X-0.165000X0.195000X0.165000X-0.195000X0.165000X-0.195000X-0.165000X0*%
%ADD20RoundRect,0.050000X-0.150000X-0.400000X0.150000X-0.400000X0.150000X0.400000X-0.150000X0.400000X0*%
%ADD21FreePoly0,0.000000*%
%ADD22FreePoly1,0.000000*%
%ADD23RoundRect,0.160000X0.160000X0.210000X-0.160000X0.210000X-0.160000X-0.210000X0.160000X-0.210000X0*%
%ADD24RoundRect,0.050000X0.161645X-0.341250X0.341250X-0.161645X-0.161645X0.341250X-0.341250X0.161645X0*%
%ADD25RoundRect,0.050000X-0.341250X-0.161645X-0.161645X-0.341250X0.341250X0.161645X0.161645X0.341250X0*%
%ADD26RoundRect,0.050000X-1.347038X0.000000X0.000000X-1.347038X1.347038X0.000000X0.000000X1.347038X0*%
%ADD27RoundRect,0.243750X-0.243750X-0.281250X0.243750X-0.281250X0.243750X0.281250X-0.243750X0.281250X0*%
%ADD28RoundRect,0.165000X-0.195000X0.165000X-0.195000X-0.165000X0.195000X-0.165000X0.195000X0.165000X0*%
%ADD29RoundRect,0.160000X0.210000X-0.160000X0.210000X0.160000X-0.210000X0.160000X-0.210000X-0.160000X0*%
%ADD30C,1.100000*%
%ADD31RoundRect,0.160000X-0.160000X-0.210000X0.160000X-0.210000X0.160000X0.210000X-0.160000X0.210000X0*%
%ADD32RoundRect,0.160000X-0.210000X0.160000X-0.210000X-0.160000X0.210000X-0.160000X0.210000X0.160000X0*%
%ADD33RoundRect,0.050000X-0.381000X0.127000X-0.381000X-0.127000X0.381000X-0.127000X0.381000X0.127000X0*%
%ADD34RoundRect,0.050000X0.127000X0.381000X-0.127000X0.381000X-0.127000X-0.381000X0.127000X-0.381000X0*%
%ADD35RoundRect,0.050000X1.600200X1.600200X-1.600200X1.600200X-1.600200X-1.600200X1.600200X-1.600200X0*%
%ADD36RoundRect,0.102000X-0.775000X0.300000X-0.775000X-0.300000X0.775000X-0.300000X0.775000X0.300000X0*%
%ADD37RoundRect,0.102000X-0.900000X0.600000X-0.900000X-0.600000X0.900000X-0.600000X0.900000X0.600000X0*%
%ADD38RoundRect,0.050000X-0.325000X1.325000X-0.325000X-1.325000X0.325000X-1.325000X0.325000X1.325000X0*%
%ADD39C,2.300000*%
%ADD40C,1.750000*%
%ADD41FreePoly2,180.000000*%
%ADD42FreePoly3,180.000000*%
%ADD43FreePoly4,90.000000*%
%ADD44FreePoly4,180.000000*%
%ADD45RoundRect,0.050000X-0.190000X0.330000X-0.190000X-0.330000X0.190000X-0.330000X0.190000X0.330000X0*%
%ADD46C,0.700000*%
G04 APERTURE END LIST*
D10*
%TO.C,L4*%
X16059769Y-20886678D03*
X14533125Y-22413322D03*
%TD*%
D11*
%TO.C,L3*%
X8033125Y-20886678D03*
X9559769Y-22413322D03*
%TD*%
D12*
%TO.C,C19*%
X14671232Y-29551992D03*
X13575216Y-30648008D03*
%TD*%
D13*
%TO.C,C3*%
X-3625000Y-17700000D03*
X-5175000Y-17700000D03*
%TD*%
D12*
%TO.C,C16*%
X14444455Y-19301992D03*
X13348439Y-20398008D03*
%TD*%
D14*
%TO.C,C14*%
X9648439Y-19301992D03*
X10744455Y-20398008D03*
%TD*%
D15*
%TO.C,C11*%
X9598439Y-24898008D03*
X10694455Y-23801992D03*
%TD*%
D16*
%TO.C,C18*%
X9494455Y-29548008D03*
X8398439Y-28451992D03*
%TD*%
D17*
%TO.C,C17*%
X16173224Y-26925000D03*
X16173224Y-28475000D03*
%TD*%
D16*
%TO.C,C12*%
X14494455Y-24898008D03*
X13398439Y-23801992D03*
%TD*%
D18*
%TO.C,Q3*%
X10200000Y-9845000D03*
X11200000Y-9845000D03*
X10700000Y-8555000D03*
%TD*%
D19*
%TO.C,C15*%
X16746447Y-25330000D03*
X16746447Y-24370000D03*
%TD*%
D20*
%TO.C,J1*%
X-5249990Y-34350000D03*
X-4749990Y-34350000D03*
X-4249989Y-34350000D03*
X-3749990Y-34350000D03*
X-3249988Y-34350000D03*
X-2749989Y-34350000D03*
X-2249990Y-34350000D03*
X-1749989Y-34350000D03*
X-1249990Y-34350000D03*
X-749988Y-34350000D03*
X-249989Y-34350000D03*
X250010Y-34350000D03*
X750011Y-34350000D03*
X1250010Y-34350000D03*
X1750009Y-34350000D03*
X2250011Y-34350000D03*
X2750010Y-34350000D03*
X3250011Y-34350000D03*
X3750010Y-34350000D03*
X4250009Y-34350000D03*
X4750011Y-34350000D03*
X5250010Y-34350000D03*
D21*
X-7149989Y-36275000D03*
D22*
X7149989Y-36275000D03*
%TD*%
D19*
%TO.C,C1*%
X3700000Y-19530000D03*
X3700000Y-18570000D03*
%TD*%
D23*
%TO.C,R19*%
X5710000Y-26600000D03*
X4690000Y-26600000D03*
%TD*%
D24*
%TO.C,U2*%
X11553029Y-25095920D03*
X11199474Y-25449474D03*
X10845921Y-25803027D03*
X10492367Y-26156582D03*
D25*
X10492367Y-27143418D03*
X10845921Y-27496973D03*
X11199474Y-27850526D03*
X11553029Y-28204080D03*
D24*
X12539865Y-28204080D03*
X12893420Y-27850526D03*
X13246973Y-27496973D03*
X13600527Y-27143418D03*
D25*
X13600527Y-26156582D03*
X13246973Y-25803027D03*
X12893420Y-25449474D03*
X12539865Y-25095920D03*
D26*
X12046447Y-26650000D03*
%TD*%
D27*
%TO.C,D1*%
X-16587500Y-7000000D03*
X-15012500Y-7000000D03*
%TD*%
D23*
%TO.C,R10*%
X14510000Y-33800000D03*
X13490000Y-33800000D03*
%TD*%
D28*
%TO.C,C13*%
X7346447Y-24370000D03*
X7346447Y-25330000D03*
%TD*%
D29*
%TO.C,R8*%
X-8400000Y-9510000D03*
X-8400000Y-8490000D03*
%TD*%
D19*
%TO.C,C10*%
X-1061100Y-20430000D03*
X-1061100Y-19470000D03*
%TD*%
D30*
%TO.C,TP1*%
X-18000000Y-38000000D03*
%TD*%
D19*
%TO.C,C8*%
X-6525000Y-21230000D03*
X-6525000Y-20270000D03*
%TD*%
%TO.C,C6*%
X-4400000Y-20330000D03*
X-4400000Y-19370000D03*
%TD*%
%TO.C,C2*%
X2450000Y-19530000D03*
X2450000Y-18570000D03*
%TD*%
D31*
%TO.C,R6*%
X-8710000Y-23600000D03*
X-7690000Y-23600000D03*
%TD*%
D19*
%TO.C,C9*%
X-11100Y-20430000D03*
X-11100Y-19470000D03*
%TD*%
D32*
%TO.C,R1*%
X17200000Y-12290000D03*
X17200000Y-13310000D03*
%TD*%
D27*
%TO.C,D3*%
X10712500Y-7000000D03*
X12287500Y-7000000D03*
%TD*%
D33*
%TO.C,U1*%
X2164600Y-26299999D03*
X2164600Y-25800000D03*
X2164600Y-25300001D03*
X2164600Y-24800000D03*
X2164600Y-24300000D03*
X2164600Y-23799999D03*
X2164600Y-23300000D03*
X2164600Y-22800001D03*
D34*
X1488899Y-22124300D03*
X988900Y-22124300D03*
X488901Y-22124300D03*
X-11100Y-22124300D03*
X-511100Y-22124300D03*
X-1011101Y-22124300D03*
X-1511100Y-22124300D03*
X-2011099Y-22124300D03*
D33*
X-2686800Y-22800001D03*
X-2686800Y-23300000D03*
X-2686800Y-23799999D03*
X-2686800Y-24300000D03*
X-2686800Y-24800000D03*
X-2686800Y-25300001D03*
X-2686800Y-25800000D03*
X-2686800Y-26299999D03*
D34*
X-2011099Y-26975700D03*
X-1511100Y-26975700D03*
X-1011101Y-26975700D03*
X-511100Y-26975700D03*
X-11100Y-26975700D03*
X488901Y-26975700D03*
X988900Y-26975700D03*
X1488899Y-26975700D03*
D35*
X-261100Y-24550000D03*
%TD*%
D23*
%TO.C,R3*%
X-8690000Y-26600000D03*
X-9710000Y-26600000D03*
%TD*%
%TO.C,R2*%
X-8690000Y-25400000D03*
X-9710000Y-25400000D03*
%TD*%
D31*
%TO.C,R11*%
X13490000Y-38200000D03*
X14510000Y-38200000D03*
%TD*%
D18*
%TO.C,Q1*%
X-17100000Y-9845000D03*
X-16100000Y-9845000D03*
X-16600000Y-8555000D03*
%TD*%
D29*
%TO.C,R7*%
X-14800000Y-9510000D03*
X-14800000Y-8490000D03*
%TD*%
%TO.C,R16*%
X12500000Y-9510000D03*
X12500000Y-8490000D03*
%TD*%
D19*
%TO.C,C5*%
X-3300000Y-20330000D03*
X-3300000Y-19370000D03*
%TD*%
D36*
%TO.C,J4*%
X-14725000Y-25500000D03*
X-14725000Y-26500000D03*
X-14725000Y-27500000D03*
X-14725000Y-28500000D03*
D37*
X-18600000Y-24200000D03*
X-18600000Y-29800000D03*
%TD*%
D29*
%TO.C,R14*%
X-1100000Y-18410000D03*
X-1100000Y-17390000D03*
%TD*%
D32*
%TO.C,R15*%
X17623224Y-26940000D03*
X17623224Y-27960000D03*
%TD*%
D27*
%TO.C,D2*%
X-10187500Y-7000000D03*
X-8612500Y-7000000D03*
%TD*%
D31*
%TO.C,R18*%
X2090000Y-20825000D03*
X3110000Y-20825000D03*
%TD*%
D23*
%TO.C,R13*%
X4310000Y-12700000D03*
X3290000Y-12700000D03*
%TD*%
D30*
%TO.C,TP2*%
X-18000000Y-35500000D03*
%TD*%
D32*
%TO.C,R5*%
X15900000Y-12290000D03*
X15900000Y-13310000D03*
%TD*%
D38*
%TO.C,L1*%
X5070000Y-14800000D03*
X2530000Y-14800000D03*
%TD*%
D31*
%TO.C,R4*%
X-8710000Y-22400000D03*
X-7690000Y-22400000D03*
%TD*%
D39*
%TO.C,J5*%
X-10250000Y-2000000D03*
X-10250000Y-14500000D03*
X10750000Y-2000000D03*
X10750000Y-14500000D03*
%TD*%
D18*
%TO.C,Q2*%
X-10600000Y-9845000D03*
X-9600000Y-9845000D03*
X-10100000Y-8555000D03*
%TD*%
D40*
%TO.C,J2*%
X0Y-6000000D03*
D41*
X2540000Y-8540000D03*
D42*
X-2540000Y-8540000D03*
D43*
X2550000Y-3450000D03*
D44*
X-2540000Y-3460000D03*
%TD*%
D30*
%TO.C,TP3*%
X-18000000Y-33000000D03*
%TD*%
D23*
%TO.C,R17*%
X5710000Y-27800000D03*
X4690000Y-27800000D03*
%TD*%
D19*
%TO.C,C7*%
X-7625000Y-21230000D03*
X-7625000Y-20270000D03*
%TD*%
D23*
%TO.C,R9*%
X14510000Y-37000000D03*
X13490000Y-37000000D03*
%TD*%
D31*
%TO.C,R12*%
X13490000Y-35000000D03*
X14510000Y-35000000D03*
%TD*%
D45*
%TO.C,L2*%
X940000Y-14800000D03*
X-20000Y-14800000D03*
%TD*%
D36*
%TO.C,J3*%
X-14725000Y-15500000D03*
X-14725000Y-16500000D03*
X-14725000Y-17500000D03*
X-14725000Y-18500000D03*
D37*
X-18600000Y-14200000D03*
X-18600000Y-19800000D03*
%TD*%
D19*
%TO.C,C4*%
X-2250000Y-18380000D03*
X-2250000Y-17420000D03*
%TD*%
D46*
X6300000Y-28900000D03*
X15300000Y-36200000D03*
X15300000Y-33000000D03*
X-8700000Y-21225000D03*
X18300000Y-13300000D03*
X18400000Y-11500000D03*
X-16587500Y-16525000D03*
X16146447Y-18400000D03*
X12546447Y-29350000D03*
X5200000Y-35750000D03*
X-16450000Y-26600000D03*
X11546447Y-29350000D03*
X-14800000Y-10600000D03*
X12500000Y-10600000D03*
X-8400000Y-10500000D03*
X15171447Y-18400000D03*
X13500000Y-36000000D03*
X5250000Y-25100000D03*
X5225000Y-24050000D03*
X13500000Y-32800000D03*
X-364760Y-36520000D03*
X-2514770Y-28940000D03*
X-261100Y-23550000D03*
X-12075000Y-30550000D03*
X-13975000Y-11975000D03*
X-2950000Y-36400000D03*
X12521447Y-22650000D03*
X-1100000Y-16250000D03*
X12046447Y-26650000D03*
X-12700000Y-36600000D03*
X7875000Y-38725000D03*
X12521447Y-19150000D03*
X-1248714Y-25537614D03*
X4100000Y-36700000D03*
X-7825000Y-12250000D03*
X738900Y-23550000D03*
X-10500000Y-37125000D03*
X8400000Y-11725000D03*
X12046447Y-19875000D03*
X738900Y-24550000D03*
X-9602121Y-28337024D03*
X-1310000Y-31760000D03*
X12850000Y-26650000D03*
X17000000Y-35900000D03*
X-18175000Y-15925000D03*
X-1500000Y-36100000D03*
X12050000Y-25850000D03*
X-1261100Y-24550000D03*
X-261100Y-24550000D03*
X11571447Y-21200000D03*
X12521447Y-21200000D03*
X12021447Y-23400000D03*
X-261100Y-25550000D03*
X-18150000Y-17775000D03*
X-18325000Y-25900000D03*
X17125000Y-38850000D03*
X1020000Y-35720000D03*
X-7500000Y-33300000D03*
X11571447Y-19150000D03*
X12850000Y-12000000D03*
X-12300000Y-34000000D03*
X11571447Y-22650000D03*
X11250000Y-26650000D03*
X270000Y-33110000D03*
X12046447Y-21925000D03*
X738900Y-25550000D03*
X-3000000Y-30020000D03*
X-4500000Y-36350000D03*
X12050000Y-27425000D03*
X9675000Y-34225000D03*
X-1261100Y-23550000D03*
X14873224Y-28050000D03*
X-18150000Y-28000000D03*
X-1785230Y-28940000D03*
X364780Y-36520000D03*
X5850000Y-32050000D03*
X-13150000Y-17500000D03*
X-10850000Y-25500000D03*
X4650000Y-23050000D03*
X4800000Y-31200000D03*
X-13150000Y-18500000D03*
X3700000Y-23000000D03*
X-11100000Y-26550000D03*
X8421447Y-25375000D03*
X8421447Y-24400000D03*
X6100000Y-15700000D03*
X15671447Y-24400000D03*
X6100000Y-13900000D03*
X15671447Y-25375000D03*
X7000000Y-14800000D03*
X6100000Y-14800000D03*
X7000000Y-15700000D03*
X7000000Y-13900000D03*
X3500000Y-32300000D03*
X-4675000Y-24950000D03*
X3650000Y-26350000D03*
X3050000Y-35800000D03*
X10696447Y-30000000D03*
X-5425000Y-20300000D03*
X14700000Y-11600000D03*
X9796447Y-28100000D03*
X7946447Y-18400000D03*
X8946447Y-18400000D03*
X7900000Y-33600000D03*
X-5900000Y-22300000D03*
X-17100000Y-11700000D03*
X-5700000Y-23500000D03*
X-10600000Y-11600000D03*
X10200000Y-11000000D03*
X9146447Y-27300000D03*
X17623224Y-29200000D03*
X6900000Y-33600000D03*
X-4800000Y-26075000D03*
M02*
