M48
; DRILL file {KiCad 8.0.5} date 2025-03-05T14:18:00-0500
; FORMAT={-:-/ absolute / inch / decimal}
; #@! TF.CreationDate,2025-03-05T14:18:00-05:00
; #@! TF.GenerationSoftware,Kicad,Pcbnew,8.0.5
; #@! TF.FileFunction,Plated,1,4,PTH
FMAT,2
INCH
; #@! TA.AperFunction,Plated,PTH,ViaDrill
T1C0.0118
; #@! TA.AperFunction,Plated,PTH,ComponentDrill
T2C0.0197
; #@! TA.AperFunction,Plated,PTH,ComponentDrill
T3C0.0591
%
G90
G05
T1
X-0.7215Y-1.0197
X-0.7156Y-0.627
X-0.7146Y-0.6998
X-0.7146Y-1.1024
X-0.6732Y-0.4606
X-0.6531Y-0.6506
X-0.6476Y-1.0472
X-0.5827Y-0.4173
X-0.5502Y-0.4715
X-0.5177Y-0.689
X-0.5177Y-0.7283
X-0.5Y-1.4409
X-0.4843Y-1.3386
X-0.4754Y-1.2028
X-0.437Y-1.0453
X-0.4272Y-1.0039
X-0.4173Y-0.4567
X-0.4134Y-1.4616
X-0.378Y-1.1156
X-0.3425Y-0.8356
X-0.3307Y-0.4134
X-0.3081Y-0.4823
X-0.2953Y-1.311
X-0.2323Y-0.878
X-0.2244Y-0.9252
X-0.2136Y-0.7992
X-0.189Y-1.0266
X-0.1841Y-0.9823
X-0.1772Y-1.4311
X-0.1181Y-1.1819
X-0.1161Y-1.4331
X-0.099Y-1.1394
X-0.0703Y-1.1394
X-0.0591Y-1.4213
X-0.0516Y-1.2504
X-0.0496Y-0.9272
X-0.0496Y-0.9665
X-0.0492Y-1.0054
X-0.0433Y-0.6398
X-0.0144Y-1.4378
X-0.0103Y-0.9272
X-0.0103Y-0.9665
X-0.0103Y-1.0059
X0.0106Y-1.3035
X0.0144Y-1.4378
X0.0291Y-0.9272
X0.0291Y-0.9665
X0.0291Y-1.0059
X0.0402Y-1.4063
X0.1201Y-1.4094
X0.1378Y-1.2717
X0.1437Y-1.0374
X0.1457Y-0.9055
X0.1614Y-1.4449
X0.1831Y-0.9075
X0.189Y-1.2283
X0.2047Y-1.4075
X0.2057Y-0.9469
X0.2067Y-0.9882
X0.2303Y-1.2618
X0.2402Y-0.5472
X0.2402Y-0.5827
X0.2402Y-0.6181
X0.248Y-1.1378
X0.2717Y-1.3228
X0.2756Y-0.5472
X0.2756Y-0.5827
X0.2756Y-0.6181
X0.31Y-1.5246
X0.311Y-1.3228
X0.3129Y-0.7244
X0.3307Y-0.4616
X0.3316Y-0.9606
X0.3316Y-0.999
X0.3522Y-0.7244
X0.3601Y-1.0748
X0.3809Y-1.3474
X0.3857Y-1.1063
X0.4016Y-0.4331
X0.4211Y-1.1811
X0.4429Y-1.0492
X0.4546Y-1.1555
X0.4556Y-0.7539
X0.4556Y-0.8346
X0.4556Y-0.8917
X0.4733Y-0.9213
X0.4743Y-0.7825
X0.4743Y-0.8632
X0.4743Y-1.0492
X0.4744Y-1.0177
X0.4744Y-1.0797
X0.4921Y-0.4173
X0.493Y-0.7539
X0.493Y-0.8346
X0.493Y-0.8917
X0.494Y-1.1555
X0.5059Y-0.4724
X0.5059Y-1.0492
X0.5315Y-1.2913
X0.5315Y-1.4173
X0.5787Y-0.4567
X0.5856Y-1.1043
X0.5973Y-0.7244
X0.6024Y-1.2992
X0.6024Y-1.4252
X0.617Y-0.9606
X0.617Y-0.999
X0.6357Y-0.7244
X0.6693Y-1.4134
X0.6742Y-1.5295
X0.6938Y-1.1496
X0.7205Y-0.5236
X0.7244Y-0.4528
T2
X-0.7087Y-1.2992
X-0.7087Y-1.3976
X-0.7087Y-1.4961
T3
X-0.1Y-0.1362
X-0.1Y-0.3362
X0.1Y-0.3362
X0.1004Y-0.1358
M30
