%TF.GenerationSoftware,KiCad,Pcbnew,8.0.5*%
%TF.CreationDate,2025-03-05T14:18:00-05:00*%
%TF.ProjectId,minimax,6d696e69-6d61-4782-9e6b-696361645f70,rev?*%
%TF.SameCoordinates,Original*%
%TF.FileFunction,Copper,L3,Inr*%
%TF.FilePolarity,Positive*%
%FSLAX46Y46*%
G04 Gerber Fmt 4.6, Leading zero omitted, Abs format (unit mm)*
G04 Created by KiCad (PCBNEW 8.0.5) date 2025-03-05 14:18:00*
%MOMM*%
%LPD*%
G01*
G04 APERTURE LIST*
G04 Aperture macros list*
%AMFreePoly0*
4,1,25,1.707678,1.177678,1.715000,1.160000,1.715000,-0.940000,1.707678,-0.957678,0.957678,-1.707678,0.940000,-1.715000,-1.160000,-1.715000,-1.177678,-1.707678,-1.185000,-1.690000,-1.185000,0.000000,-1.177678,0.017678,-1.156389,0.038966,-1.140249,0.213149,-1.081668,0.419040,-0.986252,0.610661,-0.857250,0.781487,-0.699056,0.925700,-0.517056,1.038389,-0.317449,1.115718,-0.107031,1.155052,
-0.040304,1.155052,-0.017678,1.177678,0.000000,1.185000,1.690000,1.185000,1.707678,1.177678,1.707678,1.177678,$1*%
%AMFreePoly1*
4,1,25,0.017678,1.177678,0.040304,1.155052,0.107031,1.155052,0.317449,1.115718,0.517056,1.038389,0.699056,0.925700,0.857250,0.781487,0.986252,0.610661,1.081668,0.419040,1.140249,0.213149,1.156389,0.038966,1.177678,0.017678,1.185000,0.000000,1.185000,-1.690000,1.177678,-1.707678,1.160000,-1.715000,-0.940000,-1.715000,-0.957678,-1.707678,-1.707678,-0.957678,-1.715000,-0.940000,
-1.715000,1.160000,-1.707678,1.177678,-1.690000,1.185000,0.000000,1.185000,0.017678,1.177678,0.017678,1.177678,$1*%
%AMFreePoly2*
4,1,25,1.177678,1.707678,1.185000,1.690000,1.185000,0.000000,1.177678,-0.017678,1.156389,-0.038966,1.140249,-0.213149,1.081668,-0.419040,0.986252,-0.610661,0.857250,-0.781487,0.699056,-0.925700,0.517056,-1.038389,0.317449,-1.115718,0.107031,-1.155052,0.040304,-1.155052,0.017678,-1.177678,0.000000,-1.185000,-1.690000,-1.185000,-1.707678,-1.177678,-1.715000,-1.160000,-1.715000,0.940000,
-1.707678,0.957678,-0.957678,1.707678,-0.940000,1.715000,1.160000,1.715000,1.177678,1.707678,1.177678,1.707678,$1*%
G04 Aperture macros list end*
%TA.AperFunction,ComponentPad*%
%ADD10C,1.000000*%
%TD*%
%TA.AperFunction,ComponentPad*%
%ADD11FreePoly0,180.000000*%
%TD*%
%TA.AperFunction,ComponentPad*%
%ADD12FreePoly1,180.000000*%
%TD*%
%TA.AperFunction,ComponentPad*%
%ADD13FreePoly2,90.000000*%
%TD*%
%TA.AperFunction,ComponentPad*%
%ADD14FreePoly2,180.000000*%
%TD*%
%TA.AperFunction,ViaPad*%
%ADD15C,0.600000*%
%TD*%
%TA.AperFunction,Conductor*%
%ADD16C,0.254000*%
%TD*%
G04 APERTURE END LIST*
D10*
%TO.N,Net-(U1-MFP8)*%
%TO.C,TP1*%
X-18000000Y-38000000D03*
%TD*%
%TO.N,Net-(U1-MFP7)*%
%TO.C,TP2*%
X-18000000Y-35500000D03*
%TD*%
D11*
%TO.N,GND*%
%TO.C,J2*%
X2540000Y-8540000D03*
D12*
X-2540000Y-8540000D03*
D13*
X2550000Y-3450000D03*
D14*
X-2540000Y-3460000D03*
%TD*%
D10*
%TO.N,Net-(U1-MFP6)*%
%TO.C,TP3*%
X-18000000Y-33000000D03*
%TD*%
D15*
%TO.N,VDDIO*%
X6300000Y-28900000D03*
X15300000Y-36200000D03*
X15300000Y-33000000D03*
X-8700000Y-21225000D03*
X18300000Y-13300000D03*
%TO.N,+3V3*%
X18400000Y-11500000D03*
X-16587500Y-16525000D03*
X16146447Y-18400000D03*
X12546447Y-29350000D03*
X5200000Y-35750000D03*
X-16450000Y-26600000D03*
X11546447Y-29350000D03*
X-14800000Y-10600000D03*
X12500000Y-10600000D03*
X-8400000Y-10500000D03*
X15171447Y-18400000D03*
%TO.N,MFP1_CFG0*%
X13500000Y-36000000D03*
X5250000Y-25100000D03*
%TO.N,MFP2_CFG1*%
X5225000Y-24050000D03*
X13500000Y-32800000D03*
%TO.N,/camera/MIPI.CSI_D2_N*%
X-364760Y-36520000D03*
X-2514770Y-28940000D03*
%TO.N,GND*%
X-261100Y-23550000D03*
X-12075000Y-30550000D03*
X-13975000Y-11975000D03*
X-2950000Y-36400000D03*
X12521447Y-22650000D03*
X-1100000Y-16250000D03*
X12046447Y-26650000D03*
X-12700000Y-36600000D03*
X7875000Y-38725000D03*
X12521447Y-19150000D03*
X-1248714Y-25537614D03*
X4100000Y-36700000D03*
X-7825000Y-12250000D03*
X738900Y-23550000D03*
X-10500000Y-37125000D03*
X8400000Y-11725000D03*
X12046447Y-19875000D03*
X738900Y-24550000D03*
X-9602121Y-28337024D03*
X-1310000Y-31760000D03*
X12850000Y-26650000D03*
X17000000Y-35900000D03*
X-18175000Y-15925000D03*
X-1500000Y-36100000D03*
X12050000Y-25850000D03*
X-1261100Y-24550000D03*
X-261100Y-24550000D03*
X11571447Y-21200000D03*
X12521447Y-21200000D03*
X12021447Y-23400000D03*
X-261100Y-25550000D03*
X-18150000Y-17775000D03*
X-18325000Y-25900000D03*
X17125000Y-38850000D03*
X1020000Y-35720000D03*
X-7500000Y-33300000D03*
X11571447Y-19150000D03*
X12850000Y-12000000D03*
X-12300000Y-34000000D03*
X11571447Y-22650000D03*
X11250000Y-26650000D03*
X270000Y-33110000D03*
X12046447Y-21925000D03*
X738900Y-25550000D03*
X-3000000Y-30020000D03*
X-4500000Y-36350000D03*
X12050000Y-27425000D03*
X9675000Y-34225000D03*
X-1261100Y-23550000D03*
X14873224Y-28050000D03*
X-18150000Y-28000000D03*
%TO.N,/camera/MIPI.CSI_D2_P*%
X-1785230Y-28940000D03*
X364780Y-36520000D03*
%TO.N,/camera/MFP9_SDA*%
X5850000Y-32050000D03*
X-13150000Y-17500000D03*
X-10850000Y-25500000D03*
X4650000Y-23050000D03*
%TO.N,/camera/MFP10_SCL*%
X4800000Y-31200000D03*
X-13150000Y-18500000D03*
X3700000Y-23000000D03*
X-11100000Y-26550000D03*
%TO.N,/connector/V_POC*%
X8421447Y-25375000D03*
X8421447Y-24400000D03*
X6100000Y-15700000D03*
X15671447Y-24400000D03*
X6100000Y-13900000D03*
X15671447Y-25375000D03*
X7000000Y-14800000D03*
X6100000Y-14800000D03*
X7000000Y-15700000D03*
X7000000Y-13900000D03*
%TO.N,/camera/LED_EN*%
X3500000Y-32300000D03*
X-4675000Y-24950000D03*
%TO.N,/camera/POWER_EN*%
X3650000Y-26350000D03*
X3050000Y-35800000D03*
%TO.N,+1V2*%
X10696447Y-30000000D03*
X-5425000Y-20300000D03*
%TO.N,+1V8*%
X14700000Y-11600000D03*
X9796447Y-28100000D03*
X7946447Y-18400000D03*
X8946447Y-18400000D03*
%TO.N,Net-(U1-MFP8)*%
X7900000Y-33600000D03*
%TO.N,/gmsl/LOCK*%
X-5900000Y-22300000D03*
X-17100000Y-11700000D03*
%TO.N,/gmsl/ERRB*%
X-5700000Y-23500000D03*
X-10600000Y-11600000D03*
%TO.N,Net-(Q3-G)*%
X10200000Y-11000000D03*
X9146447Y-27300000D03*
X17623224Y-29200000D03*
%TO.N,Net-(U1-MFP7)*%
X6900000Y-33600000D03*
%TO.N,Net-(U1-MFP6)*%
X-4800000Y-26075000D03*
%TD*%
D16*
%TO.N,VDDIO*%
X6300000Y-28900000D02*
X9300000Y-31900000D01*
X5100000Y-28900000D02*
X6300000Y-28900000D01*
X2500000Y-23600000D02*
X2500000Y-26300000D01*
X18300000Y-30000000D02*
X15300000Y-33000000D01*
X9300000Y-31900000D02*
X14200000Y-31900000D01*
X125000Y-21225000D02*
X2500000Y-23600000D01*
X2500000Y-26300000D02*
X5100000Y-28900000D01*
X18300000Y-13300000D02*
X18300000Y-30000000D01*
X15300000Y-36200000D02*
X15300000Y-33000000D01*
X14200000Y-31900000D02*
X15300000Y-33000000D01*
X-8700000Y-21225000D02*
X125000Y-21225000D01*
%TO.N,+3V3*%
X16646447Y-18900000D02*
X16146447Y-18400000D01*
X16021447Y-26150000D02*
X16646447Y-25525000D01*
X14921447Y-26150000D02*
X16021447Y-26150000D01*
X16646447Y-25525000D02*
X16646447Y-18900000D01*
X12546447Y-29350000D02*
X12546447Y-28525000D01*
X12546447Y-28525000D02*
X14921447Y-26150000D01*
X15171447Y-18400000D02*
X16146447Y-18400000D01*
X16146447Y-18400000D02*
X16371447Y-18400000D01*
%TO.N,+1V2*%
X9200000Y-30000000D02*
X6300000Y-27100000D01*
X6300000Y-27100000D02*
X6300000Y-23700000D01*
X10696447Y-30000000D02*
X9200000Y-30000000D01*
X6300000Y-23700000D02*
X2900000Y-20300000D01*
X2900000Y-20300000D02*
X-5425000Y-20300000D01*
%TO.N,+1V8*%
X8946447Y-18400000D02*
X9900000Y-18400000D01*
X7596447Y-26696447D02*
X7596447Y-18750000D01*
X14700000Y-13600000D02*
X14700000Y-11600000D01*
X8946447Y-18400000D02*
X8971447Y-18400000D01*
X9000000Y-28100000D02*
X7596447Y-26696447D01*
X7946447Y-18400000D02*
X8946447Y-18400000D01*
X9900000Y-18400000D02*
X14700000Y-13600000D01*
X9796447Y-28100000D02*
X9000000Y-28100000D01*
X7596447Y-18750000D02*
X7946447Y-18400000D01*
%TD*%
%TA.AperFunction,Conductor*%
%TO.N,+3V3*%
G36*
X18004418Y-500816D02*
G01*
X18204561Y-515130D01*
X18222063Y-517647D01*
X18413797Y-559355D01*
X18430755Y-564334D01*
X18614609Y-632909D01*
X18630701Y-640259D01*
X18802904Y-734288D01*
X18817784Y-743849D01*
X18896432Y-802725D01*
X18974867Y-861441D01*
X18988237Y-873027D01*
X19126972Y-1011762D01*
X19138558Y-1025132D01*
X19256146Y-1182210D01*
X19265711Y-1197095D01*
X19359740Y-1369298D01*
X19367090Y-1385390D01*
X19435662Y-1569236D01*
X19440646Y-1586212D01*
X19482351Y-1777931D01*
X19484869Y-1795442D01*
X19499184Y-1995580D01*
X19499500Y-2004427D01*
X19499500Y-37995572D01*
X19499184Y-38004419D01*
X19484869Y-38204557D01*
X19482351Y-38222068D01*
X19440646Y-38413787D01*
X19435662Y-38430763D01*
X19367090Y-38614609D01*
X19359740Y-38630701D01*
X19265711Y-38802904D01*
X19256146Y-38817789D01*
X19138558Y-38974867D01*
X19126972Y-38988237D01*
X18988237Y-39126972D01*
X18974867Y-39138558D01*
X18817789Y-39256146D01*
X18802904Y-39265711D01*
X18630701Y-39359740D01*
X18614609Y-39367090D01*
X18430763Y-39435662D01*
X18413787Y-39440646D01*
X18222068Y-39482351D01*
X18204557Y-39484869D01*
X18035359Y-39496971D01*
X18004417Y-39499184D01*
X17995572Y-39499500D01*
X17548142Y-39499500D01*
X17481103Y-39479815D01*
X17435348Y-39427011D01*
X17425404Y-39357853D01*
X17454429Y-39294297D01*
X17472655Y-39277125D01*
X17478448Y-39272679D01*
X17517621Y-39242621D01*
X17605861Y-39127625D01*
X17661330Y-38993709D01*
X17680250Y-38850000D01*
X17661330Y-38706291D01*
X17609554Y-38581291D01*
X17605862Y-38572377D01*
X17605861Y-38572376D01*
X17605861Y-38572375D01*
X17517621Y-38457379D01*
X17402625Y-38369139D01*
X17402624Y-38369138D01*
X17402622Y-38369137D01*
X17268712Y-38313671D01*
X17268710Y-38313670D01*
X17268709Y-38313670D01*
X17196854Y-38304210D01*
X17125001Y-38294750D01*
X17124999Y-38294750D01*
X16981291Y-38313670D01*
X16981287Y-38313671D01*
X16847377Y-38369137D01*
X16732379Y-38457379D01*
X16644137Y-38572377D01*
X16588671Y-38706287D01*
X16588670Y-38706291D01*
X16569750Y-38849999D01*
X16569750Y-38850000D01*
X16588670Y-38993708D01*
X16588671Y-38993712D01*
X16644137Y-39127622D01*
X16644138Y-39127624D01*
X16644139Y-39127625D01*
X16732379Y-39242621D01*
X16762470Y-39265711D01*
X16777345Y-39277125D01*
X16818547Y-39333553D01*
X16822702Y-39403299D01*
X16788489Y-39464219D01*
X16726772Y-39496971D01*
X16701858Y-39499500D01*
X8067105Y-39499500D01*
X8000066Y-39479815D01*
X7954311Y-39427011D01*
X7944367Y-39357853D01*
X7973392Y-39294297D01*
X8019653Y-39260939D01*
X8063877Y-39242621D01*
X8152625Y-39205861D01*
X8267621Y-39117621D01*
X8355861Y-39002625D01*
X8411330Y-38868709D01*
X8430250Y-38725000D01*
X8411330Y-38581291D01*
X8355861Y-38447375D01*
X8267621Y-38332379D01*
X8152625Y-38244139D01*
X8152624Y-38244138D01*
X8152622Y-38244137D01*
X8018712Y-38188671D01*
X8018710Y-38188670D01*
X8018709Y-38188670D01*
X7946854Y-38179210D01*
X7875001Y-38169750D01*
X7874999Y-38169750D01*
X7731291Y-38188670D01*
X7731287Y-38188671D01*
X7597377Y-38244137D01*
X7482379Y-38332379D01*
X7394137Y-38447377D01*
X7338671Y-38581287D01*
X7338670Y-38581291D01*
X7334284Y-38614609D01*
X7319750Y-38725000D01*
X7330006Y-38802904D01*
X7338670Y-38868708D01*
X7338671Y-38868712D01*
X7394137Y-39002622D01*
X7394138Y-39002624D01*
X7394139Y-39002625D01*
X7482379Y-39117621D01*
X7597375Y-39205861D01*
X7597376Y-39205861D01*
X7597377Y-39205862D01*
X7730347Y-39260939D01*
X7784751Y-39304779D01*
X7806816Y-39371073D01*
X7789537Y-39438773D01*
X7738400Y-39486384D01*
X7682895Y-39499500D01*
X-17995572Y-39499500D01*
X-18004418Y-39499184D01*
X-18035359Y-39496971D01*
X-18204558Y-39484869D01*
X-18222069Y-39482351D01*
X-18413788Y-39440646D01*
X-18430764Y-39435662D01*
X-18614610Y-39367090D01*
X-18630702Y-39359740D01*
X-18802905Y-39265711D01*
X-18817790Y-39256146D01*
X-18835856Y-39242622D01*
X-18974868Y-39138558D01*
X-18988238Y-39126972D01*
X-19126973Y-38988237D01*
X-19138559Y-38974867D01*
X-19232034Y-38850000D01*
X-19256151Y-38817784D01*
X-19265712Y-38802904D01*
X-19359741Y-38630701D01*
X-19367091Y-38614609D01*
X-19420698Y-38470884D01*
X-19435666Y-38430755D01*
X-19440645Y-38413797D01*
X-19482353Y-38222063D01*
X-19484870Y-38204556D01*
X-19487481Y-38168056D01*
X-19499184Y-38004418D01*
X-19499342Y-37999997D01*
X-18755249Y-37999997D01*
X-18755249Y-38000002D01*
X-18736315Y-38168056D01*
X-18680455Y-38327694D01*
X-18680453Y-38327697D01*
X-18590482Y-38470884D01*
X-18590477Y-38470890D01*
X-18470891Y-38590476D01*
X-18470885Y-38590481D01*
X-18327698Y-38680452D01*
X-18327695Y-38680454D01*
X-18327691Y-38680455D01*
X-18327690Y-38680456D01*
X-18255087Y-38705860D01*
X-18168057Y-38736314D01*
X-18000003Y-38755249D01*
X-18000000Y-38755249D01*
X-17999997Y-38755249D01*
X-17831944Y-38736314D01*
X-17831941Y-38736313D01*
X-17672310Y-38680456D01*
X-17672308Y-38680454D01*
X-17672306Y-38680454D01*
X-17672303Y-38680452D01*
X-17529116Y-38590481D01*
X-17529115Y-38590480D01*
X-17529110Y-38590477D01*
X-17409523Y-38470890D01*
X-17397371Y-38451551D01*
X-17319548Y-38327697D01*
X-17319546Y-38327694D01*
X-17319546Y-38327692D01*
X-17319544Y-38327690D01*
X-17263687Y-38168059D01*
X-17263687Y-38168058D01*
X-17263686Y-38168056D01*
X-17244751Y-38000002D01*
X-17244751Y-37999997D01*
X-17263686Y-37831943D01*
X-17319546Y-37672305D01*
X-17319548Y-37672302D01*
X-17409519Y-37529115D01*
X-17409524Y-37529109D01*
X-17529110Y-37409523D01*
X-17529116Y-37409518D01*
X-17672303Y-37319547D01*
X-17672306Y-37319545D01*
X-17831944Y-37263685D01*
X-17999997Y-37244751D01*
X-18000003Y-37244751D01*
X-18168057Y-37263685D01*
X-18327695Y-37319545D01*
X-18327698Y-37319547D01*
X-18470885Y-37409518D01*
X-18470891Y-37409523D01*
X-18590477Y-37529109D01*
X-18590482Y-37529115D01*
X-18680453Y-37672302D01*
X-18680455Y-37672305D01*
X-18736315Y-37831943D01*
X-18755249Y-37999997D01*
X-19499342Y-37999997D01*
X-19499500Y-37995572D01*
X-19499500Y-36600000D01*
X-13255250Y-36600000D01*
X-13237302Y-36736329D01*
X-13236330Y-36743708D01*
X-13236329Y-36743712D01*
X-13180863Y-36877622D01*
X-13180862Y-36877624D01*
X-13180861Y-36877625D01*
X-13092621Y-36992621D01*
X-12977625Y-37080861D01*
X-12977624Y-37080861D01*
X-12977623Y-37080862D01*
X-12932987Y-37099350D01*
X-12843709Y-37136330D01*
X-12716720Y-37153048D01*
X-12700001Y-37155250D01*
X-12700000Y-37155250D01*
X-12699999Y-37155250D01*
X-12685023Y-37153278D01*
X-12556291Y-37136330D01*
X-12528935Y-37124999D01*
X-11055250Y-37124999D01*
X-11055250Y-37125000D01*
X-11036330Y-37268708D01*
X-11036329Y-37268712D01*
X-10980863Y-37402622D01*
X-10980862Y-37402624D01*
X-10980861Y-37402625D01*
X-10892621Y-37517621D01*
X-10777625Y-37605861D01*
X-10643709Y-37661330D01*
X-10516720Y-37678048D01*
X-10500001Y-37680250D01*
X-10500000Y-37680250D01*
X-10499999Y-37680250D01*
X-10485023Y-37678278D01*
X-10356291Y-37661330D01*
X-10222375Y-37605861D01*
X-10107379Y-37517621D01*
X-10019139Y-37402625D01*
X-9963670Y-37268709D01*
X-9944750Y-37125000D01*
X-9963670Y-36981291D01*
X-10019139Y-36847375D01*
X-10107379Y-36732379D01*
X-10222375Y-36644139D01*
X-10222376Y-36644138D01*
X-10222378Y-36644137D01*
X-10356288Y-36588671D01*
X-10356290Y-36588670D01*
X-10356291Y-36588670D01*
X-10441240Y-36577486D01*
X-10499999Y-36569750D01*
X-10500001Y-36569750D01*
X-10643709Y-36588670D01*
X-10643713Y-36588671D01*
X-10777623Y-36644137D01*
X-10892621Y-36732379D01*
X-10980863Y-36847377D01*
X-11036329Y-36981287D01*
X-11036330Y-36981291D01*
X-11055250Y-37124999D01*
X-12528935Y-37124999D01*
X-12422375Y-37080861D01*
X-12307379Y-36992621D01*
X-12219139Y-36877625D01*
X-12163670Y-36743709D01*
X-12144750Y-36600000D01*
X-12146242Y-36588671D01*
X-12152161Y-36543708D01*
X-12163670Y-36456291D01*
X-12205522Y-36355250D01*
X-12207697Y-36350000D01*
X-5055250Y-36350000D01*
X-5038022Y-36480861D01*
X-5036330Y-36493708D01*
X-5036329Y-36493712D01*
X-4980863Y-36627622D01*
X-4980862Y-36627624D01*
X-4980861Y-36627625D01*
X-4892621Y-36742621D01*
X-4777625Y-36830861D01*
X-4777624Y-36830861D01*
X-4777623Y-36830862D01*
X-4737756Y-36847375D01*
X-4643709Y-36886330D01*
X-4516720Y-36903048D01*
X-4500001Y-36905250D01*
X-4500000Y-36905250D01*
X-4499999Y-36905250D01*
X-4485023Y-36903278D01*
X-4356291Y-36886330D01*
X-4222375Y-36830861D01*
X-4107379Y-36742621D01*
X-4019139Y-36627625D01*
X-3963670Y-36493709D01*
X-3951333Y-36400000D01*
X-3505250Y-36400000D01*
X-3487302Y-36536329D01*
X-3486330Y-36543708D01*
X-3486329Y-36543712D01*
X-3430863Y-36677622D01*
X-3430862Y-36677624D01*
X-3430861Y-36677625D01*
X-3342621Y-36792621D01*
X-3227625Y-36880861D01*
X-3227624Y-36880861D01*
X-3227623Y-36880862D01*
X-3182987Y-36899350D01*
X-3093709Y-36936330D01*
X-2966720Y-36953048D01*
X-2950001Y-36955250D01*
X-2950000Y-36955250D01*
X-2949999Y-36955250D01*
X-2935023Y-36953278D01*
X-2806291Y-36936330D01*
X-2672375Y-36880861D01*
X-2557379Y-36792621D01*
X-2469139Y-36677625D01*
X-2413670Y-36543709D01*
X-2394750Y-36400000D01*
X-2413670Y-36256291D01*
X-2469139Y-36122375D01*
X-2486308Y-36100000D01*
X-2055250Y-36100000D01*
X-2036506Y-36242375D01*
X-2036330Y-36243708D01*
X-2036329Y-36243712D01*
X-1980863Y-36377622D01*
X-1980862Y-36377624D01*
X-1980861Y-36377625D01*
X-1892621Y-36492621D01*
X-1777625Y-36580861D01*
X-1777624Y-36580861D01*
X-1777623Y-36580862D01*
X-1732987Y-36599350D01*
X-1643709Y-36636330D01*
X-1516720Y-36653048D01*
X-1500001Y-36655250D01*
X-1500000Y-36655250D01*
X-1499999Y-36655250D01*
X-1485023Y-36653278D01*
X-1356291Y-36636330D01*
X-1222375Y-36580861D01*
X-1110865Y-36495295D01*
X-1045700Y-36470102D01*
X-977255Y-36484140D01*
X-927264Y-36532953D01*
X-912442Y-36577486D01*
X-910969Y-36588670D01*
X-902204Y-36655250D01*
X-901090Y-36663707D01*
X-901089Y-36663712D01*
X-845623Y-36797622D01*
X-845622Y-36797624D01*
X-845621Y-36797625D01*
X-757381Y-36912621D01*
X-642385Y-37000861D01*
X-508469Y-37056330D01*
X-381480Y-37073048D01*
X-364761Y-37075250D01*
X-364760Y-37075250D01*
X-364759Y-37075250D01*
X-349783Y-37073278D01*
X-221051Y-37056330D01*
X-87135Y-37000861D01*
X-75477Y-36991915D01*
X-10311Y-36966720D01*
X58135Y-36980757D01*
X75492Y-36991911D01*
X87155Y-37000861D01*
X221071Y-37056330D01*
X348060Y-37073048D01*
X364779Y-37075250D01*
X364780Y-37075250D01*
X364781Y-37075250D01*
X379757Y-37073278D01*
X508489Y-37056330D01*
X642405Y-37000861D01*
X757401Y-36912621D01*
X845641Y-36797625D01*
X886078Y-36700000D01*
X3544750Y-36700000D01*
X3561978Y-36830861D01*
X3563670Y-36843708D01*
X3563671Y-36843712D01*
X3619137Y-36977622D01*
X3619138Y-36977624D01*
X3619139Y-36977625D01*
X3707379Y-37092621D01*
X3822375Y-37180861D01*
X3956291Y-37236330D01*
X4083280Y-37253048D01*
X4099999Y-37255250D01*
X4100000Y-37255250D01*
X4100001Y-37255250D01*
X4114977Y-37253278D01*
X4243709Y-37236330D01*
X4377625Y-37180861D01*
X4492621Y-37092621D01*
X4580861Y-36977625D01*
X4636330Y-36843709D01*
X4655250Y-36700000D01*
X4636330Y-36556291D01*
X4586641Y-36436329D01*
X4580862Y-36422377D01*
X4580861Y-36422376D01*
X4580861Y-36422375D01*
X4492621Y-36307379D01*
X4377625Y-36219139D01*
X4377624Y-36219138D01*
X4377622Y-36219137D01*
X4243712Y-36163671D01*
X4243710Y-36163670D01*
X4243709Y-36163670D01*
X4139095Y-36149897D01*
X4100001Y-36144750D01*
X4099999Y-36144750D01*
X3956291Y-36163670D01*
X3956287Y-36163671D01*
X3822377Y-36219137D01*
X3707379Y-36307379D01*
X3619137Y-36422377D01*
X3563671Y-36556287D01*
X3563670Y-36556291D01*
X3547270Y-36680862D01*
X3544750Y-36700000D01*
X886078Y-36700000D01*
X901110Y-36663709D01*
X920030Y-36520000D01*
X906245Y-36415295D01*
X917010Y-36346261D01*
X963390Y-36294005D01*
X1012999Y-36276171D01*
X1019997Y-36275249D01*
X1020000Y-36275250D01*
X1163709Y-36256330D01*
X1297625Y-36200861D01*
X1412621Y-36112621D01*
X1500861Y-35997625D01*
X1556330Y-35863709D01*
X1564718Y-35800000D01*
X2494750Y-35800000D01*
X2510861Y-35922376D01*
X2513670Y-35943708D01*
X2513671Y-35943712D01*
X2569137Y-36077622D01*
X2569138Y-36077624D01*
X2569139Y-36077625D01*
X2657379Y-36192621D01*
X2772375Y-36280861D01*
X2772376Y-36280861D01*
X2772377Y-36280862D01*
X2804108Y-36294005D01*
X2906291Y-36336330D01*
X3033280Y-36353048D01*
X3049999Y-36355250D01*
X3050000Y-36355250D01*
X3050001Y-36355250D01*
X3064977Y-36353278D01*
X3193709Y-36336330D01*
X3327625Y-36280861D01*
X3442621Y-36192621D01*
X3530861Y-36077625D01*
X3563014Y-36000000D01*
X12944750Y-36000000D01*
X12958706Y-36106008D01*
X12963670Y-36143708D01*
X12963671Y-36143712D01*
X13019137Y-36277622D01*
X13019138Y-36277624D01*
X13019139Y-36277625D01*
X13107379Y-36392621D01*
X13222375Y-36480861D01*
X13222376Y-36480861D01*
X13222377Y-36480862D01*
X13257227Y-36495297D01*
X13356291Y-36536330D01*
X13483280Y-36553048D01*
X13499999Y-36555250D01*
X13500000Y-36555250D01*
X13500001Y-36555250D01*
X13514977Y-36553278D01*
X13643709Y-36536330D01*
X13777625Y-36480861D01*
X13892621Y-36392621D01*
X13980861Y-36277625D01*
X14036330Y-36143709D01*
X14055250Y-36000000D01*
X14036330Y-35856291D01*
X13980861Y-35722375D01*
X13892621Y-35607379D01*
X13777625Y-35519139D01*
X13777624Y-35519138D01*
X13777622Y-35519137D01*
X13643712Y-35463671D01*
X13643710Y-35463670D01*
X13643709Y-35463670D01*
X13571854Y-35454210D01*
X13500001Y-35444750D01*
X13499999Y-35444750D01*
X13356291Y-35463670D01*
X13356287Y-35463671D01*
X13222377Y-35519137D01*
X13107379Y-35607379D01*
X13019137Y-35722377D01*
X12963671Y-35856287D01*
X12963670Y-35856291D01*
X12950505Y-35956291D01*
X12944750Y-36000000D01*
X3563014Y-36000000D01*
X3586330Y-35943709D01*
X3605250Y-35800000D01*
X3586330Y-35656291D01*
X3530861Y-35522375D01*
X3442621Y-35407379D01*
X3327625Y-35319139D01*
X3327624Y-35319138D01*
X3327622Y-35319137D01*
X3193712Y-35263671D01*
X3193710Y-35263670D01*
X3193709Y-35263670D01*
X3121854Y-35254210D01*
X3050001Y-35244750D01*
X3049999Y-35244750D01*
X2906291Y-35263670D01*
X2906287Y-35263671D01*
X2772377Y-35319137D01*
X2657379Y-35407379D01*
X2569137Y-35522377D01*
X2513671Y-35656287D01*
X2513670Y-35656291D01*
X2500505Y-35756291D01*
X2494750Y-35800000D01*
X1564718Y-35800000D01*
X1575250Y-35720000D01*
X1556330Y-35576291D01*
X1500861Y-35442375D01*
X1412621Y-35327379D01*
X1297625Y-35239139D01*
X1297624Y-35239138D01*
X1297622Y-35239137D01*
X1163712Y-35183671D01*
X1163710Y-35183670D01*
X1163709Y-35183670D01*
X1077362Y-35172302D01*
X1020001Y-35164750D01*
X1019999Y-35164750D01*
X876291Y-35183670D01*
X876287Y-35183671D01*
X742377Y-35239137D01*
X627379Y-35327379D01*
X539137Y-35442377D01*
X483671Y-35576287D01*
X483670Y-35576291D01*
X464750Y-35719999D01*
X464750Y-35720002D01*
X478534Y-35824704D01*
X467768Y-35893739D01*
X421388Y-35945995D01*
X371781Y-35963828D01*
X268835Y-35977381D01*
X221071Y-35983670D01*
X221070Y-35983670D01*
X221067Y-35983671D01*
X87156Y-36039138D01*
X87154Y-36039139D01*
X75496Y-36048085D01*
X10326Y-36073279D01*
X-58118Y-36059240D01*
X-75476Y-36048085D01*
X-87135Y-36039139D01*
X-87137Y-36039138D01*
X-221048Y-35983671D01*
X-221050Y-35983670D01*
X-221051Y-35983670D01*
X-318123Y-35970890D01*
X-364759Y-35964750D01*
X-364761Y-35964750D01*
X-508469Y-35983670D01*
X-508473Y-35983671D01*
X-642383Y-36039137D01*
X-686877Y-36073279D01*
X-753895Y-36124703D01*
X-819063Y-36149897D01*
X-887507Y-36135859D01*
X-937497Y-36087045D01*
X-952319Y-36042512D01*
X-957916Y-36000000D01*
X-963670Y-35956291D01*
X-1009871Y-35844750D01*
X-1019138Y-35822377D01*
X-1019139Y-35822376D01*
X-1019139Y-35822375D01*
X-1107379Y-35707379D01*
X-1222375Y-35619139D01*
X-1222376Y-35619138D01*
X-1222378Y-35619137D01*
X-1356288Y-35563671D01*
X-1356290Y-35563670D01*
X-1356291Y-35563670D01*
X-1428146Y-35554210D01*
X-1499999Y-35544750D01*
X-1500001Y-35544750D01*
X-1643709Y-35563670D01*
X-1643713Y-35563671D01*
X-1777623Y-35619137D01*
X-1892621Y-35707379D01*
X-1980863Y-35822377D01*
X-2036329Y-35956287D01*
X-2036330Y-35956291D01*
X-2053544Y-36087045D01*
X-2055250Y-36100000D01*
X-2486308Y-36100000D01*
X-2557379Y-36007379D01*
X-2672375Y-35919139D01*
X-2672376Y-35919138D01*
X-2672378Y-35919137D01*
X-2806288Y-35863671D01*
X-2806290Y-35863670D01*
X-2806291Y-35863670D01*
X-2878146Y-35854210D01*
X-2949999Y-35844750D01*
X-2950001Y-35844750D01*
X-3093709Y-35863670D01*
X-3093713Y-35863671D01*
X-3227623Y-35919137D01*
X-3342621Y-36007379D01*
X-3430863Y-36122377D01*
X-3486329Y-36256287D01*
X-3486330Y-36256291D01*
X-3504278Y-36392620D01*
X-3505250Y-36400000D01*
X-3951333Y-36400000D01*
X-3944750Y-36350000D01*
X-3963670Y-36206291D01*
X-4005208Y-36106008D01*
X-4019138Y-36072377D01*
X-4019139Y-36072376D01*
X-4019139Y-36072375D01*
X-4107379Y-35957379D01*
X-4222375Y-35869139D01*
X-4222376Y-35869138D01*
X-4222378Y-35869137D01*
X-4356288Y-35813671D01*
X-4356290Y-35813670D01*
X-4356291Y-35813670D01*
X-4460123Y-35800000D01*
X-4499999Y-35794750D01*
X-4500001Y-35794750D01*
X-4643709Y-35813670D01*
X-4643713Y-35813671D01*
X-4777623Y-35869137D01*
X-4892621Y-35957379D01*
X-4980863Y-36072377D01*
X-5036329Y-36206287D01*
X-5036330Y-36206291D01*
X-5045721Y-36277625D01*
X-5055250Y-36350000D01*
X-12207697Y-36350000D01*
X-12219138Y-36322377D01*
X-12219139Y-36322376D01*
X-12219139Y-36322375D01*
X-12307379Y-36207379D01*
X-12422375Y-36119139D01*
X-12422376Y-36119138D01*
X-12422378Y-36119137D01*
X-12556288Y-36063671D01*
X-12556290Y-36063670D01*
X-12556291Y-36063670D01*
X-12628146Y-36054210D01*
X-12699999Y-36044750D01*
X-12700001Y-36044750D01*
X-12843709Y-36063670D01*
X-12843713Y-36063671D01*
X-12977623Y-36119137D01*
X-13092621Y-36207379D01*
X-13180863Y-36322377D01*
X-13236329Y-36456287D01*
X-13236330Y-36456291D01*
X-13254278Y-36592620D01*
X-13255250Y-36600000D01*
X-19499500Y-36600000D01*
X-19499500Y-35499997D01*
X-18755249Y-35499997D01*
X-18755249Y-35500002D01*
X-18736315Y-35668056D01*
X-18680455Y-35827694D01*
X-18680453Y-35827697D01*
X-18590482Y-35970884D01*
X-18590477Y-35970890D01*
X-18470891Y-36090476D01*
X-18470885Y-36090481D01*
X-18327698Y-36180452D01*
X-18327695Y-36180454D01*
X-18327691Y-36180455D01*
X-18327690Y-36180456D01*
X-18269373Y-36200862D01*
X-18168057Y-36236314D01*
X-18000003Y-36255249D01*
X-18000000Y-36255249D01*
X-17999997Y-36255249D01*
X-17831944Y-36236314D01*
X-17831941Y-36236313D01*
X-17672310Y-36180456D01*
X-17672308Y-36180454D01*
X-17672306Y-36180454D01*
X-17672303Y-36180452D01*
X-17529116Y-36090481D01*
X-17529115Y-36090480D01*
X-17529110Y-36090477D01*
X-17409523Y-35970890D01*
X-17405665Y-35964750D01*
X-17319548Y-35827697D01*
X-17319546Y-35827694D01*
X-17319546Y-35827692D01*
X-17319544Y-35827690D01*
X-17263687Y-35668059D01*
X-17263687Y-35668058D01*
X-17263686Y-35668056D01*
X-17244751Y-35500002D01*
X-17244751Y-35499997D01*
X-17263686Y-35331943D01*
X-17319546Y-35172305D01*
X-17319548Y-35172302D01*
X-17409519Y-35029115D01*
X-17409524Y-35029109D01*
X-17529110Y-34909523D01*
X-17529116Y-34909518D01*
X-17672303Y-34819547D01*
X-17672306Y-34819545D01*
X-17831944Y-34763685D01*
X-17999997Y-34744751D01*
X-18000003Y-34744751D01*
X-18168057Y-34763685D01*
X-18327695Y-34819545D01*
X-18327698Y-34819547D01*
X-18470885Y-34909518D01*
X-18470891Y-34909523D01*
X-18590477Y-35029109D01*
X-18590482Y-35029115D01*
X-18680453Y-35172302D01*
X-18680455Y-35172305D01*
X-18736315Y-35331943D01*
X-18755249Y-35499997D01*
X-19499500Y-35499997D01*
X-19499500Y-34000000D01*
X-12855250Y-34000000D01*
X-12837302Y-34136329D01*
X-12836330Y-34143708D01*
X-12836329Y-34143712D01*
X-12780863Y-34277622D01*
X-12780862Y-34277624D01*
X-12780861Y-34277625D01*
X-12692621Y-34392621D01*
X-12577625Y-34480861D01*
X-12443709Y-34536330D01*
X-12316720Y-34553048D01*
X-12300001Y-34555250D01*
X-12300000Y-34555250D01*
X-12299999Y-34555250D01*
X-12285023Y-34553278D01*
X-12156291Y-34536330D01*
X-12022375Y-34480861D01*
X-11907379Y-34392621D01*
X-11819139Y-34277625D01*
X-11797341Y-34224999D01*
X9119750Y-34224999D01*
X9119750Y-34225000D01*
X9138670Y-34368708D01*
X9138671Y-34368712D01*
X9194137Y-34502622D01*
X9194138Y-34502624D01*
X9194139Y-34502625D01*
X9282379Y-34617621D01*
X9397375Y-34705861D01*
X9531291Y-34761330D01*
X9658280Y-34778048D01*
X9674999Y-34780250D01*
X9675000Y-34780250D01*
X9675001Y-34780250D01*
X9689977Y-34778278D01*
X9818709Y-34761330D01*
X9952625Y-34705861D01*
X10067621Y-34617621D01*
X10155861Y-34502625D01*
X10211330Y-34368709D01*
X10230250Y-34225000D01*
X10211330Y-34081291D01*
X10155861Y-33947375D01*
X10067621Y-33832379D01*
X9952625Y-33744139D01*
X9952624Y-33744138D01*
X9952622Y-33744137D01*
X9818712Y-33688671D01*
X9818710Y-33688670D01*
X9818709Y-33688670D01*
X9746854Y-33679210D01*
X9675001Y-33669750D01*
X9674999Y-33669750D01*
X9531291Y-33688670D01*
X9531287Y-33688671D01*
X9397377Y-33744137D01*
X9282379Y-33832379D01*
X9194137Y-33947377D01*
X9138671Y-34081287D01*
X9138670Y-34081291D01*
X9119750Y-34224999D01*
X-11797341Y-34224999D01*
X-11763670Y-34143709D01*
X-11744750Y-34000000D01*
X-11763670Y-33856291D01*
X-11819139Y-33722375D01*
X-11907379Y-33607379D01*
X-12022375Y-33519139D01*
X-12022376Y-33519138D01*
X-12022378Y-33519137D01*
X-12156288Y-33463671D01*
X-12156290Y-33463670D01*
X-12156291Y-33463670D01*
X-12228146Y-33454210D01*
X-12299999Y-33444750D01*
X-12300001Y-33444750D01*
X-12443709Y-33463670D01*
X-12443713Y-33463671D01*
X-12577623Y-33519137D01*
X-12692621Y-33607379D01*
X-12780863Y-33722377D01*
X-12836329Y-33856287D01*
X-12836330Y-33856291D01*
X-12854278Y-33992620D01*
X-12855250Y-34000000D01*
X-19499500Y-34000000D01*
X-19499500Y-32999997D01*
X-18755249Y-32999997D01*
X-18755249Y-33000002D01*
X-18736315Y-33168056D01*
X-18680455Y-33327694D01*
X-18680453Y-33327697D01*
X-18590482Y-33470884D01*
X-18590477Y-33470890D01*
X-18470891Y-33590476D01*
X-18470885Y-33590481D01*
X-18327698Y-33680452D01*
X-18327695Y-33680454D01*
X-18327691Y-33680455D01*
X-18327690Y-33680456D01*
X-18292927Y-33692620D01*
X-18168057Y-33736314D01*
X-18000003Y-33755249D01*
X-18000000Y-33755249D01*
X-17999997Y-33755249D01*
X-17831944Y-33736314D01*
X-17831941Y-33736313D01*
X-17672310Y-33680456D01*
X-17672308Y-33680454D01*
X-17672306Y-33680454D01*
X-17672303Y-33680452D01*
X-17529116Y-33590481D01*
X-17529115Y-33590480D01*
X-17529110Y-33590477D01*
X-17409523Y-33470890D01*
X-17393098Y-33444750D01*
X-17319548Y-33327697D01*
X-17319546Y-33327694D01*
X-17319546Y-33327692D01*
X-17319544Y-33327690D01*
X-17309855Y-33300000D01*
X-8055250Y-33300000D01*
X-8041529Y-33404223D01*
X-8036330Y-33443708D01*
X-8036329Y-33443712D01*
X-7980863Y-33577622D01*
X-7980862Y-33577624D01*
X-7980861Y-33577625D01*
X-7892621Y-33692621D01*
X-7777625Y-33780861D01*
X-7643709Y-33836330D01*
X-7516720Y-33853048D01*
X-7500001Y-33855250D01*
X-7500000Y-33855250D01*
X-7499999Y-33855250D01*
X-7485023Y-33853278D01*
X-7356291Y-33836330D01*
X-7222375Y-33780861D01*
X-7107379Y-33692621D01*
X-7019139Y-33577625D01*
X-6963670Y-33443709D01*
X-6944750Y-33300000D01*
X-6963670Y-33156291D01*
X-6982844Y-33110000D01*
X-285250Y-33110000D01*
X-269418Y-33230257D01*
X-266330Y-33253708D01*
X-266329Y-33253712D01*
X-210863Y-33387622D01*
X-210862Y-33387624D01*
X-210861Y-33387625D01*
X-122621Y-33502621D01*
X-7625Y-33590861D01*
X126291Y-33646330D01*
X253280Y-33663048D01*
X269999Y-33665250D01*
X270000Y-33665250D01*
X270001Y-33665250D01*
X284977Y-33663278D01*
X413709Y-33646330D01*
X525561Y-33600000D01*
X6344750Y-33600000D01*
X6362696Y-33736314D01*
X6363670Y-33743708D01*
X6363671Y-33743712D01*
X6419137Y-33877622D01*
X6419138Y-33877624D01*
X6419139Y-33877625D01*
X6507379Y-33992621D01*
X6622375Y-34080861D01*
X6756291Y-34136330D01*
X6883280Y-34153048D01*
X6899999Y-34155250D01*
X6900000Y-34155250D01*
X6900001Y-34155250D01*
X6914977Y-34153278D01*
X7043709Y-34136330D01*
X7177625Y-34080861D01*
X7292621Y-33992621D01*
X7301625Y-33980886D01*
X7358050Y-33939685D01*
X7427796Y-33935529D01*
X7488717Y-33969740D01*
X7498367Y-33980876D01*
X7507379Y-33992621D01*
X7622375Y-34080861D01*
X7756291Y-34136330D01*
X7883280Y-34153048D01*
X7899999Y-34155250D01*
X7900000Y-34155250D01*
X7900001Y-34155250D01*
X7914977Y-34153278D01*
X8043709Y-34136330D01*
X8177625Y-34080861D01*
X8292621Y-33992621D01*
X8380861Y-33877625D01*
X8436330Y-33743709D01*
X8455250Y-33600000D01*
X8436330Y-33456291D01*
X8386641Y-33336329D01*
X8380862Y-33322377D01*
X8380861Y-33322376D01*
X8380861Y-33322375D01*
X8292621Y-33207379D01*
X8177625Y-33119139D01*
X8177624Y-33119138D01*
X8177622Y-33119137D01*
X8043712Y-33063671D01*
X8043710Y-33063670D01*
X8043709Y-33063670D01*
X7971854Y-33054210D01*
X7900001Y-33044750D01*
X7899999Y-33044750D01*
X7756291Y-33063670D01*
X7756287Y-33063671D01*
X7622377Y-33119137D01*
X7590355Y-33143709D01*
X7507379Y-33207379D01*
X7507378Y-33207380D01*
X7507377Y-33207381D01*
X7498375Y-33219113D01*
X7441947Y-33260316D01*
X7372201Y-33264470D01*
X7311281Y-33230257D01*
X7301625Y-33219113D01*
X7299782Y-33216711D01*
X7292621Y-33207379D01*
X7177625Y-33119139D01*
X7177624Y-33119138D01*
X7177622Y-33119137D01*
X7043712Y-33063671D01*
X7043710Y-33063670D01*
X7043709Y-33063670D01*
X6971854Y-33054210D01*
X6900001Y-33044750D01*
X6899999Y-33044750D01*
X6756291Y-33063670D01*
X6756287Y-33063671D01*
X6622377Y-33119137D01*
X6507379Y-33207379D01*
X6419137Y-33322377D01*
X6363671Y-33456287D01*
X6363670Y-33456291D01*
X6344750Y-33600000D01*
X525561Y-33600000D01*
X547625Y-33590861D01*
X662621Y-33502621D01*
X750861Y-33387625D01*
X806330Y-33253709D01*
X825250Y-33110000D01*
X806330Y-32966291D01*
X752499Y-32836329D01*
X750862Y-32832377D01*
X750861Y-32832376D01*
X750861Y-32832375D01*
X662621Y-32717379D01*
X547625Y-32629139D01*
X547624Y-32629138D01*
X547622Y-32629137D01*
X413712Y-32573671D01*
X413710Y-32573670D01*
X413709Y-32573670D01*
X341854Y-32564210D01*
X270001Y-32554750D01*
X269999Y-32554750D01*
X126291Y-32573670D01*
X126287Y-32573671D01*
X-7623Y-32629137D01*
X-122621Y-32717379D01*
X-210863Y-32832377D01*
X-266329Y-32966287D01*
X-266330Y-32966291D01*
X-279150Y-33063670D01*
X-285250Y-33110000D01*
X-6982844Y-33110000D01*
X-7019139Y-33022375D01*
X-7107379Y-32907379D01*
X-7222375Y-32819139D01*
X-7222376Y-32819138D01*
X-7222378Y-32819137D01*
X-7356288Y-32763671D01*
X-7356290Y-32763670D01*
X-7356291Y-32763670D01*
X-7428146Y-32754210D01*
X-7499999Y-32744750D01*
X-7500001Y-32744750D01*
X-7643709Y-32763670D01*
X-7643713Y-32763671D01*
X-7777623Y-32819137D01*
X-7892621Y-32907379D01*
X-7980863Y-33022377D01*
X-8036329Y-33156287D01*
X-8036330Y-33156291D01*
X-8052730Y-33280862D01*
X-8055250Y-33300000D01*
X-17309855Y-33300000D01*
X-17263687Y-33168059D01*
X-17263687Y-33168058D01*
X-17263686Y-33168056D01*
X-17244751Y-33000002D01*
X-17244751Y-32999997D01*
X-17263686Y-32831943D01*
X-17319546Y-32672305D01*
X-17319548Y-32672302D01*
X-17409519Y-32529115D01*
X-17409524Y-32529109D01*
X-17529110Y-32409523D01*
X-17529116Y-32409518D01*
X-17672303Y-32319547D01*
X-17672306Y-32319545D01*
X-17831944Y-32263685D01*
X-17999997Y-32244751D01*
X-18000003Y-32244751D01*
X-18168057Y-32263685D01*
X-18327695Y-32319545D01*
X-18327698Y-32319547D01*
X-18470885Y-32409518D01*
X-18470891Y-32409523D01*
X-18590477Y-32529109D01*
X-18590482Y-32529115D01*
X-18680453Y-32672302D01*
X-18680455Y-32672305D01*
X-18736315Y-32831943D01*
X-18755249Y-32999997D01*
X-19499500Y-32999997D01*
X-19499500Y-31760000D01*
X-1865250Y-31760000D01*
X-1863621Y-31772377D01*
X-1846330Y-31903708D01*
X-1846329Y-31903712D01*
X-1790863Y-32037622D01*
X-1790862Y-32037624D01*
X-1790861Y-32037625D01*
X-1702621Y-32152621D01*
X-1587625Y-32240861D01*
X-1453709Y-32296330D01*
X-1326720Y-32313048D01*
X-1310001Y-32315250D01*
X-1310000Y-32315250D01*
X-1309999Y-32315250D01*
X-1295023Y-32313278D01*
X-1194160Y-32299999D01*
X2944750Y-32299999D01*
X2944750Y-32300000D01*
X2963670Y-32443708D01*
X2963671Y-32443712D01*
X3019137Y-32577622D01*
X3019138Y-32577624D01*
X3019139Y-32577625D01*
X3107379Y-32692621D01*
X3222375Y-32780861D01*
X3356291Y-32836330D01*
X3483280Y-32853048D01*
X3499999Y-32855250D01*
X3500000Y-32855250D01*
X3500001Y-32855250D01*
X3514977Y-32853278D01*
X3643709Y-32836330D01*
X3777625Y-32780861D01*
X3892621Y-32692621D01*
X3980861Y-32577625D01*
X4036330Y-32443709D01*
X4055250Y-32300000D01*
X4054879Y-32297185D01*
X4048901Y-32251774D01*
X4036330Y-32156291D01*
X3999350Y-32067013D01*
X3992303Y-32050000D01*
X5294750Y-32050000D01*
X5308260Y-32152620D01*
X5313670Y-32193708D01*
X5313671Y-32193712D01*
X5369137Y-32327622D01*
X5369138Y-32327624D01*
X5369139Y-32327625D01*
X5457379Y-32442621D01*
X5572375Y-32530861D01*
X5706291Y-32586330D01*
X5833280Y-32603048D01*
X5849999Y-32605250D01*
X5850000Y-32605250D01*
X5850001Y-32605250D01*
X5864977Y-32603278D01*
X5993709Y-32586330D01*
X6127625Y-32530861D01*
X6242621Y-32442621D01*
X6330861Y-32327625D01*
X6386330Y-32193709D01*
X6405250Y-32050000D01*
X6386330Y-31906291D01*
X6330861Y-31772375D01*
X6242621Y-31657379D01*
X6127625Y-31569139D01*
X6127624Y-31569138D01*
X6127622Y-31569137D01*
X5993712Y-31513671D01*
X5993710Y-31513670D01*
X5993709Y-31513670D01*
X5911259Y-31502815D01*
X5850001Y-31494750D01*
X5849999Y-31494750D01*
X5706291Y-31513670D01*
X5706287Y-31513671D01*
X5572377Y-31569137D01*
X5457379Y-31657379D01*
X5369137Y-31772377D01*
X5313671Y-31906287D01*
X5313670Y-31906291D01*
X5294750Y-32050000D01*
X3992303Y-32050000D01*
X3980862Y-32022377D01*
X3980861Y-32022376D01*
X3980861Y-32022375D01*
X3892621Y-31907379D01*
X3777625Y-31819139D01*
X3777624Y-31819138D01*
X3777622Y-31819137D01*
X3643712Y-31763671D01*
X3643710Y-31763670D01*
X3643709Y-31763670D01*
X3571854Y-31754210D01*
X3500001Y-31744750D01*
X3499999Y-31744750D01*
X3356291Y-31763670D01*
X3356287Y-31763671D01*
X3222377Y-31819137D01*
X3107379Y-31907379D01*
X3019137Y-32022377D01*
X2963671Y-32156287D01*
X2963670Y-32156291D01*
X2944750Y-32299999D01*
X-1194160Y-32299999D01*
X-1166291Y-32296330D01*
X-1032375Y-32240861D01*
X-917379Y-32152621D01*
X-829139Y-32037625D01*
X-773670Y-31903709D01*
X-754750Y-31760000D01*
X-773670Y-31616291D01*
X-824013Y-31494750D01*
X-829138Y-31482377D01*
X-829139Y-31482376D01*
X-829139Y-31482375D01*
X-917379Y-31367379D01*
X-1032375Y-31279139D01*
X-1032376Y-31279138D01*
X-1032378Y-31279137D01*
X-1166288Y-31223671D01*
X-1166290Y-31223670D01*
X-1166291Y-31223670D01*
X-1238146Y-31214210D01*
X-1309999Y-31204750D01*
X-1310001Y-31204750D01*
X-1453709Y-31223670D01*
X-1453713Y-31223671D01*
X-1587623Y-31279137D01*
X-1702621Y-31367379D01*
X-1790863Y-31482377D01*
X-1846329Y-31616287D01*
X-1846330Y-31616291D01*
X-1862133Y-31736328D01*
X-1865250Y-31760000D01*
X-19499500Y-31760000D01*
X-19499500Y-31199999D01*
X4244750Y-31199999D01*
X4244750Y-31200000D01*
X4263670Y-31343708D01*
X4263671Y-31343712D01*
X4319137Y-31477622D01*
X4319138Y-31477624D01*
X4319139Y-31477625D01*
X4407379Y-31592621D01*
X4522375Y-31680861D01*
X4656291Y-31736330D01*
X4783280Y-31753048D01*
X4799999Y-31755250D01*
X4800000Y-31755250D01*
X4800001Y-31755250D01*
X4814977Y-31753278D01*
X4943709Y-31736330D01*
X5077625Y-31680861D01*
X5192621Y-31592621D01*
X5280861Y-31477625D01*
X5336330Y-31343709D01*
X5355250Y-31200000D01*
X5336330Y-31056291D01*
X5280861Y-30922375D01*
X5192621Y-30807379D01*
X5077625Y-30719139D01*
X5077624Y-30719138D01*
X5077622Y-30719137D01*
X4943712Y-30663671D01*
X4943710Y-30663670D01*
X4943709Y-30663670D01*
X4871854Y-30654210D01*
X4800001Y-30644750D01*
X4799999Y-30644750D01*
X4656291Y-30663670D01*
X4656287Y-30663671D01*
X4522377Y-30719137D01*
X4407379Y-30807379D01*
X4319137Y-30922377D01*
X4263671Y-31056287D01*
X4263670Y-31056291D01*
X4244750Y-31199999D01*
X-19499500Y-31199999D01*
X-19499500Y-30549999D01*
X-12630250Y-30549999D01*
X-12630250Y-30550000D01*
X-12611330Y-30693708D01*
X-12611329Y-30693712D01*
X-12555863Y-30827622D01*
X-12555862Y-30827624D01*
X-12555861Y-30827625D01*
X-12467621Y-30942621D01*
X-12352625Y-31030861D01*
X-12218709Y-31086330D01*
X-12091720Y-31103048D01*
X-12075001Y-31105250D01*
X-12075000Y-31105250D01*
X-12074999Y-31105250D01*
X-12060023Y-31103278D01*
X-11931291Y-31086330D01*
X-11797375Y-31030861D01*
X-11682379Y-30942621D01*
X-11594139Y-30827625D01*
X-11538670Y-30693709D01*
X-11519750Y-30550000D01*
X-11538670Y-30406291D01*
X-11583680Y-30297625D01*
X-11594138Y-30272377D01*
X-11594139Y-30272376D01*
X-11594139Y-30272375D01*
X-11682379Y-30157379D01*
X-11797375Y-30069139D01*
X-11797376Y-30069138D01*
X-11797378Y-30069137D01*
X-11916010Y-30019999D01*
X-3555250Y-30019999D01*
X-3555250Y-30020000D01*
X-3536330Y-30163708D01*
X-3536329Y-30163712D01*
X-3480863Y-30297622D01*
X-3480862Y-30297624D01*
X-3480861Y-30297625D01*
X-3392621Y-30412621D01*
X-3277625Y-30500861D01*
X-3143709Y-30556330D01*
X-3016720Y-30573048D01*
X-3000001Y-30575250D01*
X-3000000Y-30575250D01*
X-2999999Y-30575250D01*
X-2985023Y-30573278D01*
X-2856291Y-30556330D01*
X-2722375Y-30500861D01*
X-2607379Y-30412621D01*
X-2519139Y-30297625D01*
X-2463670Y-30163709D01*
X-2444750Y-30020000D01*
X-2463670Y-29876291D01*
X-2519139Y-29742375D01*
X-2560220Y-29688837D01*
X-2585414Y-29623668D01*
X-2571376Y-29555223D01*
X-2522562Y-29505234D01*
X-2478034Y-29490413D01*
X-2371061Y-29476330D01*
X-2237145Y-29420861D01*
X-2225487Y-29411915D01*
X-2160321Y-29386720D01*
X-2091875Y-29400757D01*
X-2074518Y-29411911D01*
X-2062855Y-29420861D01*
X-1928939Y-29476330D01*
X-1801950Y-29493048D01*
X-1785231Y-29495250D01*
X-1785230Y-29495250D01*
X-1785229Y-29495250D01*
X-1770253Y-29493278D01*
X-1641521Y-29476330D01*
X-1507605Y-29420861D01*
X-1392609Y-29332621D01*
X-1304369Y-29217625D01*
X-1248900Y-29083709D01*
X-1229980Y-28940000D01*
X-1248900Y-28796291D01*
X-1302664Y-28666492D01*
X-1304368Y-28662377D01*
X-1304369Y-28662376D01*
X-1304369Y-28662375D01*
X-1392609Y-28547379D01*
X-1507605Y-28459139D01*
X-1507606Y-28459138D01*
X-1507608Y-28459137D01*
X-1641518Y-28403671D01*
X-1641520Y-28403670D01*
X-1641521Y-28403670D01*
X-1725445Y-28392621D01*
X-1785229Y-28384750D01*
X-1785231Y-28384750D01*
X-1928939Y-28403670D01*
X-1928943Y-28403671D01*
X-2062854Y-28459138D01*
X-2062856Y-28459139D01*
X-2074514Y-28468085D01*
X-2139684Y-28493279D01*
X-2208128Y-28479240D01*
X-2225486Y-28468085D01*
X-2237145Y-28459139D01*
X-2237147Y-28459138D01*
X-2371058Y-28403671D01*
X-2371060Y-28403670D01*
X-2371061Y-28403670D01*
X-2454985Y-28392621D01*
X-2514769Y-28384750D01*
X-2514771Y-28384750D01*
X-2658479Y-28403670D01*
X-2658483Y-28403671D01*
X-2792393Y-28459137D01*
X-2907391Y-28547379D01*
X-2995633Y-28662377D01*
X-3051099Y-28796287D01*
X-3051100Y-28796291D01*
X-3070020Y-28939999D01*
X-3070020Y-28940000D01*
X-3051100Y-29083708D01*
X-3051099Y-29083712D01*
X-2995632Y-29217623D01*
X-2995631Y-29217625D01*
X-2954551Y-29271162D01*
X-2929357Y-29336331D01*
X-2943396Y-29404776D01*
X-2992210Y-29454766D01*
X-3036741Y-29469587D01*
X-3087942Y-29476328D01*
X-3143709Y-29483670D01*
X-3143710Y-29483670D01*
X-3143713Y-29483671D01*
X-3277623Y-29539137D01*
X-3392621Y-29627379D01*
X-3480863Y-29742377D01*
X-3536329Y-29876287D01*
X-3536330Y-29876291D01*
X-3555250Y-30019999D01*
X-11916010Y-30019999D01*
X-11931288Y-30013671D01*
X-11931290Y-30013670D01*
X-11931291Y-30013670D01*
X-12035123Y-30000000D01*
X-12074999Y-29994750D01*
X-12075001Y-29994750D01*
X-12218709Y-30013670D01*
X-12218713Y-30013671D01*
X-12352623Y-30069137D01*
X-12467621Y-30157379D01*
X-12555863Y-30272377D01*
X-12611329Y-30406287D01*
X-12611330Y-30406291D01*
X-12630250Y-30549999D01*
X-19499500Y-30549999D01*
X-19499500Y-28000000D01*
X-18705250Y-28000000D01*
X-18692085Y-28100000D01*
X-18686330Y-28143708D01*
X-18686329Y-28143712D01*
X-18630863Y-28277622D01*
X-18630862Y-28277624D01*
X-18630861Y-28277625D01*
X-18542621Y-28392621D01*
X-18427625Y-28480861D01*
X-18427624Y-28480861D01*
X-18427623Y-28480862D01*
X-18397645Y-28493279D01*
X-18293709Y-28536330D01*
X-18166720Y-28553048D01*
X-18150001Y-28555250D01*
X-18150000Y-28555250D01*
X-18149999Y-28555250D01*
X-18135023Y-28553278D01*
X-18006291Y-28536330D01*
X-17872375Y-28480861D01*
X-17757379Y-28392621D01*
X-17714718Y-28337024D01*
X-10157371Y-28337024D01*
X-10138648Y-28479240D01*
X-10138451Y-28480732D01*
X-10138450Y-28480736D01*
X-10082984Y-28614646D01*
X-10082983Y-28614648D01*
X-10082982Y-28614649D01*
X-9994742Y-28729645D01*
X-9879746Y-28817885D01*
X-9745830Y-28873354D01*
X-9618841Y-28890072D01*
X-9602122Y-28892274D01*
X-9602121Y-28892274D01*
X-9602120Y-28892274D01*
X-9587144Y-28890302D01*
X-9458412Y-28873354D01*
X-9324496Y-28817885D01*
X-9209500Y-28729645D01*
X-9121260Y-28614649D01*
X-9065791Y-28480733D01*
X-9046871Y-28337024D01*
X-9065791Y-28193315D01*
X-9121260Y-28059399D01*
X-9209500Y-27944403D01*
X-9324496Y-27856163D01*
X-9324497Y-27856162D01*
X-9324499Y-27856161D01*
X-9458409Y-27800695D01*
X-9458411Y-27800694D01*
X-9458412Y-27800694D01*
X-9530267Y-27791234D01*
X-9602120Y-27781774D01*
X-9602122Y-27781774D01*
X-9745830Y-27800694D01*
X-9745834Y-27800695D01*
X-9879744Y-27856161D01*
X-9994742Y-27944403D01*
X-10082984Y-28059401D01*
X-10138450Y-28193311D01*
X-10138451Y-28193315D01*
X-10149550Y-28277622D01*
X-10157371Y-28337024D01*
X-17714718Y-28337024D01*
X-17669139Y-28277625D01*
X-17613670Y-28143709D01*
X-17594750Y-28000000D01*
X-17613670Y-27856291D01*
X-17669139Y-27722375D01*
X-17757379Y-27607379D01*
X-17872375Y-27519139D01*
X-17872376Y-27519138D01*
X-17872378Y-27519137D01*
X-18006288Y-27463671D01*
X-18006290Y-27463670D01*
X-18006291Y-27463670D01*
X-18078146Y-27454210D01*
X-18149999Y-27444750D01*
X-18150001Y-27444750D01*
X-18293709Y-27463670D01*
X-18293713Y-27463671D01*
X-18427623Y-27519137D01*
X-18542621Y-27607379D01*
X-18630863Y-27722377D01*
X-18686329Y-27856287D01*
X-18686330Y-27856291D01*
X-18699495Y-27956291D01*
X-18705250Y-28000000D01*
X-19499500Y-28000000D01*
X-19499500Y-26550000D01*
X-11655250Y-26550000D01*
X-11642085Y-26650000D01*
X-11636330Y-26693708D01*
X-11636329Y-26693712D01*
X-11580863Y-26827622D01*
X-11580862Y-26827624D01*
X-11580861Y-26827625D01*
X-11492621Y-26942621D01*
X-11377625Y-27030861D01*
X-11377624Y-27030861D01*
X-11377623Y-27030862D01*
X-11332987Y-27049350D01*
X-11243709Y-27086330D01*
X-11116720Y-27103048D01*
X-11100001Y-27105250D01*
X-11100000Y-27105250D01*
X-11099999Y-27105250D01*
X-11085023Y-27103278D01*
X-10956291Y-27086330D01*
X-10822375Y-27030861D01*
X-10707379Y-26942621D01*
X-10619139Y-26827625D01*
X-10563670Y-26693709D01*
X-10544750Y-26550000D01*
X-10563670Y-26406291D01*
X-10619139Y-26272375D01*
X-10619140Y-26272374D01*
X-10619140Y-26272373D01*
X-10665517Y-26211934D01*
X-10679224Y-26194071D01*
X-10704418Y-26128904D01*
X-10693362Y-26074999D01*
X-5355250Y-26074999D01*
X-5355250Y-26075000D01*
X-5336330Y-26218708D01*
X-5336329Y-26218712D01*
X-5280863Y-26352622D01*
X-5280862Y-26352624D01*
X-5280861Y-26352625D01*
X-5192621Y-26467621D01*
X-5077625Y-26555861D01*
X-4943709Y-26611330D01*
X-4819961Y-26627622D01*
X-4800001Y-26630250D01*
X-4800000Y-26630250D01*
X-4799999Y-26630250D01*
X-4780039Y-26627622D01*
X-4656291Y-26611330D01*
X-4522375Y-26555861D01*
X-4407379Y-26467621D01*
X-4319139Y-26352625D01*
X-4263670Y-26218709D01*
X-4244750Y-26075000D01*
X-4245096Y-26072375D01*
X-4247565Y-26053618D01*
X-4263670Y-25931291D01*
X-4306610Y-25827622D01*
X-4319138Y-25797377D01*
X-4319139Y-25797376D01*
X-4319139Y-25797375D01*
X-4407379Y-25682379D01*
X-4446354Y-25652472D01*
X-4487556Y-25596044D01*
X-4491711Y-25526298D01*
X-4457498Y-25465378D01*
X-4418322Y-25439537D01*
X-4397375Y-25430861D01*
X-4282379Y-25342621D01*
X-4194139Y-25227625D01*
X-4138670Y-25093709D01*
X-4119750Y-24950000D01*
X-4138670Y-24806291D01*
X-4185303Y-24693708D01*
X-4194138Y-24672377D01*
X-4194139Y-24672376D01*
X-4194139Y-24672375D01*
X-4282379Y-24557379D01*
X-4397375Y-24469139D01*
X-4397376Y-24469138D01*
X-4397378Y-24469137D01*
X-4531288Y-24413671D01*
X-4531290Y-24413670D01*
X-4531291Y-24413670D01*
X-4603146Y-24404210D01*
X-4674999Y-24394750D01*
X-4675001Y-24394750D01*
X-4818709Y-24413670D01*
X-4818713Y-24413671D01*
X-4952623Y-24469137D01*
X-5067621Y-24557379D01*
X-5155863Y-24672377D01*
X-5211329Y-24806287D01*
X-5211330Y-24806291D01*
X-5230250Y-24950000D01*
X-5211562Y-25091950D01*
X-5211330Y-25093708D01*
X-5211329Y-25093712D01*
X-5155863Y-25227622D01*
X-5155862Y-25227624D01*
X-5155861Y-25227625D01*
X-5067621Y-25342621D01*
X-5028646Y-25372528D01*
X-4987445Y-25428954D01*
X-4983290Y-25498700D01*
X-5017503Y-25559621D01*
X-5056679Y-25585462D01*
X-5077622Y-25594137D01*
X-5077625Y-25594138D01*
X-5077625Y-25594139D01*
X-5142229Y-25643712D01*
X-5192621Y-25682379D01*
X-5280863Y-25797377D01*
X-5336329Y-25931287D01*
X-5336330Y-25931291D01*
X-5355250Y-26074999D01*
X-10693362Y-26074999D01*
X-10690380Y-26060459D01*
X-10641567Y-26010469D01*
X-10628315Y-26004031D01*
X-10572375Y-25980861D01*
X-10457379Y-25892621D01*
X-10369139Y-25777625D01*
X-10313670Y-25643709D01*
X-10294750Y-25500000D01*
X-10313670Y-25356291D01*
X-10369139Y-25222375D01*
X-10457379Y-25107379D01*
X-10572375Y-25019139D01*
X-10572376Y-25019138D01*
X-10572378Y-25019137D01*
X-10706288Y-24963671D01*
X-10706290Y-24963670D01*
X-10706291Y-24963670D01*
X-10810123Y-24950000D01*
X-10849999Y-24944750D01*
X-10850001Y-24944750D01*
X-10993709Y-24963670D01*
X-10993713Y-24963671D01*
X-11127623Y-25019137D01*
X-11242621Y-25107379D01*
X-11330863Y-25222377D01*
X-11386329Y-25356287D01*
X-11386330Y-25356291D01*
X-11404350Y-25493167D01*
X-11405250Y-25500000D01*
X-11387302Y-25636329D01*
X-11386330Y-25643708D01*
X-11386329Y-25643712D01*
X-11330862Y-25777623D01*
X-11330861Y-25777626D01*
X-11270778Y-25855926D01*
X-11245583Y-25921095D01*
X-11259621Y-25989540D01*
X-11308435Y-26039530D01*
X-11321700Y-26045974D01*
X-11377624Y-26069138D01*
X-11492621Y-26157379D01*
X-11580863Y-26272377D01*
X-11636329Y-26406287D01*
X-11636330Y-26406291D01*
X-11652852Y-26531789D01*
X-11655250Y-26550000D01*
X-19499500Y-26550000D01*
X-19499500Y-25900000D01*
X-18880250Y-25900000D01*
X-18863022Y-26030861D01*
X-18861330Y-26043708D01*
X-18861329Y-26043712D01*
X-18805863Y-26177622D01*
X-18805862Y-26177624D01*
X-18805861Y-26177625D01*
X-18717621Y-26292621D01*
X-18602625Y-26380861D01*
X-18468709Y-26436330D01*
X-18341720Y-26453048D01*
X-18325001Y-26455250D01*
X-18325000Y-26455250D01*
X-18324999Y-26455250D01*
X-18310023Y-26453278D01*
X-18181291Y-26436330D01*
X-18047375Y-26380861D01*
X-17932379Y-26292621D01*
X-17844139Y-26177625D01*
X-17788670Y-26043709D01*
X-17769750Y-25900000D01*
X-17788670Y-25756291D01*
X-17838359Y-25636329D01*
X-17844138Y-25622377D01*
X-17844139Y-25622376D01*
X-17844139Y-25622375D01*
X-17932379Y-25507379D01*
X-18047375Y-25419139D01*
X-18047376Y-25419138D01*
X-18047378Y-25419137D01*
X-18181288Y-25363671D01*
X-18181290Y-25363670D01*
X-18181291Y-25363670D01*
X-18253146Y-25354210D01*
X-18324999Y-25344750D01*
X-18325001Y-25344750D01*
X-18468709Y-25363670D01*
X-18468713Y-25363671D01*
X-18602623Y-25419137D01*
X-18717621Y-25507379D01*
X-18805863Y-25622377D01*
X-18861329Y-25756287D01*
X-18861330Y-25756291D01*
X-18879278Y-25892620D01*
X-18880250Y-25900000D01*
X-19499500Y-25900000D01*
X-19499500Y-21225000D01*
X-9255250Y-21225000D01*
X-9239622Y-21343708D01*
X-9236330Y-21368708D01*
X-9236329Y-21368712D01*
X-9180863Y-21502622D01*
X-9180862Y-21502624D01*
X-9180861Y-21502625D01*
X-9092621Y-21617621D01*
X-8977625Y-21705861D01*
X-8843709Y-21761330D01*
X-8716720Y-21778048D01*
X-8700001Y-21780250D01*
X-8700000Y-21780250D01*
X-8699999Y-21780250D01*
X-8685023Y-21778278D01*
X-8556291Y-21761330D01*
X-8422375Y-21705861D01*
X-8321066Y-21628122D01*
X-8255899Y-21602930D01*
X-8245581Y-21602500D01*
X-6260588Y-21602500D01*
X-6193549Y-21622185D01*
X-6147794Y-21674989D01*
X-6137850Y-21744147D01*
X-6166875Y-21807703D01*
X-6185101Y-21824875D01*
X-6292619Y-21907377D01*
X-6292620Y-21907378D01*
X-6292621Y-21907379D01*
X-6336741Y-21964877D01*
X-6380863Y-22022377D01*
X-6436329Y-22156287D01*
X-6436330Y-22156291D01*
X-6455250Y-22300000D01*
X-6447231Y-22360913D01*
X-6436330Y-22443708D01*
X-6436329Y-22443712D01*
X-6380863Y-22577622D01*
X-6380862Y-22577624D01*
X-6380861Y-22577625D01*
X-6292621Y-22692621D01*
X-6177625Y-22780861D01*
X-6177624Y-22780861D01*
X-6177623Y-22780862D01*
X-6044498Y-22836003D01*
X-5990094Y-22879843D01*
X-5968029Y-22946137D01*
X-5985308Y-23013837D01*
X-6016462Y-23048939D01*
X-6092620Y-23107378D01*
X-6180863Y-23222377D01*
X-6236329Y-23356287D01*
X-6236330Y-23356291D01*
X-6252730Y-23480862D01*
X-6255250Y-23500000D01*
X-6238418Y-23627853D01*
X-6236330Y-23643708D01*
X-6236329Y-23643712D01*
X-6180863Y-23777622D01*
X-6180862Y-23777624D01*
X-6180861Y-23777625D01*
X-6092621Y-23892621D01*
X-5977625Y-23980861D01*
X-5843709Y-24036330D01*
X-5716720Y-24053048D01*
X-5700001Y-24055250D01*
X-5700000Y-24055250D01*
X-5699999Y-24055250D01*
X-5685023Y-24053278D01*
X-5556291Y-24036330D01*
X-5422375Y-23980861D01*
X-5307379Y-23892621D01*
X-5219139Y-23777625D01*
X-5163670Y-23643709D01*
X-5151333Y-23550000D01*
X-1816350Y-23550000D01*
X-1799548Y-23677625D01*
X-1797430Y-23693708D01*
X-1797429Y-23693712D01*
X-1741963Y-23827622D01*
X-1741962Y-23827624D01*
X-1741961Y-23827625D01*
X-1653721Y-23942621D01*
X-1644389Y-23949782D01*
X-1641987Y-23951625D01*
X-1600784Y-24008053D01*
X-1596630Y-24077799D01*
X-1630843Y-24138719D01*
X-1641987Y-24148375D01*
X-1653719Y-24157377D01*
X-1741963Y-24272377D01*
X-1797429Y-24406287D01*
X-1797430Y-24406291D01*
X-1815381Y-24542643D01*
X-1816350Y-24550000D01*
X-1798845Y-24682965D01*
X-1797430Y-24693708D01*
X-1797429Y-24693712D01*
X-1741963Y-24827622D01*
X-1741962Y-24827624D01*
X-1741961Y-24827625D01*
X-1740469Y-24829570D01*
X-1653719Y-24942623D01*
X-1643865Y-24950184D01*
X-1602662Y-25006612D01*
X-1598508Y-25076358D01*
X-1632721Y-25137278D01*
X-1639456Y-25143113D01*
X-1641331Y-25144988D01*
X-1729577Y-25259991D01*
X-1785043Y-25393901D01*
X-1785044Y-25393905D01*
X-1801645Y-25520003D01*
X-1803964Y-25537614D01*
X-1790968Y-25636330D01*
X-1785044Y-25681322D01*
X-1785043Y-25681326D01*
X-1729577Y-25815236D01*
X-1729576Y-25815238D01*
X-1729575Y-25815239D01*
X-1641335Y-25930235D01*
X-1526339Y-26018475D01*
X-1392423Y-26073944D01*
X-1265434Y-26090662D01*
X-1248715Y-26092864D01*
X-1248714Y-26092864D01*
X-1248713Y-26092864D01*
X-1233737Y-26090892D01*
X-1105005Y-26073944D01*
X-971089Y-26018475D01*
X-856093Y-25930235D01*
X-856089Y-25930230D01*
X-850346Y-25924488D01*
X-848804Y-25926030D01*
X-801634Y-25891571D01*
X-731889Y-25887401D01*
X-670961Y-25921600D01*
X-661286Y-25932763D01*
X-654453Y-25941668D01*
X-653721Y-25942621D01*
X-538725Y-26030861D01*
X-538724Y-26030861D01*
X-538723Y-26030862D01*
X-494087Y-26049350D01*
X-404809Y-26086330D01*
X-277820Y-26103048D01*
X-261101Y-26105250D01*
X-261100Y-26105250D01*
X-261099Y-26105250D01*
X-246123Y-26103278D01*
X-117391Y-26086330D01*
X16525Y-26030861D01*
X131521Y-25942621D01*
X140525Y-25930886D01*
X196950Y-25889685D01*
X266696Y-25885529D01*
X327617Y-25919740D01*
X337267Y-25930876D01*
X346279Y-25942621D01*
X461275Y-26030861D01*
X461276Y-26030861D01*
X461277Y-26030862D01*
X505913Y-26049350D01*
X595191Y-26086330D01*
X722180Y-26103048D01*
X738899Y-26105250D01*
X738900Y-26105250D01*
X738901Y-26105250D01*
X753877Y-26103278D01*
X882609Y-26086330D01*
X1016525Y-26030861D01*
X1131521Y-25942621D01*
X1219761Y-25827625D01*
X1275230Y-25693709D01*
X1294150Y-25550000D01*
X1275230Y-25406291D01*
X1238250Y-25317013D01*
X1219762Y-25272377D01*
X1219761Y-25272376D01*
X1219761Y-25272375D01*
X1131521Y-25157379D01*
X1119786Y-25148374D01*
X1078585Y-25091950D01*
X1074429Y-25022204D01*
X1108640Y-24961283D01*
X1119776Y-24951632D01*
X1131521Y-24942621D01*
X1219761Y-24827625D01*
X1275230Y-24693709D01*
X1294150Y-24550000D01*
X1275230Y-24406291D01*
X1219761Y-24272375D01*
X1131521Y-24157379D01*
X1119786Y-24148374D01*
X1078585Y-24091950D01*
X1074429Y-24022204D01*
X1108640Y-23961283D01*
X1119776Y-23951632D01*
X1131521Y-23942621D01*
X1219761Y-23827625D01*
X1275230Y-23693709D01*
X1294150Y-23550000D01*
X1275230Y-23406291D01*
X1219761Y-23272375D01*
X1131521Y-23157379D01*
X1016525Y-23069139D01*
X1016524Y-23069138D01*
X1016522Y-23069137D01*
X882612Y-23013671D01*
X882610Y-23013670D01*
X882609Y-23013670D01*
X778777Y-23000000D01*
X738901Y-22994750D01*
X738899Y-22994750D01*
X595191Y-23013670D01*
X595187Y-23013671D01*
X461277Y-23069137D01*
X411441Y-23107378D01*
X346279Y-23157379D01*
X346278Y-23157380D01*
X346277Y-23157381D01*
X337275Y-23169113D01*
X280847Y-23210316D01*
X211101Y-23214470D01*
X150181Y-23180257D01*
X140525Y-23169113D01*
X138682Y-23166711D01*
X131521Y-23157379D01*
X16525Y-23069139D01*
X16524Y-23069138D01*
X16522Y-23069137D01*
X-117388Y-23013671D01*
X-117390Y-23013670D01*
X-117391Y-23013670D01*
X-221223Y-23000000D01*
X-261099Y-22994750D01*
X-261101Y-22994750D01*
X-404809Y-23013670D01*
X-404813Y-23013671D01*
X-538723Y-23069137D01*
X-588559Y-23107378D01*
X-653721Y-23157379D01*
X-653722Y-23157380D01*
X-653723Y-23157381D01*
X-662725Y-23169113D01*
X-719153Y-23210316D01*
X-788899Y-23214470D01*
X-849819Y-23180257D01*
X-859475Y-23169113D01*
X-861318Y-23166711D01*
X-868479Y-23157379D01*
X-983475Y-23069139D01*
X-983476Y-23069138D01*
X-983478Y-23069137D01*
X-1117388Y-23013671D01*
X-1117390Y-23013670D01*
X-1117391Y-23013670D01*
X-1221223Y-23000000D01*
X-1261099Y-22994750D01*
X-1261101Y-22994750D01*
X-1404809Y-23013670D01*
X-1404813Y-23013671D01*
X-1538723Y-23069137D01*
X-1653721Y-23157379D01*
X-1741963Y-23272377D01*
X-1797429Y-23406287D01*
X-1797430Y-23406291D01*
X-1813830Y-23530862D01*
X-1816350Y-23550000D01*
X-5151333Y-23550000D01*
X-5144750Y-23500000D01*
X-5163670Y-23356291D01*
X-5219139Y-23222375D01*
X-5307379Y-23107379D01*
X-5422375Y-23019139D01*
X-5422376Y-23019138D01*
X-5422378Y-23019137D01*
X-5555503Y-22963996D01*
X-5609907Y-22920155D01*
X-5631972Y-22853861D01*
X-5614693Y-22786162D01*
X-5583542Y-22751062D01*
X-5507379Y-22692621D01*
X-5419139Y-22577625D01*
X-5363670Y-22443709D01*
X-5344750Y-22300000D01*
X-5363670Y-22156291D01*
X-5419139Y-22022375D01*
X-5507379Y-21907379D01*
X-5589019Y-21844734D01*
X-5614899Y-21824875D01*
X-5656101Y-21768447D01*
X-5660256Y-21698701D01*
X-5626043Y-21637781D01*
X-5564326Y-21605029D01*
X-5539412Y-21602500D01*
X-82727Y-21602500D01*
X-15688Y-21622185D01*
X4954Y-21638819D01*
X2086181Y-23720046D01*
X2119666Y-23781369D01*
X2122500Y-23807727D01*
X2122500Y-26250301D01*
X2122500Y-26349699D01*
X2148226Y-26445710D01*
X2197925Y-26531790D01*
X4797925Y-29131790D01*
X4868210Y-29202075D01*
X4954291Y-29251774D01*
X5050301Y-29277500D01*
X5845581Y-29277500D01*
X5912620Y-29297185D01*
X5921052Y-29303113D01*
X6022375Y-29380861D01*
X6156291Y-29436330D01*
X6282896Y-29452998D01*
X6346792Y-29481265D01*
X6354390Y-29488255D01*
X9068210Y-32202076D01*
X9068212Y-32202077D01*
X9068216Y-32202080D01*
X9142126Y-32244751D01*
X9154290Y-32251774D01*
X9250301Y-32277500D01*
X12955591Y-32277500D01*
X13022630Y-32297185D01*
X13068385Y-32349989D01*
X13078329Y-32419147D01*
X13053967Y-32476986D01*
X13019139Y-32522374D01*
X13019138Y-32522376D01*
X12963671Y-32656287D01*
X12963670Y-32656291D01*
X12944750Y-32799999D01*
X12944750Y-32800000D01*
X12963670Y-32943708D01*
X12963671Y-32943712D01*
X13019137Y-33077622D01*
X13019138Y-33077624D01*
X13019139Y-33077625D01*
X13107379Y-33192621D01*
X13222375Y-33280861D01*
X13356291Y-33336330D01*
X13483280Y-33353048D01*
X13499999Y-33355250D01*
X13500000Y-33355250D01*
X13500001Y-33355250D01*
X13514977Y-33353278D01*
X13643709Y-33336330D01*
X13777625Y-33280861D01*
X13892621Y-33192621D01*
X13980861Y-33077625D01*
X14036330Y-32943709D01*
X14055250Y-32800000D01*
X14036330Y-32656291D01*
X14001880Y-32573120D01*
X13994411Y-32503651D01*
X14025686Y-32441172D01*
X14085776Y-32405520D01*
X14155601Y-32408014D01*
X14204122Y-32437987D01*
X14711743Y-32945608D01*
X14745228Y-33006931D01*
X14747001Y-33017103D01*
X14763670Y-33143707D01*
X14763671Y-33143712D01*
X14790043Y-33207381D01*
X14819139Y-33277625D01*
X14896875Y-33378933D01*
X14922070Y-33444100D01*
X14922500Y-33454418D01*
X14922500Y-35745580D01*
X14902815Y-35812619D01*
X14896876Y-35821066D01*
X14819139Y-35922374D01*
X14819138Y-35922376D01*
X14763671Y-36056287D01*
X14763670Y-36056291D01*
X14745722Y-36192620D01*
X14744750Y-36200000D01*
X14762698Y-36336329D01*
X14763670Y-36343708D01*
X14763671Y-36343712D01*
X14819137Y-36477622D01*
X14819138Y-36477624D01*
X14819139Y-36477625D01*
X14907379Y-36592621D01*
X15022375Y-36680861D01*
X15156291Y-36736330D01*
X15283280Y-36753048D01*
X15299999Y-36755250D01*
X15300000Y-36755250D01*
X15300001Y-36755250D01*
X15314977Y-36753278D01*
X15443709Y-36736330D01*
X15577625Y-36680861D01*
X15692621Y-36592621D01*
X15780861Y-36477625D01*
X15836330Y-36343709D01*
X15855250Y-36200000D01*
X15836330Y-36056291D01*
X15780861Y-35922375D01*
X15763692Y-35900000D01*
X16444750Y-35900000D01*
X16463512Y-36042512D01*
X16463670Y-36043708D01*
X16463671Y-36043712D01*
X16519137Y-36177622D01*
X16519138Y-36177624D01*
X16519139Y-36177625D01*
X16607379Y-36292621D01*
X16722375Y-36380861D01*
X16722376Y-36380861D01*
X16722377Y-36380862D01*
X16767013Y-36399350D01*
X16856291Y-36436330D01*
X16983280Y-36453048D01*
X16999999Y-36455250D01*
X17000000Y-36455250D01*
X17000001Y-36455250D01*
X17014977Y-36453278D01*
X17143709Y-36436330D01*
X17277625Y-36380861D01*
X17392621Y-36292621D01*
X17480861Y-36177625D01*
X17536330Y-36043709D01*
X17555250Y-35900000D01*
X17536330Y-35756291D01*
X17480861Y-35622375D01*
X17392621Y-35507379D01*
X17277625Y-35419139D01*
X17277624Y-35419138D01*
X17277622Y-35419137D01*
X17143712Y-35363671D01*
X17143710Y-35363670D01*
X17143709Y-35363670D01*
X17071854Y-35354210D01*
X17000001Y-35344750D01*
X16999999Y-35344750D01*
X16856291Y-35363670D01*
X16856287Y-35363671D01*
X16722377Y-35419137D01*
X16607379Y-35507379D01*
X16519137Y-35622377D01*
X16463671Y-35756287D01*
X16463670Y-35756291D01*
X16450505Y-35856291D01*
X16444750Y-35900000D01*
X15763692Y-35900000D01*
X15757454Y-35891871D01*
X15703124Y-35821066D01*
X15677930Y-35755897D01*
X15677500Y-35745580D01*
X15677500Y-33454418D01*
X15697185Y-33387379D01*
X15703116Y-33378942D01*
X15780861Y-33277625D01*
X15836330Y-33143709D01*
X15852998Y-33017102D01*
X15881264Y-32953206D01*
X15888244Y-32945619D01*
X18602076Y-30231790D01*
X18651774Y-30145710D01*
X18677500Y-30049699D01*
X18677500Y-29950301D01*
X18677500Y-13754418D01*
X18697185Y-13687379D01*
X18703116Y-13678942D01*
X18780861Y-13577625D01*
X18836330Y-13443709D01*
X18855250Y-13300000D01*
X18836330Y-13156291D01*
X18780861Y-13022375D01*
X18692621Y-12907379D01*
X18577625Y-12819139D01*
X18577624Y-12819138D01*
X18577622Y-12819137D01*
X18443712Y-12763671D01*
X18443710Y-12763670D01*
X18443709Y-12763670D01*
X18371854Y-12754210D01*
X18300001Y-12744750D01*
X18299999Y-12744750D01*
X18156291Y-12763670D01*
X18156287Y-12763671D01*
X18022377Y-12819137D01*
X17907379Y-12907379D01*
X17819137Y-13022377D01*
X17763671Y-13156287D01*
X17763670Y-13156291D01*
X17748371Y-13272500D01*
X17744750Y-13300000D01*
X17753132Y-13363670D01*
X17763670Y-13443708D01*
X17763671Y-13443712D01*
X17794723Y-13518679D01*
X17819139Y-13577625D01*
X17896875Y-13678933D01*
X17922070Y-13744100D01*
X17922500Y-13754418D01*
X17922500Y-28543754D01*
X17902815Y-28610793D01*
X17850011Y-28656548D01*
X17780853Y-28666492D01*
X17767377Y-28663728D01*
X17623225Y-28644750D01*
X17623223Y-28644750D01*
X17479515Y-28663670D01*
X17479511Y-28663671D01*
X17345601Y-28719137D01*
X17230603Y-28807379D01*
X17142361Y-28922377D01*
X17086895Y-29056287D01*
X17086894Y-29056291D01*
X17067974Y-29199999D01*
X17067974Y-29200000D01*
X17086894Y-29343708D01*
X17086895Y-29343712D01*
X17142361Y-29477622D01*
X17142362Y-29477624D01*
X17142363Y-29477625D01*
X17230603Y-29592621D01*
X17345599Y-29680861D01*
X17479515Y-29736330D01*
X17606504Y-29753048D01*
X17623223Y-29755250D01*
X17623223Y-29755249D01*
X17623224Y-29755250D01*
X17707493Y-29744155D01*
X17776526Y-29754920D01*
X17828782Y-29801299D01*
X17847668Y-29868568D01*
X17827188Y-29935369D01*
X17811358Y-29954775D01*
X15387680Y-32378453D01*
X15326357Y-32411938D01*
X15256665Y-32406954D01*
X15212318Y-32378453D01*
X14431792Y-31597927D01*
X14431790Y-31597925D01*
X14345710Y-31548226D01*
X14249699Y-31522500D01*
X14249698Y-31522500D01*
X9507728Y-31522500D01*
X9440689Y-31502815D01*
X9420047Y-31486181D01*
X6888256Y-28954391D01*
X6854771Y-28893068D01*
X6852998Y-28882896D01*
X6851742Y-28873353D01*
X6836330Y-28756291D01*
X6786641Y-28636329D01*
X6780862Y-28622377D01*
X6780861Y-28622376D01*
X6780861Y-28622375D01*
X6692621Y-28507379D01*
X6577625Y-28419139D01*
X6577624Y-28419138D01*
X6577622Y-28419137D01*
X6443712Y-28363671D01*
X6443710Y-28363670D01*
X6443709Y-28363670D01*
X6371854Y-28354210D01*
X6300001Y-28344750D01*
X6299999Y-28344750D01*
X6156291Y-28363670D01*
X6156287Y-28363671D01*
X6022377Y-28419137D01*
X5991774Y-28442620D01*
X5921065Y-28496877D01*
X5855899Y-28522070D01*
X5845581Y-28522500D01*
X5307727Y-28522500D01*
X5240688Y-28502815D01*
X5220046Y-28486181D01*
X3802240Y-27068375D01*
X3768755Y-27007052D01*
X3773739Y-26937360D01*
X3815611Y-26881427D01*
X3842460Y-26866136D01*
X3927625Y-26830861D01*
X4042621Y-26742621D01*
X4130861Y-26627625D01*
X4186330Y-26493709D01*
X4205250Y-26350000D01*
X4205210Y-26349699D01*
X4203048Y-26333280D01*
X4186330Y-26206291D01*
X4140129Y-26094750D01*
X4130862Y-26072377D01*
X4130861Y-26072376D01*
X4130861Y-26072375D01*
X4042621Y-25957379D01*
X3927625Y-25869139D01*
X3927624Y-25869138D01*
X3927622Y-25869137D01*
X3793712Y-25813671D01*
X3793710Y-25813670D01*
X3793709Y-25813670D01*
X3669954Y-25797377D01*
X3650001Y-25794750D01*
X3649999Y-25794750D01*
X3506291Y-25813670D01*
X3506287Y-25813671D01*
X3372377Y-25869137D01*
X3257379Y-25957379D01*
X3169138Y-26072376D01*
X3133866Y-26157531D01*
X3090025Y-26211934D01*
X3023730Y-26233999D01*
X2956031Y-26216720D01*
X2931624Y-26197759D01*
X2913819Y-26179954D01*
X2880334Y-26118631D01*
X2877500Y-26092273D01*
X2877500Y-23550303D01*
X2877500Y-23550301D01*
X2851774Y-23454291D01*
X2802075Y-23368210D01*
X2731790Y-23297925D01*
X356790Y-20922925D01*
X332474Y-20908885D01*
X284260Y-20858319D01*
X271038Y-20789712D01*
X297006Y-20724847D01*
X353921Y-20684320D01*
X394476Y-20677500D01*
X2692273Y-20677500D01*
X2759312Y-20697185D01*
X2779954Y-20713819D01*
X4427048Y-22360913D01*
X4460533Y-22422236D01*
X4455549Y-22491928D01*
X4413677Y-22547861D01*
X4386823Y-22563154D01*
X4372374Y-22569139D01*
X4276202Y-22642935D01*
X4211033Y-22668129D01*
X4142588Y-22654091D01*
X4102341Y-22620046D01*
X4092623Y-22607381D01*
X4092621Y-22607380D01*
X4092621Y-22607379D01*
X3977625Y-22519139D01*
X3977624Y-22519138D01*
X3977622Y-22519137D01*
X3843712Y-22463671D01*
X3843710Y-22463670D01*
X3843709Y-22463670D01*
X3771854Y-22454210D01*
X3700001Y-22444750D01*
X3699999Y-22444750D01*
X3556291Y-22463670D01*
X3556287Y-22463671D01*
X3422377Y-22519137D01*
X3307379Y-22607379D01*
X3219137Y-22722377D01*
X3163671Y-22856287D01*
X3163670Y-22856291D01*
X3154279Y-22927625D01*
X3144750Y-23000000D01*
X3161978Y-23130861D01*
X3163670Y-23143708D01*
X3163671Y-23143712D01*
X3219137Y-23277622D01*
X3219138Y-23277624D01*
X3219139Y-23277625D01*
X3307379Y-23392621D01*
X3422375Y-23480861D01*
X3422376Y-23480861D01*
X3422377Y-23480862D01*
X3467013Y-23499350D01*
X3556291Y-23536330D01*
X3683280Y-23553048D01*
X3699999Y-23555250D01*
X3700000Y-23555250D01*
X3700001Y-23555250D01*
X3714977Y-23553278D01*
X3843709Y-23536330D01*
X3977625Y-23480861D01*
X4073797Y-23407064D01*
X4138966Y-23381870D01*
X4207411Y-23395908D01*
X4247658Y-23429952D01*
X4257379Y-23442621D01*
X4372375Y-23530861D01*
X4372376Y-23530861D01*
X4372377Y-23530862D01*
X4403391Y-23543708D01*
X4506291Y-23586330D01*
X4644699Y-23604552D01*
X4708595Y-23632819D01*
X4747066Y-23691143D01*
X4747897Y-23761008D01*
X4743075Y-23774942D01*
X4688670Y-23906291D01*
X4675273Y-24008053D01*
X4669750Y-24050000D01*
X4682783Y-24148997D01*
X4688670Y-24193708D01*
X4688671Y-24193712D01*
X4744137Y-24327622D01*
X4744138Y-24327624D01*
X4744139Y-24327625D01*
X4832379Y-24442621D01*
X4889194Y-24486217D01*
X4930395Y-24542643D01*
X4934550Y-24612389D01*
X4900338Y-24673310D01*
X4889195Y-24682965D01*
X4857380Y-24707377D01*
X4769137Y-24822377D01*
X4713671Y-24956287D01*
X4713670Y-24956291D01*
X4697863Y-25076358D01*
X4694750Y-25100000D01*
X4711552Y-25227625D01*
X4713670Y-25243708D01*
X4713671Y-25243712D01*
X4769137Y-25377622D01*
X4769138Y-25377624D01*
X4769139Y-25377625D01*
X4857379Y-25492621D01*
X4972375Y-25580861D01*
X4972376Y-25580861D01*
X4972377Y-25580862D01*
X5017013Y-25599350D01*
X5106291Y-25636330D01*
X5233280Y-25653048D01*
X5249999Y-25655250D01*
X5250000Y-25655250D01*
X5250001Y-25655250D01*
X5264977Y-25653278D01*
X5393709Y-25636330D01*
X5527625Y-25580861D01*
X5642621Y-25492621D01*
X5700125Y-25417679D01*
X5756552Y-25376478D01*
X5826298Y-25372323D01*
X5887218Y-25406535D01*
X5919971Y-25468252D01*
X5922500Y-25493167D01*
X5922500Y-27050301D01*
X5922500Y-27149699D01*
X5948226Y-27245710D01*
X5997925Y-27331790D01*
X5997927Y-27331792D01*
X8968206Y-30302073D01*
X8968208Y-30302074D01*
X8968209Y-30302075D01*
X8984803Y-30311655D01*
X8984807Y-30311659D01*
X8984808Y-30311658D01*
X9054291Y-30351774D01*
X9150301Y-30377500D01*
X10242028Y-30377500D01*
X10309067Y-30397185D01*
X10317499Y-30403113D01*
X10418822Y-30480861D01*
X10552738Y-30536330D01*
X10679727Y-30553048D01*
X10696446Y-30555250D01*
X10696447Y-30555250D01*
X10696448Y-30555250D01*
X10711424Y-30553278D01*
X10840156Y-30536330D01*
X10974072Y-30480861D01*
X11089068Y-30392621D01*
X11177308Y-30277625D01*
X11232777Y-30143709D01*
X11251697Y-30000000D01*
X11232777Y-29856291D01*
X11190788Y-29754920D01*
X11177309Y-29722377D01*
X11177308Y-29722376D01*
X11177308Y-29722375D01*
X11089068Y-29607379D01*
X10974072Y-29519139D01*
X10974071Y-29519138D01*
X10974069Y-29519137D01*
X10840159Y-29463671D01*
X10840157Y-29463670D01*
X10840156Y-29463670D01*
X10757303Y-29452762D01*
X10696448Y-29444750D01*
X10696446Y-29444750D01*
X10552738Y-29463670D01*
X10552734Y-29463671D01*
X10418824Y-29519137D01*
X10392760Y-29539137D01*
X10317512Y-29596877D01*
X10252346Y-29622070D01*
X10242028Y-29622500D01*
X9407728Y-29622500D01*
X9340689Y-29602815D01*
X9320047Y-29586181D01*
X6713819Y-26979953D01*
X6680334Y-26918630D01*
X6677500Y-26892272D01*
X6677500Y-23650303D01*
X6677500Y-23650301D01*
X6651774Y-23554291D01*
X6651774Y-23554290D01*
X6602075Y-23468210D01*
X3131790Y-19997925D01*
X3045710Y-19948226D01*
X2949699Y-19922500D01*
X2949698Y-19922500D01*
X-4970581Y-19922500D01*
X-5037620Y-19902815D01*
X-5046053Y-19896886D01*
X-5147375Y-19819139D01*
X-5147376Y-19819138D01*
X-5147378Y-19819137D01*
X-5281288Y-19763671D01*
X-5281290Y-19763670D01*
X-5281291Y-19763670D01*
X-5353146Y-19754210D01*
X-5424999Y-19744750D01*
X-5425001Y-19744750D01*
X-5568709Y-19763670D01*
X-5568713Y-19763671D01*
X-5702623Y-19819137D01*
X-5817621Y-19907379D01*
X-5905863Y-20022377D01*
X-5961329Y-20156287D01*
X-5961330Y-20156291D01*
X-5980250Y-20299999D01*
X-5980250Y-20300000D01*
X-5961330Y-20443708D01*
X-5961329Y-20443712D01*
X-5905862Y-20577623D01*
X-5905861Y-20577626D01*
X-5851850Y-20648013D01*
X-5826655Y-20713182D01*
X-5840693Y-20781627D01*
X-5889507Y-20831617D01*
X-5950225Y-20847500D01*
X-8245581Y-20847500D01*
X-8312620Y-20827815D01*
X-8321053Y-20821886D01*
X-8422375Y-20744139D01*
X-8422376Y-20744138D01*
X-8422378Y-20744137D01*
X-8556288Y-20688671D01*
X-8556290Y-20688670D01*
X-8556291Y-20688670D01*
X-8641134Y-20677500D01*
X-8699999Y-20669750D01*
X-8700001Y-20669750D01*
X-8843709Y-20688670D01*
X-8843713Y-20688671D01*
X-8977623Y-20744137D01*
X-9092621Y-20832379D01*
X-9180863Y-20947377D01*
X-9236329Y-21081287D01*
X-9236330Y-21081291D01*
X-9251958Y-21199999D01*
X-9255250Y-21225000D01*
X-19499500Y-21225000D01*
X-19499500Y-17774999D01*
X-18705250Y-17774999D01*
X-18705250Y-17775000D01*
X-18686330Y-17918708D01*
X-18686329Y-17918712D01*
X-18630863Y-18052622D01*
X-18630862Y-18052624D01*
X-18630861Y-18052625D01*
X-18542621Y-18167621D01*
X-18427625Y-18255861D01*
X-18293709Y-18311330D01*
X-18166720Y-18328048D01*
X-18150001Y-18330250D01*
X-18150000Y-18330250D01*
X-18149999Y-18330250D01*
X-18135023Y-18328278D01*
X-18006291Y-18311330D01*
X-17872375Y-18255861D01*
X-17757379Y-18167621D01*
X-17669139Y-18052625D01*
X-17613670Y-17918709D01*
X-17594750Y-17775000D01*
X-17613670Y-17631291D01*
X-17668052Y-17499999D01*
X-13705250Y-17499999D01*
X-13705250Y-17500000D01*
X-13686330Y-17643708D01*
X-13686329Y-17643712D01*
X-13630863Y-17777622D01*
X-13630862Y-17777624D01*
X-13630861Y-17777625D01*
X-13542621Y-17892621D01*
X-13533289Y-17899782D01*
X-13530887Y-17901625D01*
X-13489684Y-17958053D01*
X-13485530Y-18027799D01*
X-13519743Y-18088719D01*
X-13530887Y-18098375D01*
X-13542619Y-18107377D01*
X-13630863Y-18222377D01*
X-13686329Y-18356287D01*
X-13686330Y-18356291D01*
X-13705250Y-18500000D01*
X-13687037Y-18638342D01*
X-13686330Y-18643708D01*
X-13686329Y-18643712D01*
X-13630863Y-18777622D01*
X-13630862Y-18777624D01*
X-13630861Y-18777625D01*
X-13542621Y-18892621D01*
X-13427625Y-18980861D01*
X-13293709Y-19036330D01*
X-13166720Y-19053048D01*
X-13150001Y-19055250D01*
X-13150000Y-19055250D01*
X-13149999Y-19055250D01*
X-13135023Y-19053278D01*
X-13006291Y-19036330D01*
X-12872375Y-18980861D01*
X-12757379Y-18892621D01*
X-12669139Y-18777625D01*
X-12637111Y-18700301D01*
X7218947Y-18700301D01*
X7218947Y-26646748D01*
X7218947Y-26746146D01*
X7244673Y-26842157D01*
X7294372Y-26928237D01*
X8768210Y-28402076D01*
X8768212Y-28402077D01*
X8768216Y-28402080D01*
X8838436Y-28442621D01*
X8854290Y-28451774D01*
X8950301Y-28477500D01*
X9342028Y-28477500D01*
X9409067Y-28497185D01*
X9417499Y-28503113D01*
X9518822Y-28580861D01*
X9518823Y-28580861D01*
X9518824Y-28580862D01*
X9563460Y-28599350D01*
X9652738Y-28636330D01*
X9779727Y-28653048D01*
X9796446Y-28655250D01*
X9796447Y-28655250D01*
X9796448Y-28655250D01*
X9811424Y-28653278D01*
X9940156Y-28636330D01*
X10074072Y-28580861D01*
X10189068Y-28492621D01*
X10277308Y-28377625D01*
X10332777Y-28243709D01*
X10351697Y-28100000D01*
X10345114Y-28049999D01*
X14317974Y-28049999D01*
X14317974Y-28050000D01*
X14336894Y-28193708D01*
X14336895Y-28193712D01*
X14392361Y-28327622D01*
X14392362Y-28327624D01*
X14392363Y-28327625D01*
X14480603Y-28442621D01*
X14595599Y-28530861D01*
X14595600Y-28530861D01*
X14595601Y-28530862D01*
X14626726Y-28543754D01*
X14729515Y-28586330D01*
X14856504Y-28603048D01*
X14873223Y-28605250D01*
X14873224Y-28605250D01*
X14873225Y-28605250D01*
X14888201Y-28603278D01*
X15016933Y-28586330D01*
X15150849Y-28530861D01*
X15265845Y-28442621D01*
X15354085Y-28327625D01*
X15409554Y-28193709D01*
X15428474Y-28050000D01*
X15409554Y-27906291D01*
X15354085Y-27772375D01*
X15265845Y-27657379D01*
X15150849Y-27569139D01*
X15150848Y-27569138D01*
X15150846Y-27569137D01*
X15016936Y-27513671D01*
X15016934Y-27513670D01*
X15016933Y-27513670D01*
X14945078Y-27504210D01*
X14873225Y-27494750D01*
X14873223Y-27494750D01*
X14729515Y-27513670D01*
X14729511Y-27513671D01*
X14595601Y-27569137D01*
X14480603Y-27657379D01*
X14392361Y-27772377D01*
X14336895Y-27906287D01*
X14336894Y-27906291D01*
X14317974Y-28049999D01*
X10345114Y-28049999D01*
X10332777Y-27956291D01*
X10277308Y-27822375D01*
X10189068Y-27707379D01*
X10074072Y-27619139D01*
X10074071Y-27619138D01*
X10074069Y-27619137D01*
X9940159Y-27563671D01*
X9940157Y-27563670D01*
X9940156Y-27563670D01*
X9899240Y-27558283D01*
X9794576Y-27544503D01*
X9730679Y-27516236D01*
X9692209Y-27457911D01*
X9687823Y-27405378D01*
X9701697Y-27300000D01*
X9701697Y-27299999D01*
X9696400Y-27259766D01*
X9682777Y-27156291D01*
X9632614Y-27035184D01*
X9627309Y-27022377D01*
X9627308Y-27022376D01*
X9627308Y-27022375D01*
X9539068Y-26907379D01*
X9424072Y-26819139D01*
X9424071Y-26819138D01*
X9424069Y-26819137D01*
X9290159Y-26763671D01*
X9290157Y-26763670D01*
X9290156Y-26763670D01*
X9218301Y-26754210D01*
X9146448Y-26744750D01*
X9146446Y-26744750D01*
X9002738Y-26763670D01*
X9002734Y-26763671D01*
X8868824Y-26819137D01*
X8811324Y-26863259D01*
X8753826Y-26907379D01*
X8753825Y-26907380D01*
X8753824Y-26907381D01*
X8660768Y-27028653D01*
X8604340Y-27069855D01*
X8534594Y-27074010D01*
X8474712Y-27040847D01*
X8276022Y-26842157D01*
X8010266Y-26576400D01*
X7976781Y-26515077D01*
X7973947Y-26488719D01*
X7973947Y-26070351D01*
X7993632Y-26003312D01*
X8046436Y-25957557D01*
X8115593Y-25947613D01*
X8170447Y-25955500D01*
X8170448Y-25955500D01*
X8780974Y-25955500D01*
X8780984Y-25955500D01*
X8812598Y-25953537D01*
X8843049Y-25949740D01*
X8874180Y-25943879D01*
X9491675Y-25787447D01*
X9861682Y-25693712D01*
X10688320Y-25484297D01*
X10718771Y-25480500D01*
X11421616Y-25480500D01*
X11488655Y-25500185D01*
X11534410Y-25552989D01*
X11544354Y-25622147D01*
X11536178Y-25651951D01*
X11513670Y-25706291D01*
X11494750Y-25849999D01*
X11494750Y-25850002D01*
X11510764Y-25971640D01*
X11499998Y-26040675D01*
X11453618Y-26092931D01*
X11386350Y-26111816D01*
X11371640Y-26110764D01*
X11250002Y-26094750D01*
X11249999Y-26094750D01*
X11106291Y-26113670D01*
X11106287Y-26113671D01*
X10972377Y-26169137D01*
X10857379Y-26257379D01*
X10769137Y-26372377D01*
X10713671Y-26506287D01*
X10713670Y-26506291D01*
X10694750Y-26649999D01*
X10694750Y-26650000D01*
X10713670Y-26793708D01*
X10713671Y-26793712D01*
X10769137Y-26927622D01*
X10769138Y-26927624D01*
X10769139Y-26927625D01*
X10857379Y-27042621D01*
X10972375Y-27130861D01*
X11106291Y-27186330D01*
X11233280Y-27203048D01*
X11249999Y-27205250D01*
X11250000Y-27205250D01*
X11250001Y-27205250D01*
X11286527Y-27200441D01*
X11368291Y-27189676D01*
X11437325Y-27200441D01*
X11489581Y-27246821D01*
X11508467Y-27314090D01*
X11507415Y-27328801D01*
X11494750Y-27424999D01*
X11494750Y-27425000D01*
X11513670Y-27568708D01*
X11513671Y-27568712D01*
X11569137Y-27702622D01*
X11569138Y-27702624D01*
X11569139Y-27702625D01*
X11657379Y-27817621D01*
X11772375Y-27905861D01*
X11906291Y-27961330D01*
X12033280Y-27978048D01*
X12049999Y-27980250D01*
X12050000Y-27980250D01*
X12050001Y-27980250D01*
X12064977Y-27978278D01*
X12193709Y-27961330D01*
X12327625Y-27905861D01*
X12442621Y-27817621D01*
X12530861Y-27702625D01*
X12586330Y-27568709D01*
X12605250Y-27425000D01*
X12592584Y-27328798D01*
X12603349Y-27259766D01*
X12649728Y-27207510D01*
X12716997Y-27188624D01*
X12731702Y-27189675D01*
X12813473Y-27200441D01*
X12849999Y-27205250D01*
X12850000Y-27205250D01*
X12850001Y-27205250D01*
X12864977Y-27203278D01*
X12993709Y-27186330D01*
X13127625Y-27130861D01*
X13242621Y-27042621D01*
X13330861Y-26927625D01*
X13386330Y-26793709D01*
X13405250Y-26650000D01*
X13386330Y-26506291D01*
X13344908Y-26406287D01*
X13330862Y-26372377D01*
X13330861Y-26372376D01*
X13330861Y-26372375D01*
X13242621Y-26257379D01*
X13127625Y-26169139D01*
X13127624Y-26169138D01*
X13127622Y-26169137D01*
X12993712Y-26113671D01*
X12993710Y-26113670D01*
X12993709Y-26113670D01*
X12889862Y-26099998D01*
X12850001Y-26094750D01*
X12849998Y-26094750D01*
X12728359Y-26110764D01*
X12659324Y-26099998D01*
X12607068Y-26053618D01*
X12588183Y-25986349D01*
X12589235Y-25971640D01*
X12605250Y-25850000D01*
X12586330Y-25706291D01*
X12563822Y-25651951D01*
X12556354Y-25582482D01*
X12587630Y-25520003D01*
X12647719Y-25484351D01*
X12678384Y-25480500D01*
X13374123Y-25480500D01*
X13404574Y-25484297D01*
X14231212Y-25693712D01*
X14601219Y-25787447D01*
X15218714Y-25943879D01*
X15249845Y-25949740D01*
X15280296Y-25953537D01*
X15311910Y-25955500D01*
X15311920Y-25955500D01*
X15886220Y-25955500D01*
X15888783Y-25955362D01*
X15913531Y-25954036D01*
X15913540Y-25954035D01*
X15913541Y-25954035D01*
X15918172Y-25953537D01*
X15939891Y-25951202D01*
X15939896Y-25951201D01*
X16035032Y-25921410D01*
X16096354Y-25887924D01*
X16154569Y-25844343D01*
X16190797Y-25808114D01*
X16209075Y-25787766D01*
X16225708Y-25767125D01*
X16271912Y-25678795D01*
X16291597Y-25611756D01*
X16301947Y-25539771D01*
X16301947Y-24149000D01*
X16296108Y-24094687D01*
X16284902Y-24043176D01*
X16277666Y-24016802D01*
X16272684Y-24008053D01*
X16228341Y-23930181D01*
X16228337Y-23930176D01*
X16228335Y-23930172D01*
X16182580Y-23877368D01*
X16149806Y-23845743D01*
X16061471Y-23799535D01*
X16061470Y-23799534D01*
X16061469Y-23799534D01*
X16061469Y-23799533D01*
X15994437Y-23779851D01*
X15994425Y-23779848D01*
X15922448Y-23769500D01*
X15922447Y-23769500D01*
X12649831Y-23769500D01*
X12582792Y-23749815D01*
X12537037Y-23697011D01*
X12527093Y-23627853D01*
X12535269Y-23598049D01*
X12540124Y-23586328D01*
X12557777Y-23543709D01*
X12576697Y-23400000D01*
X12566733Y-23324318D01*
X12577498Y-23255285D01*
X12623878Y-23203029D01*
X12657583Y-23188358D01*
X12665149Y-23186330D01*
X12665156Y-23186330D01*
X12799072Y-23130861D01*
X12914068Y-23042621D01*
X13002308Y-22927625D01*
X13057777Y-22793709D01*
X13076697Y-22650000D01*
X13057777Y-22506291D01*
X13002308Y-22372375D01*
X12914068Y-22257379D01*
X12799072Y-22169139D01*
X12768054Y-22156291D01*
X12669329Y-22115398D01*
X12614926Y-22071557D01*
X12592861Y-22005263D01*
X12593842Y-21984659D01*
X12601697Y-21925000D01*
X12593843Y-21865346D01*
X12604608Y-21796313D01*
X12650987Y-21744057D01*
X12669330Y-21734601D01*
X12738713Y-21705862D01*
X12799072Y-21680861D01*
X12914068Y-21592621D01*
X13002308Y-21477625D01*
X13057777Y-21343709D01*
X13076697Y-21200000D01*
X13057777Y-21056291D01*
X13002308Y-20922375D01*
X12914068Y-20807379D01*
X12799072Y-20719139D01*
X12799071Y-20719138D01*
X12799069Y-20719137D01*
X12665159Y-20663671D01*
X12665157Y-20663670D01*
X12665156Y-20663670D01*
X12593301Y-20654210D01*
X12521448Y-20644750D01*
X12521446Y-20644750D01*
X12377738Y-20663670D01*
X12377734Y-20663671D01*
X12243824Y-20719137D01*
X12205694Y-20748395D01*
X12128826Y-20807379D01*
X12128824Y-20807381D01*
X12122379Y-20812327D01*
X12120318Y-20809641D01*
X12072669Y-20835591D01*
X12002983Y-20830528D01*
X11971884Y-20810542D01*
X11970515Y-20812327D01*
X11964069Y-20807381D01*
X11964068Y-20807379D01*
X11849072Y-20719139D01*
X11849071Y-20719138D01*
X11849069Y-20719137D01*
X11715159Y-20663671D01*
X11715157Y-20663670D01*
X11715156Y-20663670D01*
X11643301Y-20654210D01*
X11571448Y-20644750D01*
X11571446Y-20644750D01*
X11427738Y-20663670D01*
X11427734Y-20663671D01*
X11293824Y-20719137D01*
X11178826Y-20807379D01*
X11090584Y-20922377D01*
X11035118Y-21056287D01*
X11035117Y-21056291D01*
X11016197Y-21199999D01*
X11016197Y-21200000D01*
X11035117Y-21343708D01*
X11035118Y-21343712D01*
X11090584Y-21477622D01*
X11090585Y-21477624D01*
X11090586Y-21477625D01*
X11178826Y-21592621D01*
X11293822Y-21680861D01*
X11423565Y-21734601D01*
X11477966Y-21778440D01*
X11500032Y-21844734D01*
X11499050Y-21865346D01*
X11491197Y-21924997D01*
X11491197Y-21925002D01*
X11499050Y-21984652D01*
X11488284Y-22053687D01*
X11441904Y-22105943D01*
X11423564Y-22115398D01*
X11293823Y-22169138D01*
X11178826Y-22257379D01*
X11090584Y-22372377D01*
X11035118Y-22506287D01*
X11035117Y-22506291D01*
X11020141Y-22620046D01*
X11016197Y-22650000D01*
X11034123Y-22786162D01*
X11035117Y-22793708D01*
X11035118Y-22793712D01*
X11090584Y-22927622D01*
X11090585Y-22927624D01*
X11090586Y-22927625D01*
X11178826Y-23042621D01*
X11293822Y-23130861D01*
X11402979Y-23176074D01*
X11457380Y-23219913D01*
X11479446Y-23286207D01*
X11478464Y-23306819D01*
X11466197Y-23399997D01*
X11466197Y-23400000D01*
X11485117Y-23543709D01*
X11502770Y-23586328D01*
X11507625Y-23598049D01*
X11515093Y-23667518D01*
X11483817Y-23729997D01*
X11423728Y-23765649D01*
X11393063Y-23769500D01*
X8170444Y-23769500D01*
X8112831Y-23775694D01*
X8112695Y-23774434D01*
X8048448Y-23766360D01*
X7994839Y-23721550D01*
X7973967Y-23654871D01*
X7973947Y-23652668D01*
X7973947Y-19149999D01*
X11016197Y-19149999D01*
X11016197Y-19150000D01*
X11035117Y-19293708D01*
X11035118Y-19293712D01*
X11090584Y-19427622D01*
X11090585Y-19427624D01*
X11090586Y-19427625D01*
X11178826Y-19542621D01*
X11293822Y-19630861D01*
X11423565Y-19684601D01*
X11477966Y-19728440D01*
X11500032Y-19794734D01*
X11499050Y-19815346D01*
X11491197Y-19874997D01*
X11491197Y-19875000D01*
X11510117Y-20018708D01*
X11510118Y-20018712D01*
X11565584Y-20152622D01*
X11565585Y-20152624D01*
X11565586Y-20152625D01*
X11653826Y-20267621D01*
X11768822Y-20355861D01*
X11902738Y-20411330D01*
X12029727Y-20428048D01*
X12046446Y-20430250D01*
X12046447Y-20430250D01*
X12046448Y-20430250D01*
X12061424Y-20428278D01*
X12190156Y-20411330D01*
X12324072Y-20355861D01*
X12439068Y-20267621D01*
X12527308Y-20152625D01*
X12582777Y-20018709D01*
X12601697Y-19875000D01*
X12593843Y-19815346D01*
X12604608Y-19746313D01*
X12650987Y-19694057D01*
X12669330Y-19684601D01*
X12669335Y-19684599D01*
X12799072Y-19630861D01*
X12914068Y-19542621D01*
X13002308Y-19427625D01*
X13057777Y-19293709D01*
X13076697Y-19150000D01*
X13057777Y-19006291D01*
X13010694Y-18892620D01*
X13002309Y-18872377D01*
X13002308Y-18872376D01*
X13002308Y-18872375D01*
X12914068Y-18757379D01*
X12799072Y-18669139D01*
X12799071Y-18669138D01*
X12799069Y-18669137D01*
X12665159Y-18613671D01*
X12665157Y-18613670D01*
X12665156Y-18613670D01*
X12593301Y-18604210D01*
X12521448Y-18594750D01*
X12521446Y-18594750D01*
X12377738Y-18613670D01*
X12377734Y-18613671D01*
X12243824Y-18669137D01*
X12205694Y-18698395D01*
X12128826Y-18757379D01*
X12128824Y-18757381D01*
X12122379Y-18762327D01*
X12120318Y-18759641D01*
X12072669Y-18785591D01*
X12002983Y-18780528D01*
X11971884Y-18760542D01*
X11970515Y-18762327D01*
X11964069Y-18757381D01*
X11964068Y-18757379D01*
X11849072Y-18669139D01*
X11849071Y-18669138D01*
X11849069Y-18669137D01*
X11715159Y-18613671D01*
X11715157Y-18613670D01*
X11715156Y-18613670D01*
X11643301Y-18604210D01*
X11571448Y-18594750D01*
X11571446Y-18594750D01*
X11427738Y-18613670D01*
X11427734Y-18613671D01*
X11293824Y-18669137D01*
X11178826Y-18757379D01*
X11090584Y-18872377D01*
X11035118Y-19006287D01*
X11035117Y-19006291D01*
X11016197Y-19149999D01*
X7973947Y-19149999D01*
X7973947Y-19060373D01*
X7993632Y-18993334D01*
X8046436Y-18947579D01*
X8081761Y-18937435D01*
X8090156Y-18936330D01*
X8224072Y-18880861D01*
X8325381Y-18803122D01*
X8390548Y-18777930D01*
X8400866Y-18777500D01*
X8492028Y-18777500D01*
X8559067Y-18797185D01*
X8567499Y-18803113D01*
X8668822Y-18880861D01*
X8668823Y-18880861D01*
X8668824Y-18880862D01*
X8713460Y-18899350D01*
X8802738Y-18936330D01*
X8929727Y-18953048D01*
X8946446Y-18955250D01*
X8946447Y-18955250D01*
X8946448Y-18955250D01*
X8961424Y-18953278D01*
X9090156Y-18936330D01*
X9224072Y-18880861D01*
X9325381Y-18803122D01*
X9390548Y-18777930D01*
X9400866Y-18777500D01*
X9949697Y-18777500D01*
X9949699Y-18777500D01*
X10045710Y-18751774D01*
X10131790Y-18702075D01*
X15002075Y-13831790D01*
X15051774Y-13745710D01*
X15065999Y-13692621D01*
X15077500Y-13649699D01*
X15077500Y-12054418D01*
X15097185Y-11987379D01*
X15103116Y-11978942D01*
X15180861Y-11877625D01*
X15236330Y-11743709D01*
X15255250Y-11600000D01*
X15236330Y-11456291D01*
X15180861Y-11322375D01*
X15092621Y-11207379D01*
X14977625Y-11119139D01*
X14977624Y-11119138D01*
X14977622Y-11119137D01*
X14843712Y-11063671D01*
X14843710Y-11063670D01*
X14843709Y-11063670D01*
X14771854Y-11054210D01*
X14700001Y-11044750D01*
X14699999Y-11044750D01*
X14556291Y-11063670D01*
X14556287Y-11063671D01*
X14422377Y-11119137D01*
X14307379Y-11207379D01*
X14219137Y-11322377D01*
X14163671Y-11456287D01*
X14163670Y-11456291D01*
X14150505Y-11556291D01*
X14144750Y-11600000D01*
X14157915Y-11700000D01*
X14163670Y-11743708D01*
X14163671Y-11743712D01*
X14215446Y-11868709D01*
X14219139Y-11877625D01*
X14296875Y-11978933D01*
X14322070Y-12044100D01*
X14322500Y-12054418D01*
X14322500Y-13392273D01*
X14302815Y-13459312D01*
X14286181Y-13479954D01*
X9779954Y-17986181D01*
X9718631Y-18019666D01*
X9692273Y-18022500D01*
X9400866Y-18022500D01*
X9333827Y-18002815D01*
X9325394Y-17996886D01*
X9224072Y-17919139D01*
X9224071Y-17919138D01*
X9224069Y-17919137D01*
X9090159Y-17863671D01*
X9090157Y-17863670D01*
X9090156Y-17863670D01*
X9018301Y-17854210D01*
X8946448Y-17844750D01*
X8946446Y-17844750D01*
X8802738Y-17863670D01*
X8802734Y-17863671D01*
X8668824Y-17919137D01*
X8636532Y-17943915D01*
X8567512Y-17996877D01*
X8502346Y-18022070D01*
X8492028Y-18022500D01*
X8400866Y-18022500D01*
X8333827Y-18002815D01*
X8325394Y-17996886D01*
X8224072Y-17919139D01*
X8224071Y-17919138D01*
X8224069Y-17919137D01*
X8090159Y-17863671D01*
X8090157Y-17863670D01*
X8090156Y-17863670D01*
X8018301Y-17854210D01*
X7946448Y-17844750D01*
X7946446Y-17844750D01*
X7802738Y-17863670D01*
X7802734Y-17863671D01*
X7668824Y-17919137D01*
X7553826Y-18007379D01*
X7465584Y-18122377D01*
X7410118Y-18256287D01*
X7410117Y-18256291D01*
X7393448Y-18382895D01*
X7365181Y-18446791D01*
X7358192Y-18454387D01*
X7294375Y-18518206D01*
X7294372Y-18518210D01*
X7244674Y-18604287D01*
X7244673Y-18604289D01*
X7244673Y-18604290D01*
X7235549Y-18638342D01*
X7235549Y-18638343D01*
X7235548Y-18638342D01*
X7218947Y-18700301D01*
X-12637111Y-18700301D01*
X-12613670Y-18643709D01*
X-12594750Y-18500000D01*
X-12613670Y-18356291D01*
X-12669139Y-18222375D01*
X-12757379Y-18107379D01*
X-12769114Y-18098374D01*
X-12810315Y-18041950D01*
X-12814471Y-17972204D01*
X-12780260Y-17911283D01*
X-12769124Y-17901632D01*
X-12757379Y-17892621D01*
X-12669139Y-17777625D01*
X-12613670Y-17643709D01*
X-12594750Y-17500000D01*
X-12595096Y-17497375D01*
X-12596952Y-17483280D01*
X-12613670Y-17356291D01*
X-12669139Y-17222375D01*
X-12757379Y-17107379D01*
X-12872375Y-17019139D01*
X-12872376Y-17019138D01*
X-12872378Y-17019137D01*
X-13006288Y-16963671D01*
X-13006290Y-16963670D01*
X-13006291Y-16963670D01*
X-13078146Y-16954210D01*
X-13149999Y-16944750D01*
X-13150001Y-16944750D01*
X-13293709Y-16963670D01*
X-13293713Y-16963671D01*
X-13427623Y-17019137D01*
X-13542621Y-17107379D01*
X-13630863Y-17222377D01*
X-13686329Y-17356287D01*
X-13686330Y-17356291D01*
X-13705250Y-17499999D01*
X-17668052Y-17499999D01*
X-17669139Y-17497375D01*
X-17757379Y-17382379D01*
X-17872375Y-17294139D01*
X-17872376Y-17294138D01*
X-17872378Y-17294137D01*
X-18006288Y-17238671D01*
X-18006290Y-17238670D01*
X-18006291Y-17238670D01*
X-18130046Y-17222377D01*
X-18149999Y-17219750D01*
X-18150001Y-17219750D01*
X-18293709Y-17238670D01*
X-18293713Y-17238671D01*
X-18427623Y-17294137D01*
X-18542621Y-17382379D01*
X-18630863Y-17497377D01*
X-18686329Y-17631287D01*
X-18686330Y-17631291D01*
X-18705250Y-17774999D01*
X-19499500Y-17774999D01*
X-19499500Y-15924999D01*
X-18730250Y-15924999D01*
X-18730250Y-15925000D01*
X-18711330Y-16068708D01*
X-18711329Y-16068712D01*
X-18655863Y-16202622D01*
X-18655862Y-16202624D01*
X-18655861Y-16202625D01*
X-18567621Y-16317621D01*
X-18452625Y-16405861D01*
X-18318709Y-16461330D01*
X-18191720Y-16478048D01*
X-18175001Y-16480250D01*
X-18175000Y-16480250D01*
X-18174999Y-16480250D01*
X-18160023Y-16478278D01*
X-18031291Y-16461330D01*
X-17897375Y-16405861D01*
X-17782379Y-16317621D01*
X-17730491Y-16249999D01*
X-1655250Y-16249999D01*
X-1655250Y-16250000D01*
X-1636330Y-16393708D01*
X-1636329Y-16393712D01*
X-1580863Y-16527622D01*
X-1580862Y-16527624D01*
X-1580861Y-16527625D01*
X-1492621Y-16642621D01*
X-1377625Y-16730861D01*
X-1243709Y-16786330D01*
X-1116720Y-16803048D01*
X-1100001Y-16805250D01*
X-1100000Y-16805250D01*
X-1099999Y-16805250D01*
X-1085023Y-16803278D01*
X-956291Y-16786330D01*
X-822375Y-16730861D01*
X-707379Y-16642621D01*
X-619139Y-16527625D01*
X-563670Y-16393709D01*
X-544750Y-16250000D01*
X-563670Y-16106291D01*
X-619139Y-15972375D01*
X-707379Y-15857379D01*
X-822375Y-15769139D01*
X-822376Y-15769138D01*
X-822378Y-15769137D01*
X-956288Y-15713671D01*
X-956290Y-15713670D01*
X-956291Y-15713670D01*
X-1060123Y-15700000D01*
X-1099999Y-15694750D01*
X-1100001Y-15694750D01*
X-1243709Y-15713670D01*
X-1243713Y-15713671D01*
X-1377623Y-15769137D01*
X-1492621Y-15857379D01*
X-1580863Y-15972377D01*
X-1636329Y-16106287D01*
X-1636330Y-16106291D01*
X-1655250Y-16249999D01*
X-17730491Y-16249999D01*
X-17694139Y-16202625D01*
X-17638670Y-16068709D01*
X-17619750Y-15925000D01*
X-17638670Y-15781291D01*
X-17694139Y-15647375D01*
X-17782379Y-15532379D01*
X-17897375Y-15444139D01*
X-17897376Y-15444138D01*
X-17897378Y-15444137D01*
X-18031288Y-15388671D01*
X-18031290Y-15388670D01*
X-18031291Y-15388670D01*
X-18103146Y-15379210D01*
X-18174999Y-15369750D01*
X-18175001Y-15369750D01*
X-18318709Y-15388670D01*
X-18318713Y-15388671D01*
X-18452623Y-15444137D01*
X-18567621Y-15532379D01*
X-18655863Y-15647377D01*
X-18711329Y-15781287D01*
X-18711330Y-15781291D01*
X-18730250Y-15924999D01*
X-19499500Y-15924999D01*
X-19499500Y-14403388D01*
X-11477500Y-14403388D01*
X-11477500Y-14596611D01*
X-11447275Y-14787441D01*
X-11387571Y-14971194D01*
X-11333343Y-15077622D01*
X-11299852Y-15143350D01*
X-11186285Y-15299663D01*
X-11049663Y-15436285D01*
X-10917400Y-15532379D01*
X-10893350Y-15549852D01*
X-10721195Y-15637570D01*
X-10629319Y-15667422D01*
X-10537440Y-15697275D01*
X-10449057Y-15711273D01*
X-10346611Y-15727500D01*
X-10346606Y-15727500D01*
X-10153389Y-15727500D01*
X-10060877Y-15712846D01*
X-9962560Y-15697275D01*
X-9778803Y-15637569D01*
X-9606650Y-15549852D01*
X-9450337Y-15436285D01*
X-9313715Y-15299663D01*
X-9200148Y-15143350D01*
X-9112431Y-14971197D01*
X-9052725Y-14787440D01*
X-9031952Y-14656287D01*
X-9022500Y-14596611D01*
X-9022500Y-14403388D01*
X-9042913Y-14274513D01*
X-9052725Y-14212560D01*
X-9107587Y-14043712D01*
X-9112430Y-14028805D01*
X-9178060Y-13899999D01*
X5544750Y-13899999D01*
X5544750Y-13900000D01*
X5563670Y-14043708D01*
X5563671Y-14043712D01*
X5619137Y-14177622D01*
X5619138Y-14177624D01*
X5619139Y-14177625D01*
X5693485Y-14274515D01*
X5718679Y-14339682D01*
X5704641Y-14408127D01*
X5693489Y-14425480D01*
X5650000Y-14482156D01*
X5619137Y-14522377D01*
X5563671Y-14656287D01*
X5563670Y-14656291D01*
X5544750Y-14799999D01*
X5544750Y-14800000D01*
X5563670Y-14943708D01*
X5563671Y-14943712D01*
X5619137Y-15077622D01*
X5619138Y-15077624D01*
X5619139Y-15077625D01*
X5693485Y-15174515D01*
X5718679Y-15239682D01*
X5704641Y-15308127D01*
X5693489Y-15325480D01*
X5659520Y-15369750D01*
X5619137Y-15422377D01*
X5563671Y-15556287D01*
X5563670Y-15556291D01*
X5544750Y-15700000D01*
X5553852Y-15769139D01*
X5563670Y-15843708D01*
X5563671Y-15843712D01*
X5619137Y-15977622D01*
X5619138Y-15977624D01*
X5619139Y-15977625D01*
X5707379Y-16092621D01*
X5822375Y-16180861D01*
X5956291Y-16236330D01*
X6083280Y-16253048D01*
X6099999Y-16255250D01*
X6100000Y-16255250D01*
X6100001Y-16255250D01*
X6114977Y-16253278D01*
X6243709Y-16236330D01*
X6377625Y-16180861D01*
X6474515Y-16106514D01*
X6539682Y-16081321D01*
X6608127Y-16095359D01*
X6625480Y-16106510D01*
X6722375Y-16180861D01*
X6856291Y-16236330D01*
X6983280Y-16253048D01*
X6999999Y-16255250D01*
X7000000Y-16255250D01*
X7000001Y-16255250D01*
X7014977Y-16253278D01*
X7143709Y-16236330D01*
X7277625Y-16180861D01*
X7392621Y-16092621D01*
X7480861Y-15977625D01*
X7536330Y-15843709D01*
X7555250Y-15700000D01*
X7536330Y-15556291D01*
X7480861Y-15422375D01*
X7406514Y-15325484D01*
X7381321Y-15260318D01*
X7395359Y-15191873D01*
X7406510Y-15174519D01*
X7480861Y-15077625D01*
X7536330Y-14943709D01*
X7555250Y-14800000D01*
X7536330Y-14656291D01*
X7480861Y-14522375D01*
X7406514Y-14425484D01*
X7397972Y-14403388D01*
X9522500Y-14403388D01*
X9522500Y-14596611D01*
X9552725Y-14787441D01*
X9612429Y-14971194D01*
X9666657Y-15077622D01*
X9700148Y-15143350D01*
X9813715Y-15299663D01*
X9950337Y-15436285D01*
X10082600Y-15532379D01*
X10106650Y-15549852D01*
X10278805Y-15637570D01*
X10370681Y-15667422D01*
X10462560Y-15697275D01*
X10550943Y-15711273D01*
X10653389Y-15727500D01*
X10653394Y-15727500D01*
X10846611Y-15727500D01*
X10939123Y-15712846D01*
X11037440Y-15697275D01*
X11221197Y-15637569D01*
X11393350Y-15549852D01*
X11549663Y-15436285D01*
X11686285Y-15299663D01*
X11799852Y-15143350D01*
X11887569Y-14971197D01*
X11947275Y-14787440D01*
X11968048Y-14656287D01*
X11977500Y-14596611D01*
X11977500Y-14403388D01*
X11957087Y-14274513D01*
X11947275Y-14212560D01*
X11892413Y-14043712D01*
X11887570Y-14028805D01*
X11799852Y-13856650D01*
X11781790Y-13831789D01*
X11686285Y-13700337D01*
X11549663Y-13563715D01*
X11487676Y-13518679D01*
X11393349Y-13450147D01*
X11221194Y-13362429D01*
X11037441Y-13302725D01*
X10846611Y-13272500D01*
X10846606Y-13272500D01*
X10653394Y-13272500D01*
X10653389Y-13272500D01*
X10462558Y-13302725D01*
X10278805Y-13362429D01*
X10106650Y-13450147D01*
X9950336Y-13563715D01*
X9813715Y-13700336D01*
X9700147Y-13856650D01*
X9612429Y-14028805D01*
X9552725Y-14212558D01*
X9522500Y-14403388D01*
X7397972Y-14403388D01*
X7381321Y-14360318D01*
X7395359Y-14291873D01*
X7406510Y-14274519D01*
X7480861Y-14177625D01*
X7536330Y-14043709D01*
X7555250Y-13900000D01*
X7536330Y-13756291D01*
X7480861Y-13622375D01*
X7392621Y-13507379D01*
X7277625Y-13419139D01*
X7277624Y-13419138D01*
X7277622Y-13419137D01*
X7143712Y-13363671D01*
X7143710Y-13363670D01*
X7143709Y-13363670D01*
X7071854Y-13354210D01*
X7000001Y-13344750D01*
X6999999Y-13344750D01*
X6856291Y-13363670D01*
X6856287Y-13363671D01*
X6722377Y-13419137D01*
X6690451Y-13443635D01*
X6625484Y-13493485D01*
X6560318Y-13518679D01*
X6491873Y-13504641D01*
X6474519Y-13493489D01*
X6377625Y-13419139D01*
X6377624Y-13419138D01*
X6377622Y-13419137D01*
X6243712Y-13363671D01*
X6243710Y-13363670D01*
X6243709Y-13363670D01*
X6171854Y-13354210D01*
X6100001Y-13344750D01*
X6099999Y-13344750D01*
X5956291Y-13363670D01*
X5956287Y-13363671D01*
X5822377Y-13419137D01*
X5707379Y-13507379D01*
X5619137Y-13622377D01*
X5563671Y-13756287D01*
X5563670Y-13756291D01*
X5544750Y-13899999D01*
X-9178060Y-13899999D01*
X-9200148Y-13856650D01*
X-9218210Y-13831789D01*
X-9313715Y-13700337D01*
X-9450337Y-13563715D01*
X-9512324Y-13518679D01*
X-9606651Y-13450147D01*
X-9778806Y-13362429D01*
X-9962559Y-13302725D01*
X-10153389Y-13272500D01*
X-10153394Y-13272500D01*
X-10346606Y-13272500D01*
X-10346611Y-13272500D01*
X-10537442Y-13302725D01*
X-10721195Y-13362429D01*
X-10893350Y-13450147D01*
X-11049664Y-13563715D01*
X-11186285Y-13700336D01*
X-11299853Y-13856650D01*
X-11387571Y-14028805D01*
X-11447275Y-14212558D01*
X-11477500Y-14403388D01*
X-19499500Y-14403388D01*
X-19499500Y-11700000D01*
X-17655250Y-11700000D01*
X-17646148Y-11769139D01*
X-17636330Y-11843708D01*
X-17636329Y-11843712D01*
X-17580863Y-11977622D01*
X-17580862Y-11977624D01*
X-17580861Y-11977625D01*
X-17492621Y-12092621D01*
X-17377625Y-12180861D01*
X-17243709Y-12236330D01*
X-17119961Y-12252622D01*
X-17100001Y-12255250D01*
X-17100000Y-12255250D01*
X-17099999Y-12255250D01*
X-17080039Y-12252622D01*
X-16956291Y-12236330D01*
X-16822375Y-12180861D01*
X-16707379Y-12092621D01*
X-16619139Y-11977625D01*
X-16618051Y-11974999D01*
X-14530250Y-11974999D01*
X-14530250Y-11975000D01*
X-14511330Y-12118708D01*
X-14511329Y-12118712D01*
X-14455863Y-12252622D01*
X-14455862Y-12252624D01*
X-14455861Y-12252625D01*
X-14367621Y-12367621D01*
X-14252625Y-12455861D01*
X-14118709Y-12511330D01*
X-13994961Y-12527622D01*
X-13975001Y-12530250D01*
X-13975000Y-12530250D01*
X-13974999Y-12530250D01*
X-13955039Y-12527622D01*
X-13831291Y-12511330D01*
X-13697375Y-12455861D01*
X-13582379Y-12367621D01*
X-13494139Y-12252625D01*
X-13493051Y-12249999D01*
X-8380250Y-12249999D01*
X-8380250Y-12250000D01*
X-8361330Y-12393708D01*
X-8361329Y-12393712D01*
X-8305863Y-12527622D01*
X-8305862Y-12527624D01*
X-8305861Y-12527625D01*
X-8217621Y-12642621D01*
X-8102625Y-12730861D01*
X-8102624Y-12730861D01*
X-8102623Y-12730862D01*
X-8057987Y-12749350D01*
X-7968709Y-12786330D01*
X-7841720Y-12803048D01*
X-7825001Y-12805250D01*
X-7825000Y-12805250D01*
X-7824999Y-12805250D01*
X-7810023Y-12803278D01*
X-7681291Y-12786330D01*
X-7547375Y-12730861D01*
X-7432379Y-12642621D01*
X-7344139Y-12527625D01*
X-7288670Y-12393709D01*
X-7269750Y-12250000D01*
X-7288670Y-12106291D01*
X-7331610Y-12002622D01*
X-7344138Y-11972377D01*
X-7344139Y-11972376D01*
X-7344139Y-11972375D01*
X-7432379Y-11857379D01*
X-7547375Y-11769139D01*
X-7547376Y-11769138D01*
X-7547378Y-11769137D01*
X-7653937Y-11725000D01*
X7844750Y-11725000D01*
X7860378Y-11843708D01*
X7863670Y-11868708D01*
X7863671Y-11868712D01*
X7919137Y-12002622D01*
X7919138Y-12002624D01*
X7919139Y-12002625D01*
X8007379Y-12117621D01*
X8122375Y-12205861D01*
X8256291Y-12261330D01*
X8380039Y-12277622D01*
X8399999Y-12280250D01*
X8400000Y-12280250D01*
X8400001Y-12280250D01*
X8419961Y-12277622D01*
X8543709Y-12261330D01*
X8677625Y-12205861D01*
X8792621Y-12117621D01*
X8880861Y-12002625D01*
X8881948Y-12000000D01*
X12294750Y-12000000D01*
X12312698Y-12136329D01*
X12313670Y-12143708D01*
X12313671Y-12143712D01*
X12369137Y-12277622D01*
X12369138Y-12277624D01*
X12369139Y-12277625D01*
X12457379Y-12392621D01*
X12572375Y-12480861D01*
X12706291Y-12536330D01*
X12833280Y-12553048D01*
X12849999Y-12555250D01*
X12850000Y-12555250D01*
X12850001Y-12555250D01*
X12864977Y-12553278D01*
X12993709Y-12536330D01*
X13127625Y-12480861D01*
X13242621Y-12392621D01*
X13330861Y-12277625D01*
X13386330Y-12143709D01*
X13405250Y-12000000D01*
X13386330Y-11856291D01*
X13330861Y-11722375D01*
X13242621Y-11607379D01*
X13127625Y-11519139D01*
X13127624Y-11519138D01*
X13127622Y-11519137D01*
X12993712Y-11463671D01*
X12993710Y-11463670D01*
X12993709Y-11463670D01*
X12869954Y-11447377D01*
X12850001Y-11444750D01*
X12849999Y-11444750D01*
X12706291Y-11463670D01*
X12706287Y-11463671D01*
X12572377Y-11519137D01*
X12457379Y-11607379D01*
X12369137Y-11722377D01*
X12313671Y-11856287D01*
X12313670Y-11856291D01*
X12295722Y-11992620D01*
X12294750Y-12000000D01*
X8881948Y-12000000D01*
X8936330Y-11868709D01*
X8955250Y-11725000D01*
X8954904Y-11722375D01*
X8951267Y-11694750D01*
X8936330Y-11581291D01*
X8884554Y-11456291D01*
X8880862Y-11447377D01*
X8880861Y-11447376D01*
X8880861Y-11447375D01*
X8792621Y-11332379D01*
X8677625Y-11244139D01*
X8677624Y-11244138D01*
X8677622Y-11244137D01*
X8543712Y-11188671D01*
X8543710Y-11188670D01*
X8543709Y-11188670D01*
X8471854Y-11179210D01*
X8400001Y-11169750D01*
X8399999Y-11169750D01*
X8256291Y-11188670D01*
X8256287Y-11188671D01*
X8122377Y-11244137D01*
X8007379Y-11332379D01*
X7919137Y-11447377D01*
X7863671Y-11581287D01*
X7863670Y-11581291D01*
X7845096Y-11722375D01*
X7844750Y-11725000D01*
X-7653937Y-11725000D01*
X-7681288Y-11713671D01*
X-7681290Y-11713670D01*
X-7681291Y-11713670D01*
X-7785123Y-11700000D01*
X-7824999Y-11694750D01*
X-7825001Y-11694750D01*
X-7968709Y-11713670D01*
X-7968713Y-11713671D01*
X-8102623Y-11769137D01*
X-8217621Y-11857379D01*
X-8305863Y-11972377D01*
X-8361329Y-12106287D01*
X-8361330Y-12106291D01*
X-8380250Y-12249999D01*
X-13493051Y-12249999D01*
X-13438670Y-12118709D01*
X-13419750Y-11975000D01*
X-13420096Y-11972375D01*
X-13421952Y-11958280D01*
X-13438670Y-11831291D01*
X-13475650Y-11742013D01*
X-13494138Y-11697377D01*
X-13494139Y-11697376D01*
X-13494139Y-11697375D01*
X-13568858Y-11600000D01*
X-11155250Y-11600000D01*
X-11142085Y-11700000D01*
X-11136330Y-11743708D01*
X-11136329Y-11743712D01*
X-11080863Y-11877622D01*
X-11080862Y-11877623D01*
X-11080861Y-11877625D01*
X-10992621Y-11992621D01*
X-10877625Y-12080861D01*
X-10877624Y-12080861D01*
X-10877623Y-12080862D01*
X-10832987Y-12099350D01*
X-10743709Y-12136330D01*
X-10616720Y-12153048D01*
X-10600001Y-12155250D01*
X-10600000Y-12155250D01*
X-10599999Y-12155250D01*
X-10585023Y-12153278D01*
X-10456291Y-12136330D01*
X-10322375Y-12080861D01*
X-10207379Y-11992621D01*
X-10119139Y-11877625D01*
X-10063670Y-11743709D01*
X-10044750Y-11600000D01*
X-10063670Y-11456291D01*
X-10119139Y-11322375D01*
X-10207379Y-11207379D01*
X-10322375Y-11119139D01*
X-10322376Y-11119138D01*
X-10322378Y-11119137D01*
X-10456288Y-11063671D01*
X-10456290Y-11063670D01*
X-10456291Y-11063670D01*
X-10528146Y-11054210D01*
X-10599999Y-11044750D01*
X-10600001Y-11044750D01*
X-10743709Y-11063670D01*
X-10743713Y-11063671D01*
X-10877623Y-11119137D01*
X-10992621Y-11207379D01*
X-11080863Y-11322377D01*
X-11136329Y-11456287D01*
X-11136330Y-11456291D01*
X-11149495Y-11556291D01*
X-11155250Y-11600000D01*
X-13568858Y-11600000D01*
X-13582379Y-11582379D01*
X-13697375Y-11494139D01*
X-13697376Y-11494138D01*
X-13697378Y-11494137D01*
X-13831288Y-11438671D01*
X-13831290Y-11438670D01*
X-13831291Y-11438670D01*
X-13955046Y-11422377D01*
X-13974999Y-11419750D01*
X-13975001Y-11419750D01*
X-14118709Y-11438670D01*
X-14118713Y-11438671D01*
X-14252623Y-11494137D01*
X-14367621Y-11582379D01*
X-14455863Y-11697377D01*
X-14511329Y-11831287D01*
X-14511330Y-11831291D01*
X-14530250Y-11974999D01*
X-16618051Y-11974999D01*
X-16563670Y-11843709D01*
X-16544750Y-11700000D01*
X-16545096Y-11697375D01*
X-16546952Y-11683280D01*
X-16563670Y-11556291D01*
X-16619139Y-11422375D01*
X-16707379Y-11307379D01*
X-16822375Y-11219139D01*
X-16822376Y-11219138D01*
X-16822378Y-11219137D01*
X-16956288Y-11163671D01*
X-16956290Y-11163670D01*
X-16956291Y-11163670D01*
X-17028146Y-11154210D01*
X-17099999Y-11144750D01*
X-17100001Y-11144750D01*
X-17243709Y-11163670D01*
X-17243713Y-11163671D01*
X-17377623Y-11219137D01*
X-17492621Y-11307379D01*
X-17580863Y-11422377D01*
X-17636329Y-11556287D01*
X-17636330Y-11556291D01*
X-17654904Y-11697375D01*
X-17655250Y-11700000D01*
X-19499500Y-11700000D01*
X-19499500Y-11000000D01*
X9644750Y-11000000D01*
X9653132Y-11063670D01*
X9663670Y-11143708D01*
X9663671Y-11143712D01*
X9719137Y-11277622D01*
X9719138Y-11277624D01*
X9719139Y-11277625D01*
X9807379Y-11392621D01*
X9922375Y-11480861D01*
X9922376Y-11480861D01*
X9922377Y-11480862D01*
X9954431Y-11494139D01*
X10056291Y-11536330D01*
X10183280Y-11553048D01*
X10199999Y-11555250D01*
X10200000Y-11555250D01*
X10200001Y-11555250D01*
X10214977Y-11553278D01*
X10343709Y-11536330D01*
X10477625Y-11480861D01*
X10592621Y-11392621D01*
X10680861Y-11277625D01*
X10736330Y-11143709D01*
X10755250Y-11000000D01*
X10736330Y-10856291D01*
X10680861Y-10722375D01*
X10592621Y-10607379D01*
X10477625Y-10519139D01*
X10477624Y-10519138D01*
X10477622Y-10519137D01*
X10343712Y-10463671D01*
X10343710Y-10463670D01*
X10343709Y-10463670D01*
X10271854Y-10454210D01*
X10200001Y-10444750D01*
X10199999Y-10444750D01*
X10056291Y-10463670D01*
X10056287Y-10463671D01*
X9922377Y-10519137D01*
X9807379Y-10607379D01*
X9719137Y-10722377D01*
X9663671Y-10856287D01*
X9663670Y-10856291D01*
X9644750Y-11000000D01*
X-19499500Y-11000000D01*
X-19499500Y-9249999D01*
X-6080250Y-9249999D01*
X-6080250Y-9250000D01*
X-6061330Y-9393708D01*
X-6061329Y-9393712D01*
X-6005863Y-9527622D01*
X-6005862Y-9527624D01*
X-6005861Y-9527625D01*
X-5917621Y-9642621D01*
X-5802625Y-9730861D01*
X-5668709Y-9786330D01*
X-5541720Y-9803048D01*
X-5525001Y-9805250D01*
X-5525000Y-9805250D01*
X-5524999Y-9805250D01*
X-5510023Y-9803278D01*
X-5381291Y-9786330D01*
X-5247375Y-9730861D01*
X-5132379Y-9642621D01*
X-5044139Y-9527625D01*
X-4988670Y-9393709D01*
X-4969750Y-9250000D01*
X-4988670Y-9106291D01*
X-5044139Y-8972375D01*
X-5132379Y-8857379D01*
X-5247375Y-8769139D01*
X-5247376Y-8769138D01*
X-5247378Y-8769137D01*
X-5381288Y-8713671D01*
X-5381290Y-8713670D01*
X-5381291Y-8713670D01*
X-5453146Y-8704210D01*
X-5524999Y-8694750D01*
X-5525001Y-8694750D01*
X-5668709Y-8713670D01*
X-5668713Y-8713671D01*
X-5802623Y-8769137D01*
X-5917621Y-8857379D01*
X-6005863Y-8972377D01*
X-6061329Y-9106287D01*
X-6061330Y-9106291D01*
X-6080250Y-9249999D01*
X-19499500Y-9249999D01*
X-19499500Y-6199999D01*
X-6130250Y-6199999D01*
X-6130250Y-6200000D01*
X-6111330Y-6343708D01*
X-6111329Y-6343712D01*
X-6055863Y-6477622D01*
X-6055862Y-6477624D01*
X-6055861Y-6477625D01*
X-5967621Y-6592621D01*
X-5852625Y-6680861D01*
X-5718709Y-6736330D01*
X-5591720Y-6753048D01*
X-5575001Y-6755250D01*
X-5575000Y-6755250D01*
X-5574999Y-6755250D01*
X-5560023Y-6753278D01*
X-5431291Y-6736330D01*
X-5297375Y-6680861D01*
X-5182379Y-6592621D01*
X-5094139Y-6477625D01*
X-5038670Y-6343709D01*
X-5019750Y-6200000D01*
X-5038670Y-6056291D01*
X-5094139Y-5922375D01*
X-5182379Y-5807379D01*
X-5297375Y-5719139D01*
X-5297376Y-5719138D01*
X-5297378Y-5719137D01*
X-5431288Y-5663671D01*
X-5431290Y-5663670D01*
X-5431291Y-5663670D01*
X-5503146Y-5654210D01*
X-5574999Y-5644750D01*
X-5575001Y-5644750D01*
X-5718709Y-5663670D01*
X-5718713Y-5663671D01*
X-5852623Y-5719137D01*
X-5967621Y-5807379D01*
X-6055863Y-5922377D01*
X-6111329Y-6056287D01*
X-6111330Y-6056291D01*
X-6130250Y-6199999D01*
X-19499500Y-6199999D01*
X-19499500Y-3574999D01*
X-6130250Y-3574999D01*
X-6130250Y-3575000D01*
X-6111330Y-3718708D01*
X-6111329Y-3718712D01*
X-6055863Y-3852622D01*
X-6055862Y-3852624D01*
X-6055861Y-3852625D01*
X-5967621Y-3967621D01*
X-5852625Y-4055861D01*
X-5718709Y-4111330D01*
X-5591720Y-4128048D01*
X-5575001Y-4130250D01*
X-5575000Y-4130250D01*
X-5574999Y-4130250D01*
X-5560023Y-4128278D01*
X-5431291Y-4111330D01*
X-5297375Y-4055861D01*
X-5182379Y-3967621D01*
X-5094139Y-3852625D01*
X-5038670Y-3718709D01*
X-5019750Y-3575000D01*
X-5034891Y-3459997D01*
X-3985500Y-3459997D01*
X-3985500Y-5150005D01*
X-3966052Y-5247774D01*
X-3966050Y-5247779D01*
X-3957264Y-5268990D01*
X-3957263Y-5268991D01*
X-3901881Y-5351877D01*
X-3818991Y-5407263D01*
X-3818990Y-5407263D01*
X-3818989Y-5407264D01*
X-3801837Y-5414369D01*
X-3799284Y-5415534D01*
X-3797781Y-5416049D01*
X-3797778Y-5416050D01*
X-3797776Y-5416051D01*
X-3797773Y-5416051D01*
X-3789927Y-5418739D01*
X-3790531Y-5420501D01*
X-3737906Y-5448023D01*
X-3703326Y-5508736D01*
X-3700000Y-5537263D01*
X-3700000Y-6462736D01*
X-3719685Y-6529775D01*
X-3772489Y-6575530D01*
X-3792049Y-6581847D01*
X-3791947Y-6582181D01*
X-3797780Y-6583950D01*
X-3818991Y-6592736D01*
X-3901878Y-6648119D01*
X-3957263Y-6731008D01*
X-3964371Y-6748168D01*
X-3965535Y-6750716D01*
X-3966051Y-6752224D01*
X-3985500Y-6849997D01*
X-3985500Y-8540005D01*
X-3966052Y-8637774D01*
X-3966050Y-8637778D01*
X-3958945Y-8654932D01*
X-3955877Y-8663152D01*
X-3954644Y-8666849D01*
X-3955689Y-8667197D01*
X-3946869Y-8698588D01*
X-3939546Y-8777626D01*
X-3930879Y-8823990D01*
X-3930878Y-8823992D01*
X-3872049Y-9030754D01*
X-3855016Y-9074722D01*
X-3759191Y-9267165D01*
X-3759186Y-9267172D01*
X-3734372Y-9307249D01*
X-3604813Y-9478813D01*
X-3573053Y-9513651D01*
X-3414185Y-9658479D01*
X-3414182Y-9658481D01*
X-3414180Y-9658483D01*
X-3376554Y-9686896D01*
X-3355390Y-9700000D01*
X-3193775Y-9800068D01*
X-3151576Y-9821082D01*
X-3151571Y-9821084D01*
X-3151569Y-9821085D01*
X-2951106Y-9898745D01*
X-2905757Y-9911648D01*
X-2694438Y-9951150D01*
X-2686481Y-9951887D01*
X-2650458Y-9960798D01*
X-2641826Y-9964373D01*
X-2639279Y-9965536D01*
X-2637788Y-9966046D01*
X-2637778Y-9966050D01*
X-2637776Y-9966051D01*
X-2576544Y-9978231D01*
X-2540003Y-9985500D01*
X-2540000Y-9985500D01*
X-849995Y-9985500D01*
X-752226Y-9966051D01*
X-752225Y-9966050D01*
X-752222Y-9966050D01*
X-731009Y-9957263D01*
X-648123Y-9901881D01*
X-592737Y-9818991D01*
X-585625Y-9801821D01*
X-584465Y-9799279D01*
X-583956Y-9797792D01*
X-583950Y-9797778D01*
X-583949Y-9797776D01*
X-564501Y-9700005D01*
X-564500Y-9700002D01*
X-564500Y-7794000D01*
X-544815Y-7726961D01*
X-492011Y-7681206D01*
X-440500Y-7670000D01*
X440500Y-7670000D01*
X507539Y-7689685D01*
X553294Y-7742489D01*
X564500Y-7794000D01*
X564500Y-9700005D01*
X583948Y-9797774D01*
X583950Y-9797779D01*
X592736Y-9818990D01*
X592737Y-9818991D01*
X648119Y-9901877D01*
X731009Y-9957263D01*
X731010Y-9957263D01*
X731011Y-9957264D01*
X748163Y-9964369D01*
X750716Y-9965534D01*
X752212Y-9966046D01*
X752222Y-9966050D01*
X752224Y-9966051D01*
X813456Y-9978231D01*
X849997Y-9985500D01*
X850000Y-9985500D01*
X2540005Y-9985500D01*
X2637774Y-9966051D01*
X2637775Y-9966050D01*
X2637778Y-9966050D01*
X2650452Y-9960799D01*
X2686469Y-9951888D01*
X2694438Y-9951150D01*
X2905757Y-9911648D01*
X2951106Y-9898745D01*
X3151569Y-9821085D01*
X3193775Y-9800068D01*
X3376554Y-9686896D01*
X3414180Y-9658483D01*
X3573052Y-9513652D01*
X3592752Y-9492041D01*
X3604812Y-9478813D01*
X3604816Y-9478808D01*
X3734370Y-9307251D01*
X3759191Y-9267164D01*
X3855016Y-9074722D01*
X3872048Y-9030757D01*
X3930880Y-8823984D01*
X3939544Y-8777637D01*
X3941245Y-8759270D01*
X3946868Y-8698588D01*
X3955779Y-8662572D01*
X3957261Y-8658993D01*
X3957263Y-8658991D01*
X3964374Y-8641823D01*
X3965535Y-8639279D01*
X3966044Y-8637792D01*
X3966050Y-8637778D01*
X3966051Y-8637776D01*
X3985499Y-8540005D01*
X3985500Y-8540002D01*
X3985500Y-8099999D01*
X4744750Y-8099999D01*
X4744750Y-8100000D01*
X4763670Y-8243708D01*
X4763671Y-8243712D01*
X4819137Y-8377622D01*
X4819138Y-8377624D01*
X4819139Y-8377625D01*
X4907379Y-8492621D01*
X5022375Y-8580861D01*
X5156291Y-8636330D01*
X5283280Y-8653048D01*
X5299999Y-8655250D01*
X5300000Y-8655250D01*
X5300001Y-8655250D01*
X5314977Y-8653278D01*
X5443709Y-8636330D01*
X5577625Y-8580861D01*
X5692621Y-8492621D01*
X5780861Y-8377625D01*
X5836330Y-8243709D01*
X5855250Y-8100000D01*
X5836330Y-7956291D01*
X5780861Y-7822375D01*
X5692621Y-7707379D01*
X5577625Y-7619139D01*
X5577624Y-7619138D01*
X5577622Y-7619137D01*
X5443712Y-7563671D01*
X5443710Y-7563670D01*
X5443709Y-7563670D01*
X5371854Y-7554210D01*
X5300001Y-7544750D01*
X5299999Y-7544750D01*
X5156291Y-7563670D01*
X5156287Y-7563671D01*
X5022377Y-7619137D01*
X4907379Y-7707379D01*
X4819137Y-7822377D01*
X4763671Y-7956287D01*
X4763670Y-7956291D01*
X4744750Y-8099999D01*
X3985500Y-8099999D01*
X3985500Y-6849994D01*
X3966051Y-6752225D01*
X3966049Y-6752220D01*
X3957263Y-6731009D01*
X3923756Y-6680862D01*
X3901881Y-6648123D01*
X3901875Y-6648119D01*
X3815109Y-6590143D01*
X3770304Y-6536531D01*
X3760000Y-6487041D01*
X3760000Y-6000000D01*
X4744750Y-6000000D01*
X4752160Y-6056287D01*
X4763670Y-6143708D01*
X4763671Y-6143712D01*
X4819137Y-6277622D01*
X4819138Y-6277624D01*
X4819139Y-6277625D01*
X4907379Y-6392621D01*
X5022375Y-6480861D01*
X5156291Y-6536330D01*
X5283280Y-6553048D01*
X5299999Y-6555250D01*
X5300000Y-6555250D01*
X5300001Y-6555250D01*
X5314977Y-6553278D01*
X5443709Y-6536330D01*
X5577625Y-6480861D01*
X5692621Y-6392621D01*
X5780861Y-6277625D01*
X5836330Y-6143709D01*
X5855250Y-6000000D01*
X5836330Y-5856291D01*
X5780861Y-5722375D01*
X5692621Y-5607379D01*
X5577625Y-5519139D01*
X5577624Y-5519138D01*
X5577622Y-5519137D01*
X5443712Y-5463671D01*
X5443710Y-5463670D01*
X5443709Y-5463670D01*
X5371854Y-5454210D01*
X5300001Y-5444750D01*
X5299999Y-5444750D01*
X5156291Y-5463670D01*
X5156287Y-5463671D01*
X5022377Y-5519137D01*
X4907379Y-5607379D01*
X4819137Y-5722377D01*
X4763671Y-5856287D01*
X4763670Y-5856291D01*
X4744750Y-6000000D01*
X3760000Y-6000000D01*
X3760000Y-5508462D01*
X3779685Y-5441423D01*
X3825549Y-5399102D01*
X3828979Y-5397267D01*
X3828991Y-5397263D01*
X3911877Y-5341881D01*
X3967263Y-5258991D01*
X3974375Y-5241821D01*
X3975535Y-5239279D01*
X3976044Y-5237792D01*
X3976050Y-5237778D01*
X3976051Y-5237776D01*
X3995500Y-5140000D01*
X3995500Y-4199999D01*
X4744750Y-4199999D01*
X4744750Y-4200000D01*
X4763670Y-4343708D01*
X4763671Y-4343712D01*
X4819137Y-4477622D01*
X4819138Y-4477624D01*
X4819139Y-4477625D01*
X4907379Y-4592621D01*
X5022375Y-4680861D01*
X5156291Y-4736330D01*
X5283280Y-4753048D01*
X5299999Y-4755250D01*
X5300000Y-4755250D01*
X5300001Y-4755250D01*
X5314977Y-4753278D01*
X5443709Y-4736330D01*
X5577625Y-4680861D01*
X5692621Y-4592621D01*
X5780861Y-4477625D01*
X5836330Y-4343709D01*
X5855250Y-4200000D01*
X5836330Y-4056291D01*
X5780861Y-3922375D01*
X5692621Y-3807379D01*
X5577625Y-3719139D01*
X5577624Y-3719138D01*
X5577622Y-3719137D01*
X5443712Y-3663671D01*
X5443710Y-3663670D01*
X5443709Y-3663670D01*
X5371854Y-3654210D01*
X5300001Y-3644750D01*
X5299999Y-3644750D01*
X5156291Y-3663670D01*
X5156287Y-3663671D01*
X5022377Y-3719137D01*
X4907379Y-3807379D01*
X4819137Y-3922377D01*
X4763671Y-4056287D01*
X4763670Y-4056291D01*
X4744750Y-4199999D01*
X3995500Y-4199999D01*
X3995500Y-3449997D01*
X3995500Y-3449994D01*
X3976051Y-3352225D01*
X3976050Y-3352223D01*
X3971405Y-3341009D01*
X3970798Y-3339542D01*
X3961887Y-3303519D01*
X3961150Y-3295562D01*
X3921648Y-3084243D01*
X3908745Y-3038894D01*
X3831085Y-2838431D01*
X3810068Y-2796225D01*
X3696896Y-2613446D01*
X3668483Y-2575820D01*
X3668481Y-2575818D01*
X3668479Y-2575815D01*
X3523651Y-2416947D01*
X3488813Y-2385187D01*
X3317249Y-2255628D01*
X3277172Y-2230814D01*
X3277165Y-2230809D01*
X3084722Y-2134984D01*
X3040754Y-2117951D01*
X2833992Y-2059122D01*
X2833990Y-2059121D01*
X2787627Y-2050454D01*
X2708583Y-2043130D01*
X2672571Y-2034220D01*
X2668988Y-2032736D01*
X2651834Y-2025630D01*
X2649282Y-2024465D01*
X2647778Y-2023950D01*
X2647776Y-2023949D01*
X2600273Y-2014500D01*
X2550002Y-2004500D01*
X2550000Y-2004500D01*
X859997Y-2004500D01*
X859995Y-2004500D01*
X762225Y-2023948D01*
X762220Y-2023950D01*
X741009Y-2032736D01*
X658122Y-2088119D01*
X602737Y-2171008D01*
X595629Y-2188168D01*
X594465Y-2190716D01*
X593949Y-2192222D01*
X592364Y-2200194D01*
X559978Y-2262104D01*
X499261Y-2296677D01*
X470747Y-2300000D01*
X-462736Y-2300000D01*
X-529775Y-2280315D01*
X-575530Y-2227511D01*
X-581848Y-2207951D01*
X-582181Y-2208053D01*
X-583951Y-2202220D01*
X-588092Y-2192224D01*
X-592737Y-2181009D01*
X-648119Y-2098123D01*
X-650382Y-2096611D01*
X-731012Y-2042735D01*
X-748167Y-2035629D01*
X-750714Y-2034466D01*
X-752222Y-2033950D01*
X-752224Y-2033949D01*
X-794041Y-2025631D01*
X-849998Y-2014500D01*
X-850000Y-2014500D01*
X-2540003Y-2014500D01*
X-2540005Y-2014500D01*
X-2637775Y-2033948D01*
X-2637784Y-2033951D01*
X-2650460Y-2039202D01*
X-2686465Y-2048111D01*
X-2694433Y-2048849D01*
X-2718665Y-2053378D01*
X-2905757Y-2088352D01*
X-2905763Y-2088353D01*
X-2905765Y-2088354D01*
X-2951090Y-2101250D01*
X-2951102Y-2101253D01*
X-2951106Y-2101255D01*
X-2951109Y-2101256D01*
X-2951124Y-2101261D01*
X-3151564Y-2178912D01*
X-3151576Y-2178917D01*
X-3193775Y-2199931D01*
X-3376555Y-2313104D01*
X-3414177Y-2341514D01*
X-3414185Y-2341520D01*
X-3573053Y-2486348D01*
X-3604813Y-2521186D01*
X-3734372Y-2692750D01*
X-3759186Y-2732827D01*
X-3759191Y-2732834D01*
X-3855016Y-2925277D01*
X-3872049Y-2969245D01*
X-3930878Y-3176007D01*
X-3930879Y-3176009D01*
X-3939546Y-3222373D01*
X-3946869Y-3301413D01*
X-3955781Y-3337430D01*
X-3964372Y-3358168D01*
X-3965533Y-3360712D01*
X-3966051Y-3362224D01*
X-3985500Y-3459997D01*
X-5034891Y-3459997D01*
X-5038670Y-3431291D01*
X-5094139Y-3297375D01*
X-5182379Y-3182379D01*
X-5297375Y-3094139D01*
X-5297376Y-3094138D01*
X-5297378Y-3094137D01*
X-5431288Y-3038671D01*
X-5431290Y-3038670D01*
X-5431291Y-3038670D01*
X-5503146Y-3029210D01*
X-5574999Y-3019750D01*
X-5575001Y-3019750D01*
X-5718709Y-3038670D01*
X-5718713Y-3038671D01*
X-5852623Y-3094137D01*
X-5967621Y-3182379D01*
X-6055863Y-3297377D01*
X-6111329Y-3431287D01*
X-6111330Y-3431291D01*
X-6130250Y-3574999D01*
X-19499500Y-3574999D01*
X-19499500Y-2004427D01*
X-19499184Y-1995581D01*
X-19494787Y-1934108D01*
X-19492590Y-1903388D01*
X-11477500Y-1903388D01*
X-11477500Y-2096611D01*
X-11447275Y-2287441D01*
X-11387571Y-2471194D01*
X-11315090Y-2613445D01*
X-11299852Y-2643350D01*
X-11186285Y-2799663D01*
X-11049663Y-2936285D01*
X-10893350Y-3049852D01*
X-10721195Y-3137570D01*
X-10629319Y-3167422D01*
X-10537440Y-3197275D01*
X-10449057Y-3211273D01*
X-10346611Y-3227500D01*
X-10346606Y-3227500D01*
X-10153389Y-3227500D01*
X-10060877Y-3212846D01*
X-9962560Y-3197275D01*
X-9778803Y-3137569D01*
X-9606650Y-3049852D01*
X-9450337Y-2936285D01*
X-9313715Y-2799663D01*
X-9200148Y-2643350D01*
X-9112431Y-2471197D01*
X-9052725Y-2287440D01*
X-9028578Y-2134984D01*
X-9022500Y-2096611D01*
X-9022500Y-1903388D01*
X9522500Y-1903388D01*
X9522500Y-2096611D01*
X9552725Y-2287441D01*
X9612429Y-2471194D01*
X9684910Y-2613445D01*
X9700148Y-2643350D01*
X9813715Y-2799663D01*
X9950337Y-2936285D01*
X10106650Y-3049852D01*
X10278805Y-3137570D01*
X10370681Y-3167422D01*
X10462560Y-3197275D01*
X10550943Y-3211273D01*
X10653389Y-3227500D01*
X10653394Y-3227500D01*
X10846611Y-3227500D01*
X10939123Y-3212846D01*
X11037440Y-3197275D01*
X11221197Y-3137569D01*
X11393350Y-3049852D01*
X11549663Y-2936285D01*
X11686285Y-2799663D01*
X11799852Y-2643350D01*
X11887569Y-2471197D01*
X11947275Y-2287440D01*
X11971422Y-2134984D01*
X11977500Y-2096611D01*
X11977500Y-1903388D01*
X11957629Y-1777931D01*
X11947275Y-1712560D01*
X11903405Y-1577542D01*
X11887570Y-1528805D01*
X11799852Y-1356650D01*
X11686284Y-1200336D01*
X11549663Y-1063715D01*
X11393349Y-950147D01*
X11221194Y-862429D01*
X11037441Y-802725D01*
X10846611Y-772500D01*
X10846606Y-772500D01*
X10653394Y-772500D01*
X10653389Y-772500D01*
X10462558Y-802725D01*
X10278805Y-862429D01*
X10106650Y-950147D01*
X9950336Y-1063715D01*
X9813715Y-1200336D01*
X9700147Y-1356650D01*
X9612429Y-1528805D01*
X9552725Y-1712558D01*
X9522500Y-1903388D01*
X-9022500Y-1903388D01*
X-9042371Y-1777931D01*
X-9052725Y-1712560D01*
X-9096595Y-1577542D01*
X-9112430Y-1528805D01*
X-9200148Y-1356650D01*
X-9313716Y-1200336D01*
X-9450337Y-1063715D01*
X-9606651Y-950147D01*
X-9778806Y-862429D01*
X-9962559Y-802725D01*
X-10153389Y-772500D01*
X-10153394Y-772500D01*
X-10346606Y-772500D01*
X-10346611Y-772500D01*
X-10537442Y-802725D01*
X-10721195Y-862429D01*
X-10893350Y-950147D01*
X-11049664Y-1063715D01*
X-11186285Y-1200336D01*
X-11299853Y-1356650D01*
X-11387571Y-1528805D01*
X-11447275Y-1712558D01*
X-11477500Y-1903388D01*
X-19492590Y-1903388D01*
X-19484870Y-1795436D01*
X-19482354Y-1777938D01*
X-19440644Y-1586199D01*
X-19435667Y-1569248D01*
X-19367089Y-1385385D01*
X-19359741Y-1369298D01*
X-19267482Y-1200337D01*
X-19265709Y-1197089D01*
X-19256155Y-1182221D01*
X-19138552Y-1025123D01*
X-19126980Y-1011769D01*
X-18988231Y-873020D01*
X-18974877Y-861448D01*
X-18817779Y-743845D01*
X-18802911Y-734291D01*
X-18630702Y-640258D01*
X-18614615Y-632911D01*
X-18430752Y-564333D01*
X-18413801Y-559356D01*
X-18222062Y-517646D01*
X-18204564Y-515130D01*
X-18004418Y-500816D01*
X-17995572Y-500500D01*
X-17934108Y-500500D01*
X17934108Y-500500D01*
X17995572Y-500500D01*
X18004418Y-500816D01*
G37*
%TD.AperFunction*%
%TD*%
%TA.AperFunction,Conductor*%
%TO.N,/connector/V_POC*%
G36*
X15989486Y-24044685D02*
G01*
X16035241Y-24097489D01*
X16046447Y-24149000D01*
X16046447Y-25539771D01*
X16026762Y-25606810D01*
X16010129Y-25627451D01*
X15973901Y-25663680D01*
X15912579Y-25697166D01*
X15886219Y-25700000D01*
X15311910Y-25700000D01*
X15281459Y-25696203D01*
X14663964Y-25539771D01*
X13421447Y-25225000D01*
X13421446Y-25225000D01*
X10671448Y-25225000D01*
X10671447Y-25225000D01*
X9428930Y-25539771D01*
X8811435Y-25696203D01*
X8780984Y-25700000D01*
X8170447Y-25700000D01*
X8103408Y-25680315D01*
X8057653Y-25627511D01*
X8046447Y-25576000D01*
X8046447Y-24149000D01*
X8066132Y-24081961D01*
X8118936Y-24036206D01*
X8170447Y-24025000D01*
X15922447Y-24025000D01*
X15989486Y-24044685D01*
G37*
%TD.AperFunction*%
%TD*%
M02*
