%TF.GenerationSoftware,KiCad,Pcbnew,8.0.5*%
%TF.CreationDate,2025-03-05T14:18:00-05:00*%
%TF.ProjectId,minimax,6d696e69-6d61-4782-9e6b-696361645f70,rev?*%
%TF.SameCoordinates,Original*%
%TF.FileFunction,Copper,L4,Bot*%
%TF.FilePolarity,Positive*%
%FSLAX46Y46*%
G04 Gerber Fmt 4.6, Leading zero omitted, Abs format (unit mm)*
G04 Created by KiCad (PCBNEW 8.0.5) date 2025-03-05 14:18:00*
%MOMM*%
%LPD*%
G01*
G04 APERTURE LIST*
G04 Aperture macros list*
%AMFreePoly0*
4,1,25,1.707678,1.177678,1.715000,1.160000,1.715000,-0.940000,1.707678,-0.957678,0.957678,-1.707678,0.940000,-1.715000,-1.160000,-1.715000,-1.177678,-1.707678,-1.185000,-1.690000,-1.185000,0.000000,-1.177678,0.017678,-1.156389,0.038966,-1.140249,0.213149,-1.081668,0.419040,-0.986252,0.610661,-0.857250,0.781487,-0.699056,0.925700,-0.517056,1.038389,-0.317449,1.115718,-0.107031,1.155052,
-0.040304,1.155052,-0.017678,1.177678,0.000000,1.185000,1.690000,1.185000,1.707678,1.177678,1.707678,1.177678,$1*%
%AMFreePoly1*
4,1,25,0.017678,1.177678,0.040304,1.155052,0.107031,1.155052,0.317449,1.115718,0.517056,1.038389,0.699056,0.925700,0.857250,0.781487,0.986252,0.610661,1.081668,0.419040,1.140249,0.213149,1.156389,0.038966,1.177678,0.017678,1.185000,0.000000,1.185000,-1.690000,1.177678,-1.707678,1.160000,-1.715000,-0.940000,-1.715000,-0.957678,-1.707678,-1.707678,-0.957678,-1.715000,-0.940000,
-1.715000,1.160000,-1.707678,1.177678,-1.690000,1.185000,0.000000,1.185000,0.017678,1.177678,0.017678,1.177678,$1*%
%AMFreePoly2*
4,1,25,1.177678,1.707678,1.185000,1.690000,1.185000,0.000000,1.177678,-0.017678,1.156389,-0.038966,1.140249,-0.213149,1.081668,-0.419040,0.986252,-0.610661,0.857250,-0.781487,0.699056,-0.925700,0.517056,-1.038389,0.317449,-1.115718,0.107031,-1.155052,0.040304,-1.155052,0.017678,-1.177678,0.000000,-1.185000,-1.690000,-1.185000,-1.707678,-1.177678,-1.715000,-1.160000,-1.715000,0.940000,
-1.707678,0.957678,-0.957678,1.707678,-0.940000,1.715000,1.160000,1.715000,1.177678,1.707678,1.177678,1.707678,$1*%
G04 Aperture macros list end*
%TA.AperFunction,ComponentPad*%
%ADD10C,1.000000*%
%TD*%
%TA.AperFunction,ComponentPad*%
%ADD11FreePoly0,180.000000*%
%TD*%
%TA.AperFunction,ComponentPad*%
%ADD12FreePoly1,180.000000*%
%TD*%
%TA.AperFunction,ComponentPad*%
%ADD13FreePoly2,90.000000*%
%TD*%
%TA.AperFunction,ComponentPad*%
%ADD14FreePoly2,180.000000*%
%TD*%
%TA.AperFunction,ViaPad*%
%ADD15C,0.600000*%
%TD*%
%TA.AperFunction,Conductor*%
%ADD16C,0.127000*%
%TD*%
%TA.AperFunction,Conductor*%
%ADD17C,0.254000*%
%TD*%
G04 APERTURE END LIST*
D10*
%TO.P,TP1,1,1*%
%TO.N,Net-(U1-MFP8)*%
X-18000000Y-38000000D03*
%TD*%
%TO.P,TP2,1,1*%
%TO.N,Net-(U1-MFP7)*%
X-18000000Y-35500000D03*
%TD*%
D11*
%TO.P,J2,2,MH1*%
%TO.N,GND*%
X2540000Y-8540000D03*
D12*
%TO.P,J2,3,MH2*%
X-2540000Y-8540000D03*
D13*
%TO.P,J2,4,MH3*%
X2550000Y-3450000D03*
D14*
%TO.P,J2,5,MH4*%
X-2540000Y-3460000D03*
%TD*%
D10*
%TO.P,TP3,1,1*%
%TO.N,Net-(U1-MFP6)*%
X-18000000Y-33000000D03*
%TD*%
D15*
%TO.N,VDDIO*%
X6300000Y-28900000D03*
X15300000Y-36200000D03*
X15300000Y-33000000D03*
X-8700000Y-21225000D03*
X18300000Y-13300000D03*
%TO.N,+3V3*%
X18400000Y-11500000D03*
X-16587500Y-16525000D03*
X16146447Y-18400000D03*
X12546447Y-29350000D03*
X5200000Y-35750000D03*
X-16450000Y-26600000D03*
X11546447Y-29350000D03*
X-14800000Y-10600000D03*
X12500000Y-10600000D03*
X-8400000Y-10500000D03*
X15171447Y-18400000D03*
%TO.N,MFP1_CFG0*%
X13500000Y-36000000D03*
X5250000Y-25100000D03*
%TO.N,MFP2_CFG1*%
X5225000Y-24050000D03*
X13500000Y-32800000D03*
%TO.N,/camera/MIPI.CSI_D2_N*%
X-364760Y-36520000D03*
X-2514770Y-28940000D03*
%TO.N,GND*%
X-261100Y-23550000D03*
X-12075000Y-30550000D03*
X-13975000Y-11975000D03*
X-2950000Y-36400000D03*
X12521447Y-22650000D03*
X-1100000Y-16250000D03*
X12046447Y-26650000D03*
X-12700000Y-36600000D03*
X7875000Y-38725000D03*
X12521447Y-19150000D03*
X-1248714Y-25537614D03*
X4100000Y-36700000D03*
X-7825000Y-12250000D03*
X738900Y-23550000D03*
X-10500000Y-37125000D03*
X8400000Y-11725000D03*
X12046447Y-19875000D03*
X738900Y-24550000D03*
X-9602121Y-28337024D03*
X-1310000Y-31760000D03*
X12850000Y-26650000D03*
X17000000Y-35900000D03*
X-18175000Y-15925000D03*
X-1500000Y-36100000D03*
X12050000Y-25850000D03*
X-1261100Y-24550000D03*
X-261100Y-24550000D03*
X11571447Y-21200000D03*
X12521447Y-21200000D03*
X12021447Y-23400000D03*
X-261100Y-25550000D03*
X-18150000Y-17775000D03*
X-18325000Y-25900000D03*
X17125000Y-38850000D03*
X1020000Y-35720000D03*
X-7500000Y-33300000D03*
X11571447Y-19150000D03*
X12850000Y-12000000D03*
X-12300000Y-34000000D03*
X11571447Y-22650000D03*
X11250000Y-26650000D03*
X270000Y-33110000D03*
X12046447Y-21925000D03*
X738900Y-25550000D03*
X-3000000Y-30020000D03*
X-4500000Y-36350000D03*
X12050000Y-27425000D03*
X9675000Y-34225000D03*
X-1261100Y-23550000D03*
X14873224Y-28050000D03*
X-18150000Y-28000000D03*
%TO.N,/camera/MIPI.CSI_D2_P*%
X-1785230Y-28940000D03*
X364780Y-36520000D03*
%TO.N,/camera/MFP9_SDA*%
X5850000Y-32050000D03*
X-13150000Y-17500000D03*
X-10850000Y-25500000D03*
X4650000Y-23050000D03*
%TO.N,/camera/MFP10_SCL*%
X4800000Y-31200000D03*
X-13150000Y-18500000D03*
X3700000Y-23000000D03*
X-11100000Y-26550000D03*
%TO.N,/connector/V_POC*%
X8421447Y-25375000D03*
X8421447Y-24400000D03*
X6100000Y-15700000D03*
X15671447Y-24400000D03*
X6100000Y-13900000D03*
X15671447Y-25375000D03*
X7000000Y-14800000D03*
X6100000Y-14800000D03*
X7000000Y-15700000D03*
X7000000Y-13900000D03*
%TO.N,/camera/LED_EN*%
X3500000Y-32300000D03*
X-4675000Y-24950000D03*
%TO.N,/camera/POWER_EN*%
X3650000Y-26350000D03*
X3050000Y-35800000D03*
%TO.N,+1V2*%
X10696447Y-30000000D03*
X-5425000Y-20300000D03*
%TO.N,+1V8*%
X14700000Y-11600000D03*
X9796447Y-28100000D03*
X7946447Y-18400000D03*
X8946447Y-18400000D03*
%TO.N,Net-(U1-MFP8)*%
X7900000Y-33600000D03*
%TO.N,/gmsl/LOCK*%
X-5900000Y-22300000D03*
X-17100000Y-11700000D03*
%TO.N,/gmsl/ERRB*%
X-5700000Y-23500000D03*
X-10600000Y-11600000D03*
%TO.N,Net-(Q3-G)*%
X10200000Y-11000000D03*
X9146447Y-27300000D03*
X17623224Y-29200000D03*
%TO.N,Net-(U1-MFP7)*%
X6900000Y-33600000D03*
%TO.N,Net-(U1-MFP6)*%
X-4800000Y-26075000D03*
%TD*%
D16*
%TO.N,MFP1_CFG0*%
X13500000Y-35200000D02*
X13500000Y-36000000D01*
X5250000Y-26950000D02*
X13500000Y-35200000D01*
X5250000Y-25100000D02*
X5250000Y-26950000D01*
%TO.N,MFP2_CFG1*%
X5793500Y-24618500D02*
X5793500Y-26943500D01*
X5793500Y-26943500D02*
X11650000Y-32800000D01*
X11650000Y-32800000D02*
X13500000Y-32800000D01*
X5225000Y-24050000D02*
X5793500Y-24618500D01*
%TO.N,/camera/MFP9_SDA*%
X4650000Y-23050000D02*
X4000000Y-22400000D01*
X-3625000Y-22400000D02*
X-6725000Y-25500000D01*
X-10850000Y-19800000D02*
X-13150000Y-17500000D01*
X-10850000Y-25500000D02*
X-10850000Y-19800000D01*
X4000000Y-22400000D02*
X-3625000Y-22400000D01*
X5850000Y-31200000D02*
X4650000Y-30000000D01*
X-6725000Y-25500000D02*
X-10850000Y-25500000D01*
X4650000Y-30000000D02*
X4650000Y-23050000D01*
X5850000Y-32050000D02*
X5850000Y-31200000D01*
%TO.N,/camera/MFP10_SCL*%
X-7350000Y-26550000D02*
X-11100000Y-26550000D01*
X-11100000Y-26550000D02*
X-11525000Y-26125000D01*
X3700000Y-23325000D02*
X3700000Y-23000000D01*
X3700000Y-23000000D02*
X-3800000Y-23000000D01*
X4800000Y-31200000D02*
X4300000Y-30700000D01*
X-3800000Y-23000000D02*
X-7350000Y-26550000D01*
X4300000Y-30700000D02*
X4300000Y-23925000D01*
X-12950000Y-18500000D02*
X-13150000Y-18500000D01*
X-11525000Y-19925000D02*
X-12950000Y-18500000D01*
X4300000Y-23925000D02*
X3700000Y-23325000D01*
X-11525000Y-26125000D02*
X-11525000Y-19925000D01*
D17*
%TO.N,/connector/V_POC*%
X6100000Y-15700000D02*
X6100000Y-22078553D01*
X6100000Y-22078553D02*
X8421447Y-24400000D01*
D16*
%TO.N,/camera/LED_EN*%
X-4550000Y-24950000D02*
X-4675000Y-24950000D01*
X2800000Y-32300000D02*
X-4550000Y-24950000D01*
X3500000Y-32300000D02*
X2800000Y-32300000D01*
%TO.N,/camera/POWER_EN*%
X4250000Y-33640790D02*
X4250000Y-31750000D01*
X4250000Y-31750000D02*
X3650000Y-31150000D01*
X3650000Y-31150000D02*
X3650000Y-26350000D01*
X3050000Y-34840790D02*
X4250000Y-33640790D01*
X3050000Y-35800000D02*
X3050000Y-34840790D01*
%TO.N,Net-(U1-MFP8)*%
X5800000Y-38600000D02*
X-17400000Y-38600000D01*
X-17400000Y-38600000D02*
X-18000000Y-38000000D01*
X7900000Y-36500000D02*
X5800000Y-38600000D01*
X7900000Y-33600000D02*
X7900000Y-36500000D01*
%TO.N,/gmsl/LOCK*%
X-5900000Y-22300000D02*
X-16500000Y-11700000D01*
X-16500000Y-11700000D02*
X-17100000Y-11700000D01*
%TO.N,/gmsl/ERRB*%
X-5700000Y-23500000D02*
X-4600000Y-22400000D01*
X-4600000Y-17600000D02*
X-10600000Y-11600000D01*
X-4600000Y-22400000D02*
X-4600000Y-17600000D01*
%TO.N,Net-(Q3-G)*%
X9146447Y-27300000D02*
X9146447Y-29623223D01*
X17623224Y-18700000D02*
X17623224Y-29200000D01*
X10200000Y-11000000D02*
X17623224Y-18423224D01*
X10323224Y-30800000D02*
X16023224Y-30800000D01*
X16023224Y-30800000D02*
X17623224Y-29200000D01*
X9146447Y-29623223D02*
X10323224Y-30800000D01*
X17623224Y-18423224D02*
X17623224Y-18700000D01*
%TO.N,Net-(U1-MFP7)*%
X-15200000Y-38300000D02*
X-18000000Y-35500000D01*
X5650000Y-38300000D02*
X-15200000Y-38300000D01*
X6900000Y-33600000D02*
X6900000Y-37050000D01*
X6900000Y-37050000D02*
X5650000Y-38300000D01*
%TO.N,Net-(U1-MFP6)*%
X-4800000Y-26075000D02*
X-4800000Y-26125000D01*
X-18000000Y-33000000D02*
X-11675000Y-33000000D01*
X-11675000Y-33000000D02*
X-11187500Y-32512500D01*
X-4800000Y-26125000D02*
X-11187500Y-32512500D01*
%TD*%
%TA.AperFunction,Conductor*%
%TO.N,GND*%
G36*
X3252940Y-23333685D02*
G01*
X3284276Y-23362513D01*
X3307379Y-23392621D01*
X3411851Y-23472785D01*
X3443747Y-23509158D01*
X3448737Y-23517800D01*
X3448738Y-23517801D01*
X3949681Y-24018744D01*
X3983166Y-24080067D01*
X3986000Y-24106425D01*
X3986000Y-25707740D01*
X3966315Y-25774779D01*
X3913511Y-25820534D01*
X3844353Y-25830478D01*
X3814550Y-25822302D01*
X3793712Y-25813671D01*
X3793710Y-25813670D01*
X3793709Y-25813670D01*
X3669954Y-25797377D01*
X3650001Y-25794750D01*
X3649999Y-25794750D01*
X3506291Y-25813670D01*
X3506287Y-25813671D01*
X3372377Y-25869137D01*
X3257379Y-25957379D01*
X3169137Y-26072377D01*
X3113671Y-26206287D01*
X3113670Y-26206291D01*
X3094750Y-26349999D01*
X3094750Y-26350000D01*
X3113670Y-26493708D01*
X3113671Y-26493712D01*
X3169137Y-26627622D01*
X3169138Y-26627624D01*
X3169139Y-26627625D01*
X3257379Y-26742621D01*
X3287486Y-26765723D01*
X3328689Y-26822149D01*
X3336000Y-26864098D01*
X3336000Y-31191341D01*
X3349397Y-31241336D01*
X3349398Y-31241340D01*
X3357397Y-31271198D01*
X3357399Y-31271202D01*
X3398732Y-31342793D01*
X3398738Y-31342801D01*
X3589006Y-31533069D01*
X3622491Y-31594392D01*
X3617507Y-31664084D01*
X3575635Y-31720017D01*
X3510171Y-31744434D01*
X3501325Y-31744750D01*
X3499999Y-31744750D01*
X3356291Y-31763670D01*
X3356287Y-31763671D01*
X3222377Y-31819137D01*
X3164877Y-31863259D01*
X3107379Y-31907379D01*
X3107378Y-31907380D01*
X3107377Y-31907381D01*
X3084276Y-31937487D01*
X3027848Y-31978689D01*
X2985901Y-31986000D01*
X2981425Y-31986000D01*
X2914386Y-31966315D01*
X2893744Y-31949681D01*
X-4092082Y-24963855D01*
X-4125567Y-24902532D01*
X-4127338Y-24892374D01*
X-4138670Y-24806291D01*
X-4194139Y-24672375D01*
X-4282379Y-24557379D01*
X-4397375Y-24469139D01*
X-4402447Y-24467038D01*
X-4528354Y-24414886D01*
X-4582757Y-24371045D01*
X-4604822Y-24304751D01*
X-4587543Y-24237052D01*
X-4568587Y-24212649D01*
X-3706255Y-23350319D01*
X-3644932Y-23316834D01*
X-3618574Y-23314000D01*
X3185901Y-23314000D01*
X3252940Y-23333685D01*
G37*
%TD.AperFunction*%
%TA.AperFunction,Conductor*%
G36*
X18004418Y-500816D02*
G01*
X18204561Y-515130D01*
X18222063Y-517647D01*
X18413797Y-559355D01*
X18430755Y-564334D01*
X18614609Y-632909D01*
X18630701Y-640259D01*
X18802904Y-734288D01*
X18817784Y-743849D01*
X18896432Y-802725D01*
X18974867Y-861441D01*
X18988237Y-873027D01*
X19126972Y-1011762D01*
X19138558Y-1025132D01*
X19256146Y-1182210D01*
X19265711Y-1197095D01*
X19359740Y-1369298D01*
X19367090Y-1385390D01*
X19435662Y-1569236D01*
X19440646Y-1586212D01*
X19482351Y-1777931D01*
X19484869Y-1795442D01*
X19499184Y-1995580D01*
X19499500Y-2004427D01*
X19499500Y-37995572D01*
X19499184Y-38004419D01*
X19484869Y-38204557D01*
X19482351Y-38222068D01*
X19440646Y-38413787D01*
X19435662Y-38430763D01*
X19367090Y-38614609D01*
X19359740Y-38630701D01*
X19265711Y-38802904D01*
X19256146Y-38817789D01*
X19138558Y-38974867D01*
X19126972Y-38988237D01*
X18988237Y-39126972D01*
X18974867Y-39138558D01*
X18817789Y-39256146D01*
X18802904Y-39265711D01*
X18630701Y-39359740D01*
X18614609Y-39367090D01*
X18430763Y-39435662D01*
X18413787Y-39440646D01*
X18222068Y-39482351D01*
X18204557Y-39484869D01*
X18023779Y-39497799D01*
X18004417Y-39499184D01*
X17995572Y-39499500D01*
X-17995572Y-39499500D01*
X-18004418Y-39499184D01*
X-18026378Y-39497613D01*
X-18204558Y-39484869D01*
X-18222069Y-39482351D01*
X-18413788Y-39440646D01*
X-18430764Y-39435662D01*
X-18614610Y-39367090D01*
X-18630702Y-39359740D01*
X-18802905Y-39265711D01*
X-18817790Y-39256146D01*
X-18974868Y-39138558D01*
X-18988238Y-39126972D01*
X-19126973Y-38988237D01*
X-19138559Y-38974867D01*
X-19256151Y-38817784D01*
X-19265712Y-38802904D01*
X-19359741Y-38630701D01*
X-19367091Y-38614609D01*
X-19427909Y-38451551D01*
X-19435666Y-38430755D01*
X-19440645Y-38413797D01*
X-19482353Y-38222063D01*
X-19484870Y-38204556D01*
X-19487481Y-38168056D01*
X-19499184Y-38004418D01*
X-19499500Y-37995572D01*
X-19499500Y-35499997D01*
X-18755249Y-35499997D01*
X-18755249Y-35500002D01*
X-18736315Y-35668056D01*
X-18680455Y-35827694D01*
X-18680453Y-35827697D01*
X-18590482Y-35970884D01*
X-18590477Y-35970890D01*
X-18470891Y-36090476D01*
X-18470885Y-36090481D01*
X-18327698Y-36180452D01*
X-18327695Y-36180454D01*
X-18327691Y-36180455D01*
X-18327690Y-36180456D01*
X-18292927Y-36192620D01*
X-18168057Y-36236314D01*
X-18000003Y-36255249D01*
X-18000000Y-36255249D01*
X-17999997Y-36255249D01*
X-17831947Y-36236314D01*
X-17831946Y-36236313D01*
X-17831941Y-36236313D01*
X-17813485Y-36229854D01*
X-17743710Y-36226291D01*
X-17684849Y-36259214D01*
X-15869744Y-38074319D01*
X-15836259Y-38135642D01*
X-15841243Y-38205334D01*
X-15883115Y-38261267D01*
X-15948579Y-38285684D01*
X-15957425Y-38286000D01*
X-17138219Y-38286000D01*
X-17205258Y-38266315D01*
X-17251013Y-38213511D01*
X-17261439Y-38148117D01*
X-17244751Y-38000003D01*
X-17244751Y-37999997D01*
X-17263686Y-37831943D01*
X-17319546Y-37672305D01*
X-17319548Y-37672302D01*
X-17409519Y-37529115D01*
X-17409524Y-37529109D01*
X-17529110Y-37409523D01*
X-17529116Y-37409518D01*
X-17672303Y-37319547D01*
X-17672306Y-37319545D01*
X-17831944Y-37263685D01*
X-17999997Y-37244751D01*
X-18000003Y-37244751D01*
X-18168057Y-37263685D01*
X-18327695Y-37319545D01*
X-18327698Y-37319547D01*
X-18470885Y-37409518D01*
X-18470891Y-37409523D01*
X-18590477Y-37529109D01*
X-18590482Y-37529115D01*
X-18680453Y-37672302D01*
X-18680455Y-37672305D01*
X-18736315Y-37831943D01*
X-18755249Y-37999997D01*
X-18755249Y-38000002D01*
X-18736315Y-38168056D01*
X-18680455Y-38327694D01*
X-18680453Y-38327697D01*
X-18590482Y-38470884D01*
X-18590477Y-38470890D01*
X-18470891Y-38590476D01*
X-18470885Y-38590481D01*
X-18327698Y-38680452D01*
X-18327695Y-38680454D01*
X-18327691Y-38680455D01*
X-18327690Y-38680456D01*
X-18260059Y-38704121D01*
X-18168057Y-38736314D01*
X-18000003Y-38755249D01*
X-18000000Y-38755249D01*
X-17999997Y-38755249D01*
X-17831949Y-38736314D01*
X-17831949Y-38736313D01*
X-17831941Y-38736313D01*
X-17813485Y-38729854D01*
X-17743712Y-38726290D01*
X-17684850Y-38759214D01*
X-17592801Y-38851263D01*
X-17521200Y-38892601D01*
X-17512762Y-38894862D01*
X-17504325Y-38897123D01*
X-17491015Y-38900689D01*
X-17441339Y-38914000D01*
X-17441337Y-38914000D01*
X5841337Y-38914000D01*
X5841339Y-38914000D01*
X5904323Y-38897123D01*
X5921200Y-38892601D01*
X5992800Y-38851263D01*
X8151262Y-36692801D01*
X8192600Y-36621200D01*
X8192601Y-36621199D01*
X8214000Y-36541339D01*
X8214000Y-34114098D01*
X8233685Y-34047059D01*
X8262511Y-34015724D01*
X8292621Y-33992621D01*
X8380861Y-33877625D01*
X8436330Y-33743709D01*
X8455250Y-33600000D01*
X8436330Y-33456291D01*
X8386641Y-33336329D01*
X8380862Y-33322377D01*
X8380861Y-33322376D01*
X8380861Y-33322375D01*
X8292621Y-33207379D01*
X8177625Y-33119139D01*
X8177624Y-33119138D01*
X8177622Y-33119137D01*
X8043712Y-33063671D01*
X8043710Y-33063670D01*
X8043709Y-33063670D01*
X7971854Y-33054210D01*
X7900001Y-33044750D01*
X7899999Y-33044750D01*
X7756291Y-33063670D01*
X7756287Y-33063671D01*
X7622377Y-33119137D01*
X7590356Y-33143708D01*
X7507379Y-33207379D01*
X7507378Y-33207380D01*
X7507377Y-33207381D01*
X7498375Y-33219113D01*
X7441947Y-33260316D01*
X7372201Y-33264470D01*
X7311281Y-33230257D01*
X7301625Y-33219113D01*
X7299782Y-33216711D01*
X7292621Y-33207379D01*
X7177625Y-33119139D01*
X7177624Y-33119138D01*
X7177622Y-33119137D01*
X7043712Y-33063671D01*
X7043710Y-33063670D01*
X7043709Y-33063670D01*
X6971854Y-33054210D01*
X6900001Y-33044750D01*
X6899999Y-33044750D01*
X6756291Y-33063670D01*
X6756287Y-33063671D01*
X6622377Y-33119137D01*
X6507379Y-33207379D01*
X6419137Y-33322377D01*
X6363671Y-33456287D01*
X6363670Y-33456291D01*
X6350642Y-33555250D01*
X6344750Y-33600000D01*
X6362696Y-33736314D01*
X6363670Y-33743708D01*
X6363671Y-33743712D01*
X6419137Y-33877622D01*
X6419138Y-33877624D01*
X6419139Y-33877625D01*
X6507379Y-33992621D01*
X6537486Y-34015723D01*
X6578689Y-34072149D01*
X6586000Y-34114098D01*
X6586000Y-36868575D01*
X6566315Y-36935614D01*
X6549681Y-36956256D01*
X5556256Y-37949681D01*
X5494933Y-37983166D01*
X5468575Y-37986000D01*
X-15018575Y-37986000D01*
X-15085614Y-37966315D01*
X-15106256Y-37949681D01*
X-16535937Y-36520000D01*
X-920010Y-36520000D01*
X-906687Y-36621200D01*
X-901090Y-36663708D01*
X-901089Y-36663712D01*
X-845623Y-36797622D01*
X-845622Y-36797624D01*
X-845621Y-36797625D01*
X-757381Y-36912621D01*
X-642385Y-37000861D01*
X-508469Y-37056330D01*
X-381480Y-37073048D01*
X-364761Y-37075250D01*
X-364760Y-37075250D01*
X-364759Y-37075250D01*
X-349783Y-37073278D01*
X-221051Y-37056330D01*
X-87135Y-37000861D01*
X-75477Y-36991915D01*
X-10311Y-36966720D01*
X58135Y-36980757D01*
X75492Y-36991911D01*
X87155Y-37000861D01*
X221071Y-37056330D01*
X348060Y-37073048D01*
X364779Y-37075250D01*
X364780Y-37075250D01*
X364781Y-37075250D01*
X379757Y-37073278D01*
X508489Y-37056330D01*
X642405Y-37000861D01*
X757401Y-36912621D01*
X845641Y-36797625D01*
X901110Y-36663709D01*
X920030Y-36520000D01*
X901110Y-36376291D01*
X845641Y-36242375D01*
X757401Y-36127379D01*
X642405Y-36039139D01*
X642404Y-36039138D01*
X642402Y-36039137D01*
X508492Y-35983671D01*
X508490Y-35983670D01*
X508489Y-35983670D01*
X411417Y-35970890D01*
X364781Y-35964750D01*
X364779Y-35964750D01*
X221071Y-35983670D01*
X221067Y-35983671D01*
X87156Y-36039138D01*
X87154Y-36039139D01*
X75496Y-36048085D01*
X10326Y-36073279D01*
X-58118Y-36059240D01*
X-75476Y-36048085D01*
X-87135Y-36039139D01*
X-87137Y-36039138D01*
X-221048Y-35983671D01*
X-221050Y-35983670D01*
X-221051Y-35983670D01*
X-318123Y-35970890D01*
X-364759Y-35964750D01*
X-364761Y-35964750D01*
X-508469Y-35983670D01*
X-508473Y-35983671D01*
X-642383Y-36039137D01*
X-757381Y-36127379D01*
X-845623Y-36242377D01*
X-901089Y-36376287D01*
X-901090Y-36376291D01*
X-920010Y-36520000D01*
X-16535937Y-36520000D01*
X-17240786Y-35815151D01*
X-17274271Y-35753828D01*
X-17270146Y-35686515D01*
X-17263687Y-35668059D01*
X-17263192Y-35663671D01*
X-17244751Y-35500002D01*
X-17244751Y-35499997D01*
X-17263686Y-35331943D01*
X-17319546Y-35172305D01*
X-17319548Y-35172302D01*
X-17409519Y-35029115D01*
X-17409524Y-35029109D01*
X-17529110Y-34909523D01*
X-17529116Y-34909518D01*
X-17672303Y-34819547D01*
X-17672306Y-34819545D01*
X-17831944Y-34763685D01*
X-17999997Y-34744751D01*
X-18000003Y-34744751D01*
X-18168057Y-34763685D01*
X-18327695Y-34819545D01*
X-18327698Y-34819547D01*
X-18470885Y-34909518D01*
X-18470891Y-34909523D01*
X-18590477Y-35029109D01*
X-18590482Y-35029115D01*
X-18680453Y-35172302D01*
X-18680455Y-35172305D01*
X-18736315Y-35331943D01*
X-18755249Y-35499997D01*
X-19499500Y-35499997D01*
X-19499500Y-32999997D01*
X-18755249Y-32999997D01*
X-18755249Y-33000002D01*
X-18736315Y-33168056D01*
X-18680455Y-33327694D01*
X-18680453Y-33327697D01*
X-18590482Y-33470884D01*
X-18590477Y-33470890D01*
X-18470891Y-33590476D01*
X-18470885Y-33590481D01*
X-18327698Y-33680452D01*
X-18327695Y-33680454D01*
X-18327691Y-33680455D01*
X-18327690Y-33680456D01*
X-18255087Y-33705860D01*
X-18168057Y-33736314D01*
X-18000003Y-33755249D01*
X-18000000Y-33755249D01*
X-17999997Y-33755249D01*
X-17831944Y-33736314D01*
X-17800479Y-33725304D01*
X-17672310Y-33680456D01*
X-17672308Y-33680454D01*
X-17672306Y-33680454D01*
X-17672303Y-33680452D01*
X-17529116Y-33590481D01*
X-17529115Y-33590480D01*
X-17529110Y-33590477D01*
X-17409523Y-33470890D01*
X-17347404Y-33372027D01*
X-17295069Y-33325737D01*
X-17242410Y-33314000D01*
X-11633663Y-33314000D01*
X-11633661Y-33314000D01*
X-11570677Y-33297123D01*
X-11553800Y-33292601D01*
X-11533465Y-33280861D01*
X-11482207Y-33251267D01*
X-11482208Y-33251267D01*
X-11482200Y-33251263D01*
X-10936237Y-32705301D01*
X-10936237Y-32705299D01*
X-10926033Y-32695096D01*
X-10926030Y-32695091D01*
X-4897307Y-26666369D01*
X-4835986Y-26632886D01*
X-4808129Y-26631731D01*
X-4808129Y-26630250D01*
X-4800000Y-26630250D01*
X-4656291Y-26611330D01*
X-4522375Y-26555861D01*
X-4407379Y-26467621D01*
X-4319139Y-26352625D01*
X-4263670Y-26218709D01*
X-4244750Y-26075000D01*
X-4245096Y-26072375D01*
X-4254029Y-26004521D01*
X-4243264Y-25935486D01*
X-4196884Y-25883230D01*
X-4129615Y-25864344D01*
X-4062814Y-25884824D01*
X-4043409Y-25900654D01*
X-1763396Y-28180667D01*
X-1729911Y-28241990D01*
X-1734895Y-28311682D01*
X-1776767Y-28367615D01*
X-1834890Y-28391287D01*
X-1928939Y-28403670D01*
X-1928943Y-28403671D01*
X-2062854Y-28459138D01*
X-2062856Y-28459139D01*
X-2074514Y-28468085D01*
X-2139684Y-28493279D01*
X-2208128Y-28479240D01*
X-2225486Y-28468085D01*
X-2237145Y-28459139D01*
X-2237147Y-28459138D01*
X-2371058Y-28403671D01*
X-2371060Y-28403670D01*
X-2371061Y-28403670D01*
X-2465117Y-28391287D01*
X-2514769Y-28384750D01*
X-2514771Y-28384750D01*
X-2658479Y-28403670D01*
X-2658483Y-28403671D01*
X-2792393Y-28459137D01*
X-2907391Y-28547379D01*
X-2995633Y-28662377D01*
X-3051099Y-28796287D01*
X-3051100Y-28796291D01*
X-3062971Y-28886462D01*
X-3070020Y-28940000D01*
X-3060763Y-29010316D01*
X-3051100Y-29083708D01*
X-3051099Y-29083712D01*
X-2995633Y-29217622D01*
X-2995632Y-29217624D01*
X-2995631Y-29217625D01*
X-2907391Y-29332621D01*
X-2792395Y-29420861D01*
X-2658479Y-29476330D01*
X-2531490Y-29493048D01*
X-2514771Y-29495250D01*
X-2514770Y-29495250D01*
X-2514769Y-29495250D01*
X-2498895Y-29493160D01*
X-2371061Y-29476330D01*
X-2237145Y-29420861D01*
X-2225487Y-29411915D01*
X-2160321Y-29386720D01*
X-2091875Y-29400757D01*
X-2074518Y-29411911D01*
X-2062855Y-29420861D01*
X-1928939Y-29476330D01*
X-1801950Y-29493048D01*
X-1785231Y-29495250D01*
X-1785230Y-29495250D01*
X-1785229Y-29495250D01*
X-1769355Y-29493160D01*
X-1641521Y-29476330D01*
X-1507605Y-29420861D01*
X-1392609Y-29332621D01*
X-1304369Y-29217625D01*
X-1248900Y-29083709D01*
X-1236518Y-28989659D01*
X-1208251Y-28925764D01*
X-1149927Y-28887293D01*
X-1080062Y-28886462D01*
X-1025898Y-28918165D01*
X2607200Y-32551263D01*
X2655103Y-32578919D01*
X2667935Y-32586328D01*
X2667939Y-32586330D01*
X2678801Y-32592601D01*
X2758661Y-32614000D01*
X2985901Y-32614000D01*
X3052940Y-32633685D01*
X3084276Y-32662513D01*
X3091788Y-32672302D01*
X3107379Y-32692621D01*
X3222375Y-32780861D01*
X3222376Y-32780861D01*
X3222377Y-32780862D01*
X3267013Y-32799350D01*
X3356291Y-32836330D01*
X3483280Y-32853048D01*
X3499999Y-32855250D01*
X3500000Y-32855250D01*
X3500001Y-32855250D01*
X3514977Y-32853278D01*
X3643709Y-32836330D01*
X3764550Y-32786276D01*
X3834017Y-32778808D01*
X3896496Y-32810083D01*
X3932148Y-32870172D01*
X3936000Y-32900838D01*
X3936000Y-33459365D01*
X3916315Y-33526404D01*
X3899681Y-33547046D01*
X2798738Y-34647988D01*
X2798734Y-34647993D01*
X2757398Y-34719589D01*
X2757399Y-34719589D01*
X2757399Y-34719591D01*
X2736000Y-34799452D01*
X2736000Y-35285900D01*
X2716315Y-35352939D01*
X2687487Y-35384275D01*
X2657382Y-35407375D01*
X2569137Y-35522377D01*
X2513671Y-35656287D01*
X2513670Y-35656291D01*
X2500009Y-35760058D01*
X2494750Y-35800000D01*
X2502160Y-35856287D01*
X2513670Y-35943708D01*
X2513671Y-35943712D01*
X2569137Y-36077622D01*
X2569138Y-36077624D01*
X2569139Y-36077625D01*
X2657379Y-36192621D01*
X2772375Y-36280861D01*
X2772376Y-36280861D01*
X2772377Y-36280862D01*
X2817013Y-36299350D01*
X2906291Y-36336330D01*
X3033280Y-36353048D01*
X3049999Y-36355250D01*
X3050000Y-36355250D01*
X3050001Y-36355250D01*
X3064977Y-36353278D01*
X3193709Y-36336330D01*
X3327625Y-36280861D01*
X3442621Y-36192621D01*
X3530861Y-36077625D01*
X3586330Y-35943709D01*
X3605250Y-35800000D01*
X3598667Y-35750000D01*
X4644750Y-35750000D01*
X4653327Y-35815151D01*
X4663670Y-35893708D01*
X4663671Y-35893712D01*
X4719137Y-36027622D01*
X4719138Y-36027624D01*
X4719139Y-36027625D01*
X4807379Y-36142621D01*
X4922375Y-36230861D01*
X5056291Y-36286330D01*
X5183280Y-36303048D01*
X5199999Y-36305250D01*
X5200000Y-36305250D01*
X5200001Y-36305250D01*
X5214977Y-36303278D01*
X5343709Y-36286330D01*
X5477625Y-36230861D01*
X5592621Y-36142621D01*
X5680861Y-36027625D01*
X5736330Y-35893709D01*
X5755250Y-35750000D01*
X5736330Y-35606291D01*
X5692304Y-35500002D01*
X5680862Y-35472377D01*
X5680861Y-35472376D01*
X5680861Y-35472375D01*
X5592621Y-35357379D01*
X5477625Y-35269139D01*
X5477624Y-35269138D01*
X5477622Y-35269137D01*
X5343712Y-35213671D01*
X5343710Y-35213670D01*
X5343709Y-35213670D01*
X5271854Y-35204210D01*
X5200001Y-35194750D01*
X5199999Y-35194750D01*
X5056291Y-35213670D01*
X5056287Y-35213671D01*
X4922377Y-35269137D01*
X4807379Y-35357379D01*
X4719137Y-35472377D01*
X4663671Y-35606287D01*
X4663670Y-35606291D01*
X4644750Y-35750000D01*
X3598667Y-35750000D01*
X3586330Y-35656291D01*
X3530861Y-35522375D01*
X3442621Y-35407379D01*
X3442618Y-35407377D01*
X3442617Y-35407375D01*
X3412513Y-35384275D01*
X3371310Y-35327847D01*
X3364000Y-35285900D01*
X3364000Y-35022215D01*
X3383685Y-34955176D01*
X3400319Y-34934534D01*
X3686865Y-34647988D01*
X4501262Y-33833591D01*
X4542601Y-33761990D01*
X4549481Y-33736313D01*
X4552432Y-33725303D01*
X4557320Y-33707055D01*
X4564000Y-33682129D01*
X4564000Y-31865574D01*
X4583685Y-31798535D01*
X4636489Y-31752780D01*
X4704183Y-31742635D01*
X4781239Y-31752780D01*
X4799999Y-31755250D01*
X4800000Y-31755250D01*
X4800001Y-31755250D01*
X4818761Y-31752780D01*
X4943709Y-31736330D01*
X5077625Y-31680861D01*
X5192621Y-31592621D01*
X5280861Y-31477625D01*
X5297439Y-31437602D01*
X5341279Y-31383198D01*
X5407573Y-31361133D01*
X5475273Y-31378412D01*
X5522884Y-31429549D01*
X5536000Y-31485054D01*
X5536000Y-31535900D01*
X5516315Y-31602939D01*
X5487487Y-31634275D01*
X5457382Y-31657375D01*
X5369137Y-31772377D01*
X5313671Y-31906287D01*
X5313670Y-31906291D01*
X5294750Y-32049999D01*
X5294750Y-32050000D01*
X5313670Y-32193708D01*
X5313671Y-32193712D01*
X5369137Y-32327622D01*
X5369138Y-32327624D01*
X5369139Y-32327625D01*
X5457379Y-32442621D01*
X5572375Y-32530861D01*
X5706291Y-32586330D01*
X5833280Y-32603048D01*
X5849999Y-32605250D01*
X5850000Y-32605250D01*
X5850001Y-32605250D01*
X5864977Y-32603278D01*
X5993709Y-32586330D01*
X6127625Y-32530861D01*
X6242621Y-32442621D01*
X6330861Y-32327625D01*
X6386330Y-32193709D01*
X6405250Y-32050000D01*
X6386330Y-31906291D01*
X6330861Y-31772375D01*
X6242621Y-31657379D01*
X6242618Y-31657377D01*
X6242617Y-31657375D01*
X6212513Y-31634275D01*
X6171310Y-31577847D01*
X6164000Y-31535900D01*
X6164000Y-31158662D01*
X6146298Y-31092600D01*
X6142601Y-31078801D01*
X6142601Y-31078800D01*
X6101262Y-31007199D01*
X5000319Y-29906256D01*
X4966834Y-29844933D01*
X4964000Y-29818575D01*
X4964000Y-27407425D01*
X4983685Y-27340386D01*
X5036489Y-27294631D01*
X5105647Y-27284687D01*
X5169203Y-27313712D01*
X5175681Y-27319744D01*
X6069837Y-28213900D01*
X6103322Y-28275223D01*
X6098338Y-28344915D01*
X6056466Y-28400848D01*
X6029613Y-28416140D01*
X6022378Y-28419136D01*
X5907379Y-28507379D01*
X5819137Y-28622377D01*
X5763671Y-28756287D01*
X5763670Y-28756291D01*
X5756945Y-28807375D01*
X5744750Y-28900000D01*
X5752304Y-28957381D01*
X5763670Y-29043708D01*
X5763671Y-29043712D01*
X5819137Y-29177622D01*
X5819138Y-29177623D01*
X5819139Y-29177625D01*
X5907379Y-29292621D01*
X6022375Y-29380861D01*
X6156291Y-29436330D01*
X6283280Y-29453048D01*
X6299999Y-29455250D01*
X6300000Y-29455250D01*
X6300001Y-29455250D01*
X6314977Y-29453278D01*
X6443709Y-29436330D01*
X6577625Y-29380861D01*
X6692621Y-29292621D01*
X6780861Y-29177625D01*
X6783856Y-29170393D01*
X6827694Y-29115990D01*
X6893987Y-29093922D01*
X6961687Y-29111198D01*
X6986099Y-29130162D01*
X13149681Y-35293744D01*
X13183166Y-35355067D01*
X13186000Y-35381425D01*
X13186000Y-35485900D01*
X13166315Y-35552939D01*
X13137487Y-35584275D01*
X13107382Y-35607375D01*
X13019137Y-35722377D01*
X12963671Y-35856287D01*
X12963670Y-35856291D01*
X12944750Y-36000000D01*
X12958706Y-36106008D01*
X12963670Y-36143708D01*
X12963671Y-36143712D01*
X13019137Y-36277622D01*
X13019138Y-36277624D01*
X13019139Y-36277625D01*
X13107379Y-36392621D01*
X13222375Y-36480861D01*
X13356291Y-36536330D01*
X13483280Y-36553048D01*
X13499999Y-36555250D01*
X13500000Y-36555250D01*
X13500001Y-36555250D01*
X13514977Y-36553278D01*
X13643709Y-36536330D01*
X13777625Y-36480861D01*
X13892621Y-36392621D01*
X13980861Y-36277625D01*
X14013014Y-36200000D01*
X14744750Y-36200000D01*
X14762698Y-36336329D01*
X14763670Y-36343708D01*
X14763671Y-36343712D01*
X14819137Y-36477622D01*
X14819138Y-36477624D01*
X14819139Y-36477625D01*
X14907379Y-36592621D01*
X15022375Y-36680861D01*
X15022376Y-36680861D01*
X15022377Y-36680862D01*
X15067013Y-36699350D01*
X15156291Y-36736330D01*
X15283280Y-36753048D01*
X15299999Y-36755250D01*
X15300000Y-36755250D01*
X15300001Y-36755250D01*
X15314977Y-36753278D01*
X15443709Y-36736330D01*
X15577625Y-36680861D01*
X15692621Y-36592621D01*
X15780861Y-36477625D01*
X15836330Y-36343709D01*
X15855250Y-36200000D01*
X15836330Y-36056291D01*
X15780861Y-35922375D01*
X15692621Y-35807379D01*
X15577625Y-35719139D01*
X15577624Y-35719138D01*
X15577622Y-35719137D01*
X15443712Y-35663671D01*
X15443710Y-35663670D01*
X15443709Y-35663670D01*
X15371854Y-35654210D01*
X15300001Y-35644750D01*
X15299999Y-35644750D01*
X15156291Y-35663670D01*
X15156287Y-35663671D01*
X15022377Y-35719137D01*
X14907379Y-35807379D01*
X14819137Y-35922377D01*
X14763671Y-36056287D01*
X14763670Y-36056291D01*
X14745722Y-36192620D01*
X14744750Y-36200000D01*
X14013014Y-36200000D01*
X14036330Y-36143709D01*
X14055250Y-36000000D01*
X14036330Y-35856291D01*
X13993889Y-35753828D01*
X13980862Y-35722377D01*
X13980861Y-35722376D01*
X13980861Y-35722375D01*
X13892621Y-35607379D01*
X13892618Y-35607377D01*
X13892617Y-35607375D01*
X13862513Y-35584275D01*
X13821310Y-35527847D01*
X13814000Y-35485900D01*
X13814000Y-35158662D01*
X13814000Y-35158661D01*
X13792601Y-35078801D01*
X13766509Y-35033608D01*
X13751263Y-35007200D01*
X13751261Y-35007198D01*
X13751260Y-35007196D01*
X13751259Y-35007195D01*
X12069744Y-33325681D01*
X12036259Y-33264358D01*
X12041243Y-33194666D01*
X12083115Y-33138733D01*
X12148579Y-33114316D01*
X12157425Y-33114000D01*
X12985901Y-33114000D01*
X13052940Y-33133685D01*
X13084276Y-33162513D01*
X13088532Y-33168059D01*
X13107379Y-33192621D01*
X13222375Y-33280861D01*
X13222376Y-33280861D01*
X13222377Y-33280862D01*
X13267013Y-33299350D01*
X13356291Y-33336330D01*
X13483280Y-33353048D01*
X13499999Y-33355250D01*
X13500000Y-33355250D01*
X13500001Y-33355250D01*
X13514977Y-33353278D01*
X13643709Y-33336330D01*
X13777625Y-33280861D01*
X13892621Y-33192621D01*
X13980861Y-33077625D01*
X14013014Y-33000000D01*
X14744750Y-33000000D01*
X14753132Y-33063670D01*
X14763670Y-33143708D01*
X14763671Y-33143712D01*
X14819137Y-33277622D01*
X14819138Y-33277624D01*
X14819139Y-33277625D01*
X14907379Y-33392621D01*
X15022375Y-33480861D01*
X15156291Y-33536330D01*
X15283280Y-33553048D01*
X15299999Y-33555250D01*
X15300000Y-33555250D01*
X15300001Y-33555250D01*
X15314977Y-33553278D01*
X15443709Y-33536330D01*
X15577625Y-33480861D01*
X15692621Y-33392621D01*
X15780861Y-33277625D01*
X15836330Y-33143709D01*
X15855250Y-33000000D01*
X15836330Y-32856291D01*
X15780861Y-32722375D01*
X15692621Y-32607379D01*
X15577625Y-32519139D01*
X15577624Y-32519138D01*
X15577622Y-32519137D01*
X15443712Y-32463671D01*
X15443710Y-32463670D01*
X15443709Y-32463670D01*
X15337454Y-32449681D01*
X15300001Y-32444750D01*
X15299999Y-32444750D01*
X15156291Y-32463670D01*
X15156287Y-32463671D01*
X15022377Y-32519137D01*
X14907379Y-32607379D01*
X14819137Y-32722377D01*
X14763671Y-32856287D01*
X14763670Y-32856291D01*
X14744750Y-33000000D01*
X14013014Y-33000000D01*
X14036330Y-32943709D01*
X14055250Y-32800000D01*
X14036330Y-32656291D01*
X13992826Y-32551261D01*
X13980862Y-32522377D01*
X13980861Y-32522376D01*
X13980861Y-32522375D01*
X13892621Y-32407379D01*
X13777625Y-32319139D01*
X13777624Y-32319138D01*
X13777622Y-32319137D01*
X13643712Y-32263671D01*
X13643710Y-32263670D01*
X13643709Y-32263670D01*
X13571854Y-32254210D01*
X13500001Y-32244750D01*
X13499999Y-32244750D01*
X13356291Y-32263670D01*
X13356287Y-32263671D01*
X13222377Y-32319137D01*
X13164877Y-32363259D01*
X13107379Y-32407379D01*
X13107378Y-32407380D01*
X13107377Y-32407381D01*
X13084276Y-32437487D01*
X13027848Y-32478689D01*
X12985901Y-32486000D01*
X11831425Y-32486000D01*
X11764386Y-32466315D01*
X11743744Y-32449681D01*
X10619744Y-31325681D01*
X10586259Y-31264358D01*
X10591243Y-31194666D01*
X10633115Y-31138733D01*
X10698579Y-31114316D01*
X10707425Y-31114000D01*
X16064561Y-31114000D01*
X16064563Y-31114000D01*
X16127547Y-31097123D01*
X16144424Y-31092601D01*
X16168327Y-31078801D01*
X16216017Y-31051267D01*
X16216016Y-31051267D01*
X16216024Y-31051263D01*
X17481733Y-29785552D01*
X17543054Y-29752069D01*
X17585597Y-29750296D01*
X17623224Y-29755250D01*
X17766933Y-29736330D01*
X17900849Y-29680861D01*
X18015845Y-29592621D01*
X18104085Y-29477625D01*
X18159554Y-29343709D01*
X18178474Y-29200000D01*
X18159554Y-29056291D01*
X18118584Y-28957379D01*
X18104086Y-28922377D01*
X18104085Y-28922376D01*
X18104085Y-28922375D01*
X18015845Y-28807379D01*
X18015842Y-28807377D01*
X18015841Y-28807375D01*
X17985737Y-28784275D01*
X17944534Y-28727847D01*
X17937224Y-28685900D01*
X17937224Y-18381886D01*
X17915825Y-18302025D01*
X17915825Y-18302023D01*
X17874489Y-18230427D01*
X17874485Y-18230422D01*
X12944063Y-13300000D01*
X17744750Y-13300000D01*
X17754492Y-13374000D01*
X17763670Y-13443708D01*
X17763671Y-13443712D01*
X17819137Y-13577622D01*
X17819138Y-13577624D01*
X17819139Y-13577625D01*
X17907379Y-13692621D01*
X18022375Y-13780861D01*
X18156291Y-13836330D01*
X18283280Y-13853048D01*
X18299999Y-13855250D01*
X18300000Y-13855250D01*
X18300001Y-13855250D01*
X18314977Y-13853278D01*
X18443709Y-13836330D01*
X18577625Y-13780861D01*
X18692621Y-13692621D01*
X18780861Y-13577625D01*
X18836330Y-13443709D01*
X18855250Y-13300000D01*
X18836330Y-13156291D01*
X18780861Y-13022375D01*
X18692621Y-12907379D01*
X18577625Y-12819139D01*
X18577624Y-12819138D01*
X18577622Y-12819137D01*
X18443712Y-12763671D01*
X18443710Y-12763670D01*
X18443709Y-12763670D01*
X18371854Y-12754210D01*
X18300001Y-12744750D01*
X18299999Y-12744750D01*
X18156291Y-12763670D01*
X18156287Y-12763671D01*
X18022377Y-12819137D01*
X17907379Y-12907379D01*
X17819137Y-13022377D01*
X17763671Y-13156287D01*
X17763670Y-13156291D01*
X17748371Y-13272500D01*
X17744750Y-13300000D01*
X12944063Y-13300000D01*
X11244063Y-11600000D01*
X14144750Y-11600000D01*
X14157915Y-11700000D01*
X14163670Y-11743708D01*
X14163671Y-11743712D01*
X14219137Y-11877622D01*
X14219138Y-11877624D01*
X14219139Y-11877625D01*
X14307379Y-11992621D01*
X14422375Y-12080861D01*
X14422376Y-12080861D01*
X14422377Y-12080862D01*
X14467013Y-12099350D01*
X14556291Y-12136330D01*
X14683280Y-12153048D01*
X14699999Y-12155250D01*
X14700000Y-12155250D01*
X14700001Y-12155250D01*
X14714977Y-12153278D01*
X14843709Y-12136330D01*
X14977625Y-12080861D01*
X15092621Y-11992621D01*
X15180861Y-11877625D01*
X15236330Y-11743709D01*
X15255250Y-11600000D01*
X15242085Y-11500000D01*
X17844750Y-11500000D01*
X17857915Y-11600000D01*
X17863670Y-11643708D01*
X17863671Y-11643712D01*
X17919137Y-11777622D01*
X17919138Y-11777624D01*
X17919139Y-11777625D01*
X18007379Y-11892621D01*
X18122375Y-11980861D01*
X18122376Y-11980861D01*
X18122377Y-11980862D01*
X18167013Y-11999350D01*
X18256291Y-12036330D01*
X18383280Y-12053048D01*
X18399999Y-12055250D01*
X18400000Y-12055250D01*
X18400001Y-12055250D01*
X18414977Y-12053278D01*
X18543709Y-12036330D01*
X18677625Y-11980861D01*
X18792621Y-11892621D01*
X18880861Y-11777625D01*
X18936330Y-11643709D01*
X18955250Y-11500000D01*
X18936330Y-11356291D01*
X18880861Y-11222375D01*
X18792621Y-11107379D01*
X18677625Y-11019139D01*
X18677624Y-11019138D01*
X18677622Y-11019137D01*
X18543712Y-10963671D01*
X18543710Y-10963670D01*
X18543709Y-10963670D01*
X18471854Y-10954210D01*
X18400001Y-10944750D01*
X18399999Y-10944750D01*
X18256291Y-10963670D01*
X18256287Y-10963671D01*
X18122377Y-11019137D01*
X18007379Y-11107379D01*
X17919137Y-11222377D01*
X17863671Y-11356287D01*
X17863670Y-11356291D01*
X17847270Y-11480862D01*
X17844750Y-11500000D01*
X15242085Y-11500000D01*
X15236330Y-11456291D01*
X15180861Y-11322375D01*
X15092621Y-11207379D01*
X14977625Y-11119139D01*
X14977624Y-11119138D01*
X14977622Y-11119137D01*
X14843712Y-11063671D01*
X14843710Y-11063670D01*
X14843709Y-11063670D01*
X14771854Y-11054210D01*
X14700001Y-11044750D01*
X14699999Y-11044750D01*
X14556291Y-11063670D01*
X14556287Y-11063671D01*
X14422377Y-11119137D01*
X14307379Y-11207379D01*
X14219137Y-11322377D01*
X14163671Y-11456287D01*
X14163670Y-11456291D01*
X14149877Y-11561061D01*
X14144750Y-11600000D01*
X11244063Y-11600000D01*
X10785554Y-11141491D01*
X10752069Y-11080168D01*
X10750296Y-11037623D01*
X10755250Y-11000000D01*
X10736330Y-10856291D01*
X10680861Y-10722375D01*
X10592621Y-10607379D01*
X10583003Y-10599999D01*
X11944750Y-10599999D01*
X11944750Y-10600000D01*
X11963670Y-10743708D01*
X11963671Y-10743712D01*
X12019137Y-10877622D01*
X12019138Y-10877624D01*
X12019139Y-10877625D01*
X12107379Y-10992621D01*
X12222375Y-11080861D01*
X12356291Y-11136330D01*
X12483280Y-11153048D01*
X12499999Y-11155250D01*
X12500000Y-11155250D01*
X12500001Y-11155250D01*
X12514977Y-11153278D01*
X12643709Y-11136330D01*
X12777625Y-11080861D01*
X12892621Y-10992621D01*
X12980861Y-10877625D01*
X13036330Y-10743709D01*
X13055250Y-10600000D01*
X13036330Y-10456291D01*
X12980861Y-10322375D01*
X12892621Y-10207379D01*
X12777625Y-10119139D01*
X12777624Y-10119138D01*
X12777622Y-10119137D01*
X12643712Y-10063671D01*
X12643710Y-10063670D01*
X12643709Y-10063670D01*
X12571854Y-10054210D01*
X12500001Y-10044750D01*
X12499999Y-10044750D01*
X12356291Y-10063670D01*
X12356287Y-10063671D01*
X12222377Y-10119137D01*
X12107379Y-10207379D01*
X12019137Y-10322377D01*
X11963671Y-10456287D01*
X11963670Y-10456291D01*
X11944750Y-10599999D01*
X10583003Y-10599999D01*
X10477625Y-10519139D01*
X10477624Y-10519138D01*
X10477622Y-10519137D01*
X10343712Y-10463671D01*
X10343710Y-10463670D01*
X10343709Y-10463670D01*
X10271854Y-10454210D01*
X10200001Y-10444750D01*
X10199999Y-10444750D01*
X10056291Y-10463670D01*
X10056287Y-10463671D01*
X9922377Y-10519137D01*
X9807379Y-10607379D01*
X9719137Y-10722377D01*
X9663671Y-10856287D01*
X9663670Y-10856291D01*
X9645722Y-10992620D01*
X9644750Y-11000000D01*
X9662698Y-11136329D01*
X9663670Y-11143708D01*
X9663671Y-11143712D01*
X9719137Y-11277622D01*
X9719138Y-11277624D01*
X9719139Y-11277625D01*
X9807379Y-11392621D01*
X9922375Y-11480861D01*
X10056291Y-11536330D01*
X10200000Y-11555250D01*
X10237624Y-11550296D01*
X10306658Y-11561061D01*
X10341491Y-11585554D01*
X16412964Y-17657027D01*
X16446449Y-17718350D01*
X16441465Y-17788042D01*
X16399593Y-17843975D01*
X16334129Y-17868392D01*
X16293193Y-17864484D01*
X16290157Y-17863670D01*
X16290156Y-17863670D01*
X16218301Y-17854210D01*
X16146448Y-17844750D01*
X16146446Y-17844750D01*
X16002738Y-17863670D01*
X16002734Y-17863671D01*
X15868824Y-17919137D01*
X15788385Y-17980861D01*
X15763443Y-18000000D01*
X15753821Y-18007383D01*
X15748079Y-18013126D01*
X15746028Y-18011075D01*
X15700866Y-18044035D01*
X15631119Y-18048172D01*
X15570207Y-18013944D01*
X15567440Y-18010751D01*
X15564072Y-18007383D01*
X15564069Y-18007381D01*
X15564068Y-18007379D01*
X15449072Y-17919139D01*
X15449071Y-17919138D01*
X15449069Y-17919137D01*
X15315159Y-17863671D01*
X15315157Y-17863670D01*
X15315156Y-17863670D01*
X15243301Y-17854210D01*
X15171448Y-17844750D01*
X15171446Y-17844750D01*
X15027738Y-17863670D01*
X15027734Y-17863671D01*
X14893824Y-17919137D01*
X14778826Y-18007379D01*
X14690584Y-18122377D01*
X14635118Y-18256287D01*
X14635117Y-18256291D01*
X14621952Y-18356291D01*
X14616197Y-18400000D01*
X14631596Y-18516968D01*
X14635117Y-18543708D01*
X14635118Y-18543712D01*
X14690584Y-18677622D01*
X14690585Y-18677624D01*
X14690586Y-18677625D01*
X14778826Y-18792621D01*
X14893822Y-18880861D01*
X14893823Y-18880861D01*
X14893824Y-18880862D01*
X14938460Y-18899350D01*
X15027738Y-18936330D01*
X15154727Y-18953048D01*
X15171446Y-18955250D01*
X15171447Y-18955250D01*
X15171448Y-18955250D01*
X15186424Y-18953278D01*
X15315156Y-18936330D01*
X15449072Y-18880861D01*
X15564068Y-18792621D01*
X15564072Y-18792616D01*
X15569815Y-18786874D01*
X15571869Y-18788928D01*
X15616998Y-18755975D01*
X15686744Y-18751820D01*
X15747665Y-18786032D01*
X15750442Y-18789237D01*
X15753821Y-18792616D01*
X15753823Y-18792618D01*
X15753826Y-18792621D01*
X15868822Y-18880861D01*
X15868823Y-18880861D01*
X15868824Y-18880862D01*
X15913460Y-18899350D01*
X16002738Y-18936330D01*
X16129727Y-18953048D01*
X16146446Y-18955250D01*
X16146447Y-18955250D01*
X16146448Y-18955250D01*
X16161424Y-18953278D01*
X16290156Y-18936330D01*
X16424072Y-18880861D01*
X16539068Y-18792621D01*
X16627308Y-18677625D01*
X16682777Y-18543709D01*
X16701697Y-18400000D01*
X16682777Y-18256291D01*
X16682774Y-18256285D01*
X16681964Y-18253260D01*
X16682027Y-18250598D01*
X16681716Y-18248234D01*
X16682084Y-18248185D01*
X16683625Y-18183410D01*
X16722785Y-18125547D01*
X16787013Y-18098040D01*
X16855916Y-18109625D01*
X16889419Y-18133482D01*
X17272905Y-18516968D01*
X17306390Y-18578291D01*
X17309224Y-18604649D01*
X17309224Y-28685900D01*
X17289539Y-28752939D01*
X17260711Y-28784275D01*
X17230606Y-28807375D01*
X17142361Y-28922377D01*
X17086895Y-29056287D01*
X17086894Y-29056291D01*
X17067974Y-29199999D01*
X17067974Y-29200001D01*
X17072927Y-29237624D01*
X17062161Y-29306659D01*
X17037669Y-29341490D01*
X15929480Y-30449681D01*
X15868157Y-30483166D01*
X15841799Y-30486000D01*
X11268863Y-30486000D01*
X11201824Y-30466315D01*
X11156069Y-30413511D01*
X11146125Y-30344353D01*
X11170487Y-30286514D01*
X11177308Y-30277625D01*
X11232777Y-30143709D01*
X11251697Y-30000000D01*
X11252758Y-29991942D01*
X11256122Y-29992385D01*
X11271382Y-29940419D01*
X11324186Y-29894664D01*
X11393344Y-29884720D01*
X11398419Y-29885761D01*
X11402736Y-29886329D01*
X11402738Y-29886330D01*
X11508527Y-29900257D01*
X11546446Y-29905250D01*
X11546447Y-29905250D01*
X11546448Y-29905250D01*
X11561424Y-29903278D01*
X11690156Y-29886330D01*
X11824072Y-29830861D01*
X11939068Y-29742621D01*
X11948072Y-29730886D01*
X12004497Y-29689685D01*
X12074243Y-29685529D01*
X12135164Y-29719740D01*
X12144814Y-29730876D01*
X12153826Y-29742621D01*
X12268822Y-29830861D01*
X12402738Y-29886330D01*
X12529727Y-29903048D01*
X12546446Y-29905250D01*
X12546447Y-29905250D01*
X12546448Y-29905250D01*
X12561424Y-29903278D01*
X12690156Y-29886330D01*
X12824072Y-29830861D01*
X12939068Y-29742621D01*
X13027308Y-29627625D01*
X13082777Y-29493709D01*
X13101697Y-29350000D01*
X13082777Y-29206291D01*
X13027308Y-29072375D01*
X12939068Y-28957379D01*
X12824072Y-28869139D01*
X12824071Y-28869138D01*
X12824069Y-28869137D01*
X12690159Y-28813671D01*
X12690157Y-28813670D01*
X12690156Y-28813670D01*
X12618301Y-28804210D01*
X12546448Y-28794750D01*
X12546446Y-28794750D01*
X12402738Y-28813670D01*
X12402734Y-28813671D01*
X12268824Y-28869137D01*
X12228603Y-28900000D01*
X12153826Y-28957379D01*
X12153825Y-28957380D01*
X12153824Y-28957381D01*
X12144822Y-28969113D01*
X12088394Y-29010316D01*
X12018648Y-29014470D01*
X11957728Y-28980257D01*
X11948072Y-28969113D01*
X11946229Y-28966711D01*
X11939068Y-28957379D01*
X11824072Y-28869139D01*
X11824071Y-28869138D01*
X11824069Y-28869137D01*
X11690159Y-28813671D01*
X11690157Y-28813670D01*
X11690156Y-28813670D01*
X11618301Y-28804210D01*
X11546448Y-28794750D01*
X11546446Y-28794750D01*
X11402738Y-28813670D01*
X11402734Y-28813671D01*
X11268824Y-28869137D01*
X11153826Y-28957379D01*
X11065584Y-29072377D01*
X11010118Y-29206287D01*
X11010117Y-29206291D01*
X10990136Y-29358058D01*
X10986770Y-29357614D01*
X10971512Y-29409580D01*
X10918708Y-29455335D01*
X10849550Y-29465279D01*
X10844474Y-29464238D01*
X10696448Y-29444750D01*
X10696446Y-29444750D01*
X10552738Y-29463670D01*
X10552734Y-29463671D01*
X10418824Y-29519137D01*
X10303826Y-29607379D01*
X10215584Y-29722377D01*
X10160118Y-29856287D01*
X10160117Y-29856291D01*
X10153785Y-29904384D01*
X10125517Y-29968280D01*
X10067192Y-30006751D01*
X9997328Y-30007581D01*
X9943165Y-29975878D01*
X9496766Y-29529479D01*
X9463281Y-29468156D01*
X9460447Y-29441798D01*
X9460447Y-28742259D01*
X9480132Y-28675220D01*
X9532936Y-28629465D01*
X9602094Y-28619521D01*
X9631892Y-28627695D01*
X9652738Y-28636330D01*
X9748544Y-28648943D01*
X9796446Y-28655250D01*
X9796447Y-28655250D01*
X9796448Y-28655250D01*
X9811424Y-28653278D01*
X9940156Y-28636330D01*
X10074072Y-28580861D01*
X10189068Y-28492621D01*
X10277308Y-28377625D01*
X10332777Y-28243709D01*
X10351697Y-28100000D01*
X10332777Y-27956291D01*
X10277308Y-27822375D01*
X10189068Y-27707379D01*
X10074072Y-27619139D01*
X10074071Y-27619138D01*
X10074069Y-27619137D01*
X9940159Y-27563671D01*
X9940157Y-27563670D01*
X9940156Y-27563670D01*
X9899240Y-27558283D01*
X9794576Y-27544503D01*
X9730679Y-27516236D01*
X9692209Y-27457911D01*
X9687823Y-27405378D01*
X9701697Y-27300000D01*
X9701697Y-27299999D01*
X9699495Y-27283280D01*
X9682777Y-27156291D01*
X9645797Y-27067013D01*
X9627309Y-27022377D01*
X9627308Y-27022376D01*
X9627308Y-27022375D01*
X9539068Y-26907379D01*
X9424072Y-26819139D01*
X9424071Y-26819138D01*
X9424069Y-26819137D01*
X9290159Y-26763671D01*
X9290157Y-26763670D01*
X9290156Y-26763670D01*
X9218301Y-26754210D01*
X9146448Y-26744750D01*
X9146446Y-26744750D01*
X9002738Y-26763670D01*
X9002734Y-26763671D01*
X8868824Y-26819137D01*
X8753826Y-26907379D01*
X8665584Y-27022377D01*
X8610118Y-27156287D01*
X8610117Y-27156291D01*
X8591197Y-27299999D01*
X8591197Y-27300000D01*
X8610117Y-27443708D01*
X8610118Y-27443712D01*
X8665584Y-27577622D01*
X8665585Y-27577624D01*
X8665586Y-27577625D01*
X8753826Y-27692621D01*
X8783933Y-27715723D01*
X8825136Y-27772149D01*
X8832447Y-27814098D01*
X8832447Y-29239022D01*
X8812762Y-29306061D01*
X8759958Y-29351816D01*
X8690800Y-29361760D01*
X8627244Y-29332735D01*
X8620766Y-29326703D01*
X6143819Y-26849756D01*
X6110334Y-26788433D01*
X6107500Y-26762075D01*
X6107500Y-24577162D01*
X6086100Y-24497298D01*
X6068628Y-24467037D01*
X6068625Y-24467033D01*
X6044762Y-24425698D01*
X6044760Y-24425696D01*
X5810554Y-24191491D01*
X5777069Y-24130168D01*
X5775296Y-24087623D01*
X5776291Y-24080067D01*
X5780250Y-24050000D01*
X5761330Y-23906291D01*
X5705861Y-23772375D01*
X5617621Y-23657379D01*
X5502625Y-23569139D01*
X5502624Y-23569138D01*
X5502622Y-23569137D01*
X5368712Y-23513671D01*
X5368710Y-23513670D01*
X5368709Y-23513670D01*
X5333478Y-23509031D01*
X5230300Y-23495447D01*
X5166403Y-23467180D01*
X5127933Y-23408855D01*
X5127102Y-23338990D01*
X5131925Y-23325056D01*
X5135644Y-23316078D01*
X5186330Y-23193709D01*
X5205250Y-23050000D01*
X5186330Y-22906291D01*
X5149350Y-22817013D01*
X5130862Y-22772377D01*
X5130861Y-22772376D01*
X5130861Y-22772375D01*
X5042621Y-22657379D01*
X4927625Y-22569139D01*
X4927624Y-22569138D01*
X4927622Y-22569137D01*
X4793712Y-22513671D01*
X4793710Y-22513670D01*
X4793709Y-22513670D01*
X4713697Y-22503136D01*
X4650001Y-22494750D01*
X4649997Y-22494750D01*
X4612373Y-22499703D01*
X4543338Y-22488937D01*
X4508508Y-22464445D01*
X4192799Y-22148736D01*
X4140382Y-22118474D01*
X4121200Y-22107399D01*
X4121199Y-22107398D01*
X4121198Y-22107398D01*
X4113367Y-22105299D01*
X4104323Y-22102876D01*
X4104321Y-22102875D01*
X4041340Y-22086000D01*
X4041339Y-22086000D01*
X-3666339Y-22086000D01*
X-3666342Y-22086000D01*
X-3729319Y-22102874D01*
X-3729324Y-22102876D01*
X-3744416Y-22106920D01*
X-3746204Y-22107400D01*
X-3817797Y-22148734D01*
X-3817802Y-22148738D01*
X-4074319Y-22405255D01*
X-4135642Y-22438740D01*
X-4205334Y-22433756D01*
X-4261267Y-22391884D01*
X-4285684Y-22326420D01*
X-4286000Y-22317574D01*
X-4286000Y-17558662D01*
X-4307399Y-17478801D01*
X-4307399Y-17478800D01*
X-4348738Y-17407199D01*
X-8381939Y-13373998D01*
X5344500Y-13373998D01*
X5344500Y-22121012D01*
X5346498Y-22152881D01*
X5350371Y-22183666D01*
X5350979Y-22188173D01*
X5350982Y-22188184D01*
X5384187Y-22282179D01*
X5419865Y-22342252D01*
X5465520Y-22398857D01*
X5465527Y-22398864D01*
X6052355Y-22944750D01*
X7454958Y-24249496D01*
X7490635Y-24309568D01*
X7494500Y-24340286D01*
X7494500Y-25776002D01*
X7500338Y-25830312D01*
X7511543Y-25881818D01*
X7511546Y-25881827D01*
X7518779Y-25908192D01*
X7518783Y-25908203D01*
X7568105Y-25994818D01*
X7568110Y-25994825D01*
X7568112Y-25994828D01*
X7579253Y-26007685D01*
X7613863Y-26047628D01*
X7613866Y-26047631D01*
X7613867Y-26047632D01*
X7646641Y-26079257D01*
X7734976Y-26125465D01*
X7734977Y-26125465D01*
X7734977Y-26125466D01*
X7779218Y-26138456D01*
X7802015Y-26145150D01*
X7802019Y-26145150D01*
X7802021Y-26145151D01*
X7813652Y-26146823D01*
X7874000Y-26155500D01*
X7874001Y-26155500D01*
X8876000Y-26155500D01*
X8930313Y-26149661D01*
X8981824Y-26138455D01*
X9008198Y-26131219D01*
X9037074Y-26114775D01*
X9094818Y-26081894D01*
X9094819Y-26081892D01*
X9094828Y-26081888D01*
X9147632Y-26036133D01*
X9179257Y-26003359D01*
X9225465Y-25915024D01*
X9226551Y-25911328D01*
X9242837Y-25855861D01*
X9245150Y-25847985D01*
X9255500Y-25776000D01*
X9255500Y-24400000D01*
X15116197Y-24400000D01*
X15125299Y-24469139D01*
X15135117Y-24543708D01*
X15135118Y-24543712D01*
X15190584Y-24677622D01*
X15190585Y-24677624D01*
X15190586Y-24677625D01*
X15278826Y-24792621D01*
X15278828Y-24792622D01*
X15278830Y-24792625D01*
X15284573Y-24798368D01*
X15282522Y-24800418D01*
X15315482Y-24845581D01*
X15319619Y-24915328D01*
X15285391Y-24976240D01*
X15282198Y-24979006D01*
X15278830Y-24982374D01*
X15190584Y-25097377D01*
X15135118Y-25231287D01*
X15135117Y-25231291D01*
X15116197Y-25374999D01*
X15116197Y-25375000D01*
X15135117Y-25518708D01*
X15135118Y-25518712D01*
X15190584Y-25652622D01*
X15190585Y-25652624D01*
X15190586Y-25652625D01*
X15278826Y-25767621D01*
X15393822Y-25855861D01*
X15393823Y-25855861D01*
X15393824Y-25855862D01*
X15425878Y-25869139D01*
X15527738Y-25911330D01*
X15654727Y-25928048D01*
X15671446Y-25930250D01*
X15671447Y-25930250D01*
X15671448Y-25930250D01*
X15686424Y-25928278D01*
X15815156Y-25911330D01*
X15949072Y-25855861D01*
X16064068Y-25767621D01*
X16152308Y-25652625D01*
X16207777Y-25518709D01*
X16226697Y-25375000D01*
X16207777Y-25231291D01*
X16152308Y-25097375D01*
X16064068Y-24982379D01*
X16064065Y-24982376D01*
X16064063Y-24982374D01*
X16058321Y-24976632D01*
X16060375Y-24974577D01*
X16027422Y-24929449D01*
X16023267Y-24859703D01*
X16057479Y-24798782D01*
X16060684Y-24796004D01*
X16064063Y-24792625D01*
X16064063Y-24792624D01*
X16064068Y-24792621D01*
X16152308Y-24677625D01*
X16207777Y-24543709D01*
X16226697Y-24400000D01*
X16207777Y-24256291D01*
X16152308Y-24122375D01*
X16064068Y-24007379D01*
X15949072Y-23919139D01*
X15949071Y-23919138D01*
X15949069Y-23919137D01*
X15815159Y-23863671D01*
X15815157Y-23863670D01*
X15815156Y-23863670D01*
X15743301Y-23854210D01*
X15671448Y-23844750D01*
X15671446Y-23844750D01*
X15527738Y-23863670D01*
X15527734Y-23863671D01*
X15393824Y-23919137D01*
X15278826Y-24007379D01*
X15190584Y-24122377D01*
X15135118Y-24256287D01*
X15135117Y-24256291D01*
X15116197Y-24400000D01*
X9255500Y-24400000D01*
X9255500Y-23479493D01*
X9253395Y-23446760D01*
X9249325Y-23415253D01*
X9248569Y-23409856D01*
X9214746Y-23316078D01*
X9178674Y-23256240D01*
X9132645Y-23199933D01*
X8385110Y-22513671D01*
X7770642Y-21949569D01*
X7734570Y-21889731D01*
X7730500Y-21858224D01*
X7730500Y-19068214D01*
X7750185Y-19001175D01*
X7802989Y-18955420D01*
X7870684Y-18945275D01*
X7946447Y-18955250D01*
X8090156Y-18936330D01*
X8224072Y-18880861D01*
X8339068Y-18792621D01*
X8348072Y-18780886D01*
X8404497Y-18739685D01*
X8474243Y-18735529D01*
X8535164Y-18769740D01*
X8544814Y-18780876D01*
X8553826Y-18792621D01*
X8668822Y-18880861D01*
X8668823Y-18880861D01*
X8668824Y-18880862D01*
X8713460Y-18899350D01*
X8802738Y-18936330D01*
X8929727Y-18953048D01*
X8946446Y-18955250D01*
X8946447Y-18955250D01*
X8946448Y-18955250D01*
X8961424Y-18953278D01*
X9090156Y-18936330D01*
X9224072Y-18880861D01*
X9339068Y-18792621D01*
X9427308Y-18677625D01*
X9482777Y-18543709D01*
X9501697Y-18400000D01*
X9482777Y-18256291D01*
X9427308Y-18122375D01*
X9339068Y-18007379D01*
X9224072Y-17919139D01*
X9224071Y-17919138D01*
X9224069Y-17919137D01*
X9090159Y-17863671D01*
X9090157Y-17863670D01*
X9090156Y-17863670D01*
X9018301Y-17854210D01*
X8946448Y-17844750D01*
X8946446Y-17844750D01*
X8802738Y-17863670D01*
X8802734Y-17863671D01*
X8668824Y-17919137D01*
X8611324Y-17963259D01*
X8553826Y-18007379D01*
X8553825Y-18007380D01*
X8553824Y-18007381D01*
X8544822Y-18019113D01*
X8488394Y-18060316D01*
X8418648Y-18064470D01*
X8357728Y-18030257D01*
X8348072Y-18019113D01*
X8346229Y-18016711D01*
X8339068Y-18007379D01*
X8224072Y-17919139D01*
X8224071Y-17919138D01*
X8224069Y-17919137D01*
X8090159Y-17863671D01*
X8090157Y-17863670D01*
X8090156Y-17863670D01*
X8018301Y-17854210D01*
X7946448Y-17844750D01*
X7946445Y-17844750D01*
X7870685Y-17854724D01*
X7801650Y-17843958D01*
X7749394Y-17797578D01*
X7730500Y-17731785D01*
X7730500Y-14403388D01*
X9522500Y-14403388D01*
X9522500Y-14596611D01*
X9552725Y-14787441D01*
X9612429Y-14971194D01*
X9700147Y-15143349D01*
X9813715Y-15299663D01*
X9950336Y-15436284D01*
X10106650Y-15549852D01*
X10278805Y-15637570D01*
X10370681Y-15667422D01*
X10462560Y-15697275D01*
X10550943Y-15711273D01*
X10653389Y-15727500D01*
X10653394Y-15727500D01*
X10846611Y-15727500D01*
X10939123Y-15712846D01*
X11037440Y-15697275D01*
X11221197Y-15637569D01*
X11393350Y-15549852D01*
X11549663Y-15436285D01*
X11686285Y-15299663D01*
X11799852Y-15143350D01*
X11887569Y-14971197D01*
X11947275Y-14787440D01*
X11962846Y-14689123D01*
X11977500Y-14596611D01*
X11977500Y-14403388D01*
X11959916Y-14292373D01*
X11947275Y-14212560D01*
X11887569Y-14028803D01*
X11799852Y-13856650D01*
X11686285Y-13700337D01*
X11549663Y-13563715D01*
X11393350Y-13450148D01*
X11393351Y-13450148D01*
X11393349Y-13450147D01*
X11221194Y-13362429D01*
X11037441Y-13302725D01*
X10846611Y-13272500D01*
X10846606Y-13272500D01*
X10653394Y-13272500D01*
X10653389Y-13272500D01*
X10462558Y-13302725D01*
X10278805Y-13362429D01*
X10106650Y-13450147D01*
X9950336Y-13563715D01*
X9813715Y-13700336D01*
X9700147Y-13856650D01*
X9612429Y-14028805D01*
X9552725Y-14212558D01*
X9522500Y-14403388D01*
X7730500Y-14403388D01*
X7730500Y-13374000D01*
X7724661Y-13319687D01*
X7713455Y-13268176D01*
X7706219Y-13241802D01*
X7702332Y-13234976D01*
X7656894Y-13155181D01*
X7656890Y-13155176D01*
X7656888Y-13155172D01*
X7621097Y-13113867D01*
X7611136Y-13102371D01*
X7578359Y-13070743D01*
X7490022Y-13024534D01*
X7490022Y-13024533D01*
X7422990Y-13004851D01*
X7422978Y-13004848D01*
X7351001Y-12994500D01*
X7351000Y-12994500D01*
X5724000Y-12994500D01*
X5723997Y-12994500D01*
X5669687Y-13000338D01*
X5618181Y-13011543D01*
X5618172Y-13011546D01*
X5591807Y-13018779D01*
X5591796Y-13018783D01*
X5505181Y-13068105D01*
X5505173Y-13068111D01*
X5452371Y-13113863D01*
X5420743Y-13146640D01*
X5374534Y-13234977D01*
X5374533Y-13234977D01*
X5354851Y-13302009D01*
X5354848Y-13302021D01*
X5344500Y-13373998D01*
X-8381939Y-13373998D01*
X-10014446Y-11741491D01*
X-10047931Y-11680168D01*
X-10049704Y-11637623D01*
X-10044750Y-11600000D01*
X-10063670Y-11456291D01*
X-10119139Y-11322375D01*
X-10207379Y-11207379D01*
X-10322375Y-11119139D01*
X-10322376Y-11119138D01*
X-10322378Y-11119137D01*
X-10456288Y-11063671D01*
X-10456290Y-11063670D01*
X-10456291Y-11063670D01*
X-10528146Y-11054210D01*
X-10599999Y-11044750D01*
X-10600001Y-11044750D01*
X-10743709Y-11063670D01*
X-10743713Y-11063671D01*
X-10877623Y-11119137D01*
X-10992621Y-11207379D01*
X-11080863Y-11322377D01*
X-11136329Y-11456287D01*
X-11136330Y-11456291D01*
X-11150123Y-11561061D01*
X-11155250Y-11600000D01*
X-11142085Y-11700000D01*
X-11136330Y-11743708D01*
X-11136329Y-11743712D01*
X-11080863Y-11877622D01*
X-11080862Y-11877624D01*
X-11080861Y-11877625D01*
X-10992621Y-11992621D01*
X-10877625Y-12080861D01*
X-10877624Y-12080861D01*
X-10877623Y-12080862D01*
X-10832987Y-12099350D01*
X-10743709Y-12136330D01*
X-10600000Y-12155250D01*
X-10562376Y-12150296D01*
X-10493342Y-12161061D01*
X-10458509Y-12185554D01*
X-4950319Y-17693744D01*
X-4916834Y-17755067D01*
X-4914000Y-17781425D01*
X-4914000Y-19746767D01*
X-4933685Y-19813806D01*
X-4986489Y-19859561D01*
X-5055647Y-19869505D01*
X-5113486Y-19845143D01*
X-5147375Y-19819139D01*
X-5147376Y-19819138D01*
X-5147378Y-19819137D01*
X-5281288Y-19763671D01*
X-5281290Y-19763670D01*
X-5281291Y-19763670D01*
X-5353146Y-19754210D01*
X-5424999Y-19744750D01*
X-5425001Y-19744750D01*
X-5568709Y-19763670D01*
X-5568713Y-19763671D01*
X-5702623Y-19819137D01*
X-5817621Y-19907379D01*
X-5905863Y-20022377D01*
X-5961329Y-20156287D01*
X-5961330Y-20156291D01*
X-5980250Y-20299999D01*
X-5980250Y-20300000D01*
X-5961330Y-20443708D01*
X-5961329Y-20443712D01*
X-5905863Y-20577622D01*
X-5905862Y-20577624D01*
X-5905861Y-20577625D01*
X-5817621Y-20692621D01*
X-5702625Y-20780861D01*
X-5568709Y-20836330D01*
X-5441720Y-20853048D01*
X-5425001Y-20855250D01*
X-5425000Y-20855250D01*
X-5424999Y-20855250D01*
X-5409672Y-20853232D01*
X-5281291Y-20836330D01*
X-5147375Y-20780861D01*
X-5113485Y-20754855D01*
X-5048319Y-20729662D01*
X-4979874Y-20743699D01*
X-4929884Y-20792512D01*
X-4914000Y-20853232D01*
X-4914000Y-22218574D01*
X-4933685Y-22285613D01*
X-4950319Y-22306255D01*
X-5147200Y-22503136D01*
X-5208523Y-22536621D01*
X-5278215Y-22531637D01*
X-5334148Y-22489765D01*
X-5358565Y-22424301D01*
X-5357821Y-22399276D01*
X-5344750Y-22300000D01*
X-5363670Y-22156291D01*
X-5419139Y-22022375D01*
X-5507379Y-21907379D01*
X-5622375Y-21819139D01*
X-5622376Y-21819138D01*
X-5622378Y-21819137D01*
X-5756288Y-21763671D01*
X-5756290Y-21763670D01*
X-5756291Y-21763670D01*
X-5828146Y-21754210D01*
X-5899999Y-21744750D01*
X-5900003Y-21744750D01*
X-5937627Y-21749703D01*
X-6006662Y-21738937D01*
X-6041492Y-21714445D01*
X-13352549Y-14403388D01*
X-11477500Y-14403388D01*
X-11477500Y-14596611D01*
X-11447275Y-14787441D01*
X-11387571Y-14971194D01*
X-11299853Y-15143349D01*
X-11186285Y-15299663D01*
X-11049664Y-15436284D01*
X-10893350Y-15549852D01*
X-10721195Y-15637570D01*
X-10629319Y-15667422D01*
X-10537440Y-15697275D01*
X-10449057Y-15711273D01*
X-10346611Y-15727500D01*
X-10346606Y-15727500D01*
X-10153389Y-15727500D01*
X-10060877Y-15712846D01*
X-9962560Y-15697275D01*
X-9778803Y-15637569D01*
X-9606650Y-15549852D01*
X-9450337Y-15436285D01*
X-9313715Y-15299663D01*
X-9200148Y-15143350D01*
X-9112431Y-14971197D01*
X-9052725Y-14787440D01*
X-9037154Y-14689123D01*
X-9022500Y-14596611D01*
X-9022500Y-14403388D01*
X-9040084Y-14292373D01*
X-9052725Y-14212560D01*
X-9112431Y-14028803D01*
X-9200148Y-13856650D01*
X-9313715Y-13700337D01*
X-9450337Y-13563715D01*
X-9606650Y-13450148D01*
X-9606649Y-13450148D01*
X-9606651Y-13450147D01*
X-9778806Y-13362429D01*
X-9962559Y-13302725D01*
X-10153389Y-13272500D01*
X-10153394Y-13272500D01*
X-10346606Y-13272500D01*
X-10346611Y-13272500D01*
X-10537442Y-13302725D01*
X-10721195Y-13362429D01*
X-10893350Y-13450147D01*
X-11049664Y-13563715D01*
X-11186285Y-13700336D01*
X-11299853Y-13856650D01*
X-11387571Y-14028805D01*
X-11447275Y-14212558D01*
X-11477500Y-14403388D01*
X-13352549Y-14403388D01*
X-16307201Y-11448736D01*
X-16378802Y-11407398D01*
X-16386633Y-11405299D01*
X-16395677Y-11402876D01*
X-16395679Y-11402875D01*
X-16458660Y-11386000D01*
X-16458661Y-11386000D01*
X-16585901Y-11386000D01*
X-16652940Y-11366315D01*
X-16684276Y-11337487D01*
X-16695872Y-11322375D01*
X-16707379Y-11307379D01*
X-16822375Y-11219139D01*
X-16822376Y-11219138D01*
X-16822378Y-11219137D01*
X-16956288Y-11163671D01*
X-16956290Y-11163670D01*
X-16956291Y-11163670D01*
X-17028146Y-11154210D01*
X-17099999Y-11144750D01*
X-17100001Y-11144750D01*
X-17243709Y-11163670D01*
X-17243713Y-11163671D01*
X-17377623Y-11219137D01*
X-17492621Y-11307379D01*
X-17580863Y-11422377D01*
X-17636329Y-11556287D01*
X-17636330Y-11556291D01*
X-17655250Y-11700000D01*
X-17649788Y-11741491D01*
X-17636330Y-11843708D01*
X-17636329Y-11843712D01*
X-17580863Y-11977622D01*
X-17580862Y-11977624D01*
X-17580861Y-11977625D01*
X-17492621Y-12092621D01*
X-17377625Y-12180861D01*
X-17243709Y-12236330D01*
X-17116720Y-12253048D01*
X-17100001Y-12255250D01*
X-17100000Y-12255250D01*
X-17099999Y-12255250D01*
X-17085023Y-12253278D01*
X-16956291Y-12236330D01*
X-16822375Y-12180861D01*
X-16707379Y-12092621D01*
X-16707378Y-12092619D01*
X-16705420Y-12091117D01*
X-16640251Y-12065922D01*
X-16571806Y-12079960D01*
X-16542252Y-12101811D01*
X-6485555Y-22158508D01*
X-6452070Y-22219831D01*
X-6450297Y-22262373D01*
X-6455250Y-22299997D01*
X-6455250Y-22300000D01*
X-6436330Y-22443708D01*
X-6436329Y-22443712D01*
X-6380863Y-22577622D01*
X-6380862Y-22577624D01*
X-6380861Y-22577625D01*
X-6292621Y-22692621D01*
X-6177625Y-22780861D01*
X-6177624Y-22780861D01*
X-6177623Y-22780862D01*
X-6044498Y-22836003D01*
X-5990094Y-22879843D01*
X-5968029Y-22946137D01*
X-5985308Y-23013837D01*
X-6016462Y-23048939D01*
X-6092620Y-23107378D01*
X-6180863Y-23222377D01*
X-6236329Y-23356287D01*
X-6236330Y-23356291D01*
X-6252421Y-23478515D01*
X-6255250Y-23500000D01*
X-6246148Y-23569139D01*
X-6236330Y-23643708D01*
X-6236329Y-23643712D01*
X-6180863Y-23777622D01*
X-6180862Y-23777624D01*
X-6180861Y-23777625D01*
X-6092621Y-23892621D01*
X-5977625Y-23980861D01*
X-5917357Y-24005824D01*
X-5862956Y-24049662D01*
X-5840890Y-24115956D01*
X-5858168Y-24183656D01*
X-5877130Y-24208065D01*
X-6818744Y-25149681D01*
X-6880067Y-25183166D01*
X-6906425Y-25186000D01*
X-10335901Y-25186000D01*
X-10402940Y-25166315D01*
X-10434276Y-25137487D01*
X-10457381Y-25107377D01*
X-10487487Y-25084275D01*
X-10528690Y-25027847D01*
X-10536000Y-24985900D01*
X-10536000Y-21224999D01*
X-9255250Y-21224999D01*
X-9255250Y-21225000D01*
X-9236330Y-21368708D01*
X-9236329Y-21368712D01*
X-9180863Y-21502622D01*
X-9180862Y-21502624D01*
X-9180861Y-21502625D01*
X-9092621Y-21617621D01*
X-8977625Y-21705861D01*
X-8843709Y-21761330D01*
X-8716720Y-21778048D01*
X-8700001Y-21780250D01*
X-8700000Y-21780250D01*
X-8699999Y-21780250D01*
X-8685023Y-21778278D01*
X-8556291Y-21761330D01*
X-8422375Y-21705861D01*
X-8307379Y-21617621D01*
X-8219139Y-21502625D01*
X-8163670Y-21368709D01*
X-8144750Y-21225000D01*
X-8163670Y-21081291D01*
X-8219139Y-20947375D01*
X-8307379Y-20832379D01*
X-8422375Y-20744139D01*
X-8422376Y-20744138D01*
X-8422378Y-20744137D01*
X-8556288Y-20688671D01*
X-8556290Y-20688670D01*
X-8556291Y-20688670D01*
X-8628146Y-20679210D01*
X-8699999Y-20669750D01*
X-8700001Y-20669750D01*
X-8843709Y-20688670D01*
X-8843713Y-20688671D01*
X-8977623Y-20744137D01*
X-9092621Y-20832379D01*
X-9180863Y-20947377D01*
X-9236329Y-21081287D01*
X-9236330Y-21081291D01*
X-9255250Y-21224999D01*
X-10536000Y-21224999D01*
X-10536000Y-19758662D01*
X-10557399Y-19678801D01*
X-10557399Y-19678800D01*
X-10598738Y-19607199D01*
X-12564446Y-17641491D01*
X-12597931Y-17580168D01*
X-12599704Y-17537623D01*
X-12594750Y-17500000D01*
X-12613670Y-17356291D01*
X-12669139Y-17222375D01*
X-12757379Y-17107379D01*
X-12872375Y-17019139D01*
X-12872376Y-17019138D01*
X-12872378Y-17019137D01*
X-13006288Y-16963671D01*
X-13006290Y-16963670D01*
X-13006291Y-16963670D01*
X-13078146Y-16954210D01*
X-13149999Y-16944750D01*
X-13150001Y-16944750D01*
X-13293709Y-16963670D01*
X-13293713Y-16963671D01*
X-13427623Y-17019137D01*
X-13542621Y-17107379D01*
X-13630863Y-17222377D01*
X-13686329Y-17356287D01*
X-13686330Y-17356291D01*
X-13705250Y-17499999D01*
X-13705250Y-17500000D01*
X-13686330Y-17643708D01*
X-13686329Y-17643712D01*
X-13630863Y-17777622D01*
X-13630862Y-17777624D01*
X-13630861Y-17777625D01*
X-13542621Y-17892621D01*
X-13533289Y-17899782D01*
X-13530887Y-17901625D01*
X-13489684Y-17958053D01*
X-13485530Y-18027799D01*
X-13519743Y-18088719D01*
X-13530887Y-18098375D01*
X-13542619Y-18107377D01*
X-13542620Y-18107378D01*
X-13542621Y-18107379D01*
X-13586741Y-18164877D01*
X-13630863Y-18222377D01*
X-13686329Y-18356287D01*
X-13686330Y-18356291D01*
X-13705250Y-18500000D01*
X-13698235Y-18553287D01*
X-13686330Y-18643708D01*
X-13686329Y-18643712D01*
X-13630863Y-18777622D01*
X-13630862Y-18777624D01*
X-13630861Y-18777625D01*
X-13542621Y-18892621D01*
X-13427625Y-18980861D01*
X-13293709Y-19036330D01*
X-13166720Y-19053048D01*
X-13150001Y-19055250D01*
X-13150000Y-19055250D01*
X-13149999Y-19055250D01*
X-13135023Y-19053278D01*
X-13006291Y-19036330D01*
X-12977793Y-19024525D01*
X-12908327Y-19017054D01*
X-12845847Y-19048327D01*
X-12842659Y-19051404D01*
X-11875319Y-20018744D01*
X-11841834Y-20080067D01*
X-11839000Y-20106425D01*
X-11839000Y-26166339D01*
X-11828004Y-26207378D01*
X-11817603Y-26246195D01*
X-11817598Y-26246206D01*
X-11776268Y-26317793D01*
X-11776262Y-26317801D01*
X-11685555Y-26408508D01*
X-11652070Y-26469831D01*
X-11650297Y-26512373D01*
X-11655250Y-26549997D01*
X-11655250Y-26550000D01*
X-11636330Y-26693708D01*
X-11636329Y-26693712D01*
X-11580863Y-26827622D01*
X-11580862Y-26827624D01*
X-11580861Y-26827625D01*
X-11492621Y-26942621D01*
X-11377625Y-27030861D01*
X-11243709Y-27086330D01*
X-11116720Y-27103048D01*
X-11100001Y-27105250D01*
X-11100000Y-27105250D01*
X-11099999Y-27105250D01*
X-11085023Y-27103278D01*
X-10956291Y-27086330D01*
X-10822375Y-27030861D01*
X-10707379Y-26942621D01*
X-10684276Y-26912513D01*
X-10627848Y-26871311D01*
X-10585901Y-26864000D01*
X-7308663Y-26864000D01*
X-7308661Y-26864000D01*
X-7245677Y-26847123D01*
X-7228800Y-26842601D01*
X-7202860Y-26827625D01*
X-7157207Y-26801267D01*
X-7157208Y-26801267D01*
X-7157200Y-26801263D01*
X-5412354Y-25056416D01*
X-5351033Y-25022933D01*
X-5281341Y-25027917D01*
X-5225408Y-25069789D01*
X-5210114Y-25096646D01*
X-5155862Y-25227623D01*
X-5155861Y-25227625D01*
X-5067621Y-25342621D01*
X-5028646Y-25372528D01*
X-4987445Y-25428954D01*
X-4983290Y-25498700D01*
X-5017503Y-25559621D01*
X-5056679Y-25585462D01*
X-5077622Y-25594137D01*
X-5192621Y-25682379D01*
X-5280863Y-25797377D01*
X-5336329Y-25931287D01*
X-5336330Y-25931291D01*
X-5355250Y-26075000D01*
X-5344480Y-26156806D01*
X-5355245Y-26225841D01*
X-5379738Y-26260672D01*
X-9940264Y-30821200D01*
X-11380299Y-32261235D01*
X-11380301Y-32261237D01*
X-11585378Y-32466315D01*
X-11768744Y-32649681D01*
X-11830067Y-32683166D01*
X-11856425Y-32686000D01*
X-17242410Y-32686000D01*
X-17309449Y-32666315D01*
X-17347404Y-32627972D01*
X-17369630Y-32592600D01*
X-17409523Y-32529110D01*
X-17529110Y-32409523D01*
X-17529116Y-32409518D01*
X-17672303Y-32319547D01*
X-17672306Y-32319545D01*
X-17831944Y-32263685D01*
X-17999997Y-32244751D01*
X-18000003Y-32244751D01*
X-18168057Y-32263685D01*
X-18327695Y-32319545D01*
X-18327698Y-32319547D01*
X-18470885Y-32409518D01*
X-18470891Y-32409523D01*
X-18590477Y-32529109D01*
X-18590482Y-32529115D01*
X-18680453Y-32672302D01*
X-18680455Y-32672305D01*
X-18736315Y-32831943D01*
X-18755249Y-32999997D01*
X-19499500Y-32999997D01*
X-19499500Y-26599999D01*
X-17005250Y-26599999D01*
X-17005250Y-26600000D01*
X-16986330Y-26743708D01*
X-16986329Y-26743712D01*
X-16930863Y-26877622D01*
X-16930862Y-26877624D01*
X-16930861Y-26877625D01*
X-16842621Y-26992621D01*
X-16727625Y-27080861D01*
X-16727624Y-27080861D01*
X-16727623Y-27080862D01*
X-16682987Y-27099350D01*
X-16593709Y-27136330D01*
X-16466720Y-27153048D01*
X-16450001Y-27155250D01*
X-16450000Y-27155250D01*
X-16449999Y-27155250D01*
X-16435023Y-27153278D01*
X-16306291Y-27136330D01*
X-16172375Y-27080861D01*
X-16057379Y-26992621D01*
X-15969139Y-26877625D01*
X-15913670Y-26743709D01*
X-15894750Y-26600000D01*
X-15913670Y-26456291D01*
X-15956610Y-26352622D01*
X-15969138Y-26322377D01*
X-15969139Y-26322376D01*
X-15969139Y-26322375D01*
X-16057379Y-26207379D01*
X-16172375Y-26119139D01*
X-16172376Y-26119138D01*
X-16172378Y-26119137D01*
X-16306288Y-26063671D01*
X-16306290Y-26063670D01*
X-16306291Y-26063670D01*
X-16428109Y-26047632D01*
X-16449999Y-26044750D01*
X-16450001Y-26044750D01*
X-16593709Y-26063670D01*
X-16593713Y-26063671D01*
X-16727623Y-26119137D01*
X-16842621Y-26207379D01*
X-16930863Y-26322377D01*
X-16986329Y-26456287D01*
X-16986330Y-26456291D01*
X-17005250Y-26599999D01*
X-19499500Y-26599999D01*
X-19499500Y-16524999D01*
X-17142750Y-16524999D01*
X-17142750Y-16525000D01*
X-17123830Y-16668708D01*
X-17123829Y-16668712D01*
X-17068363Y-16802622D01*
X-17068362Y-16802624D01*
X-17068361Y-16802625D01*
X-16980121Y-16917621D01*
X-16865125Y-17005861D01*
X-16865124Y-17005861D01*
X-16865123Y-17005862D01*
X-16833069Y-17019139D01*
X-16731209Y-17061330D01*
X-16604220Y-17078048D01*
X-16587501Y-17080250D01*
X-16587500Y-17080250D01*
X-16587499Y-17080250D01*
X-16572523Y-17078278D01*
X-16443791Y-17061330D01*
X-16309875Y-17005861D01*
X-16194879Y-16917621D01*
X-16106639Y-16802625D01*
X-16051170Y-16668709D01*
X-16032250Y-16525000D01*
X-16051170Y-16381291D01*
X-16106639Y-16247375D01*
X-16194879Y-16132379D01*
X-16309875Y-16044139D01*
X-16309876Y-16044138D01*
X-16309878Y-16044137D01*
X-16443788Y-15988671D01*
X-16443790Y-15988670D01*
X-16443791Y-15988670D01*
X-16515646Y-15979210D01*
X-16587499Y-15969750D01*
X-16587501Y-15969750D01*
X-16731209Y-15988670D01*
X-16731213Y-15988671D01*
X-16865123Y-16044137D01*
X-16980121Y-16132379D01*
X-17068363Y-16247377D01*
X-17123829Y-16381287D01*
X-17123830Y-16381291D01*
X-17142750Y-16524999D01*
X-19499500Y-16524999D01*
X-19499500Y-10599999D01*
X-15355250Y-10599999D01*
X-15355250Y-10600000D01*
X-15336330Y-10743708D01*
X-15336329Y-10743712D01*
X-15280863Y-10877622D01*
X-15280862Y-10877624D01*
X-15280861Y-10877625D01*
X-15192621Y-10992621D01*
X-15077625Y-11080861D01*
X-14943709Y-11136330D01*
X-14816720Y-11153048D01*
X-14800001Y-11155250D01*
X-14800000Y-11155250D01*
X-14799999Y-11155250D01*
X-14785023Y-11153278D01*
X-14656291Y-11136330D01*
X-14522375Y-11080861D01*
X-14407379Y-10992621D01*
X-14319139Y-10877625D01*
X-14263670Y-10743709D01*
X-14244750Y-10600000D01*
X-14257915Y-10500000D01*
X-8955250Y-10500000D01*
X-8942085Y-10600000D01*
X-8936330Y-10643708D01*
X-8936329Y-10643712D01*
X-8880863Y-10777622D01*
X-8880862Y-10777624D01*
X-8880861Y-10777625D01*
X-8792621Y-10892621D01*
X-8677625Y-10980861D01*
X-8677624Y-10980861D01*
X-8677623Y-10980862D01*
X-8632987Y-10999350D01*
X-8543709Y-11036330D01*
X-8416720Y-11053048D01*
X-8400001Y-11055250D01*
X-8400000Y-11055250D01*
X-8399999Y-11055250D01*
X-8385023Y-11053278D01*
X-8256291Y-11036330D01*
X-8122375Y-10980861D01*
X-8007379Y-10892621D01*
X-7919139Y-10777625D01*
X-7863670Y-10643709D01*
X-7844750Y-10500000D01*
X-7863670Y-10356291D01*
X-7919139Y-10222375D01*
X-8007379Y-10107379D01*
X-8122375Y-10019139D01*
X-8122376Y-10019138D01*
X-8122378Y-10019137D01*
X-8256288Y-9963671D01*
X-8256290Y-9963670D01*
X-8256291Y-9963670D01*
X-8328146Y-9954210D01*
X-8399999Y-9944750D01*
X-8400001Y-9944750D01*
X-8543709Y-9963670D01*
X-8543713Y-9963671D01*
X-8677623Y-10019137D01*
X-8792621Y-10107379D01*
X-8880863Y-10222377D01*
X-8936329Y-10356287D01*
X-8936330Y-10356291D01*
X-8949495Y-10456291D01*
X-8955250Y-10500000D01*
X-14257915Y-10500000D01*
X-14263670Y-10456291D01*
X-14319139Y-10322375D01*
X-14407379Y-10207379D01*
X-14522375Y-10119139D01*
X-14522376Y-10119138D01*
X-14522378Y-10119137D01*
X-14656288Y-10063671D01*
X-14656290Y-10063670D01*
X-14656291Y-10063670D01*
X-14728146Y-10054210D01*
X-14799999Y-10044750D01*
X-14800001Y-10044750D01*
X-14943709Y-10063670D01*
X-14943713Y-10063671D01*
X-15077623Y-10119137D01*
X-15192621Y-10207379D01*
X-15280863Y-10322377D01*
X-15336329Y-10456287D01*
X-15336330Y-10456291D01*
X-15355250Y-10599999D01*
X-19499500Y-10599999D01*
X-19499500Y-5157678D01*
X-4482322Y-5157678D01*
X-4482322Y-6857678D01*
X-4482322Y-10507678D01*
X4517678Y-10507678D01*
X4517678Y-1903388D01*
X9522500Y-1903388D01*
X9522500Y-2096611D01*
X9552725Y-2287441D01*
X9612429Y-2471194D01*
X9700147Y-2643349D01*
X9762246Y-2728822D01*
X9813715Y-2799663D01*
X9950337Y-2936285D01*
X10106650Y-3049852D01*
X10278805Y-3137570D01*
X10370681Y-3167422D01*
X10462560Y-3197275D01*
X10550943Y-3211273D01*
X10653389Y-3227500D01*
X10653394Y-3227500D01*
X10846611Y-3227500D01*
X10939123Y-3212846D01*
X11037440Y-3197275D01*
X11221197Y-3137569D01*
X11393350Y-3049852D01*
X11549663Y-2936285D01*
X11686285Y-2799663D01*
X11799852Y-2643350D01*
X11887569Y-2471197D01*
X11947275Y-2287440D01*
X11962846Y-2189123D01*
X11977500Y-2096611D01*
X11977500Y-1903388D01*
X11957629Y-1777931D01*
X11947275Y-1712560D01*
X11903405Y-1577542D01*
X11887570Y-1528805D01*
X11799852Y-1356650D01*
X11686284Y-1200336D01*
X11549663Y-1063715D01*
X11393349Y-950147D01*
X11221194Y-862429D01*
X11037441Y-802725D01*
X10846611Y-772500D01*
X10846606Y-772500D01*
X10653394Y-772500D01*
X10653389Y-772500D01*
X10462558Y-802725D01*
X10278805Y-862429D01*
X10106650Y-950147D01*
X9950336Y-1063715D01*
X9813715Y-1200336D01*
X9700147Y-1356650D01*
X9612429Y-1528805D01*
X9552725Y-1712558D01*
X9522500Y-1903388D01*
X4517678Y-1903388D01*
X4517678Y-1507678D01*
X867678Y-1507678D01*
X-832322Y-1507678D01*
X-4482322Y-1507678D01*
X-4482322Y-5157678D01*
X-19499500Y-5157678D01*
X-19499500Y-2004427D01*
X-19499184Y-1995581D01*
X-19494787Y-1934108D01*
X-19492590Y-1903388D01*
X-11477500Y-1903388D01*
X-11477500Y-2096611D01*
X-11447275Y-2287441D01*
X-11387571Y-2471194D01*
X-11299853Y-2643349D01*
X-11237754Y-2728822D01*
X-11186285Y-2799663D01*
X-11049663Y-2936285D01*
X-10893350Y-3049852D01*
X-10721195Y-3137570D01*
X-10629319Y-3167422D01*
X-10537440Y-3197275D01*
X-10449057Y-3211273D01*
X-10346611Y-3227500D01*
X-10346606Y-3227500D01*
X-10153389Y-3227500D01*
X-10060877Y-3212846D01*
X-9962560Y-3197275D01*
X-9778803Y-3137569D01*
X-9606650Y-3049852D01*
X-9450337Y-2936285D01*
X-9313715Y-2799663D01*
X-9200148Y-2643350D01*
X-9112431Y-2471197D01*
X-9052725Y-2287440D01*
X-9037154Y-2189123D01*
X-9022500Y-2096611D01*
X-9022500Y-1903388D01*
X-9042371Y-1777931D01*
X-9052725Y-1712560D01*
X-9096595Y-1577542D01*
X-9112430Y-1528805D01*
X-9200148Y-1356650D01*
X-9313716Y-1200336D01*
X-9450337Y-1063715D01*
X-9606651Y-950147D01*
X-9778806Y-862429D01*
X-9962559Y-802725D01*
X-10153389Y-772500D01*
X-10153394Y-772500D01*
X-10346606Y-772500D01*
X-10346611Y-772500D01*
X-10537442Y-802725D01*
X-10721195Y-862429D01*
X-10893350Y-950147D01*
X-11049664Y-1063715D01*
X-11186285Y-1200336D01*
X-11299853Y-1356650D01*
X-11387571Y-1528805D01*
X-11447275Y-1712558D01*
X-11477500Y-1903388D01*
X-19492590Y-1903388D01*
X-19484870Y-1795436D01*
X-19482354Y-1777938D01*
X-19440644Y-1586199D01*
X-19435667Y-1569248D01*
X-19367089Y-1385385D01*
X-19359741Y-1369298D01*
X-19267482Y-1200337D01*
X-19265709Y-1197089D01*
X-19256155Y-1182221D01*
X-19138552Y-1025123D01*
X-19126980Y-1011769D01*
X-18988231Y-873020D01*
X-18974877Y-861448D01*
X-18817779Y-743845D01*
X-18802911Y-734291D01*
X-18630702Y-640258D01*
X-18614615Y-632911D01*
X-18430752Y-564333D01*
X-18413801Y-559356D01*
X-18222062Y-517646D01*
X-18204564Y-515130D01*
X-18004418Y-500816D01*
X-17995572Y-500500D01*
X-17934108Y-500500D01*
X17934108Y-500500D01*
X17995572Y-500500D01*
X18004418Y-500816D01*
G37*
%TD.AperFunction*%
%TD*%
%TA.AperFunction,Conductor*%
%TO.N,/connector/V_POC*%
G36*
X7418039Y-13269685D02*
G01*
X7463794Y-13322489D01*
X7475000Y-13374000D01*
X7475000Y-18074982D01*
X7465561Y-18122434D01*
X7410118Y-18256287D01*
X7410117Y-18256291D01*
X7391197Y-18399999D01*
X7391197Y-18400000D01*
X7410117Y-18543708D01*
X7410118Y-18543712D01*
X7465561Y-18677566D01*
X7475000Y-18725018D01*
X7475000Y-22025000D01*
X8959858Y-23388148D01*
X8995930Y-23447986D01*
X9000000Y-23479493D01*
X9000000Y-25776000D01*
X8980315Y-25843039D01*
X8927511Y-25888794D01*
X8876000Y-25900000D01*
X7874000Y-25900000D01*
X7806961Y-25880315D01*
X7761206Y-25827511D01*
X7750000Y-25776000D01*
X7750000Y-24175001D01*
X7749999Y-24174999D01*
X5639543Y-22211784D01*
X5603865Y-22151711D01*
X5600000Y-22120993D01*
X5600000Y-13374000D01*
X5619685Y-13306961D01*
X5672489Y-13261206D01*
X5724000Y-13250000D01*
X7351000Y-13250000D01*
X7418039Y-13269685D01*
G37*
%TD.AperFunction*%
%TD*%
M02*
